<svg width="312" height="49" viewBox="0 0 312 49" fill="none" xmlns="http://www.w3.org/2000/svg">
<g clip-path="url(#clip0_227_2048)">
<path d="M306.897 22.2907L311.135 26.5216L312.014 38.3219C308.584 38.6241 306.624 38.9263 303.251 38.437C301.896 38.2499 300.527 37.9765 299.172 37.8326C296.015 37.516 294.992 37.6599 292.988 39.099L290.682 40.7539L288.376 39.099C286.372 37.6455 285.349 37.5016 282.192 37.8326C280.837 37.9765 279.468 38.2355 278.113 38.437C274.726 38.9119 272.78 38.6241 269.35 38.3219L270.229 26.5216L271.079 25.6725L274.51 22.2907C275.576 22.2907 276.657 22.2332 278.012 22.0461C279.382 21.8446 280.751 21.5856 282.12 21.4417C286.718 20.9668 287.223 21.6576 290.682 24.1759C294.156 21.6576 294.646 20.9668 299.244 21.4417C300.613 21.5856 301.982 21.8446 303.352 22.0461C304.721 22.2476 305.816 22.3051 306.897 22.2907Z" fill="white"/>
<path d="M291.936 32.4513L291.677 45.6906C291.677 46.4102 291.388 47.1585 290.711 47.1585C290.034 47.1585 289.745 46.3958 289.745 45.6906L289.443 32.4513H291.936ZM292.138 22.3347L292.08 25.2272H289.27L289.198 22.3347V21.572C288.621 21.313 288.881 20.7661 288.347 20.7661V20.4927C286.012 19.6436 284.873 17.6146 284.917 15.4416L285.709 14.6501V13.3262H295.626V14.6501L296.419 15.4416C296.462 17.6146 295.323 19.6436 292.988 20.4927V20.7661C292.455 20.7661 292.715 21.2986 292.152 21.572V22.3347H292.138ZM290.091 25.2272L290.019 22.3347L289.976 20.982C289.789 20.982 289.644 20.982 289.515 20.8956C289.371 20.7805 289.385 20.5359 289.154 20.32V19.9171C286.935 19.2551 285.796 17.5426 285.738 15.787L286.531 15.0099V14.1464H294.79V15.0099L295.583 15.787C295.525 17.5426 294.387 19.2695 292.167 19.9171V20.32C291.936 20.5359 291.951 20.7805 291.806 20.8956C291.677 20.9964 291.518 20.982 291.345 20.982L291.316 22.3347L291.259 25.2272H290.091ZM290.711 46.3094C290.581 46.1511 290.567 45.8489 290.567 45.6762L290.264 32.4513H291.115L290.855 45.6762C290.855 45.8633 290.841 46.1511 290.711 46.3094Z" fill="#231F20"/>
<path d="M287.381 11.4118C287.511 9.80006 289.486 9.282 289.212 7.72781C288.88 9.55542 287.468 9.19565 287.381 11.4118ZM286.488 12.9804C286.272 12.4191 286.156 11.8147 286.185 11.1672C286.243 9.84323 286.848 8.6632 287.771 7.82855C288.707 6.99389 288.938 6.23119 288.434 5.56922C289.76 5.94338 290.423 6.79242 290.408 8.14514C290.322 10.3037 288.534 10.6635 288.448 12.9948H286.502L286.488 12.9804ZM293.983 7.77098C294.877 8.60564 295.41 9.81445 295.352 11.1672C295.323 11.8147 295.165 12.4335 294.905 12.9804H293.147C293.738 12.2896 294.473 11.714 294.3 10.7211C294.069 11.9874 293.305 12.2033 292.844 12.9804H290.884C290.97 12.7501 291.115 12.5487 291.36 12.304C291.504 12.1601 291.648 12.0306 291.806 11.9011C291.979 11.7572 292.152 11.6133 292.325 11.4694C293.032 10.8794 293.853 10.131 293.983 8.93662C294.026 8.5049 294.041 8.11636 293.983 7.75659V7.77098ZM290.408 12.9804H288.909C288.952 11.9586 289.342 11.3542 289.803 10.7354C289.918 10.5772 290.048 10.4045 290.163 10.2318C290.279 10.0447 290.394 9.85762 290.495 9.65615C290.697 9.22443 290.855 8.73515 290.87 8.13075C290.87 7.2817 290.567 6.59095 290.192 6.0585C288.621 4.0726 289.255 2.2306 290.87 1.85645C289.961 2.74866 290.048 3.68405 291.057 4.82091C291.086 4.27407 291.374 3.92869 291.878 3.92869C291.374 4.44675 291.59 4.93603 292.08 5.598C292.181 5.72752 292.311 5.88581 292.469 6.04411C293.32 6.92194 293.68 7.67025 293.55 8.90784C293.349 10.8794 290.841 11.4981 290.423 12.9804H290.408Z" fill="#ED1C2E"/>
<path d="M290.408 40.5675L288.362 39.0996C286.358 37.6462 285.335 37.5023 282.178 37.8333C280.823 37.9772 279.454 38.2362 278.099 38.4377C274.712 38.9125 272.766 38.6247 269.335 38.3225L270.215 26.5222L271.065 25.6732L270.186 37.603C273.242 37.8764 274.971 38.0923 278.013 37.6606C279.382 37.4591 280.751 37.2001 282.12 37.0562C286.589 36.5957 287.18 37.2432 290.408 39.5889V40.5675ZM299.186 37.8333C296.03 37.5167 295.006 37.6606 293.003 39.0996L291.014 40.5243V39.5457C294.214 37.2288 294.819 36.5957 299.273 37.0562C300.642 37.2001 302.011 37.4591 303.381 37.6606C306.422 38.0923 308.152 37.8764 311.207 37.603L310.328 25.6732L311.179 26.5222L312.058 38.3225C308.627 38.6247 306.667 38.9269 303.294 38.4377C301.939 38.2506 300.57 37.9772 299.215 37.8333H299.186ZM290.394 38.6103C287.237 36.3366 286.329 35.8473 282.048 36.2791C279.137 36.5813 276.312 37.3584 273.357 37.0993L271.036 36.8979L271.944 24.8241L272.78 23.9895L271.872 36.1927C274.092 36.3942 275.548 36.4374 277.796 36.1208C279.194 35.9193 280.578 35.6459 281.962 35.502C285.998 35.0846 287.266 35.4156 290.365 37.6318V38.6103H290.394ZM308.065 37.0993C305.11 37.3584 302.285 36.5813 299.374 36.2791C295.107 35.8473 294.199 36.3222 291.071 38.5816V37.603C294.17 35.4156 295.424 35.099 299.446 35.502C300.829 35.6459 302.228 35.9193 303.611 36.1208C305.86 36.4374 307.316 36.3798 309.535 36.1927L308.627 23.9895L309.463 24.8241L310.371 36.8979L308.051 37.0993H308.065ZM290.106 23.788C287.756 22.1475 285.349 21.5431 282.913 21.7589C281.515 21.8885 280.117 21.9604 278.719 22.1187C277.897 22.2194 277.047 22.277 276.196 22.277C276.831 22.2338 277.45 22.1475 278.185 22.0324C280.434 21.6582 282.524 21.2121 284.571 21.1977C286.387 21.1977 288.246 21.5143 290.077 22.5792L290.106 23.788ZM291.36 22.5792C293.19 21.5143 295.05 21.1833 296.866 21.1977C298.912 21.2121 301.002 21.6726 303.251 22.0324C303.972 22.1475 304.606 22.2482 305.24 22.277C304.39 22.277 303.539 22.2051 302.718 22.1187C301.334 21.946 299.936 21.8741 298.523 21.7589C296.102 21.5431 293.68 22.1619 291.331 23.8024L291.36 22.5936V22.5792ZM290.38 36.6532C287.367 34.5378 285.709 34.3363 281.919 34.7249C280.521 34.8688 279.122 35.1422 277.71 35.3437C275.966 35.5883 274.481 35.6315 272.737 35.4732L273.645 23.1261L273.717 23.0541L274.496 22.2914V22.2482H274.539V22.5073L273.631 34.7249L274.236 34.7537C275.187 34.7968 276.283 34.6817 277.508 34.4946C279.641 34.178 281.832 33.7751 283.98 33.7607C284.21 33.7607 284.441 33.7607 284.657 33.7607C285.392 33.7895 286.127 33.8614 286.848 34.0197C287.929 34.25 288.981 34.6385 290.005 35.2717L290.351 35.4876L290.38 36.6388V36.6532ZM306.941 22.2914L307.719 23.0541L307.791 23.1261L308.699 35.4732C306.955 35.6315 305.471 35.5883 303.727 35.3437C302.329 35.1422 300.93 34.8688 299.518 34.7249C295.756 34.3363 294.084 34.5378 291.086 36.6244V35.4732L291.432 35.2861C292.441 34.6529 293.507 34.2644 294.588 34.0341C295.309 33.8758 296.03 33.8039 296.779 33.7751C297.01 33.7751 297.226 33.7751 297.457 33.7751C299.604 33.7895 301.795 34.2068 303.928 34.509C305.154 34.6817 306.249 34.8112 307.2 34.7681L307.806 34.7393L306.898 22.5216V22.2914V22.277H306.941V22.3058V22.2914Z" fill="#231F20"/>
<path d="M290.091 25.2272L290.019 22.3347L289.976 20.982C289.789 20.982 289.644 20.982 289.515 20.8957C289.371 20.7806 289.385 20.5359 289.154 20.3201V19.9171C286.935 19.2551 285.796 17.5427 285.738 15.787L286.531 15.0099V14.1465H294.79V15.0099L295.583 15.787C295.525 17.5427 294.387 19.2695 292.167 19.9171V20.3201C291.936 20.5359 291.951 20.7806 291.806 20.8957C291.677 20.9964 291.518 20.982 291.345 20.982L291.316 22.3347L291.259 25.2272H290.091ZM290.711 46.3095C290.581 46.1512 290.567 45.849 290.567 45.6763L290.264 32.4513H291.115L290.855 45.6763C290.855 45.8634 290.841 46.1512 290.711 46.3095Z" fill="white" stroke="white" stroke-width="0.1" stroke-miterlimit="3.86"/>
<path d="M294.992 14.9658H286.358V15.1529H294.992V14.9658Z" fill="#231F20"/>
<path d="M295.871 15.7432H285.407V15.9302H295.871V15.7432Z" fill="#231F20"/>
<path d="M292.354 19.8877H288.924V20.0748H292.354V19.8877Z" fill="#231F20"/>
<path d="M292.354 20.9238H288.924V21.1109H292.354V20.9238Z" fill="#231F20"/>
<path fill-rule="evenodd" clip-rule="evenodd" d="M287.511 31.7608V25.9326H286.286L284.657 29.0842L283 25.9326H281.789V31.7608H283.029V28.3646L284.239 30.5664H285.075L286.272 28.3646V31.7608H287.511Z" fill="#231F20"/>
<path fill-rule="evenodd" clip-rule="evenodd" d="M293.334 31.7608V30.7391H290.408V29.3288H292.902V28.3071H290.408V26.94H293.334V25.9326H289.183V31.7608H293.334Z" fill="#231F20"/>
<path fill-rule="evenodd" clip-rule="evenodd" d="M299.547 30.0769C299.547 29.2998 299.057 28.9256 298.682 28.7673C298.999 28.6234 299.46 28.2061 299.46 27.5585C299.46 26.5655 298.74 25.918 297.514 25.918H294.978V31.7462H297.615C298.74 31.7462 299.547 31.1561 299.547 30.0625V30.0769ZM298.221 27.6161C298.221 28.019 297.932 28.2924 297.399 28.2924H296.188V26.9541H297.399C297.918 26.9541 298.221 27.2275 298.221 27.6305V27.6161ZM298.307 30.0193C298.307 30.4078 298.048 30.7388 297.486 30.7388H296.203V29.2998H297.486C298.048 29.2998 298.307 29.6164 298.307 30.0193Z" fill="#231F20"/>
<path d="M57.2802 3.61204C88.1833 3.61204 113.35 23.7733 114.503 49C114.532 48.3956 114.56 47.7912 114.56 47.1868C114.56 21.1254 88.9184 0 57.2802 0C25.6421 0 0 21.1254 0 47.1868C0 47.7912 0.0288275 48.3956 0.057655 49C1.21075 23.7733 26.3772 3.61204 57.2802 3.61204Z" fill="#231F20"/>
<path d="M8.90788 30.7666C8.8214 30.9825 8.73492 31.2127 8.64844 31.4286H105.912C105.826 31.2127 105.754 30.9825 105.653 30.7666H8.90788Z" fill="#939598"/>
<path d="M5.66486 37.6172C5.63603 37.833 5.59279 38.0633 5.56396 38.2792H108.997C108.968 38.0633 108.925 37.833 108.896 37.6172H5.66486Z" fill="#939598"/>
<path d="M111.073 45.1288C111.101 44.9129 111.116 44.6827 111.145 44.4668H3.43066C3.44508 44.6827 3.47391 44.9129 3.50273 45.1288H111.073Z" fill="#939598"/>
<path d="M14.0535 23.917C13.895 24.1329 13.7508 24.3631 13.5923 24.579H100.968C100.81 24.3631 100.666 24.1329 100.507 23.917H14.0535Z" fill="#939598"/>
<path d="M20.3525 17.0527C20.0931 17.2686 19.8481 17.4988 19.603 17.7147H94.9725C94.7275 17.4845 94.4825 17.2686 94.223 17.0527H20.3525Z" fill="#939598"/>
<path d="M64.4147 9.43975C64.8039 10.9076 65.9426 13.9872 68.9695 15.6565C68.9695 15.6565 80.6446 23.1972 66.1732 40.8544C66.1732 40.8544 66.4615 40.2644 66.8362 39.2859C66.1011 40.4227 65.1354 40.8113 65.1354 40.8113C64.9769 42.3223 63.7949 44.0923 61.9211 45.4019C60.4509 46.4236 58.8654 46.9417 57.5394 46.9417C56.4295 46.9417 55.507 46.5819 55.0025 45.8336C54.1089 44.5528 54.7143 42.5093 56.3286 40.7969C56.2565 40.7969 56.1701 40.7969 56.098 40.7969C56.098 40.7969 56.0836 40.7969 56.0692 40.7969C55.3196 40.7969 54.5701 40.7249 53.8062 40.6098C52.6963 40.4371 51.6297 40.1493 50.6352 39.7607C50.3613 39.66 50.1019 39.5449 49.8424 39.4298C49.3956 39.2283 48.9632 39.0124 48.5452 38.7822C48.3722 38.6815 48.2137 38.5807 48.0407 38.48C47.5506 38.1778 47.0894 37.8612 46.6426 37.5014C46.5705 37.4439 46.4984 37.3863 46.4264 37.3287C46.1093 37.0697 45.7922 36.7963 45.4895 36.5085C45.4895 36.5085 45.4606 36.4797 45.4462 36.4797C44.7832 35.8321 44.1778 35.127 43.6445 34.3643C43.3851 33.9901 43.14 33.6016 42.9094 33.1986C42.7941 32.9972 42.6932 32.7957 42.5923 32.5942C42.3905 32.1769 42.2031 31.7596 42.0302 31.3279C41.9437 31.112 41.8716 30.8961 41.7995 30.6803C41.1509 28.7088 40.9491 26.5933 41.2951 24.4204C41.4392 23.4562 41.6986 22.5352 42.0302 21.6574C42.1166 21.4415 42.2031 21.2257 42.304 21.0098C42.5923 20.3766 42.9238 19.7578 43.2986 19.1822C43.4283 18.9951 43.558 18.7936 43.6877 18.6066C43.9616 18.2324 44.2499 17.8726 44.5526 17.5273C47.2624 14.4621 51.3126 12.5913 55.7232 12.5913C56.516 12.5913 57.3232 12.6489 58.1303 12.7784C58.4474 12.8215 58.7501 12.8935 59.0528 12.9511L64.4003 9.42536M64.4003 7.43945C64.0111 7.43945 63.6364 7.55458 63.3049 7.77044L58.6348 10.85C58.6348 10.85 58.5051 10.8212 58.433 10.8212C57.5394 10.6773 56.6169 10.6054 55.7232 10.6054C50.8226 10.6054 46.2102 12.6489 43.0535 16.2177C42.7076 16.6063 42.3761 17.0236 42.0734 17.4553C41.9149 17.6712 41.7707 17.887 41.6266 18.1029C41.1942 18.7792 40.805 19.4844 40.4879 20.2039C40.3726 20.4486 40.2717 20.6932 40.1852 20.9522C39.796 21.974 39.5078 23.0389 39.3492 24.1182C38.9745 26.5358 39.1762 28.9534 39.9402 31.2991C40.0267 31.5437 40.1131 31.8027 40.1996 32.0474C40.387 32.5367 40.6032 33.0116 40.8338 33.4864C40.9491 33.7167 41.0789 33.9469 41.2086 34.1772C41.468 34.6377 41.7419 35.0838 42.0446 35.5155C42.65 36.379 43.3274 37.1848 44.0913 37.9187C44.0913 37.9187 44.1346 37.9619 44.149 37.9763C44.4805 38.2929 44.8264 38.5951 45.1868 38.8973C45.2733 38.9693 45.3453 39.0268 45.4318 39.0988C45.9363 39.4873 46.4552 39.8615 47.0173 40.1925C47.2047 40.3076 47.3921 40.4227 47.5795 40.5234C48.0551 40.7969 48.5452 41.0415 49.0497 41.2574C49.3379 41.3869 49.6406 41.5164 49.9433 41.6315C50.9235 42.0057 51.9324 42.2935 52.9558 42.4806C52.3792 44.1067 52.4945 45.7041 53.3738 46.9704C54.253 48.2368 55.7376 48.9276 57.5538 48.9276C59.3699 48.9276 61.3158 48.2512 63.0742 47.028C64.7606 45.8624 66.0146 44.3513 66.6633 42.7828C67.0668 42.682 67.4416 42.4518 67.7155 42.1208C73.6107 34.9255 76.1475 28.3634 75.2394 22.6071C74.3314 16.8221 70.2235 14.1167 70.0505 14.0016C70.0073 13.9728 69.964 13.9584 69.9352 13.9296C67.5281 12.6057 66.62 10.001 66.3462 8.95047C66.1876 8.33167 65.7264 7.828 65.1354 7.59775C64.9048 7.51141 64.6598 7.46823 64.4291 7.46823L64.4003 7.43945Z" fill="white"/>
<path d="M70.6392 28.9624C71.8316 21.2813 66.2298 14.0381 58.1272 12.7843C50.0246 11.5305 42.4896 16.741 41.2972 24.4221C40.1048 32.1033 45.7066 39.3465 53.8092 40.6002C61.9118 41.854 69.4468 36.6436 70.6392 28.9624Z" fill="#231F20"/>
<path d="M50.2172 40.2926C50.2172 40.2926 49.7128 40.0336 49.6407 39.3428C49.583 38.6521 49.338 38.8823 49.511 38.2203C49.6695 37.5584 49.756 37.5008 49.8857 37.3857C50.0155 37.2706 49.9001 37.0691 50.1019 36.9252C50.2893 36.7813 50.4334 36.5942 50.4479 36.4359C50.4479 36.2776 50.5776 36.1625 50.6208 35.961C50.6641 35.7596 50.4767 35.5005 50.7073 35.2415C50.9379 34.9825 51.1541 34.8242 51.4136 34.8673C51.673 34.9105 51.7451 34.5507 51.7739 34.4068C51.8028 34.2485 51.9757 33.0253 52.2208 32.7951C52.4658 32.5648 52.509 32.3922 52.3072 32.2051C52.1054 32.018 51.9037 31.7014 51.5433 31.6582C51.183 31.6151 50.8947 31.097 50.6352 31.0394C50.3758 30.9675 50.347 30.7516 50.2605 30.6077C50.174 30.4638 49.9001 30.0033 49.4389 29.8594C48.9777 29.7155 48.7615 29.0535 48.675 29.0104C48.6029 28.9528 47.911 28.8089 47.6948 28.7513C47.6948 28.7513 47.4066 28.4491 47.248 28.4347C47.0895 28.4347 46.7868 28.4635 46.7147 28.5067C46.6426 28.5643 46.5417 28.8521 46.2679 28.7945C45.994 28.7369 45.6337 28.8665 45.3886 28.6218C45.1436 28.3772 45.0571 28.406 45.158 28.2045C45.2589 28.003 45.4319 27.6576 45.086 27.6289C44.74 27.6001 44.4373 27.6145 44.5238 27.3411C44.6103 27.082 44.7688 27.2691 44.8265 27.0101C44.8697 26.7654 44.9562 26.4632 44.8265 26.4488C44.6968 26.4344 44.3941 26.6935 44.2211 26.7366C44.0482 26.7654 44.1491 27.0532 43.8031 26.9957C43.4572 26.9381 43.2122 26.8374 43.1833 26.4776C43.1401 26.1178 43.1833 25.6573 43.3419 25.4271C43.486 25.1969 43.4428 25.0386 43.5437 24.9378C43.6446 24.8371 44.2067 24.7939 44.4373 24.9378C44.668 25.0673 44.7256 24.9954 44.8553 24.8659C44.9851 24.7364 45.4175 24.909 45.4895 25.0242C45.5616 25.1393 45.6337 25.1825 45.6193 25.4991C45.6193 25.8156 45.8931 25.8588 45.994 26.0603C46.0949 26.2761 46.2102 25.902 46.167 25.7005C46.1093 25.4847 46.1237 25.3983 45.994 25.2832C45.8499 25.1681 45.994 24.8371 46.0373 24.8371C46.0661 24.8371 46.4985 24.4485 46.9597 24.3622C47.421 24.2759 47.1615 24.0888 47.3922 23.7146C47.6372 23.3549 47.7093 23.1678 47.8822 23.0958C48.0696 23.0239 48.1273 23.067 48.2426 23.0239C48.3579 22.9807 48.3723 22.8368 48.5164 22.7073C48.6606 22.5778 48.92 22.5058 49.0209 22.5778C49.1218 22.6497 49.2948 22.7504 49.3957 22.7361C49.4966 22.7073 49.7416 22.6065 49.9146 22.6929C50.0875 22.7792 50.2461 22.6353 50.2461 22.5346C50.2461 22.4339 50.3614 22.1604 50.6208 22.2036C50.8803 22.2468 51.0388 22.5922 51.255 22.5202C51.4712 22.4482 51.7307 22.2756 51.4568 22.0453C51.183 21.8294 51.3271 21.4697 51.3559 21.2682C51.3848 21.0524 51.601 21.0092 51.2118 20.6494C50.8082 20.304 51.4568 19.4694 51.2406 19.1672C51.0244 18.865 50.5488 18.1311 50.2028 18.2318C49.8425 18.3325 49.5542 18.4045 49.4677 18.6203C49.3957 18.8362 49.4677 18.7786 49.3812 19.196C49.2948 19.6133 49.2227 19.4694 48.92 19.6996C48.6173 19.9155 48.5885 20.2609 48.3867 20.4767C48.1849 20.6926 48.1705 20.9948 48.0552 20.6782C47.9399 20.3616 48.2714 20.4767 48.084 19.8579C47.8966 19.2391 47.1759 19.3255 47.3201 18.9657C47.4642 18.6203 47.5075 18.2318 48.1272 17.9728C48.747 17.7137 49.1218 17.354 49.5398 17.2388C49.9578 17.1237 50.7217 17.1237 50.765 16.6488C50.8082 16.1739 51.1974 15.9437 51.428 16.2891C51.6586 16.6344 51.7739 16.8215 51.5145 17.0518C51.255 17.282 51.1541 17.5554 50.9812 17.613C50.8082 17.6706 50.5055 17.613 50.6352 17.8576C50.765 18.1167 50.8082 17.8145 51.1253 18.2174C51.4424 18.6203 51.601 18.534 51.8172 18.3469C52.0334 18.1455 51.6874 17.7713 51.8892 17.7281C52.1054 17.685 52.5234 17.7857 52.5667 17.5698C52.6243 17.3396 52.5811 16.9798 52.6099 16.8503C52.6388 16.7064 52.1775 15.2817 52.6532 14.9076C53.1288 14.5334 53.3018 14.1736 53.6621 14.0729C54.0225 13.9722 54.2099 13.7851 54.181 14.1593C54.1522 14.5334 53.9216 14.7637 54.3684 14.9364C54.8152 15.109 54.8729 15.2817 54.6567 15.7854C54.4405 16.2891 53.8207 16.4905 53.9936 16.9366C54.181 17.3971 53.9936 17.2388 53.763 17.6562C53.5324 18.0735 53.3306 18.6347 53.3306 18.9801C53.3306 19.3255 53.2297 19.2823 53.4747 19.4838C53.7198 19.6852 53.8639 20.0738 54.0657 19.6853C54.2675 19.2823 54.4405 18.9082 54.7576 18.6635C55.0747 18.4189 55.1323 18.4477 55.6368 18.2606C56.1413 18.0735 56.1125 18.1455 56.2998 17.8001C56.5016 17.4547 56.6314 17.8576 56.9917 17.8576C57.3521 17.8576 57.3232 17.2101 57.3088 16.9223C57.3088 16.6201 57.6547 16.5193 57.9286 16.1883C58.2025 15.8573 58.1304 15.6559 58.3178 15.181C58.5051 14.7061 58.3178 14.8356 58.7502 14.3607C59.197 13.9002 59.1826 13.5405 59.0529 13.3102C58.9231 13.08 58.4619 12.7922 58.4619 12.7922C58.4619 12.7922 57.8709 12.7922 57.6115 13.008C57.3521 13.2383 56.934 13.4109 56.7467 12.9217C56.5737 12.4324 56.5161 12.087 56.5161 12.087C56.5161 12.087 54.8152 11.9863 54.1954 12.1302C53.5756 12.2741 53.3162 12.9073 53.2441 13.0224C53.1721 13.1375 52.9991 13.5405 52.6676 13.598C52.3505 13.6556 51.8892 13.4829 51.5145 13.2383C51.1253 12.9936 50.8803 12.7922 50.8803 12.7922C50.8803 12.7922 45.9796 14.6629 43.4572 17.8576C40.9204 21.0524 40.6177 24.5349 41.0933 25.4127C41.5834 26.2905 42.3906 26.8518 42.8518 27.1828C43.3131 27.5281 44.1202 27.6433 44.2644 27.8447C44.4085 28.0462 44.4806 28.6074 44.7688 28.8808C45.0427 29.1687 45.3022 29.1974 45.5616 29.2262C45.8211 29.255 46.3399 29.4421 46.1093 29.7299C45.8787 30.0177 45.8499 29.9457 45.6769 30.3487C45.5039 30.7516 45.6048 30.6509 45.6913 30.8524C45.7922 31.0538 45.5039 30.8811 45.4175 31.3416C45.331 31.8165 45.8787 31.7446 46.0373 32.0324C46.1958 32.3058 46.4264 32.8527 46.6282 33.0109C46.83 33.1692 47.3777 33.4714 47.5363 34.1046C47.6948 34.7378 47.7525 35.8315 47.9831 36.0618C48.2137 36.292 47.8678 36.7957 47.9975 37.0547C48.1272 37.3137 48.1417 37.4289 48.2281 37.5296C48.3146 37.6303 48.1849 37.6159 48.257 37.9757C48.329 38.3355 48.4155 38.3786 48.5452 38.4362C48.675 38.4938 48.5885 38.9255 48.7615 39.1845C48.9344 39.4435 49.1362 39.6162 49.1074 39.904C49.0786 40.1919 50.1163 40.4941 50.3181 40.638C50.5199 40.7963 50.2317 40.3645 50.2317 40.3645L50.2172 40.2926Z" fill="white"/>
<path d="M66.6491 16.5771C66.6491 16.5771 66.0581 16.7067 66.1446 16.8362C66.2167 16.9657 66.3752 17.2535 66.0726 17.2679C65.7555 17.2967 65.4816 16.9945 65.3519 16.9945C65.2221 16.9945 65.0924 17.2391 65.1789 17.4981C65.2654 17.7572 65.0492 18.1026 64.8041 18.1745C64.5735 18.2465 64.3141 18.5774 64.0546 18.5631C63.7952 18.5343 63.6222 18.7933 63.4493 18.8077C63.2763 18.8077 63.3916 18.7789 63.1033 18.7501C62.815 18.7213 62.9448 18.5055 62.1953 18.1601C61.4457 17.8147 61.5034 17.786 61.3016 17.7572C61.0998 17.7284 61.0133 17.8435 60.6242 17.9011C60.235 17.973 59.9467 18.1601 59.8746 18.2608C59.8026 18.3616 59.6584 18.7933 59.5864 18.9372C59.4999 19.0811 59.3413 19.4553 59.0963 19.5416C58.8513 19.628 58.6495 19.6567 58.5774 19.7575C58.5053 19.8726 58.3324 20.3331 58.4477 20.5633C58.563 20.7936 58.6206 20.8943 58.7504 20.9087C58.8801 20.9231 59.0531 20.736 59.1684 20.7792C59.2693 20.808 59.2981 21.2397 59.2837 21.3404C59.2837 21.4268 59.399 21.5851 59.6152 21.398C59.8314 21.1965 60.2782 21.0526 60.2062 20.736C60.1485 20.4194 59.99 20.2755 60.0909 20.1316C60.1917 19.9877 60.3215 20.2611 60.48 20.3907C60.653 20.5202 60.898 20.6209 61.0854 20.6497C61.2728 20.6785 61.6908 21.0095 61.3593 20.9663C61.0277 20.9087 60.8836 20.8512 60.7683 21.1246C60.653 21.398 60.4944 21.5995 60.3935 21.7434C60.2926 21.8873 60.0476 21.9017 59.7882 21.9161C59.5287 21.9161 58.9522 22.0887 58.9666 21.7865C58.9666 21.4843 59.1107 21.2541 58.8945 21.1821C58.6783 21.1102 59.0242 21.5851 58.4909 21.8585C57.9576 22.1319 57.7847 22.0024 57.7414 22.3622C57.6838 22.7219 57.4387 22.8371 57.1937 22.8371C56.9487 22.8371 57.2946 22.9378 57.1072 23.3983C56.9198 23.8588 57.1072 23.8156 56.6171 23.7724C56.1127 23.7293 55.7667 24.0747 55.7091 24.4056C55.6514 24.7366 56.055 25.1971 56.1127 25.3554C56.1559 25.5281 55.8388 25.8159 55.464 26.003C55.0893 26.1901 54.8154 26.665 54.4262 26.9816C54.0371 27.2981 54.3974 28.0608 54.1236 28.9531C53.8497 29.8453 54.8154 30.3202 55.1037 30.4929C55.392 30.6655 55.9253 30.3202 56.6316 30.4353C57.3522 30.5504 57.554 30.5216 57.7414 31.0685C57.9432 31.6009 57.482 31.2412 57.727 31.9175C57.9576 32.5939 58.2747 32.9393 58.2459 33.1263C58.2171 33.3134 57.6405 33.7595 57.7126 34.3495C57.7847 34.9539 57.9288 35.9037 57.9144 36.3067C57.9144 36.7096 57.5973 37.2996 58.3324 37.4435C59.0675 37.5874 59.4566 36.8967 59.9467 36.652C60.4368 36.4074 60.7539 35.9757 60.9413 35.544C61.1142 35.1122 61.7052 35.5008 61.9791 34.8532C62.2529 34.2056 61.9791 33.8027 62.0944 33.1839C62.2241 32.5651 63.7231 31.6441 64.0835 31.1117C64.4438 30.5792 64.0114 30.4641 64.7753 29.9028C65.5392 29.356 65.323 28.4062 65.4672 28.1328C65.6257 27.8594 67.4419 28.8955 67.6437 29.025C67.8454 29.1689 67.8022 30.205 68.0617 31.0973C68.3211 31.9895 68.5661 31.8744 68.7391 31.3131C68.9121 30.7519 68.6238 30.205 69.3877 29.8309C70.1516 29.4711 71.103 29.3704 71.103 29.3704C71.103 29.3704 72.775 23.4271 66.6923 16.5771H66.6491Z" fill="white"/>
<path d="M65.1358 40.8116C65.1358 40.8116 66.4907 40.2936 67.2114 38.5811C67.9321 36.8686 70.0653 29.5438 66.6637 24.6798C63.262 19.8157 61.3018 20.8375 61.3018 20.8375L65.1502 40.8116H65.1358Z" fill="white"/>
<path d="M63.4348 19.3115C60.4079 17.6422 59.2692 14.5626 58.88 13.0947L64.4149 38.6956C63.0889 37.4868 60.2926 37.789 57.8278 39.5015C55.1325 41.3723 53.8785 44.2072 55.0028 45.8333C56.1414 47.4595 59.2404 47.258 61.9214 45.4016C63.7951 44.0921 64.9771 42.322 65.1356 40.811C65.1644 40.5808 65.1644 40.3649 65.1356 40.1491L65.0924 39.9188L61.8493 21.6427C62.7141 22.0889 64.242 23.2113 64.242 23.2113C72.1984 28.6797 66.159 40.8686 66.159 40.8686C73.8848 28.4351 67.4851 21.5564 63.4204 19.3259L63.4348 19.3115Z" fill="#ED1C2E"/>
<path d="M66.1732 40.8544C73.899 28.4209 67.4993 21.5422 63.4346 19.3117C60.4077 17.6424 59.2691 14.5628 58.8799 13.0949L64.4148 9.4541C64.8039 10.9219 65.9426 14.0015 68.9695 15.6708C68.9695 15.6708 80.6446 23.2115 66.1732 40.8688V40.8544Z" fill="#231F20"/>
<path d="M132.318 8.00071C131.05 7.02215 129.363 6.82068 127.273 7.4107C124.045 8.31731 119.288 13.1094 119.086 13.3252L120.412 14.6348C121.191 13.8433 122.906 12.2459 124.65 10.9652V27.8166C124.117 28.3059 123.641 28.7232 123.266 29.0542L123.108 29.1981L124.333 30.594L124.492 30.4501C127.187 28.09 134.365 21.8013 134.524 14.8506C134.596 11.4976 133.861 9.19513 132.318 8.00071ZM126.524 26.0177V9.75637C126.971 9.51173 127.403 9.32465 127.792 9.20952C129.277 8.7922 130.416 8.87854 131.18 9.48295C132.217 10.2888 132.722 12.1308 132.664 14.8219C132.563 19.0527 129.349 23.154 126.524 26.0321V26.0177Z" fill="#231F20"/>
<path d="M144.743 7.45392C145.752 11.3394 147.712 22.1755 144.83 25.658C144.181 26.4495 143.287 26.7805 142.134 26.7085C140.866 26.6222 139.929 26.1041 139.266 25.14C136.7 21.3552 138.978 11.7135 140.073 8.31736L138.3 7.74173C138.127 8.27419 134.12 20.866 137.709 26.1905C138.704 27.6439 140.145 28.4498 141.99 28.5793C142.149 28.5793 142.293 28.5937 142.451 28.5937C144.008 28.5937 145.291 28.0181 146.242 26.8668C150.336 21.9453 146.689 7.61222 146.53 7.00781L144.729 7.46831L144.743 7.45392Z" fill="#231F20"/>
<path d="M141.601 2.87793H139.741V5.20921H141.601V2.87793Z" fill="#231F20"/>
<path d="M145.175 2.10059H143.316V4.43186H145.175V2.10059Z" fill="#231F20"/>
<path d="M227.55 6.99316L225.748 7.45366C226.757 11.3391 228.717 22.1752 225.834 25.6578C225.186 26.4493 224.292 26.7802 223.139 26.7083C221.871 26.6219 220.934 26.1039 220.271 25.1397C217.705 21.355 219.982 11.7133 221.078 8.3171L219.305 7.74148C219.132 8.27393 215.125 20.8657 218.714 26.1902C219.709 27.6437 221.15 28.4496 222.995 28.5791C223.153 28.5791 223.298 28.5935 223.456 28.5935C225.013 28.5935 226.296 28.0178 227.247 26.8666C231.34 21.945 227.694 7.61196 227.535 7.00755L227.55 6.99316Z" fill="#231F20"/>
<path d="M222.592 2.87793H220.732V5.20921H222.592V2.87793Z" fill="#231F20"/>
<path d="M226.166 2.10059H224.307V4.43186H226.166V2.10059Z" fill="#231F20"/>
<path d="M164.692 8.01474H162.832C162.832 11.7275 163.106 22.0024 163.236 26.7513C158.004 20.5058 153.881 9.72722 153.838 9.6121L152.497 6.05762L152.051 9.82796C151.806 11.8139 152.036 27.0103 152.051 27.6579L153.91 27.6291C153.867 24.7222 153.795 18.5631 153.809 14.3322C155.827 18.8077 159.431 25.9023 163.61 29.8597L165.254 31.4139L165.196 29.1545C165.196 28.9962 164.735 12.85 164.735 8.01474H164.692Z" fill="#231F20"/>
<path d="M175.199 7.12305C175.199 7.12305 174.493 10.879 172.965 16.7648L167.877 9.32481L166.334 10.3753L172.143 18.8514L172.475 18.6211C171.437 22.4922 170.082 27.126 168.396 32.2203L170.169 32.8103C174.954 18.4772 177.015 7.56916 177.044 7.46842L175.213 7.12305H175.199Z" fill="#231F20"/>
<path d="M192.726 12.3183C192.496 12.419 189.497 13.7142 185.836 15.8584L182.709 4.30273L181.671 6.86426C181.628 6.965 177.707 16.6787 175.098 27.8602L176.914 28.2775C177.275 26.7521 177.649 25.2698 178.039 23.8164C179.999 21.9168 182.377 20.19 184.683 18.7365L187.35 28.6085L189.152 28.1192L186.341 17.7292C190.175 15.4555 193.404 14.0596 193.461 14.0308L192.726 12.3183ZM178.99 20.5066C180.258 16.1894 181.541 12.5342 182.391 10.2173L184.179 16.8369C182.449 17.9162 180.662 19.1394 178.99 20.4922V20.5066Z" fill="#231F20"/>
<path d="M199.212 5.7129L198.881 28.0039L200.74 28.0327L200.985 11.685L207.082 20.7367L212.862 11.1094L212.574 27.3708L214.448 27.3995L214.851 4.1875L206.996 17.2686L199.212 5.7129Z" fill="#231F20"/>
<path d="M243.708 9.48299C243.708 9.55495 243.189 15.5846 243.117 22.9094L242.857 22.1899C237.87 24.0031 234.44 26.2624 232.35 27.9461C235.232 19.0671 241.185 8.21662 241.257 8.08711L242.843 5.20898L230.533 12.1884L231.456 13.8146L238.115 10.0298C235.751 14.606 231.297 23.7585 229.625 30.7091L228.688 34.5946L231.254 31.515C231.254 31.515 234.973 27.1403 243.131 24.0895C243.131 25.5861 243.145 27.1403 243.189 28.6801L245.048 28.6225C244.76 19.0671 245.567 9.72763 245.567 9.64129L243.708 9.48299Z" fill="#231F20"/>
<path d="M245.971 2.45996H244.111V4.96393H245.971V2.45996Z" fill="#231F20"/>
<path d="M251.491 17.4126C255.614 13.225 258.338 8.33217 258.468 8.08753L256.824 7.19531C256.824 7.19531 253.682 12.8796 249.185 17.0529V8.7495H247.326V28.6517H249.185V19.2546L249.315 19.4129C249.589 19.1827 249.863 18.9524 250.122 18.7078C250.857 19.2546 253.668 21.6579 259.332 29.2129L260.831 28.0905C255.556 21.0535 252.644 18.3336 251.477 17.3983L251.491 17.4126Z" fill="#231F20"/>
<path d="M139.986 36.7825C138.891 36.7825 138.329 37.1998 138.329 38.0201C138.329 38.4806 138.458 38.7972 138.703 38.9699C138.949 39.1425 139.467 39.3152 140.246 39.4879C141.024 39.6606 141.572 39.8909 141.889 40.1643C142.206 40.4377 142.379 40.8982 142.379 41.517C142.379 43.0856 141.572 43.8627 139.943 43.8627C139.41 43.8627 138.732 43.8051 137.925 43.6756L137.522 43.618L137.608 42.9129C138.603 43.0424 139.367 43.1144 139.885 43.1144C140.966 43.1144 141.514 42.6107 141.514 41.589C141.514 41.1716 141.399 40.8838 141.154 40.6967C140.909 40.524 140.462 40.3657 139.813 40.2362C138.949 40.0492 138.343 39.8189 137.983 39.5311C137.622 39.2433 137.435 38.754 137.435 38.0776C137.435 36.7105 138.257 36.0342 139.9 36.0342C140.433 36.0342 141.082 36.0917 141.831 36.1925L142.206 36.25L142.134 36.9696C141.111 36.8401 140.39 36.7825 139.957 36.7825H139.986Z" fill="#231F20"/>
<path d="M150.696 39.9338V42.7544C150.725 43.0278 150.927 43.1861 151.33 43.2437L151.301 43.8913C150.725 43.8913 150.278 43.7474 149.99 43.4452C149.327 43.733 148.664 43.8913 148.001 43.8913C147.496 43.8913 147.107 43.7474 146.847 43.4595C146.588 43.1717 146.444 42.7688 146.444 42.222C146.444 41.6751 146.574 41.2866 146.847 41.0419C147.121 40.7829 147.539 40.639 148.13 40.567L149.86 40.4087V39.9338C149.86 39.5597 149.773 39.2863 149.615 39.128C149.456 38.9697 149.226 38.8833 148.952 38.8833C148.361 38.8833 147.756 38.9265 147.121 38.9985L146.775 39.0272L146.747 38.3941C147.554 38.2358 148.274 38.1494 148.894 38.1494C149.514 38.1494 149.975 38.2933 150.249 38.5811C150.523 38.8689 150.667 39.3151 150.667 39.9195L150.696 39.9338ZM147.309 42.1788C147.309 42.8551 147.583 43.1861 148.145 43.1861C148.649 43.1861 149.139 43.0998 149.615 42.9271L149.874 42.8408V41.0275L148.246 41.1858C147.914 41.2146 147.669 41.3153 147.525 41.4736C147.381 41.6319 147.309 41.8766 147.309 42.1788Z" fill="#231F20"/>
<path d="M156.231 43.762H155.409V38.2648H156.231V38.6533C156.822 38.3224 157.398 38.1641 157.932 38.1641C158.667 38.1641 159.157 38.3655 159.416 38.7541C159.676 39.157 159.791 39.8478 159.791 40.8695V43.7764H158.969V40.8983C158.969 40.1356 158.897 39.6175 158.739 39.3297C158.58 39.0419 158.263 38.9124 157.773 38.9124C157.542 38.9124 157.297 38.9412 157.024 39.0131C156.764 39.0851 156.562 39.1426 156.418 39.2146L156.202 39.3153V43.7764L156.231 43.762Z" fill="#231F20"/>
<path d="M168.295 39.9338V42.7544C168.324 43.0278 168.526 43.1861 168.929 43.2437L168.9 43.8913C168.324 43.8913 167.877 43.7474 167.589 43.4452C166.926 43.733 166.263 43.8913 165.6 43.8913C165.095 43.8913 164.706 43.7474 164.447 43.4595C164.187 43.1717 164.043 42.7688 164.043 42.222C164.043 41.6751 164.173 41.2866 164.447 41.0419C164.72 40.7829 165.138 40.639 165.729 40.567L167.459 40.4087V39.9338C167.459 39.5597 167.373 39.2863 167.214 39.128C167.055 38.9697 166.825 38.8833 166.551 38.8833C165.96 38.8833 165.355 38.9265 164.72 38.9985L164.374 39.0272L164.346 38.3941C165.153 38.2358 165.874 38.1494 166.493 38.1494C167.113 38.1494 167.574 38.2933 167.848 38.5811C168.122 38.8689 168.266 39.3151 168.266 39.9195L168.295 39.9338ZM164.908 42.1788C164.908 42.8551 165.182 43.1861 165.744 43.1861C166.248 43.1861 166.738 43.0998 167.214 42.9271L167.473 42.8408V41.0275L165.845 41.1858C165.513 41.2146 165.268 41.3153 165.124 41.4736C164.98 41.6319 164.908 41.8766 164.908 42.1788Z" fill="#231F20"/>
<path d="M175.862 38.984H174.104V41.6175C174.104 42.2507 174.147 42.668 174.248 42.8551C174.334 43.0566 174.551 43.1573 174.897 43.1573L175.877 43.0854L175.934 43.7617C175.444 43.8481 175.07 43.8768 174.81 43.8768C174.234 43.8768 173.844 43.7329 173.614 43.4595C173.398 43.1861 173.282 42.6536 173.282 41.8621V38.9696H172.504V38.2501H173.282V36.5664H174.104V38.2501H175.862V38.9696V38.984Z" fill="#231F20"/>
<path d="M185.62 43.762V36.1494H187.148L189.31 42.582L191.472 36.1494H193V43.762H192.15V37.056H191.991L189.771 43.4886H188.82L186.6 37.056H186.442V43.762H185.591H185.62Z" fill="#231F20"/>
<path d="M201.504 43.0854L201.821 43.0566L201.85 43.7042C201.014 43.8193 200.293 43.8769 199.702 43.8769C198.91 43.8769 198.347 43.6466 198.016 43.1861C197.684 42.7256 197.526 42.0205 197.526 41.0419C197.526 39.1136 198.29 38.1494 199.832 38.1494C200.567 38.1494 201.129 38.3509 201.49 38.7682C201.85 39.1855 202.037 39.8331 202.037 40.7253L201.994 41.3585H198.362C198.362 41.9629 198.477 42.4234 198.693 42.7112C198.91 42.999 199.299 43.1573 199.846 43.1573C200.394 43.1573 200.956 43.1286 201.518 43.0854H201.504ZM201.201 40.6966C201.201 40.0202 201.086 39.5453 200.87 39.2719C200.654 38.9985 200.293 38.8546 199.818 38.8546C199.342 38.8546 198.967 38.9985 198.722 39.3007C198.477 39.6029 198.347 40.0634 198.347 40.7109H201.216L201.201 40.6966Z" fill="#231F20"/>
<path d="M206.405 43.7617V38.2645H207.226V39.0129C207.861 38.5667 208.538 38.2789 209.244 38.1494V38.9841C208.942 39.0416 208.61 39.128 208.279 39.2575C207.947 39.387 207.688 39.4877 207.515 39.5885L207.241 39.7324V43.7761H206.419L206.405 43.7617Z" fill="#231F20"/>
<path d="M214.131 43.7618H213.309V35.8613H214.131V40.5239L214.995 40.4807L216.567 38.2646H217.503L215.702 40.7973L217.576 43.7618H216.639L214.995 41.2146L214.131 41.2434V43.7618Z" fill="#231F20"/>
<path d="M225.273 43.0854L225.59 43.0566L225.619 43.7042C224.783 43.8193 224.062 43.8769 223.471 43.8769C222.678 43.8769 222.116 43.6466 221.784 43.1861C221.453 42.7256 221.294 42.0205 221.294 41.0419C221.294 39.1136 222.058 38.1494 223.601 38.1494C224.336 38.1494 224.898 38.3509 225.258 38.7682C225.619 39.1855 225.806 39.8331 225.806 40.7253L225.763 41.3585H222.13C222.13 41.9629 222.246 42.4234 222.462 42.7112C222.678 42.999 223.067 43.1573 223.615 43.1573C224.163 43.1573 224.725 43.1286 225.287 43.0854H225.273ZM224.97 40.6966C224.97 40.0202 224.855 39.5453 224.638 39.2719C224.422 38.9985 224.062 38.8546 223.586 38.8546C223.111 38.8546 222.736 38.9985 222.491 39.3007C222.246 39.6029 222.116 40.0634 222.116 40.7109H224.984L224.97 40.6966Z" fill="#231F20"/>
<path d="M229.842 38.9986V38.2646H233.935V38.9986L230.851 43.0279H233.935V43.7619H229.842V43.0279L232.926 38.9986H229.842Z" fill="#231F20"/>
<path d="M238.273 37.0267V36.0625H239.095V37.0267H238.273ZM238.273 43.7759V38.2787H239.095V43.7759H238.273Z" fill="#231F20"/>
</g>
<defs>
<clipPath id="clip0_227_2048">
<rect width="312" height="49" fill="white"/>
</clipPath>
</defs>
</svg>
