<svg width="165" height="164" viewBox="0 0 165 164" fill="none" xmlns="http://www.w3.org/2000/svg">
<g clip-path="url(#clip0_394_4227)">
<path d="M144.776 140.766C140.488 145.189 136.663 147.785 133.729 149.743C105.111 168.868 72.3885 163.362 62.2758 161.474C45.9539 158.432 32.1821 156.29 20.349 145.582C-6.55719 121.265 -5.24725 70.5314 15.3013 39.0986C17.7378 35.3749 38.2602 4.9297 71.0436 0.637832C71.8471 0.532939 72.4409 0.471752 72.9649 0.419305C78.0387 -0.1139 109.469 -2.95475 135.1 18.5395C138.768 21.6164 144.671 27.167 150.147 35.6283C170.162 66.5717 170.232 114.499 144.767 140.766H144.776Z" fill="url(#paint0_linear_394_4227)"/>
<path d="M114.544 65.227C115.81 36.3135 91.5642 11.7657 60.3889 10.3978C29.2136 9.02994 2.91451 31.3601 1.64824 60.2735C0.381979 89.187 24.628 113.735 55.8033 115.103C86.9786 116.471 113.278 94.1405 114.544 65.227Z" fill="#98B1DC"/>
<path opacity="0.19" d="M55.0441 100.898C79.5308 100.898 99.3812 82.1289 99.3812 58.9759C99.3812 35.8229 79.5308 17.0537 55.0441 17.0537C30.5574 17.0537 10.707 35.8229 10.707 58.9759C10.707 82.1289 30.5574 100.898 55.0441 100.898Z" fill="white"/>
<g opacity="0.68">
<g style="mix-blend-mode:soft-light">
<path d="M72.5715 63.005C72.5715 63.005 72.5715 63.8704 72.554 65.4963C72.5278 67.1221 72.4841 69.5084 72.3182 72.5328C72.161 75.566 71.8903 79.2372 71.375 83.4329C70.8511 87.6286 70.1088 92.3488 68.8338 97.4012C68.1875 99.9273 67.4103 102.532 66.3711 105.146C65.8471 106.448 65.2533 107.759 64.5372 109.027C63.8211 110.294 62.9827 111.544 61.8823 112.593C61.3322 113.118 60.7121 113.59 59.996 113.922C59.2887 114.254 58.4765 114.411 57.6818 114.324C56.8784 114.245 56.1186 113.931 55.4549 113.493C54.7912 113.056 54.2061 112.506 53.6821 111.911C52.6342 110.714 51.8133 109.333 51.0884 107.899C50.3636 106.466 49.7523 104.962 49.2021 103.433C48.1105 100.364 47.2634 97.1564 46.5648 93.8785C45.8662 90.6006 45.3247 87.2528 44.8881 83.87C44.0322 77.0956 43.6218 70.1552 43.5781 63.2236C43.5781 59.7534 43.6917 56.2919 43.875 52.8392C44.0672 49.3865 44.3466 45.9599 44.7396 42.5684C45.1326 39.1769 45.6304 35.8203 46.2679 32.5424C46.9141 29.2558 47.6913 26.039 48.7306 22.9447C49.2458 21.3975 49.8309 19.8941 50.5208 18.4431C51.2194 17.0008 52.0141 15.6109 53.0359 14.4047C53.5511 13.8015 54.1188 13.2509 54.7825 12.8138C55.4374 12.3767 56.1885 12.0708 56.9744 12.0009C57.1666 11.9834 57.3674 11.9834 57.5595 11.9834C57.7604 11.9921 57.9525 12.0184 58.1447 12.0446C58.5289 12.1145 58.8957 12.2369 59.2537 12.3942C59.9611 12.7089 60.5811 13.1634 61.14 13.6704C62.2491 14.6931 63.1137 15.9169 63.8647 17.1581C64.6158 18.4081 65.2445 19.693 65.8034 20.9867C66.9125 23.5653 67.7509 26.1527 68.4495 28.6614C69.838 33.6787 70.6589 38.3902 71.2353 42.5772C71.5235 44.675 71.7418 46.6418 71.9165 48.4599C72.0824 50.278 72.2047 51.9563 72.3007 53.4685C72.4841 56.5017 72.5453 58.8793 72.5715 60.5051C72.5977 62.1309 72.5977 62.9963 72.5977 62.9963L72.5715 63.005ZM71.8204 63.005C71.8204 63.005 71.8204 62.1397 71.8117 60.5226C71.7942 58.9055 71.7418 56.5279 71.5759 53.5122C71.4886 52 71.375 50.3392 71.2179 48.5211C71.0607 46.7029 70.8598 44.7449 70.5978 42.6558C70.3358 40.5667 70.004 38.3552 69.5761 36.0301C69.1481 33.705 68.6329 31.2837 67.9779 28.775C67.3142 26.2751 66.5108 23.6964 65.4454 21.1178C64.9039 19.8329 64.3014 18.5479 63.5765 17.3155C62.8517 16.083 62.0133 14.868 60.9479 13.8627C60.4152 13.3645 59.8126 12.9187 59.1489 12.604C58.4765 12.2981 57.7429 12.132 57.0006 12.2107C56.2583 12.2893 55.551 12.5865 54.9309 13.0061C54.3022 13.4344 53.752 13.9764 53.2629 14.562C52.2761 15.7508 51.5076 17.1319 50.8439 18.5654C50.1802 19.999 49.6213 21.5024 49.1235 23.0409C48.1367 26.1177 47.3944 29.3344 46.7918 32.6036C46.1893 35.8815 45.7352 39.2206 45.3858 42.6034C44.6872 49.369 44.4252 56.2832 44.4514 63.1886C44.434 70.0941 44.7833 77.0082 45.578 83.7563C45.9797 87.1304 46.4949 90.4695 47.1586 93.7299C47.8223 96.9903 48.6345 100.181 49.6912 103.231C50.2239 104.752 50.8177 106.247 51.5164 107.663C52.215 109.079 53.0184 110.434 54.014 111.597C54.5118 112.174 55.0619 112.707 55.6907 113.118C56.3107 113.528 57.0006 113.826 57.7255 113.904C58.4503 113.983 59.1751 113.834 59.8301 113.52C60.4851 113.214 61.0702 112.759 61.5854 112.261C62.6246 111.247 63.4281 110.015 64.1267 108.773C64.8166 107.523 65.393 106.23 65.8995 104.936C66.9125 102.34 67.6548 99.7525 68.2749 97.2438C68.8862 94.7351 69.3665 92.2964 69.7594 89.9713C70.1524 87.6461 70.4494 85.4259 70.6939 83.3368C70.9384 81.2477 71.1218 79.2897 71.2615 77.4715C71.41 75.6534 71.5148 73.9838 71.5934 72.4804C71.7506 69.4647 71.7942 67.0871 71.8117 65.47C71.8292 63.8529 71.8292 62.9876 71.8292 62.9876L71.8204 63.005Z" fill="white"/>
</g>
<g style="mix-blend-mode:soft-light">
<path d="M95.8702 63.0141C95.8702 63.0141 95.8702 63.2939 95.8527 63.8271C95.8527 64.098 95.8439 64.4302 95.8352 64.8236C95.8352 65.2169 95.8265 65.6802 95.7828 66.2046C95.7479 66.7291 95.713 67.3148 95.678 67.9616C95.6344 68.6084 95.5558 69.299 95.4859 70.0595C95.4248 70.8199 95.3025 71.6241 95.1802 72.4895C95.0755 73.3548 94.9008 74.2639 94.7349 75.2254C94.6912 75.4614 94.6563 75.7062 94.6039 75.9597C94.5515 76.2044 94.4991 76.4492 94.438 76.7027C94.3244 77.2097 94.2196 77.7166 94.1061 78.2498C93.9751 78.7743 93.8354 79.3075 93.6956 79.8582C93.6258 80.1292 93.5559 80.4089 93.4773 80.6886C93.3987 80.9683 93.3114 81.248 93.2241 81.5277C92.5691 83.7917 91.6871 86.1867 90.5955 88.6779C89.4951 91.1604 88.1415 93.739 86.4735 96.2914C84.8055 98.8438 82.8144 101.387 80.4565 103.765C78.1074 106.151 75.3303 108.319 72.2126 110.129C71.8284 110.373 71.4179 110.566 71.0162 110.775C70.8154 110.88 70.6145 110.985 70.4049 111.09L70.0993 111.247C69.9945 111.3 69.8897 111.344 69.7849 111.387C69.3657 111.571 68.9465 111.763 68.5186 111.947C68.4138 111.99 68.309 112.043 68.2042 112.087L67.8811 112.209C67.6628 112.288 67.4445 112.375 67.2261 112.454C66.3616 112.803 65.4534 113.039 64.5451 113.319C64.0823 113.433 63.6194 113.538 63.1566 113.642C62.9208 113.695 62.6937 113.756 62.458 113.8C62.2222 113.835 61.9864 113.878 61.7506 113.913C61.5148 113.948 61.279 113.992 61.0432 114.027C60.8074 114.071 60.5716 114.106 60.3271 114.123C59.8468 114.167 59.3665 114.219 58.8775 114.263C58.6329 114.298 58.3884 114.298 58.1526 114.307C57.9081 114.307 57.6636 114.324 57.4191 114.333C57.1745 114.333 56.93 114.35 56.6855 114.359C56.4235 114.359 56.1964 114.35 55.9432 114.342C55.4541 114.324 54.9651 114.324 54.4761 114.289C53.9783 114.237 53.4892 114.193 52.9915 114.141L52.6159 114.106L52.2492 114.045C52.0046 114.001 51.7601 113.966 51.5069 113.922C51.2623 113.878 51.0091 113.843 50.7646 113.8C50.52 113.756 50.2755 113.686 50.031 113.634C48.0574 113.223 46.1186 112.559 44.2323 111.737L43.525 111.422L43.1669 111.265L42.8263 111.09C42.3635 110.854 41.9094 110.618 41.4465 110.373C40.5558 109.849 39.6388 109.333 38.783 108.73C38.3463 108.442 37.9097 108.153 37.4905 107.83C37.0713 107.515 36.6434 107.2 36.233 106.877C35.8313 106.536 35.4208 106.204 35.0191 105.863L34.7134 105.609L34.4252 105.338L33.8401 104.796L33.255 104.255C33.0629 104.071 32.8795 103.879 32.6961 103.686C32.3293 103.302 31.9451 102.926 31.5783 102.533C31.2203 102.13 30.8709 101.728 30.5129 101.326C30.3295 101.125 30.1636 100.915 29.9977 100.706L29.4911 100.076L28.9846 99.4469C28.8187 99.2372 28.6615 99.0099 28.5043 98.8001C28.1899 98.363 27.8581 97.9347 27.5524 97.4889C26.9499 96.5886 26.3298 95.6883 25.7884 94.7442C25.2033 93.8177 24.7055 92.8474 24.1728 91.8947C23.9195 91.4052 23.6837 90.9156 23.4392 90.4262L23.0724 89.6832L22.7406 88.9314C22.5223 88.4244 22.2865 87.9262 22.0769 87.4192C21.876 86.9035 21.6752 86.3965 21.4656 85.8808C21.256 85.3738 21.0813 84.8493 20.8979 84.3249L20.6272 83.5382C20.5399 83.276 20.4438 83.0137 20.3652 82.7515C20.0421 81.6938 19.7103 80.6362 19.4395 79.5523L19.23 78.7481L19.1252 78.346L19.0378 77.9352L18.6798 76.3006L18.5924 75.8897L18.5139 75.4789L18.3654 74.6573L18.2169 73.8356C18.1645 73.5646 18.1209 73.2849 18.0859 73.0139C17.9375 71.9126 17.7628 70.8024 17.6755 69.6923C17.431 67.4721 17.3611 65.2344 17.3262 62.9967L17.3611 61.3271L17.3786 60.4967C17.3786 60.217 17.4048 59.9373 17.4222 59.6576L17.5183 57.9793C17.5532 57.4199 17.6231 56.8692 17.6755 56.3097C17.7628 55.1996 17.9375 54.0895 18.0859 52.9881C18.1209 52.7084 18.1645 52.4375 18.2169 52.1665L18.3654 51.3448L18.5139 50.5232L18.5924 50.1123L18.6798 49.7015L19.0378 48.0757L19.1252 47.6648L19.23 47.2627L19.4395 46.4586C19.7015 45.3747 20.0421 44.317 20.3652 43.2593C20.4438 42.9971 20.5399 42.7349 20.6272 42.4726L20.8979 41.6859C21.0813 41.1615 21.256 40.637 21.4656 40.13C21.6664 39.6143 21.876 39.1073 22.0769 38.5916C22.2952 38.0846 22.5223 37.5864 22.7406 37.0794L23.0724 36.3277L23.4392 35.5934C23.6837 35.1039 23.9195 34.6057 24.1728 34.1249C24.7055 33.1634 25.212 32.2019 25.7884 31.2753C26.3386 30.3313 26.9586 29.4397 27.5524 28.5394C27.8668 28.0936 28.1899 27.6653 28.5043 27.2282C28.6615 27.0097 28.8187 26.7911 28.9846 26.5814L29.4911 25.952L29.9977 25.3226C30.1636 25.1129 30.3382 24.9031 30.5129 24.702C30.8709 24.2999 31.229 23.8978 31.5783 23.4958C31.9364 23.1024 32.3206 22.7265 32.6961 22.3419C32.8883 22.1496 33.0629 21.9573 33.255 21.7738L33.8401 21.2318L34.4252 20.6899L34.7134 20.4189L35.0191 20.1654C35.4295 19.8245 35.8313 19.4923 36.233 19.1514C36.6521 18.828 37.0713 18.5221 37.4905 18.1987C37.901 17.8753 38.3463 17.5955 38.783 17.2983C39.6388 16.6952 40.547 16.1882 41.4465 15.6638C41.9094 15.4278 42.3635 15.1917 42.8263 14.9557L43.1669 14.7809L43.5162 14.6236L44.2236 14.3089C46.1099 13.496 48.0399 12.8317 50.0135 12.4208C51.9784 12.0012 53.9608 11.7215 55.9257 11.7128C56.1702 11.7128 56.4148 11.6953 56.668 11.6953C56.9125 11.6953 57.1571 11.7128 57.4016 11.7215C57.6461 11.7215 57.8906 11.739 58.1264 11.7478C58.3709 11.7565 58.6067 11.7565 58.8513 11.7915C59.3316 11.8439 59.8206 11.8876 60.3009 11.9313C60.5454 11.9488 60.7812 11.9925 61.017 12.0275C61.2528 12.0712 61.4886 12.1061 61.7244 12.1498C61.9602 12.1936 62.196 12.2285 62.4318 12.2635C62.6675 12.3072 62.8946 12.3684 63.1304 12.4208C63.5932 12.5345 64.0561 12.6306 64.5102 12.753C65.4097 13.0327 66.3179 13.2774 67.1825 13.6183C67.4008 13.697 67.6191 13.7757 67.8374 13.8631L68.1606 13.9855C68.2654 14.0292 68.3702 14.0816 68.475 14.1253C68.8941 14.3089 69.322 14.5012 69.7412 14.6848C69.846 14.7285 69.9508 14.7722 70.0556 14.8246L70.3613 14.982C70.5621 15.0868 70.763 15.1917 70.9726 15.2966C71.3743 15.5064 71.7847 15.6987 72.169 15.9435C75.2954 17.7441 78.0637 19.9032 80.4129 22.2895C82.7708 24.6583 84.7619 27.202 86.4299 29.7544C88.0978 32.3068 89.4514 34.8766 90.5605 37.3678C91.6609 39.8503 92.5429 42.2541 93.1979 44.518C93.2852 44.7978 93.3638 45.0775 93.4511 45.3572C93.521 45.6369 93.5996 45.9166 93.6695 46.1876C93.8092 46.7383 93.9489 47.2715 94.0799 47.7959C94.1934 48.3204 94.307 48.8361 94.4205 49.3431C94.4729 49.5966 94.5253 49.8414 94.5864 50.0861C94.6388 50.3309 94.6737 50.5756 94.7174 50.8204C94.8833 51.7819 95.0667 52.6909 95.1715 53.5563C95.285 54.4217 95.416 55.2259 95.4772 55.9776C95.547 56.7293 95.6344 57.4286 95.6693 58.0754C95.7042 58.7135 95.7392 59.2992 95.7741 59.8237C95.809 60.3481 95.8178 60.8114 95.8265 61.2047C95.8265 61.6068 95.844 61.939 95.8527 62.21C95.8614 62.7519 95.8702 63.0316 95.8702 63.0316V63.0141ZM95.0056 63.0141C95.0056 63.0141 95.0056 62.7344 94.9881 62.2012C94.9881 61.9303 94.9794 61.6068 94.9707 61.2047C94.9707 60.8114 94.9707 60.3569 94.927 59.8411C94.9008 59.3254 94.8659 58.7485 94.8309 58.1104C94.796 57.4723 94.7174 56.7905 94.6475 56.0388C94.5951 55.287 94.4729 54.4916 94.3594 53.6437C94.2633 52.7871 94.0886 51.8955 93.9314 50.9427C93.8878 50.7067 93.8529 50.462 93.8005 50.2172C93.7481 49.9725 93.6957 49.7277 93.6433 49.483C93.5385 48.9847 93.4249 48.4777 93.3201 47.9533C93.1891 47.4376 93.0582 46.9044 92.9184 46.3711C92.8486 46.1002 92.7787 45.8292 92.7088 45.5495C92.6302 45.2785 92.5429 44.9988 92.4643 44.7191C91.8355 42.4814 90.9972 40.1038 89.9405 37.6301C88.8751 35.1651 87.5739 32.604 85.9495 30.0603C84.3252 27.5167 82.3952 24.9905 80.081 22.6129C77.7843 20.2353 75.077 18.0501 71.9943 16.2494C71.6188 16.0134 71.2084 15.8211 70.8154 15.6026C70.6145 15.4977 70.4137 15.3928 70.2128 15.2879L69.9159 15.1306C69.8111 15.0781 69.7063 15.0344 69.6102 14.9907C69.1998 14.8071 68.7806 14.6148 68.3614 14.4313C68.2566 14.3876 68.1518 14.3351 68.047 14.2914L67.7239 14.169C67.5056 14.0904 67.296 14.003 67.0777 13.9243C66.2219 13.5746 65.3224 13.3386 64.4316 13.0589C63.9775 12.9453 63.5234 12.8404 63.0605 12.7355C62.8335 12.6831 62.6064 12.6219 62.3706 12.5782C62.1348 12.5432 61.9078 12.4995 61.672 12.4645C61.4362 12.4296 61.2004 12.3859 60.9734 12.3422C60.7376 12.2984 60.5018 12.2635 60.266 12.246C59.7944 12.2023 59.3141 12.1498 58.8425 12.1061C58.6067 12.0712 58.3622 12.0712 58.1177 12.0624C57.8732 12.0624 57.6374 12.045 57.3929 12.0362C57.1483 12.0362 56.9038 12.0187 56.6593 12.01C56.4235 12.01 56.179 12.0275 55.9345 12.0275C53.987 12.045 52.0308 12.3247 50.0834 12.753C48.136 13.1638 46.2234 13.8369 44.3721 14.6585L43.6734 14.9732L43.3241 15.1306L42.9835 15.3054C42.5294 15.5414 42.0753 15.7774 41.6212 16.0221C40.7392 16.5466 39.8484 17.0536 39.0013 17.6567C38.5734 17.9452 38.1455 18.2336 37.735 18.5571C37.3246 18.8717 36.9054 19.1864 36.5037 19.5098C36.1107 19.8507 35.709 20.1916 35.316 20.5325L35.0191 20.786L34.7309 21.057L34.1633 21.5989L33.5956 22.1409C33.4122 22.3245 33.2288 22.5168 33.0454 22.7091C32.6874 23.0937 32.3119 23.4695 31.9626 23.8629C31.6132 24.265 31.2727 24.6671 30.9233 25.0604C30.7487 25.2615 30.5828 25.4625 30.4168 25.6723L29.9278 26.3016L29.4387 26.931C29.2728 27.1408 29.1244 27.3593 28.9672 27.5778C28.6615 28.0149 28.3471 28.4432 28.0415 28.889C27.4651 29.7893 26.8625 30.6809 26.3386 31.6162C25.7796 32.534 25.2906 33.4955 24.7841 34.4483C24.5396 34.9291 24.3125 35.4186 24.0767 35.9081L23.7274 36.6423L23.4043 37.3941C23.1947 37.8923 22.9764 38.3905 22.7668 38.8975C22.5747 39.4045 22.3825 39.9115 22.1817 40.4185C21.9808 40.9255 21.8149 41.4412 21.6402 41.9569L21.3783 42.7349C21.2909 42.9971 21.2036 43.2506 21.125 43.5128C20.8193 44.5617 20.4962 45.6019 20.243 46.6771L20.0421 47.4725L19.9373 47.8746L19.85 48.2767L19.5094 49.8851L19.4221 50.2871L19.3522 50.6892L19.2125 51.5022L19.0728 52.3151C19.0204 52.586 18.9767 52.857 18.9505 53.128C18.8108 54.2206 18.6448 55.3045 18.5575 56.4059C18.5139 56.9566 18.444 57.4985 18.4091 58.0492L18.313 59.6925C18.3043 59.9635 18.2781 60.2432 18.2693 60.5142L18.2519 61.3446L18.2257 62.9967C18.2431 67.4022 18.6536 71.8077 19.5094 76.117L19.85 77.7254L19.9373 78.1275L20.0421 78.5295L20.243 79.325C20.4962 80.3914 20.8193 81.4316 21.125 82.4805C21.1949 82.7428 21.2909 83.005 21.3783 83.2585L21.6402 84.0364C21.8149 84.5522 21.9808 85.0679 22.1817 85.5749C22.3738 86.0818 22.5659 86.5888 22.7668 87.0958C22.9676 87.6028 23.1947 88.0923 23.4043 88.5905L23.7274 89.3335L24.0767 90.0678C24.3125 90.5573 24.5396 91.0468 24.7841 91.5275C25.2906 92.4803 25.7796 93.4418 26.3473 94.3596C26.8713 95.2949 27.4738 96.1865 28.0589 97.0869C28.3646 97.5239 28.679 97.961 28.9846 98.3893C29.1418 98.6078 29.2903 98.8263 29.4562 99.0361L29.9453 99.6655L30.4343 100.295C30.6002 100.505 30.7574 100.714 30.9408 100.907C31.2901 101.309 31.6307 101.711 31.98 102.104C32.3293 102.498 32.7049 102.873 33.0629 103.258C33.2463 103.45 33.421 103.643 33.6131 103.826L34.1807 104.368L34.7484 104.91L35.0366 105.181L35.3335 105.435C35.7265 105.775 36.1282 106.116 36.5212 106.449C36.9229 106.772 37.342 107.087 37.7525 107.401C38.1542 107.725 38.5909 108.013 39.0188 108.302C39.8571 108.905 40.7566 109.412 41.6387 109.936C42.0928 110.172 42.5469 110.408 42.9923 110.644L43.3328 110.819L43.6822 110.976L44.3808 111.291C46.2322 112.104 48.1447 112.777 50.0834 113.188C50.3279 113.24 50.5637 113.31 50.8082 113.354C51.0528 113.398 51.2973 113.433 51.5418 113.476C51.7863 113.52 52.0308 113.555 52.2754 113.599L52.6421 113.66L53.0089 113.695C53.498 113.747 53.9783 113.791 54.4673 113.843C54.9564 113.878 55.4454 113.887 55.9345 113.905C56.179 113.905 56.4322 113.931 56.6593 113.922C56.9038 113.922 57.1396 113.905 57.3841 113.896C57.6286 113.896 57.8644 113.878 58.109 113.87C58.3535 113.861 58.5893 113.861 58.8251 113.826C59.3054 113.774 59.7769 113.73 60.2485 113.677C60.4843 113.66 60.7201 113.616 60.9559 113.581C61.1917 113.538 61.4275 113.503 61.6545 113.459C61.8903 113.415 62.1174 113.38 62.3532 113.337C62.589 113.293 62.816 113.232 63.0431 113.179C63.4972 113.066 63.96 112.969 64.4054 112.856C65.2962 112.576 66.1957 112.34 67.0427 111.99C67.2611 111.912 67.4707 111.833 67.689 111.746L68.0121 111.623C68.1169 111.58 68.2217 111.527 68.3265 111.483C68.7457 111.3 69.1561 111.108 69.5753 110.924C69.6801 110.88 69.7849 110.837 69.8809 110.784L70.1779 110.627C70.3787 110.522 70.5796 110.417 70.7804 110.312C71.1734 110.102 71.5839 109.91 71.9594 109.674C75.0421 107.882 77.7493 105.706 80.0461 103.328C82.3516 100.959 84.2903 98.433 85.9146 95.8893C87.5389 93.3457 88.8401 90.7933 89.9056 88.3283C90.971 85.8633 91.8093 83.4857 92.4381 81.248C92.5167 80.9683 92.604 80.6973 92.6826 80.4176C92.7525 80.1379 92.8224 79.8669 92.8922 79.596C93.032 79.054 93.1629 78.5296 93.2939 78.0138C93.4075 77.4894 93.5123 76.9824 93.6171 76.4841C93.6695 76.2394 93.7218 75.9946 93.7742 75.7499C93.8266 75.5051 93.8616 75.2691 93.9052 75.0244C94.0624 74.0716 94.2371 73.18 94.3419 72.3234C94.4554 71.4668 94.5777 70.6713 94.6301 69.9283C94.6912 69.1853 94.7785 68.4948 94.8135 67.8567C94.8484 67.2273 94.8833 66.6504 94.9095 66.1347C94.9445 65.619 94.9445 65.1644 94.9532 64.7624C94.9532 64.369 94.9619 64.0281 94.9707 63.7659C94.9794 63.2327 94.9881 62.953 94.9881 62.953L95.0056 63.0141Z" fill="white"/>
</g>
<g style="mix-blend-mode:soft-light">
<path d="M10.8473 42.6912C10.8473 42.6912 12.3232 42.6738 14.8994 42.6475C17.4756 42.63 21.1522 42.6038 25.571 42.5689C29.9899 42.5514 35.1423 42.5252 40.6615 42.5077C46.1808 42.5077 52.0668 42.4902 57.9615 42.4814C63.8475 42.4902 69.7422 42.4989 75.2614 42.5164C78.021 42.5252 80.6933 42.5339 83.2171 42.5514C85.7497 42.5689 88.1425 42.5776 90.3519 42.5863C94.7708 42.6038 98.4473 42.6563 101.024 42.6737C103.6 42.7 105.076 42.7175 105.076 42.7175C105.093 42.7175 105.111 42.7349 105.111 42.7524C105.111 42.7699 105.093 42.7874 105.076 42.7874C105.076 42.7874 103.6 42.8049 101.024 42.8311C98.4473 42.8486 94.7708 42.8923 90.3519 42.9185C88.1425 42.9272 85.7497 42.9447 83.2171 42.9535C80.6846 42.9622 78.021 42.9709 75.2614 42.9884C69.7422 42.9972 63.8562 43.0059 57.9615 43.0234C52.0755 43.0234 46.1808 43.0059 40.6615 42.9972C35.1423 42.9709 29.9899 42.9535 25.571 42.936C21.1522 42.901 17.4756 42.8748 14.8994 42.8573C12.3232 42.8311 10.8473 42.8136 10.8473 42.8136C10.8124 42.8136 10.7949 42.7874 10.7949 42.7524C10.7949 42.7175 10.8211 42.7 10.8473 42.7V42.6912Z" fill="white"/>
</g>
<g style="mix-blend-mode:soft-light">
<path d="M24.5133 22.9451C24.5133 22.9451 25.5613 22.9277 27.3865 22.9014C29.2117 22.884 31.8315 22.8577 34.9667 22.8228C36.5386 22.814 38.2328 22.7965 40.0318 22.7878C41.8307 22.7791 43.7258 22.7528 45.682 22.7616C49.603 22.7616 53.7861 22.7441 57.9605 22.7354C62.1435 22.7441 66.3179 22.7528 70.239 22.7703C72.1951 22.7703 74.0902 22.7878 75.8892 22.8053C77.6881 22.8228 79.3823 22.8315 80.9543 22.8402C84.0894 22.8577 86.7005 22.9102 88.5344 22.9277C90.3596 22.9539 91.4076 22.9714 91.4076 22.9714C91.425 22.9714 91.4425 22.9888 91.4425 23.0063C91.4425 23.0238 91.425 23.0413 91.4076 23.0413C91.4076 23.0413 90.3596 23.0588 88.5344 23.085C86.7093 23.1025 84.0894 23.1462 80.9543 23.1724C79.3823 23.1811 77.6881 23.1986 75.8892 23.2074C74.0902 23.2249 72.1951 23.2336 70.239 23.2423C66.3179 23.2511 62.1348 23.2598 57.9605 23.2773C53.7774 23.2773 49.603 23.2598 45.682 23.2511C43.7258 23.2511 41.8307 23.2336 40.0318 23.2249C38.2328 23.2161 36.5386 23.1986 34.9667 23.1899C31.8315 23.1549 29.2204 23.1287 27.3865 23.1112C25.5613 23.085 24.5133 23.0675 24.5133 23.0675C24.4784 23.0675 24.4609 23.0413 24.4609 23.0063C24.4609 22.9714 24.4871 22.9539 24.5133 22.9539V22.9451Z" fill="white"/>
</g>
<g style="mix-blend-mode:soft-light">
<path d="M6.75943 62.4373C6.75943 62.4373 8.35756 62.4198 11.1608 62.3936C13.9641 62.3761 17.9638 62.3499 22.7582 62.3149C27.5613 62.2975 33.1591 62.2712 39.1586 62.2538C45.1581 62.2538 51.5594 62.2363 57.9606 62.2275C64.3618 62.2363 70.7631 62.245 76.7626 62.2625C79.7667 62.2712 82.6661 62.28 85.4169 62.2975C88.1678 62.3149 90.7702 62.3237 93.163 62.3324C97.9662 62.3674 101.966 62.3936 104.76 62.4198C107.564 62.4461 109.162 62.4635 109.162 62.4635C109.179 62.4635 109.197 62.481 109.197 62.4985C109.197 62.516 109.179 62.5335 109.162 62.5335C109.162 62.5335 107.564 62.551 104.76 62.5772C101.957 62.5947 97.9574 62.6296 93.163 62.6646C90.7615 62.6733 88.1591 62.6908 85.4169 62.6996C82.6661 62.7083 79.7667 62.717 76.7626 62.7345C70.7631 62.7433 64.3618 62.752 57.9606 62.7695C51.5594 62.7695 45.1581 62.752 39.1586 62.7433C33.1591 62.717 27.5613 62.6996 22.7582 62.6821C17.955 62.6471 13.9554 62.6209 11.1608 62.6034C8.35756 62.5772 6.75943 62.5597 6.75943 62.5597C6.7245 62.5597 6.70703 62.5335 6.70703 62.4985C6.70703 62.4635 6.73323 62.4461 6.75943 62.4461V62.4373Z" fill="white"/>
</g>
<g style="mix-blend-mode:soft-light">
<path d="M10.8473 82.1834C10.8473 82.1834 12.3232 82.1659 14.8994 82.1397C17.4756 82.1222 21.1522 82.096 25.571 82.061C29.9899 82.0436 35.1423 82.0173 40.6615 81.9999C46.1808 81.9999 52.0668 81.9824 57.9615 81.9736C63.8475 81.9824 69.7422 81.9911 75.2614 82.0086C78.021 82.0173 80.6933 82.0261 83.2171 82.0436C85.7497 82.061 88.1425 82.0698 90.3519 82.0785C94.7708 82.096 98.4473 82.1485 101.024 82.1659C103.6 82.1922 105.076 82.2096 105.076 82.2096C105.093 82.2096 105.111 82.2271 105.111 82.2446C105.111 82.2621 105.093 82.2796 105.076 82.2796C105.076 82.2796 103.6 82.2971 101.024 82.3233C98.4473 82.3408 94.7708 82.3845 90.3519 82.4107C88.1425 82.4194 85.7497 82.4369 83.2171 82.4457C80.6846 82.4544 78.021 82.4631 75.2614 82.4806C69.7422 82.4894 63.8562 82.4981 57.9615 82.5156C52.0755 82.5156 46.1808 82.4981 40.6615 82.4894C35.1423 82.4631 29.9899 82.4457 25.571 82.4282C21.1522 82.3932 17.4756 82.367 14.8994 82.3495C12.3232 82.3233 10.8473 82.3058 10.8473 82.3058C10.8124 82.3058 10.7949 82.2796 10.7949 82.2446C10.7949 82.2096 10.8211 82.1922 10.8473 82.1922V82.1834Z" fill="white"/>
</g>
<g style="mix-blend-mode:soft-light">
<path d="M93.0932 102.183H26.1989C26.0854 102.183 25.998 102.096 25.998 101.982C25.998 101.869 26.0854 101.781 26.1989 101.781H93.0932C93.2067 101.781 93.294 101.869 93.294 101.982C93.294 102.096 93.2067 102.183 93.0932 102.183Z" fill="white"/>
</g>
</g>
<path d="M14.9434 67.0962V140.53C14.9434 146.57 19.2836 151.509 24.7242 151.666C48.9057 152.357 133.458 154.035 156.478 153.659C160.434 153.598 163.639 150.084 163.752 145.696C164.198 128.633 164.914 87.6115 162.25 68.5647C161.692 64.5526 158.635 61.5544 154.976 61.4233C134.716 60.7065 45.0807 58.4251 22.0782 58.9933C18.1134 59.0894 14.9434 62.6907 14.9434 67.0875V67.0962Z" fill="url(#paint1_linear_394_4227)"/>
<path d="M19.0996 66.7379V136.5C19.0996 140.023 21.6496 142.899 24.8284 142.951L153.168 144.708C156.32 144.761 158.905 141.946 158.914 138.45L159.132 69.3078C159.132 66.8078 157.342 64.7624 155.089 64.7012L23.6931 61.7555C21.1693 61.6856 19.0996 63.932 19.0996 66.7292V66.7379Z" fill="url(#paint2_linear_394_4227)"/>
<path opacity="0.12" d="M23.833 69.1152V132.304C23.833 135.495 26.2258 138.1 29.2124 138.152L149.753 139.743C152.714 139.787 155.141 137.243 155.15 134.079L155.351 71.4491C155.351 69.1852 153.674 67.3321 151.552 67.2709L28.1383 64.6049C25.7717 64.5437 23.8242 66.5803 23.8242 69.1152H23.833Z" fill="white"/>
<path opacity="0.65" d="M159.884 147.558L19.1004 144.9C19.0044 144.9 18.9258 144.813 18.9258 144.717C18.9258 144.621 19.0044 144.551 19.1092 144.542L159.893 147.199C159.989 147.199 160.067 147.287 160.067 147.383C160.067 147.479 159.989 147.558 159.893 147.558H159.884Z" fill="white"/>
<path d="M45.3243 113.52C41.0452 113.476 37.421 110.067 37.0804 105.758L36.2945 95.9767C36.1111 93.6429 36.8709 91.3614 38.3991 89.7094C39.8575 88.1272 41.8486 87.2531 44.0057 87.2531L120.279 87.1133C122.672 87.1133 124.75 88.0661 126.165 89.8055C127.615 91.58 128.156 93.9925 127.667 96.4225L125.58 106.676C124.715 110.941 120.567 114.281 116.14 114.281L45.3243 113.52Z" fill="#C0CFEB"/>
<path d="M120.278 89.1064L44.0048 89.2463C40.5466 89.2463 37.9879 92.2532 38.276 95.8283L39.062 105.61C39.324 108.887 42.136 111.51 45.3497 111.545L116.069 112.305C119.562 112.34 122.942 109.718 123.64 106.291L125.728 96.0381C126.487 92.2882 124.068 89.1064 120.287 89.1064H120.278Z" fill="#98B1DC"/>
<path d="M61.7169 96.1516L58.1976 106.912H58.1801C58.0142 107.436 57.595 107.812 57.1409 107.926H57.1234C57.1234 107.926 57.0798 107.943 57.071 107.943H57.0448C57.0448 107.943 57.0186 107.961 57.0012 107.961H56.6693C56.6693 107.961 56.6431 107.943 56.6256 107.943H56.5994C56.5994 107.943 56.5558 107.926 56.547 107.926H56.5296C56.0755 107.812 55.6563 107.436 55.4729 106.912L53.2547 100.129L51.0366 106.912C50.8706 107.436 50.4515 107.812 49.9973 107.926H49.9799C49.9799 107.926 49.9362 107.943 49.9275 107.943H49.9013C49.9013 107.943 49.8751 107.961 49.8576 107.961H49.5258C49.5258 107.961 49.4996 107.943 49.4821 107.943H49.4559C49.4559 107.943 49.4122 107.926 49.4035 107.926H49.386C48.9145 107.812 48.5127 107.436 48.3294 106.912L44.81 96.1516V96.1253C44.7576 95.9593 44.7227 95.7757 44.7227 95.6096C44.7227 94.9715 45.0982 94.3771 45.6745 94.1673C45.8143 94.1149 45.9627 94.0974 46.1025 94.0974C46.6963 94.0974 47.2639 94.517 47.4648 95.1638C47.4823 95.1901 48.6874 98.87 49.683 101.921C50.6785 98.87 51.8837 95.1901 51.8837 95.1638C52.0321 94.6918 52.3552 94.3597 52.7395 94.1936L52.757 94.1761C52.757 94.1761 52.7832 94.1586 52.8006 94.1586H52.8181C52.8181 94.1586 52.8355 94.1411 52.8443 94.1411H52.8705C52.8705 94.1411 52.8967 94.1236 52.9141 94.1236L52.9316 94.1062C52.9316 94.1062 52.9753 94.1062 52.984 94.0887H53.0015C53.0015 94.0887 53.0451 94.0887 53.0539 94.0712H53.1412C53.1412 94.0712 53.1849 94.0712 53.1936 94.0537H53.3159C53.3159 94.0537 53.3421 94.0712 53.3595 94.0712H53.4469C53.4469 94.0712 53.4905 94.0887 53.5167 94.0887C53.5429 94.1062 53.5604 94.1062 53.5691 94.1062C53.5778 94.1062 53.5866 94.1062 53.5866 94.1236C53.6128 94.1236 53.6302 94.1236 53.639 94.1411H53.6652C53.6652 94.1411 53.6826 94.1586 53.6914 94.1586H53.7088C53.7088 94.1586 53.735 94.1761 53.7525 94.1761L53.77 94.1936C54.1542 94.3597 54.4773 94.6918 54.6258 95.1638C54.6258 95.1901 55.8309 98.87 56.8265 101.921C57.8221 98.87 59.0272 95.1901 59.0272 95.1638C59.2368 94.5083 59.8044 94.0974 60.3983 94.0974C60.538 94.0974 60.6865 94.1149 60.8262 94.1673C61.4113 94.3771 61.7781 94.9715 61.7781 95.6096C61.7781 95.7757 61.7519 95.9593 61.6907 96.1253V96.1516H61.7169Z" fill="white"/>
<path d="M79.4708 96.1516L75.9515 106.912H75.934C75.7681 107.436 75.3489 107.812 74.8948 107.926H74.8773C74.8773 107.926 74.8337 107.943 74.8249 107.943H74.7987C74.7987 107.943 74.7725 107.961 74.7551 107.961H74.4232C74.4232 107.961 74.397 107.943 74.3795 107.943H74.3533C74.3533 107.943 74.3097 107.926 74.301 107.926H74.2835C73.8294 107.812 73.4102 107.436 73.2268 106.912L71.0086 100.129L68.7905 106.912C68.6245 107.436 68.2054 107.812 67.7513 107.926H67.7338C67.7338 107.926 67.6901 107.943 67.6814 107.943H67.6552C67.6552 107.943 67.629 107.961 67.6115 107.961H67.2797C67.2797 107.961 67.2535 107.943 67.236 107.943H67.2098C67.2098 107.943 67.1661 107.926 67.1574 107.926H67.1399C66.6684 107.812 66.2667 107.436 66.0833 106.912L62.5639 96.1516V96.1253C62.5115 95.9593 62.4766 95.7757 62.4766 95.6096C62.4766 94.9715 62.8521 94.3771 63.4284 94.1673C63.5682 94.1149 63.7166 94.0974 63.8564 94.0974C64.4502 94.0974 65.0178 94.517 65.2187 95.1638C65.2362 95.1901 66.4413 98.87 67.4369 101.921C68.4324 98.87 69.6376 95.1901 69.6376 95.1638C69.786 94.6918 70.1091 94.3597 70.4934 94.1936L70.5109 94.1761C70.5109 94.1761 70.5371 94.1586 70.5545 94.1586H70.572C70.572 94.1586 70.5895 94.1411 70.5982 94.1411H70.6244C70.6244 94.1411 70.6506 94.1236 70.668 94.1236L70.6855 94.1062C70.6855 94.1062 70.7292 94.1062 70.7379 94.0887H70.7554C70.7554 94.0887 70.799 94.0887 70.8078 94.0712H70.8951C70.8951 94.0712 70.9388 94.0712 70.9475 94.0537H71.0698C71.0698 94.0537 71.096 94.0712 71.1134 94.0712H71.2008C71.2008 94.0712 71.2444 94.0887 71.2706 94.0887C71.2968 94.1062 71.3143 94.1062 71.323 94.1062C71.3318 94.1062 71.3405 94.1062 71.3405 94.1236C71.3667 94.1236 71.3842 94.1236 71.3929 94.1411H71.4191C71.4191 94.1411 71.4365 94.1586 71.4453 94.1586H71.4627C71.4627 94.1586 71.4889 94.1761 71.5064 94.1761L71.5239 94.1936C71.9081 94.3597 72.2312 94.6918 72.3797 95.1638C72.3797 95.1901 73.5849 98.87 74.5804 101.921C75.576 98.87 76.7811 95.1901 76.7811 95.1638C76.9907 94.5083 77.5583 94.0974 78.1522 94.0974C78.2919 94.0974 78.4404 94.1149 78.5801 94.1673C79.1652 94.3771 79.532 94.9715 79.532 95.6096C79.532 95.7757 79.5058 95.9593 79.4446 96.1253V96.1516H79.4708Z" fill="white"/>
<path d="M97.2248 96.1516L93.7054 106.912H93.6879C93.522 107.436 93.1028 107.812 92.6487 107.926H92.6312C92.6312 107.926 92.5876 107.943 92.5788 107.943H92.5526C92.5526 107.943 92.5264 107.961 92.509 107.961H92.1771C92.1771 107.961 92.1509 107.943 92.1335 107.943H92.1073C92.1073 107.943 92.0636 107.926 92.0549 107.926H92.0374C91.5833 107.812 91.1641 107.436 90.9807 106.912L88.7625 100.129L86.5444 106.912C86.3784 107.436 85.9593 107.812 85.5052 107.926H85.4877C85.4877 107.926 85.444 107.943 85.4353 107.943H85.4091C85.4091 107.943 85.3829 107.961 85.3654 107.961H85.0336C85.0336 107.961 85.0074 107.943 84.9899 107.943H84.9637C84.9637 107.943 84.9201 107.926 84.9113 107.926H84.8939C84.4223 107.812 84.0206 107.436 83.8372 106.912L80.3178 96.1516V96.1253C80.2654 95.9593 80.2305 95.7757 80.2305 95.6096C80.2305 94.9715 80.606 94.3771 81.1824 94.1673C81.3221 94.1149 81.4705 94.0974 81.6103 94.0974C82.2041 94.0974 82.7718 94.517 82.9726 95.1638C82.9901 95.1901 84.1952 98.87 85.1908 101.921C86.1863 98.87 87.3915 95.1901 87.3915 95.1638C87.5399 94.6918 87.863 94.3597 88.2473 94.1936L88.2648 94.1761C88.2648 94.1761 88.291 94.1586 88.3084 94.1586H88.3259C88.3259 94.1586 88.3434 94.1411 88.3521 94.1411H88.3783C88.3783 94.1411 88.4045 94.1236 88.422 94.1236L88.4394 94.1062C88.4394 94.1062 88.4831 94.1062 88.4918 94.0887H88.5093C88.5093 94.0887 88.553 94.0887 88.5617 94.0712H88.649C88.649 94.0712 88.6927 94.0712 88.7014 94.0537H88.8237C88.8237 94.0537 88.8499 94.0712 88.8673 94.0712H88.9547C88.9547 94.0712 88.9983 94.0887 89.0245 94.0887C89.0507 94.1062 89.0682 94.1062 89.0769 94.1062C89.0857 94.1062 89.0944 94.1062 89.0944 94.1236C89.1206 94.1236 89.1381 94.1236 89.1468 94.1411H89.173C89.173 94.1411 89.1905 94.1586 89.1992 94.1586H89.2167C89.2167 94.1586 89.2428 94.1761 89.2603 94.1761L89.2778 94.1936C89.662 94.3597 89.9851 94.6918 90.1336 95.1638C90.1336 95.1901 91.3388 98.87 92.3343 101.921C93.3299 98.87 94.535 95.1901 94.535 95.1638C94.7446 94.5083 95.3122 94.0974 95.9061 94.0974C96.0458 94.0974 96.1943 94.1149 96.334 94.1673C96.9191 94.3771 97.2859 94.9715 97.2859 95.6096C97.2859 95.7757 97.2597 95.9593 97.1986 96.1253V96.1516H97.2248Z" fill="white"/>
<path d="M100.998 108.171C100.998 108.503 100.728 108.765 100.404 108.765C100.073 108.765 99.8105 108.494 99.8105 108.171V91.694C99.8105 91.3618 100.081 91.0996 100.404 91.0996C100.736 91.0996 100.998 91.3706 100.998 91.694V108.171Z" fill="white"/>
<path d="M132.461 121.885L123.589 111.046C123.519 110.959 123.501 110.845 123.536 110.74C123.571 110.636 123.658 110.557 123.763 110.531L131.605 108.651C131.92 108.573 132.164 108.319 132.217 107.996C132.269 107.672 132.121 107.349 131.85 107.174L109.485 93.0223C109.214 92.8475 108.865 92.8563 108.603 93.0311C108.332 93.2059 108.201 93.5293 108.254 93.844L112.908 121.955C112.961 122.296 113.223 122.558 113.563 122.62C113.895 122.681 114.236 122.532 114.41 122.235L118.751 114.945C118.803 114.858 118.899 114.796 119.004 114.788C119.109 114.788 119.213 114.831 119.275 114.91L127.545 125.522C128.016 126.134 128.881 126.265 129.518 125.836L132.173 124.027C132.514 123.8 132.741 123.433 132.802 123.03C132.863 122.62 132.749 122.209 132.487 121.894L132.461 121.885Z" fill="white"/>
<path d="M37.3679 143.686H35.8047V160.634H37.3679V143.686Z" fill="#8193CA"/>
<path d="M43.4451 160.958H29.7344V160.425C29.7344 160.154 29.9527 159.936 30.2234 159.936H42.9211C43.2093 159.936 43.4451 160.172 43.4451 160.46V160.95V160.958Z" fill="#8193CA"/>
<path d="M44.2404 139.647H29.4992C28.5105 139.647 27.709 140.45 27.709 141.439V143.056C27.709 144.046 28.5105 144.848 29.4992 144.848H44.2404C45.2292 144.848 46.0307 144.046 46.0307 143.056V141.439C46.0307 140.45 45.2292 139.647 44.2404 139.647Z" fill="#8193CA"/>
<path d="M22.7065 155.477C22.7065 155.477 17.6414 157.663 17.9383 159.944C17.9383 159.944 23.1694 158.939 24.1038 157.444C25.0382 155.949 24.523 155.084 24.523 155.084L22.7065 155.486V155.477Z" fill="url(#paint3_linear_394_4227)"/>
<path d="M23.946 152.986L24.1992 155.207C24.2342 155.539 24.0508 155.871 23.7364 155.984C23.5792 156.046 23.3696 156.081 23.0989 156.081C22.7146 156.081 22.3741 155.827 22.2693 155.46L21.7715 153.659L23.946 152.978V152.986Z" fill="url(#paint4_linear_394_4227)"/>
<path d="M35.0019 135.941C35.0019 135.941 25.6926 135.513 21.0641 138.214C16.4356 140.915 21.2999 153.895 21.2999 153.895C21.2999 153.895 22.5138 154.157 24.2516 153.222C24.2516 153.222 21.7627 143.72 26.0855 142.068C30.941 140.206 35.9625 140.661 35.9625 140.661L35.0281 136.229L35.0019 135.932V135.941Z" fill="url(#paint5_linear_394_4227)"/>
<path d="M18.9498 158.948C20.0065 158.712 23.1504 157.418 23.622 157.436C24.1023 157.453 24.7747 158.17 24.7747 158.17C24.7747 158.17 24.8882 158.563 24.5477 159.123C23.7355 159.752 21.9976 160.915 19.9716 161.037C18.4783 161.133 17.5875 160.539 17.0723 159.962C17.5176 159.525 18.2425 159.105 18.9498 158.957V158.948Z" fill="url(#paint6_linear_394_4227)"/>
<path d="M19.9806 161.029C22.0066 160.897 23.7445 159.744 24.5566 159.114C24.3296 159.49 23.8842 159.953 23.0633 160.417C21.0198 161.571 17.6314 161.404 16.959 161.142C16.4176 160.932 16.5835 160.434 17.0813 159.953C17.5965 160.53 18.4873 161.125 19.9806 161.029Z" fill="url(#paint7_linear_394_4227)"/>
<path d="M25.8938 156.998C25.824 157.261 25.0817 158.047 24.6537 158.484C24.4529 158.694 24.156 158.781 23.8678 158.72C23.6844 158.677 23.4835 158.615 23.3089 158.519C23.0469 158.379 22.9508 158.038 23.0993 157.776L24.1822 155.801L25.8938 156.99V156.998Z" fill="url(#paint8_linear_394_4227)"/>
<path d="M44.2325 135.154C44.2325 135.154 45.0446 140.923 42.6955 142.103C40.3463 143.284 35.1939 144.053 33.4211 147.051C31.6483 150.04 28.4608 155.914 25.5614 157.601C25.5614 157.601 23.9022 157.059 23.4219 156.247C23.4219 156.247 26.8626 147.182 28.3036 144.988C29.5437 143.082 31.3688 140.329 33.9538 139.149C34.6961 138.808 34.7485 138.021 34.6175 137.217L34.3817 135.749L44.2412 135.154H44.2325Z" fill="url(#paint9_linear_394_4227)"/>
<path d="M22.4535 128.616C25.7458 129.56 27.2216 120.277 27.2042 120.05L32.2518 125.959C32.2518 125.959 29.2389 131.256 24.6978 131.824C23.5451 131.964 22.567 131.772 21.7461 131.396C22.3487 130.408 22.4884 129.429 22.4447 128.616H22.4535Z" fill="url(#paint10_linear_394_4227)"/>
<path d="M16.3569 125.583C17.7891 124.989 19.0118 126.169 19.0118 126.169C20.4352 127.629 21.5618 128.363 22.4613 128.617C22.5049 129.429 22.3739 130.408 21.7626 131.396C19.9898 130.583 18.9506 128.94 18.5314 128.118C18.3743 127.821 18.0162 127.699 17.7193 127.839C17.4136 127.987 17.0992 128.214 17.0818 128.512C17.0468 129.115 16.3307 129.15 16.322 128.922C16.322 128.704 16.8722 127.515 16.8722 127.515C16.8722 127.515 15.2217 128.573 14.5842 128.975C13.9379 129.377 13.3965 128.713 13.3965 128.713C13.3965 128.713 14.9247 126.16 16.3657 125.575L16.3569 125.583Z" fill="url(#paint11_linear_394_4227)"/>
<path d="M42.9583 116.239C42.9583 116.239 38.5307 113.215 27.8416 118.686C27.8416 118.686 26.7412 120.085 27.2565 121.658C27.7717 123.232 34.1206 131.754 34.3651 135.758C34.3651 135.758 38.7054 138.31 44.3381 135.784C44.3381 135.784 46.2244 125.216 42.9583 116.248V116.239Z" fill="url(#paint12_linear_394_4227)"/>
<path d="M32.6622 111.501L35.4917 115.802C35.6664 116.142 35.6314 116.553 35.3869 116.851C34.9066 117.454 33.9023 118.267 32.1819 117.742C31.6754 117.585 31.2824 117.174 31.1602 116.649L30.252 112.821L32.6535 111.501H32.6622Z" fill="url(#paint13_linear_394_4227)"/>
<path d="M46.2419 128.214C46.5389 126.125 41.0371 122.087 41.0371 122.087L42.9671 116.23C42.9671 116.23 53.4728 123.739 51.2634 129.867C50.949 130.749 50.4774 131.387 49.901 131.842C48.792 129.561 47.2812 128.608 46.2507 128.214H46.2419Z" fill="url(#paint14_linear_394_4227)"/>
<path d="M38.5569 128.791C38.5569 128.791 44.7835 130.53 46.0759 128.633C46.1633 128.502 46.2157 128.362 46.2331 128.214C47.2636 128.607 48.7744 129.551 49.8835 131.841C46.923 134.167 41.2292 131.562 39.6747 130.775C39.4214 130.644 39.1245 130.618 38.8538 130.705C38.3036 130.88 37.3517 131.142 36.819 131.116C36.0418 131.072 35.2034 133.887 33.8848 133.179C33.8848 133.179 34.4873 128.371 38.5569 128.8V128.791Z" fill="url(#paint15_linear_394_4227)"/>
<path d="M26.1982 108.783C26.1982 108.853 27.4819 113.32 28.1456 115.592C28.3465 116.283 29.1063 116.65 29.77 116.37L30.2765 116.16C30.9751 115.872 32.1977 114.963 32.2588 114.211L32.023 108.818C32.023 108.818 26.2768 107.131 26.1895 108.783H26.1982Z" fill="url(#paint16_linear_394_4227)"/>
<path d="M31.9887 107.323C32.1197 106.816 32.1284 106.064 31.1765 105.732C30.2071 105.391 29.5522 105.951 29.2116 106.388C29.0719 106.563 28.8361 106.615 28.6352 106.51C28.5217 106.449 28.382 106.44 28.2248 106.563C28.0152 106.72 27.7008 106.65 27.5698 106.423C27.3078 105.986 26.81 105.531 25.9105 105.767C24.3124 106.187 24.2862 107.996 24.8102 109.019C25.3254 110.033 27.0371 109.482 27.858 108.87C28.4868 108.407 29.3862 108.757 29.7792 108.949C29.9015 109.01 29.9976 109.124 30.0238 109.264L30.4691 111.265C30.9669 111.318 31.456 111.405 31.945 111.501C31.945 111.353 31.9363 111.222 31.9363 111.134C31.9537 110.47 32.731 110.007 33.0628 109.832C33.1763 109.779 33.2549 109.674 33.2899 109.561C33.4209 109.141 33.5606 108.18 32.338 107.891C32.0847 107.83 31.9275 107.577 31.9974 107.323H31.9887Z" fill="url(#paint17_linear_394_4227)"/>
<path d="M32.1817 112.306C32.1817 112.306 31.352 110.496 31.9983 109.981C32.6445 109.465 33.675 109.614 33.5702 110.986C33.4392 112.69 32.1817 112.306 32.1817 112.306Z" fill="url(#paint18_linear_394_4227)"/>
<path d="M30.6093 132.76C30.6093 132.76 30.5831 132.76 30.5744 132.76L16.0253 132.742C15.6673 132.742 15.3704 132.454 15.3791 132.086C15.3791 131.728 15.676 131.431 16.0341 131.44L30.5831 131.457C30.9412 131.457 31.2381 131.746 31.2294 132.113C31.2294 132.462 30.9586 132.742 30.6093 132.76Z" fill="url(#paint19_linear_394_4227)"/>
<path d="M2.94259 119.543H15.0639C15.9547 119.543 16.7755 120.059 17.1511 120.872L22.7489 132.759H7.6933C7.11693 132.759 6.60168 132.41 6.39209 131.868L2.05183 120.863C1.79857 120.225 2.27015 119.534 2.95132 119.534L2.94259 119.543Z" fill="url(#paint20_linear_394_4227)"/>
<path d="M4.90765 164.001C4.82905 164.001 4.74173 163.983 4.66313 163.948C4.34874 163.817 4.20902 163.467 4.34001 163.17L17.16 134.281C17.2909 133.984 17.649 133.844 17.9634 133.975C18.2778 134.106 18.4175 134.456 18.2865 134.753L5.46656 163.642C5.3705 163.87 5.14344 164.001 4.90765 164.001Z" fill="#98B1DC"/>
<path d="M19.3517 164.001C19.1159 164.001 18.8888 163.87 18.7928 163.642L5.97282 134.753C5.84183 134.456 5.98156 134.106 6.29594 133.975C6.60159 133.844 6.96838 133.984 7.09937 134.281L19.9193 163.17C20.0503 163.467 19.9106 163.817 19.5962 163.948C19.5176 163.983 19.439 164.001 19.3517 164.001Z" fill="#98B1DC"/>
<path d="M44.5991 164.001C44.5205 164.001 44.4331 163.983 44.3545 163.948C44.0402 163.817 43.9004 163.467 44.0314 163.17L56.8514 134.281C56.9824 133.984 57.3404 133.844 57.6548 133.975C57.9692 134.106 58.1089 134.456 57.9779 134.753L45.158 163.642C45.0619 163.87 44.8348 164.001 44.5991 164.001Z" fill="#98B1DC"/>
<path d="M59.0431 164.001C58.8073 164.001 58.5802 163.87 58.4842 163.642L45.6642 134.753C45.5332 134.456 45.673 134.106 45.9873 133.975C46.293 133.844 46.6598 133.984 46.7908 134.281L59.6107 163.17C59.7417 163.467 59.602 163.817 59.2876 163.948C59.209 163.983 59.1304 164.001 59.0431 164.001Z" fill="#98B1DC"/>
<path d="M60.5542 133.398C60.5891 133.206 60.5454 133.014 60.4319 132.865C60.3184 132.716 60.1612 132.629 59.9865 132.629H1.65054C1.42348 132.629 1.21389 132.76 1.09163 132.97C0.969372 133.18 0.951906 133.451 1.04797 133.687L1.67674 135.216C1.8252 135.566 2.13085 135.793 2.48017 135.793H59.5848C59.9079 135.793 60.1786 135.54 60.2398 135.181L60.5454 133.398H60.5542Z" fill="#98B1DC"/>
<path d="M143.841 5.51521L130.82 4.83341C129.755 4.78096 128.908 5.61136 128.942 6.67777L129.283 18.6618C129.309 19.6408 130.156 20.3925 131.161 20.3401L143.526 19.7282C144.365 19.6845 145.055 18.9415 145.081 18.0587L145.387 7.32461C145.413 6.37184 144.732 5.55018 143.85 5.50647L143.841 5.51521Z" fill="#C0CFEB"/>
<path d="M136.933 17.4646C134.226 17.4646 132.025 15.2619 132.025 12.5521C132.025 9.8424 134.226 7.63965 136.933 7.63965C139.641 7.63965 141.841 9.8424 141.841 12.5521C141.841 15.2619 139.641 17.4646 136.933 17.4646ZM136.933 8.47005C134.68 8.47005 132.846 10.3057 132.846 12.5609C132.846 14.8161 134.68 16.6517 136.933 16.6517C139.186 16.6517 141.02 14.8161 141.02 12.5609C141.02 10.3057 139.186 8.47005 136.933 8.47005Z" fill="white"/>
<path fill-rule="evenodd" clip-rule="evenodd" d="M135.396 14.4403V10.9089C135.396 10.5331 135.807 10.2971 136.13 10.4894L139.099 12.2551C139.414 12.4474 139.414 12.9019 139.099 13.0942L136.13 14.8599C135.807 15.0522 135.396 14.8162 135.396 14.4403Z" fill="white"/>
<path d="M16.3044 100.644L5.41443 100.076C4.52367 100.032 3.8163 100.723 3.8425 101.623L4.12196 111.649C4.14815 112.471 4.85552 113.092 5.69388 113.057L16.0424 112.541C16.741 112.506 17.3261 111.885 17.3436 111.142L17.5969 102.157C17.6231 101.352 17.0467 100.671 16.3131 100.636L16.3044 100.644Z" fill="#98B1DC"/>
<path d="M14.3402 109.953H8.53279C8.31446 109.953 8.12234 109.805 8.06121 109.595L6.41068 103.948L4.74269 103.66C4.47197 103.616 4.28858 103.354 4.34098 103.083C4.39338 102.812 4.64663 102.628 4.91735 102.681L6.891 103.022C7.07439 103.057 7.23158 103.188 7.28398 103.371L8.91704 108.957H13.9472L14.6895 104.936C14.7419 104.665 14.9952 104.49 15.2659 104.543C15.5366 104.595 15.7113 104.849 15.6589 105.12L14.838 109.543C14.7943 109.779 14.5934 109.945 14.3489 109.945L14.3402 109.953Z" fill="white"/>
<path d="M14.9081 105.391H7.17942C6.9087 105.391 6.68164 105.172 6.68164 104.893C6.68164 104.613 6.89996 104.395 7.17942 104.395H14.9168C15.1875 104.395 15.4146 104.613 15.4146 104.893C15.4146 105.172 15.1962 105.391 14.9168 105.391H14.9081Z" fill="white"/>
<path d="M9.85129 109.263C9.58057 109.263 9.35352 109.044 9.35352 108.765V104.988C9.35352 104.718 9.57184 104.49 9.85129 104.49C10.1307 104.49 10.3491 104.709 10.3491 104.988V108.765C10.3491 109.036 10.1307 109.263 9.85129 109.263Z" fill="white"/>
<path d="M12.6286 109.263C12.3579 109.263 12.1309 109.044 12.1309 108.765V104.988C12.1309 104.718 12.3492 104.49 12.6286 104.49C12.9081 104.49 13.1264 104.709 13.1264 104.988V108.765C13.1264 109.036 12.9081 109.263 12.6286 109.263Z" fill="white"/>
<path d="M14.5143 107.374H7.96457C7.69385 107.374 7.4668 107.156 7.4668 106.876C7.4668 106.596 7.68512 106.378 7.96457 106.378H14.5143C14.785 106.378 15.012 106.596 15.012 106.876C15.012 107.156 14.7937 107.374 14.5143 107.374Z" fill="white"/>
<path d="M10.1571 110.95C10.1571 111.326 9.85149 111.641 9.46725 111.641C9.083 111.641 8.77734 111.335 8.77734 110.95C8.77734 110.566 9.083 110.26 9.46725 110.26C9.85149 110.26 10.1571 110.566 10.1571 110.95Z" fill="white"/>
<path d="M14.3486 110.95C14.3486 111.326 14.0429 111.641 13.6587 111.641C13.2744 111.641 12.9688 111.335 12.9688 110.95C12.9688 110.566 13.2744 110.26 13.6587 110.26C14.0429 110.26 14.3486 110.566 14.3486 110.95Z" fill="white"/>
<path d="M156.504 97.2439L145.535 96.6758C144.636 96.6321 143.928 97.3313 143.946 98.2317L144.225 108.328C144.251 109.149 144.959 109.787 145.806 109.744L156.224 109.228C156.931 109.193 157.517 108.564 157.534 107.821L157.787 98.7736C157.814 97.9695 157.237 97.2789 156.495 97.2439H156.504Z" fill="#98B1DC"/>
<path d="M154.748 106.982H147.028C146.365 106.982 145.832 106.449 145.832 105.784V100.234C145.832 99.5693 146.365 99.0361 147.028 99.0361H154.748C155.412 99.0361 155.945 99.5693 155.945 100.234V105.784C155.945 106.449 155.412 106.982 154.748 106.982ZM147.028 100.033C146.915 100.033 146.828 100.129 146.828 100.234V105.784C146.828 105.898 146.924 105.985 147.028 105.985H154.748C154.862 105.985 154.949 105.889 154.949 105.784V100.234C154.949 100.12 154.853 100.033 154.748 100.033H147.028Z" fill="white"/>
<path d="M150.81 103.546C150.705 103.546 150.609 103.52 150.522 103.459L146.217 100.399C145.989 100.242 145.937 99.9274 146.103 99.7089C146.26 99.4816 146.575 99.4292 146.793 99.5953L150.81 102.445L154.775 99.6215C155.002 99.4641 155.307 99.5166 155.465 99.7351C155.622 99.9624 155.569 100.268 155.351 100.426L151.098 103.45C151.011 103.511 150.915 103.537 150.81 103.537V103.546Z" fill="white"/>
<path d="M146.584 107.034L146.435 106.055L146.505 106.545L146.086 106.274C146.173 106.134 147.719 103.424 148.741 101.632C148.88 101.396 149.177 101.309 149.413 101.449C149.649 101.589 149.736 101.886 149.597 102.122C149.597 102.122 148.933 103.285 148.269 104.456C147.937 105.041 147.605 105.618 147.352 106.055C146.997 106.679 146.738 107.002 146.575 107.026L146.584 107.034Z" fill="white"/>
<path d="M155.01 107.034C154.852 107.011 154.596 106.688 154.241 106.064C153.988 105.627 153.656 105.042 153.324 104.465C152.66 103.302 151.997 102.131 151.997 102.131C151.857 101.895 151.944 101.589 152.18 101.458C152.416 101.318 152.722 101.405 152.852 101.641C153.874 103.424 155.42 106.134 155.507 106.283L155.088 106.554L155.01 107.043V107.034Z" fill="white"/>
<path d="M158.642 20.3055L147.674 19.7373C146.774 19.6936 146.067 20.3929 146.084 21.2932L146.364 31.3891C146.39 32.2108 147.097 32.8489 147.944 32.8052L158.363 32.2895C159.07 32.2545 159.655 31.6252 159.673 30.8822L159.926 21.8352C159.952 21.031 159.376 20.3404 158.634 20.3055H158.642Z" fill="#98B1DC"/>
<path d="M153.796 22.1939C153.612 22.1327 153.42 22.2638 153.42 22.4561V27.491C153.036 27.1763 152.503 26.984 151.918 26.984C150.757 26.984 149.822 27.7357 149.822 28.6623C149.822 29.5888 150.765 30.3406 151.918 30.3406C153.071 30.3406 154.014 29.5888 154.014 28.6623C154.014 28.6623 154.014 28.6448 154.014 28.6361V23.6274C154.844 23.7498 155.411 24.3879 155.743 24.9036C155.883 25.1221 156.215 25.0085 156.197 24.755C156.119 23.1904 154.529 22.4474 153.787 22.1851L153.796 22.1939Z" fill="white"/>
<path d="M26.4786 54.1506C25.7625 55.252 24.2867 55.5667 23.1863 54.8499C22.086 54.1331 21.7716 52.6559 22.4877 51.5545C23.2038 50.4531 24.6797 50.1385 25.78 50.8552C26.8804 51.572 27.1947 53.0492 26.4786 54.1506ZM23.2824 52.0702C22.8545 52.7346 23.0379 53.6262 23.7016 54.0545C24.3653 54.4828 25.256 54.2992 25.6839 53.6349C26.1119 52.9706 25.9285 52.079 25.2648 51.6507C24.6011 51.2224 23.7103 51.4059 23.2824 52.0702Z" fill="white"/>
<path d="M20.2341 50.0865C21.7623 47.7352 24.9149 47.0708 27.2553 48.6005C27.4038 48.6967 27.5348 48.7928 27.6745 48.9065C27.8492 49.0463 28.1199 48.9939 28.2072 48.7841L28.5216 48.1023C28.5915 47.9537 28.5391 47.7789 28.4168 47.6827C28.2946 47.5866 28.1636 47.4992 28.0326 47.4118C25.0284 45.4538 21.0026 46.3104 19.0464 49.3173C18.8979 49.5446 18.7669 49.7806 18.6534 50.0166C18.5661 50.1914 18.6534 50.4099 18.8281 50.4886L19.5005 50.7771C19.6664 50.847 19.8673 50.7771 19.9459 50.611C20.0332 50.4362 20.1293 50.2613 20.2428 50.0865H20.2341Z" fill="white"/>
<path d="M17.1688 48.0844C19.7974 44.046 25.2205 42.8922 29.2551 45.5233C29.4298 45.6369 29.6656 45.5757 29.7529 45.3834L30.0586 44.7191C30.0149 44.553 29.98 44.4481 29.9276 44.282C25.2467 41.3013 19.0027 42.6475 15.9724 47.3152C15.7104 47.726 15.4746 48.1456 15.2825 48.5739C15.2039 48.7487 15.2825 48.9585 15.4571 49.0284L16.1208 49.3169C16.2867 49.3868 16.4876 49.3169 16.5662 49.1508C16.7321 48.7924 16.933 48.434 17.1513 48.0931L17.1688 48.0844Z" fill="white"/>
<path d="M14.0946 46.083C17.7275 40.4975 25.1155 38.8105 30.7919 42.1758C30.9666 42.2807 31.2024 42.2107 31.2897 42.0272L31.5953 41.3629C31.6652 41.2055 31.6128 41.0132 31.4556 40.9171C25.1417 37.2196 16.9415 39.1077 12.9156 45.3051C12.5401 45.8907 12.2082 46.4851 11.9288 47.1057C11.8502 47.2806 11.9288 47.4903 12.1122 47.5603L12.7759 47.8487C12.9505 47.9274 13.1514 47.8487 13.23 47.6739C13.4832 47.132 13.7714 46.5988 14.1033 46.083H14.0946Z" fill="white"/>
<path d="M147.229 81.7898L136.155 81.2129C135.247 81.1692 134.531 81.8685 134.557 82.7863L134.846 92.9784C134.872 93.8088 135.588 94.4469 136.444 94.4032L146.958 93.8874C147.674 93.8525 148.259 93.2231 148.277 92.4714L148.53 83.337C148.556 82.524 147.971 81.8335 147.229 81.7898Z" fill="#98B1DC"/>
<path d="M145.78 82.9521H137.946C137.222 82.9521 136.305 83.4766 136.305 84.2283V88.5901C136.305 89.3069 137.23 89.9013 137.946 89.9013H143.335C143.518 89.9013 143.64 90.2422 143.64 90.4345V91.0813C143.64 91.3436 143.894 91.4485 144.025 91.4922C144.086 91.5359 144.191 91.6058 144.322 91.6058C144.426 91.6058 144.531 91.5621 144.601 91.4747L145.771 90.1023C146.505 90.0849 146.81 89.3156 146.81 88.5989V84.2371C146.81 83.5203 146.487 82.9609 145.771 82.9609L145.78 82.9521ZM146.024 88.5901C146.024 88.931 146.051 89.3069 145.78 89.3069H145.483L144.033 90.688V89.744C144.033 89.5604 144.208 89.3156 144.025 89.3156H137.946C137.615 89.3156 136.899 88.931 136.899 88.5989V84.4206C136.899 83.9311 137.615 83.9574 137.946 83.9574H145.78C146.112 83.9574 146.024 83.9137 146.024 84.2371V88.5989V88.5901Z" fill="white"/>
<path d="M145.229 85.1376C145.229 85.2512 145.142 85.3386 145.028 85.3386H137.884C137.771 85.3386 137.684 85.2512 137.684 85.1376C137.684 85.0239 137.771 84.9365 137.884 84.9365H145.028C145.142 84.9365 145.229 85.0239 145.229 85.1376Z" fill="white"/>
<path d="M145.229 86.326C145.229 86.4397 145.142 86.5271 145.028 86.5271H137.884C137.771 86.5271 137.684 86.4397 137.684 86.326C137.684 86.2124 137.771 86.125 137.884 86.125H145.028C145.142 86.125 145.229 86.2124 145.229 86.326Z" fill="white"/>
<path d="M145.229 88.118C145.229 88.2317 145.142 88.3191 145.028 88.3191H137.884C137.771 88.3191 137.684 88.2317 137.684 88.118C137.684 88.0044 137.771 87.917 137.884 87.917H145.028C145.142 87.917 145.229 88.0044 145.229 88.118Z" fill="white"/>
<path d="M99.4087 76.9301C99.4087 76.9301 112.988 53.1631 114.822 50.9254C115.128 50.5495 115.608 50.3572 116.089 50.4184L119.87 50.873L124.315 60.4969L116.909 56.1788C117.643 61.2486 108.133 68.7834 104.867 71.5369C104.535 71.8166 104.509 72.3148 104.806 72.6295L106.107 73.9931C103.967 76.1609 101.505 77.5595 98.7188 78.1976L99.4087 76.9301Z" fill="url(#paint21_linear_394_4227)"/>
<path d="M105.364 73.25C105.364 73.25 106.194 73.521 106.473 74.264C106.604 74.6223 106.464 75.0157 106.159 75.243C104.788 76.222 100.273 79.395 98.1944 80.0156C98.0197 80.068 97.8625 79.9107 97.8975 79.7359C98.0023 79.2551 98.3516 78.2849 99.4607 76.8688L99.3646 77.0698C99.2424 77.3233 99.5131 77.5943 99.7663 77.4545C101.164 76.6678 104.002 74.9458 105.364 73.2587V73.25Z" fill="url(#paint22_linear_394_4227)"/>
<path d="M104.692 82.76C104.692 82.76 106.744 77.8387 106.77 77.83C108.63 66.4666 113.18 56.7378 114.525 54.1767C114.752 53.7484 115.18 53.4599 115.66 53.4162L119.459 53.0928L125.756 61.6153L117.634 58.8881C119.38 63.7044 111.582 73.0137 108.945 76.3703C108.674 76.7112 108.753 77.2094 109.111 77.4541L110.665 78.5293C109.006 81.0904 106.875 82.9523 104.281 84.1411L104.7 82.76H104.692Z" fill="url(#paint23_linear_394_4227)"/>
<path d="M109.774 77.9531C109.774 77.9531 110.638 78.0493 111.066 78.7136C111.267 79.037 111.206 79.4566 110.953 79.7363C109.809 80.9775 106.027 84.9897 104.115 86.0211C103.958 86.1085 103.766 85.9862 103.766 85.8113C103.766 85.3131 103.914 84.2991 104.718 82.682L104.656 82.9006C104.587 83.1803 104.91 83.3813 105.128 83.1978C106.333 82.1488 108.761 79.8849 109.765 77.9531H109.774Z" fill="url(#paint24_linear_394_4227)"/>
<path d="M137.23 51.293C137.23 51.293 140.662 56.4065 140.942 58.7404C141.221 61.0743 139.99 61.8784 136.401 62.1756C125.703 63.0585 120.428 59.8505 120.428 59.8505C121.232 57.6215 122.201 52.9538 116.088 50.4102C116.088 50.4102 121.136 51.2231 122.69 50.6112C124.244 50.0081 137.23 51.2843 137.23 51.2843V51.293Z" fill="url(#paint25_linear_394_4227)"/>
<path d="M117.843 24.0467C117.904 24.4925 125.694 46.2141 125.694 46.2141L137.623 48.0846C139.92 48.443 142.181 47.2368 143.159 45.1127C145.579 39.8506 143.273 33.6269 138.016 31.2056L136.252 30.3927C133.623 29.1864 131.047 27.0973 128.785 24.9121C126.89 23.0764 124.375 22.01 121.729 21.8789L117.834 24.0467H117.843Z" fill="url(#paint26_linear_394_4227)"/>
<path d="M141.089 43.1807C141.089 43.1807 141.054 43.1807 141.037 43.1545C141.011 43.1282 141.02 43.0845 141.046 43.0583C142.286 42.0706 142.172 40.2 142.067 39.4483C141.858 37.9448 141.264 36.5113 140.347 35.2962C138.705 33.1197 136.181 31.8173 133.745 30.5673L133.239 30.3051C130.741 29.0114 127.955 27.4118 126.558 24.737C126.54 24.7021 126.558 24.6671 126.584 24.6496C126.619 24.6321 126.654 24.6496 126.671 24.6758C128.051 27.3156 130.811 28.8978 133.291 30.1827L133.797 30.4449C136.251 31.7037 138.784 33.0148 140.443 35.2176C141.369 36.4501 141.971 37.9011 142.19 39.4308C142.303 40.2087 142.417 42.1318 141.116 43.1632C141.107 43.1719 141.089 43.1807 141.072 43.1807H141.089Z" fill="#98B1DC"/>
<path d="M139.832 40.8383C139.832 40.8383 139.771 40.8033 139.771 40.7684C139.867 39.195 139.648 37.8314 139.107 36.7125C138.12 34.6933 136.042 33.3996 134.347 32.4993C134.007 32.3157 133.658 32.1409 133.308 31.9661C131.728 31.1619 130.103 30.3228 128.828 29.0641C128.802 29.0378 128.802 28.9941 128.828 28.9679C128.854 28.9417 128.898 28.9417 128.924 28.9679C130.182 30.2179 131.806 31.0483 133.369 31.8437C133.719 32.0185 134.068 32.2021 134.409 32.3769C136.129 33.286 138.225 34.5972 139.229 36.6513C139.779 37.7877 140.015 39.1775 139.91 40.7771C139.91 40.8121 139.875 40.8383 139.84 40.8383H139.832Z" fill="#98B1DC"/>
<path d="M114.507 40.7773C114.507 40.7773 118.585 45.6636 122.69 41.6951L124.279 45.3751C124.279 45.3751 118.279 50.0254 113.738 42.7091L114.516 40.7686L114.507 40.7773Z" fill="url(#paint27_linear_394_4227)"/>
<path d="M127.937 50.6192C127.937 50.6192 123.938 46.8081 121.973 44.2819C120.907 42.9183 120.576 41.1177 121.065 39.4656C121.964 36.4325 123.562 33.2944 123.702 32.8049C123.929 32.0532 128.409 32.0881 128.409 32.0881C128.409 32.0881 132.627 32.7437 132.662 39.9027C132.662 41.6072 133.142 43.2767 134.033 44.7365C135.055 46.406 136.042 48.9147 137.221 51.301L127.937 50.628V50.6192Z" fill="url(#paint28_linear_394_4227)"/>
<path d="M125.335 26.6949L128.348 32.3067C128.147 33.5304 125.064 33.5654 124.593 32.8311C124.54 32.7525 124.514 32.6738 124.497 32.5864L122.698 28.8365C122.619 28.4694 123.623 27.2369 123.947 27.062L125.143 26.4239C125.606 26.1792 123.676 26.1617 125.335 26.6949Z" fill="url(#paint29_linear_394_4227)"/>
<path d="M119.233 25.3751C119.233 25.3751 118.892 27.2719 120.377 29.6757C121.862 32.0882 123.346 31.9746 124.097 31.118C124.848 30.2614 125.748 28.8278 125.337 26.424C124.927 24.0202 119.739 22.9538 119.224 25.3751H119.233Z" fill="url(#paint30_linear_394_4227)"/>
<path d="M123.546 26.6864C123.546 26.6864 121.136 23.5222 119.284 26.2844L119.319 27.2371C119.319 27.2371 116.918 27.1235 117.171 24.9033C117.433 22.683 119.398 21.1708 122.123 21.9226C124.847 22.683 126.437 23.5484 126.742 25.4365C127.048 27.3245 125.502 27.0186 125.502 27.0186C125.502 27.0186 124.908 25.7162 124.201 25.62C123.485 25.5326 123.747 26.5641 123.747 26.5641L123.546 26.6777V26.6864Z" fill="url(#paint31_linear_394_4227)"/>
<path d="M124.106 26.6075C124.106 26.6075 122.857 24.9904 123.992 24.6495C125.128 24.3174 125.084 26.2404 125.014 26.9572L124.106 26.6075Z" fill="url(#paint32_linear_394_4227)"/>
<path d="M133.397 46.2931C133.397 46.2931 124.795 45.0955 121.966 42.447C121.966 42.447 120.595 41.1533 119.608 40.996C119.075 40.9086 118.473 40.8561 118.036 40.8211C117.835 40.8037 117.739 41.0659 117.905 41.1795C118.219 41.4068 118.639 41.6428 119.005 41.6865C119.704 41.7564 118.962 42.2722 119.721 43.6095C120.481 44.9469 121.573 44.4487 121.573 44.4487C121.573 44.4487 127.267 49.3612 132.716 49.3175C132.716 49.3175 134.061 48.8804 133.406 46.3018L133.397 46.2931Z" fill="url(#paint33_linear_394_4227)"/>
<path d="M111.826 37.4117L114.795 37.0183C115.153 36.9571 115.511 37.1669 115.738 37.5515L117.694 41.8784C118.061 42.5252 117.799 43.3818 117.205 43.478L114.821 43.7839C114.594 43.8189 114.359 43.679 114.228 43.4168L111.581 38.1372C111.433 37.8312 111.555 37.4554 111.826 37.4117Z" fill="url(#paint34_linear_394_4227)"/>
<path d="M131.466 34.5536C131.466 34.5536 139.562 46.5638 132.706 49.3172L131.466 45.9694C131.466 45.9694 132.287 44.1163 129.868 39.4573C129.554 38.8454 129.397 38.1549 129.423 37.4643C129.501 35.4539 129.868 31.7127 131.458 34.5536H131.466Z" fill="url(#paint35_linear_394_4227)"/>
<path opacity="0.43" d="M131.474 46.109C131.526 46.109 131.579 46.0741 131.605 46.0216C131.64 45.943 132.426 44.0461 130.007 39.3872C129.972 39.3172 129.885 39.291 129.815 39.326C129.745 39.3609 129.719 39.4483 129.754 39.5183C132.094 44.0287 131.352 45.8818 131.343 45.8993C131.308 45.9692 131.343 46.0566 131.422 46.0916C131.439 46.0916 131.457 46.1003 131.483 46.1003L131.474 46.109Z" fill="white"/>
<path d="M113.852 43.2424C113.852 43.2424 111.852 40.3316 112.088 39.9732C112.323 39.6149 114.07 39.0991 114.48 38.9768C114.891 38.8544 115.668 41.4942 113.852 43.2424Z" fill="url(#paint36_linear_394_4227)"/>
<path d="M144.792 144.909C145.596 145.067 150.163 147.794 150.163 144.682V141.203C150.163 141.203 144.557 144.866 144.792 144.909Z" fill="url(#paint37_linear_394_4227)"/>
<path d="M147.649 139.07C147.649 139.07 145.641 135.679 145.388 132.348C145.134 129.018 145.545 127.558 145.169 126.597C144.794 125.626 142.96 121.955 142.881 123.057C142.794 124.158 143.466 125.312 143.466 125.312C143.466 125.312 142.305 126.238 142.506 127.305C142.707 128.371 143.108 128.476 143.108 128.476C143.108 128.476 143.169 130.784 143.274 130.784C143.379 130.784 141.432 142.348 143.606 142.593C145.781 142.846 147.536 144.394 147.641 139.07H147.649Z" fill="url(#paint38_linear_394_4227)"/>
<path d="M141.911 126.484C141.893 126.326 140.487 123.267 140.732 122.917C140.985 122.568 141.238 122.262 141.631 123.293C142.024 124.325 142.496 127.139 142.347 127.148C142.199 127.165 141.98 127.026 141.911 126.484Z" fill="url(#paint39_linear_394_4227)"/>
<path d="M128.742 159.848C128.742 159.848 127.677 158.965 126.271 159.096C125.284 159.271 124.131 160.136 123.389 160.783C123.258 160.897 123.214 161.072 123.275 161.229C123.336 161.386 123.494 161.491 123.668 161.483C125.511 161.448 129.126 161.334 129.126 161.063C129.126 160.696 128.742 159.839 128.742 159.839V159.848Z" fill="url(#paint40_linear_394_4227)"/>
<path d="M129.475 158.301L128.628 159.901C128.628 159.901 126.716 160.058 126.777 159.306C126.838 158.555 127.31 157.646 127.31 157.646L129.475 158.301Z" fill="url(#paint41_linear_394_4227)"/>
<path d="M151.116 159.385C149.789 152.13 148.819 147.471 148.819 147.471C148.819 147.471 134.104 137.969 132.602 140.294C131.091 142.619 126.777 158.484 126.777 158.484L129.659 159.271C129.659 159.271 135.161 151.806 135.667 145.443C137.082 150.084 138.401 161.194 149.308 161.509C149.85 161.526 150.365 161.299 150.723 160.879C151.072 160.469 151.23 159.918 151.125 159.385H151.116Z" fill="#8193CA"/>
<path d="M119.31 159.21L117.546 160.87L116.166 159.489L117.991 157.383L119.31 159.21Z" fill="url(#paint42_linear_394_4227)"/>
<path d="M154.985 125.469L158.426 129.9C158.583 130.102 158.609 130.381 158.487 130.591C158.041 131.36 156.749 133.056 154.015 133.073C153.701 133.073 153.404 132.872 153.247 132.575L151.107 128.362L154.985 125.477V125.469Z" fill="url(#paint43_linear_394_4227)"/>
<path d="M146.792 119.7C146.792 119.7 145.918 124.752 147.289 126.841C148.661 128.93 152.634 128.983 155.036 125.731L154.616 118.712L146.792 119.691V119.7Z" fill="url(#paint44_linear_394_4227)"/>
<path d="M153.019 123.057C152.862 123.057 152.748 122.917 152.774 122.768C152.853 122.296 152.966 121.361 152.827 120.653C152.827 120.653 153.211 120.076 151.124 120.461C149.037 120.845 145.91 121.387 144.609 120.032C143.343 118.721 143.116 114.106 146.923 116.177C147.072 116.256 147.246 116.177 147.29 116.02C147.456 115.33 148.032 113.8 149.761 113.809C151.386 113.817 151.971 114.744 152.18 115.251C152.242 115.4 152.425 115.461 152.556 115.365C153.185 114.927 154.774 114.097 156.285 115.443C157.525 116.553 157.464 117.524 157.263 118.074C157.193 118.249 157.342 118.433 157.525 118.415C158.031 118.354 158.783 118.476 159.193 119.56C159.752 121.055 158.066 121.649 157.577 121.78C157.499 121.807 157.429 121.859 157.403 121.947C157.202 122.567 156.329 125.321 154.486 126.396C154.329 126.492 154.023 126.291 154.014 126.107L153.779 123.293C153.77 123.162 153.656 123.065 153.525 123.065H153.028L153.019 123.057Z" fill="url(#paint45_linear_394_4227)"/>
<path d="M152.731 123.371C152.731 123.371 154.198 120.994 154.897 122.139C155.587 123.293 153.779 124.744 152.557 124.735L152.731 123.363V123.371Z" fill="url(#paint46_linear_394_4227)"/>
<path d="M149.395 137.628C149.395 137.628 142.688 140.451 141.43 139.009C140.173 137.567 140.862 129.464 140.862 129.464L138.042 128.712C138.042 128.712 134.566 143.012 140.47 145.154C144.757 146.701 152.923 141.657 152.923 141.657L149.395 137.637V137.628Z" fill="url(#paint47_linear_394_4227)"/>
<path d="M155.7 127.847C154.617 128.083 153.438 129.115 152.503 130.111C151.447 131.247 150.739 132.663 150.469 134.193C150.469 134.246 150.451 134.289 150.442 134.342C148.111 136.903 146.05 138.564 144.67 139.176C147.098 142.628 148.408 143.939 148.408 143.939C148.408 143.939 148.687 143.878 149.159 143.756C148.705 147.873 148.451 151.063 148.451 151.063C148.451 151.063 153.193 155.775 158.931 157.112C164.162 153.257 164.957 142.235 164.957 142.235C165.367 129.158 159.333 127.052 155.682 127.856L155.7 127.847Z" fill="url(#paint48_linear_394_4227)"/>
<path d="M158.95 157.103C158.95 157.103 156.592 164.105 144.977 160.18C139.344 158.274 131.458 147.234 131.458 147.234C131.458 147.234 129.511 152.575 119.346 159.734L117.084 157.706C117.084 157.706 127.38 139.944 132.655 141.789C137.929 143.633 160.565 152.558 158.958 157.094L158.95 157.103Z" fill="#98B1DC"/>
<path d="M118.411 160.057C117.983 160.057 116.175 159.271 116.175 159.271L114.49 159.725C113.023 159.498 111.765 159.996 110.909 160.512C110.726 160.625 110.638 160.844 110.691 161.054C110.743 161.263 110.935 161.412 111.154 161.412C112.813 161.438 115.546 161.465 116.926 161.386C118.996 161.263 119.31 161.325 118.411 160.066V160.057Z" fill="url(#paint49_linear_394_4227)"/>
<path d="M151.491 143.135C151.491 143.135 151.43 143.109 151.422 143.083C151.413 143.039 151.439 143.004 151.474 142.995C151.491 142.995 153.273 142.541 155.186 141.448C156.95 140.443 159.185 138.66 159.849 135.906C159.858 135.862 159.901 135.845 159.936 135.854C159.98 135.862 159.997 135.906 159.989 135.941C159.316 138.747 157.046 140.556 155.255 141.579C153.325 142.681 151.526 143.135 151.509 143.135C151.509 143.135 151.5 143.135 151.491 143.135Z" fill="url(#paint50_linear_394_4227)"/>
<path d="M136.549 122.156C136.496 122.034 136.514 121.894 136.575 121.772C136.636 121.658 136.749 121.571 136.88 121.545L140.155 120.924C140.286 120.898 140.409 120.976 140.443 121.099L142.959 129.219C142.959 129.219 142.959 129.289 142.95 129.324C142.932 129.359 142.906 129.377 142.871 129.394L140.138 130.216C139.911 130.286 139.675 130.163 139.588 129.945L136.549 122.148V122.156Z" fill="url(#paint51_linear_394_4227)"/>
<path d="M137.587 122.235C137.561 122.165 137.57 122.086 137.605 122.017C137.64 121.947 137.71 121.903 137.78 121.894L139.954 121.527C140.076 121.51 140.199 121.58 140.242 121.702L142.382 128.625C142.382 128.625 142.382 128.703 142.373 128.73C142.356 128.765 142.321 128.782 142.286 128.8L140.338 129.272C140.269 129.289 140.199 129.254 140.181 129.184L137.596 122.235H137.587Z" fill="#98B1DC"/>
<path d="M138.635 121.562C138.635 121.562 138.687 121.597 138.731 121.588L139.447 121.439C139.5 121.431 139.535 121.404 139.526 121.378V121.352C139.526 121.352 139.473 121.317 139.421 121.326L138.705 121.474C138.653 121.483 138.618 121.509 138.626 121.535V121.562H138.635Z" fill="url(#paint52_linear_394_4227)"/>
<path d="M138.008 128.861C137.964 128.502 136.759 126.203 137.23 125.329C137.702 124.446 137.885 122.943 138.348 123.362C138.802 123.791 138.235 125.259 138.444 125.705C138.645 126.142 139.431 127.261 139.536 128.135C139.641 129.009 140.217 130.25 138.994 130.416C137.772 130.591 138.016 128.861 138.016 128.861H138.008Z" fill="url(#paint53_linear_394_4227)"/>
<path d="M150.942 134.053C150.942 134.053 150.915 134.053 150.898 134.044C150.863 134.018 150.854 133.974 150.88 133.939C151.02 133.738 154.295 129.001 156.181 129.796C156.216 129.813 156.234 129.857 156.225 129.892C156.208 129.927 156.164 129.945 156.129 129.936C154.356 129.184 151.046 133.974 151.011 134.027C150.994 134.044 150.977 134.062 150.95 134.062L150.942 134.053Z" fill="url(#paint54_linear_394_4227)"/>
<path d="M143.587 129.622C143.587 129.622 143.544 129.613 143.526 129.587C142.95 128.791 143.317 127.882 143.465 127.498C143.483 127.445 143.509 127.393 143.509 127.366C143.439 127.209 143.168 126.405 143.247 125.907C143.264 125.793 143.325 125.758 143.369 125.749C143.631 125.697 144.19 126.554 144.417 126.921C144.434 126.956 144.426 126.999 144.391 127.026C144.356 127.043 144.312 127.034 144.286 126.999C143.91 126.396 143.509 125.898 143.395 125.898C143.395 125.898 143.395 125.907 143.387 125.933C143.308 126.414 143.596 127.244 143.64 127.323C143.666 127.366 143.64 127.419 143.587 127.559C143.439 127.926 143.098 128.774 143.631 129.508C143.657 129.543 143.649 129.587 143.614 129.613C143.596 129.622 143.587 129.63 143.57 129.63L143.587 129.622Z" fill="url(#paint55_linear_394_4227)"/>
<path d="M145.064 119.735C145.02 119.735 144.976 119.709 144.95 119.674C144.365 118.677 144.182 117.829 144.409 117.156C144.627 116.492 145.151 116.256 145.177 116.247C145.247 116.221 145.326 116.247 145.352 116.317C145.378 116.387 145.352 116.457 145.282 116.492C145.265 116.501 144.837 116.702 144.653 117.252C144.461 117.856 144.636 118.625 145.177 119.551C145.212 119.613 145.195 119.691 145.134 119.735C145.116 119.744 145.09 119.752 145.064 119.752V119.735Z" fill="#98B1DC"/>
</g>
<defs>
<linearGradient id="paint0_linear_394_4227" x1="179.611" y1="190.363" x2="63.4621" y2="66.8371" gradientUnits="userSpaceOnUse">
<stop stop-color="#DBE2F3"/>
<stop offset="1" stop-color="#EAEFF8"/>
</linearGradient>
<linearGradient id="paint1_linear_394_4227" x1="14.9434" y1="106.309" x2="164.189" y2="106.309" gradientUnits="userSpaceOnUse">
<stop stop-color="#201B59"/>
<stop offset="1" stop-color="#2D2D84"/>
</linearGradient>
<linearGradient id="paint2_linear_394_4227" x1="92.5436" y1="68.4424" x2="82.2109" y2="168.106" gradientUnits="userSpaceOnUse">
<stop stop-color="#5560AB"/>
<stop offset="1" stop-color="#4C57A6"/>
</linearGradient>
<linearGradient id="paint3_linear_394_4227" x1="22.6279" y1="161.544" x2="26.4681" y2="172.66" gradientUnits="userSpaceOnUse">
<stop stop-color="#201B59"/>
<stop offset="1" stop-color="#2D2D84"/>
</linearGradient>
<linearGradient id="paint4_linear_394_4227" x1="24.3682" y1="154.728" x2="21.6821" y2="154.134" gradientUnits="userSpaceOnUse">
<stop stop-color="#F9BABA"/>
<stop offset="1" stop-color="#F5928F"/>
</linearGradient>
<linearGradient id="paint5_linear_394_4227" x1="19.0643" y1="144.918" x2="35.9625" y2="144.918" gradientUnits="userSpaceOnUse">
<stop stop-color="#E1483D"/>
<stop offset="1" stop-color="#E9625A"/>
</linearGradient>
<linearGradient id="paint6_linear_394_4227" x1="24.4603" y1="128.756" x2="22.6055" y2="144.77" gradientUnits="userSpaceOnUse">
<stop stop-color="#201B59"/>
<stop offset="1" stop-color="#2D2D84"/>
</linearGradient>
<linearGradient id="paint7_linear_394_4227" x1="24.1786" y1="160.882" x2="16.9474" y2="159.283" gradientUnits="userSpaceOnUse">
<stop stop-color="#5560AB"/>
<stop offset="1" stop-color="#4C57A6"/>
</linearGradient>
<linearGradient id="paint8_linear_394_4227" x1="25.7635" y1="157.642" x2="23.2394" y2="157.084" gradientUnits="userSpaceOnUse">
<stop stop-color="#F9BABA"/>
<stop offset="1" stop-color="#F5928F"/>
</linearGradient>
<linearGradient id="paint9_linear_394_4227" x1="23.4131" y1="146.378" x2="44.3634" y2="146.378" gradientUnits="userSpaceOnUse">
<stop stop-color="#E1483D"/>
<stop offset="1" stop-color="#E9625A"/>
</linearGradient>
<linearGradient id="paint10_linear_394_4227" x1="43.8142" y1="90.2253" x2="33.091" y2="114.343" gradientUnits="userSpaceOnUse">
<stop stop-color="#F5928F"/>
<stop offset="1" stop-color="#F37064"/>
</linearGradient>
<linearGradient id="paint11_linear_394_4227" x1="22.5588" y1="129.055" x2="13.7586" y2="127.109" gradientUnits="userSpaceOnUse">
<stop stop-color="#F9BABA"/>
<stop offset="1" stop-color="#F5928F"/>
</linearGradient>
<linearGradient id="paint12_linear_394_4227" x1="51.045" y1="93.4423" x2="40.3217" y2="117.56" gradientUnits="userSpaceOnUse">
<stop stop-color="#F5928F"/>
<stop offset="1" stop-color="#F37064"/>
</linearGradient>
<linearGradient id="paint13_linear_394_4227" x1="35.8338" y1="115.379" x2="29.9926" y2="114.087" gradientUnits="userSpaceOnUse">
<stop stop-color="#F9BABA"/>
<stop offset="1" stop-color="#F5928F"/>
</linearGradient>
<linearGradient id="paint14_linear_394_4227" x1="58.7475" y1="96.869" x2="48.0155" y2="120.978" gradientUnits="userSpaceOnUse">
<stop stop-color="#F5928F"/>
<stop offset="1" stop-color="#F37064"/>
</linearGradient>
<linearGradient id="paint15_linear_394_4227" x1="52.3287" y1="107.9" x2="33.2609" y2="152.265" gradientUnits="userSpaceOnUse">
<stop stop-color="#F9BABA"/>
<stop offset="1" stop-color="#F5928F"/>
</linearGradient>
<linearGradient id="paint16_linear_394_4227" x1="27.7136" y1="109.051" x2="35.5637" y2="120.733" gradientUnits="userSpaceOnUse">
<stop stop-color="#F9BABA"/>
<stop offset="1" stop-color="#F5928F"/>
</linearGradient>
<linearGradient id="paint17_linear_394_4227" x1="33.1746" y1="108.691" x2="24.2634" y2="108.193" gradientUnits="userSpaceOnUse">
<stop stop-color="#201B59"/>
<stop offset="1" stop-color="#2D2D84"/>
</linearGradient>
<linearGradient id="paint18_linear_394_4227" x1="37.9395" y1="117.354" x2="32.2866" y2="110.88" gradientUnits="userSpaceOnUse">
<stop stop-color="#F9BABA"/>
<stop offset="1" stop-color="#F5928F"/>
</linearGradient>
<linearGradient id="paint19_linear_394_4227" x1="24.0509" y1="80.6886" x2="23.7797" y2="98.8177" gradientUnits="userSpaceOnUse">
<stop stop-color="#201B59"/>
<stop offset="1" stop-color="#2D2D84"/>
</linearGradient>
<linearGradient id="paint20_linear_394_4227" x1="13.0291" y1="80.5228" x2="12.7666" y2="98.6605" gradientUnits="userSpaceOnUse">
<stop stop-color="#201B59"/>
<stop offset="1" stop-color="#2D2D84"/>
</linearGradient>
<linearGradient id="paint21_linear_394_4227" x1="126.062" y1="77.9965" x2="94.8972" y2="53.0079" gradientUnits="userSpaceOnUse">
<stop stop-color="#F9BABA"/>
<stop offset="1" stop-color="#F5928F"/>
</linearGradient>
<linearGradient id="paint22_linear_394_4227" x1="98.9356" y1="69.1715" x2="108.574" y2="92.4819" gradientUnits="userSpaceOnUse">
<stop stop-color="#201B59"/>
<stop offset="1" stop-color="#2D2D84"/>
</linearGradient>
<linearGradient id="paint23_linear_394_4227" x1="98.2381" y1="60.0681" x2="25.0876" y2="14.3175" gradientUnits="userSpaceOnUse">
<stop stop-color="#F9BABA"/>
<stop offset="1" stop-color="#F5928F"/>
</linearGradient>
<linearGradient id="paint24_linear_394_4227" x1="102.518" y1="75.3507" x2="116.671" y2="96.2155" gradientUnits="userSpaceOnUse">
<stop stop-color="#201B59"/>
<stop offset="1" stop-color="#2D2D84"/>
</linearGradient>
<linearGradient id="paint25_linear_394_4227" x1="139.606" y1="70.9517" x2="121.209" y2="44.7446" gradientUnits="userSpaceOnUse">
<stop stop-color="#5560AB"/>
<stop offset="1" stop-color="#4C57A6"/>
</linearGradient>
<linearGradient id="paint26_linear_394_4227" x1="117.642" y1="19.7111" x2="141.974" y2="50.58" gradientUnits="userSpaceOnUse">
<stop stop-color="#201B59"/>
<stop offset="1" stop-color="#2D2D84"/>
</linearGradient>
<linearGradient id="paint27_linear_394_4227" x1="116.742" y1="35.655" x2="120.373" y2="49.0971" gradientUnits="userSpaceOnUse">
<stop stop-color="#F9BABA"/>
<stop offset="1" stop-color="#F5928F"/>
</linearGradient>
<linearGradient id="paint28_linear_394_4227" x1="-157.472" y1="-580.163" x2="-151.91" y2="-568.052" gradientUnits="userSpaceOnUse">
<stop stop-color="#F5928F"/>
<stop offset="1" stop-color="#F37064"/>
</linearGradient>
<linearGradient id="paint29_linear_394_4227" x1="124.767" y1="39.6305" x2="125.259" y2="31.9534" gradientUnits="userSpaceOnUse">
<stop stop-color="#F9BABA"/>
<stop offset="1" stop-color="#F5928F"/>
</linearGradient>
<linearGradient id="paint30_linear_394_4227" x1="125.568" y1="33.3646" x2="116.297" y2="15.6311" gradientUnits="userSpaceOnUse">
<stop stop-color="#F9BABA"/>
<stop offset="1" stop-color="#F5928F"/>
</linearGradient>
<linearGradient id="paint31_linear_394_4227" x1="117.564" y1="19.7723" x2="141.896" y2="50.6412" gradientUnits="userSpaceOnUse">
<stop stop-color="#201B59"/>
<stop offset="1" stop-color="#2D2D84"/>
</linearGradient>
<linearGradient id="paint32_linear_394_4227" x1="127.695" y1="32.2582" x2="118.412" y2="14.5272" gradientUnits="userSpaceOnUse">
<stop stop-color="#F9BABA"/>
<stop offset="1" stop-color="#F5928F"/>
</linearGradient>
<linearGradient id="paint33_linear_394_4227" x1="123.756" y1="45.0693" x2="108.002" y2="45.0693" gradientUnits="userSpaceOnUse">
<stop stop-color="#F9BABA"/>
<stop offset="1" stop-color="#F5928F"/>
</linearGradient>
<linearGradient id="paint34_linear_394_4227" x1="115.829" y1="38.2122" x2="113.008" y2="41.4476" gradientUnits="userSpaceOnUse">
<stop stop-color="#201B59"/>
<stop offset="1" stop-color="#2D2D84"/>
</linearGradient>
<linearGradient id="paint35_linear_394_4227" x1="-153.778" y1="-581.858" x2="-148.215" y2="-569.756" gradientUnits="userSpaceOnUse">
<stop stop-color="#F5928F"/>
<stop offset="1" stop-color="#F37064"/>
</linearGradient>
<linearGradient id="paint36_linear_394_4227" x1="112.725" y1="37.08" x2="114.641" y2="44.1593" gradientUnits="userSpaceOnUse">
<stop stop-color="#F9BABA"/>
<stop offset="1" stop-color="#F5928F"/>
</linearGradient>
<linearGradient id="paint37_linear_394_4227" x1="148.949" y1="130.792" x2="146.893" y2="150.32" gradientUnits="userSpaceOnUse">
<stop stop-color="#F9BABA"/>
<stop offset="1" stop-color="#F5928F"/>
</linearGradient>
<linearGradient id="paint38_linear_394_4227" x1="148.357" y1="113.066" x2="143.116" y2="144.366" gradientUnits="userSpaceOnUse">
<stop stop-color="#F9BABA"/>
<stop offset="1" stop-color="#F5928F"/>
</linearGradient>
<linearGradient id="paint39_linear_394_4227" x1="141.34" y1="124.159" x2="143.497" y2="128.104" gradientUnits="userSpaceOnUse">
<stop stop-color="#F9BABA"/>
<stop offset="1" stop-color="#F5928F"/>
</linearGradient>
<linearGradient id="paint40_linear_394_4227" x1="128.314" y1="158.345" x2="124.004" y2="163.76" gradientUnits="userSpaceOnUse">
<stop stop-color="#201B59"/>
<stop offset="1" stop-color="#2D2D84"/>
</linearGradient>
<linearGradient id="paint41_linear_394_4227" x1="127.886" y1="158.319" x2="128.909" y2="160.634" gradientUnits="userSpaceOnUse">
<stop stop-color="#F9BABA"/>
<stop offset="1" stop-color="#F5928F"/>
</linearGradient>
<linearGradient id="paint42_linear_394_4227" x1="117.458" y1="158.703" x2="118.639" y2="161.385" gradientUnits="userSpaceOnUse">
<stop stop-color="#F9BABA"/>
<stop offset="1" stop-color="#F5928F"/>
</linearGradient>
<linearGradient id="paint43_linear_394_4227" x1="154.843" y1="128.105" x2="154.713" y2="135.521" gradientUnits="userSpaceOnUse">
<stop stop-color="#F9BABA"/>
<stop offset="1" stop-color="#F5928F"/>
</linearGradient>
<linearGradient id="paint44_linear_394_4227" x1="152.196" y1="121.54" x2="145.05" y2="129.556" gradientUnits="userSpaceOnUse">
<stop stop-color="#F9BABA"/>
<stop offset="1" stop-color="#F5928F"/>
</linearGradient>
<linearGradient id="paint45_linear_394_4227" x1="156.36" y1="109.806" x2="148.748" y2="124.188" gradientUnits="userSpaceOnUse">
<stop stop-color="#201B59"/>
<stop offset="1" stop-color="#2D2D84"/>
</linearGradient>
<linearGradient id="paint46_linear_394_4227" x1="154.18" y1="123.13" x2="151.897" y2="125.696" gradientUnits="userSpaceOnUse">
<stop stop-color="#F9BABA"/>
<stop offset="1" stop-color="#F5928F"/>
</linearGradient>
<linearGradient id="paint47_linear_394_4227" x1="144.268" y1="135.504" x2="148.197" y2="161.385" gradientUnits="userSpaceOnUse">
<stop stop-color="#F9BABA"/>
<stop offset="1" stop-color="#F5928F"/>
</linearGradient>
<linearGradient id="paint48_linear_394_4227" x1="182.684" y1="122.576" x2="172.958" y2="130.111" gradientUnits="userSpaceOnUse">
<stop stop-color="#F5928F"/>
<stop offset="1" stop-color="#F37064"/>
</linearGradient>
<linearGradient id="paint49_linear_394_4227" x1="114.123" y1="158.641" x2="115.593" y2="163.789" gradientUnits="userSpaceOnUse">
<stop stop-color="#201B59"/>
<stop offset="1" stop-color="#2D2D84"/>
</linearGradient>
<linearGradient id="paint50_linear_394_4227" x1="150.732" y1="91.1956" x2="156.532" y2="147.435" gradientUnits="userSpaceOnUse">
<stop stop-color="#E1483D"/>
<stop offset="1" stop-color="#E9625A"/>
</linearGradient>
<linearGradient id="paint51_linear_394_4227" x1="135.002" y1="122.753" x2="153.044" y2="133.601" gradientUnits="userSpaceOnUse">
<stop stop-color="#201B59"/>
<stop offset="1" stop-color="#2D2D84"/>
</linearGradient>
<linearGradient id="paint52_linear_394_4227" x1="139.83" y1="125.816" x2="140.299" y2="126.556" gradientUnits="userSpaceOnUse">
<stop stop-color="#7E5DA7"/>
<stop offset="1" stop-color="#2A3071"/>
</linearGradient>
<linearGradient id="paint53_linear_394_4227" x1="139.719" y1="136.194" x2="143.647" y2="162.067" gradientUnits="userSpaceOnUse">
<stop stop-color="#F9BABA"/>
<stop offset="1" stop-color="#F5928F"/>
</linearGradient>
<linearGradient id="paint54_linear_394_4227" x1="149.378" y1="91.3353" x2="155.17" y2="147.574" gradientUnits="userSpaceOnUse">
<stop stop-color="#E1483D"/>
<stop offset="1" stop-color="#E9625A"/>
</linearGradient>
<linearGradient id="paint55_linear_394_4227" x1="143.212" y1="127.69" x2="144.434" y2="127.69" gradientUnits="userSpaceOnUse">
<stop stop-color="#F9BABA"/>
<stop offset="1" stop-color="#F5928F"/>
</linearGradient>
<clipPath id="clip0_394_4227">
<rect width="165" height="164" fill="white"/>
</clipPath>
</defs>
</svg>
