<svg width="140" height="140" viewBox="0 0 140 140" fill="none" xmlns="http://www.w3.org/2000/svg">
<g clip-path="url(#clip0_395_4604)">
<path d="M134.161 94.7421C120.061 127.722 82.8396 141.887 53.6798 139.472C45.7147 138.814 29.6953 137.483 17.1855 125.65C-6.83329 102.918 -3.13861 55.3966 19.8588 27.4241C22.8201 23.816 43.3224 -0.322121 75.2652 0.00027015C98.6534 0.233489 115.07 13.4584 117.065 15.1046C119.588 17.183 125.147 22.1286 130.158 29.9758C141.934 48.4069 142.969 74.1365 134.161 94.7421Z" fill="url(#paint0_linear_395_4604)"/>
<path d="M134.558 33.165H55.373V99.5639H134.558V33.165Z" fill="url(#paint1_linear_395_4604)"/>
<path d="M137.307 24.5498L52.576 25.0849C51.4245 25.0917 50.4785 25.9354 50.4785 26.9643V39.613C50.4785 40.6077 51.3696 41.4171 52.4801 41.4239L137.307 41.959C138.568 41.9658 139.624 41.1153 139.624 40.052V26.4568C139.624 25.3935 138.561 24.543 137.307 24.5498Z" fill="url(#paint2_linear_395_4604)"/>
<path d="M137.266 24.5498L52.4801 25.0849C51.3765 25.0917 50.4785 25.9011 50.4785 26.8958L139.548 26.4568C139.548 25.3935 138.527 24.543 137.266 24.5498Z" fill="url(#paint3_linear_395_4604)"/>
<path d="M52.4801 41.4242L137.266 41.9592C138.527 41.966 139.548 41.1155 139.548 40.0523L50.4785 39.6133C50.4785 40.6079 51.3765 41.4173 52.4801 41.4242Z" fill="url(#paint4_linear_395_4604)"/>
<path d="M137.375 45.649L52.5827 45.4707C51.3969 45.4707 50.4167 46.3281 50.4029 47.3913L50.2384 60.4516C50.2247 61.4805 51.1432 62.3173 52.288 62.3311L137.375 63.0787C138.602 63.0925 139.63 62.235 139.63 61.1718V47.5765C139.63 46.5202 138.602 45.6559 137.382 45.6559L137.375 45.649Z" fill="url(#paint5_linear_395_4604)"/>
<path d="M137.333 45.649L52.4793 45.4707C51.3346 45.4707 50.4024 46.2938 50.3887 47.3159L139.548 47.5697C139.548 46.5133 138.554 45.649 137.333 45.649Z" fill="url(#paint6_linear_395_4604)"/>
<path d="M52.2812 62.3238L137.327 63.0715C138.554 63.0852 139.541 62.2278 139.541 61.1645L50.2248 60.4512C50.2111 61.4801 51.1296 62.3169 52.2743 62.3306L52.2812 62.3238Z" fill="url(#paint7_linear_395_4604)"/>
<path d="M137.41 66.7901H52.6926C51.4656 66.7901 50.4785 67.6955 50.4785 68.793V82.3128C50.4785 83.3761 51.4313 84.1855 52.6103 84.1855H137.41C138.589 84.1855 139.624 83.3692 139.624 82.3128V68.7175C139.624 67.6543 138.589 66.7832 137.41 66.7832V66.7901Z" fill="url(#paint8_linear_395_4604)"/>
<path d="M137.409 66.79H52.6094C51.4304 66.79 50.4707 67.6337 50.4707 68.6489H139.547C139.547 67.6337 138.588 66.79 137.409 66.79Z" fill="url(#paint9_linear_395_4604)"/>
<path d="M52.6094 84.1919H137.409C138.588 84.1919 139.547 83.3482 139.547 82.333H50.4707C50.4707 83.3482 51.4304 84.1919 52.6094 84.1919Z" fill="url(#paint10_linear_395_4604)"/>
<path d="M137.498 88.2736L52.7327 87.9443C51.4852 87.9443 50.4707 88.8292 50.4707 89.9336V103.453C50.4707 104.517 51.4441 105.374 52.6436 105.374L137.443 105.408C138.601 105.408 139.54 104.565 139.547 103.522L139.582 90.1736C139.582 89.131 138.649 88.2804 137.484 88.2804L137.498 88.2736Z" fill="url(#paint11_linear_395_4604)"/>
<path d="M137.499 88.2736L52.6514 87.9443C51.4519 87.9443 50.4785 88.7949 50.4785 89.8581L139.596 90.1736C139.596 89.131 138.664 88.2804 137.499 88.2804V88.2736Z" fill="url(#paint12_linear_395_4604)"/>
<path d="M52.6505 105.367L137.45 105.401C138.608 105.401 139.554 104.558 139.554 103.515L50.4707 103.446C50.4707 104.509 51.4441 105.367 52.6436 105.367H52.6505Z" fill="url(#paint13_linear_395_4604)"/>
<g opacity="0.3">
<path d="M94.0799 26.3057C93.792 26.2576 93.5863 25.997 93.6069 25.702C93.648 25.0572 93.7234 24.4056 93.8194 23.7608C93.8674 23.4453 94.1621 23.2326 94.4706 23.2807C94.4706 23.2807 94.4774 23.2807 94.4843 23.2807C94.7927 23.3355 94.9984 23.6236 94.9504 23.9323C94.8544 24.5428 94.7859 25.1601 94.7448 25.7775C94.7242 26.093 94.45 26.3331 94.1347 26.3125C94.1141 26.3125 94.0936 26.3125 94.073 26.3057H94.0799ZM94.9641 21.3943C94.9641 21.3943 94.923 21.3875 94.8956 21.3806C94.594 21.2914 94.4226 20.9691 94.5117 20.6672C94.6968 20.043 94.9093 19.4257 95.1492 18.8221C95.2657 18.5271 95.5947 18.3831 95.8895 18.4997C96.1842 18.6163 96.3282 18.9455 96.2117 19.2405C95.9855 19.8098 95.7867 20.3997 95.6085 20.9965C95.5262 21.2777 95.2452 21.4492 94.9641 21.3943ZM96.904 16.8054C96.8423 16.7917 96.7806 16.7711 96.7189 16.7368C96.4447 16.579 96.3488 16.2292 96.4996 15.9548C96.8149 15.3924 97.1645 14.8299 97.5278 14.2949C97.706 14.0342 98.0624 13.9656 98.3229 14.144C98.5834 14.3223 98.6519 14.679 98.4737 14.9397C98.1241 15.4473 97.7951 15.9754 97.4935 16.5105C97.3701 16.73 97.1302 16.8328 96.8971 16.7917L96.904 16.8054ZM99.8241 12.7652C99.7213 12.7447 99.6184 12.7035 99.5362 12.6212C99.3031 12.4085 99.2826 12.045 99.5019 11.8118C99.9406 11.3316 100.4 10.8652 100.88 10.4262C101.113 10.2135 101.476 10.2273 101.689 10.4605C101.901 10.6937 101.887 11.0572 101.654 11.2699C101.202 11.6883 100.763 12.1273 100.352 12.5869C100.215 12.7378 100.016 12.7995 99.8309 12.7652H99.8241ZM103.574 9.47959C103.43 9.45215 103.293 9.3767 103.203 9.23951C103.025 8.97885 103.087 8.62216 103.347 8.44382C103.875 8.07341 104.43 7.72359 104.993 7.39433C105.267 7.23657 105.616 7.3326 105.774 7.60698C105.932 7.88135 105.836 8.23118 105.561 8.38895C105.027 8.69762 104.499 9.03373 103.999 9.38356C103.868 9.47273 103.718 9.50017 103.574 9.47959ZM107.954 7.10624C107.769 7.07194 107.597 6.94848 107.522 6.75641C107.405 6.46146 107.542 6.13221 107.837 6.00874C108.44 5.76866 109.057 5.5423 109.674 5.35024C109.976 5.25421 110.298 5.42569 110.387 5.72751C110.483 6.02932 110.312 6.35171 110.01 6.44088C109.421 6.62608 108.838 6.83187 108.262 7.06508C108.159 7.10624 108.05 7.1131 107.954 7.09938V7.10624ZM128.84 9.33554C128.765 9.32182 128.682 9.29438 128.614 9.24637C128.106 8.9034 127.579 8.57415 127.037 8.27234C126.763 8.11457 126.667 7.7716 126.818 7.49037C126.975 7.21599 127.318 7.1131 127.599 7.27087C128.168 7.5864 128.723 7.93623 129.258 8.29977C129.519 8.47812 129.587 8.83481 129.409 9.09546C129.279 9.28752 129.052 9.3767 128.84 9.33554ZM112.745 5.7618C112.512 5.72065 112.32 5.53544 112.279 5.2885C112.231 4.97297 112.444 4.68488 112.752 4.63C113.389 4.52711 114.041 4.45166 114.692 4.40364C115.007 4.38307 115.281 4.61629 115.302 4.93182C115.323 5.24735 115.089 5.52172 114.774 5.5423C114.164 5.59032 113.54 5.65891 112.937 5.7618C112.875 5.77552 112.807 5.76866 112.745 5.7618ZM124.432 7.01021C124.398 7.01021 124.357 6.99649 124.323 6.98277C123.747 6.75641 123.157 6.55749 122.568 6.38601C122.266 6.29683 122.095 5.9813 122.184 5.67263C122.273 5.37082 122.588 5.19247 122.897 5.2885C123.521 5.47371 124.138 5.68635 124.741 5.91957C125.036 6.03618 125.18 6.36543 125.063 6.66038C124.96 6.92104 124.693 7.06508 124.432 7.01707V7.01021ZM117.722 5.52172C117.434 5.47371 117.228 5.21305 117.249 4.9181C117.269 4.60257 117.543 4.36249 117.859 4.38307C118.503 4.42422 119.154 4.49282 119.799 4.59571C119.799 4.59571 119.805 4.59571 119.812 4.59571C120.121 4.65058 120.326 4.93868 120.278 5.24735C120.23 5.56288 119.943 5.77552 119.627 5.72751C119.017 5.63833 118.4 5.56974 117.783 5.52858C117.763 5.52858 117.742 5.52858 117.722 5.52172Z" fill="#98B1DC"/>
<path d="M131.945 11.8805C131.835 11.8599 131.726 11.8119 131.643 11.7227C131.431 11.5169 131.218 11.3112 130.999 11.1122C130.766 10.8996 130.745 10.5361 130.958 10.3028C131.17 10.0696 131.534 10.049 131.767 10.2617C132 10.4743 132.226 10.687 132.445 10.9065C132.672 11.126 132.672 11.4895 132.445 11.7159C132.308 11.8531 132.116 11.9079 131.938 11.8805H131.945Z" fill="#98B1DC"/>
</g>
<g opacity="0.3">
<path d="M138.595 28.0208C138.321 27.9728 138.115 27.7327 138.122 27.4515C138.122 27.1565 138.122 26.8547 138.115 26.5598C138.109 26.2442 138.355 25.9767 138.671 25.9699C138.986 25.963 139.253 26.2099 139.26 26.5255C139.267 26.841 139.274 27.1565 139.267 27.4652C139.267 27.7807 139.006 28.0345 138.691 28.0277C138.657 28.0277 138.629 28.0277 138.602 28.0208H138.595Z" fill="#98B1DC"/>
<path d="M112.54 49.7376C112.28 49.6895 112.019 49.6415 111.759 49.5867C111.45 49.5249 111.252 49.2162 111.313 48.9076C111.375 48.5989 111.683 48.4 111.992 48.4617C112.588 48.5852 113.191 48.6881 113.795 48.7567C114.11 48.7978 114.329 49.0791 114.295 49.3946C114.254 49.7101 113.973 49.9296 113.658 49.8953C113.287 49.8473 112.91 49.7924 112.54 49.7307V49.7376ZM108.852 48.7704C108.852 48.7704 108.791 48.7567 108.757 48.7429C108.153 48.5303 107.557 48.2902 106.974 48.0227C106.686 47.8924 106.556 47.5563 106.686 47.2682C106.817 46.9801 107.159 46.8498 107.44 46.9801C107.989 47.227 108.558 47.4602 109.134 47.6592C109.428 47.7621 109.586 48.0913 109.483 48.3931C109.387 48.6606 109.12 48.8115 108.846 48.7635L108.852 48.7704ZM116.66 50.0599C116.393 50.0119 116.187 49.7856 116.187 49.5043C116.187 49.1888 116.434 48.9282 116.749 48.9213C117.352 48.9144 117.962 48.8801 118.566 48.8184C118.881 48.7841 119.162 49.0173 119.189 49.3329C119.224 49.6484 118.991 49.9296 118.675 49.9571C118.038 50.0188 117.393 50.0599 116.756 50.0668C116.722 50.0668 116.681 50.0668 116.646 50.0599H116.66ZM104.438 46.6303C104.37 46.6165 104.294 46.5891 104.232 46.5479C103.691 46.205 103.163 45.8414 102.649 45.4573C102.395 45.2652 102.347 44.9086 102.539 44.6548C102.731 44.401 103.088 44.3529 103.341 44.545C103.821 44.9086 104.328 45.2584 104.842 45.5808C105.11 45.7523 105.192 46.1021 105.021 46.3696C104.89 46.5685 104.657 46.6646 104.438 46.6303ZM121.527 49.4426C121.307 49.4083 121.122 49.2437 121.068 49.0105C120.992 48.7018 121.184 48.3931 121.493 48.3177C122.082 48.1736 122.672 48.009 123.247 47.8169C123.549 47.714 123.871 47.8787 123.974 48.1805C124.077 48.4823 123.912 48.8047 123.611 48.9007C123.007 49.0996 122.384 49.278 121.767 49.4289C121.691 49.4495 121.609 49.4495 121.534 49.4357L121.527 49.4426ZM126.14 47.7758C125.969 47.7483 125.811 47.6386 125.722 47.4671C125.585 47.1859 125.701 46.8429 125.982 46.6989C126.524 46.4313 127.065 46.1364 127.586 45.8277C127.854 45.6631 128.21 45.7523 128.375 46.0266C128.539 46.301 128.45 46.6508 128.176 46.8155C127.627 47.1447 127.065 47.4534 126.49 47.7346C126.38 47.7895 126.257 47.8032 126.14 47.7826V47.7758ZM130.28 45.1418C130.15 45.1212 130.02 45.0526 129.931 44.936C129.732 44.6891 129.773 44.3324 130.02 44.1334C130.493 43.7562 130.952 43.3515 131.391 42.933C131.617 42.7135 131.98 42.7273 132.2 42.9536C132.419 43.18 132.405 43.5435 132.179 43.763C131.72 44.202 131.233 44.6273 130.733 45.0252C130.602 45.1349 130.431 45.1692 130.273 45.1418H130.28ZM133.742 41.6641C133.653 41.6503 133.564 41.6092 133.481 41.5475C133.235 41.3485 133.193 40.9918 133.392 40.7449C133.769 40.2716 134.133 39.7777 134.468 39.2701C134.647 39.0095 135.003 38.934 135.264 39.1124C135.524 39.2907 135.599 39.6405 135.421 39.9081C135.065 40.4362 134.688 40.9575 134.29 41.4583C134.153 41.6298 133.947 41.6984 133.742 41.6641ZM136.36 37.5141C136.305 37.5073 136.258 37.4867 136.21 37.4661C135.928 37.3289 135.805 36.986 135.942 36.7047C136.203 36.1628 136.449 35.6004 136.669 35.031C136.785 34.7361 137.114 34.592 137.409 34.7018C137.704 34.8184 137.848 35.1476 137.738 35.4426C137.512 36.0394 137.251 36.6293 136.977 37.2055C136.861 37.4387 136.607 37.5622 136.367 37.521L136.36 37.5141ZM137.999 32.8909C137.999 32.8909 137.978 32.8909 137.964 32.8841C137.656 32.8086 137.464 32.4999 137.539 32.1981C137.642 31.766 137.731 31.3201 137.807 30.8811C137.834 30.7233 137.861 30.5656 137.882 30.4078C137.93 30.0923 138.218 29.8796 138.533 29.9277C138.849 29.9688 139.061 30.2638 139.013 30.5793C138.986 30.7439 138.958 30.9154 138.931 31.08C138.849 31.5396 138.753 32.0061 138.65 32.4656C138.581 32.7606 138.293 32.9526 137.999 32.8978V32.8909Z" fill="#98B1DC"/>
<path d="M100.593 43.5644C100.483 43.5438 100.373 43.4889 100.284 43.4066C100.065 43.1871 99.8454 42.9607 99.6329 42.7275C99.4204 42.4943 99.4341 42.1308 99.6671 41.9181C99.9002 41.7055 100.263 41.7192 100.476 41.9524C100.675 42.1719 100.887 42.3845 101.093 42.5972C101.319 42.8235 101.319 43.1802 101.093 43.4066C100.956 43.5438 100.764 43.5987 100.593 43.5644Z" fill="#98B1DC"/>
</g>
<path d="M102.484 37.1501C102.538 37.2461 102.655 37.301 102.765 37.2804L105.966 36.6905C106.994 37.8086 108.207 38.7757 109.578 39.5303L109.77 42.7816C109.77 42.8982 109.852 42.9943 109.962 43.0217L113.725 44.0712C113.835 44.0986 113.951 44.0575 114.02 43.9683L115.871 41.2931C117.434 41.3617 118.969 41.1628 120.429 40.7375L122.863 42.8982C122.945 42.9737 123.075 42.9874 123.171 42.9325L126.571 41.0119C126.674 40.957 126.722 40.8404 126.701 40.7307L126.112 37.5273C127.229 36.4984 128.195 35.2843 128.949 33.9124L132.199 33.7204C132.315 33.7204 132.411 33.6381 132.439 33.5283L133.487 29.7625C133.515 29.6528 133.474 29.5362 133.384 29.4676L130.711 27.6155C130.78 26.0516 130.581 24.5151 130.156 23.054L132.315 20.619C132.391 20.5366 132.404 20.4063 132.349 20.3103L130.43 16.908C130.375 16.8051 130.259 16.7571 130.149 16.7777L126.948 17.3676C125.92 16.2495 124.706 15.2824 123.335 14.5278L123.144 11.2765C123.144 11.1599 123.061 11.0638 122.952 11.0364L119.188 9.98692C119.079 9.95948 118.962 10.0006 118.894 10.0898L117.043 12.765C115.48 12.6964 113.945 12.8953 112.485 13.3206L110.051 11.1599C109.969 11.0844 109.839 11.0707 109.743 11.1256L106.343 13.0462C106.247 13.1011 106.192 13.2177 106.212 13.3274L106.802 16.5308C105.685 17.5597 104.718 18.7738 103.964 20.1457L100.715 20.3377C100.599 20.3377 100.503 20.42 100.475 20.5298L99.4264 24.2956C99.3989 24.4053 99.4401 24.5219 99.5292 24.5905L102.203 26.4426C102.134 28.0065 102.333 29.543 102.758 31.0041L100.599 33.4391C100.523 33.5215 100.509 33.6518 100.564 33.7478L102.484 37.1501Z" fill="#98B1DC"/>
<path d="M115.782 30.901C113.897 30.5717 112.484 28.9049 112.532 26.9362C112.587 24.7687 114.39 23.0538 116.549 23.1087C117.598 23.1361 118.571 23.5683 119.291 24.3297C120.011 25.0911 120.395 26.0857 120.374 27.1352C120.319 29.3027 118.517 31.0176 116.357 30.9627C116.165 30.9627 115.973 30.9421 115.782 30.9078V30.901ZM116.974 24.069C116.83 24.0416 116.68 24.0279 116.529 24.0279C114.87 23.9867 113.485 25.3037 113.444 26.9637C113.403 28.6236 114.719 30.0092 116.378 30.0504C118.037 30.0916 119.421 28.7746 119.463 27.1146C119.483 26.312 119.188 25.5438 118.633 24.9676C118.181 24.4943 117.605 24.1856 116.974 24.0759V24.069Z" fill="#C0CFEB"/>
<path d="M114.898 36.4982C114.576 36.4433 114.254 36.3678 113.932 36.2787C113.829 36.2512 113.733 36.2238 113.63 36.1895C113.137 36.0317 112.657 35.8397 112.197 35.6133C112.197 35.6133 112.184 35.6133 112.177 35.6065C112.156 35.5996 112.143 35.5859 112.122 35.579C112.088 35.5584 112.054 35.5447 112.019 35.5241C111.93 35.4761 111.882 35.3801 111.903 35.2841C111.903 35.2635 111.916 35.236 111.923 35.2155C111.985 35.1057 112.122 35.0577 112.232 35.1194C112.808 35.4212 113.418 35.6682 114.048 35.8397C117.188 36.7177 120.403 35.8397 122.665 33.8162C123.926 32.6844 124.886 31.2027 125.372 29.4536C125.454 29.1449 125.53 28.8362 125.578 28.5276C125.934 26.4492 125.578 24.3296 124.522 22.4639C123.316 20.3237 121.348 18.7804 118.984 18.1219C114.103 16.7569 109.024 19.6241 107.66 24.508C107.577 24.8098 107.509 25.1116 107.454 25.4203C107.228 26.7441 107.29 28.1091 107.646 29.4056C107.653 29.4399 107.66 29.4742 107.646 29.5085C107.632 29.5908 107.571 29.6662 107.481 29.6937C107.358 29.728 107.235 29.6525 107.2 29.5359C106.823 28.1709 106.762 26.7441 107.002 25.3517C107.056 25.0293 107.132 24.7138 107.214 24.3982C108.647 19.2674 113.98 16.263 119.1 17.6966C121.582 18.3894 123.645 20.0082 124.913 22.2581C126.017 24.213 126.394 26.4423 126.017 28.6236C125.962 28.946 125.886 29.2684 125.797 29.5908C125.105 32.0739 123.487 34.1385 121.239 35.4075C119.285 36.5119 117.057 36.8892 114.878 36.5119L114.898 36.4982Z" fill="#C0CFEB"/>
<g opacity="0.3">
<path d="M72.2685 37.8432C72.1177 37.8157 71.9943 37.6923 71.9806 37.5345C71.9463 37.2395 71.9189 36.9309 71.9052 36.6359C71.8915 36.4439 72.0423 36.2724 72.241 36.2655C72.433 36.2518 72.6043 36.4027 72.6112 36.6016C72.6249 36.8897 72.6523 37.1778 72.6866 37.459C72.7072 37.6511 72.5701 37.8295 72.3781 37.85C72.3439 37.85 72.3096 37.85 72.2753 37.85L72.2685 37.8432Z" fill="#98B1DC"/>
<path d="M72.213 35.1198C72.0348 35.0923 71.9114 34.9277 71.9182 34.7494C71.9525 34.2349 72.0142 33.7136 72.1033 33.206C72.1239 33.0963 72.1444 32.9934 72.165 32.8836C72.1993 32.6916 72.3981 32.575 72.5763 32.6024C72.7682 32.6367 72.8916 32.8287 72.8573 33.014C72.8368 33.1168 72.8162 33.2197 72.8025 33.3226C72.7202 33.8096 72.6585 34.3035 72.6243 34.7974C72.6106 34.9895 72.4392 35.1404 72.2473 35.1266C72.2336 35.1266 72.2198 35.1266 72.213 35.1266V35.1198ZM72.9122 31.5186C72.9122 31.5186 72.8779 31.5186 72.8642 31.5049C72.6791 31.4432 72.5763 31.2442 72.638 31.059C72.8299 30.4623 73.063 29.8724 73.3303 29.3099C73.4126 29.1315 73.6251 29.0561 73.8033 29.1384C73.9815 29.2207 74.0569 29.4334 73.9746 29.6117C73.721 30.1536 73.5017 30.7161 73.3166 31.2785C73.2618 31.45 73.0904 31.546 72.919 31.5186H72.9122ZM74.4682 28.1918C74.4271 28.1849 74.3791 28.1712 74.3379 28.1438C74.1734 28.0409 74.1254 27.8214 74.2283 27.6568C74.5641 27.1286 74.9343 26.6141 75.325 26.1271C75.4484 25.9762 75.6678 25.9556 75.8254 26.0791C75.9762 26.2026 75.9968 26.4289 75.8734 26.5799C75.4964 27.0394 75.1399 27.5333 74.8246 28.034C74.7492 28.1575 74.6053 28.2192 74.4682 28.1918ZM76.7919 25.352C76.7165 25.3383 76.648 25.304 76.6 25.2491C76.4629 25.1051 76.4697 24.8856 76.6137 24.7484C77.0661 24.3163 77.5528 23.9047 78.0532 23.5343C78.2108 23.4177 78.4302 23.452 78.5467 23.6097C78.6632 23.7675 78.629 23.987 78.4713 24.1036C77.9915 24.4603 77.5322 24.8444 77.1004 25.2629C77.0181 25.3452 76.9016 25.3726 76.7988 25.352H76.7919ZM79.7394 23.1639C79.6366 23.1433 79.5475 23.0884 79.4927 22.9924C79.3967 22.8209 79.4584 22.6083 79.6229 22.5122C80.1644 22.2036 80.7334 21.9223 81.3092 21.6891C81.4874 21.6137 81.693 21.7028 81.7684 21.8812C81.8438 22.0595 81.7547 22.2653 81.5765 22.3408C81.0281 22.5671 80.4866 22.8346 79.9656 23.1296C79.8902 23.1707 79.808 23.1845 79.7326 23.1707L79.7394 23.1639ZM83.1256 21.7577C82.9954 21.7371 82.8857 21.6411 82.8446 21.5039C82.7898 21.3187 82.9063 21.1198 83.0914 21.0718C83.6946 20.9071 84.3115 20.7768 84.9284 20.6808C85.1204 20.6533 85.2986 20.7837 85.3329 20.9826C85.3603 21.1747 85.23 21.353 85.0381 21.3804C84.4486 21.4696 83.8591 21.5931 83.2833 21.7508C83.2285 21.7646 83.1805 21.7646 83.1256 21.7577ZM86.7518 21.2227C86.5873 21.1952 86.4639 21.0512 86.457 20.8797C86.457 20.6876 86.6078 20.523 86.7998 20.5162C87.4235 20.5024 88.0542 20.5299 88.6779 20.5916C88.8699 20.6122 89.0138 20.7837 88.9933 20.9826C88.9727 21.1747 88.8013 21.3187 88.6094 21.2981C88.013 21.2364 87.4098 21.2158 86.8203 21.2295C86.7998 21.2295 86.7723 21.2295 86.7518 21.2295V21.2227ZM92.167 22.1144C92.167 22.1144 92.1258 22.1075 92.1053 22.1007C91.6186 21.9223 91.1182 21.7714 90.611 21.648C90.5356 21.6274 90.4602 21.6137 90.3848 21.5931C90.1928 21.5519 90.0763 21.3599 90.1174 21.1678C90.1585 20.9757 90.3505 20.8523 90.5424 20.9003C90.6247 20.9209 90.7001 20.9346 90.7823 20.9552C91.3101 21.0855 91.8379 21.2433 92.3452 21.4285C92.5303 21.497 92.6262 21.696 92.5577 21.8812C92.496 22.0458 92.3315 22.135 92.167 22.1075V22.1144Z" fill="#98B1DC"/>
</g>
<g opacity="0.3">
<path d="M84.7505 50.8756C84.5586 50.8413 84.4283 50.663 84.4626 50.4709C84.49 50.2789 84.6751 50.1485 84.867 50.176C85.4497 50.272 86.0392 50.3269 86.6218 50.3475C86.8138 50.3543 86.9714 50.5189 86.9646 50.711C86.9577 50.9031 86.7932 51.0608 86.6013 51.054C85.9912 51.0334 85.3674 50.9717 84.7574 50.8756H84.7505ZM82.9889 50.4847C82.9889 50.4847 82.9614 50.4846 82.9546 50.4778C82.3651 50.3063 81.7756 50.1005 81.2066 49.8604C81.0284 49.785 80.9393 49.5792 81.0147 49.4009C81.0901 49.2225 81.2958 49.1402 81.474 49.2088C82.0155 49.4352 82.5776 49.6341 83.1397 49.7919C83.3247 49.8467 83.4344 50.0388 83.3796 50.2309C83.3316 50.4092 83.1534 50.5121 82.982 50.4847H82.9889ZM88.3561 51.0128C88.1984 50.9854 88.0819 50.8551 88.0613 50.6973C88.0476 50.5052 88.1916 50.3337 88.3835 50.3132C88.9661 50.2652 89.5556 50.176 90.1314 50.0525C90.3234 50.0114 90.5084 50.1348 90.5496 50.3269C90.5907 50.519 90.4673 50.7042 90.2754 50.7453C89.6722 50.8688 89.0621 50.9648 88.4452 51.0128C88.4109 51.0128 88.3835 51.0128 88.3561 51.0128ZM79.6575 49.0853C79.6164 49.0853 79.5821 49.0648 79.541 49.0442C79.0063 48.7355 78.4853 48.3925 77.9918 48.029C77.8341 47.9124 77.8067 47.6929 77.9232 47.5351C78.0398 47.3774 78.2591 47.3499 78.4168 47.4665C78.8829 47.8163 79.3833 48.1456 79.8905 48.4406C80.0619 48.5366 80.1167 48.7561 80.0208 48.9207C79.9454 49.051 79.7946 49.1196 79.6575 49.0922V49.0853ZM91.8862 50.272C91.7629 50.2514 91.6532 50.1623 91.612 50.0388C91.5504 49.8536 91.6463 49.6547 91.8314 49.5929C92.3866 49.4009 92.935 49.1814 93.4628 48.9207C93.641 48.8384 93.8467 48.907 93.9358 49.0853C94.018 49.2637 93.9495 49.4695 93.7713 49.5586C93.216 49.8262 92.6403 50.0594 92.0576 50.2583C92.0028 50.2789 91.9411 50.2789 91.8862 50.272ZM95.1353 48.7012C95.0394 48.6875 94.9571 48.6326 94.8954 48.5434C94.7926 48.3788 94.8406 48.1593 95.0051 48.0564C95.4987 47.7409 95.9785 47.3911 96.4309 47.0138C96.5817 46.8903 96.801 46.9109 96.9313 47.0618C97.0547 47.2127 97.0341 47.4322 96.8833 47.5626C96.4103 47.9535 95.9099 48.3239 95.389 48.6532C95.3136 48.7012 95.2245 48.7218 95.1353 48.7012ZM97.9184 46.3965C97.8498 46.3827 97.7881 46.3553 97.7333 46.3073C97.5893 46.1701 97.5825 45.9506 97.7196 45.8066C98.124 45.3813 98.5079 44.9217 98.8506 44.4553C98.9671 44.2975 99.1865 44.2632 99.3441 44.3798C99.5018 44.4964 99.5361 44.7159 99.4195 44.8737C99.0562 45.3676 98.6518 45.8477 98.2268 46.2936C98.1446 46.3827 98.0212 46.417 97.9115 46.3965H97.9184Z" fill="#98B1DC"/>
<path d="M76.7581 46.9037C76.6896 46.89 76.6279 46.8626 76.573 46.8077C76.3537 46.5951 76.1412 46.3824 75.9424 46.1629C75.8122 46.0189 75.819 45.7925 75.963 45.6622C76.1069 45.5319 76.3331 45.5387 76.4634 45.6828C76.6553 45.8886 76.8609 46.1012 77.0666 46.3001C77.2105 46.4373 77.2105 46.6568 77.0734 46.8009C76.9912 46.89 76.8678 46.9243 76.7581 46.9037Z" fill="#98B1DC"/>
</g>
<path d="M77.8268 42.4526C77.8611 42.5212 77.9365 42.5555 78.0119 42.5418L80.1505 42.1508C80.836 42.8985 81.6517 43.5433 82.5702 44.0509L82.7005 46.2253C82.7005 46.3007 82.7553 46.3693 82.8307 46.3899L85.3464 47.0896C85.4218 47.1101 85.4972 47.0827 85.5383 47.021L86.7721 45.2307C87.8209 45.2718 88.8491 45.1415 89.8225 44.8603L91.4539 46.3076C91.5087 46.3556 91.591 46.3693 91.6595 46.3282L93.9353 45.0455C94.0038 45.0112 94.0381 44.9357 94.0244 44.8603L93.6337 42.7201C94.3808 42.0342 95.0252 41.2179 95.5324 40.2988L97.7054 40.1685C97.7808 40.1685 97.8493 40.1136 97.8699 40.0381L98.5691 37.5207C98.5896 37.4453 98.5622 37.3698 98.5005 37.3287L96.7114 36.094C96.7526 35.0445 96.6223 34.0156 96.3413 33.0416L97.7876 31.409C97.8356 31.3541 97.8493 31.2718 97.8082 31.2032L96.5264 28.9259C96.4921 28.8573 96.4167 28.823 96.3413 28.8368L94.2026 29.2277C93.5171 28.4801 92.7014 27.8353 91.7829 27.3277L91.6527 25.1533C91.6527 25.0778 91.5978 25.0092 91.5224 24.9886L89.0068 24.289C88.9314 24.2684 88.856 24.2958 88.8148 24.3576L87.581 26.1479C86.5322 26.1067 85.504 26.237 84.5307 26.5183L82.8993 25.071C82.8444 25.0229 82.7622 25.0092 82.6936 25.0504L80.4179 26.3331C80.3493 26.3674 80.315 26.4428 80.3288 26.5183L80.7195 28.6584C79.9723 29.3443 79.328 30.1606 78.8207 31.0798L76.6478 31.2101C76.5724 31.2101 76.5038 31.265 76.4833 31.3404L75.7841 33.8578C75.7635 33.9333 75.791 34.0087 75.8526 34.0499L77.6417 35.2846C77.6006 36.3341 77.7308 37.363 78.0119 38.337L76.5655 39.9695C76.5175 40.0244 76.5038 40.1067 76.545 40.1753L77.8268 42.4526Z" fill="#98B1DC"/>
<path d="M86.7181 38.3099C86.156 38.2138 85.6419 37.9395 85.2443 37.521C84.7508 37.0066 84.4903 36.3275 84.5109 35.6141C84.5452 34.1394 85.779 32.9733 87.2459 33.0076C88.7197 33.0487 89.885 34.2766 89.8507 35.7513C89.8301 36.4647 89.5354 37.1301 89.0213 37.6239C88.5072 38.1178 87.8286 38.3785 87.1088 38.3579C86.9786 38.3579 86.8415 38.3442 86.7112 38.3167L86.7181 38.3099ZM87.5132 33.7347C87.4173 33.721 87.3213 33.7072 87.2253 33.7072C86.1423 33.6798 85.2375 34.5441 85.2101 35.6279C85.1964 36.156 85.3883 36.6499 85.7516 37.034C86.1149 37.4182 86.6016 37.6308 87.1294 37.6445C87.6572 37.6582 88.1507 37.4662 88.5346 37.1026C88.9185 36.7391 89.131 36.2521 89.1447 35.7239C89.1721 34.7361 88.4592 33.8993 87.5132 33.7347Z" fill="#C0CFEB"/>
<path d="M86.0931 42.2124C85.8738 42.1712 85.6544 42.1232 85.4351 42.0615C84.9964 41.938 84.5714 41.7734 84.1738 41.5676C84.1533 41.5608 84.1395 41.547 84.119 41.5402C83.9819 41.4647 83.9065 41.3138 83.9339 41.1698C83.9339 41.1355 83.9545 41.1012 83.9682 41.0669C84.0573 40.8954 84.2698 40.8268 84.448 40.916C84.8182 41.1149 85.2157 41.2727 85.627 41.3824C85.627 41.3824 85.675 41.3961 85.6955 41.403C86.6621 41.6636 87.6628 41.6705 88.6088 41.4441C89.1229 41.3207 89.6233 41.1286 90.1031 40.8611C90.1031 40.8611 90.11 40.8611 90.1168 40.8611C90.1305 40.8611 90.1374 40.8474 90.1511 40.8405C91.5357 40.0585 92.5365 38.7827 92.9615 37.2531C93.0163 37.0541 93.0643 36.8552 93.0986 36.6563C93.3317 35.3119 93.0986 33.9331 92.4131 32.7327C91.6317 31.3471 90.3567 30.3525 88.8281 29.9204C87.2995 29.4951 85.6887 29.6872 84.3109 30.4691C82.9263 31.2511 81.9255 32.5269 81.5005 34.0566C81.4457 34.2487 81.4045 34.4476 81.3702 34.6465C81.2194 35.5039 81.2606 36.3888 81.4936 37.2256C81.5073 37.2805 81.5073 37.3285 81.5005 37.3765C81.4799 37.5069 81.384 37.6166 81.2469 37.6578C81.0618 37.7058 80.863 37.596 80.815 37.4108C80.5545 36.4711 80.5134 35.4833 80.6779 34.523C80.7191 34.3035 80.767 34.084 80.8287 33.8645C81.3086 32.1497 82.4259 30.7229 83.975 29.8518C85.5242 28.9806 87.3201 28.7611 89.0338 29.2413C90.7475 29.7215 92.1732 30.8395 93.0438 32.3898C93.8046 33.7411 94.0651 35.2776 93.8046 36.7798C93.7635 37.0061 93.7155 37.2256 93.6538 37.4451C92.7285 40.7651 89.4382 42.7954 86.1137 42.2193L86.0931 42.2124Z" fill="#C0CFEB"/>
<path d="M8.49278 120.334C8.49278 121.384 9.34961 122.234 10.3984 122.234H113.342C114.391 122.234 115.248 121.377 115.248 120.334L116.104 61.1378C116.104 60.0883 114.871 58.0442 112.615 58.2019L12.0092 55.5954C10.6931 55.5611 9.42501 56.0687 8.49278 56.9947C7.56054 57.9207 7.05329 59.1897 7.08757 60.5067L8.49963 120.341L8.49278 120.334Z" fill="url(#paint14_linear_395_4604)"/>
<path d="M10.3725 118.51C10.3725 119.504 11.1814 120.314 12.1753 120.314H110.862C111.856 120.314 112.665 119.504 112.665 118.51L113.474 64.7663C113.378 61.5355 110.547 60.3695 108.826 60.4381L12.4015 57.8521C11.4761 57.8246 10.585 58.1813 9.93383 58.833C9.28264 59.4846 8.91934 60.3763 8.94676 61.3023L10.3794 118.51H10.3725Z" fill="url(#paint15_linear_395_4604)"/>
<path d="M111.594 92.9786C111.451 92.9786 111.334 92.8551 111.334 92.7111L111.396 88.3554C111.396 88.2113 111.512 88.0947 111.656 88.0947C111.8 88.0947 111.917 88.2182 111.917 88.3623L111.855 92.718C111.855 92.862 111.738 92.9786 111.594 92.9786Z" fill="#8193CA"/>
<path d="M111.753 82.2987C111.609 82.2987 111.492 82.1752 111.492 82.0312L111.739 65.3355C111.739 64.3409 111.431 63.552 110.848 62.9896C109.751 61.9332 108.003 61.9881 107.928 61.9949L77.1094 61.165C76.9654 61.165 76.8489 61.0415 76.8558 60.8906C76.8558 60.7465 76.9723 60.6231 77.1299 60.6368L107.928 61.4668C108.12 61.4531 109.978 61.4256 111.211 62.6123C111.911 63.2776 112.26 64.1968 112.267 65.3423L112.02 82.0381C112.02 82.1821 111.904 82.2987 111.76 82.2987H111.753Z" fill="#8193CA"/>
<path d="M118.908 127.152L2.74166 127.152C1.30904 127.152 0.143745 125.986 0.143745 124.553C0.143745 123.119 1.30904 121.953 2.74166 121.953L118.908 121.953C120.341 121.953 121.506 123.119 121.506 124.553C121.506 125.986 120.341 127.152 118.908 127.152Z" fill="url(#paint16_linear_395_4604)"/>
<path d="M18.5293 76.3929V78.5742H50.3967V76.3929H18.5293Z" fill="#8193CA"/>
<path d="M18.3867 61.7963V63.9775H50.2541V61.7963H18.3867Z" fill="#8193CA"/>
<path d="M27.3652 65.5345V67.7158H50.3421V65.5345H27.3652Z" fill="#8193CA"/>
<path d="M22.498 65.3558V67.5371H25.802V65.3558H22.498Z" fill="#8193CA"/>
<path d="M27.3379 69.183V71.3643H50.3148V69.183H27.3379Z" fill="#8193CA"/>
<path d="M22.4922 69.0121V71.1934H25.7961V69.0121H22.4922Z" fill="#8193CA"/>
<path d="M27.2617 72.8324V75.0137H50.2386V72.8324H27.2617Z" fill="#8193CA"/>
<path d="M22.2852 72.6547V74.8359H25.5891V72.6547H22.2852Z" fill="#8193CA"/>
<path d="M18.3789 91.5931V93.7744H50.2463V91.5931H18.3789Z" fill="#8193CA"/>
<path d="M27.2148 80.7347V82.916H50.1917V80.7347H27.2148Z" fill="#8193CA"/>
<path d="M22.3477 80.556V82.7373H25.6516V80.556H22.3477Z" fill="#8193CA"/>
<path d="M27.1934 84.3841V86.5654H50.1702V84.3841H27.1934Z" fill="#8193CA"/>
<path d="M22.334 84.2123V86.3936H25.6379V84.2123H22.334Z" fill="#8193CA"/>
<path d="M27.1055 88.0326V90.2139H50.0823V88.0326H27.1055Z" fill="#8193CA"/>
<path d="M22.1426 87.848V90.0293H25.4465V87.848H22.1426Z" fill="#8193CA"/>
<path d="M18.3789 106.773V108.954H50.2463V106.773H18.3789Z" fill="#8193CA"/>
<path d="M27.2148 95.9144V98.0957H50.1917V95.9144H27.2148Z" fill="#8193CA"/>
<path d="M22.3477 95.7357V97.917H25.6516V95.7357H22.3477Z" fill="#8193CA"/>
<path d="M27.1934 99.5638V101.745H50.1703V99.5638H27.1934Z" fill="#8193CA"/>
<path d="M22.334 99.392V101.573H25.6379V99.392H22.334Z" fill="#8193CA"/>
<path d="M27.1055 103.213V105.395H50.0824V103.213H27.1055Z" fill="#8193CA"/>
<path d="M22.1426 103.028V105.209H25.4465V103.028H22.1426Z" fill="#8193CA"/>
<path d="M27.3594 110.731V112.912H50.3363V110.731H27.3594Z" fill="#8193CA"/>
<path d="M22.5059 110.552V112.733H25.8098V110.552H22.5059Z" fill="#8193CA"/>
<path d="M27.1875 114.38V116.562H50.1644V114.38H27.1875Z" fill="#8193CA"/>
<path d="M22.3281 114.208V116.39H25.6321V114.208H22.3281Z" fill="#8193CA"/>
<path d="M74.6074 103.576V105.792H97.5432V103.576H74.6074Z" fill="#8193CA"/>
<path d="M65.2773 99.8791V102.095H102.491V99.8791H65.2773Z" fill="#8193CA"/>
<path d="M77.1836 96.1819V98.3975H107.015V96.1819H77.1836Z" fill="#8193CA"/>
<path d="M77.1836 92.4778V94.6934H94.1969V92.4778H77.1836Z" fill="#8193CA"/>
<path d="M77.582 88.7805V90.9961H107.379V88.7805H77.582Z" fill="#8193CA"/>
<path d="M74.916 85.0832V87.2988H100.093V85.0832H74.916Z" fill="#8193CA"/>
<path d="M65.2773 81.3791V83.5947H92.1614V81.3791H65.2773Z" fill="#8193CA"/>
<path d="M77.2793 77.6829V79.8984H107.947V77.6829H77.2793Z" fill="#8193CA"/>
<path d="M77.2793 73.9856V76.2012H108.331V73.9856H77.2793Z" fill="#8193CA"/>
<path d="M77.5742 70.2815V72.4971H108.16V70.2815H77.5742Z" fill="#8193CA"/>
<path d="M72.0371 66.5842V68.7998H97.0978V66.5842H72.0371Z" fill="#8193CA"/>
<path d="M56.3184 77.5862V79.8018H62.8166V77.5862H56.3184Z" fill="#8193CA"/>
<path d="M56.3184 81.3938V83.6094H62.8166V81.3938H56.3184Z" fill="#8193CA"/>
<path d="M56.3184 85.0422V87.2578H62.8166V85.0422H56.3184Z" fill="#8193CA"/>
<path d="M56.3262 88.7532V90.9688H62.8244V88.7532H56.3262Z" fill="#8193CA"/>
<path d="M56.3184 92.5608V94.7764H62.8166V92.5608H56.3184Z" fill="#8193CA"/>
<path d="M56.3184 96.2092V98.4248H62.8166V96.2092H56.3184Z" fill="#8193CA"/>
<path d="M56.6465 99.8518V102.067H63.1447V99.8518H56.6465Z" fill="#8193CA"/>
<path d="M56.6543 103.652V105.867H63.1525V103.652H56.6543Z" fill="#8193CA"/>
<path d="M56.6543 107.301V109.517H63.1525V107.301H56.6543Z" fill="#8193CA"/>
<path d="M56.6465 111.026V113.241H63.1447V111.026H56.6465Z" fill="#8193CA"/>
<path d="M56.6465 114.833V117.049H63.1447V114.833H56.6465Z" fill="#8193CA"/>
<path d="M56.3262 73.9788V76.1943H62.8244V73.9788H56.3262Z" fill="#8193CA"/>
<path d="M56.3184 70.2883V72.5039H62.8166V70.2883H56.3184Z" fill="#8193CA"/>
<path d="M56.3184 66.5842V68.7998H62.8166V66.5842H56.3184Z" fill="#8193CA"/>
<path d="M56.3184 62.887V65.1025H62.8166V62.887H56.3184Z" fill="#8193CA"/>
<path d="M65.2852 62.8867V65.1023H96.4465C96.4465 63.8813 95.4457 62.8867 94.2051 62.8867H65.2852Z" fill="#8193CA"/>
<path d="M77.4785 114.977V117.192H108.9V114.977H77.4785Z" fill="#8193CA"/>
<path d="M77.4785 111.163V113.379H108.331V111.163H77.4785Z" fill="#8193CA"/>
<path d="M77.4863 107.527V109.743H97.1044C97.1044 108.522 96.4738 107.527 95.6924 107.527H77.4863Z" fill="#8193CA"/>
<path d="M53.3789 61.3711H53.3446C53.178 61.3711 53.043 61.5062 53.043 61.6729V118.379C53.043 118.546 53.178 118.681 53.3446 118.681H53.3789C53.5454 118.681 53.6805 118.546 53.6805 118.379V61.6729C53.6805 61.5062 53.5454 61.3711 53.3789 61.3711Z" fill="#8193CA"/>
<path d="M98.3305 91.2227L137.361 132.9C138.999 134.649 138.801 137.421 136.929 138.916L136.621 139.163C134.969 140.487 132.549 140.212 131.24 138.552L95.6641 93.5L98.3305 91.2295V91.2227Z" fill="url(#paint17_linear_395_4604)"/>
<path opacity="0.5" d="M105.268 81.5673C111.756 68.7484 106.439 52.9966 93.3923 46.3847C80.3457 39.7727 64.5101 44.8044 58.0224 57.6233C51.5347 70.4422 56.8517 86.194 69.8982 92.806C82.9447 99.418 98.7804 94.3863 105.268 81.5673Z" fill="white"/>
<path d="M55.3578 56.2738C48.1398 70.5413 54.0554 88.0671 68.5736 95.4203C83.0919 102.774 100.708 97.1763 107.926 82.9088C115.144 68.6413 109.229 51.1156 94.7105 43.7623C80.1923 36.4091 62.5758 42.0063 55.3578 56.2738ZM59.217 58.2288C65.3725 46.0602 80.4048 41.2792 92.7912 47.5556C105.178 53.8319 110.223 68.7853 104.067 80.9539C97.9117 93.1224 82.8794 97.9034 70.493 91.6271C58.1065 85.3508 53.0615 70.3973 59.217 58.2288Z" fill="url(#paint18_linear_395_4604)"/>
<path d="M104.356 84.9874C104.322 84.9668 104.315 84.9188 104.336 84.8845C104.72 84.3152 105.083 83.7321 105.426 83.1354C105.446 83.1011 105.494 83.0873 105.528 83.1079C105.563 83.1285 105.576 83.1765 105.556 83.2108C105.213 83.8076 104.843 84.4043 104.459 84.9737C104.445 85.0011 104.411 85.008 104.384 85.008C104.37 85.008 104.363 85.008 104.349 84.9943L104.356 84.9874ZM107.852 77.6822C107.811 77.6684 107.79 77.6273 107.804 77.5861C108.339 75.7958 108.688 73.9369 108.832 72.0712C109.244 66.7826 108.078 61.5009 105.46 56.8022C102.78 51.9938 98.7423 48.1182 93.7864 45.6077C89.1252 43.2481 83.9362 42.2466 78.7815 42.713C78.7403 42.713 78.7061 42.6856 78.6992 42.6444C78.6992 42.6033 78.7266 42.569 78.7678 42.5621C83.9499 42.0888 89.1663 43.0971 93.8549 45.4705C98.8383 47.9947 102.903 51.8909 105.597 56.7267C108.229 61.4529 109.401 66.762 108.99 72.078C108.846 73.9575 108.497 75.8233 107.955 77.6273C107.941 77.6616 107.907 77.6822 107.873 77.6822C107.873 77.6822 107.866 77.6822 107.859 77.6822H107.852Z" fill="#C0CFEB"/>
<path d="M133.364 138.621C135.044 138.84 136.209 138.394 136.826 137.297C137.45 136.179 137.272 134.759 136.374 133.751L131.76 128.599C131.76 128.599 131.685 128.565 131.651 128.599C131.616 128.627 131.616 128.675 131.651 128.709L136.264 133.86C137.121 134.814 137.292 136.172 136.696 137.228C136.106 138.278 134.982 138.696 133.337 138.47C133.296 138.47 133.255 138.49 133.255 138.532C133.255 138.573 133.275 138.614 133.316 138.614C133.337 138.614 133.351 138.614 133.371 138.621H133.364Z" fill="#C0CFEB"/>
<path d="M130.279 127.131C130.279 127.131 130.321 127.131 130.341 127.111C130.375 127.083 130.375 127.035 130.341 127.001L129.745 126.336C129.745 126.336 129.669 126.301 129.635 126.336C129.601 126.363 129.601 126.411 129.635 126.445L130.231 127.111C130.231 127.111 130.259 127.131 130.279 127.138V127.131Z" fill="#C0CFEB"/>
<path d="M50.1561 29.0495C49.9504 29.0495 49.7859 28.878 49.7859 28.6722C49.7448 26.5458 49.0936 15.9892 39.9152 13.7805C29.6948 11.3248 25.0199 21.854 25.0199 21.854C25.0199 21.854 12.3799 16.9426 9.95336 30.0989C2.02249 32.0264 -0.0339143 42.5144 5.12081 47.6384C5.94337 48.4546 7.04012 48.9142 8.18485 48.9211L57.8264 49.3738C59.2865 49.3875 60.5752 48.4204 60.9865 47.0073C62.5356 41.705 64.5714 29.3924 50.1492 29.0495H50.1561Z" fill="#98B1DC"/>
<path d="M49.0182 29.2758C48.8125 29.2758 48.648 29.1043 48.648 28.8985C48.6069 26.8613 47.9557 17.0661 39.3119 15.0152C29.6537 12.7241 25.2324 22.5536 25.2324 22.5536C25.2324 22.5536 13.2779 17.9647 10.9884 30.2567C3.56477 32.0401 1.58377 41.6639 6.27923 46.4997C7.10179 47.3503 8.22596 47.8304 9.39811 47.8373L56.1333 48.2557C57.5934 48.2694 58.8889 47.2954 59.3002 45.8755C60.7602 40.8407 62.4876 29.5982 49.025 29.2758H49.0182Z" fill="#C0CFEB"/>
<path d="M2.55049 118.585C2.1255 119.216 0.439249 133.429 0.178772 138.676C0.158208 139.033 0.446104 139.328 0.802548 139.328C1.11101 139.328 1.37149 139.101 1.41947 138.8L4.50408 119.031L2.55735 118.578L2.55049 118.585Z" fill="#8193CA"/>
<path d="M16.102 118.585C16.527 119.216 18.2133 133.429 18.4737 138.676C18.4943 139.033 18.2064 139.328 17.85 139.328C17.5415 139.328 17.281 139.101 17.233 138.8L14.1484 119.031L16.0952 118.578L16.102 118.585Z" fill="#8193CA"/>
<path d="M0.000145072 117.474V117.632C-0.0135643 118.75 0.946091 119.662 2.15251 119.683L16.4034 119.923C17.5893 119.943 18.5763 119.086 18.6312 117.988V117.844C18.6997 116.699 17.7263 115.732 16.4925 115.711L2.24163 115.457C1.02149 115.437 0.0138544 116.342 0.00699975 117.474H0.000145072Z" fill="#8193CA"/>
<path d="M27.7203 138.162C25.191 138.162 24.0668 137.942 23.5664 137.743C23.6624 138.162 24.0325 138.491 24.5055 138.491H33.4646C33.7662 138.491 33.9581 138.203 33.8827 137.942C32.8614 138.024 30.6953 138.162 27.7203 138.162Z" fill="url(#paint19_linear_395_4604)"/>
<path d="M33.8824 137.935C33.8687 137.88 33.8481 137.832 33.807 137.784C33.1215 136.913 31.7506 135.541 29.8861 135.569C27.1511 135.61 26.1983 135.905 24.0802 135.582L23.5798 137.242C23.5318 137.414 23.5249 137.579 23.5661 137.736C24.0665 137.935 25.1906 138.155 27.72 138.155C30.6881 138.155 32.861 138.018 33.8824 137.935Z" fill="url(#paint20_linear_395_4604)"/>
<path d="M24.697 133.8L24.0801 135.892C24.0801 135.892 25.4442 136.509 26.6369 136.015L26.8699 134.205L24.6901 133.8H24.697Z" fill="url(#paint21_linear_395_4604)"/>
<path d="M43.2654 136.845C41.2913 138.429 40.2836 138.964 39.7695 139.129C40.1054 139.39 40.5989 139.41 40.9622 139.122L47.9472 133.504C48.1802 133.312 48.1528 132.969 47.9335 132.812C47.1863 133.518 45.5823 134.986 43.2654 136.845Z" fill="url(#paint22_linear_395_4604)"/>
<path d="M47.9272 132.812C47.8861 132.778 47.8313 132.75 47.7764 132.737C46.7002 132.49 44.7809 132.284 43.3415 133.477C41.2371 135.22 40.675 136.05 38.8242 137.133L39.4686 138.738C39.5371 138.903 39.6399 139.033 39.7633 139.129C40.2774 138.972 41.285 138.437 43.2592 136.845C45.5761 134.986 47.1801 133.519 47.9272 132.812Z" fill="url(#paint23_linear_395_4604)"/>
<path d="M11.5441 109.956C11.5441 109.956 26.7067 111.198 29.8187 112.659C32.9307 114.127 27.2824 134.664 27.2824 134.664C27.2824 134.664 26.4325 135.068 24.5543 134.485C24.5543 134.485 26.4873 119.326 25.0478 116.04L8.63086 113.351L11.551 109.949L11.5441 109.956Z" fill="url(#paint24_linear_395_4604)"/>
<path d="M37.3242 134.245C37.4682 134.376 38.8322 137.133 38.8322 137.133C38.8322 137.133 40.354 136.804 40.6624 135.843L39.2915 133.354L37.3242 134.245Z" fill="url(#paint25_linear_395_4604)"/>
<path d="M2.41305 109.833C2.41305 109.833 1.91951 111.02 1.94008 112.604C1.9675 114.792 3.7223 116.562 5.90894 116.672L23.8339 117.488C24.2109 117.509 24.5331 117.769 24.6291 118.133C25.0472 119.765 27.1105 124.773 37.1731 134.76C37.4405 135.028 37.8586 135.069 38.1739 134.87L39.6065 133.964C39.7574 133.868 39.8053 133.669 39.7162 133.518L29.2765 115.684C28.7282 114.779 27.8439 114.127 26.8226 113.859L11.5435 109.95L2.41305 109.826V109.833Z" fill="url(#paint26_linear_395_4604)"/>
<path d="M20.077 81.9698C20.077 81.9698 18.1577 85.3651 16.1973 87.0114L20.2415 89.2681C20.2415 89.2681 21.1532 85.6738 23.237 84.6175L20.0702 81.9629L20.077 81.9698Z" fill="url(#paint27_linear_395_4604)"/>
<path d="M2.08498 109.956C2.08498 109.956 6.92438 111.136 11.5444 109.956C11.5444 109.956 18.0084 101.258 20.5104 98.8917C20.5104 98.8917 24.4998 105.189 33.3766 106.08L33.8701 104.976C33.8701 104.976 26.803 101.718 24.6232 96.7035C22.4502 91.6962 21.5728 89.556 19.5918 88.2528C18.358 87.4365 17.6177 86.8809 17.2407 86.5791C17.035 86.4145 16.7403 86.3939 16.5141 86.5311C14.4165 87.8138 4.52525 94.584 2.07812 109.949L2.08498 109.956Z" fill="url(#paint28_linear_395_4604)"/>
<path d="M17.8496 94.2207C17.8496 94.2207 18.7133 96.4637 20.2419 98.4667L17.8496 94.2207Z" fill="url(#paint29_linear_395_4604)"/>
<path d="M32.8418 104.4L33.8426 104.133L36.8792 103.433C37.2425 103.351 37.6264 103.412 37.9485 103.611L40.5602 105.251L33.3559 105.237L32.8487 104.393L32.8418 104.4Z" fill="url(#paint30_linear_395_4604)"/>
<path d="M23.128 76.873C23.128 76.873 24.9925 79.9803 25.3146 81.6952C25.6368 83.41 26.1578 84.4801 24.2042 85.0974C22.2506 85.7079 20.441 84.9328 19.3031 83.3346C19.3031 83.3346 17.5277 80.8721 17.7059 79.7403C17.8842 78.6085 23.128 76.8799 23.128 76.8799V76.873Z" fill="url(#paint31_linear_395_4604)"/>
<path d="M19.8234 82.0042L20.077 81.9699C20.077 81.9699 18.754 79.9738 19.6177 79.4731C20.4814 78.9792 24.0047 77.7582 24.6148 76.3726C25.2043 75.035 24.32 73.5191 23.2575 73.2036C23.189 73.183 23.1205 73.2242 23.093 73.2859L23.0313 73.4574C22.9902 73.574 22.8257 73.5809 22.7777 73.4643C22.7297 73.3545 22.5789 73.3545 22.531 73.4643C22.339 73.8827 21.7769 74.5892 20.0838 75.1379C17.6778 75.9199 16.1835 77.134 16.3686 78.842C16.3823 78.9518 16.2726 79.0272 16.1767 78.9792C15.9779 78.89 15.6831 78.8763 15.3335 79.2604C14.7303 79.9189 15.2033 81.3594 16.8484 82.3814C16.9238 82.4295 16.9375 82.5392 16.869 82.6009C16.6222 82.8136 16.2795 83.28 17.3899 83.6984C18.5278 84.1237 19.1447 83.9797 19.3778 83.8905C19.4395 83.8631 19.4738 83.8013 19.4601 83.7396L19.1653 82.2443C19.1516 82.1688 19.2064 82.0934 19.2818 82.0796L19.8234 82.011V82.0042Z" fill="url(#paint32_linear_395_4604)"/>
<path d="M19.9265 82.3127C19.9265 82.3127 19.1039 80.2823 18.2402 80.9957C17.3765 81.7091 19.0422 83.2867 19.8099 83.2661L19.9333 82.3127H19.9265Z" fill="url(#paint33_linear_395_4604)"/>
<path d="M30.0584 106.671C30.0584 106.671 30.079 106.671 30.0927 106.671L45.4815 106.657C45.8653 106.657 46.1669 106.348 46.1669 105.971C46.1669 105.594 45.8585 105.278 45.4746 105.285L30.0859 105.299C29.702 105.299 29.4004 105.608 29.4004 105.985C29.4004 106.355 29.6883 106.65 30.0516 106.671H30.0584Z" fill="url(#paint34_linear_395_4604)"/>
<path d="M51.4456 91.5871C51.4456 91.5871 51.4319 91.6077 51.4319 91.6214L44.9543 105.594C44.7966 105.937 44.9406 106.348 45.2901 106.506C45.6329 106.664 46.051 106.52 46.2018 106.17L52.6795 92.1976C52.8371 91.8546 52.6932 91.4431 52.3436 91.2853C52.0077 91.1275 51.617 91.2647 51.4456 91.5871Z" fill="url(#paint35_linear_395_4604)"/>
<path d="M36.9114 107.822C36.8428 108.104 30.42 132.201 28.7954 138.312C28.6104 139.019 29.1313 139.705 29.8511 139.705C30.3514 139.705 30.7901 139.362 30.9135 138.868L38.0424 109.942L36.9114 107.815V107.822Z" fill="#C0CFEB"/>
<path d="M40.4279 107.822C40.4964 108.104 46.9193 132.201 48.5438 138.312C48.7289 139.019 48.208 139.705 47.4882 139.705C46.9878 139.705 46.5491 139.362 46.4257 138.868L39.2969 109.942L40.4279 107.815V107.822Z" fill="#C0CFEB"/>
<path d="M40.6955 107.041H36.6992V110.258C36.6992 110.718 37.0694 111.095 37.5218 111.095H38.0702V118.318C38.0702 118.668 38.3512 118.949 38.6939 118.949C39.0367 118.949 39.3177 118.668 39.3177 118.318V111.095H39.5987C40.202 111.095 40.6955 110.601 40.6955 109.984V107.041Z" fill="#C0CFEB"/>
<path d="M26.8562 106.266H49.1887C49.504 106.266 49.7714 106.478 49.8536 106.787L50.1621 108.008C50.2717 108.447 49.9427 108.879 49.4972 108.872L26.582 108.742C26.1364 108.742 25.8142 108.317 25.9239 107.878L26.1981 106.787C26.2735 106.478 26.5477 106.266 26.863 106.266H26.8562Z" fill="#C0CFEB"/>
</g>
<defs>
<linearGradient id="paint0_linear_395_4604" x1="148.466" y1="157.903" x2="45.7692" y2="47.1396" gradientUnits="userSpaceOnUse">
<stop stop-color="#DBE2F3"/>
<stop offset="1" stop-color="#EAEFF8"/>
</linearGradient>
<linearGradient id="paint1_linear_395_4604" x1="94.6298" y1="10.3782" x2="94.2866" y2="-45.3749" gradientUnits="userSpaceOnUse">
<stop stop-color="#E1483D"/>
<stop offset="1" stop-color="#E9625A"/>
</linearGradient>
<linearGradient id="paint2_linear_395_4604" x1="79.5698" y1="-101.045" x2="89.3715" y2="-16.2307" gradientUnits="userSpaceOnUse">
<stop stop-color="#F5928F"/>
<stop offset="1" stop-color="#F37064"/>
</linearGradient>
<linearGradient id="paint3_linear_395_4604" x1="123.584" y1="-42.2536" x2="102.289" y2="8.92756" gradientUnits="userSpaceOnUse">
<stop stop-color="#F9BABA"/>
<stop offset="1" stop-color="#F5928F"/>
</linearGradient>
<linearGradient id="paint4_linear_395_4604" x1="119.834" y1="-26.614" x2="101.579" y2="22.292" gradientUnits="userSpaceOnUse">
<stop stop-color="#F9BABA"/>
<stop offset="1" stop-color="#F5928F"/>
</linearGradient>
<linearGradient id="paint5_linear_395_4604" x1="77.0608" y1="-100.758" x2="86.8625" y2="-15.9429" gradientUnits="userSpaceOnUse">
<stop stop-color="#F5928F"/>
<stop offset="1" stop-color="#F37064"/>
</linearGradient>
<linearGradient id="paint6_linear_395_4604" x1="104.177" y1="28.2742" x2="91.4959" y2="54.3742" gradientUnits="userSpaceOnUse">
<stop stop-color="#F9BABA"/>
<stop offset="1" stop-color="#F5928F"/>
</linearGradient>
<linearGradient id="paint7_linear_395_4604" x1="123.769" y1="-6.30433" x2="91.3153" y2="69.1945" gradientUnits="userSpaceOnUse">
<stop stop-color="#F9BABA"/>
<stop offset="1" stop-color="#F5928F"/>
</linearGradient>
<linearGradient id="paint8_linear_395_4604" x1="74.7304" y1="-100.49" x2="84.5321" y2="-15.675" gradientUnits="userSpaceOnUse">
<stop stop-color="#F5928F"/>
<stop offset="1" stop-color="#F37064"/>
</linearGradient>
<linearGradient id="paint9_linear_395_4604" x1="123.309" y1="1.87287" x2="87.3071" y2="86.493" gradientUnits="userSpaceOnUse">
<stop stop-color="#F9BABA"/>
<stop offset="1" stop-color="#F5928F"/>
</linearGradient>
<linearGradient id="paint10_linear_395_4604" x1="121.341" y1="31.9577" x2="99.2797" y2="74.2608" gradientUnits="userSpaceOnUse">
<stop stop-color="#F9BABA"/>
<stop offset="1" stop-color="#F5928F"/>
</linearGradient>
<linearGradient id="paint11_linear_395_4604" x1="72.2892" y1="-100.202" x2="82.0909" y2="-15.3938" gradientUnits="userSpaceOnUse">
<stop stop-color="#F5928F"/>
<stop offset="1" stop-color="#F37064"/>
</linearGradient>
<linearGradient id="paint12_linear_395_4604" x1="120.451" y1="29.2555" x2="97.8866" y2="82.9671" gradientUnits="userSpaceOnUse">
<stop stop-color="#F9BABA"/>
<stop offset="1" stop-color="#F5928F"/>
</linearGradient>
<linearGradient id="paint13_linear_395_4604" x1="122.884" y1="48.4408" x2="96.2651" y2="101.134" gradientUnits="userSpaceOnUse">
<stop stop-color="#F9BABA"/>
<stop offset="1" stop-color="#F5928F"/>
</linearGradient>
<linearGradient id="paint14_linear_395_4604" x1="71.2748" y1="117.687" x2="46.9312" y2="44.7058" gradientUnits="userSpaceOnUse">
<stop stop-color="#201B59"/>
<stop offset="1" stop-color="#2D2D84"/>
</linearGradient>
<linearGradient id="paint15_linear_395_4604" x1="8.93991" y1="89.0828" x2="113.474" y2="89.0828" gradientUnits="userSpaceOnUse">
<stop stop-color="#5560AB"/>
<stop offset="1" stop-color="#4C57A6"/>
</linearGradient>
<linearGradient id="paint16_linear_395_4604" x1="15.0527" y1="113.413" x2="122.481" y2="139.527" gradientUnits="userSpaceOnUse">
<stop stop-color="#201B59"/>
<stop offset="1" stop-color="#2D2D84"/>
</linearGradient>
<linearGradient id="paint17_linear_395_4604" x1="142.319" y1="129.028" x2="90.833" y2="102.971" gradientUnits="userSpaceOnUse">
<stop stop-color="#201B59"/>
<stop offset="1" stop-color="#2D2D84"/>
</linearGradient>
<linearGradient id="paint18_linear_395_4604" x1="108.462" y1="81.8135" x2="54.8229" y2="57.4084" gradientUnits="userSpaceOnUse">
<stop stop-color="#201B59"/>
<stop offset="1" stop-color="#2D2D84"/>
</linearGradient>
<linearGradient id="paint19_linear_395_4604" x1="23.5664" y1="138.114" x2="33.8964" y2="138.114" gradientUnits="userSpaceOnUse">
<stop stop-color="#5560AB"/>
<stop offset="1" stop-color="#4C57A6"/>
</linearGradient>
<linearGradient id="paint20_linear_395_4604" x1="31.5244" y1="118.235" x2="28.6964" y2="137.749" gradientUnits="userSpaceOnUse">
<stop stop-color="#201B59"/>
<stop offset="1" stop-color="#2D2D84"/>
</linearGradient>
<linearGradient id="paint21_linear_395_4604" x1="24.0801" y1="135" x2="26.8768" y2="135" gradientUnits="userSpaceOnUse">
<stop stop-color="#F9BABA"/>
<stop offset="1" stop-color="#F5928F"/>
</linearGradient>
<linearGradient id="paint22_linear_395_4604" x1="39.7695" y1="136.07" x2="48.1117" y2="136.07" gradientUnits="userSpaceOnUse">
<stop stop-color="#5560AB"/>
<stop offset="1" stop-color="#4C57A6"/>
</linearGradient>
<linearGradient id="paint23_linear_395_4604" x1="45.5075" y1="120.266" x2="42.6796" y2="139.781" gradientUnits="userSpaceOnUse">
<stop stop-color="#201B59"/>
<stop offset="1" stop-color="#2D2D84"/>
</linearGradient>
<linearGradient id="paint24_linear_395_4604" x1="31.7243" y1="111.314" x2="7.62228" y2="132.809" gradientUnits="userSpaceOnUse">
<stop stop-color="#201B59"/>
<stop offset="1" stop-color="#2D2D84"/>
</linearGradient>
<linearGradient id="paint25_linear_395_4604" x1="37.3242" y1="135.24" x2="40.6556" y2="135.24" gradientUnits="userSpaceOnUse">
<stop stop-color="#F9BABA"/>
<stop offset="1" stop-color="#F5928F"/>
</linearGradient>
<linearGradient id="paint26_linear_395_4604" x1="38.2836" y1="96.7453" x2="31.8616" y2="106.091" gradientUnits="userSpaceOnUse">
<stop stop-color="#201B59"/>
<stop offset="1" stop-color="#2D2D84"/>
</linearGradient>
<linearGradient id="paint27_linear_395_4604" x1="18.7815" y1="88.1775" x2="20.4286" y2="84.0283" gradientUnits="userSpaceOnUse">
<stop stop-color="#F9BABA"/>
<stop offset="1" stop-color="#F5928F"/>
</linearGradient>
<linearGradient id="paint28_linear_395_4604" x1="23.9308" y1="26.0176" x2="20.8901" y2="67.5783" gradientUnits="userSpaceOnUse">
<stop stop-color="#F5928F"/>
<stop offset="1" stop-color="#F37064"/>
</linearGradient>
<linearGradient id="paint29_linear_395_4604" x1="17.8496" y1="96.3403" x2="20.2419" y2="96.3403" gradientUnits="userSpaceOnUse">
<stop stop-color="#E1483D"/>
<stop offset="1" stop-color="#E9625A"/>
</linearGradient>
<linearGradient id="paint30_linear_395_4604" x1="32.8418" y1="104.325" x2="40.5465" y2="104.325" gradientUnits="userSpaceOnUse">
<stop stop-color="#F9BABA"/>
<stop offset="1" stop-color="#F5928F"/>
</linearGradient>
<linearGradient id="paint31_linear_395_4604" x1="23.838" y1="79.8455" x2="16.4686" y2="87.1896" gradientUnits="userSpaceOnUse">
<stop stop-color="#F9BABA"/>
<stop offset="1" stop-color="#F5928F"/>
</linearGradient>
<linearGradient id="paint32_linear_395_4604" x1="17.4365" y1="75.6524" x2="26.1139" y2="84.2246" gradientUnits="userSpaceOnUse">
<stop stop-color="#201B59"/>
<stop offset="1" stop-color="#2D2D84"/>
</linearGradient>
<linearGradient id="paint33_linear_395_4604" x1="22.6505" y1="78.6529" x2="15.2811" y2="85.997" gradientUnits="userSpaceOnUse">
<stop stop-color="#F9BABA"/>
<stop offset="1" stop-color="#F5928F"/>
</linearGradient>
<linearGradient id="paint34_linear_395_4604" x1="-1618.34" y1="-1664.08" x2="-1591.07" y2="-1634.99" gradientUnits="userSpaceOnUse">
<stop stop-color="#201B59"/>
<stop offset="1" stop-color="#2D2D84"/>
</linearGradient>
<linearGradient id="paint35_linear_395_4604" x1="2348.62" y1="-657.71" x2="2310.75" y2="-645.267" gradientUnits="userSpaceOnUse">
<stop stop-color="#201B59"/>
<stop offset="1" stop-color="#2D2D84"/>
</linearGradient>
<clipPath id="clip0_395_4604">
<rect width="140" height="140" fill="white"/>
</clipPath>
</defs>
</svg>
