<svg width="240" height="70" viewBox="0 0 240 70" fill="none" xmlns="http://www.w3.org/2000/svg">
<g clip-path="url(#clip0_213_2069)">
<path d="M37.341 33.7584C37.341 38.5837 33.4284 42.4989 28.5851 42.4989C23.7418 42.4989 19.8386 38.5837 19.8386 33.7584C19.8386 28.9331 23.7513 25.0273 28.5851 25.0273C33.4189 25.0273 37.341 28.9331 37.341 33.7584Z" fill="#ED1C24"/>
<path d="M55.0238 58.89C51.586 62.3218 51.6905 70.0005 51.6905 70.0005C-5.37506 64.4832 -8.80336 17.4152 10.8358 4.54141C29.7341 -7.84889 42.2508 9.06335 42.2508 9.06335C42.2508 9.06335 42.2413 9.06335 42.2318 9.06335C42.3647 9.20555 42.4787 9.34775 42.6021 9.48995C45.7171 6.26677 49.8671 4.00106 54.4445 4.00106C62.8491 4.00106 70.4274 10.3811 71.7095 19.6525C71.7095 19.6525 72.0893 21.7949 71.7 24.7716C71.7 24.7716 71.681 24.7148 71.662 24.62L71.7 24.7716C71.586 24.345 71.2631 23.672 70.5889 21.9751C68.1672 15.851 62.8586 13.5758 59.9146 12.9501C55.0808 11.9168 45.926 13.0923 42.6021 19.5956C42.6021 19.5956 36.002 11.9263 26.7807 11.0921C16.0969 10.1156 3.22893 19.7093 10.3229 39.8353C13.9887 50.2253 25.4986 59.6958 31.2726 62.2838C38.8984 65.7061 42.906 66.3128 48.3476 66.237C49.4967 64.2083 54.9573 58.7004 54.9573 58.7004L54.9953 58.909L55.0238 58.89Z" fill="#ED1C24"/>
<path fill-rule="evenodd" clip-rule="evenodd" d="M36.1255 33.3601C36.4769 33.436 36.2774 35.1044 36.4389 35.1044C36.6003 35.1044 37.2746 27.0749 37.436 26.3355C37.5975 25.5866 37.8064 25.4349 38.1198 25.4349C38.4332 25.4349 38.5092 27.6058 38.6706 30.1844C38.832 32.7629 38.7371 34.384 39.2974 34.9149C39.8672 35.4363 40.9403 37.2848 41.2537 37.8536C41.5671 38.413 41.9754 38.2423 42.0514 37.6166C42.1274 36.991 42.4883 36.8298 42.7162 36.7919C42.9536 36.754 43.0296 34.4219 43.9887 34.0996C44.9479 33.7678 45.5177 33.8531 45.6507 33.4929C45.7836 33.1421 45.8976 32.7439 46.135 32.9809C46.3724 33.2179 46.3344 33.6445 46.5243 33.6445C46.7143 33.6445 47.0467 24.6386 47.2841 24.2783C47.5215 23.9276 47.8444 23.8328 48.1578 24.5912C48.4712 25.3496 48.5092 34.1659 48.7086 34.5546C48.8985 34.9528 50.285 36.1757 50.5699 36.3748C50.8548 36.5644 51.3297 38.0148 51.4056 38.4793C51.4816 38.9533 51.89 39.5885 52.0134 38.2802C52.1274 36.972 52.3553 35.8249 52.9916 34.7442C53.6374 33.673 54.4351 32.9241 54.8719 32.962C55.3088 32.9999 55.2613 33.3601 55.4607 33.3127C55.6602 33.2748 56.3439 23.7001 56.3439 23.7001C56.3439 23.7001 56.4484 23.1123 56.8567 23.1123C57.2651 23.1123 57.2651 23.2735 57.4265 24.7713C57.588 26.2786 57.5025 34.0711 57.588 34.3081C57.6639 34.5451 59.1169 35.9482 59.4113 36.6118C59.6962 37.2848 60.1331 37.683 60.3705 38.0812C60.6079 38.4793 60.8453 37.9864 60.8833 37.7114C60.9213 37.4365 61.738 34.5925 62.5642 34.2323C63.3904 33.8626 64.2641 33.7678 64.5016 33.9005C64.739 34.0332 64.7865 34.3081 64.7865 34.3081L65.5367 25.2927C65.5367 25.2927 65.6317 24.6101 66.1445 24.5722C66.6573 24.5343 66.6953 26.3639 66.7713 29.3027C66.8472 32.232 66.8852 35.2561 67.0467 35.531C67.2081 35.806 67.493 36.242 67.7684 36.2041C68.0438 36.1662 68.6136 36.1378 69.041 36.6118C69.4778 37.0858 69.8767 37.5124 70.2755 37.4744C70.6649 37.4365 71.4436 36.1283 71.3582 37.1237C71.2727 38.1191 70.2281 38.4509 69.6013 38.0432C68.9745 37.6356 68.6991 36.7729 67.8539 36.7729C67.0087 36.7729 66.3819 36.2231 66.3059 35.3509C66.23 34.4693 66.2015 27.3593 66.0305 27.3214C65.8596 27.2835 65.6791 36.2515 65.0714 36.3274C64.4636 36.4032 64.587 34.4693 64.1122 34.4693C63.6374 34.4693 62.5168 34.5641 61.8425 36.7729C61.1682 38.9818 61.0163 39.0292 60.2945 38.868C59.5728 38.7068 58.8225 36.6592 57.8349 35.7017C56.8377 34.7442 56.9137 33.7393 56.9137 32.6776C56.9137 31.6158 56.9517 26.1649 56.7998 26.1269C56.6383 26.089 56.3914 34.3935 55.6886 34.4693C54.9859 34.5451 55.1283 33.2653 54.5395 33.91C53.9507 34.5546 52.8776 36.0998 52.6782 38.3276C52.4788 40.5554 51.0638 39.9487 50.7789 38.7163C50.494 37.4839 50.0951 36.7066 49.06 35.9387C48.0248 35.1803 47.8634 34.5925 47.8634 33.3601C47.8634 32.1277 47.9014 27.4446 47.7019 27.3972C47.5025 27.3593 47.455 34.858 46.5813 34.9433C45.7171 35.0191 46.1255 33.91 45.8786 33.9479C45.6317 33.9858 45.4417 34.4693 44.682 34.5167C43.9223 34.5546 43.4474 36.2705 43.4474 36.6212C43.4474 36.972 43.2765 37.446 43.0011 37.5218C42.7257 37.5977 42.6117 37.4934 42.5262 37.8916C42.4503 38.2802 42.3173 38.9912 41.6051 38.9533C40.9023 38.9154 40.0761 36.7634 39.5443 36.2989C39.022 35.8249 38.3097 35.0097 38.2717 33.9953C38.2337 32.9715 38.0628 27.53 37.8634 27.53C37.6639 27.53 37.6639 36.5549 36.4389 36.6307" fill="#ED1C24"/>
<path d="M87.1226 37.9858H81.6905L80.8168 40.735H77.2175L82.5072 26.5625H86.3438L91.6335 40.735H88.0342L87.1416 37.9858H87.1226ZM82.5832 35.2177H86.2299L84.416 29.2358L82.5832 35.2177Z" fill="#2B3990"/>
<path d="M106.154 31.056C106.154 32.004 105.888 32.8382 105.356 33.5397C104.824 34.2507 104.084 34.7911 103.134 35.1608L107.797 40.735H103.495L99.5918 35.8244H98.9555V40.735H95.4607V26.5625H99.9811C100.864 26.5625 101.681 26.6573 102.431 26.8374C103.181 27.027 103.837 27.3019 104.397 27.6717C104.948 28.0414 105.385 28.5059 105.698 29.0652C106.012 29.6245 106.173 30.2881 106.173 31.056H106.154ZM102.783 31.1224C102.783 30.4872 102.536 30.0132 102.032 29.7098C101.539 29.4065 100.836 29.2548 99.9431 29.2548H98.946V33.2364H99.8007C100.741 33.2364 101.472 33.0563 101.994 32.6866C102.517 32.3168 102.783 31.8049 102.783 31.1318V31.1224Z" fill="#2B3990"/>
<path d="M111.206 23.4628C111.206 22.9224 111.386 22.4674 111.738 22.0977C112.089 21.728 112.555 21.5479 113.124 21.5479C113.694 21.5479 114.15 21.7375 114.511 22.0977C114.862 22.4674 115.043 22.9224 115.043 23.4628C115.043 24.0032 114.862 24.4582 114.511 24.8184C114.16 25.1882 113.694 25.3683 113.124 25.3683C112.555 25.3683 112.099 25.1882 111.738 24.8184C111.386 24.4487 111.206 23.9937 111.206 23.4628ZM114.872 40.7353H111.377V26.5627H114.872V40.7353Z" fill="#2B3990"/>
<path d="M129.981 26.5625V29.3306H126.164V40.735H122.669V29.3306H118.851V26.5625H129.972H129.981Z" fill="#2B3990"/>
<path d="M143.362 38.4788H139.991L137.217 32.8003L136.79 40.735H133.362L134.425 26.5625H137.578L141.671 35.2177L145.764 26.5625H148.917L149.981 40.735H146.553L146.125 32.8003L143.352 38.4788H143.362Z" fill="#2B3990"/>
<path d="M154.406 23.4628C154.406 22.9224 154.587 22.4674 154.938 22.0977C155.29 21.728 155.755 21.5479 156.325 21.5479C156.895 21.5479 157.35 21.7375 157.711 22.0977C158.063 22.4674 158.243 22.9224 158.243 23.4628C158.243 24.0032 158.063 24.4582 157.711 24.8184C157.35 25.1882 156.895 25.3683 156.325 25.3683C155.755 25.3683 155.299 25.1882 154.938 24.8184C154.587 24.4487 154.406 23.9937 154.406 23.4628ZM158.072 40.7353H154.577V26.5627H158.072V40.7353Z" fill="#2B3990"/>
<path d="M84.3781 63.6201C84.3781 64.2457 84.2546 64.824 84.0077 65.3739C83.7608 65.9237 83.3999 66.3977 82.9346 66.7959C82.4693 67.2035 81.8994 67.5163 81.2347 67.7533C80.5699 67.9903 79.8102 68.1041 78.9555 68.1041C78.1768 68.1041 77.3885 68.0188 76.6098 67.8481C75.8311 67.6775 75.0998 67.431 74.4351 67.0992L75.1378 64.4353C75.6316 64.6818 76.1919 64.8904 76.8187 65.061C77.4455 65.2317 78.1198 65.3265 78.8415 65.3265C79.4398 65.3265 79.9336 65.2127 80.3135 64.9947C80.6934 64.7766 80.8833 64.4164 80.8833 63.9234C80.8833 63.5727 80.7219 63.2504 80.38 62.9565C80.0476 62.6626 79.4398 62.3592 78.5566 62.0274C77.1606 61.506 76.1445 60.8993 75.5082 60.2262C74.8719 59.5532 74.549 58.6905 74.549 57.6382C74.549 56.2636 74.9954 55.2113 75.907 54.4909C76.8092 53.7704 78.0533 53.4102 79.6487 53.4102C80.456 53.4102 81.2347 53.4955 81.9754 53.6756C82.7162 53.8557 83.3429 54.0832 83.8463 54.3676L83.248 56.9841C82.7542 56.7471 82.2128 56.548 81.6146 56.3963C81.0258 56.2447 80.418 56.1783 79.7912 56.1783C79.2689 56.1783 78.8415 56.2636 78.5281 56.4437C78.2052 56.6239 78.0438 56.9272 78.0438 57.3443C78.0438 57.5434 78.0723 57.7141 78.1293 57.8563C78.1862 57.9985 78.2907 58.1312 78.4427 58.2639C78.5946 58.3871 78.8035 58.5199 79.0694 58.6431C79.3353 58.7663 79.6772 58.918 80.0951 59.0887C80.6934 59.3257 81.2537 59.5816 81.776 59.8565C82.2983 60.122 82.7542 60.4348 83.1435 60.795C83.5234 61.1553 83.8273 61.5534 84.0457 62.0085C84.2641 62.4635 84.3781 62.9944 84.3781 63.6011V63.6201Z" fill="#2B3990"/>
<path d="M97.2271 65.1089H91.795L90.9213 67.8581H87.322L92.6117 53.6855H96.4483L101.738 67.8581H98.1387L97.2461 65.1089H97.2271ZM92.6876 62.3407H96.3344L94.5205 56.3589L92.6876 62.3407Z" fill="#2B3990"/>
<path d="M112.203 53.4292C114.046 53.4292 115.594 53.7231 116.847 54.2919L116.382 56.9179C115.157 56.4344 113.884 56.1974 112.545 56.1974C111.833 56.1974 111.197 56.2922 110.627 56.4723C110.057 56.6524 109.573 56.9463 109.164 57.335C108.756 57.7237 108.443 58.2166 108.224 58.8233C108.006 59.4206 107.892 60.141 107.892 60.9848C107.892 62.4636 108.281 63.5728 109.06 64.3217C109.829 65.0706 110.969 65.4498 112.479 65.4498C112.802 65.4498 113.115 65.4309 113.419 65.374C113.713 65.3266 113.97 65.2697 114.169 65.1939V61.2407H117.303V67.0804C116.695 67.3837 115.916 67.6302 114.967 67.8198C114.017 68.0094 113.039 68.1042 112.013 68.1042C110.817 68.1042 109.753 67.9336 108.813 67.5828C107.873 67.232 107.075 66.7486 106.429 66.1229C105.774 65.4972 105.271 64.7483 104.929 63.8761C104.577 63.004 104.406 62.037 104.406 60.9753C104.406 59.8377 104.577 58.8138 104.929 57.8848C105.28 56.9558 105.784 56.1595 106.448 55.5053C107.113 54.8417 107.93 54.3393 108.898 53.9696C109.867 53.6094 110.969 53.4292 112.203 53.4292ZM115.527 49.8174C115.29 50.7085 114.834 51.3816 114.179 51.8366C113.514 52.2916 112.735 52.5192 111.823 52.5192C110.912 52.5192 110.123 52.2916 109.468 51.8366C108.813 51.3816 108.357 50.7085 108.12 49.8174L110.361 49.2012C110.475 49.5709 110.646 49.8648 110.874 50.0923C111.102 50.3198 111.425 50.4336 111.833 50.4336C112.241 50.4336 112.564 50.3198 112.792 50.0923C113.02 49.8648 113.191 49.5709 113.305 49.2012L115.546 49.8174H115.527Z" fill="#2B3990"/>
<path d="M125.546 53.6855V65.0899H130.769V67.8581H122.052V53.6855H125.546Z" fill="#2B3990"/>
<path d="M138.338 67.8581H134.844V53.6855H138.338V67.8581Z" fill="#2B3990"/>
<path d="M143.409 67.8581V53.6855H146.904V60.4732L151.377 53.6855H155.318L150.522 60.6818L155.66 67.8486H151.463L146.904 60.9093V67.8486H143.409V67.8581Z" fill="#2B3990"/>
<path d="M170.826 53.7129C172.669 53.7129 174.217 54.0068 175.47 54.5756L175.005 57.2015C173.78 56.718 172.507 56.481 171.168 56.481C170.456 56.481 169.82 56.5758 169.25 56.756C168.68 56.9361 168.196 57.23 167.787 57.6186C167.379 58.0073 167.066 58.5003 166.847 59.107C166.629 59.7042 166.515 60.4247 166.515 61.2684C166.515 62.7473 166.904 63.8564 167.673 64.6054C168.452 65.3543 169.592 65.7335 171.092 65.7335C171.415 65.7335 171.728 65.7145 172.032 65.6576C172.336 65.6102 172.583 65.5534 172.783 65.4775V61.5244H175.917V67.364C175.309 67.6674 174.53 67.9139 173.58 68.1035C172.631 68.2931 171.652 68.3879 170.627 68.3879C169.43 68.3879 168.367 68.2172 167.426 67.8665C166.486 67.5157 165.689 67.0322 165.043 66.4066C164.388 65.7809 163.884 65.032 163.542 64.1598C163.191 63.2876 163.02 62.3207 163.02 61.2589C163.02 60.1213 163.191 59.0975 163.542 58.1685C163.894 57.2394 164.397 56.4431 165.062 55.789C165.727 55.1254 166.543 54.623 167.512 54.2532C168.481 53.893 169.582 53.7129 170.817 53.7129H170.826Z" fill="#2B3990"/>
<path d="M191.368 58.4528C191.368 59.4008 191.102 60.235 190.57 60.946C190.038 61.657 189.297 62.1974 188.338 62.5671L193.001 68.1413H188.699L184.796 63.2307H184.16V68.1413H180.665V53.9688H185.185C186.068 53.9688 186.885 54.0636 187.635 54.2437C188.386 54.4238 189.041 54.7082 189.592 55.0779C190.142 55.4476 190.579 55.9121 190.893 56.4715C191.206 57.0308 191.358 57.6944 191.358 58.4622L191.368 58.4528ZM187.996 58.5191C187.996 57.884 187.749 57.41 187.246 57.1066C186.752 56.8033 186.049 56.6516 185.157 56.6516H184.15V60.6332H185.005C185.945 60.6332 186.676 60.453 187.198 60.0833C187.721 59.7136 187.987 59.2017 187.987 58.5286L187.996 58.5191Z" fill="#2B3990"/>
<path d="M204.862 53.959H208.357V63.0218C208.357 64.6998 207.825 66.008 206.771 66.956C205.717 67.904 204.236 68.378 202.346 68.378C200.456 68.378 198.984 67.904 197.92 66.956C196.866 66.008 196.334 64.6903 196.334 63.0218V53.959H199.829V63.1261C199.829 63.9319 200.038 64.5576 200.466 64.9842C200.893 65.4108 201.52 65.6193 202.336 65.6193C203.153 65.6193 203.789 65.4108 204.217 64.9842C204.644 64.5576 204.853 63.9414 204.853 63.1261V53.959H204.862Z" fill="#2B3990"/>
<path d="M223.742 64.1405C223.742 64.7756 223.599 65.3444 223.314 65.8374C223.029 66.3303 222.621 66.7474 222.089 67.0887C221.557 67.43 220.921 67.686 220.171 67.8661C219.421 68.0462 218.594 68.1315 217.692 68.1315H213.276V53.959H218.367C219.136 53.959 219.82 54.0443 220.418 54.2149C221.026 54.3856 221.529 54.6226 221.937 54.9165C222.346 55.2103 222.669 55.5611 222.887 55.9593C223.105 56.3574 223.219 56.7935 223.219 57.258C223.219 58.1396 222.972 58.8601 222.479 59.4289C221.985 59.9977 221.273 60.4243 220.342 60.7087C220.826 60.794 221.273 60.9268 221.681 61.1164C222.089 61.2965 222.45 61.5335 222.754 61.8179C223.058 62.1023 223.295 62.4341 223.466 62.8133C223.637 63.2019 223.723 63.638 223.723 64.131L223.742 64.1405ZM217.711 59.6185C218.319 59.6185 218.822 59.4763 219.202 59.2014C219.582 58.9265 219.782 58.5188 219.782 58.0069C219.782 57.5424 219.62 57.1917 219.278 56.9452C218.946 56.6892 218.481 56.566 217.882 56.566H216.686V59.628H217.711V59.6185ZM220.285 63.8655C220.285 63.3252 220.066 62.9175 219.639 62.6331C219.202 62.3582 218.604 62.216 217.835 62.216H216.686V65.534H217.92C218.775 65.534 219.383 65.3729 219.744 65.0411C220.104 64.7093 220.285 64.3206 220.285 63.8655Z" fill="#2B3990"/>
<path d="M236.505 53.959H240V63.0218C240 64.6998 239.468 66.008 238.414 66.956C237.35 67.904 235.878 68.378 233.988 68.378C232.099 68.378 230.627 67.904 229.563 66.956C228.509 66.008 227.977 64.6903 227.977 63.0218V53.959H231.472V63.1261C231.472 63.9319 231.681 64.5576 232.108 64.9842C232.535 65.4108 233.162 65.6193 233.979 65.6193C234.796 65.6193 235.432 65.4108 235.859 64.9842C236.287 64.5576 236.496 63.9414 236.496 63.1261V53.959H236.505Z" fill="#2B3990"/>
</g>
<defs>
<clipPath id="clip0_213_2069">
<rect width="240" height="70" fill="white"/>
</clipPath>
</defs>
</svg>
