<svg width="112" height="106" viewBox="0 0 112 106" fill="none" xmlns="http://www.w3.org/2000/svg">
<g clip-path="url(#clip0_213_2386)">
<path d="M78.3456 75.809H95.0584V17.3014H112V0H6.61932C3.24531 0 0.514648 2.75381 0.514648 6.15642V30.2342C0.514648 33.6368 3.24531 36.3906 6.61932 36.3906H56.7005C57.1008 36.3906 57.4153 36.7223 57.4153 37.1115V38.1208C57.4153 38.5245 57.0865 38.8417 56.7005 38.8417H0.514648V56.2584H29.0222C29.1794 56.2584 29.2938 56.3882 29.2938 56.5324V58.7671C29.2938 58.9257 29.1651 59.0411 29.0222 59.0411H0.514648V75.7946H74.3569V59.2718H46.1925C46.0352 59.2718 45.9065 59.142 45.9065 58.9834V55.9989C45.9065 55.8403 46.0352 55.7106 46.1925 55.7106H68.4381C71.8264 55.7106 74.5856 52.9423 74.5856 49.5109V25.7359C74.5856 22.3188 71.8407 19.5362 68.4381 19.5362H17.4991C17.3418 19.5362 17.2274 19.4064 17.2274 19.2622V17.6907C17.2274 17.5321 17.3561 17.4168 17.4991 17.4168H78.3456V75.809Z" fill="#E92427"/>
<path d="M11.9806 85.6133V89.9531H5.26117V93.4422H11.5517V97.6089H5.26117V101.66H12.2236V106H0V85.6133H11.9806Z" fill="#251E20"/>
<path d="M19.415 85.6133V101.66H25.8914V106H14.1538V85.6133H19.415Z" fill="#251E20"/>
<path d="M39.23 85.6133V89.9531H32.5248V93.4422H38.8154V97.6089H32.5248V101.66H39.4873V106H27.2637V85.6133H39.2443H39.23Z" fill="#251E20"/>
<path d="M46.4785 85.6133V93.4422H46.5356L50.4386 85.6133H56.0429L50.9533 94.5235L56.672 106H50.6674L47.5793 98.8921L46.4785 100.608V106H41.2173V85.6133H46.4785Z" fill="#251E20"/>
<path d="M55.9143 90.1261V85.6133H69.0529V90.1261H65.0928V106H59.8316V90.1261H55.9286H55.9143Z" fill="#251E20"/>
<path d="M78.4456 85.6133C79.4464 85.6133 80.2899 85.743 81.0047 86.017C81.7053 86.2909 82.2914 86.6658 82.7346 87.1416C83.1778 87.6318 83.4924 88.2085 83.6925 88.8717C83.8927 89.5349 83.9928 90.2558 83.9928 91.0344C83.9928 92.4041 83.7211 93.5143 83.1778 94.3505C82.6346 95.1867 81.7625 95.7058 80.5616 95.8932V95.9509C81.8197 96.0662 82.6775 96.5132 83.1492 97.2917C83.621 98.0703 83.8498 99.1516 83.8498 100.521V103.088C83.8498 103.376 83.8498 103.65 83.8784 103.895C83.8927 104.155 83.9213 104.385 83.9642 104.602C84.007 104.818 84.0499 104.976 84.1071 105.092C84.1786 105.207 84.2644 105.322 84.3359 105.423C84.4074 105.524 84.536 105.625 84.7076 105.726V106.015H79.1319C79.0032 105.755 78.9031 105.438 78.8317 105.077C78.7602 104.717 78.7173 104.356 78.6887 103.996C78.6601 103.636 78.6458 103.29 78.6315 102.958C78.6315 102.626 78.6315 102.352 78.6315 102.151V100.781C78.6315 100.204 78.6029 99.7284 78.5457 99.3535C78.4885 98.9786 78.3885 98.6758 78.2455 98.4596C78.1025 98.2433 77.931 98.0847 77.7022 97.9982C77.4878 97.9117 77.2161 97.8684 76.9016 97.8684H75.5148V106.029H70.2537V85.6421H78.4742L78.4456 85.6133ZM76.5442 94.2352C77.3019 94.2352 77.8595 94.0189 78.2169 93.5575C78.5743 93.1106 78.7602 92.5194 78.7602 91.7985C78.7602 90.9479 78.5886 90.3279 78.2312 89.9675C77.8881 89.607 77.3162 89.4196 76.5156 89.4196H75.5005V94.2207H76.5442V94.2352Z" fill="#251E20"/>
<path d="M98.9042 85.6133V93.4422H98.9614L102.864 85.6133H108.469L103.379 94.5235L109.098 106H103.093L100.005 98.8921L98.9042 100.608V106H93.6431V85.6133H98.9042Z" fill="#251E20"/>
<path d="M91.5414 85.6133H86.2803V89.434H91.5414V85.6133Z" fill="#251E20"/>
<path d="M91.5414 90.5586H86.2803V106H91.5414V90.5586Z" fill="#251E20"/>
</g>
<defs>
<clipPath id="clip0_213_2386">
<rect width="112" height="106" fill="white"/>
</clipPath>
</defs>
</svg>
