<svg width="66" height="46" viewBox="0 0 66 46" fill="none" xmlns="http://www.w3.org/2000/svg">
<g clip-path="url(#clip0_33_61)">
<path d="M37.664 0C46.5547 0 55.4454 0 64.3361 0C65.4529 0 66.0335 0.48345 66.0003 1.37811C65.9782 2.02827 65.5137 2.53395 64.8668 2.60063C64.6291 2.62286 64.3913 2.61174 64.1481 2.61174C46.5824 2.61174 29.0222 2.61174 11.4564 2.61174C7.05534 2.61174 3.52229 5.42909 2.80352 9.7857C2.1898 13.5088 2.83669 16.943 6.05459 19.4269C7.70777 20.705 9.59869 21.1885 11.661 21.1885C17.6158 21.1718 23.5761 21.1829 29.5308 21.1885C30.7693 21.1885 31.4107 21.6497 31.3831 22.5166C31.3609 23.3668 30.7472 23.7891 29.5364 23.7891C23.5153 23.7891 17.4941 23.8002 11.473 23.7891C5.94954 23.778 1.43785 20.3216 0.35969 14.9703C-0.71847 9.63011 0.591909 5.00121 4.99854 1.9338C6.87288 0.62793 8.98497 0.0111138 11.2519 0.0055569C20.0596 0 28.8618 0 37.664 0Z" fill="#7AFF29"/>
<path d="M57.021 33.3139C57.9222 35.0977 58.7903 36.8036 59.6528 38.5096C60.5596 40.2989 61.4663 42.0827 62.3676 43.872C62.8043 44.7389 62.6274 45.478 61.9142 45.8447C61.2065 46.2059 60.5153 45.917 60.073 45.039C58.3867 41.7215 56.7003 38.3985 55.0139 35.081C54.9089 34.8754 54.7873 34.6754 54.6435 34.4142C54.4555 34.5976 54.2952 34.7365 54.1514 34.8865C52.8023 36.3091 51.4477 37.7261 50.1097 39.1653C49.6674 39.6432 49.1587 39.8766 48.5395 39.6654C47.9368 39.4543 47.7156 38.9486 47.6769 38.3262C47.5276 35.9757 47.3673 33.6195 47.2125 31.269C46.9637 27.4792 46.7149 23.6894 46.4716 19.8996C46.4108 19.0049 46.3665 18.1102 46.3002 17.2211C46.2504 16.571 46.444 16.0542 47.0411 15.7486C47.6603 15.4374 48.169 15.6874 48.639 16.1098C51.6689 18.8326 54.6933 21.5555 57.7232 24.2784C59.8905 26.2289 62.0579 28.1849 64.2308 30.1298C64.7119 30.5633 65.0657 31.03 64.8224 31.7246C64.5847 32.397 64.0539 32.5915 63.396 32.6471C61.5161 32.8027 59.6362 32.9972 57.7563 33.1805C57.5407 33.2028 57.3306 33.2528 57.021 33.3084V33.3139ZM49.2859 20.133C49.2361 20.1496 49.1808 20.1663 49.1311 20.183C49.4573 25.212 49.7835 30.2465 50.1208 35.4255C50.4083 35.1255 50.5852 34.9365 50.7621 34.7476C51.7905 33.6473 52.7968 32.5304 53.8584 31.469C54.1569 31.169 54.6048 30.9522 55.025 30.8522C55.5668 30.7188 56.1474 30.7411 56.7058 30.6799C57.9443 30.5521 59.1828 30.4132 60.554 30.2632C56.7279 26.8235 53.0124 23.4782 49.2914 20.133H49.2859Z" fill="#7AFF29"/>
<path d="M19.0917 10.7577C18.0467 12.7249 17.0349 14.6253 16.0231 16.5313C15.9125 16.7425 15.7909 16.9537 15.6858 17.1648C15.4149 17.6983 15.0057 17.9984 14.3865 17.965C13.7893 17.9317 13.4465 17.5816 13.2254 17.0592C12.385 15.0754 11.539 13.0916 10.6986 11.1078C10.3392 10.2687 9.97431 9.42963 9.63704 8.57942C9.31083 7.76811 9.56517 7.06239 10.2618 6.76232C10.964 6.46224 11.6551 6.75676 12.0035 7.55695C12.7499 9.27403 13.4687 11.0022 14.204 12.7249C14.3146 12.9805 14.4307 13.2361 14.6021 13.6195C14.7625 13.3417 14.8786 13.1527 14.9836 12.9583C15.9623 11.1356 16.9409 9.31293 17.9085 7.48471C18.2015 6.93458 18.5609 6.5067 19.252 6.53448C19.9155 6.56227 20.2307 6.99015 20.485 7.53473C21.436 9.56855 22.398 11.5913 23.4043 13.714C23.5481 13.4639 23.6531 13.2917 23.7471 13.1139C24.6871 11.319 25.6381 9.52965 26.5669 7.73477C26.86 7.17353 27.2249 6.76232 27.9105 6.78454C28.574 6.80121 28.9002 7.23465 29.16 7.77367C30.4981 10.5132 31.8416 13.2528 33.1852 15.9868C33.434 16.498 33.4727 16.987 33.1299 17.4649C32.8147 17.8983 32.3448 18.1151 31.8748 17.9261C31.4933 17.7705 31.0841 17.4427 30.8962 17.087C29.9175 15.2144 29.0052 13.3139 28.0708 11.419C28.0155 11.3023 27.9492 11.1912 27.8497 11.0022C27.717 11.2356 27.6009 11.419 27.4958 11.6135C26.5448 13.425 25.5883 15.2366 24.6428 17.0537C24.3608 17.5927 23.9959 17.9761 23.338 17.9595C22.6745 17.9428 22.3372 17.5316 22.0774 16.987C21.1982 15.1143 20.3081 13.2472 19.4179 11.3801C19.3239 11.1856 19.2244 11.0022 19.0917 10.7466V10.7577Z" fill="#7AFF29"/>
<path d="M59.0556 9.88557C58.8621 10.2079 58.7184 10.5802 58.464 10.8469C57.3306 12.025 56.175 13.1753 55.0084 14.32C54.3781 14.9368 53.6483 14.9535 53.1009 14.4144C52.548 13.8643 52.5535 13.1308 53.1728 12.5029C54.3449 11.3026 55.5336 10.119 56.7169 8.93534C57.1426 8.51301 57.6402 8.37965 58.2042 8.62971C58.7073 8.85754 58.9561 9.2632 59.0556 9.88557Z" fill="#7AFF29"/>
<path d="M38.7197 10.0305C38.7308 9.24696 38.9796 8.8413 39.4883 8.61903C40.0412 8.38008 40.5554 8.49122 40.9866 8.91354C41.9431 9.86377 42.8997 10.8251 43.8507 11.7865C44.0939 12.031 44.3538 12.2699 44.5805 12.5366C45.0836 13.1312 45.067 13.8536 44.5584 14.3649C44.0552 14.865 43.3088 14.8761 42.7504 14.3315C41.5451 13.1646 40.3453 11.9865 39.1731 10.7862C38.9298 10.5417 38.8082 10.175 38.7253 10.0305H38.7197Z" fill="#7AFF29"/>
<path d="M47.5774 8.66368C47.5774 7.83571 47.5663 7.00217 47.5774 6.17419C47.5939 5.36844 48.0694 4.85721 48.7827 4.82387C49.5346 4.79053 50.1262 5.27953 50.1428 6.09084C50.1871 7.81348 50.1815 9.54167 50.1428 11.2643C50.1262 12.0701 49.5125 12.5924 48.7937 12.5646C48.0639 12.5313 47.5884 11.9978 47.5718 11.1532C47.5552 10.3252 47.5718 9.49166 47.5718 8.66368H47.5774Z" fill="#7AFF29"/>
<path d="M38.8802 19.9602C38.0785 19.9602 37.2712 19.9713 36.4695 19.9602C35.618 19.938 35.0983 19.4712 35.0707 18.7321C35.043 17.9541 35.5406 17.3818 36.4032 17.3651C38.0729 17.3262 39.7482 17.3262 41.418 17.3651C42.2695 17.3818 42.7947 17.9764 42.7615 18.7321C42.7284 19.4656 42.2031 19.9213 41.3516 19.9602C41.3074 19.9602 41.2632 19.9602 41.219 19.9602C40.4394 19.9602 39.6542 19.9602 38.8746 19.9602H38.8802Z" fill="#7AFF29"/>
<path d="M58.7624 19.9769C57.9607 19.9769 57.1534 19.9936 56.3517 19.9714C55.4781 19.9436 54.9252 19.4268 54.9197 18.6877C54.9142 17.9487 55.4671 17.3874 56.3296 17.3763C57.9773 17.3485 59.6304 17.3485 61.2836 17.3763C62.124 17.393 62.6327 17.9209 62.6382 18.6655C62.6438 19.4324 62.124 19.9269 61.2449 19.9769C61.2007 19.9769 61.1565 19.9769 61.1122 19.9769C60.3326 19.9769 59.5475 19.9769 58.7679 19.9769H58.7624Z" fill="#7AFF29"/>
<path d="M38.7144 27.3231C38.8139 27.1508 38.9521 26.773 39.2064 26.5118C40.3122 25.3782 41.4512 24.2724 42.5847 23.1665C43.132 22.6331 43.8785 22.6275 44.3871 23.1165C44.9124 23.6222 44.9235 24.4168 44.3761 24.9781C43.2537 26.1284 42.1147 27.262 40.9757 28.3956C40.5555 28.8123 40.0634 28.9735 39.494 28.7179C38.9908 28.49 38.7365 28.0955 38.7144 27.3231Z" fill="#7AFF29"/>
</g>
<defs>
<clipPath id="clip0_33_61">
<rect width="66" height="46" fill="white"/>
</clipPath>
</defs>
</svg>
