<svg width="218" height="95" viewBox="0 0 218 95" fill="none" xmlns="http://www.w3.org/2000/svg">
<g clip-path="url(#clip0_213_2272)">
<path d="M15.5385 15.6551C7.78533 15.6551 1.47782 21.9021 1.47782 29.581V79.6212C1.47782 87.3001 7.78533 93.5472 15.5385 93.5472H58.813V15.6551H15.5385ZM60.2908 95.0003H15.5385C6.97146 95.0003 0 88.0956 0 79.6106V29.581C0 21.0961 6.97146 14.1914 15.5385 14.1914H60.2908V95.0003Z" fill="#FF6A00"/>
<path d="M30.5628 14.1487C30.6485 14.1699 30.7663 14.1911 30.9483 14.1911H58.8127V1.46366H45.2768C44.2273 1.46366 42.6531 2.11064 41.9142 2.84247L30.8091 13.8411C30.6806 13.9684 30.6056 14.0745 30.5628 14.1381M60.2906 15.6442H30.9483C29.7061 15.6442 29.2778 15.0715 29.1278 14.7214C28.9886 14.382 28.8708 13.6714 29.7596 12.7911L40.8647 1.81367C41.8821 0.795467 43.8204 0 45.2768 0H60.2906V15.6548V15.6442Z" fill="#FF6A00"/>
<path d="M59.9801 86.07C59.8409 86.07 59.7017 86.0806 59.5517 86.0806C42.1284 86.0806 27.9392 72.0379 27.9392 54.7816C27.9392 37.5253 42.1177 23.4826 59.5517 23.4826C59.691 23.4826 59.8302 23.4826 59.9801 23.4826V21.2235C59.8409 21.2235 59.7017 21.2129 59.5517 21.2129C40.8648 21.2129 25.6689 36.2631 25.6689 54.771C25.6689 73.2789 40.8648 88.3291 59.5517 88.3291C59.691 88.3291 59.8302 88.3291 59.9801 88.3185V86.0594V86.07Z" fill="#FF6A00"/>
<path d="M59.5518 70.6689C50.7063 70.6689 43.4993 63.5415 43.4993 54.7702C43.4993 45.9988 50.6956 38.8714 59.5518 38.8714V36.6123C49.4427 36.6123 41.229 44.7579 41.229 54.7596C41.229 64.7612 49.4534 72.9068 59.5518 72.9068V70.6477V70.6689Z" fill="#FF6A00"/>
<path d="M101.777 77.3726H103.126V77.712C103.972 76.906 104.979 76.5029 106.157 76.5029C107.335 76.5029 108.406 76.9272 109.262 77.7757C109.487 78.009 109.691 78.253 109.862 78.5287C110.034 78.2742 110.237 78.0196 110.483 77.7757C111.34 76.9272 112.368 76.5029 113.589 76.5029C114.81 76.5029 115.838 76.9272 116.694 77.7757C117.508 78.5924 117.937 79.5787 117.979 80.7136V92.0305H116.619V80.7136H116.63C116.587 79.9394 116.298 79.2818 115.741 78.7302C115.142 78.1363 114.424 77.8499 113.589 77.8499C112.754 77.8499 112.036 78.1363 111.447 78.7302C110.847 79.3136 110.548 80.0454 110.548 80.9257V92.0305H109.188V80.7136H109.198C109.155 79.9394 108.856 79.2818 108.309 78.7302C107.71 78.1363 106.992 77.8499 106.157 77.8499C105.322 77.8499 104.604 78.1363 104.015 78.7302C103.49 79.2393 103.201 79.8545 103.126 80.5969V92.0305H101.777V77.3726ZM89.8795 77.4787C87.9947 77.4787 86.3777 78.1363 85.0391 79.4621C83.7005 80.7878 83.0365 82.3788 83.0365 84.2561C83.0365 86.1334 83.7005 87.7243 85.0391 89.0395C86.367 90.3547 87.984 91.0123 89.8795 91.0123C91.7749 91.0123 93.3813 90.3547 94.7199 89.0395C96.0478 87.7243 96.7224 86.1228 96.7224 84.2561C96.7224 82.3894 96.0585 80.7878 94.7199 79.4621C93.3813 78.1363 91.7642 77.4787 89.8795 77.4787ZM89.8795 76.0469C92.1712 76.0469 94.1202 76.8529 95.7372 78.4545C97.3542 80.056 98.1574 81.9864 98.1574 84.2667C98.1574 86.547 97.3542 88.4562 95.7372 90.0577C94.1309 91.6592 92.1712 92.4653 89.8795 92.4653C87.5878 92.4653 85.6495 91.6698 84.0324 90.0577C82.4154 88.4562 81.6122 86.5258 81.6122 84.2667C81.6122 82.0076 82.4154 80.056 84.0324 78.4545C85.6495 76.8529 87.5985 76.0469 89.8795 76.0469ZM77.4572 88.5092L78.8922 89.0183C78.6352 89.3789 78.3353 89.7183 78.0034 90.0471C76.3863 91.6486 74.4266 92.4547 72.1349 92.4547C69.8432 92.4547 67.9049 91.6592 66.2879 90.0471C64.6708 88.4455 63.8677 86.5152 63.8677 84.2455C63.8677 81.9758 64.6708 80.056 66.2879 78.4545C67.9049 76.8529 69.8539 76.0469 72.1349 76.0469C74.4159 76.0469 76.3756 76.8423 78.0034 78.4545C78.3353 78.7833 78.6352 79.1227 78.8922 79.4727L77.4572 79.9924C77.3073 79.8121 77.1466 79.6318 76.9753 79.4515C75.6367 78.1363 74.0197 77.4893 72.1349 77.4893C70.2501 77.4893 68.6438 78.1469 67.3159 79.4621C65.9773 80.7772 65.3134 82.3682 65.3134 84.2455C65.3134 86.1228 65.9773 87.7137 67.3159 89.0395C68.6438 90.3653 70.2609 91.0229 72.1349 91.0229C74.009 91.0229 75.6367 90.3653 76.9753 89.0395C77.1466 88.8698 77.3073 88.7001 77.4572 88.5198V88.5092ZM100.01 44.5039L96.3583 48.9798L101.873 58.642H99.5496L95.0733 50.5177L94.2487 51.5465V58.642H92.3318V38.766H94.2487V48.5237L97.5256 44.5039H99.9993H100.01ZM85.2532 46.1903C84.4287 45.5646 83.3364 45.2464 81.987 45.2464C80.3486 45.2464 78.9457 45.8191 77.7785 46.9646C76.6112 48.1207 76.0329 49.5101 76.0329 51.1328C76.0329 52.4798 76.3542 53.5617 76.986 54.3677L85.2532 46.1797V46.1903ZM78.2818 55.7678C79.2242 56.6163 80.4664 57.0405 81.987 57.0405C83.6362 57.0405 85.0391 56.4678 86.2063 55.3329C86.3563 55.1844 86.549 54.9617 86.7739 54.6859L88.7229 55.3647C88.3053 55.9587 87.9412 56.4041 87.6199 56.7117C86.0671 58.2602 84.1824 59.0239 81.987 59.0239C79.7917 59.0239 77.9284 58.2496 76.3649 56.7117C74.8121 55.1738 74.0411 53.3177 74.0411 51.1328C74.0411 48.948 74.8228 47.1131 76.3649 45.5752C77.9177 44.0373 79.7917 43.263 81.987 43.263C83.8611 43.263 85.5103 43.8251 86.9345 44.9388C87.1594 45.1297 87.395 45.3418 87.6199 45.5646C87.7056 45.66 87.8555 45.8191 88.0697 46.0631L86.9131 47.2191L78.2711 55.7678H78.2818ZM66.6413 44.5039V38.7554H68.5581V44.5039H71.3317V46.3812H68.5581V58.6314H66.6413V46.3812H63.8677V44.5039H66.6413ZM113.632 21.0111V10.2246H114.992V20.6717C114.992 21.5521 115.292 22.2733 115.891 22.8672C116.491 23.4612 117.198 23.7476 118.033 23.7476C118.868 23.7476 119.586 23.4612 120.186 22.8672C120.742 22.3263 121.031 21.6581 121.074 20.8839H121.064V10.2246H122.424V20.8839C122.381 22.0293 121.952 23.0051 121.139 23.8112C120.282 24.6703 119.254 25.0945 118.033 25.0945C116.812 25.0945 115.784 24.6703 114.927 23.8112C114.692 23.5779 114.499 23.3445 114.328 23.09C114.156 23.3445 113.942 23.5779 113.707 23.8112C112.85 24.6703 111.811 25.0945 110.601 25.0945C109.391 25.0945 108.352 24.6703 107.496 23.8112C106.682 23.0051 106.253 22.0293 106.21 20.8839V10.2246H107.56V20.8839H107.549C107.592 21.6581 107.892 22.3157 108.459 22.8672C109.048 23.4612 109.766 23.7476 110.601 23.7476C111.436 23.7476 112.154 23.4612 112.754 22.8672C113.268 22.3581 113.557 21.743 113.632 21.0005V21.0111ZM92.9101 21.0111V10.2246H94.2701V20.6717C94.2701 21.5521 94.5699 22.2733 95.1696 22.8672C95.7693 23.4612 96.4761 23.7476 97.3114 23.7476C98.1467 23.7476 98.8642 23.4612 99.4639 22.8672C100.021 22.3263 100.31 21.6581 100.353 20.8839H100.342V10.2246H101.702V20.8839C101.659 22.0293 101.231 23.0051 100.417 23.8112C99.5603 24.6703 98.5322 25.0945 97.3114 25.0945C96.0906 25.0945 95.0625 24.6703 94.2058 23.8112C93.9702 23.5779 93.7775 23.3445 93.6061 23.09C93.4348 23.3445 93.2206 23.5779 92.985 23.8112C92.1283 24.6703 91.0896 25.0945 89.8795 25.0945C88.6694 25.0945 87.6306 24.6703 86.7739 23.8112C85.96 23.0051 85.5317 22.0293 85.4888 20.8839V10.2246H86.8382V20.8839H86.8274C86.8703 21.6581 87.1701 22.3157 87.7377 22.8672C88.3267 23.4612 89.0442 23.7476 89.8795 23.7476C90.7148 23.7476 91.4323 23.4612 92.0319 22.8672C92.546 22.3581 92.8351 21.743 92.9101 21.0005V21.0111ZM72.1885 21.0111V10.2246H73.5485V20.6717C73.5485 21.5521 73.8483 22.2733 74.448 22.8672C75.0477 23.4612 75.7545 23.7476 76.5898 23.7476C77.4251 23.7476 78.1426 23.4612 78.7423 22.8672C79.2991 22.3263 79.5883 21.6581 79.6311 20.8839H79.6204V10.2246H80.9804V20.8839C80.9376 22.0293 80.5092 23.0051 79.6954 23.8112C78.8386 24.6703 77.8106 25.0945 76.5898 25.0945C75.369 25.0945 74.3409 24.6703 73.4842 23.8112C73.2486 23.5779 73.0559 23.3445 72.8845 23.09C72.7132 23.3445 72.499 23.5779 72.2634 23.8112C71.4067 24.6703 70.3679 25.0945 69.1578 25.0945C67.9477 25.0945 66.909 24.6703 66.0523 23.8112C65.2384 23.0051 64.8101 22.0293 64.7672 20.8839V10.2246H66.1165V20.8839H66.1058C66.1487 21.6581 66.4485 22.3157 67.0161 22.8672C67.6051 23.4612 68.3226 23.7476 69.1578 23.7476C69.9931 23.7476 70.7106 23.4612 71.3103 22.8672C71.8243 22.3581 72.1135 21.743 72.1885 21.0005V21.0111Z" fill="#58595B"/>
<path d="M208.565 47.9084V58.6419H206.648V44.5038H208.565V44.9069C209.39 44.0902 210.6 43.6766 212.196 43.6766C213.898 43.6766 215.28 44.2069 216.351 45.2781C217.422 46.3387 217.968 47.6751 218 49.2766V58.6313H216.094V49.3933C216.094 48.3433 215.708 47.4418 214.937 46.6887C214.155 45.9463 213.245 45.5645 212.196 45.5645C211.146 45.5645 210.225 45.9357 209.444 46.6675C209.026 47.0812 208.726 47.4948 208.555 47.8978M200.909 39.6992C201.337 39.6992 201.712 39.8477 202.022 40.1553C202.333 40.4629 202.483 40.8235 202.483 41.2583C202.483 41.6932 202.333 42.0644 202.022 42.372C201.712 42.6796 201.337 42.8281 200.909 42.8281C200.48 42.8281 200.105 42.6796 199.795 42.372C199.484 42.075 199.324 41.7038 199.324 41.2583C199.324 40.8129 199.474 40.4629 199.795 40.1553C200.105 39.8583 200.48 39.6992 200.909 39.6992ZM201.851 44.4932V58.6313H199.934V44.4932H201.851ZM191.592 46.5721H184.802V44.6735H194.89L187.854 56.7328H195.179V58.6313H184.567L191.592 46.5721ZM178.131 52.3312V49.9554C177.917 48.8312 177.371 47.8342 176.503 46.9751C175.336 45.819 173.933 45.2463 172.284 45.2463C170.635 45.2463 169.232 45.819 168.065 46.9751C166.897 48.1312 166.319 49.5206 166.319 51.1539C166.319 52.7873 166.897 54.1767 168.065 55.3222C169.232 56.4677 170.635 57.0298 172.284 57.0298C173.933 57.0298 175.336 56.4571 176.503 55.3222C177.381 54.4419 177.927 53.4449 178.131 52.3418V52.3312ZM180.048 58.6313H178.131V56.5525C176.428 58.1965 174.479 59.0132 172.284 59.0132C170.088 59.0132 168.225 58.2389 166.672 56.701C165.12 55.1631 164.338 53.3176 164.338 51.1433C164.338 48.9691 165.12 47.113 166.672 45.5645C168.225 44.0266 170.088 43.2523 172.284 43.2523C174.479 43.2523 176.439 44.069 178.131 45.7129V44.472H180.048V58.6101V58.6313ZM158.116 56.6798L158.009 56.7116C156.445 58.2601 154.571 59.0238 152.376 59.0238C150.181 59.0238 148.317 58.2495 146.765 56.7116C145.212 55.1737 144.43 53.3282 144.43 51.1539C144.43 48.9797 145.212 47.1236 146.765 45.5857C148.317 44.0584 150.181 43.2841 152.376 43.2841C154.571 43.2841 156.531 44.1008 158.223 45.7342V44.4932H160.14V55.301C160.14 57.4116 159.38 59.2147 157.87 60.7208C156.317 62.2587 154.454 63.0223 152.258 63.0223C150.063 63.0223 148.178 62.2587 146.625 60.7208C146.315 60.4026 145.951 59.9571 145.522 59.3738L147.471 58.695C147.707 58.9601 147.889 59.1723 148.039 59.3207C149.206 60.4768 150.609 61.0496 152.258 61.0496C153.907 61.0496 155.3 60.4662 156.456 59.3207C157.506 58.2813 158.062 57.3904 158.116 56.6798ZM158.212 49.8918C157.987 48.7994 157.452 47.8236 156.595 46.9857C155.428 45.8296 154.025 45.2569 152.376 45.2569C150.727 45.2569 149.324 45.8296 148.157 46.9857C146.99 48.1418 146.411 49.5312 146.411 51.1646C146.411 52.7979 146.99 54.1873 148.157 55.3328C149.324 56.4889 150.727 57.051 152.376 57.051C154.025 57.051 155.428 56.4783 156.595 55.3222C157.441 54.4843 157.977 53.5191 158.212 52.4373V49.8812V49.8918ZM138.38 52.3418V49.966C138.165 48.8418 137.619 47.8448 136.752 46.9857C135.585 45.8296 134.182 45.2569 132.533 45.2569C130.883 45.2569 129.481 45.8296 128.313 46.9857C127.146 48.1418 126.568 49.5312 126.568 51.1646C126.568 52.7979 127.146 54.1873 128.313 55.3328C129.481 56.4783 130.883 57.0404 132.533 57.0404C134.182 57.0404 135.585 56.4677 136.752 55.3328C137.63 54.4525 138.176 53.4555 138.38 52.3525V52.3418ZM140.296 58.6419H138.38V56.5631C136.677 58.2071 134.728 59.0238 132.533 59.0238C130.337 59.0238 128.474 58.2495 126.921 56.7116C125.368 55.1737 124.587 53.3282 124.587 51.1539C124.587 48.9797 125.368 47.1236 126.921 45.5751C128.474 44.0372 130.337 43.2629 132.533 43.2629C134.728 43.2629 136.688 44.0796 138.38 45.7236V44.4826H140.296V58.6207V58.6419ZM104.882 44.5038H106.799V44.366C107.26 43.9205 108.084 43.6978 109.252 43.6978C110.419 43.6978 111.49 44.122 112.346 44.9705L112.657 45.2887L112.989 44.9705C113.846 44.122 114.874 43.6978 116.073 43.6978C117.272 43.6978 118.322 44.122 119.168 44.9705C119.982 45.7766 120.41 46.7524 120.453 47.8978V58.6419H118.536V47.5796C118.515 47.1766 118.279 46.7524 117.829 46.3069C117.347 45.8296 116.769 45.5857 116.084 45.5857C115.398 45.5857 114.831 45.8296 114.349 46.3069C113.856 46.7842 113.621 47.3781 113.621 48.0993V58.6313H111.725V47.569H111.715C111.693 47.166 111.458 46.7418 111.018 46.2963C110.526 45.819 109.948 45.5751 109.273 45.5751C108.598 45.5751 108.009 45.819 107.538 46.2963C107.11 46.6993 106.863 47.2084 106.821 47.7918V58.6313H104.904V44.4932L104.882 44.5038Z" fill="#FF6A00"/>
</g>
<defs>
<clipPath id="clip0_213_2272">
<rect width="218" height="95" fill="white"/>
</clipPath>
</defs>
</svg>
