<svg width="258" height="79" viewBox="0 0 258 79" fill="none" xmlns="http://www.w3.org/2000/svg">
<g clip-path="url(#clip0_228_2117)">
<path fill-rule="evenodd" clip-rule="evenodd" d="M0 58.6849V20.0682C0.423066 19.7855 0.775622 19.4322 1.23394 19.1849C2.74993 18.3016 4.26592 17.4184 5.78191 16.5351C7.43892 15.5812 9.09593 14.6272 10.7529 13.6733C11.176 13.426 11.2465 13.4613 11.2465 13.9913C11.2465 24.8732 11.2465 35.7551 11.2465 46.6371C11.2465 48.1916 11.2465 49.7462 11.2465 51.3008C11.2465 52.0427 11.5638 52.608 12.2337 52.9966C12.8683 53.3499 13.5029 53.7386 14.1375 54.1272C16.6759 55.6111 19.2495 57.1304 21.7879 58.6143C22.211 58.8616 22.4225 58.7556 22.4578 58.2609C22.493 57.7663 22.5283 57.2717 22.5283 56.7771C22.5283 41.8674 22.5283 26.9577 22.5283 12.0481C22.5283 10.6702 22.5283 9.29226 22.5283 7.91435C22.5283 6.99574 23.0219 6.46578 23.7622 6.04181C25.525 5.05254 27.2525 4.06328 29.0153 3.03868C30.4255 2.22607 31.8005 1.37812 33.2107 0.565512C33.669 0.282864 33.8806 0.424188 33.8806 0.954152C33.8806 26.2158 33.8806 51.4774 33.8806 76.7037C33.8806 77.1277 33.8806 77.5516 33.8806 77.9756C33.8806 78.3289 33.669 78.4703 33.3517 78.2936C31.2364 77.057 29.1563 75.8204 27.041 74.5838C24.3263 72.994 21.6116 71.4394 18.897 69.8495C16.6054 68.5069 14.3137 67.1643 12.0574 65.8218C10.0478 64.6558 8.00301 63.4546 5.99344 62.2887C4.72424 61.5467 3.4903 60.8401 2.2211 60.1335C1.44548 59.7095 0.669855 59.2502 0.0352555 58.6143L0 58.6849Z" fill="#212E38"/>
<path d="M58.1715 32.7873C58.1715 33.4939 58.4888 33.7766 59.1939 33.8119C59.9343 33.8119 60.6747 33.8119 61.415 33.8119C63.8477 33.8119 66.2803 33.8119 68.7129 33.8119C69.0655 33.8119 69.418 33.8119 69.7353 33.5646V19.9622C69.3123 19.6795 69.418 19.7502 68.9597 19.5029C68.5014 19.2555 68.5014 19.2909 68.0431 19.0082L60.6042 14.6625C58.9824 13.6379 57.2901 12.7547 55.6331 11.7654C52.1781 9.71619 48.6878 7.73766 45.2327 5.7238C42.377 4.06324 39.5213 2.40269 36.7009 0.67147C36.1016 0.459485 36.1016 -0.0351485 36.1016 1.2721V78.1169C36.1016 78.1169 36.1016 78.3996 36.1016 78.4702C36.2426 78.3996 36.9477 77.9756 37.3708 77.7283C38.922 76.8097 41.1079 75.5378 41.9187 75.0784C45.9026 72.7466 49.9217 70.4501 53.9056 68.0829C55.3511 67.235 56.7966 66.4224 58.2068 65.6097C59.7933 64.6911 61.3798 63.7372 63.0015 62.8186C63.9534 62.2886 64.9053 61.7233 65.8572 61.1934C66.3156 60.9107 66.7739 60.6634 67.1969 60.3808C68.0431 59.8861 68.9245 59.4268 69.6648 58.7909V45.0825C69.6648 45.0825 69.3123 44.9765 69.1007 44.9765C65.7515 44.9765 62.4374 44.9765 59.0882 44.9765C58.3125 44.9765 58.101 45.1885 58.101 45.9657C58.101 47.485 58.101 49.0042 58.101 50.5234C58.101 50.6648 58.101 50.8414 58.101 50.9827C58.1715 51.6187 57.9952 52.184 57.4664 52.5726C57.1491 52.7846 56.7966 52.9613 56.4793 53.1733C55.3863 53.8092 54.2934 54.4452 53.1652 55.1165C52.3544 55.6111 51.5082 56.1057 50.6974 56.565C49.7455 57.095 48.8288 57.6603 47.9122 58.1903C47.5949 58.3669 47.4186 58.2609 47.4891 57.9076C47.5244 57.4836 47.4891 57.095 47.4891 56.671C47.4891 45.2238 47.4891 33.7766 47.4891 22.3293C47.4891 21.87 47.5596 21.4107 47.4891 20.9514C47.4538 20.5981 47.6301 20.4921 47.9827 20.6335C48.0532 20.6335 48.1237 20.7041 48.1942 20.7394C49.7455 21.6934 51.332 22.5767 52.9185 23.5306C54.0466 24.2019 55.1748 24.8378 56.2677 25.5091C56.5145 25.6504 56.7613 25.8271 57.0434 25.9331C57.5722 26.2157 57.96 26.5691 58.0658 27.1697C58.0658 27.3463 58.0658 27.5583 58.0658 27.735C58.0658 29.3955 58.0658 31.0561 58.0658 32.7166L58.1715 32.7873Z" fill="#FFC912"/>
<path d="M35.7139 78.9996V78.4696C35.7139 78.4696 35.7139 78.2576 35.7139 78.1163V1.23615C35.7139 0.38821 35.7139 0.176225 35.9607 0.0702317C36.1722 -0.0357611 36.3837 0.0702317 36.4895 0.140894C36.56 0.176225 36.6658 0.246886 36.8068 0.282217H36.842H36.8773C39.0631 1.62479 41.2842 2.93204 43.4701 4.16862C44.1399 4.55726 44.7745 4.9459 45.4444 5.29921C46.9604 6.18249 48.5116 7.06576 49.9924 7.94903C51.8962 9.04429 53.9057 10.2102 55.8448 11.3408C56.4794 11.7294 57.114 12.0828 57.7486 12.4361C58.771 13.0014 59.7934 13.602 60.8158 14.2379L68.2547 18.5836C68.4663 18.725 68.572 18.7603 68.713 18.831C68.8188 18.9016 68.9246 18.937 69.1714 19.0783C69.4887 19.2549 69.5239 19.2903 69.665 19.3609C69.7355 19.3963 69.806 19.4669 69.947 19.5376L70.1233 19.6436V33.6346L69.9823 33.7406C69.5944 34.0586 69.1714 34.0939 68.7483 34.0939C66.3157 34.0939 63.883 34.0939 61.4504 34.0939C61.1684 34.0939 60.8511 34.0939 60.5338 34.0939C60.1107 34.0939 59.6524 34.0939 59.1941 34.0939C58.3127 34.0939 57.8543 33.5993 57.8191 32.716C57.8191 31.7974 57.8191 30.8788 57.8191 29.9955C57.8191 29.2536 57.8191 28.4763 57.8191 27.7344V27.6284C57.8191 27.6284 57.8191 27.3457 57.8191 27.2397C57.7486 26.8158 57.5018 26.5331 56.973 26.2505C56.6909 26.1091 56.4441 25.9678 56.1973 25.7912C55.4922 25.3319 54.7519 24.9079 54.0115 24.4839C53.6237 24.2366 53.2359 24.0246 52.8128 23.7773C52.1077 23.3533 51.4026 22.9294 50.6975 22.5407C49.8513 22.0461 48.9347 21.5161 48.0886 20.9862C48.0533 20.9862 47.9828 20.9155 47.9475 20.9155C47.9475 21.2335 47.9475 21.5161 47.9475 21.7988C47.9475 21.9754 47.9475 22.1167 47.9475 22.2581C47.9475 33.564 47.9475 45.1172 47.9475 56.5998C47.9475 56.7411 47.9475 56.8824 47.9475 57.0237C47.9475 57.2357 47.9475 57.483 47.9475 57.7303C48.1943 57.589 48.4059 57.4477 48.6526 57.3064C49.2872 56.9177 49.9571 56.5291 50.627 56.1404C51.191 55.8225 51.7199 55.5045 52.2487 55.1865C52.5308 55.0099 52.8128 54.8685 53.0948 54.6919C53.6237 54.3739 54.1878 54.0559 54.7166 53.7379C55.2807 53.42 55.8448 53.102 56.3736 52.7487C56.4794 52.678 56.5851 52.6427 56.6557 52.572C56.9024 52.4307 57.114 52.3247 57.3255 52.1834C57.7133 51.9007 57.8896 51.4768 57.8191 50.9115C57.8191 50.7701 57.8191 50.5935 57.8191 50.4168V50.1342C57.8191 48.6856 57.8191 47.2724 57.8191 45.8238C57.8191 44.8699 58.2069 44.4812 59.1588 44.4812C62.5081 44.4812 65.8221 44.4812 69.1714 44.4812H69.2419C69.4182 44.4812 69.7002 44.4812 69.947 44.6932L70.0528 44.7992V58.8256L69.9117 58.9316C69.3124 59.4262 68.6425 59.8149 68.0079 60.1682C67.7964 60.2742 67.5849 60.4155 67.3733 60.5215C67.1971 60.6275 66.9855 60.7688 66.774 60.8748C66.5272 61.0161 66.2804 61.1574 65.9984 61.3341C65.54 61.5814 65.117 61.8641 64.6587 62.1114C64.1651 62.394 63.6363 62.712 63.1427 62.9946C62.0498 63.5953 60.9216 64.2666 59.8639 64.9025C59.3703 65.1852 58.8415 65.5032 58.3479 65.7858C57.7133 66.1744 57.0435 66.5277 56.4089 66.9164C55.6332 67.3757 54.8224 67.835 54.0467 68.2943C51.7904 69.6369 49.4988 70.9441 47.3129 72.2514C45.5854 73.2406 43.8226 74.2652 42.0951 75.2898C41.39 75.6785 39.7683 76.6324 38.3228 77.4803L37.5472 77.9396C37.1241 78.187 36.419 78.6109 36.278 78.6816H36.2427V78.7169L35.7491 78.9289L35.7139 78.9996ZM36.4542 0.882844C36.4542 0.882844 36.4542 1.09483 36.4542 1.20082V77.869C36.701 77.7277 36.9831 77.551 37.2299 77.4097L38.0055 76.9504C39.451 76.1024 41.108 75.1485 41.7778 74.7599C43.5053 73.7353 45.2681 72.7107 46.9956 71.7214C49.2167 70.4495 51.5083 69.1069 53.7294 67.7643C54.5051 67.305 55.3159 66.8457 56.0916 66.3864C56.7262 66.0331 57.396 65.6445 58.0306 65.2558C58.5242 64.9732 59.053 64.6552 59.5466 64.3726C60.6043 63.7366 61.7325 63.1006 62.8254 62.4647C63.319 62.182 63.8478 61.8641 64.3414 61.5814C64.7997 61.3341 65.2227 61.0514 65.6811 60.8041C65.9279 60.6628 66.1747 60.4862 66.4567 60.3448C66.633 60.2388 66.8445 60.1328 67.0208 59.9915C67.2323 59.8502 67.4439 59.7442 67.6554 59.6382C68.2547 59.2849 68.8188 58.9669 69.3124 58.5783V45.2938H69.2419C69.2066 45.2938 69.1714 45.2938 69.1361 45.2938C65.7868 45.2938 62.4728 45.2938 59.1235 45.2938C58.5595 45.2938 58.4889 45.3645 58.4889 45.9298C58.4889 47.343 58.4889 48.7916 58.4889 50.2402V50.5228C58.4889 50.5228 58.4889 50.8055 58.4889 50.9468C58.5595 51.7594 58.3127 52.3954 57.7133 52.8547C57.4665 53.0313 57.2197 53.1726 56.973 53.314C56.8672 53.3493 56.7967 53.42 56.6909 53.4553C56.1268 53.7733 55.5627 54.0913 55.0339 54.4446C54.5051 54.7625 53.941 55.0805 53.4121 55.3985C53.1301 55.5752 52.8481 55.7165 52.566 55.8931C52.0372 56.2111 51.4731 56.5291 50.909 56.8471C50.2391 57.2004 49.5693 57.589 48.9347 57.9777C48.6526 58.1543 48.4059 58.2956 48.1238 58.4723C47.7713 58.6843 47.5245 58.6136 47.3834 58.5429C47.2424 58.437 47.1014 58.2603 47.1367 57.8717C47.1367 57.6243 47.1367 57.4124 47.1367 57.1297C47.1367 56.9884 47.1367 56.8471 47.1367 56.6704C47.1367 45.1879 47.1367 33.6346 47.1367 22.3287C47.1367 22.1521 47.1367 21.9754 47.1367 21.8341C47.1367 21.5514 47.1367 21.2688 47.1367 21.0215C47.1014 20.6328 47.2424 20.4562 47.3482 20.3502C47.4892 20.2442 47.7008 20.1735 48.0886 20.3502C48.1591 20.3502 48.2296 20.4209 48.3353 20.4915C49.1815 21.0215 50.0981 21.5161 50.9443 22.0107C51.6494 22.3994 52.3545 22.8234 53.0596 23.2473C53.4474 23.4946 53.8352 23.7066 54.2583 23.954C54.9634 24.3779 55.739 24.8019 56.4441 25.2612C56.6909 25.4025 56.9377 25.5438 57.1845 25.6852C57.6428 25.9325 58.2422 26.3211 58.4184 27.1691C58.4184 27.3457 58.4184 27.5224 58.4184 27.699V27.805C58.4184 28.547 58.4184 29.3243 58.4184 30.0662C58.4184 30.9495 58.4184 31.8681 58.4184 32.7867C58.4184 33.2813 58.5947 33.458 59.0883 33.458C59.5114 33.458 59.9697 33.458 60.3927 33.458C60.71 33.458 60.9921 33.458 61.3094 33.458C63.742 33.458 66.1746 33.458 68.6073 33.458C68.8541 33.458 69.0656 33.458 69.2771 33.352V20.1382C69.2771 20.1382 69.2066 20.1029 69.1714 20.0675C69.0304 19.9969 68.9951 19.9616 68.713 19.7849C68.5015 19.6789 68.3958 19.6082 68.29 19.5729C68.1842 19.5023 68.0432 19.4669 67.7964 19.3256L60.3575 14.9799C59.3703 14.3439 58.3127 13.7786 57.3255 13.178C56.6909 12.8247 56.0563 12.4361 55.4217 12.0828C53.4827 10.9522 51.5083 9.78624 49.5693 8.69098C48.0886 7.84304 46.5373 6.92444 45.0213 6.04116C44.3867 5.65252 43.7169 5.26388 43.0823 4.91057C40.9317 3.63866 38.7106 2.33141 36.5247 1.02417C36.4895 1.02417 36.4542 1.02417 36.419 0.988836L36.4542 0.882844Z" fill="#202F38"/>
<path d="M60.6042 59.5677C60.6042 61.4756 59.053 62.9948 57.1844 62.9948C55.3159 62.9948 53.7646 61.4403 53.7646 59.5677C53.7646 57.6952 55.3159 56.1406 57.1844 56.1406C59.053 56.1406 60.6042 57.6952 60.6042 59.5677Z" fill="white"/>
<path d="M57.1845 63.3479C55.1044 63.3479 53.4121 61.652 53.4121 59.5675C53.4121 57.483 55.1044 55.7871 57.1845 55.7871C59.2645 55.7871 60.9568 57.483 60.9568 59.5675C60.9568 61.652 59.2645 63.3479 57.1845 63.3479ZM57.1845 56.4584C55.4922 56.4584 54.1172 57.8363 54.1172 59.5322C54.1172 61.2281 55.4922 62.606 57.1845 62.606C58.8767 62.606 60.2517 61.2281 60.2517 59.5322C60.2517 57.8363 58.8767 56.4584 57.1845 56.4584Z" fill="#231F20"/>
<path d="M75.8701 21.0928H79.2899V31.2681C79.2899 32.3987 79.4309 33.2466 79.6777 33.7766C80.0655 34.6952 80.9822 35.1545 82.3219 35.1545C83.6616 35.1545 84.543 34.6952 84.966 33.7766C85.2128 33.2466 85.3538 32.434 85.3538 31.2681V21.0928H88.7736V31.2681C88.7736 33.0346 88.5269 34.4125 87.9628 35.3665C86.9756 37.1684 85.1071 38.0516 82.3219 38.0516C79.5367 38.0516 77.6681 37.1684 76.681 35.3665C76.1522 34.3772 75.8701 32.9993 75.8701 31.2681V21.0928Z" fill="#172B36"/>
<path d="M90.8536 34.7305L99.0682 24.0252H91.0651V21.0928H103.228V23.8839L94.908 34.7659H103.228V37.6983H90.8184V34.7659L90.8536 34.7305Z" fill="#172B36"/>
<path d="M116.273 21.0928H121.103V37.663H117.965V26.4631C117.965 26.1451 117.965 25.6858 117.965 25.1205C117.965 24.5552 117.965 24.0959 117.965 23.7779L114.933 37.6983H111.69L108.658 23.7779C108.658 24.0959 108.658 24.5552 108.658 25.1205C108.658 25.6858 108.658 26.1451 108.658 26.4631V37.663H105.52V21.0928H110.385L113.311 34.1299L116.202 21.0928H116.273Z" fill="#172B36"/>
<path d="M128.789 21.0928H132.596L138.272 37.663H134.641L133.583 34.2712H127.66L126.568 37.663H123.042L128.789 21.0928ZM128.577 31.4094H132.702L130.657 24.8732L128.577 31.4094Z" fill="#172B36"/>
<path d="M140.247 21.0928H143.772L150.153 32.646V21.0928H153.291V37.663H149.942L143.42 25.8978V37.663H140.282V21.0928H140.247Z" fill="#172B36"/>
<path d="M156.394 21.0928H159.743V34.6952H167.746V37.663H156.394V21.0928Z" fill="#172B36"/>
<path d="M174.621 21.0928H178.428L184.104 37.663H180.473L179.415 34.2712H173.492L172.4 37.663H168.874L174.621 21.0928ZM174.409 31.4094H178.534L176.489 24.8732L174.409 31.4094Z" fill="#172B36"/>
<path d="M196.409 21.5167C197.008 21.7641 197.501 22.1527 197.925 22.6827C198.277 23.1066 198.524 23.5659 198.735 24.0606C198.947 24.5552 199.017 25.1558 199.017 25.7918C199.017 26.5691 198.841 27.3464 198.453 28.1236C198.066 28.9009 197.431 29.4309 196.55 29.7489C197.29 30.0668 197.819 30.4908 198.136 31.0561C198.453 31.6214 198.594 32.4693 198.594 33.6353V34.7659C198.594 35.5078 198.594 36.0378 198.665 36.3204C198.771 36.7444 198.947 37.0624 199.3 37.2743V37.6983H195.598C195.492 37.345 195.421 37.027 195.386 36.815C195.316 36.3557 195.245 35.8611 195.245 35.4018V33.8472C195.245 32.7873 195.034 32.0807 194.681 31.7274C194.329 31.3741 193.694 31.1974 192.777 31.1974H189.498V37.6983H186.22V21.0928H193.905C194.998 21.0928 195.844 21.2694 196.444 21.5167H196.409ZM189.463 23.9546V28.4063H193.059C193.764 28.4063 194.329 28.3003 194.681 28.1236C195.316 27.8057 195.633 27.205 195.633 26.2511C195.633 25.2618 195.316 24.5552 194.716 24.2372C194.364 24.0606 193.87 23.9546 193.165 23.9546H189.463Z" fill="#172B36"/>
<path d="M209.982 22.8236C211.286 21.4457 212.908 20.7744 214.918 20.7744C217.597 20.7744 219.536 21.693 220.77 23.5302C221.44 24.5548 221.828 25.5794 221.863 26.604H218.514C218.302 25.8267 218.02 25.2261 217.703 24.8021C217.104 24.0955 216.222 23.7069 215.059 23.7069C213.895 23.7069 212.908 24.2015 212.238 25.2261C211.533 26.2507 211.216 27.6639 211.216 29.5365C211.216 31.409 211.569 32.7869 212.309 33.7055C213.049 34.6241 213.966 35.0834 215.094 35.0834C216.222 35.0834 217.139 34.6948 217.738 33.8822C218.056 33.4582 218.338 32.8223 218.584 31.9743H221.934C221.652 33.7762 220.911 35.2601 219.713 36.3907C218.514 37.5213 217.104 38.0866 215.447 38.0866L214.777 39.1112C215.024 39.0758 215.2 39.0405 215.306 39.0052C215.411 39.0052 215.517 39.0052 215.623 39.0052C216.222 39.0052 216.681 39.1465 217.033 39.4645C217.386 39.7825 217.562 40.1711 217.562 40.7364C217.562 41.443 217.28 41.973 216.751 42.3616C216.222 42.7503 215.517 42.9622 214.636 42.9622C214.248 42.9622 213.825 42.8916 213.296 42.7149C213.049 42.6443 212.732 42.5029 212.274 42.3616L212.697 41.4077C213.12 41.549 213.402 41.6197 213.543 41.655C213.895 41.761 214.177 41.7963 214.389 41.7963C214.812 41.7963 215.129 41.6903 215.341 41.5137C215.517 41.337 215.623 41.125 215.623 40.9131C215.623 40.5951 215.517 40.3831 215.306 40.2418C215.094 40.1004 214.883 40.0651 214.636 40.0651C214.495 40.0651 214.354 40.0651 214.213 40.1004C214.072 40.1004 213.895 40.1711 213.719 40.2418L213.261 39.7825L214.283 38.1219C212.591 38.1219 211.075 37.3446 209.806 35.8254C208.501 34.3062 207.867 32.1863 207.867 29.5012C207.867 26.604 208.607 24.3782 210.088 22.8236H209.982Z" fill="#172B36"/>
<path d="M229.126 21.0928H232.934L238.61 37.663H234.978L233.921 34.2712H227.998L226.905 37.663H223.379L229.126 21.0928ZM228.915 31.4094H233.039L230.995 24.8732L228.915 31.4094Z" fill="#172B36"/>
<path d="M252.324 21.0928V24.0252H247.529V37.663H244.145V24.0252H239.315V21.0928H252.324Z" fill="#172B36"/>
<path d="M257.33 37.663H253.981V21.0928H257.33V37.663Z" fill="#172B36"/>
<path d="M82.9565 51.0535H77.8444V53.1733H82.5334V54.9046H77.8444V57.4837H83.2033V59.2856H75.8701V49.3223H82.9565V51.0888V51.0535Z" fill="#172B36"/>
<path d="M84.7192 49.2861H86.8346L90.6774 56.2463V49.2861H92.546V59.2495H90.5364L86.5878 52.1833V59.2495H84.7192V49.2861Z" fill="#172B36"/>
<path d="M100.091 49.4989C100.76 49.7462 101.325 50.1349 101.748 50.7708C102.1 51.2655 102.312 51.7954 102.453 52.3961C102.558 52.9614 102.629 53.5266 102.629 54.0566C102.629 55.3992 102.382 56.4944 101.853 57.4131C101.148 58.6496 100.091 59.2856 98.6099 59.2856H94.4497V49.3223H98.6099C99.2092 49.3223 99.7028 49.3929 100.091 49.5343V49.4989ZM96.3888 51.0181V57.519H98.2573C99.2092 57.519 99.8791 57.0244 100.267 56.0705C100.478 55.5405 100.584 54.9046 100.584 54.1626C100.584 53.138 100.443 52.3607 100.126 51.8308C99.8085 51.3008 99.2092 51.0181 98.2926 51.0181H96.424H96.3888Z" fill="#172B36"/>
<path d="M104.145 49.286H106.19V55.3983C106.19 56.0696 106.26 56.5995 106.437 56.8822C106.683 57.4475 107.212 57.7301 108.023 57.7301C108.834 57.7301 109.363 57.4475 109.61 56.8822C109.751 56.5642 109.856 56.0696 109.856 55.3983V49.286H111.901V55.3983C111.901 56.4582 111.725 57.2708 111.408 57.8714C110.808 58.9667 109.68 59.4967 108.023 59.4967C106.366 59.4967 105.203 58.9667 104.639 57.8714C104.321 57.2708 104.145 56.4582 104.145 55.3983V49.286ZM105.873 46.7422H107.6V48.3321H105.873V46.7422ZM108.481 46.7422H110.209V48.3321H108.481V46.7422Z" fill="#172B36"/>
<path d="M115.286 56.1764C115.356 56.6357 115.462 56.989 115.638 57.201C115.956 57.625 116.555 57.8017 117.366 57.8017C117.86 57.8017 118.247 57.731 118.565 57.625C119.129 57.413 119.411 57.0244 119.411 56.4591C119.411 56.1411 119.27 55.8585 118.988 55.6818C118.706 55.5051 118.247 55.3638 117.648 55.2225L116.59 54.9752C115.568 54.7279 114.863 54.4806 114.475 54.1979C113.84 53.7386 113.488 53.032 113.488 52.0427C113.488 51.1594 113.805 50.4175 114.44 49.8169C115.074 49.2162 116.026 48.9336 117.26 48.9336C118.283 48.9336 119.164 49.2162 119.904 49.7815C120.645 50.3468 120.997 51.1594 121.033 52.2194H119.094C119.058 51.6187 118.811 51.1948 118.318 50.9475C118.001 50.7708 117.578 50.7001 117.119 50.7001C116.59 50.7001 116.167 50.8061 115.85 51.0181C115.533 51.2301 115.356 51.5481 115.356 51.9367C115.356 52.29 115.497 52.5727 115.815 52.7493C116.026 52.8553 116.449 52.9967 117.084 53.1733L118.776 53.5973C119.517 53.7739 120.081 54.0212 120.433 54.3039C120.997 54.7632 121.279 55.4345 121.279 56.3531C121.279 57.2717 120.927 58.0136 120.257 58.6143C119.587 59.2149 118.6 59.5329 117.366 59.5329C116.132 59.5329 115.11 59.2502 114.369 58.6496C113.629 58.049 113.276 57.2364 113.276 56.2118H115.215L115.286 56.1764Z" fill="#172B36"/>
<path d="M129.776 49.2861V51.0527H126.885V59.2495H124.84V51.0527H121.949V49.2861H129.776Z" fill="#172B36"/>
<path d="M137.144 49.5343C137.497 49.6756 137.814 49.9229 138.061 50.2409C138.272 50.4882 138.413 50.7708 138.554 51.0888C138.695 51.4068 138.731 51.7601 138.731 52.1487C138.731 52.608 138.625 53.1027 138.378 53.562C138.131 54.0213 137.779 54.3393 137.215 54.5159C137.673 54.6926 137.99 54.9752 138.167 55.2932C138.343 55.6465 138.449 56.1411 138.449 56.8478V57.519C138.449 57.9783 138.449 58.2963 138.519 58.4377C138.59 58.685 138.695 58.897 138.907 59.0029V59.2503H136.686C136.615 59.0383 136.58 58.8616 136.545 58.7203C136.51 58.4377 136.474 58.155 136.474 57.8724V56.9538C136.474 56.3178 136.333 55.8938 136.157 55.6818C135.945 55.4699 135.558 55.3639 134.994 55.3639H133.019V59.2856H131.045V49.3223H135.663C136.333 49.3223 136.827 49.4283 137.179 49.5696L137.144 49.5343ZM132.984 51.0181V53.7033H135.17C135.593 53.7033 135.91 53.6326 136.157 53.5266C136.545 53.35 136.721 52.9614 136.721 52.3961C136.721 51.7954 136.545 51.3715 136.157 51.1948C135.945 51.0888 135.628 51.0181 135.24 51.0181H133.019H132.984Z" fill="#172B36"/>
<path d="M142.503 59.2502H140.494V49.2869H142.503V59.2502ZM140.67 46.5664H142.362V48.1563H140.67V46.5664Z" fill="#172B36"/>
<path d="M149.907 49.2861H152.199L148.955 55.5044V59.2495H146.945V55.5044L143.596 49.2861H145.958L147.968 53.6318L149.872 49.2861H149.907Z" fill="#172B36"/>
<path d="M160.483 51.0535H155.371V53.1733H160.06V54.9046H155.371V57.4837H160.73V59.2856H153.397V49.3223H160.483V51.0888V51.0535Z" fill="#172B36"/>
<path d="M162.281 49.2861H164.291V57.4476H169.121V59.2495H162.281V49.2861Z" fill="#172B36"/>
<path d="M179.733 49.2861H182.025L178.781 55.5044V59.2495H176.772V55.5044L173.422 49.2861H175.784L177.794 53.6318L179.698 49.2861H179.733Z" fill="#172B36"/>
<path d="M185.903 49.2861H188.194L191.614 59.2495H189.428L188.794 57.2003H185.233L184.563 59.2495H182.448L185.903 49.2861ZM185.762 55.5044H188.23L186.996 51.5826L185.727 55.5044H185.762Z" fill="#172B36"/>
<path d="M199.335 54.9391C198.771 55.4337 197.96 55.681 196.902 55.681H194.893V59.2495H192.883V49.2861H197.043C197.995 49.2861 198.771 49.5335 199.335 50.0634C199.899 50.5934 200.181 51.3707 200.181 52.4659C200.181 53.6318 199.899 54.4798 199.335 54.9744V54.9391ZM197.784 51.3353C197.537 51.1233 197.184 51.0173 196.726 51.0173H194.893V53.9498H196.726C197.184 53.9498 197.537 53.8438 197.784 53.5965C198.031 53.3492 198.172 52.9959 198.172 52.4659C198.172 51.936 198.031 51.5826 197.784 51.3707V51.3353Z" fill="#172B36"/>
<path d="M203.636 59.2495H201.626V49.2861H203.636V59.2495Z" fill="#172B36"/>
<path d="M211.075 59.2502H209.065V49.2869H211.075V59.2502ZM209.242 46.5664H210.934V48.1563H209.242V46.5664Z" fill="#172B36"/>
<path d="M212.944 49.2861H215.059L218.902 56.2463V49.2861H220.771V59.2495H218.761L214.812 52.1833V59.2495H212.944V49.2861Z" fill="#172B36"/>
<path d="M224.12 56.1764C224.19 56.6357 224.296 56.989 224.472 57.201C224.789 57.625 225.389 57.8017 226.2 57.8017C226.693 57.8017 227.081 57.731 227.398 57.625C227.962 57.413 228.245 57.0244 228.245 56.4591C228.245 56.1411 228.104 55.8585 227.821 55.6818C227.539 55.5051 227.081 55.3638 226.482 55.2225L225.424 54.9752C224.402 54.7279 223.697 54.4806 223.309 54.1979C222.674 53.7386 222.322 53.032 222.322 52.0427C222.322 51.1594 222.639 50.4175 223.273 49.8169C223.908 49.2162 224.86 48.9336 226.094 48.9336C227.116 48.9336 227.998 49.2162 228.738 49.7815C229.478 50.3468 229.831 51.1594 229.866 52.2194H227.927C227.892 51.6187 227.645 51.1948 227.152 50.9475C226.834 50.7708 226.411 50.7001 225.953 50.7001C225.424 50.7001 225.001 50.8061 224.684 51.0181C224.366 51.2301 224.19 51.5481 224.19 51.9367C224.19 52.29 224.331 52.5727 224.648 52.7493C224.86 52.8553 225.283 52.9967 225.918 53.1733L227.61 53.5973C228.35 53.7739 228.914 54.0212 229.267 54.3039C229.831 54.7632 230.113 55.4345 230.113 56.3531C230.113 57.2717 229.761 58.0136 229.091 58.6143C228.421 59.2149 227.469 59.5329 226.235 59.5329L225.812 60.1688C225.812 60.1688 226.059 60.0982 226.129 60.0982C226.2 60.0982 226.27 60.0982 226.341 60.0982C226.693 60.0982 226.975 60.2042 227.187 60.3808C227.398 60.5575 227.504 60.8048 227.504 61.1581C227.504 61.5821 227.328 61.9001 227.011 62.1474C226.693 62.3947 226.27 62.5007 225.741 62.5007C225.53 62.5007 225.248 62.4653 224.93 62.3594C224.789 62.324 224.578 62.2534 224.331 62.1474L224.578 61.5821C224.825 61.6527 225.001 61.7234 225.107 61.7234C225.318 61.7941 225.495 61.7941 225.636 61.7941C225.882 61.7941 226.094 61.7234 226.2 61.6174C226.305 61.5114 226.376 61.3701 226.376 61.2641C226.376 61.0874 226.305 60.9461 226.2 60.8755C226.059 60.8048 225.953 60.7695 225.777 60.7695C225.706 60.7695 225.6 60.7695 225.53 60.7695C225.459 60.7695 225.354 60.8048 225.248 60.8401L224.966 60.5575L225.636 59.5329C224.789 59.5329 224.014 59.2502 223.309 58.6496C222.568 58.049 222.216 57.2364 222.216 56.2118H224.155L224.12 56.1764Z" fill="#172B36"/>
<path d="M234.379 49.2861H236.67L240.09 59.2495H237.904L237.27 57.2003H233.709L233.039 59.2495H230.924L234.379 49.2861ZM234.238 55.5044H236.706L235.472 51.5826L234.203 55.5044H234.238Z" fill="#172B36"/>
<path d="M244.074 49.2861H246.366L249.786 59.2495H247.6L246.965 57.2003H243.404L242.734 59.2495H240.619L244.074 49.2861ZM243.933 55.5044H246.401L245.167 51.5826L243.898 55.5044H243.933Z" fill="#172B36"/>
<path d="M258 49.2861V51.0527H255.109V59.2495H253.064V51.0527H250.173V49.2861H258Z" fill="#172B36"/>
</g>
<defs>
<clipPath id="clip0_228_2117">
<rect width="258" height="79" fill="white"/>
</clipPath>
</defs>
</svg>
