<svg width="218" height="83" viewBox="0 0 218 83" fill="none" xmlns="http://www.w3.org/2000/svg">
<g clip-path="url(#clip0_218_2398)">
<path d="M0 62.8523L10.8892 69.2032V15.5635L0 21.3304V62.8523Z" fill="black"/>
<path d="M14.1096 43.099L25.692 39.2008V7.70898L14.1096 13.8555V43.099Z" fill="black"/>
<path d="M79.4881 20.7318V20.6588L54.8503 6.36552V6.35092L43.9756 0V0.0583993V0V17.8702V83L54.8503 76.6637V22.8049L68.0791 28.8201V68.9404L79.5315 62.2536V20.7463L79.4881 20.7318Z" fill="black"/>
<path d="M29.0281 76.4739L40.2061 83V0L29.0281 5.94213V76.4739Z" fill="black"/>
<path d="M89.9294 43.2148V10.0732H113.527V16.0884H96.125V25.1403H112.589V30.9218H96.125V43.2002H89.9294V43.2148Z" fill="black"/>
<path d="M123.955 9.9714C123.955 5.46005 117.196 5.46005 117.196 9.9714C117.196 14.4827 123.955 14.4827 123.955 9.9714Z" fill="black"/>
<path d="M123.637 16.0889H117.499V43.2153H123.637V16.0889Z" fill="black"/>
<path d="M157.445 26.3383C157.59 34.7332 152.52 43.2157 141.025 43.2157H128.128V10.0303H141.025C152.275 10.0303 157.301 18.1332 157.445 26.3383ZM134.28 37.2005H141.039C148.491 37.2005 151.452 31.6964 151.307 26.2945C151.163 21.1261 148.159 15.9578 141.039 15.9578H134.28V37.2005Z" fill="black"/>
<path d="M185.997 43.2157H161.417V10.0303H185.997V16.1038H167.569V23.7395H185.347V29.5648H167.569V37.0545H185.997V43.2157Z" fill="black"/>
<path d="M212.035 18.0301C210.909 16.1321 207.818 14.3363 204.251 14.3363C199.659 14.3363 197.449 16.2781 197.449 18.7455C197.449 21.6362 200.828 22.4392 204.771 22.921C211.617 23.7678 218 25.5782 218 33.4913C218 40.8934 211.53 44.0616 204.208 44.0616C197.507 44.0616 192.337 41.9738 189.896 35.9003L195.052 33.1993C196.51 36.8492 200.309 38.4698 204.295 38.4698C208.28 38.4698 211.848 37.0974 211.848 33.4913C211.848 30.3669 208.613 29.0821 204.251 28.6003C197.55 27.7973 191.355 25.987 191.355 18.5557C191.355 11.7229 198.012 8.93438 204.063 8.87598C209.176 8.87598 214.476 10.3506 216.96 15.4605L212.035 18.0155V18.0301Z" fill="black"/>
<path d="M89.9295 74.8388V52.7054H91.5903V74.8388H89.9295ZM92.2835 49.6541C92.2835 50.5009 91.6048 51.1871 90.7671 51.1871C89.9295 51.1871 89.2507 50.5009 89.2507 49.6541C89.2507 48.8073 89.9295 48.1211 90.7671 48.1211C91.6048 48.1211 92.2835 48.8073 92.2835 49.6541Z" fill="black"/>
<path d="M101.844 52.7051L116.575 71.0133V52.7051H118.236V74.8384H117.586L102.826 56.5594V74.8384H101.136V52.7051H101.859H101.844Z" fill="black"/>
<path d="M170.053 74.8384L167.641 69.4073H154.571L152.188 74.8384H150.369L160.189 52.7051H162.038L171.858 74.8384H170.038H170.053ZM166.991 67.8159L161.113 54.3549L155.236 67.8159H166.991Z" fill="black"/>
<path d="M196.453 74.8384L194.041 69.4073H180.971L178.588 74.8384H176.769L186.589 52.7051H188.438L198.258 74.8384H196.438H196.453ZM193.391 67.8159L187.513 54.3549L181.635 67.8159H193.391Z" fill="black"/>
<path d="M208.396 54.2528H200.482V52.7344H218V54.2528H210.086V74.8385H208.396V54.2528Z" fill="black"/>
<path d="M144.375 68.9838C144.375 64.2096 140 63.4505 135.783 62.6329C132.085 61.9321 129.096 61.2751 129.096 58.4573C129.096 54.9096 133.169 53.9606 135.725 53.9606C138.194 53.9898 140.765 54.3694 142.354 56.9681L143.726 56.1505C141.574 52.8948 138.844 52.3838 135.725 52.3838C132.129 52.3838 127.305 53.8438 127.406 58.5157C127.406 62.5891 131.508 63.4213 135.508 64.2096C139.104 64.9104 142.729 65.6258 142.7 68.9546C142.7 72.8819 138.411 73.6411 135.725 73.6411C133.039 73.6411 129.601 72.3125 128.244 69.6262L126.742 70.3854C128.331 73.5827 131.869 75.0281 135.133 75.1741V77.4079H137.443C138.339 77.4079 138.454 77.9189 138.454 78.3569C138.454 79.1015 137.819 79.2621 137.299 79.2621C136.144 79.2621 136.144 78.6927 136.144 78.5175H135.017C135.017 79.8169 135.869 80.5907 137.299 80.5907C138.873 80.5907 139.581 79.4665 139.581 78.3569C139.581 76.9699 138.786 76.1377 137.443 76.1377H136.245V75.1741C139.841 75.0573 144.361 73.7579 144.39 68.9838H144.375Z" fill="black"/>
</g>
<defs>
<clipPath id="clip0_218_2398">
<rect width="218" height="83" fill="white"/>
</clipPath>
</defs>
</svg>
