<svg width="288" height="107" viewBox="0 0 288 107" fill="none" xmlns="http://www.w3.org/2000/svg">
<g clip-path="url(#clip0_229_2585)">
<path d="M287.625 107V98.3672L0.33197 98.3672V107L287.625 107Z" fill="#223848"/>
<path d="M121.512 0H118.264V60.3132H121.512V0Z" fill="#9E9E9E"/>
<path d="M129.756 0H126.508V60.3132H129.756V0Z" fill="#9E9E9E"/>
<path d="M138.015 0H134.767V60.3132H138.015V0Z" fill="#9E9E9E"/>
<path d="M169.736 3.33933V0.128906L143.141 0.128906V3.33933L169.736 3.33933Z" fill="#223848"/>
<path d="M169.736 10.5727V7.3623L143.141 7.3623V10.5727L169.736 10.5727Z" fill="#223848"/>
<path d="M169.736 17.6362V14.4258L143.141 14.4258V17.6362H169.736Z" fill="#223848"/>
<path d="M169.75 24.9555V21.7451H143.155V24.9555H169.75Z" fill="#223848"/>
<path d="M169.736 31.9048V28.6943H143.141V31.9048H169.736Z" fill="#223848"/>
<path d="M169.736 39.0532V35.8428H143.141V39.0532H169.736Z" fill="#223848"/>
<path d="M169.736 46.2016V42.9912H143.141V46.2016H169.736Z" fill="#223848"/>
<path d="M169.75 53.3501V50.1396H143.155V53.3501H169.75Z" fill="#223848"/>
<path d="M169.736 60.3276V57.1172H143.141V60.3276H169.736Z" fill="#223848"/>
<path d="M18.7697 83.2428C21.1376 84.1275 22.3216 85.7541 22.3216 88.1512C22.3216 90.0632 21.6285 91.5329 20.2569 92.6173C18.8564 93.7017 17.1238 94.144 14.4094 94.144H0V93.6589C0.736351 93.4591 0.981802 93.1738 0.981802 92.5459V74.9243C0.981802 74.2964 0.736351 74.0111 0 73.8113V73.3262H14.265C15.6366 73.3262 16.7339 73.4261 17.5714 73.6258C18.4088 73.8256 19.1307 74.168 19.766 74.6674C21.0221 75.6234 21.6285 77.036 21.6285 78.8481C21.6285 80.8742 20.6756 82.3439 18.7697 83.2428ZM5.58761 81.6162H13.6586C14.8714 81.6162 15.7377 81.4307 16.2142 81.0883C16.7484 80.6745 17.0372 80.0467 17.0372 79.1906C17.0372 77.4355 16.1131 76.7649 13.6586 76.7649H5.58761V81.6162ZM5.58761 90.7196H13.3987C14.8425 90.7196 15.8965 90.5198 16.5318 90.1203C17.2537 89.6637 17.6291 88.9217 17.6291 87.8801C17.6291 86.8385 17.2537 86.1108 16.5318 85.64C15.8965 85.2404 14.8714 85.0407 13.3987 85.0407H5.58761V90.7196Z" fill="#223848"/>
<path d="M44.3398 88.8504H34.7672L33.3523 91.7754C33.1501 92.1892 33.0635 92.5031 33.0635 92.7314C33.0635 93.1738 33.41 93.4877 34.1031 93.6589V94.144H27.1294V93.6589C27.5481 93.5875 27.8513 93.4306 28.0679 93.2308C28.2845 93.0311 28.5299 92.6316 28.8042 92.0465L36.5576 76.0515C36.803 75.5521 36.933 75.1383 36.933 74.8244C36.933 74.3535 36.6442 74.0111 36.0378 73.8113V73.3262H43.5024V73.8113C42.896 73.9825 42.5928 74.2822 42.5928 74.7102C42.5928 74.9956 42.6794 75.338 42.8815 75.7233L50.9092 91.7754C51.2557 92.4603 51.5445 92.9169 51.8044 93.1738C52.0643 93.4163 52.4108 93.5875 52.8439 93.6589V94.144H45.0906V93.6589C45.7692 93.559 46.1157 93.2308 46.1157 92.7172C46.1157 92.5031 46.0146 92.1892 45.8125 91.7754L44.3687 88.8504H44.3398ZM43.0115 85.9967L39.6041 78.5913L36.1533 85.9967H43.0259H43.0115Z" fill="#223848"/>
<path d="M67.8307 85.4402V92.5459C67.8307 93.1738 68.0906 93.4591 68.827 93.6589V94.144H62.1998V93.6589C62.9362 93.4591 63.2249 93.1738 63.2249 92.5459V85.4402L56.4245 75.9659C55.8325 75.1526 55.3705 74.6103 55.0384 74.3392C54.7208 74.0539 54.3165 73.8826 53.8545 73.8256V73.3404H62.1709V73.8256C61.4779 73.9255 61.1314 74.2536 61.1314 74.7673C61.1314 74.9528 61.3479 75.3523 61.7667 75.9659L65.5639 81.5449L69.4623 75.9659C69.881 75.3666 70.0975 74.9528 70.0975 74.7388C70.0975 74.2679 69.6933 73.9112 69.058 73.8113V73.3262H77.2012V73.8113C76.7391 73.8684 76.3349 74.0396 76.0028 74.325C75.6851 74.5961 75.2087 75.1525 74.6312 75.9516L67.8307 85.4259V85.4402Z" fill="#223848"/>
<path d="M88.3908 85.6542V92.5602C88.3908 93.1738 88.6507 93.4734 89.3726 93.6589V94.144H82.8032V93.6589C83.5396 93.4591 83.785 93.1738 83.785 92.5602V74.9243C83.785 74.2964 83.5396 74.0111 82.8032 73.8113V73.3262H95.9854C97.588 73.3262 98.8586 73.4118 99.7971 73.5973C100.736 73.7828 101.573 74.0967 102.266 74.5533C103.089 75.0812 103.681 75.8089 104.085 76.7078C104.475 77.5782 104.663 78.5199 104.663 79.5187C104.663 82.9147 102.742 84.898 98.9308 85.483L103.017 91.2332C103.739 92.2463 104.273 92.9026 104.591 93.188C104.937 93.4734 105.341 93.6303 105.832 93.6589V94.144H98.2088V93.6589C98.7286 93.5875 99.003 93.4021 99.003 93.1167C99.003 92.9312 98.7575 92.4889 98.281 91.7897L94.0218 85.6542H88.4053H88.3908ZM88.3908 82.2155H95.4945C96.5485 82.2155 97.2848 82.187 97.718 82.1299C98.1511 82.0728 98.5554 81.9444 98.9019 81.7446C99.696 81.3308 100.071 80.5746 100.071 79.4902C100.071 78.4058 99.6816 77.6496 98.9019 77.2358C98.5265 77.036 98.1367 76.8933 97.718 76.8505C97.2992 76.7934 96.5629 76.7649 95.4945 76.7649H88.3908V82.2298V82.2155Z" fill="#223848"/>
<path d="M127.894 88.8504H118.321L116.906 91.7754C116.704 92.1892 116.618 92.5031 116.618 92.7314C116.618 93.1738 116.964 93.4877 117.657 93.6589V94.144H110.684V93.6589C111.102 93.5875 111.405 93.4306 111.622 93.2308C111.839 93.0311 112.084 92.6316 112.358 92.0465L120.112 76.0515C120.357 75.5521 120.487 75.1383 120.487 74.8244C120.487 74.3535 120.198 74.0111 119.592 73.8113V73.3262H127.057V73.8113C126.45 73.9825 126.147 74.2822 126.147 74.7102C126.147 74.9956 126.234 75.338 126.436 75.7233L134.463 91.7754C134.81 92.4603 135.099 92.9169 135.359 93.1738C135.618 93.4163 135.965 93.5875 136.398 93.6589V94.144H128.645V93.6589C129.323 93.559 129.67 93.2308 129.67 92.7172C129.67 92.5031 129.569 92.1892 129.367 91.7754L127.923 88.8504H127.894ZM126.566 85.9967L123.158 78.5913L119.708 85.9967H126.58H126.566Z" fill="#223848"/>
<path d="M155.24 93.8586L147.472 79.7613V92.5459C147.472 93.1738 147.718 93.4591 148.454 93.6589V94.144H142.26V93.6589C142.997 93.4591 143.242 93.1738 143.242 92.5459V74.91C143.242 74.2964 142.997 74.0111 142.26 73.8113V73.3262H150.375V73.8113C149.898 73.9397 149.653 74.2108 149.653 74.6531C149.653 74.8529 149.725 75.0955 149.869 75.3523L155.616 85.8112L161.434 75.5378C161.694 75.0669 161.824 74.7245 161.824 74.5105C161.824 74.0967 161.564 73.8541 161.059 73.8113V73.3262H169.029V73.8113C168.292 74.0111 168.047 74.2964 168.047 74.91V92.5459C168.047 93.1738 168.292 93.4591 169.029 93.6589V94.144H162.459V93.6589C163.181 93.4734 163.441 93.1738 163.441 92.5459V79.7613L155.24 93.8586Z" fill="#223848"/>
<path d="M188.506 72.9697C192.173 72.9697 195.09 73.94 197.241 75.9091C199.508 77.9637 200.648 80.6177 200.648 83.8709C200.648 85.8685 200.114 87.7234 199.017 89.4499C196.88 92.8173 193.4 94.5153 188.535 94.5153C184.896 94.5153 181.994 93.545 179.843 91.5759C178.688 90.5201 177.821 89.2787 177.215 87.809C176.695 86.5106 176.421 85.1551 176.421 83.7425C176.421 81.6593 176.955 79.7473 178.038 78.0208C180.103 74.7105 183.597 73.0268 188.491 72.9697H188.506ZM188.52 76.4941C186.513 76.4941 184.853 77.0933 183.51 78.2634C181.922 79.6474 181.128 81.4881 181.128 83.7425C181.128 85.9969 181.922 87.8233 183.51 89.2216C184.853 90.3916 186.542 90.9909 188.563 90.9909C190.585 90.9909 192.274 90.3916 193.588 89.2216C194.382 88.5225 194.988 87.6664 195.407 86.639C195.783 85.7401 195.956 84.7984 195.956 83.8281C195.956 81.4595 195.162 79.6189 193.574 78.2634C192.231 77.1076 190.527 76.5083 188.506 76.4941H188.52Z" fill="#223848"/>
<path d="M226.811 86.6678H221.613C220.978 86.6678 220.703 86.9103 220.501 87.638H220.01V82.7867H220.501C220.703 83.5287 220.978 83.757 221.613 83.757H231.619V84.2421C230.882 84.4419 230.622 84.7272 230.622 85.3551V89.6214C230.622 90.2492 230.868 90.5346 231.619 90.7343V91.1196C227.619 93.374 223.735 94.5012 219.981 94.5012C216.574 94.5012 213.787 93.7022 211.65 92.1041C208.95 90.0922 207.593 87.2956 207.593 83.7142C207.593 80.3753 208.792 77.7214 211.203 75.7523C213.484 73.8831 216.531 72.9414 220.313 72.9414C221.512 72.9414 222.638 73.0413 223.706 73.2839C224.775 73.4979 225.988 73.8689 227.345 74.3825C228.038 74.6536 228.543 74.7963 228.846 74.7963C229.063 74.7963 229.308 74.6679 229.597 74.4396L230.03 74.6679L227.561 79.6619L227.114 79.4336C227.099 79.0912 227.056 78.8486 226.969 78.7202C226.897 78.5632 226.71 78.3777 226.421 78.178C225.785 77.7071 224.876 77.3076 223.663 76.9937C222.45 76.6512 221.295 76.4943 220.227 76.4943C218.018 76.4943 216.198 77.1078 214.755 78.3207C213.123 79.7047 212.3 81.5168 212.3 83.7998C212.3 86.0828 213.109 87.7664 214.697 89.122C216.17 90.3633 218.075 90.9769 220.472 90.9769C221.627 90.9769 222.782 90.8342 223.909 90.5774C225.035 90.3205 226.016 89.9495 226.839 89.4929V86.6535L226.811 86.6678Z" fill="#223848"/>
<path d="M244.873 90.7199H257.824C258.459 90.7199 258.748 90.4774 258.95 89.7497H259.441V95.1289H258.95C258.748 94.4012 258.459 94.1587 257.824 94.1587H239.285V93.6735C240.022 93.4738 240.267 93.1884 240.267 92.5606V74.9389C240.267 74.3111 240.022 74.0257 239.285 73.826V73.3408H245.855V73.826C245.118 74.0114 244.873 74.3111 244.873 74.9389V90.7199Z" fill="#223848"/>
<path d="M287.018 74.9389V86.6106C287.018 88.8222 286.6 90.4631 285.777 91.5618C284.289 93.5308 281.243 94.5154 276.594 94.5154C273.244 94.5154 270.674 93.9874 268.898 92.9173C267.859 92.2895 267.137 91.4476 266.732 90.3918C266.343 89.3359 266.141 88.0803 266.141 86.6106V74.9389C266.141 74.3111 265.895 74.0257 265.159 73.826V73.3408H271.743V73.826C271.006 74.0114 270.746 74.3111 270.746 74.9389V85.3264C270.746 86.525 270.804 87.4096 270.948 87.9946C271.093 88.5654 271.338 89.0505 271.699 89.4215C272.681 90.4631 274.37 90.9768 276.767 90.9768C279.164 90.9768 280.853 90.4631 281.849 89.4215C282.21 89.0362 282.456 88.5511 282.586 87.9946C282.73 87.4096 282.788 86.525 282.788 85.3264V74.9389C282.788 74.3111 282.542 74.0257 281.806 73.826V73.3408H288.014V73.826C287.278 74.0257 287.033 74.3111 287.033 74.9389H287.018Z" fill="#223848"/>
<path d="M108.893 103.275H110.871V102.591H108.893V101.777H111.03V101.078H108.07V104.973H111.102V104.289H108.893V103.275Z" fill="white"/>
<path d="M115.087 103.604L113.514 101.092V101.078H112.705V104.973H113.485V102.505L115.044 104.973H115.867V101.078H115.087V103.604Z" fill="white"/>
<path d="M120.458 101.521C120.285 101.35 120.083 101.221 119.852 101.164C119.679 101.121 119.419 101.093 119.101 101.093H117.628V104.988H119.144C119.433 104.988 119.679 104.96 119.852 104.902C120.083 104.831 120.285 104.717 120.415 104.589C120.603 104.417 120.747 104.175 120.848 103.904C120.935 103.675 120.964 103.39 120.964 103.076C120.964 102.719 120.92 102.405 120.834 102.163C120.747 101.92 120.617 101.706 120.458 101.535V101.521ZM118.466 101.778H118.798C119.116 101.778 119.332 101.778 119.448 101.82C119.592 101.849 119.708 101.906 119.809 101.992C119.895 102.077 119.982 102.206 120.025 102.363C120.083 102.52 120.112 102.748 120.112 103.048C120.112 103.347 120.083 103.576 120.025 103.747C119.967 103.918 119.91 104.032 119.823 104.103C119.736 104.175 119.635 104.232 119.505 104.26C119.404 104.289 119.246 104.303 119.029 104.303H118.451V101.792L118.466 101.778Z" fill="white"/>
<path d="M123.938 100.222H123.245V100.892H123.938V100.222Z" fill="white"/>
<path d="M124.92 103.232C124.92 103.532 124.92 103.746 124.891 103.889C124.862 104.017 124.804 104.117 124.689 104.203C124.573 104.288 124.414 104.331 124.198 104.331C123.981 104.331 123.808 104.288 123.678 104.188C123.548 104.103 123.476 103.974 123.447 103.817C123.432 103.717 123.418 103.503 123.418 103.175V101.063H122.581V103.132C122.581 103.56 122.609 103.889 122.653 104.117C122.696 104.274 122.768 104.417 122.884 104.545C122.999 104.688 123.158 104.802 123.346 104.887C123.548 104.973 123.837 105.016 124.212 105.016C124.53 105.016 124.79 104.973 124.977 104.902C125.179 104.816 125.338 104.716 125.454 104.588C125.569 104.459 125.656 104.288 125.699 104.088C125.743 103.903 125.757 103.56 125.757 103.104V101.063H124.92V103.218V103.232Z" fill="white"/>
<path d="M125.093 100.222H124.4V100.892H125.093V100.222Z" fill="white"/>
<path d="M129.944 102.805C129.757 102.705 129.468 102.619 129.078 102.519C128.703 102.434 128.457 102.348 128.356 102.262C128.284 102.205 128.241 102.134 128.241 102.048C128.241 101.949 128.284 101.877 128.356 101.82C128.486 101.735 128.659 101.692 128.89 101.692C129.121 101.692 129.28 101.735 129.381 101.82C129.482 101.906 129.555 102.048 129.598 102.234L130.406 102.22H130.421V102.205C130.421 101.849 130.277 101.563 130.017 101.335C129.771 101.121 129.381 101.007 128.89 101.007C128.587 101.007 128.327 101.05 128.111 101.15C127.894 101.235 127.721 101.378 127.605 101.549C127.49 101.72 127.432 101.906 127.432 102.106C127.432 102.419 127.562 102.676 127.808 102.89C127.981 103.047 128.284 103.176 128.717 103.276C129.049 103.361 129.266 103.418 129.352 103.447C129.482 103.49 129.583 103.547 129.627 103.604C129.685 103.661 129.699 103.732 129.699 103.818C129.699 103.946 129.641 104.075 129.511 104.174C129.381 104.274 129.194 104.331 128.948 104.331C128.717 104.331 128.529 104.274 128.385 104.16C128.241 104.046 128.154 103.861 128.111 103.618L127.302 103.675C127.36 104.132 127.519 104.46 127.793 104.688C128.067 104.916 128.457 105.031 128.948 105.031C129.295 105.031 129.583 104.988 129.815 104.888C130.046 104.788 130.233 104.645 130.363 104.446C130.493 104.246 130.551 104.032 130.551 103.818C130.551 103.575 130.493 103.361 130.392 103.19C130.291 103.019 130.132 102.89 129.944 102.79V102.805Z" fill="white"/>
<path d="M131.865 101.777H133.034V104.973H133.872V101.777H135.027V101.078H131.865V101.777Z" fill="white"/>
<path d="M139.113 103.561C139.012 103.447 138.882 103.347 138.737 103.262C139.055 103.205 139.3 103.09 139.474 102.905C139.647 102.719 139.733 102.463 139.733 102.177C139.733 101.949 139.676 101.735 139.56 101.564C139.445 101.378 139.286 101.264 139.098 101.193C138.91 101.121 138.593 101.093 138.174 101.093H136.485V104.988H137.322V103.376H137.467C137.64 103.376 137.784 103.39 137.857 103.419C137.943 103.447 138.015 103.504 138.088 103.576C138.16 103.647 138.304 103.847 138.506 104.146L139.084 104.988H140.08L139.575 104.203C139.387 103.904 139.228 103.69 139.113 103.576V103.561ZM137.308 101.778H137.914C138.232 101.778 138.434 101.778 138.492 101.778C138.622 101.792 138.708 101.849 138.781 101.92C138.853 101.992 138.882 102.092 138.882 102.22C138.882 102.334 138.853 102.42 138.809 102.491C138.766 102.562 138.679 102.62 138.593 102.648C138.506 102.677 138.261 102.691 137.885 102.691H137.322V101.749L137.308 101.778Z" fill="white"/>
<path d="M142.217 101.078H141.379V104.973H142.217V101.078Z" fill="white"/>
<path d="M142.188 100.165H141.408V100.907H142.188V100.165Z" fill="white"/>
<path d="M145.365 102.591L144.455 101.092V101.078H143.473L144.931 103.333V104.973H145.769V103.347L147.213 101.107L147.227 101.078H146.26L145.365 102.591Z" fill="white"/>
<path d="M149.364 103.275H151.342V102.591H149.364V101.777H151.501V101.078H148.526V104.973H151.573V104.289H149.364V103.275Z" fill="white"/>
<path d="M154.027 101.106H153.19V104.973H156.005V104.288H154.027V101.106Z" fill="white"/>
<path d="M162.401 103.532C162.344 103.803 162.228 104.017 162.084 104.146C161.939 104.274 161.752 104.331 161.549 104.331C161.275 104.331 161.044 104.232 160.871 104.032C160.698 103.832 160.611 103.49 160.611 103.004C160.611 102.548 160.698 102.22 160.885 102.02C161.059 101.82 161.29 101.72 161.578 101.72C161.78 101.72 161.954 101.777 162.098 101.891C162.242 102.006 162.344 102.163 162.387 102.348L163.195 102.177H163.21V102.148C163.123 101.834 162.979 101.592 162.806 101.435C162.502 101.15 162.098 101.007 161.622 101.007C161.073 101.007 160.611 101.192 160.264 101.549C159.918 101.906 159.745 102.419 159.745 103.062C159.745 103.675 159.918 104.16 160.25 104.503C160.51 104.759 160.828 104.931 161.203 105.002C161.16 105.002 161.116 105.031 161.073 105.031L160.986 105.344H161.015C161.131 105.302 161.246 105.287 161.362 105.287C161.477 105.287 161.549 105.302 161.607 105.344C161.665 105.387 161.679 105.43 161.679 105.487C161.679 105.544 161.65 105.601 161.593 105.63C161.521 105.687 161.405 105.715 161.246 105.715C161.087 105.715 160.929 105.715 160.741 105.687H160.712V106.029H160.726C160.842 106.058 161.03 106.072 161.261 106.072C161.593 106.072 161.838 106.001 162.026 105.872C162.156 105.773 162.228 105.644 162.228 105.487C162.228 105.344 162.17 105.216 162.04 105.116C161.983 105.073 161.925 105.045 161.838 105.016C162.141 104.973 162.401 104.888 162.603 104.731C162.878 104.531 163.08 104.203 163.195 103.789L162.387 103.518L162.401 103.532Z" fill="white"/>
<path d="M165.665 103.275H167.643V102.591H165.665V101.777H167.787V101.078H164.827V104.973H167.859V104.289H165.665V103.275Z" fill="white"/>
<path d="M170.313 101.106H169.476V104.973H172.292V104.288H170.313V101.106Z" fill="white"/>
<path d="M174.558 100.165H173.779V100.907H174.558V100.165Z" fill="white"/>
<path d="M174.587 101.078H173.75V104.973H174.587V101.078Z" fill="white"/>
<path d="M179.829 101.078H178.702L177.114 102.762V101.078H176.277V104.973H177.114V103.803L177.735 103.176L178.804 104.959L178.818 104.973H179.901L178.313 102.605L179.829 101.078Z" fill="white"/>
<path d="M224.414 67.8184C223.071 69.1454 220.313 69.2881 220.313 69.2881C220.313 69.2881 217.671 69.2595 216.213 67.8184C214.278 65.9064 213.86 70.8148 220.313 71.2001C226.767 70.8148 226.349 65.9064 224.414 67.8184Z" fill="#223848"/>
</g>
<defs>
<clipPath id="clip0_229_2585">
<rect width="288" height="107" fill="white"/>
</clipPath>
</defs>
</svg>
