<svg width="159" height="137" viewBox="0 0 159 137" fill="none" xmlns="http://www.w3.org/2000/svg">
<g clip-path="url(#clip0_228_2207)">
<path d="M0 92.8936V113.613V137H159V113.986V92.8936H0ZM158.286 113.259H0.714438V93.6022H158.286V113.259Z" fill="#2E3690"/>
<path d="M12.6906 104.251C13.5743 103.729 14.1195 102.815 14.1195 101.734C14.1195 99.8687 12.7094 98.5633 10.7729 98.5633H6.84351V107.515H9.32524V104.774H10.2277L11.6942 107.515H14.4579L12.6718 104.27L12.6906 104.251ZM10.4721 102.685H9.34404V100.745H10.4721C11.1677 100.745 11.5626 101.156 11.5626 101.715C11.5626 102.275 11.1677 102.685 10.4721 102.685ZM18.6693 100.372C16.4884 100.372 14.8903 101.92 14.8903 104.046C14.8903 106.172 16.5072 107.72 18.6693 107.72C20.4178 107.72 21.8279 106.732 22.3167 105.165H19.929C19.7034 105.576 19.2334 105.818 18.6693 105.818C17.9173 105.818 17.4097 105.408 17.2405 104.624H22.4107C22.4483 104.419 22.4671 104.195 22.4671 103.99C22.4671 101.957 20.9066 100.372 18.6693 100.372ZM17.2969 103.3C17.4849 102.61 17.9737 102.237 18.6693 102.237C19.365 102.237 19.8914 102.61 20.0982 103.3H17.2781H17.2969ZM24.0276 102.424H22.7491V101.864L25.8701 98.5633H26.3589V100.577H28.1074V102.405H26.4153V104.606C26.4153 105.091 26.7162 105.389 27.2238 105.389H28.145V107.478H26.4905C24.9489 107.478 24.0088 106.545 24.0088 105.016V102.405L24.0276 102.424ZM29.8371 102.424H28.5587V101.864L31.6796 98.5633H32.1684V100.577H33.9169V102.405H32.2248V104.606C32.2248 105.091 32.5257 105.389 33.0333 105.389H33.9545V107.478H32.3001C30.7584 107.478 29.8183 106.545 29.8183 105.016V102.405L29.8371 102.424ZM34.9886 104.531V100.596H37.3763V104.438C37.3763 105.165 37.7711 105.594 38.4104 105.594C39.0496 105.594 39.4444 105.165 39.4444 104.438V100.596H41.8322V104.531C41.8322 106.471 40.4597 107.72 38.4104 107.72C36.3611 107.72 34.9886 106.471 34.9886 104.531ZM45.6488 107.496H43.261V100.596H44.9343L45.2727 101.305C45.7992 100.727 46.57 100.391 47.4537 100.391C49.0705 100.391 50.1234 101.529 50.1234 103.282V107.496H47.7357V103.617C47.7357 102.815 47.4349 102.424 46.8332 102.424C46.0812 102.424 45.6488 102.946 45.6488 103.822V107.515V107.496ZM57.1362 100.596L56.8354 101.174C56.2525 100.671 55.4817 100.372 54.6356 100.372C52.6427 100.372 51.1574 101.883 51.1574 103.841C51.1574 105.799 52.6427 107.31 54.6356 107.31C55.3125 107.31 55.9329 107.123 56.4593 106.788V106.993C56.4593 107.813 55.8201 108.317 55.0117 108.317C54.4288 108.317 53.8272 108.075 53.6768 107.608H51.3643C51.6839 109.249 53.0752 110.238 55.0305 110.238C57.3242 110.238 58.7531 108.895 58.7531 106.732V100.596H57.1362ZM55.0305 105.352C54.1656 105.352 53.5452 104.718 53.5452 103.841C53.5452 102.965 54.1656 102.33 55.0305 102.33C55.8953 102.33 56.5157 102.965 56.5157 103.841C56.5157 104.718 55.8953 105.352 55.0305 105.352ZM63.6789 105.426C63.6789 105.035 63.1525 104.923 62.4756 104.811C61.404 104.643 59.9751 104.307 59.9751 102.648C59.9751 101.267 61.1596 100.372 62.9457 100.372C64.7318 100.372 65.8598 101.305 65.8974 102.703H63.6601C63.6601 102.256 63.3593 102.051 62.9269 102.051C62.5509 102.051 62.2876 102.237 62.2876 102.554C62.2876 102.946 62.8141 103.039 63.4721 103.151C64.5626 103.338 66.029 103.58 66.029 105.314C66.029 106.75 64.807 107.702 62.9457 107.702C61.0468 107.702 59.8999 106.713 59.8811 105.221H62.1936C62.1936 105.725 62.5508 105.967 63.0021 105.967C63.3593 105.967 63.6789 105.781 63.6789 105.426ZM69.5448 107.478H67.1571V98.0784H69.5448V101.025C70.0525 100.615 70.7105 100.372 71.4061 100.372C73.0042 100.372 74.0383 101.529 74.0383 103.319V107.478H71.6505V103.599C71.6505 102.797 71.3685 102.405 70.7481 102.405C70.0149 102.405 69.5636 102.909 69.5636 103.804V107.496L69.5448 107.478ZM75.3731 104.512V100.577H77.7609V104.419C77.7609 105.147 78.1557 105.576 78.7949 105.576C79.4341 105.576 79.829 105.147 79.829 104.419V100.577H82.2167V104.512C82.2167 106.452 80.8442 107.702 78.7949 107.702C76.7456 107.702 75.3731 106.452 75.3731 104.512ZM86.0333 107.478H83.6456V100.577H85.3189L85.6573 101.286C86.1837 100.708 86.9545 100.372 87.8382 100.372C89.4551 100.372 90.5079 101.51 90.5079 103.263V107.478H88.1202V103.599C88.1202 102.797 87.8194 102.405 87.2178 102.405C86.4657 102.405 86.0333 102.927 86.0333 103.804V107.496V107.478ZM96.9191 98.0784V100.82C96.4114 100.521 95.8286 100.335 95.1894 100.335C93.0461 100.335 91.542 101.864 91.542 104.009C91.542 106.154 93.0649 107.683 95.1894 107.683C95.9978 107.683 96.7123 107.403 97.2951 106.937L97.5207 107.44H99.288V98.0411H96.9191V98.0784ZM95.509 105.594C94.6065 105.594 93.9485 104.923 93.9485 104.009C93.9485 103.095 94.6065 102.424 95.509 102.424C96.4114 102.424 97.0695 103.095 97.0695 104.009C97.0695 104.923 96.4114 105.594 95.509 105.594ZM104.157 100.335C101.977 100.335 100.378 101.883 100.378 104.009C100.378 106.135 101.995 107.683 104.157 107.683C105.906 107.683 107.316 106.694 107.805 105.128H105.417C105.192 105.538 104.721 105.781 104.157 105.781C103.405 105.781 102.898 105.37 102.729 104.587H107.899C107.936 104.382 107.955 104.158 107.955 103.953C107.955 101.92 106.395 100.335 104.157 100.335ZM102.785 103.263C102.973 102.573 103.462 102.2 104.157 102.2C104.853 102.2 105.38 102.573 105.586 103.263H102.766H102.785ZM112.449 105.408C112.449 105.016 111.922 104.904 111.245 104.792C110.174 104.624 108.745 104.289 108.745 102.629C108.745 101.249 109.929 100.354 111.715 100.354C113.502 100.354 114.63 101.286 114.667 102.685H112.43C112.43 102.237 112.129 102.032 111.697 102.032C111.321 102.032 111.057 102.219 111.057 102.536C111.057 102.927 111.584 103.021 112.242 103.132C113.332 103.319 114.799 103.561 114.799 105.296C114.799 106.732 113.577 107.683 111.715 107.683C109.817 107.683 108.67 106.695 108.651 105.203H110.963C110.963 105.706 111.321 105.949 111.772 105.949C112.129 105.949 112.449 105.762 112.449 105.408ZM116.416 102.405H115.137V101.846L118.258 98.5446H118.747V100.559H120.496V102.386H118.803V104.587C118.803 105.072 119.104 105.37 119.612 105.37H120.533V107.459H118.879C117.337 107.459 116.397 106.527 116.397 104.997V102.386L116.416 102.405ZM127.207 100.559L126.963 101.1C126.38 100.633 125.666 100.354 124.839 100.354C122.714 100.354 121.191 101.883 121.191 104.009C121.191 106.135 122.714 107.683 124.839 107.683C125.647 107.683 126.361 107.422 126.944 106.956L127.151 107.44H129.012V100.54H127.226L127.207 100.559ZM125.158 105.594C124.256 105.594 123.598 104.923 123.598 104.028C123.598 103.132 124.256 102.461 125.158 102.461C126.061 102.461 126.719 103.132 126.719 104.028C126.719 104.923 126.061 105.594 125.158 105.594ZM130.046 102.554V100.689H131.231V100.037C131.231 98.6565 132.002 97.8359 133.468 97.8359H135.141V99.6636H134.089C133.731 99.6636 133.525 99.8687 133.525 100.223V100.689H135.16V102.554H133.6V107.478H131.212V102.554H130.065H130.046ZM135.612 102.554V100.689H136.796V100.037C136.796 98.6565 137.567 97.8359 139.033 97.8359H140.707V99.6636H139.654C139.297 99.6636 139.09 99.8687 139.09 100.223V100.689H140.725V102.554H139.165V107.478H136.777V102.554H135.63H135.612ZM144.88 100.354C142.699 100.354 141.101 101.902 141.101 104.028C141.101 106.154 142.718 107.702 144.88 107.702C146.629 107.702 148.039 106.713 148.528 105.147H146.14C145.914 105.557 145.444 105.799 144.88 105.799C144.128 105.799 143.621 105.389 143.452 104.606H148.622C148.659 104.401 148.678 104.177 148.678 103.972C148.678 101.939 147.118 100.354 144.88 100.354ZM143.508 103.282C143.696 102.592 144.185 102.219 144.88 102.219C145.576 102.219 146.102 102.592 146.309 103.282H143.489H143.508ZM152.156 107.478H149.769V98.0784H152.156V107.478Z" fill="#2E3690"/>
<path d="M12.4649 129.429C11.7317 130.137 10.7541 130.492 9.56959 130.492C8.94916 130.492 8.23472 130.417 7.42627 130.249C6.61783 130.081 6.18541 130.007 6.0914 130.007C5.941 130.007 5.79059 130.175 5.65898 130.492H5.43337L5.26416 126.631H5.54618C6.035 127.564 6.63663 128.403 7.38867 129.093C8.14071 129.802 8.93035 130.156 9.7576 130.156C10.3028 130.156 10.7917 130.007 11.2053 129.727C11.6189 129.429 11.8445 129 11.8445 128.403C11.8445 127.806 11.6189 127.358 11.1677 127.041C10.7164 126.724 10.0772 126.463 9.23117 126.221C8.40393 125.997 7.78349 125.792 7.40747 125.605C7.03145 125.438 6.67423 125.214 6.33582 124.915C5.65898 124.356 5.32056 123.479 5.32056 122.304C5.32056 121.335 5.65898 120.514 6.35462 119.824C7.05025 119.134 7.9903 118.78 9.19357 118.78C9.7764 118.78 10.378 118.854 10.9985 119.022C11.6189 119.19 12.0137 119.264 12.1641 119.264C12.3145 119.264 12.4461 119.153 12.5777 118.947H12.7658L12.8786 122.23H12.6153C12.0889 121.297 11.5437 120.533 10.9797 119.973C10.4156 119.414 9.7764 119.115 9.11836 119.115C8.46033 119.115 7.9339 119.264 7.55788 119.582C7.18186 119.899 6.99385 120.309 6.99385 120.812C6.99385 121.316 7.21946 121.726 7.65189 122.006C8.08431 122.286 8.62954 122.51 9.28757 122.677C9.92681 122.845 10.3592 122.976 10.5472 123.032C10.7541 123.088 10.9985 123.181 11.2993 123.293C11.6001 123.405 11.8445 123.517 12.0325 123.647C12.2205 123.778 12.4273 123.927 12.6341 124.113C12.841 124.3 13.0102 124.505 13.1418 124.747C13.4426 125.27 13.5742 125.885 13.5742 126.594C13.5742 127.769 13.1982 128.701 12.4649 129.41V129.429ZM28.145 130.324H23.2943V130.025H24.1968V118.444H23.2379V118.146H27.2425V130.025H28.1638V130.324H28.145ZM33.3152 130.324H28.4646V130.025H29.367V122.883H28.4082V122.584H32.4128V130.025H33.334V130.324H33.3152ZM29.2542 119.955C29.2542 119.526 29.3858 119.171 29.649 118.891C29.9123 118.612 30.3259 118.463 30.8711 118.463C31.4163 118.463 31.83 118.593 32.112 118.836C32.394 119.097 32.5444 119.451 32.5444 119.917C32.5444 120.383 32.4128 120.756 32.1308 121.036C31.8488 121.316 31.4351 121.465 30.8523 121.465C30.2695 121.465 29.8559 121.316 29.6114 121.036C29.367 120.738 29.2354 120.383 29.2354 119.955H29.2542ZM39.4068 123.498C39.3128 123.311 39.1623 123.218 38.9367 123.218C38.5795 123.218 38.2787 123.442 38.0155 123.908C37.7523 124.356 37.6207 124.915 37.6207 125.568V130.044H38.3163V130.342H33.6725V130.044H34.5749V122.901H33.6725V122.603H37.6207V124.095C37.7899 123.591 38.0531 123.2 38.4291 122.901C38.7863 122.603 39.3316 122.454 40.0648 122.454C41.7569 122.454 42.6029 123.349 42.6029 125.158V130.044H43.5242V130.342H38.8991V130.044H39.576V124.766C39.576 124.113 39.5384 123.703 39.4444 123.517L39.4068 123.498ZM70.0712 130.324H65.4461V130.025H66.123V124.747C66.123 124.095 66.0854 123.684 65.9914 123.498C65.8974 123.311 65.747 123.218 65.5213 123.218C65.1641 123.218 64.8633 123.442 64.6001 123.908C64.3369 124.356 64.2053 124.915 64.2053 125.568V130.044H64.9009V130.342H60.2571V130.044H61.1595V122.901H60.2571V122.603H64.2053V124.095C64.3745 123.591 64.6377 123.2 65.0137 122.901C65.3709 122.603 65.9162 122.454 66.6494 122.454C68.3415 122.454 69.1875 123.349 69.1875 125.158V130.044H70.1088V130.342L70.0712 130.324ZM59.6178 126.128C59.7118 123.666 58.5274 122.435 56.0456 122.435C54.8236 122.435 53.8271 122.771 53.0187 123.461C52.229 124.151 51.8342 125.12 51.8342 126.407C51.8342 127.694 52.1914 128.683 52.8871 129.41C53.5827 130.137 54.6544 130.492 56.0456 130.492C57.1173 130.492 57.9445 130.268 58.471 129.839C59.0162 129.41 59.3922 128.794 59.599 128.03L59.2982 127.974C58.9034 129.317 58.0761 129.988 56.8165 129.988C56.1396 129.988 55.6696 129.727 55.3876 129.167C55.1056 128.627 54.974 127.825 54.974 126.762V126.128H59.5802H59.6178ZM55.0116 125.009C55.0116 124.169 55.0868 123.591 55.2372 123.255C55.3876 122.92 55.6132 122.752 55.9328 122.752C56.2525 122.752 56.4593 122.92 56.5533 123.237C56.6661 123.554 56.7037 124.151 56.7037 125.027V125.829H55.0116V125.027V125.009ZM21.809 123.386C21.151 122.733 20.1357 122.416 18.7821 122.416C17.4284 122.416 16.3755 122.771 15.6235 123.461C14.8715 124.151 14.4954 125.158 14.4954 126.445C14.4954 127.731 14.8527 128.738 15.5483 129.429C16.2439 130.119 17.278 130.473 18.6317 130.473C21.3954 130.473 22.7867 129.093 22.7867 126.333C22.7867 125.009 22.4483 124.039 21.7902 123.386H21.809ZM19.6657 127.116C19.6657 128.328 19.6093 129.111 19.5153 129.447C19.3837 129.932 19.1017 130.175 18.6881 130.175C18.3308 130.175 18.1052 130.044 17.9924 129.783C17.9172 129.634 17.842 129.429 17.7668 129.205C17.6916 128.962 17.654 128.254 17.654 127.079V125.81C17.654 124.822 17.7104 124.076 17.8044 123.591C17.8608 123.274 17.9736 123.05 18.124 122.92C18.2744 122.789 18.4625 122.715 18.7069 122.715C19.1205 122.715 19.3837 122.957 19.4965 123.442C19.6093 123.927 19.6657 124.692 19.6657 125.736V127.116ZM48.3184 128.627H46.6451C45.9495 128.627 45.5923 128.552 45.5923 128.403C45.5923 128.254 45.8367 128.03 46.3067 127.713C46.7579 127.806 47.2092 127.843 47.6228 127.843C48.6569 127.843 49.4653 127.601 50.0669 127.135C50.6686 126.65 50.9694 125.997 50.9694 125.139C50.9694 124.281 50.5558 123.573 49.7285 123.013C49.6533 122.64 49.6157 122.323 49.6157 122.043C49.6157 121.335 49.8413 120.98 50.3113 120.98C50.631 120.98 50.7626 121.148 50.7062 121.484L50.2549 121.764C50.2549 122.043 50.3677 122.248 50.537 122.398C50.725 122.547 50.9506 122.621 51.2326 122.621C51.5146 122.621 51.7402 122.528 51.947 122.36C52.135 122.174 52.2478 121.913 52.2478 121.54C52.2478 121.167 52.1162 120.887 51.8718 120.663C51.6274 120.458 51.3078 120.346 50.8942 120.346C50.4805 120.346 50.1233 120.477 49.8037 120.756C49.4841 121.036 49.3149 121.465 49.3149 122.062C49.3149 122.304 49.3525 122.565 49.4089 122.864C48.9013 122.603 48.2996 122.454 47.5852 122.454C46.4007 122.454 45.5171 122.696 44.9343 123.2C44.3514 123.703 44.0506 124.356 44.0506 125.158C44.0506 126.445 44.6898 127.265 45.9495 127.62C45.2539 128.048 44.765 128.403 44.5018 128.683C44.2198 128.962 44.0882 129.335 44.0882 129.746C44.0882 130.156 44.2762 130.529 44.6522 130.827C45.0283 131.126 45.6675 131.256 46.5511 131.256H48.1304C48.9577 131.256 49.5217 131.331 49.7849 131.499C50.0669 131.648 50.1985 131.965 50.1985 132.431C50.1985 132.897 49.9729 133.289 49.5029 133.606C49.0517 133.923 48.3936 134.072 47.5476 134.072C46.1563 134.072 45.4607 133.606 45.4607 132.674C45.4607 132.394 45.4983 132.095 45.5923 131.778L44.6146 131.349C43.7686 131.592 43.355 132.021 43.355 132.655C43.355 133.811 44.7086 134.389 47.3972 134.389C48.9765 134.389 50.1421 134.11 50.8942 133.55C51.6462 132.991 52.0222 132.245 52.0222 131.293C52.0222 129.522 50.7814 128.645 48.2996 128.645L48.3184 128.627ZM46.7956 124.785C46.7956 123.964 46.852 123.405 46.9836 123.144C47.1152 122.864 47.3032 122.733 47.5664 122.733C47.8296 122.733 47.9988 122.864 48.1116 123.125C48.2244 123.386 48.2808 123.946 48.2808 124.785V125.587C48.2808 126.37 48.2244 126.892 48.1116 127.153C47.9988 127.414 47.8108 127.526 47.5476 127.526C47.2844 127.526 47.0964 127.396 46.9836 127.135C46.852 126.874 46.7956 126.389 46.7956 125.661V124.785Z" fill="white"/>
<path d="M86.1649 131.331C82.9687 131.331 80.9006 129.653 80.9006 126.818H84.6232C84.6232 127.75 85.3377 128.198 86.1649 128.198C86.917 128.198 87.6314 127.806 87.6314 127.098C87.6314 126.277 86.6161 126.053 85.3753 125.755C83.4764 125.289 81.0698 124.71 81.0698 121.764C81.0698 119.209 82.9687 117.754 86.0521 117.754C89.1355 117.754 90.978 119.358 90.978 121.988H87.3682C87.3682 121.167 86.7477 120.775 85.9957 120.775C85.3565 120.775 84.736 121.055 84.736 121.652C84.736 122.398 85.7137 122.64 86.9546 122.939C88.8723 123.424 91.3916 124.076 91.3916 127.023C91.3916 129.97 89.1919 131.331 86.1649 131.331ZM113.464 131.331C110.268 131.331 108.2 129.653 108.2 126.818H111.922C111.922 127.75 112.637 128.198 113.464 128.198C114.216 128.198 114.93 127.806 114.93 127.098C114.93 126.277 113.915 126.053 112.674 125.755C110.775 125.289 108.369 124.71 108.369 121.764C108.369 119.209 110.268 117.754 113.351 117.754C116.435 117.754 118.277 119.358 118.277 121.988H114.667C114.667 121.167 114.047 120.775 113.295 120.775C112.656 120.775 112.035 121.055 112.035 121.652C112.035 122.398 113.013 122.64 114.254 122.939C116.171 123.424 118.691 124.076 118.691 127.023C118.691 129.97 116.491 131.331 113.464 131.331ZM139.691 131.014H136.326V127.806H139.691V131.014ZM147.625 131.014H144.279L139.165 118.034H143.282L145.952 126.09L148.565 118.034H152.664L147.663 131.014H147.625ZM99.8144 117.717C95.603 117.717 92.6137 120.57 92.6137 124.524C92.6137 128.478 95.6218 131.331 99.8144 131.331C104.007 131.331 106.996 128.496 106.996 124.524C106.996 120.552 104.007 117.717 99.8144 117.717ZM99.8144 128.03C97.8215 128.03 96.3551 126.557 96.3551 124.543C96.3551 122.528 97.8215 121.055 99.8144 121.055C101.807 121.055 103.255 122.51 103.255 124.543C103.255 126.575 101.807 128.03 99.8144 128.03ZM129.37 120.682C126.211 120.682 123.899 122.939 123.899 126.016C123.899 129.093 126.23 131.35 129.37 131.35C131.908 131.35 133.938 129.914 134.653 127.638H131.193C130.855 128.217 130.178 128.571 129.37 128.571C128.279 128.571 127.546 127.974 127.301 126.836H134.784C134.822 126.519 134.859 126.221 134.859 125.923C134.859 122.995 132.603 120.682 129.351 120.682H129.37ZM127.377 124.916C127.659 123.927 128.354 123.368 129.37 123.368C130.385 123.368 131.137 123.908 131.457 124.916H127.377Z" fill="white"/>
<path d="M127.189 48.396C127.358 49.2912 126.813 50.0185 125.91 50.1864C124.989 50.3542 124.237 49.8507 124.068 48.9555C123.899 48.0603 124.425 47.333 125.346 47.1838C126.249 47.0159 127.02 47.5008 127.17 48.396H127.189ZM144.298 52.5922C143.64 54.5317 145.595 60.3131 144.956 62.5697C144.298 64.8263 144.298 66.1131 144.956 67.717C145.614 69.3209 147.55 73.517 146.573 74.4682C145.595 75.4379 137.811 76.7248 131.983 67.717C126.155 58.7092 119.01 58.7092 114.799 62.2527C114.799 62.2527 113.821 65.7961 121.943 70.6263C130.047 75.4566 128.749 80.9209 128.749 80.9209C128.749 80.9209 125.835 82.2077 124.199 80.9209C122.583 79.6341 125.177 78.6643 120.308 74.8038C115.438 70.9434 111.227 73.2 104.74 68.6868L107.015 65.1433C107.015 65.1433 103.443 68.6868 100.529 70.9434C97.6148 73.2 93.723 74.4868 90.1508 77.3775C90.1508 77.3775 90.1508 81.555 93.065 82.8418C95.9791 84.1286 95.3399 86.7023 95.3399 86.7023C95.3399 86.7023 91.7677 88.3062 88.8536 86.7023C85.9394 85.0984 85.601 81.555 85.601 78.3286C85.601 75.1022 86.8983 72.8643 87.8759 70.9247C88.8536 68.9852 89.4928 67.3813 89.1732 64.1736C89.1732 64.1736 74.2452 63.5208 65.8223 56.7697C65.8223 56.7697 65.8223 74.4682 66.142 76.072C66.4616 77.6759 69.7141 82.8232 74.2452 83.1589C78.795 83.4759 78.4566 86.0496 78.4566 86.0496C78.4566 86.0496 75.204 87.9891 69.3757 86.0496C63.5286 84.11 63.5286 82.1891 62.8894 80.5852C62.2313 78.9814 60.9341 75.755 58.0199 73.4984C55.1058 71.2418 40.8358 60.6301 40.4974 54.8301C40.4974 54.8301 36.6056 60.6301 26.5471 60.2945C16.4885 59.9774 2.5382 52.8906 1.57935 44.1998C1.57935 44.1998 4.17388 43.8828 10.021 48.3774C15.8681 52.8906 23.9713 54.4944 29.1604 49.6642C34.3495 44.8339 39.5385 36.1432 45.3857 33.2525C48.4126 31.7419 51.5336 31.1078 53.8273 30.8467C53.9965 13.745 68.0221 -0.0556641 85.2814 -0.0556641C102.541 -0.0556641 116.735 13.9129 116.735 31.1451C116.735 31.8538 116.717 32.5438 116.66 33.2339H116.735C116.735 33.2339 124.839 35.4905 138.15 48.6758C138.15 48.6758 140.425 48.6758 143.019 47.3889C145.614 46.1021 149.186 46.7362 149.186 46.7362C149.186 46.7362 144.975 50.5967 144.316 52.5362L144.298 52.5922ZM68.0221 54.0468C68.2665 54.0468 69.4133 53.6738 70.297 53.6738C71.1806 53.6738 72.6847 53.9163 72.6847 53.9163C72.6847 53.9163 72.6847 53.2822 71.9327 52.6668C71.9327 52.6668 70.297 52.4243 68.2853 52.7973C68.2853 52.7973 67.27 53.0398 66.518 52.9279C66.518 52.9279 67.7776 54.0468 68.0221 54.0468ZM71.4814 45.8597C71.4814 45.8597 74.64 44.2371 75.392 43.8642C76.1441 43.4912 75.8997 43.1182 75.8997 43.1182C75.8997 43.1182 74.5084 40.9921 74.0008 40.2461C73.4931 39.5001 73.1171 39.612 73.1171 39.612H65.9351V39.985L69.5825 45.9902C69.9586 45.6172 71.4814 45.8597 71.4814 45.8597ZM70.2782 55.5575C70.2782 55.5575 71.2934 55.5575 72.1771 55.688C73.0607 55.8186 73.9444 55.4456 73.9444 55.4456L73.3051 54.569C73.3051 54.569 72.9291 54.196 72.2899 54.196C71.6507 54.196 70.391 53.823 69.0185 54.196C69.0185 54.196 68.6425 54.3266 68.2665 54.196C68.2665 54.196 69.0185 55.2031 70.2782 55.5761V55.5575ZM84.4541 58.8771C84.4541 58.8771 84.0781 59.0076 83.0629 59.1195C82.0476 59.2314 82.0476 59.7536 82.0476 59.7536C82.0476 59.7536 82.5552 59.6231 83.1757 59.8842C83.8149 60.1266 84.4353 60.0147 84.4353 60.0147V58.8957L84.4541 58.8771ZM84.4541 57.497C84.4541 57.497 83.1945 58.0006 82.0664 58.0006C80.9383 58.0006 77.4038 57.2546 76.3885 57.124C75.3732 56.9935 74.3768 56.9935 73.8692 57.497C73.8692 57.497 75.3732 58.1311 76.7645 58.5041C76.7645 58.5041 77.5166 58.1311 78.4002 58.2617C79.2839 58.3922 80.6751 59.2687 81.8032 59.1382C82.9312 59.0076 84.4541 58.5041 84.4541 58.5041V57.497ZM84.4541 56.1169C84.4541 56.1169 83.5705 56.4899 81.6904 56.3594C79.7915 56.2288 77.9114 55.8559 76.5201 55.8559C75.1288 55.8559 74.5084 56.2288 74.5084 56.2288L73.8692 55.8559C73.8692 55.8559 73.2299 56.3594 70.8422 55.9864C70.8422 55.9864 72.6095 57.1054 73.1171 57.2359C73.6247 57.3665 73.3615 56.9935 74.6212 56.7324C75.8809 56.4713 78.7762 57.1054 78.7762 57.1054C78.7762 57.1054 80.9195 57.6089 82.0476 57.6089C83.1757 57.6089 84.4353 56.9748 84.4353 56.9748V56.0983L84.4541 56.1169ZM84.4541 54.625C84.4541 54.625 83.0629 55.2591 81.4272 54.998C79.7915 54.7369 76.2569 54.252 75.8809 54.252C75.8809 54.252 76.3885 54.8861 76.5201 55.5015C76.5201 55.5015 77.9114 55.371 79.7915 55.744C81.6716 56.1169 83.4389 56.378 84.4541 55.6134V54.6063V54.625ZM84.4541 53.2449C84.4541 53.2449 83.4389 53.7484 82.0664 53.6179C80.6751 53.4874 77.5354 52.7414 76.7645 52.7414C75.9937 52.7414 75.3732 53.1144 75.3732 53.1144L75.7493 53.8603C75.7493 53.8603 76.5013 53.7298 77.8926 53.9909C79.2839 54.252 80.6563 54.7369 82.0476 54.7369C83.4389 54.7369 84.4353 54.2333 84.4353 54.2333V53.2263L84.4541 53.2449ZM84.4541 51.3613C84.4541 51.3613 84.3225 52.1073 82.5552 52.1073C80.7879 52.1073 79.3967 51.1002 77.761 50.9883C76.1253 50.8578 74.8656 51.6224 74.8656 51.6224L73.6059 49.3658H72.7223C72.0831 49.3658 71.9703 48.7317 71.9703 48.7317H71.4626C71.5942 49.2352 71.9703 49.8507 71.9703 49.8507H73.2299L74.9972 52.7227L75.1288 52.8533C75.1288 52.8533 75.5048 52.4803 76.6329 52.3497C77.761 52.2192 80.7879 53.0957 82.1792 53.2263C83.5705 53.3568 84.4541 52.8533 84.4541 52.8533V51.3613ZM84.5857 32.1522H56.0646C56.3278 39.8545 59.618 46.8108 64.7883 51.8462V49.6082C65.9163 46.4751 69.3193 47.1092 69.3193 47.1092L69.1877 46.3632L65.2771 40.041H63.6978V37.7844H71.519V36.0313H70.767V35.6583H74.922L79.2086 37.7844L84.0029 46.1581H84.5857V32.1336V32.1522ZM69.9586 19.974L71.8575 21.7271C71.8575 21.7271 72.2335 22.3612 72.9855 21.9695C73.7376 21.5779 76.8961 19.974 76.8961 19.974L75.5049 17.848C75.5049 17.848 75.2604 17.6055 74.9972 18.0904C74.7528 18.5939 73.8692 19.974 73.8692 19.974H69.9586ZM71.7823 18.4074C72.4215 18.4074 72.6659 17.9039 72.6659 17.9039C72.6659 17.9039 73.5495 16.6544 73.9256 16.1508C74.3016 15.6473 73.9256 15.0319 73.9256 15.0319C73.4179 14.2859 72.7975 14.7894 72.7975 14.7894L67.7588 17.419C67.2512 17.6615 67.2512 18.0531 67.2512 18.0531V18.4261H71.7823V18.4074ZM72.6659 25.9792V30.5483H79.0394C78.8702 30.0075 78.4942 29.1123 77.8926 28.8512C77.667 28.758 77.4978 28.6647 77.3661 28.5715C75.4296 28.0306 74.0948 25.9232 73.6812 25.1772C73.3991 25.3078 73.1923 25.4197 73.0983 25.4756C72.5907 25.7181 72.6659 25.9792 72.6659 25.9792ZM77.0089 23.4801C77.0089 23.4801 75.6553 24.1702 74.5272 24.7483C75.1288 25.9978 76.5765 27.1728 77.0089 27.5085V23.4801ZM84.5857 28.7766C83.6081 28.9818 81.8596 29.1683 81.8596 29.1683H81.822C81.9536 29.5226 82.386 30.138 82.7056 30.5483H84.5669V28.7766H84.5857ZM84.5857 2.23824C68.9809 2.57393 56.3842 15.0692 56.0458 30.5483H69.8833V24.0396C69.8833 23.6666 70.015 23.6666 70.015 23.6666C70.015 23.6666 70.6542 23.4242 71.0302 23.1631C71.4062 22.9206 71.1618 22.4171 71.1618 22.4171L68.3981 20.0486H67.0068L66.2548 18.9296C66.2548 18.9296 65.8787 18.7991 65.3711 18.7991C64.8635 18.7991 64.8635 18.5566 64.4875 17.9226C64.1114 17.2885 64.3559 17.419 64.243 16.9155C64.1114 16.4119 61.9681 14.7894 61.9681 14.7894C61.9681 14.7894 64.1114 16.2814 64.8635 16.4119C65.6155 16.5425 66.7624 15.9084 66.7624 15.9084C66.7624 15.9084 69.1501 14.4164 71.2934 13.4094C73.4367 12.4023 73.1923 11.9174 73.1923 11.9174H72.8163V10.1643H72.1771V9.92188H76.2193C77.3474 10.4254 78.8702 12.1785 78.8702 12.1785L77.9866 12.682L83.1004 21.1303C83.1004 21.1303 82.9688 21.2608 81.4648 21.8763C79.9607 22.4917 80.0735 23.1258 80.0735 23.1258L80.2051 26.6319C80.2051 26.6319 81.0323 27.7136 81.5024 28.4969C83.0628 28.4409 84.0969 28.1798 84.6233 27.9933V2.25689L84.5857 2.23824ZM100.266 15.0319V16.5238C100.266 16.5238 100.266 16.8968 99.8897 16.8968C99.8333 16.8968 99.7769 16.8968 99.7017 16.8968C99.6077 18.482 98.4609 18.8737 98.5737 19.8248C98.7053 20.8319 99.0813 20.8319 99.5889 20.8319C100.097 20.8319 100.341 20.3284 100.473 19.4518C100.604 18.5753 101.037 18.6312 101.037 18.6312C100.905 19.2653 101.037 22.1374 99.4009 22.0068C97.7652 21.8763 97.502 19.1348 98.2729 18.3888C99.0249 17.6428 99.1565 17.1393 99.1565 17.1393V16.9155C98.7053 16.9528 98.1976 17.046 97.8968 17.2698C97.3892 17.6428 96.6372 17.9039 96.6372 17.9039C96.5056 17.4004 96.2611 17.4004 96.2611 17.4004H94.3434V21.6898L99.8709 30.5297H114.442C114.216 20.03 108.35 10.9103 99.7205 6.02411V9.94052H102.936C102.936 9.94052 104.233 10.2576 104.552 11.8801H102.183C101.958 11.992 101.789 12.1039 101.676 12.1598C101.431 12.2904 101.037 12.4023 100.924 12.1598C100.867 12.0666 100.792 11.9547 100.698 11.8801H99.7205V14.6775C100.191 14.7521 100.285 15.0319 100.285 15.0319H100.266ZM92.0497 23.9464H91.3917V30.5483H95.9603L92.0309 23.9464H92.0497ZM97.4268 15.7219C97.8028 15.7219 97.8592 15.5354 97.8592 15.5354C97.8592 15.5354 98.5361 14.9573 99.1189 14.7335V11.8801H94.3058V15.7219H97.4268ZM86.2026 30.5483H87.9887V11.2646C87.9887 11.2646 89.5304 7.88907 90.508 7.73987L90.5644 7.68392H93.9674L94.3998 7.96367C94.4939 8.01962 94.4563 8.16881 94.3434 8.16881H93.8358V9.95917H99.1377V5.74436C95.2647 3.65561 90.8841 2.42473 86.2214 2.27554V30.567L86.2026 30.5483ZM95.4339 58.3176C95.0955 57.7768 94.0238 56.005 93.3846 54.8488C92.6326 53.4687 92.1249 53.2263 92.1249 53.2263V55.4829C92.1249 55.9864 91.9369 56.3034 91.9369 56.3034L89.8312 59.7909C91.7677 59.4925 93.6478 58.989 95.4339 58.3363V58.3176ZM94.0238 49.6082L95.0767 51.2867H96.6184V44.5355C96.6184 44.5355 94.4186 47.5941 94.0426 48.3401C93.6666 49.086 94.0426 49.5896 94.0426 49.5896L94.0238 49.6082ZM105.605 51.9208H101.394V54.0468H100.642V51.9208H98.8745V52.1632H96.5996V51.9208H95.4527L98.5737 56.9375C101.168 55.6134 103.537 53.9163 105.586 51.9208H105.605ZM108.313 48.8995H106C106 48.8995 104.496 49.4031 104.176 51.2494H106.263C106.263 51.2494 106.564 50.951 106.978 50.5034C107.448 49.9812 107.899 49.4404 108.331 48.8995H108.313ZM108.783 48.2841C112.148 43.7336 114.216 38.176 114.404 32.1336H86.2026V59.1009L88.91 55.3896V50.5221C88.91 50.5221 89.0416 49.6455 88.1579 49.4031C87.2743 49.1606 87.1427 48.769 87.1427 48.769C87.1427 48.769 93.065 39.2577 93.817 38.1387C94.5691 37.0198 95.5843 37.1316 95.8287 36.6468C96.0731 36.1619 96.5808 35.5278 96.5808 35.5278H100.867V35.7702H100.228V37.3927H98.8369V50.7645H99.5889V48.396H102.992V49.142H104.628L105.511 48.2655H108.745L108.783 48.2841ZM123.805 56.061L118.973 51.2121L121.473 45.3748L118.014 46.0089L115.983 51.0629L115.137 46.5311L112.148 47.0719L114.141 57.8141L117.13 57.2732L116.247 52.5176L120.232 56.6951L123.767 56.0423L123.805 56.061ZM129.802 47.8552C129.37 45.5613 127.358 44.2931 124.857 44.7407C122.376 45.1883 120.947 47.0905 121.379 49.4031C121.755 51.4359 123.504 52.5735 125.628 52.1819C125.873 52.1446 126.098 52.07 126.324 51.9954C125.835 53.2822 125.346 54.5877 124.857 55.8745L127.922 55.315L129.276 51.6783C129.877 50.0372 130.009 48.9182 129.821 47.8365L129.802 47.8552ZM93.9862 6.19195C93.9862 6.19195 93.9862 5.55787 93.1026 5.55787H91.3353C91.3353 5.55787 90.5832 5.55787 90.5832 6.56495H93.9862V6.19195ZM35.3083 60.6674C33.353 62.607 29.1416 66.1318 26.5471 67.7543C23.9525 69.3582 21.6776 71.9318 22.6553 76.445C23.6329 80.9582 23.3133 84.8187 23.3133 84.8187C23.3133 84.8187 29.7996 88.0451 30.4577 86.1055C31.1157 84.1659 26.5659 78.3846 28.1828 75.4939C29.7996 72.6032 31.7549 72.9202 37.9217 70.9807C44.0884 69.0411 46.3633 65.1806 46.3633 65.1806C42.4715 61.3202 40.0462 56.9748 40.0462 56.9748C36.6432 58.989 37.132 58.8957 35.3459 60.6674H35.3083ZM66.142 52.7041C66.142 52.7041 66.518 52.8346 67.27 52.7041C68.022 52.5735 69.6577 52.07 71.6882 52.3311L71.1806 51.324C71.1806 51.324 67.646 50.6899 65.3899 52.07L66.142 52.7041ZM74.2076 33.3271H72.0643C72.0643 33.3271 71.1806 33.4577 71.1806 34.5767H75.0912C75.0912 34.5767 75.0912 33.3271 74.2076 33.3271ZM76.1629 8.39261C76.1629 8.39261 76.1629 7.75852 75.1476 7.75852H73.5119C73.5119 7.75852 72.3839 7.75852 72.3839 8.39261V9.02669H76.1629V8.39261ZM99.7957 33.5882H97.8968C97.8968 33.5882 97.0132 33.7188 97.0132 34.3342V34.5767H100.792V34.2037C100.792 34.2037 100.548 33.5696 99.7769 33.5696L99.7957 33.5882Z" fill="#333333"/>
</g>
<defs>
<clipPath id="clip0_228_2207">
<rect width="159" height="137" fill="white"/>
</clipPath>
</defs>
</svg>
