<svg width="226" height="84" viewBox="0 0 226 84" fill="none" xmlns="http://www.w3.org/2000/svg">
<path d="M50.871 60.6456L13.3774 60.8886L14.0311 1.39916L51.5246 1.15625L51.3612 16.4248L25.6224 16.5867L25.4356 33.4168L51.1745 33.2895L40.2486 43.9891L25.3189 44.0816L25.2488 50.5245L50.9877 50.3625L50.8826 60.6341L50.871 60.6456Z" fill="#841618"/>
<path d="M92.135 60.3794L81.9562 60.4373L66.4079 37.789L66.1627 60.5414L54.7466 60.6224L55.2252 16.3436L64.8904 16.2858L80.964 39.6166L81.2208 16.1817L92.6136 16.1123L92.1234 60.391L92.135 60.3794Z" fill="#831619"/>
<path d="M131.87 32.8851L120.185 43.897L108.372 43.9779L108.197 60.2875L96.4424 60.3685L96.921 16.0897L132.057 15.8584L131.928 27.5527L108.547 27.7031L108.489 33.0124L131.87 32.8967V32.8851Z" fill="#831619"/>
<path d="M224.226 0.786133C224.226 0.786133 217.934 5.43609 220.841 17.5121C223.012 25.8057 222.907 25.7247 221.868 30.9183C221.868 30.9183 226.677 26.2799 225.206 17.8128C223.724 9.34576 221.786 7.13645 224.214 0.786133H224.226Z" fill="#543612"/>
<path d="M217.514 8.84863C217.514 8.84863 214.491 11.7173 216.323 17.5355C217.677 21.5146 217.619 21.4799 217.257 24.175C217.257 24.175 219.545 21.4336 218.529 17.3157C217.526 13.1863 216.475 12.2493 217.502 8.84863H217.514Z" fill="#543612"/>
<path d="M49.4584 61.6865L11.9648 61.9294L12.6185 2.42846L50.112 2.18555L49.9486 17.4541L24.1981 17.616L24.0113 34.4461L49.7502 34.3188L38.8243 45.0184L23.8946 45.1109L23.8246 51.5538L49.5634 51.3918L49.4584 61.6749V61.6865Z" fill="#B92026" stroke="white" stroke-width="0.25" stroke-miterlimit="22.93"/>
<path d="M90.7224 61.4206L80.5436 61.49L64.9952 38.8417L64.7384 61.5941L53.3223 61.6751L53.8009 17.3964L63.4661 17.327L79.5397 40.6577L79.7965 17.2344L91.1893 17.165L90.6991 61.4437L90.7224 61.4206Z" fill="#B92026" stroke="white" stroke-width="0.25" stroke-miterlimit="22.93"/>
<path d="M130.457 33.9252L118.773 44.937L106.96 45.018L106.784 61.3275L95.0298 61.4085L95.5084 17.1298L130.644 16.8984L130.516 28.6043L107.135 28.7547L107.076 34.064L130.457 33.9483V33.9252Z" fill="#B92026" stroke="white" stroke-width="0.25" stroke-miterlimit="22.93"/>
<path d="M60.7695 6.62686C60.5477 5.81717 60.1858 5.16941 59.6722 4.69516C59.1586 4.22091 58.5866 3.978 57.9446 3.978C57.4544 3.978 57.0575 4.10524 56.7423 4.37128C56.4388 4.62576 56.2871 4.97277 56.2754 5.38919C56.2754 5.79403 56.4271 6.14104 56.7306 6.41865C57.0341 6.69626 57.6061 7.00857 58.4349 7.35559C59.5438 7.81827 60.3376 8.30408 60.8278 8.81304C61.3064 9.32199 61.5516 9.92347 61.5399 10.6291C61.5282 11.5891 61.1897 12.341 60.5127 12.9078C59.8356 13.4746 58.9368 13.7522 57.8162 13.7637C57.1975 13.7637 56.4855 13.6365 55.6917 13.3589C55.4583 13.2779 55.2832 13.2548 55.1665 13.3011C55.0497 13.3473 54.968 13.463 54.898 13.6596L54.863 13.7753H54.4077L54.4544 10.2011H54.8863C55.0381 11.1264 55.3882 11.8667 55.9369 12.4335C56.4855 13.0003 57.1392 13.2779 57.8863 13.2664C58.4466 13.2664 58.9018 13.1044 59.252 12.8037C59.6022 12.5029 59.7773 12.0981 59.7773 11.6007C59.7773 11.1958 59.6255 10.8488 59.2987 10.5712C58.9835 10.2821 58.3882 9.95817 57.5127 9.5996C56.4855 9.17161 55.7384 8.69737 55.2949 8.19998C54.8513 7.7026 54.6295 7.08954 54.6412 6.37239C54.6412 5.50486 54.9563 4.81083 55.5517 4.29031C56.147 3.78136 56.9407 3.51532 57.9446 3.51532C58.4699 3.51532 59.0769 3.63099 59.7773 3.89703C60.0574 4.00114 60.2675 4.03584 60.3959 4.00114C60.536 3.95487 60.6411 3.82763 60.7345 3.61943L60.7811 3.49219H61.213L61.178 6.61529H60.7695V6.62686Z" fill="#543612"/>
<path d="M63.5594 11.9941L67.178 3.50391H67.3764H67.5865L71.1234 11.9594C71.3102 12.399 71.4853 12.6766 71.6487 12.827C71.8121 12.9658 72.0573 13.0467 72.3841 13.0583V13.4169L69.9561 13.4284H67.5282V13.0814C68.1819 13.0583 68.5787 12.9773 68.7188 12.8385C68.8589 12.6997 68.8355 12.4105 68.6488 11.971L68.0768 10.5945H64.7734L64.4699 11.3811C64.1664 12.0751 64.073 12.5378 64.2014 12.746C64.3181 12.9658 64.7383 13.0699 65.4504 13.0814V13.44H63.8629H62.2637V13.093C62.6022 13.0699 62.8473 12.9889 63.0107 12.8501C63.1742 12.7113 63.3493 12.4221 63.536 11.9826L63.5594 11.9941ZM65.0302 10.0509H67.8667L66.4659 6.60388L65.0185 10.0509H65.0302Z" fill="#543612"/>
<path d="M74.5668 11.9363L74.6485 5.12334C74.6485 4.70693 74.5668 4.41775 74.3917 4.27895C74.2166 4.14014 73.843 4.05917 73.2711 4.02447V3.66589L75.8508 3.65433H78.4422V4.00134C77.8702 4.03604 77.4967 4.12858 77.3216 4.26738C77.1465 4.40619 77.0531 4.69536 77.0414 5.11178L76.9597 11.9248C76.9597 12.3412 77.0414 12.6304 77.2165 12.7692C77.3916 12.908 77.7652 12.9889 78.3371 13.0236V13.3822L75.7574 13.3938H73.166V13.0468C73.738 13.0121 74.1115 12.9195 74.2866 12.7807C74.4617 12.6419 74.5551 12.3528 74.5551 11.9363H74.5668ZM75.8975 0.901367C76.166 0.901367 76.3877 0.993904 76.5628 1.16741C76.7379 1.35248 76.8313 1.57226 76.8313 1.82673C76.8313 2.09277 76.7379 2.31255 76.5512 2.49762C76.3644 2.68269 76.1426 2.77523 75.8741 2.77523C75.6057 2.77523 75.3839 2.68269 75.2088 2.50919C75.0337 2.33568 74.9403 2.10434 74.9403 1.84987C74.9403 1.58382 75.0337 1.36405 75.2205 1.17898C75.4072 0.993904 75.629 0.901367 75.8975 0.901367Z" fill="#543612"/>
<path d="M82.4111 11.9012L82.5045 4.08182H82.4345C81.5473 4.08182 80.8937 4.27846 80.4618 4.66018C80.0299 5.04189 79.7614 5.66651 79.6447 6.54561H79.1777L79.2128 5.11129L79.2478 3.66541L83.6952 3.64227L88.1426 3.61914V5.06502V6.51091H87.6756C87.5706 5.63181 87.3138 5.00719 86.8936 4.63704C86.4733 4.2669 85.8196 4.08182 84.9442 4.08182H84.8741L84.7807 11.9012C84.7807 12.3176 84.8625 12.5952 85.0492 12.734C85.236 12.8728 85.6212 12.9653 86.2282 13V13.3586L83.5668 13.3702H80.9053V13.0232C81.5123 12.9885 81.9092 12.8959 82.0843 12.7456C82.2711 12.6067 82.3644 12.3291 82.3644 11.9127L82.4111 11.9012Z" fill="#543612"/>
<path d="M101.543 9.75057C101.543 11.0345 101.205 11.983 100.551 12.6076C99.8972 13.2323 98.9166 13.5561 97.5976 13.5561C96.3486 13.5561 95.3914 13.2554 94.7144 12.6308C94.049 12.0062 93.7222 11.1271 93.7338 9.97035L93.7922 5.03121C93.7922 4.60323 93.7222 4.32562 93.5704 4.18682C93.4187 4.04801 93.1035 3.96704 92.6016 3.93234V3.57376L95.0529 3.5622H97.5042V3.90921C96.9672 3.94391 96.6054 4.03645 96.442 4.17525C96.2785 4.31406 96.1852 4.59167 96.1852 5.01965L96.1268 10.0513C96.1268 11.0114 96.2785 11.717 96.6287 12.1681C96.9789 12.6192 97.5159 12.8505 98.2396 12.8505C99.1501 12.8505 99.8154 12.5845 100.236 12.064C100.668 11.5435 100.878 10.7222 100.901 9.61177L100.948 5.32039C100.948 4.76517 100.866 4.39503 100.679 4.22152C100.492 4.03645 100.096 3.93234 99.4886 3.89764V3.53906H101.134H102.769V3.88607C102.29 3.92078 101.975 4.02488 101.823 4.20995C101.671 4.39503 101.59 4.76517 101.59 5.33196L101.531 9.75057H101.543Z" fill="#543612"/>
<path d="M109.831 6.38452C109.609 5.57483 109.247 4.92707 108.734 4.45282C108.22 3.97857 107.648 3.73566 107.006 3.73566C106.516 3.73566 106.119 3.8629 105.804 4.12894C105.5 4.38342 105.349 4.73043 105.337 5.14685C105.337 5.55169 105.489 5.89871 105.792 6.17632C106.096 6.45392 106.668 6.76624 107.496 7.11325C108.605 7.57593 109.399 8.06175 109.889 8.5707C110.368 9.07965 110.613 9.68113 110.601 10.3867C110.601 11.3468 110.251 12.0986 109.574 12.6654C108.897 13.2322 107.998 13.5098 106.878 13.5214C106.259 13.5214 105.547 13.3942 104.753 13.1166C104.52 13.0356 104.345 13.0124 104.228 13.0587C104.111 13.105 104.03 13.2207 103.96 13.4173L103.924 13.533H103.469L103.516 9.95874H103.948C104.1 10.8841 104.45 11.6244 104.998 12.1912C105.547 12.758 106.201 13.0356 106.948 13.024C107.508 13.024 107.963 12.8621 108.314 12.5613C108.664 12.2606 108.839 11.8557 108.839 11.3584C108.839 10.9535 108.687 10.6065 108.36 10.3289C108.045 10.0397 107.45 9.71584 106.574 9.35726C105.547 8.92928 104.8 8.45503 104.356 7.95764C103.913 7.46026 103.691 6.8472 103.691 6.13005C103.691 5.26252 104.006 4.56849 104.602 4.04798C105.197 3.53902 105.991 3.27298 106.994 3.27298C107.52 3.27298 108.127 3.38865 108.827 3.6547C109.107 3.7588 109.317 3.7935 109.446 3.74723C109.586 3.71253 109.691 3.57373 109.784 3.36552L109.831 3.23828H110.263L110.228 6.36139H109.819L109.831 6.38452Z" fill="#543612"/>
<path d="M114.99 11.7283L115.084 3.90897H115.014C114.126 3.90897 113.473 4.10561 113.053 4.48732C112.632 4.86904 112.352 5.49366 112.224 6.37276H111.757L111.792 4.93844L111.839 3.49256L116.286 3.46942L120.733 3.44629V4.89217V6.33805H120.266C120.161 5.45896 119.905 4.83434 119.484 4.46419C119.064 4.09404 118.41 3.90897 117.535 3.90897H117.465L117.372 11.7283C117.372 12.1447 117.453 12.4223 117.64 12.5611C117.827 12.6999 118.212 12.7925 118.819 12.8272V13.1858L116.158 13.1973H113.496V12.8503C114.103 12.8156 114.5 12.7231 114.675 12.5727C114.862 12.4339 114.955 12.1563 114.955 11.7283H114.99Z" fill="#543612"/>
<path d="M122.519 11.6933L126.138 3.20312H126.336H126.547L130.083 11.6586C130.27 12.0982 130.445 12.3758 130.609 12.5262C130.772 12.665 131.017 12.746 131.344 12.7575V13.1161L128.916 13.1277H126.488V12.7807C127.142 12.7575 127.539 12.6765 127.679 12.5377C127.819 12.3989 127.807 12.1098 127.62 11.6702L127.048 10.2937H123.745L123.442 11.0803C123.138 11.7743 123.045 12.237 123.173 12.4452C123.301 12.665 123.71 12.7691 124.422 12.7807V13.1392H122.835H121.235V12.7922C121.574 12.7691 121.819 12.6881 121.982 12.5493C122.146 12.4105 122.321 12.1213 122.508 11.6818L122.519 11.6933ZM123.99 9.75008H126.827L125.426 6.3031L123.978 9.75008H123.99Z" fill="#543612"/>
<path d="M118.948 73.011C118.247 73.7166 117.535 74.2371 116.811 74.561C116.088 74.8849 115.294 75.0584 114.418 75.0584C112.738 75.0584 111.372 74.6189 110.321 73.7282C109.259 72.826 108.745 71.6693 108.757 70.2465C108.78 68.7775 109.329 67.5745 110.403 66.6376C111.489 65.7007 112.866 65.2264 114.535 65.2148C115.177 65.2148 115.971 65.3768 116.893 65.7122C117.278 65.851 117.57 65.8973 117.769 65.851C117.967 65.8048 118.13 65.6428 118.27 65.3652L118.329 65.238H118.737L118.702 68.4999H118.306C117.92 67.6324 117.395 66.9499 116.73 66.4409C116.064 65.932 115.364 65.6775 114.629 65.6775C113.648 65.6775 112.889 66.0592 112.387 66.7995C111.874 67.5398 111.617 68.6503 111.594 70.1308C111.582 71.5536 111.827 72.6178 112.352 73.3349C112.878 74.0521 113.66 74.3991 114.71 74.3991C115.411 74.3991 116.053 74.2603 116.648 73.9827C117.243 73.7051 117.85 73.2655 118.469 72.664L118.948 73.0226V73.011Z" fill="#543612"/>
<path d="M121.014 73.3576L124.912 65.1797H125.356L129.196 73.3229C129.395 73.7393 129.582 74.0169 129.757 74.1557C129.932 74.2945 130.189 74.3639 130.55 74.3871V74.7341L127.936 74.7457H125.309V74.4102C126.01 74.3871 126.442 74.3061 126.605 74.1673C126.757 74.0285 126.733 73.7509 126.535 73.3345L125.916 72.0043L122.344 72.0274L122.018 72.7792C121.691 73.4501 121.597 73.8897 121.726 74.0979C121.854 74.3061 122.309 74.4102 123.08 74.4218V74.7688H121.364H119.636V74.4333C119.998 74.4102 120.267 74.3408 120.442 74.202C120.617 74.0632 120.804 73.7856 121.014 73.3692V73.3576ZM122.601 71.4837H125.671L124.154 68.164L122.601 71.4837Z" fill="#543612"/>
<path d="M137.484 74.9428C135.78 74.9428 134.391 74.5032 133.305 73.6125C132.232 72.7103 131.706 71.5536 131.718 70.1309C131.741 68.6618 132.29 67.4589 133.364 66.5219C134.438 65.585 135.815 65.1108 137.484 65.0992C138.15 65.0992 138.955 65.2611 139.901 65.5966C140.286 65.7354 140.578 65.7816 140.776 65.7238C140.963 65.666 141.115 65.504 141.231 65.238L141.278 65.1223H141.698L141.663 68.3842H141.266C140.881 67.5167 140.356 66.8342 139.691 66.3253C139.025 65.8163 138.337 65.5619 137.613 65.5619C136.621 65.5619 135.862 65.9551 135.348 66.7186C134.835 67.482 134.566 68.6156 134.543 70.1193C134.519 71.5767 134.765 72.664 135.278 73.4043C135.78 74.1331 136.551 74.5032 137.566 74.4916C137.928 74.4916 138.278 74.4454 138.605 74.3875C138.827 74.3413 138.99 74.2487 139.119 74.0984C139.235 73.9596 139.305 73.7745 139.305 73.5431V72.0973C139.329 71.6924 139.224 71.4264 139.025 71.2876C138.827 71.1488 138.383 71.0678 137.718 71.0447V70.6976L140.473 70.6861H143.216V71.0215C142.644 71.0909 142.27 71.1835 142.095 71.3223C141.92 71.4611 141.827 71.7155 141.827 72.0973L141.803 74.1215C140.601 74.6651 139.165 74.9428 137.484 74.9543V74.9428ZM137.484 64.5671C136.714 64.5671 136.13 64.3936 135.733 64.0234C135.337 63.6533 135.126 63.0865 135.068 62.3231H135.792C135.909 62.7626 136.095 63.0749 136.352 63.26C136.597 63.4335 136.982 63.5261 137.496 63.5261C138.01 63.5261 138.395 63.4335 138.652 63.2485C138.909 63.0634 139.095 62.7511 139.235 62.3115H139.959C139.901 63.0402 139.656 63.607 139.235 63.9887C138.815 64.3705 138.231 64.5671 137.496 64.5671H137.484Z" fill="#543612"/>
<path d="M149.134 73.2195L149.216 66.661C149.216 66.2446 149.146 65.9785 148.97 65.8397C148.807 65.7009 148.445 65.62 147.885 65.5968V65.2498L150.523 65.2382H152.799C154.62 65.2151 156.056 65.62 157.118 66.4181C158.169 67.2162 158.694 68.3035 158.671 69.68C158.647 71.1837 158.122 72.3751 157.083 73.2542C156.044 74.1333 154.643 74.5844 152.893 74.596H150.406L147.78 74.6191V74.2721C148.34 74.2374 148.702 74.1564 148.877 74.0176C149.04 73.8788 149.134 73.6128 149.134 73.1964V73.2195ZM151.725 73.3468C151.725 73.6244 151.795 73.8326 151.935 73.9598C152.087 74.087 152.321 74.1564 152.647 74.1449H152.811C153.803 74.1449 154.562 73.7747 155.087 73.0691C155.612 72.352 155.881 71.3225 155.904 69.9807C155.916 68.5811 155.659 67.517 155.11 66.7882C154.562 66.0595 153.768 65.6894 152.717 65.7009H152.647C152.344 65.7009 152.134 65.7588 152.005 65.8629C151.877 65.967 151.819 66.152 151.819 66.4181L151.737 73.3583L151.725 73.3468Z" fill="#543612"/>
<path d="M161.285 73.4735C160.235 72.5713 159.721 71.4146 159.733 69.9918C159.756 68.5228 160.293 67.3198 161.367 66.3829C162.441 65.446 163.806 64.9717 165.464 64.9602C167.133 64.9602 168.487 65.4113 169.538 66.3366C170.588 67.262 171.102 68.465 171.079 69.934C171.067 71.3567 170.518 72.525 169.445 73.4273C168.371 74.3411 167.005 74.7922 165.347 74.8037C163.69 74.8037 162.336 74.3642 161.285 73.4735ZM167.495 73.2306C167.974 72.4903 168.231 71.3915 168.242 69.9456C168.266 68.4419 168.032 67.3083 167.577 66.5449C167.11 65.793 166.41 65.4113 165.464 65.4113C164.53 65.4113 163.818 65.8046 163.328 66.568C162.838 67.3314 162.592 68.465 162.569 69.9687C162.546 71.4262 162.779 72.5135 163.246 73.2537C163.713 73.9825 164.413 74.3526 165.359 74.341C166.304 74.341 167.017 73.9593 167.507 73.2306H167.495ZM163.83 62.3807C164.122 62.3807 164.355 62.4617 164.554 62.6352C164.752 62.8087 164.845 63.0169 164.845 63.2714C164.845 63.5258 164.74 63.7341 164.542 63.9076C164.343 64.0811 164.098 64.1736 163.818 64.1736C163.526 64.1736 163.293 64.0926 163.094 63.9191C162.896 63.7456 162.803 63.5374 162.803 63.2829C162.803 63.0285 162.908 62.8203 163.106 62.6468C163.305 62.4732 163.55 62.3807 163.83 62.3807ZM167.168 62.3691C167.46 62.3691 167.694 62.4501 167.892 62.6236C168.09 62.7971 168.184 63.0053 168.184 63.2598C168.184 63.5143 168.079 63.7225 167.88 63.896C167.682 64.0695 167.437 64.162 167.157 64.162C166.865 64.162 166.631 64.0811 166.433 63.9076C166.234 63.7341 166.141 63.5258 166.141 63.2714C166.141 63.0169 166.246 62.8087 166.445 62.6352C166.643 62.4617 166.888 62.3691 167.168 62.3691Z" fill="#543612"/>
<path d="M173.974 72.7684C173.974 73.3005 174.067 73.6591 174.265 73.8326C174.464 74.0061 174.896 74.1102 175.549 74.1333V74.4803H173.693H171.849V74.1449C172.433 74.1102 172.818 74.0061 172.993 73.8326C173.168 73.6591 173.262 73.3005 173.273 72.7569L173.355 66.4759C172.97 66.0711 172.69 65.805 172.503 65.6662C172.328 65.5274 172.141 65.458 171.966 65.458V65.111H173.658H175.339L180.907 71.0102L180.954 66.7998C180.954 66.2677 180.861 65.9092 180.662 65.7356C180.464 65.5621 180.032 65.458 179.378 65.4349V65.0879H181.164H182.938V65.4233C182.413 65.458 182.075 65.5621 181.911 65.7356C181.748 65.9092 181.666 66.2677 181.654 66.8114L181.561 74.7117H181.339H181.117L174.044 67.2162L173.974 72.7684Z" fill="#543612"/>
<path d="M183.429 74.4566V74.1096C184.013 74.0749 184.398 73.9939 184.573 73.8551C184.748 73.7163 184.842 73.4503 184.853 73.0454L184.935 66.4869C184.935 66.0821 184.853 65.8044 184.678 65.6772C184.503 65.5384 184.118 65.469 183.534 65.4343V65.0873L187.538 65.0642L192.779 65.041V66.4291L192.744 67.8287H192.359C192.254 66.9958 191.939 66.4059 191.425 66.0473C190.911 65.6888 190.118 65.5153 189.032 65.5268H188.355C188.052 65.5268 187.841 65.5847 187.713 65.6888C187.585 65.7929 187.526 65.9779 187.526 66.244L187.491 69.4249H187.771C188.507 69.4249 189.044 69.263 189.406 68.9391C189.768 68.6152 190.001 68.0947 190.118 67.3429H190.538L190.515 69.6678L190.491 72.0044H190.071C189.966 71.241 189.744 70.6857 189.394 70.3619C189.044 70.038 188.495 69.876 187.771 69.876H187.491L187.445 73.1958C187.445 73.4734 187.515 73.6816 187.655 73.8089C187.806 73.9361 188.04 73.9939 188.355 73.9939H188.729C189.849 73.9939 190.736 73.7973 191.39 73.4156C192.055 73.0454 192.592 72.4208 193.024 71.5417H193.468L193.129 72.976L192.779 74.4103L187.41 74.4335L183.406 74.4566H183.429Z" fill="#543612"/>
<path d="M195.709 72.9763L195.79 66.4178C195.79 66.013 195.709 65.7353 195.534 65.6081C195.359 65.4693 194.973 65.3999 194.39 65.3652V65.0182L197.098 65.0066H199.608C201.078 64.9835 202.187 65.1917 202.946 65.5965C203.705 66.0014 204.078 66.6029 204.067 67.401C204.067 68.257 203.646 68.9047 202.818 69.3558C202.456 69.5525 202.024 69.7028 201.51 69.8185L204.032 72.9301C204.382 73.358 204.65 73.6356 204.825 73.7745C205 73.9133 205.187 73.9827 205.397 73.9827V74.3297H204.884H202.071L198.825 70.0267H198.335L198.3 72.9532C198.3 73.358 198.382 73.6356 198.557 73.7629C198.732 73.9017 199.117 73.9711 199.701 74.0058V74.3528L196.993 74.3644H194.285V74.0289C194.868 73.9942 195.254 73.9133 195.429 73.7745C195.604 73.6356 195.697 73.3696 195.709 72.9648V72.9763ZM198.335 69.5756H198.966C199.818 69.5756 200.425 69.4021 200.786 69.0782C201.137 68.7544 201.323 68.1991 201.335 67.4241C201.335 66.7417 201.183 66.2443 200.857 65.9204C200.53 65.6081 200.016 65.4462 199.316 65.4577H199.211C198.907 65.4577 198.697 65.5156 198.569 65.6197C198.44 65.7238 198.382 65.9089 198.382 66.1749L198.335 69.5872V69.5756Z" fill="#543612"/>
<path d="M174.768 32.2256H173.507V40.0565H174.768V32.2256Z" fill="white"/>
<path d="M175.421 32.2256H174.768V32.295H175.421V32.2256Z" fill="white"/>
<path d="M176.717 32.5488H173.343V61.2698H176.717V32.5488Z" fill="white"/>
<path d="M173.39 59.4894L135.896 59.7323L136.55 0.242908L174.044 0L173.88 15.2685L148.13 15.4305L147.943 32.2605L173.682 32.1333L162.756 42.8328L147.826 42.9254L147.756 49.3682L173.495 49.2063L173.39 59.4894Z" fill="#83171B"/>
<path d="M172.223 60.5303L134.729 60.7732L135.383 1.27221L172.876 1.0293L172.713 16.2978L146.962 16.4598L146.775 33.2898L172.514 33.1626L161.588 43.8621L146.659 43.9547L146.589 50.3975L172.328 50.2356L172.223 60.5187V60.5303Z" fill="#B92026" stroke="white" stroke-width="0.25" stroke-miterlimit="22.93"/>
<path d="M179.553 59.5245H179.658L214.047 59.3047L221.482 52.2604L221.623 39.0739L214.339 32.1684L196.281 32.2609L196.327 26.836L206.903 26.7666L207.031 15.0723L192.16 15.1648L184.596 23.227L184.456 36.3441L191.46 42.5903L209.833 42.4746L209.763 49.0447L179.775 49.2414H179.67" fill="#831619"/>
<path d="M177.639 60.3341H177.744L212.133 60.1027L219.568 53.0699L219.708 39.8835L212.425 32.978L194.355 33.0705L194.413 27.6455L204.989 27.5761L205.117 15.8818L190.234 15.9744L182.682 24.025L182.542 37.1537L189.534 43.3999L207.919 43.2842L207.849 49.8543L177.861 50.0509H177.756" fill="#B92026"/>
<path d="M177.639 60.3341H177.744L212.133 60.1027L219.568 53.0699L219.708 39.8835L212.425 32.978L194.355 33.0705L194.413 27.6455L204.989 27.5761L205.117 15.8818L190.234 15.9744L182.682 24.025L182.542 37.1537L189.534 43.3999L207.919 43.2842L207.849 49.8543L177.861 50.0509H177.756" stroke="white" stroke-width="0.25" stroke-miterlimit="22.93"/>
</svg>
