<svg width="281" height="52" viewBox="0 0 281 52" fill="none" xmlns="http://www.w3.org/2000/svg">
<g clip-path="url(#clip0_228_2158)">
<path d="M40.5456 19.5088L51.0058 5.14355V27.0299H46.7037V18.1688L40.5456 26.6841L34.3875 18.1688V27.0299H30.0854V5.14355L40.5456 19.5088Z" fill="#00AEEF"/>
<path d="M70.3866 5.54688V18.5C70.3866 20.8918 69.5521 22.9234 67.8543 24.6236C66.1709 26.3094 64.1277 27.1595 61.7537 27.1595C59.3797 27.1595 57.3366 26.3238 55.6388 24.6236C53.9553 22.9378 53.1064 20.8918 53.1064 18.5V5.54688H57.4373V18.4856C57.4373 19.6671 57.8689 20.6901 58.7034 21.5258C59.5379 22.3615 60.5595 22.7938 61.7393 22.7938C62.9191 22.7938 63.9263 22.3615 64.7752 21.5258C65.6241 20.6901 66.0558 19.6671 66.0558 18.4856V5.54688H70.3866Z" fill="#00AEEF"/>
<path d="M77.7965 5.58984C80.7317 5.58984 83.523 6.64166 85.6237 8.74529C89.4509 12.5779 89.4509 20.0559 85.6237 23.8885C83.523 25.9778 80.7461 27.0296 77.7965 27.0296H72.5017V5.60425H77.7965V5.58984ZM77.8253 22.7215C79.5807 22.7215 81.2065 22.2316 82.4583 20.978C83.7101 19.7245 84.1993 18.0675 84.1993 16.2953C84.1993 14.5231 83.7101 12.8805 82.4439 11.6126C81.1921 10.3446 79.5375 9.85474 77.7822 9.85474H76.8038V22.7215H77.8253Z" fill="#00AEEF"/>
<path d="M93.7529 23.7162C93.2781 24.8113 92.7889 25.8919 92.2853 26.987H87.6667L97.3931 5.1582L107.148 26.987H102.515C102.04 25.9063 101.551 24.8113 101.076 23.7307H93.7385L93.7529 23.7162ZM99.3355 19.9124L97.4507 15.4458L95.5514 19.9124H99.3499H99.3355Z" fill="#00AEEF"/>
<path d="M121.666 17.4195V5.54699H125.968V27.4334L113.091 15.143V27.03H108.789V5.14355L121.666 17.4195Z" fill="#00AEEF"/>
<path d="M132.428 5.54688L136.126 12.3621L139.824 5.54688H144.716L138.27 17.3906V27.0298H133.982V17.3906L127.551 5.54688H132.428Z" fill="#00AEEF"/>
<path d="M151.823 23.7162C151.348 24.8113 150.845 25.8919 150.356 26.987H145.737L155.463 5.1582L165.219 26.987H160.586C160.111 25.9063 159.622 24.8113 159.147 23.7307H151.809L151.823 23.7162ZM157.406 19.9124L155.521 15.4458L153.622 19.9124H157.42H157.406Z" fill="#00AEEF"/>
<path d="M185.304 19.5088L195.765 5.14355V27.0299H191.463V18.1688L185.304 26.6841L179.146 18.1688V27.0299H174.844V5.14355L185.304 19.5088Z" fill="#00AEEF"/>
<path d="M203.405 23.7162C202.93 24.8113 202.426 25.8919 201.937 26.987H197.319L207.045 5.1582L216.8 26.987H212.167C211.692 25.9063 211.203 24.8113 210.728 23.7307H203.39L203.405 23.7162ZM208.987 19.9124L207.103 15.4458L205.203 19.9124H209.002H208.987Z" fill="#00AEEF"/>
<path d="M218.44 5.51855H225.419C227.476 5.51855 229.519 6.23898 231.001 7.72304C232.483 9.20711 233.073 10.5903 233.073 12.6507V13.3135C233.073 14.9128 232.627 16.0799 231.721 17.3623C230.814 18.6446 230.052 19.0192 228.642 19.5524L233.49 27.0303H228.253L222.771 18.6302V27.0303H218.469V5.51855H218.44ZM225.807 15.8782C226.699 15.8782 227.145 15.6477 227.778 15.0281C228.411 14.4086 228.627 13.6881 228.627 12.7948C228.627 11.9015 228.397 11.3251 227.778 10.6912C227.16 10.0572 226.037 9.82667 225.145 9.82667H222.742V15.8782H225.822H225.807Z" fill="#00AEEF"/>
<path d="M254.77 17.4195V5.54699H259.072V27.4334L246.195 15.143V27.03H241.893V5.14355L254.77 17.4195Z" fill="#00AEEF"/>
<path d="M266.712 23.7162C266.238 24.8113 265.734 25.8919 265.245 26.987H260.626L270.353 5.1582L280.108 26.987H275.475C275 25.9063 274.511 24.8113 274.036 23.7307H266.698L266.712 23.7162ZM272.295 19.9124L270.41 15.4458L268.511 19.9124H272.309H272.295Z" fill="#00AEEF"/>
<path d="M20.575 7.89551V44.954C20.575 44.954 28.3158 44.6514 34.2293 40.2424C34.2293 40.2424 22.8483 33.8739 20.575 7.89551Z" fill="#1C75BC"/>
<path d="M18.7046 0V50.7753C18.7046 50.7753 8.10051 50.3574 0 44.3203C0 44.3203 15.5823 35.5888 18.7046 0Z" fill="#00AEEF"/>
<path fill-rule="evenodd" clip-rule="evenodd" d="M33.7403 48.9309C33.3806 48.1673 32.7331 47.8359 32.2871 47.6486C31.9993 47.5189 31.7115 47.4181 31.4238 47.3172L31.8554 46.8705L31.6396 46.5968C31.5676 46.5103 31.4957 46.4095 31.4382 46.323C31.2799 46.1069 31.1072 45.8764 30.9058 45.689C28.9202 43.8015 26.4599 42.8506 23.5679 42.8506C22.9636 42.8506 22.3305 42.8938 21.6974 42.9803C20.8053 43.0955 19.8413 43.2108 18.8917 43.2108C18.345 43.2108 17.8414 43.1676 17.3522 43.0955C17.0788 43.0523 16.791 43.0235 16.5177 43.0235C16.3738 43.0235 16.2299 43.0235 16.086 43.0379C15.8558 43.0523 15.6544 43.1388 15.4386 43.2396C15.3378 43.2828 15.2371 43.3261 15.122 43.3693L14.4314 43.6286L15.9997 44.7093C15.9997 44.7093 15.899 44.7813 15.8414 44.8245C15.4673 45.0695 15.1076 45.3144 14.7335 45.5594C14.0285 46.0204 13.3091 46.4959 12.6041 46.9858C12.4602 47.0867 12.302 47.2019 12.1581 47.3028C11.1941 47.9944 10.2732 48.6572 9.19412 49.0462C9.06463 49.0894 8.99269 49.1759 8.90636 49.2479C8.87758 49.2767 8.83442 49.32 8.79125 49.3632C8.56104 49.1615 8.46033 48.8589 8.44594 48.4266C8.44594 48.0232 8.34522 47.6342 8.2445 47.2596C8.10062 46.712 7.74092 46.3518 7.17978 46.2077L6.90641 46.1357L6.76253 46.3806C6.76253 46.3806 6.69059 46.4815 6.66181 46.5247C6.58987 46.6256 6.53232 46.7264 6.47476 46.8417C6.37405 47.0578 6.21578 47.1587 5.95679 47.1587C5.89924 47.1587 5.84169 47.1587 5.76975 47.1587C5.5827 47.1299 5.39566 47.0578 5.19422 46.9858L5.0935 46.9426C4.7338 46.8129 4.3741 46.6688 4.02878 46.5391C3.87051 46.4815 3.72663 46.4239 3.56836 46.3662L2.9209 46.1213L3.05039 46.7985C3.12233 47.1443 3.26621 47.4469 3.49642 47.735C4.35971 48.8301 5.53954 49.4641 6.6762 50.0692C7.78408 50.66 9.25167 51.3804 10.9351 51.6974C11.5682 51.8126 12.2444 51.8847 12.9206 51.8847C14.1005 51.8847 15.3522 51.6974 16.7623 51.3371C18.0284 51.0058 19.2946 50.6311 20.5176 50.2709C21.2082 50.0692 21.9132 49.8531 22.6182 49.6658C22.8772 49.5937 23.1506 49.5361 23.4384 49.4785C23.4096 49.6658 23.3808 49.8531 23.3952 50.0404C23.3952 50.5015 23.424 50.9481 23.5679 51.3804C23.7837 51.9999 24.2153 52.0576 24.388 52.0576C24.6182 52.0576 24.8628 51.9567 25.093 51.755C25.352 51.5389 25.5966 51.2795 25.798 50.9913C26.7476 49.6802 27.9706 49.0318 29.5245 49.0318C29.8555 49.0318 30.2008 49.0606 30.5749 49.1183C30.8339 49.1615 31.0785 49.2479 31.3518 49.3344C31.5389 49.392 31.7403 49.4641 31.9561 49.5073C32.0281 49.5217 32.1 49.5505 32.1719 49.5649C32.3734 49.6225 32.6036 49.6946 32.8626 49.6946C33.1216 49.6946 33.3806 49.6225 33.5964 49.4641L33.8841 49.2767L33.7403 48.9742V48.9309ZM27.9131 46.6976C26.834 46.6976 25.7692 46.8849 24.7189 47.2307C24.3304 47.3604 23.9563 47.5189 23.5822 47.663C23.4096 47.735 23.2369 47.8071 23.0499 47.8791C23.1218 47.7927 23.1938 47.7062 23.2945 47.6054C23.5247 47.3748 23.7981 47.1011 23.8988 46.6976L24.0427 46.1933H23.4815C23.4815 46.1933 23.3664 46.1933 23.3089 46.1933C23.2513 46.1933 23.1938 46.1933 23.1506 46.1933C23.0211 46.1933 22.906 46.1933 22.8197 46.2366C22.4456 46.3374 22.0571 46.4383 21.683 46.5247C20.6039 46.7985 19.496 47.0723 18.4313 47.4325C17.5392 47.735 16.6616 48.0808 15.8127 48.4266C15.194 48.686 14.5465 48.9454 13.9134 49.1759C12.9494 49.5217 12.0574 49.7234 11.1797 49.7666C12.0861 49.4064 12.9926 49.0318 13.8703 48.6572L14.3019 48.4699C14.8487 48.2393 15.3954 47.98 15.9278 47.735C16.9781 47.2452 18.0716 46.7409 19.1795 46.3806C20.8053 45.8475 22.4168 45.5882 23.9851 45.5882C25.9419 45.5882 27.8699 46.006 29.7116 46.8273H29.7404C29.1217 46.712 28.503 46.6544 27.8843 46.6544L27.9131 46.6976Z" fill="white"/>
<path fill-rule="evenodd" clip-rule="evenodd" d="M7.07888 46.5681C7.55369 46.6978 7.76951 46.9716 7.87023 47.3462C7.95656 47.7064 8.04289 48.0666 8.05728 48.4268C8.08605 49.5218 8.67596 49.9829 9.78385 50.127C11.2514 50.3143 12.6615 50.055 14.0283 49.5507C15.5391 49.0031 17.0067 48.3115 18.5462 47.8072C19.985 47.3318 21.467 47.0004 22.9202 46.6113C23.0929 46.5681 23.2943 46.6113 23.5389 46.5969C23.3375 47.3174 22.4022 47.5479 22.4886 48.4412C22.7044 48.3836 22.8914 48.3404 23.0641 48.2683C23.654 48.0378 24.2439 47.7784 24.8338 47.5767C27.3086 46.7266 29.7402 46.9716 32.1286 47.9801C32.6466 48.1963 33.107 48.5133 33.3804 49.0752C32.8912 49.3922 32.4595 49.1616 32.0423 49.0608C31.5675 48.9455 31.107 48.7438 30.6322 48.6717C28.5316 48.3259 26.7762 48.9167 25.4813 50.6889C25.2942 50.9483 25.0784 51.1788 24.8338 51.3949C24.4453 51.7263 24.0856 51.6687 23.913 51.1788C23.7835 50.8042 23.7691 50.3719 23.7547 49.9541C23.7547 49.6515 23.8267 49.3345 23.8842 48.9167C23.3662 49.032 22.9202 49.104 22.4886 49.2337C20.5318 49.7812 18.6038 50.3864 16.6326 50.9051C14.7765 51.3949 12.8917 51.6255 10.9637 51.2653C9.4817 50.9915 8.12922 50.3864 6.8199 49.6659C5.69762 49.0608 4.57535 48.4556 3.76962 47.4326C3.59696 47.2165 3.46746 46.9716 3.40991 46.669C3.9135 46.8707 4.43147 47.0724 4.93505 47.2597C5.17965 47.3462 5.43864 47.4614 5.69762 47.4903C6.15804 47.5479 6.5753 47.4614 6.80551 46.9716C6.86306 46.8419 6.94939 46.7266 7.06449 46.5537L7.07888 46.5681Z" fill="#047FB8"/>
<path fill-rule="evenodd" clip-rule="evenodd" d="M31.179 47.0145C30.7473 46.8416 30.3157 46.6976 29.884 46.5102C26.3446 44.9397 22.7044 44.8677 19.0642 46.0492C17.3808 46.5967 15.7837 47.4468 14.1434 48.1384C12.9492 48.6427 11.7694 49.1614 10.5608 49.6081C10.1291 49.7666 9.62556 49.8098 9.03564 49.6369C9.19391 49.5072 9.25147 49.4207 9.32341 49.3919C10.6327 48.9165 11.7118 48.0664 12.8197 47.2739C13.8701 46.5247 14.9779 45.8331 16.057 45.127C16.2297 45.0118 16.388 44.8677 16.6326 44.6804C16.1722 44.3634 15.7837 44.0896 15.2513 43.7294C15.611 43.5997 15.8556 43.4413 16.1146 43.4268C16.5031 43.398 16.8916 43.4124 17.28 43.4701C18.7764 43.7006 20.2296 43.5421 21.726 43.3548C25.0352 42.937 28.1143 43.5709 30.6178 45.9627C30.8912 46.2221 31.0926 46.5391 31.3228 46.8416C31.2653 46.8993 31.2077 46.9569 31.1502 47.0145H31.179Z" fill="#B5B5B6"/>
<path d="M29.7403 45.1268C29.7403 45.2997 29.5964 45.4438 29.4237 45.4438C29.2511 45.4438 29.1072 45.2997 29.1072 45.1268C29.1072 44.9539 29.2511 44.8242 29.4237 44.8242C29.5964 44.8242 29.7403 44.9683 29.7403 45.1268Z" fill="white"/>
<path d="M35.6538 33.9902H39.6393C40.8191 33.9902 41.9846 34.4945 42.8191 35.5175C43.668 36.5405 43.9989 37.5059 43.9989 38.9467V39.4078C43.9989 40.5173 43.7399 41.3385 43.2219 42.2174C42.704 43.1108 42.2723 43.3701 41.4666 43.7303L44.2291 48.9174H41.2364L38.0998 43.0964V48.9174H35.6394V33.9902H35.6538ZM39.8551 41.18C40.3587 41.18 40.6177 41.0215 40.9774 40.5893C41.3371 40.157 41.4666 39.6527 41.4666 39.0332C41.4666 38.4136 41.3371 38.0102 40.9774 37.5779C40.6177 37.1313 39.9846 36.9728 39.4666 36.9728H38.0854V41.18H39.8407H39.8551Z" fill="#1C75BC"/>
<path d="M53.9124 34.0039V36.9864H49.0204V39.969H52.6894V42.9515H49.0204V45.9341H53.9124V48.9166H46.5601V34.0039H53.9124Z" fill="#1C75BC"/>
<path d="M59.8547 45.9634C60.531 45.9634 61.0921 45.2862 61.0921 44.4505C61.0921 43.8166 60.8907 43.3987 60.4734 43.2258C59.5957 42.8224 59.8116 42.9232 58.9483 42.563C58.0418 42.1884 57.2073 41.4392 56.6462 40.5026C56.3152 39.9551 56.1426 39.2635 56.1426 38.4422C56.1426 37.2031 56.5023 36.1369 57.2361 35.2435C57.9699 34.3502 58.8332 33.918 59.8691 33.918C60.905 33.918 61.7683 34.3646 62.4877 35.2435C63.2215 36.1369 63.5812 37.2031 63.5812 38.4422H61.1065C61.1065 37.6353 60.5453 36.9437 59.8691 36.9437C59.1929 36.9437 58.6317 37.6353 58.6317 38.4566C58.6317 38.9897 58.8044 39.4076 59.1641 39.6813C59.8979 40.2577 59.8115 40.1424 60.6892 40.4594C61.6388 40.7908 62.4877 41.5112 63.0633 42.4189C63.4086 42.9521 63.5812 43.6437 63.5812 44.4937C63.5812 45.7473 63.2215 46.8135 62.4877 47.6924C61.7539 48.5857 60.8763 49.018 59.8691 49.018C58.8619 49.018 57.9699 48.5713 57.2361 47.6924C56.5023 46.7991 56.1426 45.7473 56.1426 44.4937H58.6173C58.6173 45.3294 59.1785 46.0066 59.8547 46.0066V45.9634Z" fill="#1C75BC"/>
<path d="M71.2499 34.0039H74.3146V36.9864H71.2499V48.9166H68.7895V36.9864H65.7249V34.0039H71.2499Z" fill="#1C75BC"/>
<path d="M77.48 46.626C77.2066 47.3897 76.9189 48.1389 76.6455 48.8881H74.0125L79.5663 33.7305L85.1345 48.8881H82.4871C82.2137 48.1389 81.9403 47.3752 81.6669 46.626H77.48ZM80.6598 43.9893L79.5807 40.8915L78.4872 43.9893H80.6598Z" fill="#1C75BC"/>
<path d="M97.1054 34.0039V42.9948C97.1054 44.6517 96.6306 46.0638 95.6666 47.2452C94.7026 48.4267 93.5371 49.0031 92.1846 49.0031C90.8322 49.0031 89.6667 48.4267 88.6883 47.2452C87.7243 46.0638 87.2495 44.6517 87.2495 42.9948V34.0039H89.7243V42.9804C89.7243 43.8016 89.9689 44.5076 90.4437 45.084C90.9185 45.6603 91.494 45.9629 92.1702 45.9629C92.8465 45.9629 93.422 45.6603 93.9112 45.084C94.4004 44.5076 94.645 43.8016 94.645 42.9804V34.0039H97.1198H97.1054Z" fill="#1C75BC"/>
<path d="M99.4651 33.9902H103.451C104.63 33.9902 105.796 34.4945 106.63 35.5175C107.479 36.5405 107.81 37.5059 107.81 38.9467V39.4078C107.81 40.5173 107.551 41.3385 107.033 42.2174C106.515 43.1108 106.084 43.3701 105.278 43.7303L108.04 48.9174H105.048L101.911 43.0964V48.9174H99.4507V33.9902H99.4651ZM103.666 41.18C104.17 41.18 104.429 41.0215 104.789 40.5893C105.148 40.157 105.278 39.6527 105.278 39.0332C105.278 38.4136 105.148 38.0102 104.789 37.5779C104.429 37.1313 103.796 36.9728 103.278 36.9728H101.897V41.18H103.652H103.666Z" fill="#1C75BC"/>
<path d="M113.522 46.626C113.249 47.3897 112.961 48.1389 112.688 48.8881H110.055L115.609 33.7305L121.177 48.8881H118.529C118.256 48.1389 117.983 47.3752 117.709 46.626H113.522ZM116.702 43.9893L115.623 40.8915L114.529 43.9893H116.702Z" fill="#1C75BC"/>
<path d="M130.63 42.2605V34.0189H133.09V49.2054L125.738 40.6756V48.9316H123.277V33.7451L130.63 42.2605Z" fill="#1C75BC"/>
<path d="M140.845 34.0039H143.91V36.9864H140.845V48.9166H138.385V36.9864H135.32V34.0039H140.845Z" fill="#1C75BC"/>
<path d="M145.91 41.8428H151.881V44.4507H145.91V41.8428Z" fill="#1C75BC"/>
<path d="M159.924 33.9753C160.773 33.9753 161.579 34.1771 162.327 34.5661C163.075 34.9695 163.737 35.5026 164.312 36.1798L162.557 38.3123C161.823 37.419 160.946 36.9723 159.938 36.9723C158.931 36.9723 158.039 37.419 157.32 38.3123C156.6 39.2056 156.226 40.2574 156.226 41.4965C156.226 42.7357 156.586 43.8163 157.32 44.6952C158.039 45.5741 158.917 46.0208 159.938 46.0208C160.96 46.0208 161.838 45.5741 162.571 44.6952L164.327 46.8277C163.751 47.5193 163.089 48.0524 162.341 48.4414C161.593 48.8448 160.787 49.0321 159.938 49.0321C158.241 49.0321 156.773 48.2973 155.564 46.8277C154.356 45.358 153.751 43.5858 153.751 41.511C153.751 39.4361 154.356 37.6639 155.564 36.1798C156.773 34.6958 158.226 33.9609 159.938 33.9609V34.0042L159.924 33.9753Z" fill="#1C75BC"/>
<path d="M169.305 46.626C169.032 47.3897 168.744 48.1389 168.47 48.8881H165.837L171.391 33.7305L176.959 48.8881H174.312C174.039 48.1389 173.765 47.3752 173.492 46.626H169.305ZM172.499 43.9893L171.42 40.8915L170.326 43.9893H172.499Z" fill="#1C75BC"/>
<path d="M186.412 34.0039V36.9864H181.52V39.969H185.189V42.9515H181.52V48.9166H179.06V34.0039H186.412Z" fill="#1C75BC"/>
<path d="M195.851 34.0039V36.9864H190.959V39.969H194.628V42.9515H190.959V45.9341H195.851V48.9166H188.499V34.0039H195.851Z" fill="#1C75BC"/>
<path d="M213.131 41.4822C213.103 42.9518 213.045 44.2053 212.628 45.3148C213.174 45.7326 213.836 46.2369 214.412 46.2081V48.9745C213.405 48.9745 212.57 48.4846 212.081 48.1388C211.736 47.8939 211.462 47.7066 211.232 47.4761C211.045 47.7498 210.959 47.8507 210.728 48.0524C210.023 48.7008 208.714 49.0754 207.779 49.0754C206.657 49.0754 205.635 48.5423 204.901 47.6634C204.153 46.77 203.736 45.6462 203.736 44.2918C203.765 42.5772 204.599 41.6118 205.362 40.7329C205.39 40.7041 205.534 40.56 205.563 40.5312C205.131 39.8252 204.801 38.6005 204.772 37.808C204.772 36.6409 205.203 35.8773 205.707 35.2577C206.211 34.6381 207.275 33.9033 208.225 33.9033C209.045 33.9033 209.793 34.2491 210.398 34.8399C211.002 35.4306 211.433 36.2663 211.621 37.2317L209.189 37.8656C209.146 37.5919 209.016 37.3613 208.858 37.1884C208.685 37.0155 208.47 36.9147 208.239 36.9147C207.75 36.9147 207.39 37.2317 207.29 37.808C207.247 38.125 207.836 39.3929 207.908 39.5514C208.124 40.0125 208.642 40.9058 209.448 41.8856C209.693 42.1882 210.412 43.1391 210.714 43.4849C210.815 42.9518 210.8 42.3322 210.844 41.4822L213.131 41.4389V41.4822ZM209.347 45.5021C209.059 45.1995 207.707 43.8595 207.016 42.4907C206.57 42.8798 206.024 43.3264 206.052 44.3494C206.052 44.8537 206.311 45.4156 206.599 45.7326C206.887 46.0784 207.333 46.1649 207.793 46.1649C208.167 46.1649 208.973 45.8911 209.246 45.6318C209.29 45.603 209.304 45.5741 209.347 45.4877V45.5021Z" fill="#1C75BC"/>
<path d="M225.261 34.0623C226.901 34.0623 228.282 35.7192 228.311 37.6932C228.311 38.0966 228.196 38.5577 228.095 38.9179C229.491 39.6527 230.742 41.3385 230.742 43.7015C230.742 45.1279 230.325 46.3526 229.491 47.3612C228.656 48.3842 227.649 48.8885 226.484 48.8885H222.225V34.0479H225.261V34.0623ZM225.261 38.8026C225.678 38.8026 225.994 38.428 225.994 37.9381C225.994 37.4482 225.663 37.016 225.261 37.016H224.656V38.8026H225.261ZM228.311 43.7159C228.311 43.0963 228.124 42.5632 227.764 42.131C227.404 41.6987 226.973 41.6699 226.469 41.6699H224.642V45.9204H226.469C227.476 45.9204 228.296 44.9262 228.296 43.7159H228.311Z" fill="#1C75BC"/>
<path d="M232.843 37.6064H235.303V48.9315H232.843V37.6064Z" fill="#1C75BC"/>
<path d="M241.318 45.9634C241.994 45.9634 242.555 45.2862 242.555 44.4505C242.555 43.8166 242.354 43.3987 241.936 43.2258C241.059 42.8224 241.274 42.9232 240.411 42.563C239.505 42.1884 238.67 41.4392 238.109 40.5026C237.778 39.9551 237.605 39.2635 237.605 38.4422C237.605 37.2031 237.965 36.1369 238.699 35.2435C239.433 34.3502 240.31 33.918 241.332 33.918C242.354 33.918 243.231 34.3646 243.951 35.2435C244.684 36.1369 245.044 37.2031 245.044 38.4422H242.569C242.569 37.6353 242.008 36.9437 241.332 36.9437C240.656 36.9437 240.095 37.6353 240.095 38.4566C240.095 38.9897 240.267 39.4076 240.627 39.6813C241.361 40.2577 241.274 40.1424 242.152 40.4594C243.102 40.7908 243.951 41.5112 244.526 42.4189C244.871 42.9521 245.044 43.6437 245.044 44.4937C245.044 45.7473 244.684 46.8135 243.951 47.6924C243.217 48.5857 242.354 49.018 241.332 49.018C240.31 49.018 239.433 48.5713 238.699 47.6924C237.965 46.7991 237.605 45.7473 237.605 44.4937H240.08C240.08 45.3294 240.641 46.0066 241.318 46.0066V45.9634Z" fill="#1C75BC"/>
<path d="M252.713 34.0039H255.778V36.9864H252.713V48.9166H250.253V36.9864H247.188V34.0039H252.713Z" fill="#1C75BC"/>
<path d="M258.008 33.9902H261.993C263.173 33.9902 264.339 34.4945 265.173 35.5175C266.022 36.5405 266.353 37.5059 266.353 38.9467V39.4078C266.353 40.5173 266.094 41.3385 265.576 42.2174C265.058 43.1108 264.626 43.3701 263.821 43.7303L266.583 48.9174H263.59L260.454 43.0964V48.9174H257.993V33.9902H258.008ZM262.209 41.18C262.713 41.18 262.972 41.0215 263.331 40.5893C263.691 40.157 263.821 39.6527 263.821 39.0332C263.821 38.4136 263.691 38.0102 263.331 37.5779C262.972 37.1313 262.339 36.9728 261.821 36.9728H260.439V41.18H262.195H262.209Z" fill="#1C75BC"/>
<path d="M279.173 36.1515C280.396 37.6356 281 39.4078 281 41.4826C281 43.5574 280.396 45.3297 279.173 46.7993C277.95 48.269 276.497 49.0038 274.799 49.0038C273.101 49.0038 271.633 48.269 270.425 46.7993C269.216 45.3297 268.612 43.5574 268.612 41.4826C268.612 39.4078 269.216 37.6356 270.425 36.1515C271.633 34.6674 273.087 33.9326 274.799 33.9326C276.511 33.9326 277.964 34.6674 279.173 36.1515ZM272.166 38.2696C271.446 39.1629 271.072 40.2147 271.072 41.4682C271.072 42.7218 271.432 43.7736 272.166 44.6525C272.885 45.5314 273.763 45.9781 274.784 45.9781C275.806 45.9781 276.684 45.5314 277.403 44.6525C278.137 43.7736 278.496 42.7073 278.496 41.4682C278.496 40.2291 278.137 39.1629 277.403 38.2696C276.669 37.3762 275.806 36.944 274.784 36.944C273.763 36.944 272.885 37.3906 272.166 38.2696Z" fill="#1C75BC"/>
<path d="M234.426 34.0615H235.303V37.0441H232.843V34.0615H234.426Z" fill="#1C75BC"/>
<path d="M235.476 10.6621H239.778V26.9724H235.476V10.6621Z" fill="#00AEEF"/>
<path d="M238.239 5.54688H239.778V9.84059H235.476V5.54688H238.239Z" fill="#00AEEF"/>
</g>
<defs>
<clipPath id="clip0_228_2158">
<rect width="281" height="52" fill="white"/>
</clipPath>
</defs>
</svg>
