<svg width="312" height="29" viewBox="0 0 312 29" fill="none" xmlns="http://www.w3.org/2000/svg">
<g clip-path="url(#clip0_228_2327)">
<path d="M13.7947 27.9881C6.56361 27.9881 0.72929 22.0531 0.72929 14.7813C0.72929 7.50941 6.56361 1.53699 13.7947 1.53699C19.5672 1.53699 24.5115 5.37283 26.2173 10.6581H26.9714C25.2532 4.97301 19.9998 0.799805 13.7947 0.799805C6.18042 0.799805 0 7.04711 0 14.7813C0 22.5154 6.18042 28.7253 13.7947 28.7253C20.5561 28.7253 26.205 23.8024 27.3545 17.2802H26.6253C25.4633 23.3776 20.1358 27.9881 13.7947 27.9881Z" fill="#010101"/>
<path d="M39.6166 14.9062V28.7378H38.8378V14.9062L28.6401 0.799805H29.5672L39.2334 14.1191L48.8872 0.799805H49.8143L39.6166 14.9062Z" fill="#010101"/>
<path d="M72.3727 21.5784C72.3727 25.5266 68.5903 28.7253 63.8685 28.7253H61.3221C56.6497 28.7253 52.8179 25.5266 52.8179 21.5784V21.4159H53.7079V21.5784C53.7079 25.0893 57.1442 27.9881 61.3221 27.9881H63.8685C68.0835 27.9881 71.4827 25.1018 71.4827 21.5784C71.4827 18.0549 68.0835 15.1311 63.8685 15.1311C59.6163 15.2436 57.9971 14.269 57.9971 14.269C55.3271 12.6697 53.7079 10.6706 53.7079 7.98421C53.7079 3.99843 57.5397 0.799805 62.2121 0.799805H62.9908C67.5149 0.799805 71.2602 3.81101 71.4951 7.59688H70.568C70.3332 4.23582 67.0576 1.53699 62.9908 1.53699H62.2121C58.0341 1.53699 54.5978 4.42324 54.5978 7.98421C54.5978 11.5452 58.0341 14.3939 62.2121 14.3939C61.866 14.3939 62.2121 14.3939 62.2121 14.3939C62.2121 14.3939 64.4123 14.3565 65.5372 14.5064C69.4432 15.0936 72.3727 18.0549 72.3727 21.5784Z" fill="#010101"/>
<path d="M107.465 0.587891H128.219V3.53662H119.282V28.6883H116.402V3.53662H107.465V0.587891Z" fill="#010101"/>
<path d="M155.042 14.5815C155.042 22.2782 148.862 28.5255 141.284 28.5255C133.707 28.5255 127.49 22.2782 127.49 14.5815C127.49 6.8848 133.658 0.625 141.284 0.625C148.911 0.625 155.042 6.87231 155.042 14.569V14.5815ZM152.199 14.5815C152.199 8.49661 147.304 3.53625 141.272 3.53625C135.24 3.53625 130.345 8.48411 130.345 14.5815C130.345 20.6789 135.24 25.6642 141.272 25.6642C147.304 25.6642 152.199 20.6789 152.199 14.5815Z" fill="#010101"/>
<path d="M184.893 0.587891V28.6883H181.976V8.40952L172.533 28.6883H170.394L161.062 8.447V28.6883H158.145V0.587891H160.629L171.47 24.0403L182.372 0.587891H184.893Z" fill="#010101"/>
<path d="M202.421 0.587891L214.621 28.6883H211.469L207.699 20.0045H194.906L191.136 28.6883H187.984L200.209 0.587891H202.421ZM206.426 17.0933L201.333 5.34834L196.204 17.0933H206.426Z" fill="#010101"/>
<path d="M236.166 20.9414C236.166 25.2271 232.124 28.6881 227.192 28.6881H224.819C219.887 28.6881 215.845 25.2271 215.845 20.9414V20.779L215.882 19.6795H218.91L218.873 20.9414C218.799 23.5778 221.556 25.7393 224.819 25.7393H227.192C230.455 25.7393 233.138 23.5778 233.138 20.9414C233.138 18.3051 230.455 16.106 227.192 16.106H226.104C224.51 16.031 222.372 15.8311 221.21 15.1189C218.144 13.3072 216.661 11.1082 216.661 8.32186C216.661 4.07369 220.703 0.575195 225.635 0.575195H226.339C231.123 0.575195 235.091 3.79881 235.313 7.92203L235.387 9.09652H232.359L232.285 8.03448C232.087 5.48558 229.491 3.51143 226.339 3.51143H225.635C222.371 3.51143 219.726 5.673 219.726 8.30936C219.726 10.9457 222.211 13.0573 225.326 13.1448H226.76V13.1823C228.082 13.2197 228.737 13.2572 228.787 13.2947H228.898C233.138 13.807 236.166 17.1805 236.166 20.9164V20.9414Z" fill="#010101"/>
<path d="M248.873 15.1316V28.6883H245.956V15.1316L235.425 0.587891H239.034L247.427 12.1829L255.795 0.587891H259.405L248.873 15.1316Z" fill="#010101"/>
<path d="M286.228 14.5817C286.228 22.2784 280.047 28.5257 272.47 28.5257C264.893 28.5257 258.675 22.2784 258.675 14.5817C258.675 6.885 264.856 0.637695 272.47 0.637695C280.084 0.637695 286.228 6.885 286.228 14.5817ZM283.385 14.5817C283.385 8.49681 278.49 3.53645 272.458 3.53645C266.426 3.53645 261.531 8.48431 261.531 14.5817C261.531 20.6791 266.426 25.6644 272.458 25.6644C278.49 25.6644 283.385 20.6791 283.385 14.5817Z" fill="#010101"/>
<path d="M309.083 0.587891H312V28.6883H309.664L292.247 6.17298V28.6883H289.33V0.587891H291.666L309.083 23.1032V0.587891Z" fill="#010101"/>
<path fill-rule="evenodd" clip-rule="evenodd" d="M89.6406 0.16243C89.6406 0.16243 89.653 0.137441 89.6654 0.137441C89.7766 0.112452 89.8755 0.0749677 89.9867 0.0874623C90.2216 0.0874623 90.4441 0.0249892 90.6666 0.0374838C90.7037 0.0374838 90.7531 0.0374838 90.7778 0H91.0992C91.0992 0 91.0992 0.0499785 91.0869 0.0624731C90.8273 0.174925 90.543 0.137441 90.271 0.174925C90.1351 0.199914 89.9867 0.187419 89.8508 0.212408C89.7766 0.212408 89.7024 0.212408 89.6406 0.16243Z" fill="#F8EDE2"/>
<path fill-rule="evenodd" clip-rule="evenodd" d="M91.1116 0.0374838C91.1116 0.0374838 91.1116 0.0124946 91.1116 0H91.8903C91.8903 0 91.8903 0.0499785 91.8656 0.0624731C91.6184 0.112452 91.3588 0.149935 91.1239 0.0374838H91.1116Z" fill="#F8D5C4"/>
<path fill-rule="evenodd" clip-rule="evenodd" d="M91.8904 0.0374838C91.8904 0.0374838 91.8904 0.0124946 91.8904 0H92.2983V0.0374838C92.1747 0.124946 92.0511 0.0999569 91.9151 0.0624731C91.9151 0.0624731 91.9027 0.0499785 91.8904 0.0374838Z" fill="#F6F3DF"/>
<path fill-rule="evenodd" clip-rule="evenodd" d="M91.1117 24.3521C91.2724 24.3521 91.4331 24.3521 91.6061 24.3521C91.9399 24.3521 92.286 24.3521 92.6197 24.3271C93.213 24.2896 93.794 24.1772 94.3626 24.0272C94.8447 23.9023 95.3267 23.7399 95.7841 23.5524C96.0684 23.44 96.3403 23.29 96.6123 23.1526C96.9831 22.9527 97.3539 22.7278 97.7 22.4779C98.0338 22.2405 98.3551 21.9781 98.6518 21.7032C99.1091 21.2909 99.5171 20.8286 99.8755 20.3288C100.283 19.7666 100.63 19.1793 100.914 18.5421C101.161 17.9798 101.346 17.3926 101.482 16.7803C101.581 16.343 101.643 15.8932 101.668 15.4434C101.668 15.4184 101.668 15.3934 101.668 15.3685C101.717 15.3435 101.754 15.3685 101.779 15.4059C102.583 15.9807 103.374 16.5679 104.177 17.1427C104.746 17.555 105.314 17.9673 105.883 18.3797C105.908 18.4046 105.932 18.4171 105.969 18.4421C106.019 18.4796 106.019 18.5171 106.007 18.5671C105.883 18.9919 105.747 19.4042 105.586 19.8165C105.277 20.6037 104.894 21.3534 104.461 22.0656C104.115 22.6403 103.72 23.1776 103.287 23.6899C102.817 24.2521 102.311 24.7769 101.767 25.2642C101.408 25.5891 101.025 25.8889 100.63 26.1638C100.222 26.4512 99.8014 26.7386 99.3687 26.9885C98.8125 27.3133 98.2315 27.5882 97.6259 27.8381C96.8966 28.1504 96.1549 28.3878 95.3885 28.5628C94.8941 28.6752 94.412 28.7752 93.9052 28.8377C93.6457 28.8751 93.3861 28.9126 93.1141 28.9376C93.04 28.9376 92.9658 28.9376 92.8916 28.9376C92.6321 28.9376 92.3601 28.9376 92.1006 28.9751C92.0635 28.9751 92.0387 28.9751 92.0017 28.9751C91.7174 28.9751 91.4454 28.9751 91.1611 28.9751C91.0746 28.9751 91.0004 28.9751 90.9263 28.9376C91.0004 28.8501 91.0993 28.8751 91.1858 28.8626C91.5196 28.8626 91.5196 28.8626 91.5196 28.5128C91.5196 27.6257 91.5196 26.7261 91.5196 25.8389C91.5196 25.4516 91.5196 25.0768 91.5196 24.6894C91.5196 24.4395 91.5196 24.4395 91.2724 24.4146C91.1982 24.4146 91.1117 24.4146 91.0993 24.3146L91.1117 24.3521Z" fill="#8CA93D"/>
<path fill-rule="evenodd" clip-rule="evenodd" d="M91.1117 0.0371094C91.3713 0.0371094 91.6308 0.0371094 91.8904 0.0371094C91.9646 0.124572 91.9522 0.224529 91.9522 0.324486C91.9522 1.6739 91.9522 3.02332 91.9522 4.37274C91.9522 4.4727 91.9893 4.59764 91.8533 4.66012C91.7792 4.66012 91.705 4.66012 91.6308 4.66012C91.3465 4.66012 91.0622 4.67261 90.7779 4.7101C90.642 4.72259 90.506 4.73508 90.37 4.74758C89.8509 4.81005 89.3441 4.9225 88.8373 5.05994C87.663 5.40979 86.5752 5.94706 85.5864 6.68424C85.1785 6.99661 84.7829 7.33396 84.4245 7.7088C83.9424 8.20859 83.5098 8.75835 83.1513 9.35809C82.7187 10.0703 82.3726 10.8325 82.1377 11.6446C82.0017 12.1319 81.9028 12.6192 81.8534 13.119C81.841 13.2939 81.8163 13.4563 81.804 13.6313C81.804 13.6687 81.7669 13.6937 81.7298 13.6687C81.532 13.5313 81.3466 13.3939 81.1488 13.2564C80.1476 12.5317 79.1464 11.807 78.1328 11.0699C77.9227 10.9199 77.7125 10.7575 77.5024 10.6076C77.4529 10.5701 77.4406 10.5326 77.4529 10.4701C77.6013 9.95783 77.7743 9.47054 77.9721 8.97076C78.1575 8.52095 78.3676 8.08364 78.5901 7.65882C78.8868 7.12156 79.2082 6.60928 79.5667 6.12199C79.8139 5.77214 80.0858 5.43478 80.3701 5.10992C80.642 4.79756 80.9263 4.51018 81.2106 4.22281C81.7669 3.68554 82.3726 3.18575 83.003 2.73595C83.9918 2.04874 85.0425 1.48648 86.1673 1.06167C86.9213 0.774292 87.6754 0.524399 88.4665 0.374464C88.8249 0.299496 89.1834 0.224529 89.5419 0.187045C89.5666 0.187045 89.5913 0.17455 89.616 0.162056C89.6778 0.162056 89.752 0.162056 89.8138 0.162056C90.1846 0.112077 90.5678 0.0870878 90.9386 0.0620986C90.9881 0.0620986 91.0375 0.049604 91.0746 0.0371094H91.1117Z" fill="#F15C22"/>
<path fill-rule="evenodd" clip-rule="evenodd" d="M91.1118 24.3521C91.1118 24.3521 91.2354 24.3896 91.3096 24.3896C91.6309 24.3896 91.6062 24.3646 91.6062 24.6895C91.6062 26.0264 91.6062 27.3633 91.6062 28.7002C91.6062 28.9751 91.6186 28.9626 91.359 28.9626C91.223 28.9626 91.0871 28.9626 90.9511 28.9626C90.7039 28.9626 90.469 28.9626 90.2218 28.9251C89.9499 28.8877 89.6779 28.8627 89.4183 28.8252C89.1959 28.7877 88.961 28.7502 88.7385 28.7002C87.7991 28.5128 86.8844 28.2379 85.9944 27.8756C85.4505 27.6507 84.919 27.3883 84.3998 27.1009C83.6458 26.6886 82.9413 26.2013 82.2614 25.6765C81.9771 25.4641 81.7176 25.2267 81.458 24.9768C80.9265 24.4896 80.4444 23.9648 79.9994 23.4025C79.4926 22.7653 79.0352 22.0781 78.6397 21.3534C78.2442 20.6037 77.9104 19.8416 77.6508 19.0294C77.589 18.842 77.5396 18.6421 77.4778 18.4547C77.4654 18.4047 77.4778 18.3672 77.5149 18.3297C77.5519 18.3047 77.5767 18.2797 77.6138 18.2547C78.8869 17.3301 80.1477 16.418 81.4209 15.4934C81.5198 15.431 81.6063 15.356 81.7052 15.281C81.7423 15.256 81.767 15.2435 81.8288 15.2061C81.8412 15.3435 81.8659 15.4559 81.8659 15.5684C81.8782 15.8933 81.9277 16.2056 81.9895 16.5305C82.212 17.73 82.657 18.8295 83.3121 19.8416C83.7447 20.5038 84.2515 21.1035 84.8201 21.6408C85.0797 21.8782 85.3393 22.1031 85.6236 22.3155C85.9326 22.5404 86.2416 22.7528 86.5754 22.9527C86.9709 23.2026 87.4035 23.4025 87.8362 23.5774C88.4418 23.8273 89.0722 24.0148 89.7274 24.1522C90.1971 24.2397 90.6668 24.3146 91.1365 24.3396L91.1118 24.3521Z" fill="#7A8837"/>
<path fill-rule="evenodd" clip-rule="evenodd" d="M91.8533 4.66032C91.8533 4.66032 91.878 4.61034 91.8904 4.58535C91.8904 4.54787 91.8904 4.52288 91.8904 4.48539C91.8904 3.01103 91.8904 1.52417 91.8904 0.0498047C92.0263 0.0498047 92.1623 0.0498047 92.2983 0.0498047C92.496 0.0498047 92.7062 0.0747939 92.904 0.0872885C93.213 0.112278 93.522 0.137267 93.831 0.187245C94.1153 0.237224 94.412 0.274708 94.6963 0.324686C95.1907 0.424643 95.6851 0.5246 96.1548 0.674535C96.7976 0.874449 97.428 1.11185 98.0337 1.39922C98.7877 1.73658 99.5046 2.13641 100.197 2.58621C100.259 2.63619 100.32 2.69866 100.407 2.72365C100.456 2.74864 100.506 2.77363 100.531 2.81111C100.531 2.81111 100.568 2.82361 100.58 2.8486C100.58 2.8486 100.642 2.86109 100.654 2.89858C100.716 2.92357 100.765 2.97354 100.815 3.02352C100.889 3.04851 100.938 3.09849 100.976 3.14847C101.173 3.3109 101.371 3.47333 101.557 3.63576C101.742 3.79819 101.94 3.96062 102.125 4.13554C102.793 4.77277 103.398 5.45997 103.942 6.22214C104.535 7.05928 105.042 7.9464 105.45 8.89599C105.673 9.42077 105.858 9.97053 106.019 10.5203C106.068 10.6702 106.019 10.6827 105.932 10.7577C105.537 11.0451 105.141 11.3324 104.746 11.6198C104.091 12.0946 103.448 12.5694 102.793 13.0317C102.471 13.2691 102.137 13.5065 101.816 13.7314C101.779 13.7564 101.754 13.7814 101.693 13.7814C101.668 13.7064 101.668 13.6315 101.655 13.544C101.581 12.432 101.309 11.3699 100.84 10.3579C100.506 9.63317 100.086 8.95847 99.5788 8.34623C99.5541 8.30875 99.5294 8.28376 99.517 8.24627C99.4676 8.14632 99.381 8.08384 99.3069 7.99638C99.3069 7.99638 99.3069 7.97139 99.3069 7.9589C99.3069 7.9589 99.3316 7.9589 99.3069 7.93391C99.3069 7.93391 99.3069 7.9464 99.2945 7.9589C99.2574 7.9589 99.2451 7.92141 99.2203 7.90892C99.2203 7.90892 99.1956 7.87143 99.1833 7.85894C99.1833 7.85894 99.1585 7.82146 99.1462 7.82146C99.1462 7.82146 99.1214 7.79647 99.1091 7.78397C99.1091 7.78397 99.0844 7.75898 99.072 7.74649C99.072 7.74649 99.0473 7.7215 99.0349 7.709C99.0349 7.63404 98.9731 7.60905 98.9113 7.58406C98.9113 7.58406 98.8866 7.55907 98.8742 7.54657C98.8742 7.54657 98.8124 7.44662 98.7506 7.43412C98.7506 7.43412 98.7259 7.39664 98.7012 7.39664C98.7012 7.39664 98.6765 7.35915 98.6517 7.35915C98.5776 7.28419 98.5034 7.19672 98.4045 7.14675C98.3551 7.10926 98.3056 7.08427 98.2562 7.04679C97.5022 6.40956 96.674 5.92227 95.784 5.52245C95.3143 5.31004 94.8322 5.1601 94.3378 5.03516C93.8928 4.92271 93.4478 4.83524 93.0028 4.77277C92.6691 4.72279 92.3477 4.7103 92.014 4.7103C91.9645 4.7103 91.9027 4.7103 91.8533 4.68531V4.66032Z" fill="#F99E1C"/>
<path fill-rule="evenodd" clip-rule="evenodd" d="M83.9672 14.2064C83.9672 13.8066 84.029 13.4193 84.1032 13.0194C84.165 12.6946 84.2515 12.3822 84.3751 12.0699C84.4987 11.72 84.647 11.3827 84.8201 11.0578C85.092 10.5455 85.4134 10.0707 85.7966 9.6459C86.5259 8.80876 87.3912 8.17154 88.3924 7.69674C88.961 7.42186 89.5543 7.23444 90.16 7.097C90.4566 7.03453 90.7533 6.97205 91.0623 6.95956C91.1859 6.95956 91.3219 6.93457 91.4455 6.93457C91.495 6.93457 91.5197 6.95956 91.5197 7.00954C91.5197 7.05952 91.5197 7.10949 91.5197 7.15947C91.5197 8.07158 91.5197 8.98369 91.5197 9.89579C91.5197 9.94577 91.5197 9.99575 91.5197 10.0457C91.5197 10.0832 91.4949 10.1082 91.4579 10.1082C91.2848 10.1207 91.1241 10.1582 90.9511 10.1832C90.3948 10.2831 89.888 10.483 89.406 10.7829C88.8868 11.1078 88.4295 11.5076 88.071 12.0074C87.6754 12.5571 87.4159 13.1569 87.3046 13.8316C87.2552 14.1065 87.2552 14.3814 87.2305 14.6562C87.1439 14.7312 87.045 14.7187 86.9462 14.7187C86.0685 14.7187 85.1909 14.7187 84.3133 14.7187C84.0743 14.7187 83.9548 14.5979 83.9548 14.3564C83.9548 14.3564 83.9548 14.2689 83.9672 14.2314V14.2064Z" fill="#8CA93D"/>
<path fill-rule="evenodd" clip-rule="evenodd" d="M87.2428 14.6685C87.2798 14.9184 87.2922 15.1808 87.354 15.4307C87.4529 15.8805 87.6136 16.3053 87.8484 16.7052C88.3058 17.4798 88.9362 18.0671 89.7396 18.4669C90.1723 18.6793 90.6296 18.8417 91.1117 18.9042C91.2229 18.9167 91.3342 18.9292 91.4578 18.9542C91.5196 18.9542 91.532 18.9792 91.532 19.0542C91.532 19.0916 91.532 19.1416 91.532 19.1791C91.532 20.0912 91.532 21.0033 91.532 21.9154C91.532 21.9654 91.532 22.0154 91.532 22.0654C91.532 22.1028 91.5072 22.1278 91.4702 22.1278C91.3836 22.1278 91.2971 22.1278 91.2106 22.1278C90.6296 22.0654 90.061 21.9654 89.4924 21.7905C88.7508 21.5656 88.0462 21.2407 87.3911 20.8034C86.909 20.4785 86.464 20.0912 86.0561 19.6664C85.574 19.1666 85.1661 18.6043 84.8324 17.9796C84.4863 17.3299 84.2391 16.6552 84.1031 15.943C84.0289 15.5807 83.9795 15.2183 83.9795 14.8435C83.9548 14.731 83.9548 14.6436 84.1155 14.6436C85.1414 14.6436 86.1674 14.6436 87.1933 14.6436C87.218 14.6436 87.2304 14.6436 87.2551 14.656L87.2428 14.6685Z" fill="#7A8837"/>
<path fill-rule="evenodd" clip-rule="evenodd" d="M87.2427 14.6684C86.8595 14.6684 86.4886 14.6684 86.1055 14.6684C85.4874 14.6684 84.857 14.6684 84.239 14.6684C84.1895 14.6684 84.1277 14.6684 84.0783 14.6684C84.0165 14.6684 83.9917 14.7058 83.9917 14.7558C83.9917 14.7808 83.9917 14.8058 83.9917 14.8433C83.9547 14.6434 83.9547 14.4435 83.9794 14.2435C83.9794 14.2435 83.9794 14.2185 83.9917 14.2061C83.9917 14.3185 83.9917 14.4185 83.9917 14.5309C83.9917 14.5934 84.0165 14.6184 84.0783 14.6184C84.1277 14.6184 84.1772 14.6184 84.2266 14.6184C85.2402 14.6184 86.2414 14.6184 87.255 14.6184C87.255 14.6184 87.255 14.6434 87.255 14.6559L87.2427 14.6684Z" fill="#9DA95E"/>
<path fill-rule="evenodd" clip-rule="evenodd" d="M99.2944 7.99609C99.381 8.00859 99.418 8.09605 99.4798 8.13353C99.5169 8.15852 99.5046 8.2085 99.5046 8.24599C99.418 8.17102 99.3439 8.09605 99.2944 7.99609Z" fill="#FAA21B"/>
<path fill-rule="evenodd" clip-rule="evenodd" d="M98.4045 7.13477C98.5281 7.14726 98.6023 7.24722 98.6518 7.34717C98.5529 7.2972 98.4787 7.22223 98.4045 7.13477Z" fill="#FAA21B"/>
<path fill-rule="evenodd" clip-rule="evenodd" d="M98.8989 7.58398C98.8989 7.58398 98.936 7.58398 98.9607 7.58398C99.0473 7.59648 99.0473 7.60897 99.0225 7.70893C98.9607 7.68394 98.9236 7.64646 98.8989 7.58398Z" fill="#FAA21B"/>
<path fill-rule="evenodd" clip-rule="evenodd" d="M100.803 3.01167C100.728 2.98668 100.679 2.94919 100.642 2.88672C100.728 2.88672 100.778 2.9367 100.803 3.01167Z" fill="#F9F6E8"/>
<path fill-rule="evenodd" clip-rule="evenodd" d="M100.976 3.14838C100.914 3.12339 100.852 3.08591 100.815 3.02344C100.914 3.02344 100.951 3.07342 100.976 3.14838Z" fill="#F9F6E8"/>
<path fill-rule="evenodd" clip-rule="evenodd" d="M98.7258 7.42188C98.7918 7.4302 98.833 7.46769 98.8494 7.53433C98.8494 7.53433 98.7506 7.47185 98.7258 7.42188Z" fill="#FAA21B"/>
<path fill-rule="evenodd" clip-rule="evenodd" d="M100.518 2.8111C100.518 2.8111 100.419 2.77361 100.395 2.72363C100.457 2.72363 100.506 2.74862 100.518 2.8111Z" fill="#F9F6E8"/>
<path fill-rule="evenodd" clip-rule="evenodd" d="M99.307 7.94666C99.307 7.94666 99.307 7.98415 99.307 7.99664C99.2575 7.98415 99.2328 7.95916 99.2205 7.90918C99.2452 7.90918 99.2823 7.93417 99.307 7.94666Z" fill="#FAA21B"/>
<path fill-rule="evenodd" clip-rule="evenodd" d="M100.641 2.88592C100.641 2.88592 100.58 2.87342 100.568 2.83594C100.604 2.83594 100.629 2.83594 100.641 2.88592Z" fill="#F9F6E8"/>
<path fill-rule="evenodd" clip-rule="evenodd" d="M100.568 2.84901C100.568 2.84901 100.531 2.84901 100.518 2.81152C100.543 2.81152 100.555 2.82402 100.568 2.84901Z" fill="#F9F6E8"/>
<path fill-rule="evenodd" clip-rule="evenodd" d="M98.6394 7.33398C98.6394 7.33398 98.6765 7.34648 98.6888 7.37147C98.6641 7.37147 98.6518 7.35897 98.6394 7.33398Z" fill="#FAA21B"/>
<path fill-rule="evenodd" clip-rule="evenodd" d="M98.8496 7.53418C98.8496 7.53418 98.8737 7.55917 98.8857 7.57166C98.8617 7.57166 98.8496 7.54667 98.8496 7.53418Z" fill="#FAA21B"/>
<path fill-rule="evenodd" clip-rule="evenodd" d="M99.0103 7.70898C99.0103 7.70898 99.0464 7.73397 99.0464 7.74647C99.0223 7.74647 99.0103 7.73397 99.0103 7.70898Z" fill="#FAA21B"/>
<path fill-rule="evenodd" clip-rule="evenodd" d="M99.0596 7.74707C99.0596 7.74707 99.0957 7.77206 99.0957 7.78455C99.0716 7.78455 99.0596 7.75956 99.0596 7.74707Z" fill="#FAA21B"/>
<path fill-rule="evenodd" clip-rule="evenodd" d="M99.0967 7.78418C99.0967 7.78418 99.1328 7.80917 99.1328 7.83416C99.1087 7.83416 99.0967 7.80917 99.0967 7.78418Z" fill="#FAA21B"/>
<path fill-rule="evenodd" clip-rule="evenodd" d="M99.1338 7.83398C99.1338 7.83398 99.1699 7.85897 99.1699 7.88396C99.1458 7.88396 99.1338 7.85897 99.1338 7.83398Z" fill="#FAA21B"/>
<path fill-rule="evenodd" clip-rule="evenodd" d="M99.1709 7.87207C99.1709 7.87207 99.207 7.89706 99.207 7.92205C99.1829 7.92205 99.1709 7.89706 99.1709 7.87207Z" fill="#FAA21B"/>
<path fill-rule="evenodd" clip-rule="evenodd" d="M98.689 7.38477C98.689 7.38477 98.726 7.39726 98.7384 7.43474C98.7137 7.43474 98.7013 7.42225 98.689 7.38477Z" fill="#FAA21B"/>
<path fill-rule="evenodd" clip-rule="evenodd" d="M99.3069 7.94523V7.93359C99.3183 7.93359 99.3069 7.93359 99.3069 7.94523Z" fill="#FAA21B"/>
</g>
<defs>
<clipPath id="clip0_228_2327">
<rect width="312" height="29" fill="white"/>
</clipPath>
</defs>
</svg>
