<svg width="102" height="106" viewBox="0 0 102 106" fill="none" xmlns="http://www.w3.org/2000/svg">
<g clip-path="url(#clip0_212_2063)">
<path d="M36.5966 44.4263C36.5966 41.1909 36.5419 37.9554 36.5966 34.7088C36.7061 28.7511 41.1917 24.2215 47.0559 24.1546C49.1237 24.1323 51.279 23.9649 53.2593 24.4223C57.8106 25.4711 61.1147 29.8445 61.1913 34.6977C61.2898 41.2801 61.2022 47.8738 61.2351 54.4562C61.246 57.145 60.1082 58.64 57.3839 58.7404C54.5503 58.852 53.5328 57.3904 53.5656 54.6236C53.6532 48.7105 53.5985 42.7863 53.5875 36.8732C53.5766 31.8304 52.9201 31.0717 48.6205 31.094C44.835 31.1052 44.2004 31.9085 44.2004 36.6947C44.2004 42.4962 44.1457 48.3089 44.2223 54.1104C44.2551 56.8995 43.3252 58.64 40.3602 58.7181C37.2421 58.7962 36.5091 56.8661 36.5638 54.1438C36.6295 50.9084 36.5748 47.6729 36.5748 44.4263H36.5857H36.5966Z" fill="#F47B20"/>
<path d="M21.9251 17.0813C21.9251 14.8138 20.1226 12.9756 17.899 12.9756C15.6754 12.9756 13.8728 14.8138 13.8728 17.0813V54.8356C13.8728 57.1031 15.6754 58.9413 17.899 58.9413C20.1226 58.9413 21.9251 57.1031 21.9251 54.8356V17.0813Z" fill="#F47B20"/>
<path d="M33.2159 26.8879C33.2159 24.6204 31.4133 22.7822 29.1897 22.7822C26.9662 22.7822 25.1636 24.6204 25.1636 26.8879V54.8243C25.1636 57.0918 26.9662 58.93 29.1897 58.93C31.4133 58.93 33.2159 57.0918 33.2159 54.8243V26.8879Z" fill="#F47B20"/>
<path d="M29.1898 21.6332C31.5343 21.6332 33.4348 19.6951 33.4348 17.3044C33.4348 14.9137 31.5343 12.9756 29.1898 12.9756C26.8454 12.9756 24.9448 14.9137 24.9448 17.3044C24.9448 19.6951 26.8454 21.6332 29.1898 21.6332Z" fill="#F47B20"/>
<path d="M20.5794 106V73.9912H13.8728C13.8728 73.9912 0 71.6707 0 58.7512V15.4854C0 15.4854 1.00654 0.0221888 14.759 0.0221888H87.4598C87.4598 0.0221888 102 -1.28315 102 14.5706V47.8734C102 47.8734 102 56.7653 93.4991 58.9408H73.4776C73.4776 58.9408 65.2065 58.1376 65.2065 49.1341V30.9932C65.2065 30.9932 66.771 22.7819 78.1821 22.7819C89.5933 22.7819 90.37 30.7701 90.37 30.7701V40.231C90.37 40.231 89.8121 45.9321 84.67 45.9321H76.9568C76.9568 45.9321 74.2763 45.3631 74.2763 41.4248C74.2763 37.4865 77.9633 37.7208 77.9633 37.7208H82.2083V33.2692C82.2083 33.2692 82.6569 30.9932 79.9764 30.9932H75.0531C75.0531 30.9932 72.5367 31.1048 72.5367 33.5593V47.8734C72.5367 47.8734 72.3726 51.0642 76.3988 51.0642H90.4904C90.4904 51.0642 93.8492 50.3836 93.8492 47.4159V16.2775C93.8492 16.2775 93.51 8.74675 86.4642 8.74675H16.4438C16.4438 8.74675 8.2821 8.63518 8.2821 13.7673V57.6801C8.2821 57.6801 9.06983 64.6419 14.8793 64.6419H26.9578V82.091L39.1458 64.9878H89.3635C89.3635 64.9878 92.602 64.6419 92.602 68.9819C92.602 73.3219 89.3635 73.545 89.3635 73.545H43.3908L20.5794 106.011V106Z" fill="#F47B20"/>
</g>
<defs>
<clipPath id="clip0_212_2063">
<rect width="102" height="106" fill="white"/>
</clipPath>
</defs>
</svg>
