<svg width="297" height="54" viewBox="0 0 297 54" fill="none" xmlns="http://www.w3.org/2000/svg">
<g clip-path="url(#clip0_243_2667)">
<path d="M2.58276 8.51255C2.58276 3.93185 2.58276 3.10868 2.52406 2.1693C2.46536 1.17181 2.23056 0.697274 1.25224 0.493902C1.01744 0.435796 0.508712 0.406743 0.244564 0.406743C0.127165 0.406743 0.00976562 0.348637 0.00976562 0.232425C0.00976562 0.0581062 0.156514 0 0.489145 0C1.80988 0 3.59044 0.0871593 3.82523 0.0871593C4.48071 0.0871593 6.20257 0 7.56244 0C11.2703 0 12.6008 1.22991 13.0802 1.67539C13.7357 2.29519 14.5672 3.61227 14.5672 5.17145C14.5672 9.34541 11.4855 12.1636 7.26894 12.1636C7.12219 12.1636 6.78956 12.1636 6.64281 12.1345C6.49606 12.1345 6.31996 12.0764 6.31996 11.9311C6.31996 11.6987 6.49606 11.6697 7.12219 11.6697C9.99847 11.6697 12.2584 9.58752 12.2584 6.88558C12.2584 5.91715 12.1704 3.95122 10.5952 2.36298C9.02014 0.774749 7.21024 0.881277 6.52541 0.881277C6.01668 0.881277 5.51774 0.939383 5.25359 1.0556C5.07749 1.1137 5.01879 1.31707 5.01879 1.61729V13.684C5.01879 16.5022 5.01879 18.8264 5.16554 20.0563C5.25359 20.9085 5.42969 21.5574 6.31996 21.6736C6.73086 21.7317 7.38634 21.7898 7.65049 21.7898C7.82659 21.7898 7.88529 21.877 7.88529 21.9641C7.88529 22.1094 7.73854 22.1966 7.40591 22.1966C5.7721 22.1966 3.9035 22.1094 3.75675 22.1094C3.6687 22.1094 1.8001 22.1966 0.909825 22.1966C0.586978 22.1966 0.430446 22.1385 0.430446 21.9641C0.430446 21.877 0.489145 21.7898 0.665244 21.7898C0.929392 21.7898 1.29137 21.7317 1.55552 21.6736C2.1523 21.5574 2.29905 20.9085 2.41645 20.0563C2.56319 18.8264 2.56319 16.5022 2.56319 13.684V8.51255H2.58276Z" fill="black"/>
<path d="M23.9004 2.75986C24.2232 1.88827 24.3309 1.72363 24.4874 1.72363C24.6439 1.72363 24.7515 1.85921 25.0744 2.6727C25.4755 3.67987 29.6725 14.6135 31.3063 18.6422C32.2651 20.9955 33.0477 21.4216 33.6054 21.5863C34.0065 21.7218 34.4076 21.7412 34.6718 21.7412C34.8283 21.7412 34.9359 21.7703 34.9359 21.8962C34.9359 22.0511 34.6913 22.1092 34.3978 22.1092C33.9967 22.1092 32.0401 22.1092 30.2008 22.0608C29.6921 22.0317 29.3986 22.0317 29.3986 21.8768C29.3986 21.7703 29.4769 21.7218 29.5845 21.6928C29.741 21.6444 29.9073 21.4023 29.741 20.9761L27.2561 14.4586C27.2071 14.352 27.1484 14.3036 27.0115 14.3036H21.2589C21.122 14.3036 21.0437 14.3811 20.9948 14.5167L19.3903 19.2039C19.1457 19.8624 19.0186 20.5016 19.0186 20.9761C19.0186 21.5088 19.5762 21.7412 20.036 21.7412H20.3002C20.486 21.7412 20.5643 21.7896 20.5643 21.8962C20.5643 22.0511 20.4078 22.1092 20.1632 22.1092C19.5175 22.1092 18.3729 22.0317 18.0794 22.0317C17.7859 22.0317 16.3184 22.1092 15.0563 22.1092C14.7041 22.1092 14.5476 22.0608 14.5476 21.8962C14.5476 21.7896 14.6552 21.7412 14.7922 21.7412C14.9781 21.7412 15.3498 21.7122 15.5651 21.6928C16.7978 21.5378 17.3261 20.5307 17.8152 19.2039L23.9004 2.75986ZM26.6788 13.3546C26.8158 13.3546 26.8158 13.2771 26.7865 13.1705L24.2428 6.02349C24.1058 5.62643 23.9787 5.62643 23.8417 6.02349L21.4839 13.1705C21.435 13.3061 21.4839 13.3546 21.5622 13.3546H26.6691H26.6788Z" fill="black"/>
<path d="M37.9981 9.78126C37.9981 5.64604 37.9981 4.91003 37.9492 4.0578C37.9003 3.15716 37.685 2.73105 36.7948 2.54704C36.5795 2.49862 36.1295 2.46957 35.8849 2.46957C35.7773 2.46957 35.6697 2.42115 35.6697 2.31462C35.6697 2.15967 35.8066 2.10156 36.1001 2.10156C37.3035 2.10156 38.9862 2.17904 39.1232 2.17904C39.4167 2.17904 41.4516 2.10156 42.2832 2.10156C43.9659 2.10156 45.7562 2.25651 47.1748 3.26369C47.84 3.73822 49.0238 5.03592 49.0238 6.86627C49.0238 8.82251 48.1922 10.7884 45.7856 12.9868C47.977 15.7662 49.7967 18.1195 51.3522 19.7658C52.8002 21.2766 53.9448 21.5671 54.6198 21.6737C55.1286 21.7511 55.5003 21.7511 55.6667 21.7511C55.8036 21.7511 55.9112 21.8286 55.9112 21.9061C55.9112 22.061 55.7547 22.1191 55.2655 22.1191H53.3676C51.8707 22.1191 51.2055 21.9836 50.5011 21.6156C49.3467 21.0054 48.4173 19.7077 46.8911 17.7224C45.766 16.2698 44.5137 14.4879 43.9757 13.8003C43.868 13.6937 43.7898 13.6453 43.6235 13.6453L40.3363 13.5969C40.1993 13.5969 40.1504 13.6744 40.1504 13.81V14.4491C40.1504 16.9864 40.1504 19.0879 40.2874 20.1919C40.3656 20.957 40.532 21.5381 41.3342 21.6446C41.7059 21.693 42.2929 21.7511 42.5375 21.7511C42.6941 21.7511 42.7528 21.8286 42.7528 21.9061C42.7528 22.0417 42.6158 22.1191 42.3223 22.1191C40.8548 22.1191 39.1623 22.0417 39.0351 22.0417C39.0058 22.0417 37.3231 22.1191 36.5208 22.1191C36.2273 22.1191 36.0904 22.0707 36.0904 21.9061C36.0904 21.8286 36.1393 21.7511 36.3056 21.7511C36.5502 21.7511 36.8632 21.7027 37.1078 21.6446C37.6459 21.5381 37.7731 20.957 37.8807 20.1919C38.0177 19.0782 38.0177 16.9864 38.0177 14.4491V9.79095L37.9981 9.78126ZM40.1406 12.0861C40.1406 12.2217 40.1895 12.3282 40.3265 12.4057C40.7276 12.6478 41.9603 12.8318 43.1343 12.8318C43.78 12.8318 44.5235 12.7544 45.1399 12.3282C46.0791 11.6891 46.7737 10.2655 46.7737 8.25113C46.7737 4.93908 45.0127 2.95379 42.1462 2.95379C41.344 2.95379 40.62 3.03126 40.3559 3.10874C40.2189 3.15716 40.1406 3.26369 40.1406 3.42832V12.0861Z" fill="black"/>
<path d="M60.4704 14.4976C60.4704 18.3907 60.578 20.0855 61.0574 20.56C61.4879 20.9861 62.1825 21.1702 64.2663 21.1702C65.6849 21.1702 66.8589 21.1411 67.5046 20.376C67.8568 19.9499 68.1209 19.2914 68.1992 18.7878C68.2285 18.5747 68.2774 18.4392 68.4438 18.4392C68.5807 18.4392 68.6003 18.5457 68.6003 18.8362C68.6003 19.1268 68.4144 20.715 68.1992 21.4801C68.0133 22.0902 67.935 22.1967 66.5165 22.1967C64.5892 22.1967 63.1999 22.1483 62.0749 22.1192C60.9498 22.0708 60.1182 22.0417 59.3453 22.0417C59.2377 22.0417 58.7877 22.0708 58.2496 22.0708C57.7115 22.0999 57.1245 22.1192 56.7234 22.1192C56.4299 22.1192 56.293 22.0708 56.293 21.9062C56.293 21.8287 56.3419 21.7512 56.5082 21.7512C56.7528 21.7512 57.0658 21.7028 57.3104 21.6447C57.8485 21.5382 57.9757 20.9571 58.0833 20.192C58.2203 19.0783 58.2203 16.9865 58.2203 14.4492V9.79103C58.2203 5.6558 58.2203 4.91979 58.1713 4.06757C58.1224 3.16692 57.9072 2.74081 57.0169 2.55681C56.8017 2.50839 56.3517 2.47933 56.1071 2.47933C55.9995 2.47933 55.8918 2.43091 55.8918 2.32438C55.8918 2.16943 56.0288 2.11133 56.3223 2.11133C57.5256 2.11133 59.2084 2.1888 59.3453 2.1888C59.4823 2.1888 61.4292 2.11133 62.2314 2.11133C62.5249 2.11133 62.6619 2.15975 62.6619 2.32438C62.6619 2.43091 62.5542 2.47933 62.4466 2.47933C62.2607 2.47933 61.889 2.50839 61.5661 2.55681C60.7933 2.69239 60.578 3.13787 60.5193 4.06757C60.4704 4.91979 60.4704 5.6558 60.4704 9.79103V14.5073V14.4976Z" fill="black"/>
<path d="M77.5518 2.75986C77.8746 1.88827 77.9822 1.72363 78.1388 1.72363C78.2953 1.72363 78.4029 1.85921 78.7258 2.6727C79.1269 3.67987 83.3239 14.6135 84.9577 18.6422C85.9164 20.9955 86.6991 21.4216 87.2568 21.5863C87.6579 21.7218 88.059 21.7412 88.3231 21.7412C88.4797 21.7412 88.5873 21.7703 88.5873 21.8962C88.5873 22.0511 88.3427 22.1092 88.0492 22.1092C87.6481 22.1092 85.6914 22.1092 83.8522 22.0608C83.3435 22.0317 83.05 22.0317 83.05 21.8768C83.05 21.7703 83.1282 21.7218 83.2358 21.6928C83.3924 21.6444 83.5587 21.4023 83.3924 20.9761L80.9074 14.4586C80.8585 14.352 80.7998 14.3036 80.6628 14.3036H74.9103C74.7733 14.3036 74.6951 14.3811 74.6461 14.5167L73.0417 19.2039C72.7971 19.8624 72.6699 20.5016 72.6699 20.9761C72.6699 21.5088 73.2276 21.7412 73.6874 21.7412H73.9515C74.1374 21.7412 74.2157 21.7896 74.2157 21.8962C74.2157 22.0511 74.0591 22.1092 73.8146 22.1092C73.1689 22.1092 72.0242 22.0317 71.7307 22.0317C71.4372 22.0317 69.9697 22.1092 68.7077 22.1092C68.3555 22.1092 68.199 22.0608 68.199 21.8962C68.199 21.7896 68.3066 21.7412 68.4436 21.7412C68.6294 21.7412 69.0012 21.7122 69.2164 21.6928C70.4491 21.5378 70.9774 20.5307 71.4666 19.2039L77.542 2.75986H77.5518ZM80.3302 13.3546C80.4672 13.3546 80.4672 13.2771 80.4378 13.1705L77.8942 6.02349C77.7572 5.62643 77.63 5.62643 77.4931 6.02349L75.1353 13.1705C75.0864 13.3061 75.1353 13.3546 75.2136 13.3546H80.3204H80.3302Z" fill="black"/>
<path d="M91.4441 9.78126C91.4441 5.64604 91.4441 4.91003 91.3952 4.0578C91.3463 3.15716 91.1311 2.73105 90.2408 2.54704C90.0256 2.49862 89.5755 2.46957 89.331 2.46957C89.2233 2.46957 89.1157 2.42115 89.1157 2.31462C89.1157 2.15967 89.2527 2.10156 89.5462 2.10156C90.7495 2.10156 92.4323 2.17904 92.5692 2.17904C92.8627 2.17904 94.8976 2.10156 95.7292 2.10156C97.4119 2.10156 99.2023 2.25651 100.621 3.26369C101.286 3.73822 102.47 5.03592 102.47 6.86627C102.47 8.82251 101.638 10.7884 99.2316 12.9868C101.423 15.7662 103.243 18.1195 104.798 19.7658C106.246 21.2766 107.391 21.5671 108.066 21.6737C108.575 21.7511 108.946 21.7511 109.113 21.7511C109.25 21.7511 109.357 21.8286 109.357 21.9061C109.357 22.061 109.201 22.1191 108.712 22.1191H106.814C105.317 22.1191 104.652 21.9836 103.947 21.6156C102.793 21.0054 101.863 19.7077 100.337 17.7224C99.212 16.2698 97.9598 14.4879 97.4217 13.8003C97.3141 13.6937 97.2358 13.6453 97.0695 13.6453L93.7823 13.5969C93.6454 13.5969 93.5965 13.6744 93.5965 13.81V14.4491C93.5965 16.9864 93.5965 19.0879 93.7334 20.1919C93.8117 20.957 93.978 21.5381 94.7802 21.6446C95.152 21.693 95.739 21.7511 95.9836 21.7511C96.1401 21.7511 96.1988 21.8286 96.1988 21.9061C96.1988 22.0417 96.0618 22.1191 95.7683 22.1191C94.3008 22.1191 92.6083 22.0417 92.4812 22.0417C92.4518 22.0417 90.7691 22.1191 89.9669 22.1191C89.6734 22.1191 89.5364 22.0707 89.5364 21.9061C89.5364 21.8286 89.5853 21.7511 89.7516 21.7511C89.9962 21.7511 90.3093 21.7027 90.5539 21.6446C91.0919 21.5381 91.2191 20.957 91.3267 20.1919C91.4637 19.0782 91.4637 16.9864 91.4637 14.4491V9.79095L91.4441 9.78126ZM93.5867 12.0861C93.5867 12.2217 93.6356 12.3282 93.7726 12.4057C94.1737 12.6478 95.4064 12.8318 96.5803 12.8318C97.226 12.8318 97.9696 12.7544 98.5859 12.3282C99.5251 11.6891 100.22 10.2655 100.22 8.25113C100.22 4.93908 98.4587 2.95379 95.5922 2.95379C94.79 2.95379 94.0661 3.03126 93.8019 3.10874C93.6649 3.15716 93.5867 3.26369 93.5867 3.42832V12.0861Z" fill="black"/>
<path d="M117.781 16.2695C117.781 13.1705 119.786 11.1077 121.87 9.88747C120.882 8.51229 120.559 7.42765 120.559 6.23647C120.559 4.14465 122.721 1.36523 126.312 1.36523C127.671 1.36523 128.826 1.62671 129.55 2.02377C129.873 2.20777 129.902 2.37241 129.902 2.68231C129.902 3.47643 129.794 5.32614 129.716 5.7232C129.638 6.12026 129.56 6.16868 129.452 6.16868C129.315 6.16868 129.295 6.06215 129.295 5.66509C129.295 4.9775 129.139 4.10591 128.464 3.41832C127.877 2.8082 126.967 2.2562 125.793 2.2562C124.189 2.2562 122.398 3.23432 122.398 5.7232C122.398 7.78597 123.846 9.50978 126.625 12.5023C127.534 13.4804 130.822 16.5309 131.683 17.2379C132.436 16.2307 133.042 14.4585 133.042 12.8412C133.042 12.4441 132.935 11.9406 132.534 11.5435C132.181 11.1949 131.624 11.1174 131.223 11.1174C131.066 11.1174 130.9 11.069 130.9 10.9334C130.9 10.7978 131.115 10.7494 131.33 10.7494C131.976 10.7494 133.042 10.7784 134.539 10.9334C134.94 10.9818 135.019 11.1949 135.019 11.466C135.019 13.6063 133.551 16.2888 132.367 17.7124C134.128 19.1941 135.312 19.9108 136.056 20.3369C136.917 20.8405 138.276 21.3731 139.235 21.3731C139.48 21.3731 139.607 21.4022 139.607 21.5571C139.607 21.6637 139.392 21.7411 139.157 21.7411H136.535C134.559 21.7411 133.913 21.5571 130.968 19.2523C130.352 19.8624 128.239 22.1091 124.277 22.1091C119.59 22.1091 117.781 18.5647 117.781 16.2598V16.2695ZM130.274 18.7584C128.777 17.5381 126.126 15.0202 125.431 14.2842C124.736 13.5482 123.024 11.6597 122.271 10.5751C120.882 11.4757 119.864 12.909 119.864 15.0202C119.864 18.3322 122.222 20.7146 125.216 20.7146C127.701 20.7146 129.364 19.6784 130.274 18.7584Z" fill="black"/>
<path d="M153.225 8.60907C153.225 4.08647 153.225 3.27299 153.167 2.34329C153.108 1.35548 152.873 0.890633 151.905 0.687262C151.67 0.629156 151.171 0.600103 150.907 0.600103C150.789 0.600103 150.672 0.541996 150.672 0.425784C150.672 0.251466 150.819 0.193359 151.141 0.193359C152.462 0.193359 154.184 0.280519 154.36 0.280519C154.624 0.280519 156.327 0.193359 157.197 0.193359C157.52 0.193359 157.667 0.251466 157.667 0.425784C157.667 0.541996 157.55 0.600103 157.432 0.600103C157.227 0.600103 157.051 0.629156 156.698 0.687262C155.906 0.832527 155.671 1.32643 155.612 2.34329C155.554 3.27299 155.554 4.08647 155.554 8.60907V10.3523H155.671C156.17 9.80025 161.473 4.46416 162.519 3.34078C163.341 2.49824 164.104 1.74286 164.104 1.24895C164.104 0.900318 163.958 0.725999 163.723 0.63884C163.576 0.580734 163.459 0.522628 163.459 0.406415C163.459 0.26115 163.605 0.203044 163.811 0.203044C164.398 0.203044 165.308 0.290203 166.002 0.290203C166.149 0.290203 168.086 0.203044 168.81 0.203044C169.133 0.203044 169.25 0.26115 169.25 0.406415C169.25 0.551681 169.192 0.609787 168.957 0.609787C168.517 0.609787 167.9 0.755052 167.313 1.01653C166.11 1.53949 165.464 2.26581 164.153 3.50541C163.419 4.20269 158.322 9.13203 157.706 9.85835C158.469 10.7009 164.554 16.9279 165.758 18.032C168.213 20.2884 168.712 20.7533 170.121 21.3343C170.884 21.6539 171.735 21.712 171.941 21.712C172.146 21.712 172.322 21.7701 172.322 21.8863C172.322 22.0316 172.175 22.1188 171.677 22.1188H170.18C169.358 22.1188 168.8 22.1188 168.155 22.0606C166.599 21.9154 165.875 21.2762 164.613 20.2884C163.292 19.2134 157.09 12.5797 155.681 10.8655H155.534V13.703C155.534 16.4825 155.534 18.7776 155.681 19.9979C155.769 20.8404 155.945 21.4796 156.826 21.5958C157.236 21.6539 157.706 21.712 157.97 21.712C158.146 21.712 158.205 21.7992 158.205 21.8863C158.205 22.0316 158.058 22.1188 157.735 22.1188C156.297 22.1188 154.605 22.0316 154.37 22.0316C154.135 22.0316 152.433 22.1188 151.562 22.1188C151.239 22.1188 151.093 22.0606 151.093 21.8863C151.093 21.7992 151.151 21.712 151.327 21.712C151.591 21.712 151.944 21.6539 152.208 21.5958C152.795 21.4796 152.942 20.8404 153.059 19.9979C153.206 18.7776 153.206 16.4921 153.206 13.703V8.59939L153.225 8.60907Z" fill="black"/>
<path d="M181.851 1.73332C187.868 1.73332 192.368 5.49085 192.368 11.6598C192.368 17.8287 188.142 22.4869 181.694 22.4869C174.367 22.4869 171.314 16.8506 171.314 12.0762C171.314 7.78604 174.474 1.72363 181.851 1.72363V1.73332ZM182.409 21.4894C184.815 21.4894 189.795 20.1142 189.795 12.4055C189.795 6.05254 185.892 2.63396 181.665 2.63396C177.194 2.63396 173.858 5.54896 173.858 11.3499C173.858 17.5188 177.605 21.4894 182.418 21.4894H182.409Z" fill="black"/>
<path d="M200.557 15.2626C200.557 13.8293 200.293 13.2483 199.94 12.4832C199.754 12.0571 196.164 6.23678 195.235 4.85192C194.569 3.8738 193.894 3.20558 193.415 2.89568C193.014 2.6342 192.505 2.46957 192.26 2.46957C192.124 2.46957 191.996 2.42115 191.996 2.28557C191.996 2.17904 192.104 2.10156 192.349 2.10156C192.857 2.10156 194.863 2.17904 195 2.17904C195.186 2.17904 196.203 2.10156 197.25 2.10156C197.543 2.10156 197.602 2.17904 197.602 2.28557C197.602 2.39209 197.446 2.42115 197.201 2.52767C196.986 2.6342 196.849 2.78915 196.849 3.00221C196.849 3.32179 196.986 3.64138 197.201 4.03843C197.631 4.8035 201.643 11.6407 202.122 12.4057C202.631 11.292 206.026 5.49109 206.564 4.6195C206.916 4.06749 207.014 3.61232 207.014 3.27337C207.014 2.90536 206.906 2.61483 206.583 2.52767C206.339 2.4502 206.182 2.39209 206.182 2.2662C206.182 2.15967 206.339 2.11125 206.613 2.11125C207.307 2.11125 208.168 2.18872 208.374 2.18872C208.53 2.18872 210.457 2.11125 210.966 2.11125C211.152 2.11125 211.318 2.15967 211.318 2.2662C211.318 2.40178 211.181 2.47925 210.966 2.47925C210.673 2.47925 210.164 2.58578 209.733 2.84726C209.195 3.16684 208.902 3.48643 208.315 4.19338C207.434 5.24898 203.687 11.476 203.208 12.6188C202.807 13.5678 202.807 14.391 202.807 15.2626V17.5384C202.807 17.9645 202.807 19.0782 202.885 20.1823C202.934 20.9473 203.179 21.5284 203.981 21.6349C204.353 21.6833 204.94 21.7414 205.184 21.7414C205.341 21.7414 205.399 21.8189 205.399 21.8964C205.399 22.032 205.262 22.1095 204.969 22.1095C203.501 22.1095 201.809 22.032 201.682 22.032C201.555 22.032 199.862 22.1095 199.06 22.1095C198.766 22.1095 198.629 22.061 198.629 21.8964C198.629 21.8189 198.678 21.7414 198.845 21.7414C199.089 21.7414 199.402 21.693 199.647 21.6349C200.185 21.5284 200.42 20.9473 200.478 20.1823C200.557 19.0686 200.557 17.9549 200.557 17.5384V15.2626Z" fill="black"/>
<path d="M213.529 9.78118C213.529 5.64596 213.529 4.90995 213.48 4.05772C213.432 3.15708 213.216 2.73096 212.326 2.54696C212.111 2.49854 211.661 2.46949 211.416 2.46949C211.309 2.46949 211.201 2.42107 211.201 2.31454C211.201 2.15959 211.338 2.10148 211.631 2.10148C212.835 2.10148 214.469 2.17896 214.703 2.17896C214.938 2.17896 216.552 2.10148 217.355 2.10148C217.648 2.10148 217.785 2.1499 217.785 2.31454C217.785 2.42107 217.677 2.46949 217.57 2.46949C217.384 2.46949 217.218 2.49854 216.905 2.54696C216.181 2.65349 215.965 3.12802 215.916 4.05772C215.868 4.90995 215.868 5.64596 215.868 9.78118V13.4903C215.868 17.3059 216.728 18.9426 217.873 20.0272C219.184 21.2475 220.387 21.4799 221.914 21.4799C223.547 21.4799 225.152 20.7148 226.111 19.5721C227.343 18.0613 227.666 15.8145 227.666 13.0835V9.7715C227.666 5.63627 227.666 4.90026 227.617 4.04804C227.568 3.14739 227.353 2.72128 226.463 2.53728C226.248 2.48886 225.798 2.4598 225.553 2.4598C225.445 2.4598 225.338 2.41138 225.338 2.30485C225.338 2.1499 225.475 2.0918 225.768 2.0918C226.972 2.0918 228.439 2.16927 228.605 2.16927C228.791 2.16927 230.053 2.0918 230.855 2.0918C231.149 2.0918 231.286 2.14022 231.286 2.30485C231.286 2.41138 231.178 2.4598 231.071 2.4598C230.885 2.4598 230.719 2.48886 230.405 2.53728C229.681 2.69223 229.466 3.11834 229.417 4.04804C229.368 4.90026 229.368 5.63627 229.368 9.7715V12.609C229.368 15.4659 229.046 18.6424 226.903 20.5308C224.976 22.2256 222.97 22.4871 221.395 22.4871C220.485 22.4871 217.785 22.3805 215.887 20.6083C214.576 19.359 213.559 17.5093 213.559 13.6452V9.78118H213.529Z" fill="black"/>
<path d="M237.029 18.5163C237.078 20.6856 237.352 21.3732 238.075 21.5863C238.584 21.7218 239.171 21.7412 239.416 21.7412C239.553 21.7412 239.631 21.7896 239.631 21.8962C239.631 22.0511 239.474 22.1092 239.152 22.1092C237.625 22.1092 236.559 22.0317 236.314 22.0317C236.07 22.0317 234.955 22.1092 233.751 22.1092C233.487 22.1092 233.321 22.0802 233.321 21.8962C233.321 21.7896 233.399 21.7412 233.536 21.7412C233.751 21.7412 234.231 21.7122 234.632 21.5863C235.297 21.4023 235.434 20.6372 235.434 18.2258L235.463 3.05039C235.463 2.01416 235.542 1.72363 235.757 1.72363C235.972 1.72363 236.422 2.30469 236.696 2.57586C237.097 3.02134 241.079 7.29214 245.207 11.6598C247.859 14.4683 250.774 17.6931 251.625 18.5744L251.332 5.12284C251.302 3.39903 251.117 2.81797 250.285 2.60491C249.806 2.49838 249.189 2.46933 248.974 2.46933C248.788 2.46933 248.759 2.39185 248.759 2.28533C248.759 2.13038 248.974 2.10132 249.297 2.10132C250.5 2.10132 251.782 2.1788 252.075 2.1788C252.369 2.1788 253.249 2.10132 254.345 2.10132C254.639 2.10132 254.824 2.13038 254.824 2.28533C254.824 2.39185 254.717 2.46933 254.531 2.46933C254.394 2.46933 254.208 2.46933 253.885 2.5468C253.005 2.73081 252.897 3.31187 252.897 4.9001L252.848 20.4144C252.848 22.1576 252.799 22.2932 252.604 22.2932C252.388 22.2932 252.066 22.0027 250.647 20.5985C250.353 20.337 246.499 16.4439 243.662 13.4223C240.56 10.1103 237.537 6.77887 236.676 5.82012L237.029 18.5066V18.5163Z" fill="black"/>
<path d="M260.45 19.6301C257.857 17.3252 257.211 14.3037 257.211 11.7955C257.211 10.0232 257.828 6.92422 260.205 4.57092C261.81 2.98268 264.246 1.7334 268.364 1.7334C269.431 1.7334 270.928 1.81087 272.238 2.05298C273.256 2.23699 274.107 2.40162 274.968 2.45004C275.262 2.47909 275.32 2.58562 275.32 2.74057C275.32 2.95363 275.242 3.27321 275.183 4.22228C275.134 5.09387 275.134 6.55621 275.105 6.95327C275.076 7.35033 275.027 7.50528 274.86 7.50528C274.675 7.50528 274.645 7.32128 274.645 6.95327C274.645 5.91704 274.215 4.83239 273.52 4.25133C272.581 3.45721 270.526 2.74057 268.169 2.74057C264.608 2.74057 262.954 3.7768 262.015 4.67744C260.058 6.52716 259.608 8.89014 259.608 11.5921C259.608 16.6473 263.541 21.2861 269.264 21.2861C271.27 21.2861 272.845 21.044 273.921 19.9594C274.479 19.3783 274.831 18.2162 274.909 17.732C274.958 17.4414 275.017 17.3349 275.173 17.3349C275.31 17.3349 275.359 17.5189 275.359 17.732C275.359 17.916 275.036 20.2208 274.772 21.1215C274.616 21.6251 274.557 21.6735 274.078 21.8866C273.011 22.3127 270.976 22.4967 269.264 22.4967C265.253 22.4967 262.553 21.5186 260.44 19.6398L260.45 19.6301Z" fill="black"/>
<path d="M279.263 9.78118C279.263 5.64596 279.263 4.90995 279.214 4.05772C279.165 3.15708 278.95 2.73096 278.06 2.54696C277.844 2.49854 277.394 2.46949 277.15 2.46949C277.042 2.46949 276.935 2.42107 276.935 2.31454C276.935 2.15959 277.072 2.10148 277.365 2.10148C278.568 2.10148 280.202 2.17896 280.437 2.17896C280.672 2.17896 282.286 2.10148 283.088 2.10148C283.382 2.10148 283.519 2.1499 283.519 2.31454C283.519 2.42107 283.411 2.46949 283.303 2.46949C283.118 2.46949 282.951 2.49854 282.638 2.54696C281.914 2.65349 281.699 3.12802 281.65 4.05772C281.601 4.90995 281.601 5.64596 281.601 9.78118V13.4903C281.601 17.3059 282.462 18.9426 283.607 20.0272C284.918 21.2475 286.121 21.4799 287.647 21.4799C289.281 21.4799 290.885 20.7148 291.844 19.5721C293.077 18.0613 293.4 15.8145 293.4 13.0835V9.7715C293.4 5.63627 293.4 4.90026 293.351 4.04804C293.302 3.14739 293.087 2.72128 292.196 2.53728C291.981 2.48886 291.531 2.4598 291.287 2.4598C291.179 2.4598 291.071 2.41138 291.071 2.30485C291.071 2.1499 291.208 2.0918 291.502 2.0918C292.705 2.0918 294.173 2.16927 294.339 2.16927C294.525 2.16927 295.787 2.0918 296.589 2.0918C296.883 2.0918 297.02 2.14022 297.02 2.30485C297.02 2.41138 296.912 2.4598 296.804 2.4598C296.618 2.4598 296.452 2.48886 296.139 2.53728C295.415 2.69223 295.2 3.11834 295.151 4.04804C295.102 4.90026 295.102 5.63627 295.102 9.7715V12.609C295.102 15.4659 294.779 18.6424 292.637 20.5308C290.709 22.2256 288.704 22.4871 287.129 22.4871C286.219 22.4871 283.519 22.3805 281.621 20.6083C280.31 19.359 279.292 17.5093 279.292 13.6452V9.78118H279.263Z" fill="black"/>
<path d="M79.0193 48.2671C79.0193 50.0781 79.0193 51.5598 79.1171 52.3539C79.1758 52.8962 79.2932 53.3127 79.8606 53.3901C80.1248 53.4289 80.5455 53.4676 80.7216 53.4676C80.839 53.4676 80.8781 53.5257 80.8781 53.5838C80.8781 53.6807 80.7803 53.7388 80.5748 53.7388C79.528 53.7388 78.3247 53.6807 78.2366 53.6807C78.1486 53.6807 76.9452 53.7388 76.368 53.7388C76.1626 53.7388 76.0647 53.7 76.0647 53.5838C76.0647 53.5257 76.1039 53.4676 76.2213 53.4676C76.3974 53.4676 76.6224 53.4289 76.7887 53.3901C77.1702 53.3127 77.2681 52.8962 77.3366 52.3539C77.4344 51.5598 77.4344 50.0781 77.4344 48.2671V46.2915C77.4344 46.214 77.3757 46.1753 77.317 46.1753H69.2458C69.1871 46.1753 69.1284 46.1947 69.1284 46.2915V48.2671C69.1284 50.0781 69.1284 51.5598 69.2262 52.3539C69.2849 52.8962 69.4023 53.3127 69.9698 53.3901C70.2339 53.4289 70.6546 53.4676 70.8307 53.4676C70.9481 53.4676 70.9872 53.5257 70.9872 53.5838C70.9872 53.6807 70.8894 53.7388 70.684 53.7388C69.6371 53.7388 68.4338 53.6807 68.3458 53.6807C68.2577 53.6807 67.0544 53.7388 66.4772 53.7388C66.2717 53.7388 66.1739 53.7 66.1739 53.5838C66.1739 53.5257 66.213 53.4676 66.3304 53.4676C66.5065 53.4676 66.7315 53.4289 66.8978 53.3901C67.2794 53.3127 67.3772 52.8962 67.4457 52.3539C67.5435 51.5598 67.5435 50.0781 67.5435 48.2671V44.9551C67.5435 42.011 67.5435 41.4881 67.5044 40.8876C67.4653 40.2485 67.3185 39.9482 66.6826 39.8127C66.5261 39.7739 66.2032 39.7546 66.0369 39.7546C65.9586 39.7546 65.8804 39.7158 65.8804 39.6383C65.8804 39.5221 65.9782 39.4834 66.1837 39.4834C67.0446 39.4834 68.2381 39.5415 68.336 39.5415C68.4338 39.5415 69.6274 39.4834 70.2046 39.4834C70.41 39.4834 70.5079 39.5221 70.5079 39.6383C70.5079 39.7158 70.4296 39.7546 70.3513 39.7546C70.2144 39.7546 70.1067 39.7739 69.8719 39.8127C69.3534 39.9095 69.2067 40.2291 69.1675 40.8876C69.1284 41.4881 69.1284 42.0207 69.1284 44.9551V45.3521C69.1284 45.449 69.1871 45.4683 69.2458 45.4683H77.317C77.3757 45.4683 77.4344 45.449 77.4344 45.3521V44.9551C77.4344 42.011 77.4344 41.4881 77.3953 40.8876C77.3561 40.2485 77.2094 39.9482 76.5735 39.8127C76.4169 39.7739 76.0941 39.7546 75.9278 39.7546C75.8495 39.7546 75.7712 39.7158 75.7712 39.6383C75.7712 39.5221 75.8691 39.4834 76.0745 39.4834C76.9355 39.4834 78.129 39.5415 78.2268 39.5415C78.3247 39.5415 79.5182 39.4834 80.0954 39.4834C80.3009 39.4834 80.3987 39.5221 80.3987 39.6383C80.3987 39.7158 80.3205 39.7546 80.2422 39.7546C80.1052 39.7546 79.9976 39.7739 79.7628 39.8127C79.2443 39.9095 79.0975 40.2291 79.0584 40.8876C79.0193 41.4881 79.0193 42.0207 79.0193 44.9551V48.2671Z" fill="black"/>
<path d="M84.6937 44.9551C84.6937 42.011 84.6937 41.4881 84.6545 40.8876C84.6154 40.2485 84.4687 39.9482 83.8327 39.8127C83.6762 39.7739 83.3534 39.7546 83.187 39.7546C83.1088 39.7546 83.0305 39.7158 83.0305 39.6383C83.0305 39.5221 83.1283 39.4834 83.3338 39.4834C84.1947 39.4834 85.3491 39.5415 85.5252 39.5415C85.7013 39.5415 86.8362 39.4834 87.4134 39.4834C87.6189 39.4834 87.7167 39.5221 87.7167 39.6383C87.7167 39.7158 87.6384 39.7546 87.5602 39.7546C87.4232 39.7546 87.3156 39.7739 87.0808 39.8127C86.5623 39.8901 86.4155 40.2291 86.3764 40.8876C86.3373 41.4881 86.3373 42.0207 86.3373 44.9551V47.5892C86.3373 50.3008 86.9438 51.4726 87.7656 52.2474C88.695 53.1093 89.5559 53.2836 90.6419 53.2836C91.8061 53.2836 92.9409 52.7413 93.6258 51.9278C94.4965 50.8528 94.7313 49.2549 94.7313 47.3084V44.9551C94.7313 42.011 94.7313 41.4881 94.6922 40.8876C94.653 40.2485 94.5063 39.9482 93.8704 39.8127C93.7138 39.7739 93.391 39.7546 93.2247 39.7546C93.1464 39.7546 93.0681 39.7158 93.0681 39.6383C93.0681 39.5221 93.166 39.4834 93.3714 39.4834C94.2323 39.4834 95.2791 39.5415 95.3868 39.5415C95.5237 39.5415 96.414 39.4834 96.9814 39.4834C97.1869 39.4834 97.2847 39.5221 97.2847 39.6383C97.2847 39.7158 97.2064 39.7546 97.1282 39.7546C96.9912 39.7546 96.8836 39.7739 96.6488 39.8127C96.1303 39.9289 95.9835 40.2291 95.9444 40.8876C95.9053 41.4881 95.9053 42.0207 95.9053 44.9551V46.9694C95.9053 49.0031 95.6803 51.2693 94.1541 52.6057C92.7844 53.8163 91.3561 54.0003 90.231 54.0003C89.5853 54.0003 87.658 53.9228 86.3079 52.6638C85.3785 51.7825 84.6545 50.4558 84.6545 47.7054V44.9551H84.6937Z" fill="black"/>
<path d="M100.885 44.9551C100.885 42.011 100.885 41.4881 100.846 40.8876C100.807 40.2485 100.66 39.9482 100.024 39.8127C99.8674 39.7739 99.5445 39.7546 99.3782 39.7546C99.2999 39.7546 99.2217 39.7158 99.2217 39.6383C99.2217 39.5221 99.3195 39.4834 99.525 39.4834C100.386 39.4834 101.501 39.5415 101.619 39.5415C101.795 39.5415 102.89 39.4834 103.468 39.4834C103.673 39.4834 103.771 39.5221 103.771 39.6383C103.771 39.7158 103.693 39.7546 103.614 39.7546C103.477 39.7546 103.37 39.7739 103.135 39.8127C102.616 39.9095 102.47 40.2291 102.431 40.8876C102.391 41.4881 102.391 42.0207 102.391 44.9551V46.0881H102.47C102.793 45.7298 106.236 42.2628 106.921 41.5268C107.449 40.9845 107.948 40.4906 107.948 40.171C107.948 39.9482 107.851 39.832 107.704 39.7739C107.606 39.7352 107.528 39.6965 107.528 39.619C107.528 39.5221 107.625 39.4834 107.753 39.4834C108.134 39.4834 108.721 39.5415 109.181 39.5415C109.279 39.5415 110.531 39.4834 111.011 39.4834C111.216 39.4834 111.294 39.5221 111.294 39.619C111.294 39.7158 111.255 39.7546 111.108 39.7546C110.825 39.7546 110.424 39.8514 110.042 40.016C109.259 40.355 108.839 40.8295 107.987 41.6333C107.508 42.0885 104.201 45.2843 103.8 45.7589C104.299 46.3012 108.252 50.3589 109.034 51.0756C110.629 52.5476 110.952 52.8478 111.871 53.2255C112.37 53.4289 112.918 53.4676 113.055 53.4676C113.192 53.4676 113.3 53.5064 113.3 53.5838C113.3 53.6807 113.202 53.7388 112.879 53.7388H111.911C111.382 53.7388 111.02 53.7388 110.6 53.7C109.592 53.6032 109.113 53.1868 108.301 52.5476C107.44 51.8503 103.409 47.5311 102.499 46.4271H102.401V48.2768C102.401 50.0878 102.401 51.5695 102.499 52.3636C102.558 52.9059 102.675 53.3224 103.243 53.3998C103.507 53.4386 103.81 53.4773 103.986 53.4773C104.104 53.4773 104.143 53.5354 104.143 53.5935C104.143 53.6904 104.045 53.7485 103.839 53.7485C102.91 53.7485 101.804 53.6904 101.648 53.6904C101.491 53.6904 100.396 53.7485 99.8185 53.7485C99.613 53.7485 99.5152 53.7097 99.5152 53.5935C99.5152 53.5354 99.5543 53.4773 99.6717 53.4773C99.8478 53.4773 100.073 53.4386 100.239 53.3998C100.621 53.3224 100.719 52.9059 100.787 52.3636C100.885 51.5695 100.885 50.0878 100.885 48.2768V44.9647V44.9551Z" fill="black"/>
<path d="M113.74 44.9551C113.74 42.011 113.74 41.4881 113.701 40.8876C113.662 40.2485 113.515 39.9482 112.879 39.8127C112.723 39.7739 112.4 39.7546 112.233 39.7546C112.155 39.7546 112.077 39.7158 112.077 39.6383C112.077 39.5221 112.175 39.4834 112.38 39.4834C113.241 39.4834 114.396 39.5415 114.572 39.5415C114.748 39.5415 115.883 39.4834 116.46 39.4834C116.665 39.4834 116.763 39.5221 116.763 39.6383C116.763 39.7158 116.685 39.7546 116.607 39.7546C116.47 39.7546 116.362 39.7739 116.127 39.8127C115.609 39.8901 115.462 40.2291 115.423 40.8876C115.384 41.4881 115.384 42.0207 115.384 44.9551V47.5892C115.384 50.3008 115.99 51.4726 116.812 52.2474C117.741 53.1093 118.602 53.2836 119.688 53.2836C120.852 53.2836 121.987 52.7413 122.672 51.9278C123.543 50.8528 123.778 49.2549 123.778 47.3084V44.9551C123.778 42.011 123.778 41.4881 123.739 40.8876C123.699 40.2485 123.553 39.9482 122.917 39.8127C122.76 39.7739 122.437 39.7546 122.271 39.7546C122.193 39.7546 122.115 39.7158 122.115 39.6383C122.115 39.5221 122.212 39.4834 122.418 39.4834C123.279 39.4834 124.326 39.5415 124.433 39.5415C124.57 39.5415 125.46 39.4834 126.028 39.4834C126.233 39.4834 126.331 39.5221 126.331 39.6383C126.331 39.7158 126.253 39.7546 126.175 39.7546C126.038 39.7546 125.93 39.7739 125.695 39.8127C125.177 39.9289 125.03 40.2291 124.991 40.8876C124.952 41.4881 124.952 42.0207 124.952 44.9551V46.9694C124.952 49.0031 124.727 51.2693 123.2 52.6057C121.831 53.8163 120.402 54.0003 119.277 54.0003C118.632 54.0003 116.704 53.9228 115.354 52.6638C114.425 51.7825 113.701 50.4558 113.701 47.7054V44.9551H113.74Z" fill="black"/>
<path d="M129.579 44.9551C129.579 42.011 129.579 41.4881 129.54 40.8876C129.501 40.2485 129.354 39.9482 128.718 39.8127C128.562 39.7739 128.239 39.7546 128.073 39.7546C127.994 39.7546 127.916 39.7158 127.916 39.6383C127.916 39.5221 128.014 39.4834 128.219 39.4834C129.08 39.4834 130.196 39.5415 130.313 39.5415C130.489 39.5415 131.585 39.4834 132.162 39.4834C132.367 39.4834 132.465 39.5221 132.465 39.6383C132.465 39.7158 132.387 39.7546 132.309 39.7546C132.172 39.7546 132.064 39.7739 131.829 39.8127C131.311 39.9095 131.164 40.2291 131.125 40.8876C131.086 41.4881 131.086 42.0207 131.086 44.9551V46.0881H131.164C131.487 45.7298 134.931 42.2628 135.615 41.5268C136.144 40.9845 136.643 40.4906 136.643 40.171C136.643 39.9482 136.545 39.832 136.398 39.7739C136.3 39.7352 136.222 39.6965 136.222 39.619C136.222 39.5221 136.32 39.4834 136.447 39.4834C136.829 39.4834 137.416 39.5415 137.875 39.5415C137.973 39.5415 139.225 39.4834 139.705 39.4834C139.91 39.4834 139.989 39.5221 139.989 39.619C139.989 39.7158 139.949 39.7546 139.803 39.7546C139.519 39.7546 139.118 39.8514 138.736 40.016C137.954 40.355 137.533 40.8295 136.682 41.6333C136.202 42.0885 132.896 45.2843 132.495 45.7589C132.994 46.3012 136.946 50.3589 137.729 51.0756C139.323 52.5476 139.646 52.8478 140.566 53.2255C141.065 53.4289 141.613 53.4676 141.75 53.4676C141.887 53.4676 141.994 53.5064 141.994 53.5838C141.994 53.6807 141.896 53.7388 141.573 53.7388H140.605C140.077 53.7388 139.715 53.7388 139.294 53.7C138.286 53.6032 137.807 53.1868 136.995 52.5476C136.134 51.8503 132.103 47.5311 131.193 46.4271H131.096V48.2768C131.096 50.0878 131.096 51.5695 131.193 52.3636C131.252 52.9059 131.37 53.3224 131.937 53.3998C132.201 53.4386 132.504 53.4773 132.68 53.4773C132.798 53.4773 132.837 53.5354 132.837 53.5935C132.837 53.6904 132.739 53.7485 132.534 53.7485C131.604 53.7485 130.499 53.6904 130.342 53.6904C130.186 53.6904 129.09 53.7485 128.513 53.7485C128.307 53.7485 128.21 53.7097 128.21 53.5935C128.21 53.5354 128.249 53.4773 128.366 53.4773C128.542 53.4773 128.767 53.4386 128.933 53.3998C129.315 53.3224 129.413 52.9059 129.481 52.3636C129.579 51.5695 129.579 50.0878 129.579 48.2768V44.9647V44.9551Z" fill="black"/>
<path d="M150.085 44.9551C150.085 42.011 150.085 41.4881 150.046 40.8876C150.007 40.2485 149.86 39.9482 149.224 39.8127C149.068 39.7739 148.745 39.7546 148.578 39.7546C148.5 39.7546 148.422 39.7158 148.422 39.6383C148.422 39.5221 148.52 39.4834 148.725 39.4834C149.586 39.4834 150.78 39.5415 150.877 39.5415C151.337 39.5415 152.081 39.4834 152.952 39.4834C156.072 39.4834 156.757 41.3718 156.757 42.3112C156.757 43.8607 155.867 44.7807 154.967 45.7008C156.376 46.1366 158.264 47.473 158.264 49.681C158.264 51.6954 156.669 53.7872 153.411 53.7872C153.206 53.7872 152.59 53.7485 152.042 53.7291C151.494 53.6904 150.956 53.671 150.877 53.671C150.838 53.671 150.515 53.671 150.114 53.6904C149.733 53.6904 149.293 53.7291 149.009 53.7291C148.803 53.7291 148.706 53.6904 148.706 53.5741C148.706 53.516 148.745 53.4579 148.862 53.4579C149.038 53.4579 149.263 53.4192 149.43 53.3805C149.811 53.303 149.909 52.8866 149.977 52.3442C150.075 51.5501 150.075 50.0684 150.075 48.2574V44.9454L150.085 44.9551ZM151.611 45.3715C151.611 45.5071 151.65 45.5458 151.748 45.5749C151.866 45.5942 152.208 45.6523 152.912 45.6523C153.979 45.6523 154.243 45.6136 154.644 45.1584C155.045 44.7033 155.329 44.0254 155.329 43.2603C155.329 41.7011 154.624 40.016 152.756 40.016C152.55 40.016 152.149 40.0354 151.846 40.1129C151.67 40.1516 151.621 40.2097 151.621 40.3163V45.3618L151.611 45.3715ZM151.611 47.3665C151.611 48.8191 151.611 51.1531 151.631 51.4339C151.689 52.3539 151.689 52.6251 152.276 52.9059C152.795 53.148 153.607 53.1868 153.949 53.1868C154.977 53.1868 156.63 52.6444 156.63 50.5139C156.63 49.3808 156.248 47.7442 154.781 46.7467C154.135 46.3109 153.656 46.2528 153.206 46.2043C152.961 46.1656 152.003 46.1656 151.719 46.1656C151.641 46.1656 151.601 46.2043 151.601 46.3012V47.3762L151.611 47.3665Z" fill="black"/>
<path d="M161.61 44.9547C161.61 42.0106 161.61 41.4877 161.571 40.8873C161.531 40.2481 161.385 39.9479 160.749 39.8123C160.592 39.7736 160.269 39.7542 160.103 39.7542C160.025 39.7542 159.947 39.7155 159.947 39.638C159.947 39.5218 160.044 39.483 160.25 39.483C161.111 39.483 162.265 39.5411 162.441 39.5411C162.617 39.5411 163.752 39.483 164.329 39.483C164.535 39.483 164.633 39.5218 164.633 39.638C164.633 39.7155 164.554 39.7542 164.476 39.7542C164.339 39.7542 164.232 39.7736 163.997 39.8123C163.478 39.8898 163.332 40.2287 163.292 40.8873C163.253 41.4877 163.253 42.0203 163.253 44.9547V47.5888C163.253 50.3005 163.86 51.4723 164.682 52.247C165.611 53.1089 166.472 53.2832 167.558 53.2832C168.722 53.2832 169.857 52.7409 170.542 51.9274C171.413 50.8525 171.647 49.2546 171.647 47.308V44.9547C171.647 42.0106 171.647 41.4877 171.608 40.8873C171.569 40.2481 171.422 39.9479 170.786 39.8123C170.63 39.7736 170.307 39.7542 170.141 39.7542C170.062 39.7542 169.984 39.7155 169.984 39.638C169.984 39.5218 170.082 39.483 170.287 39.483C171.148 39.483 172.195 39.5411 172.303 39.5411C172.44 39.5411 173.33 39.483 173.897 39.483C174.103 39.483 174.201 39.5218 174.201 39.638C174.201 39.7155 174.122 39.7542 174.044 39.7542C173.907 39.7542 173.8 39.7736 173.565 39.8123C173.046 39.9285 172.9 40.2287 172.86 40.8873C172.821 41.4877 172.821 42.0203 172.821 44.9547V46.969C172.821 49.0028 172.596 51.2689 171.07 52.6053C169.7 53.8159 168.272 53.9999 167.147 53.9999C166.501 53.9999 164.574 53.9224 163.224 52.6634C162.295 51.7822 161.571 50.4554 161.571 47.7051V44.9547H161.61ZM164.868 37.2266C164.868 36.8876 165.093 36.4131 165.689 36.4131C166.149 36.4131 166.511 36.6939 166.511 37.1685C166.511 37.643 166.188 38.0304 165.67 38.0304C165.102 38.0304 164.868 37.5752 164.868 37.2169V37.2266ZM168.693 37.2266C168.693 36.8876 168.918 36.4131 169.515 36.4131C169.974 36.4131 170.336 36.6939 170.336 37.1685C170.336 37.643 170.013 38.0304 169.495 38.0304C168.928 38.0304 168.693 37.5752 168.693 37.2169V37.2266Z" fill="black"/>
<path d="M177.488 44.9551C177.488 42.011 177.488 41.4881 177.449 40.8876C177.41 40.2485 177.263 39.9482 176.627 39.8127C176.47 39.7739 176.148 39.7546 175.981 39.7546C175.903 39.7546 175.825 39.7158 175.825 39.6383C175.825 39.5221 175.923 39.4834 176.128 39.4834C176.989 39.4834 178.182 39.5415 178.28 39.5415C178.486 39.5415 179.934 39.4834 180.53 39.4834C181.734 39.4834 183.006 39.5996 184.013 40.3163C184.493 40.6552 185.324 41.5752 185.324 42.8826C185.324 44.2772 184.737 45.6717 183.025 47.2309C184.591 49.2065 185.882 50.8819 186.987 52.0537C188.015 53.1287 188.836 53.332 189.306 53.4095C189.668 53.4676 189.932 53.4676 190.05 53.4676C190.147 53.4676 190.226 53.5257 190.226 53.5838C190.226 53.7 190.108 53.7388 189.766 53.7388H188.416C187.349 53.7388 186.87 53.6419 186.381 53.3805C185.559 52.9447 184.894 52.0246 183.808 50.6107C183.006 49.5745 182.115 48.3155 181.734 47.8216C181.656 47.7442 181.597 47.7054 181.489 47.7054L179.151 47.6667C179.053 47.6667 179.014 47.7248 179.014 47.8216V48.2768C179.014 50.0878 179.014 51.5695 179.112 52.3636C179.171 52.9059 179.288 53.3224 179.855 53.3998C180.12 53.4386 180.54 53.4773 180.716 53.4773C180.834 53.4773 180.873 53.5354 180.873 53.5935C180.873 53.6904 180.775 53.7485 180.57 53.7485C179.523 53.7485 178.319 53.6904 178.231 53.6904C178.212 53.6904 177.008 53.7485 176.441 53.7485C176.236 53.7485 176.138 53.7097 176.138 53.5935C176.138 53.5354 176.177 53.4773 176.294 53.4773C176.47 53.4773 176.695 53.4386 176.862 53.3998C177.243 53.3224 177.341 52.9059 177.41 52.3636C177.507 51.5695 177.507 50.0878 177.507 48.2768V44.9647L177.488 44.9551ZM179.014 46.5917C179.014 46.6886 179.053 46.766 179.151 46.8145C179.435 46.9888 180.315 47.1147 181.147 47.1147C181.607 47.1147 182.135 47.0566 182.575 46.7564C183.24 46.3012 183.739 45.2843 183.739 43.851C183.739 41.4977 182.487 40.0838 180.442 40.0838C179.875 40.0838 179.356 40.1419 179.171 40.2C179.073 40.2388 179.014 40.3163 179.014 40.4228V46.582V46.5917Z" fill="black"/>
<path d="M196.859 39.2217C201.144 39.2217 204.343 41.8946 204.343 46.2913C204.343 50.688 201.339 54 196.751 54C191.537 54 189.365 49.9907 189.365 46.5915C189.365 43.5409 191.615 39.2217 196.868 39.2217H196.859ZM197.26 53.2737C198.972 53.2737 202.513 52.2956 202.513 46.8142C202.513 42.2916 199.735 39.8608 196.732 39.8608C193.552 39.8608 191.175 41.9333 191.175 46.0588C191.175 50.4459 193.836 53.2737 197.27 53.2737H197.26Z" fill="black"/>
<path d="M206.847 53.4867C206.583 53.3512 206.564 53.2834 206.564 52.7701C206.564 51.8307 206.642 51.0753 206.662 50.7751C206.681 50.5718 206.72 50.4749 206.818 50.4749C206.935 50.4749 206.955 50.533 206.955 50.6783C206.955 50.8526 206.955 51.1141 207.014 51.3756C207.297 52.7701 208.56 53.2931 209.831 53.2931C211.661 53.2931 212.551 51.9954 212.551 50.7848C212.551 49.4871 212.003 48.7317 210.36 47.3953L209.499 46.698C207.483 45.0614 207.024 43.8895 207.024 42.6112C207.024 40.5969 208.55 39.2217 210.966 39.2217C211.71 39.2217 212.258 39.2992 212.737 39.4057C213.099 39.4832 213.255 39.5025 213.402 39.5025C213.549 39.5025 213.588 39.5413 213.588 39.6381C213.588 39.735 213.51 40.3548 213.51 41.6331C213.51 41.9333 213.471 42.0689 213.373 42.0689C213.255 42.0689 213.236 41.972 213.216 41.8268C213.197 41.604 213.079 41.0908 212.972 40.8874C212.864 40.684 212.346 39.8899 210.594 39.8899C209.283 39.8899 208.256 40.7034 208.256 42.0786C208.256 43.1535 208.755 43.8314 210.575 45.2454L211.103 45.6618C213.353 47.4147 213.882 48.5865 213.882 50.0875C213.882 50.8623 213.578 52.2956 212.267 53.2156C211.446 53.7773 210.418 54.0097 209.391 54.0097C208.501 54.0097 207.62 53.8741 206.838 53.4964L206.847 53.4867Z" fill="black"/>
<path d="M218.118 44.9551C218.118 42.011 218.118 41.4881 218.079 40.8876C218.039 40.2485 217.893 39.9482 217.257 39.8127C217.1 39.7739 216.777 39.7546 216.611 39.7546C216.533 39.7546 216.455 39.7158 216.455 39.6383C216.455 39.5221 216.552 39.4834 216.758 39.4834C217.619 39.4834 218.773 39.5415 218.949 39.5415C219.125 39.5415 220.26 39.4834 220.837 39.4834C221.043 39.4834 221.141 39.5221 221.141 39.6383C221.141 39.7158 221.063 39.7546 220.984 39.7546C220.847 39.7546 220.74 39.7739 220.505 39.8127C219.986 39.8901 219.84 40.2291 219.8 40.8876C219.761 41.4881 219.761 42.0207 219.761 44.9551V47.5892C219.761 50.3008 220.368 51.4726 221.19 52.2474C222.119 53.1093 222.98 53.2836 224.066 53.2836C225.23 53.2836 226.365 52.7413 227.05 51.9278C227.921 50.8528 228.155 49.2549 228.155 47.3084V44.9551C228.155 42.011 228.155 41.4881 228.116 40.8876C228.077 40.2485 227.93 39.9482 227.294 39.8127C227.138 39.7739 226.815 39.7546 226.649 39.7546C226.57 39.7546 226.492 39.7158 226.492 39.6383C226.492 39.5221 226.59 39.4834 226.795 39.4834C227.656 39.4834 228.703 39.5415 228.811 39.5415C228.948 39.5415 229.838 39.4834 230.406 39.4834C230.611 39.4834 230.709 39.5221 230.709 39.6383C230.709 39.7158 230.631 39.7546 230.552 39.7546C230.415 39.7546 230.308 39.7739 230.073 39.8127C229.554 39.9289 229.408 40.2291 229.368 40.8876C229.329 41.4881 229.329 42.0207 229.329 44.9551V46.9694C229.329 49.0031 229.104 51.2693 227.578 52.6057C226.208 53.8163 224.78 54.0003 223.655 54.0003C223.009 54.0003 221.082 53.9228 219.732 52.6638C218.803 51.7825 218.079 50.4558 218.079 47.7054V44.9551H218.118Z" fill="black"/>
</g>
<defs>
<clipPath id="clip0_243_2667">
<rect width="297" height="54" fill="white"/>
</clipPath>
</defs>
</svg>
