<svg width="230" height="157" viewBox="0 0 230 157" fill="none" xmlns="http://www.w3.org/2000/svg">
<g clip-path="url(#clip0_431_2535)">
<path d="M60.7498 25.116C57.2356 26.1269 51.9809 30.7424 47.3674 38.1006C41.6963 47.1492 38.3319 47.9447 30.3125 43.4867C22.293 39.0287 12.8745 42.02 6.05416 53.8942C-0.76614 65.7685 11.184 74.9994 22.2513 89.4672C33.3187 103.935 11.2173 100.19 4.05554 117.085C-3.1062 133.981 6.99518 152.94 40.2223 152.708C73.4911 152.484 123.79 152.915 123.79 152.915C123.79 152.915 170.433 156.909 187.421 146.593C204.409 136.268 183.515 131.255 199.313 124.651C215.11 118.055 231.599 117.607 224.695 100.546C217.783 83.4928 208.015 87.0227 201.703 82.457C195.391 77.8996 191.601 72.9444 200.62 64.8321C209.639 56.7116 216.551 51.2426 211.987 40.4953C205.442 25.0663 189.57 23.0776 172.123 29.6155C154.677 36.1533 151.721 44.5307 122.924 39.6833C106.868 36.9819 90.6792 16.4651 60.7498 25.1077V25.116Z" fill="url(#paint0_linear_431_2535)"/>
<path d="M119.48 17.619C120.671 13.7078 118.449 9.57674 114.518 8.39214C110.588 7.20753 106.436 9.41793 105.245 13.3292C104.055 17.2404 106.276 21.3714 110.207 22.556C114.138 23.7406 118.289 21.5303 119.48 17.619Z" fill="url(#paint1_linear_431_2535)"/>
<path d="M110.159 12.6777H108.951C108.758 12.6777 108.602 12.8335 108.602 13.0258V18.5278C108.602 18.7201 108.758 18.8759 108.951 18.8759H110.159C110.352 18.8759 110.509 18.7201 110.509 18.5278V13.0258C110.509 12.8335 110.352 12.6777 110.159 12.6777Z" fill="#C0CFEB"/>
<path d="M114.814 12.6781H113.556V11.1949C113.556 10.7143 113.306 10.3994 112.823 10.3994H112.79C112.307 10.3994 111.916 10.7474 111.916 11.228L111.499 12.703C111.308 12.703 111.008 12.8356 111.008 13.0262V18.6857C111.008 18.8763 111.458 19.1249 111.649 19.1249H114.805C115.521 19.1249 116.096 18.4537 116.096 17.7328V13.9708C116.096 13.2582 115.521 12.6616 114.805 12.6616L114.814 12.6781Z" fill="#C0CFEB"/>
<path d="M36.1114 45.4886C36.7179 42.932 35.1266 40.3703 32.5573 39.7669C29.9879 39.1635 27.4134 40.7469 26.807 43.3035C26.2006 45.8601 27.7919 48.4218 30.3612 49.0252C32.9306 49.6286 35.505 48.0452 36.1114 45.4886Z" fill="url(#paint2_linear_431_2535)"/>
<path d="M30.0462 42.5996H29.2717C29.1475 42.5996 29.0469 42.6998 29.0469 42.8233V46.3616C29.0469 46.4851 29.1475 46.5853 29.2717 46.5853H30.0462C30.1704 46.5853 30.271 46.4851 30.271 46.3616V42.8233C30.271 42.6998 30.1704 42.5996 30.0462 42.5996Z" fill="#C0CFEB"/>
<path d="M33.0435 42.5995H32.2357V41.6466C32.2357 41.34 32.0692 41.1328 31.7611 41.1328H31.7444C31.4363 41.1328 31.1864 41.3565 31.1864 41.6631L30.92 42.6161C30.7951 42.6161 30.6035 42.7072 30.6035 42.8232V46.4609C30.6035 46.5852 30.8867 46.7426 31.0116 46.7426H33.0435C33.5098 46.7426 33.8763 46.3117 33.8763 45.8477V43.4281C33.8763 42.9641 33.5098 42.5912 33.0435 42.5912V42.5995Z" fill="#C0CFEB"/>
<path d="M138.779 10.265C139.386 7.7084 137.795 5.14671 135.225 4.5433C132.656 3.93989 130.081 5.52325 129.475 8.07985C128.869 10.6364 130.46 13.1981 133.029 13.8016C135.599 14.405 138.173 12.8216 138.779 10.265Z" fill="url(#paint3_linear_431_2535)"/>
<path d="M132.716 7.38281H131.942C131.817 7.38281 131.717 7.48298 131.717 7.60654V11.1448C131.717 11.2683 131.817 11.3685 131.942 11.3685H132.716C132.84 11.3685 132.941 11.2683 132.941 11.1448V7.60654C132.941 7.48298 132.84 7.38281 132.716 7.38281Z" fill="#C0CFEB"/>
<path d="M135.713 7.38269H134.906V6.42976C134.906 6.12317 134.739 5.91602 134.431 5.91602H134.414C134.106 5.91602 133.856 6.13975 133.856 6.44634L133.59 7.39926C133.465 7.39926 133.273 7.49041 133.273 7.60642V11.2441C133.273 11.3684 133.557 11.5258 133.681 11.5258H135.713C136.18 11.5258 136.546 11.0949 136.546 10.6309V8.21131C136.546 7.74728 136.18 7.3744 135.713 7.3744V7.38269Z" fill="#C0CFEB"/>
<path d="M205.667 44.9443C206.509 42.4546 205.163 39.7573 202.66 38.9199C200.158 38.0825 197.447 39.422 196.606 41.9118C195.764 44.4015 197.11 47.0988 199.613 47.9362C202.115 48.7736 204.826 47.4341 205.667 44.9443Z" fill="url(#paint4_linear_431_2535)"/>
<path d="M199.712 41.6299H198.938C198.814 41.6299 198.713 41.73 198.713 41.8536V45.3918C198.713 45.5154 198.814 45.6156 198.938 45.6156H199.712C199.836 45.6156 199.937 45.5154 199.937 45.3918V41.8536C199.937 41.73 199.836 41.6299 199.712 41.6299Z" fill="#C0CFEB"/>
<path d="M202.71 41.6298H201.902V40.6768C201.902 40.3702 201.735 40.1631 201.427 40.1631H201.41C201.102 40.1631 200.852 40.3868 200.852 40.6934L200.586 41.6463C200.461 41.6463 200.27 41.7375 200.27 41.8535V45.4912C200.27 45.6155 200.553 45.7729 200.678 45.7729H202.71C203.176 45.7729 203.542 45.342 203.542 44.878V42.4584C203.542 41.9944 203.176 41.6215 202.71 41.6215V41.6298Z" fill="#C0CFEB"/>
<path d="M97.0646 8.01793C97.671 5.46133 96.0797 2.89963 93.5104 2.29622C90.941 1.69281 88.3666 3.27618 87.7601 5.83278C87.1537 8.38938 88.745 10.9511 91.3143 11.5545C93.8837 12.1579 96.4582 10.5745 97.0646 8.01793Z" fill="url(#paint5_linear_431_2535)"/>
<path d="M91.0052 5.1377H90.2307C90.1065 5.1377 90.0059 5.23786 90.0059 5.36142V8.89966C90.0059 9.02323 90.1065 9.12339 90.2307 9.12339H91.0052C91.1293 9.12339 91.23 9.02323 91.23 8.89966V5.36142C91.23 5.23786 91.1293 5.1377 91.0052 5.1377Z" fill="#C0CFEB"/>
<path d="M93.9947 5.13757H93.1869V4.18465C93.1869 3.87806 93.0203 3.6709 92.7122 3.6709H92.6956C92.3874 3.6709 92.1376 3.89463 92.1376 4.20122L91.8711 5.15414C91.7462 5.15414 91.5547 5.24529 91.5547 5.3613V8.99897C91.5547 9.12327 91.8378 9.2807 91.9627 9.2807H93.9947C94.461 9.2807 94.8274 8.84982 94.8274 8.38579V5.9662C94.8274 5.50216 94.461 5.12928 93.9947 5.12928V5.13757Z" fill="#C0CFEB"/>
<path d="M71.0603 10.6107C71.8252 7.38601 69.8181 4.15488 66.5773 3.39378C63.3366 2.63268 60.0893 4.62983 59.3244 7.85453C58.5595 11.0792 60.5666 14.3104 63.8074 15.0714C67.0482 15.8325 70.2954 13.8354 71.0603 10.6107Z" fill="url(#paint6_linear_431_2535)"/>
<path d="M67.779 7.5569C67.1211 6.91886 66.1052 7.10945 65.4057 7.69777C65.3057 7.78063 65.1558 7.78063 65.0559 7.69777C64.3481 7.12602 63.3238 6.95201 62.6825 7.59834C61.983 8.30267 61.9913 9.43789 62.7075 10.1339L65.0809 12.4624C65.1891 12.5701 65.364 12.5701 65.4723 12.4624L67.8123 10.1008C68.5118 9.39646 68.5035 8.26124 67.7873 7.56519L67.779 7.5569Z" fill="#C0CFEB"/>
<path d="M203.93 28.7093C204.604 25.4646 202.507 22.2905 199.246 21.6197C195.985 20.949 192.795 23.0355 192.121 26.2802C191.447 29.5249 193.544 32.699 196.805 33.3698C200.066 34.0406 203.256 31.954 203.93 28.7093Z" fill="url(#paint7_linear_431_2535)"/>
<path d="M200.619 25.8196C199.961 25.1816 198.945 25.3721 198.245 25.9605C198.146 26.0433 197.996 26.0433 197.896 25.9605C197.188 25.3887 196.164 25.2147 195.522 25.861C194.823 26.5654 194.831 27.7006 195.547 28.3966L197.921 30.7251C198.029 30.8328 198.204 30.8328 198.312 30.7251L200.652 28.3635C201.352 27.6592 201.343 26.5239 200.627 25.8279L200.619 25.8196Z" fill="#C0CFEB"/>
<path d="M30.3452 30.5764C30.9316 28.1044 29.393 25.6275 26.9087 25.0441C24.4244 24.4606 21.9351 25.9916 21.3488 28.4635C20.7624 30.9355 22.301 33.4124 24.7853 33.9959C27.2696 34.5793 29.7589 33.0483 30.3452 30.5764Z" fill="url(#paint8_linear_431_2535)"/>
<path d="M27.8315 28.2393C27.3318 27.7504 26.549 27.8996 26.0077 28.347C25.9328 28.4133 25.8162 28.4133 25.7412 28.347C25.1916 27.9079 24.4172 27.7753 23.9258 28.2725C23.3929 28.8111 23.4012 29.6811 23.9425 30.2197L25.7662 32.0013C25.8495 32.0841 25.9827 32.0841 26.066 32.0013L27.8565 30.1866C28.3894 29.648 28.3811 28.7779 27.8398 28.2393H27.8315Z" fill="#C0CFEB"/>
<path d="M181.365 19.745C181.967 17.2766 180.444 14.7904 177.963 14.1919C175.482 13.5933 172.984 15.1091 172.382 17.5775C171.781 20.0459 173.304 22.5321 175.785 23.1306C178.265 23.7291 180.764 22.2133 181.365 19.745Z" fill="url(#paint9_linear_431_2535)"/>
<path d="M178.851 17.3848C178.351 16.8959 177.569 17.0451 177.027 17.4925C176.952 17.5588 176.836 17.5588 176.761 17.4925C176.211 17.0534 175.437 16.9208 174.945 17.418C174.412 17.9566 174.421 18.8266 174.962 19.3652L176.786 21.1468C176.869 21.2297 177.002 21.2297 177.086 21.1468L178.876 19.3321C179.409 18.7935 179.401 17.9234 178.859 17.3848H178.851Z" fill="#C0CFEB"/>
<path d="M168.244 9.02188C169.149 5.03563 166.635 1.07411 162.629 0.173572C158.623 -0.726962 154.641 1.7745 153.736 5.76076C152.831 9.74701 155.345 13.7085 159.351 14.6091C163.358 15.5096 167.339 13.0081 168.244 9.02188Z" fill="url(#paint10_linear_431_2535)"/>
<path d="M163.08 4.97997C163.08 6.12348 162.147 7.35813 160.998 7.35813C159.849 7.35813 158.916 6.12348 158.916 4.97997C158.916 3.83647 159.849 3.02441 160.998 3.02441C162.147 3.02441 163.08 3.83647 163.08 4.97997Z" fill="#C0CFEB"/>
<path d="M158.417 11.766H163.497C164.03 11.766 164.504 11.418 164.671 10.9126L164.946 10.0591C165.146 9.4376 164.821 8.75813 164.205 8.5344C162.139 7.78035 159.999 7.87978 157.809 8.60069C157.193 8.80785 156.851 9.45418 157.026 10.0756L157.234 10.8463C157.376 11.3766 157.867 11.7495 158.425 11.7495L158.417 11.766Z" fill="#C0CFEB"/>
<path d="M184.126 37.4186C184.911 34.1752 182.905 30.9127 179.645 30.1316C176.385 29.3505 173.107 31.3466 172.322 34.5901C171.537 37.8336 173.543 41.0961 176.802 41.8772C180.062 42.6582 183.341 40.6621 184.126 37.4186Z" fill="url(#paint11_linear_431_2535)"/>
<path d="M179.919 34.0319C179.919 34.9682 179.161 35.9791 178.22 35.9791C177.279 35.9791 176.521 34.9682 176.521 34.0319C176.521 33.0955 177.279 32.4326 178.22 32.4326C179.161 32.4326 179.919 33.0955 179.919 34.0319Z" fill="#C0CFEB"/>
<path d="M176.105 39.5757H180.261C180.702 39.5757 181.085 39.294 181.218 38.8797L181.443 38.1836C181.61 37.6782 181.343 37.123 180.835 36.9407C179.145 36.3275 177.396 36.4021 175.605 36.9987C175.106 37.1644 174.823 37.6947 174.964 38.2085L175.139 38.8382C175.256 39.2774 175.655 39.5757 176.113 39.5757H176.105Z" fill="#C0CFEB"/>
<path d="M50.3057 20.7157C51.3176 17.3914 49.4295 13.8802 46.0886 12.8734C42.7477 11.8666 39.219 13.7453 38.2071 17.0696C37.1953 20.394 39.0834 23.9051 42.4243 24.9119C45.7652 25.9188 49.2938 24.0401 50.3057 20.7157Z" fill="url(#paint12_linear_431_2535)"/>
<path d="M46.0339 16.8374C46.0339 17.8069 45.2428 18.8593 44.2601 18.8593C43.2775 18.8593 42.4863 17.8069 42.4863 16.8374C42.4863 15.8679 43.2775 15.1719 44.2601 15.1719C45.2428 15.1719 46.0339 15.8596 46.0339 16.8374Z" fill="#C0CFEB"/>
<path d="M42.0626 22.6049H46.3846C46.8426 22.6049 47.2423 22.3149 47.3839 21.884L47.6171 21.1631C47.7836 20.6327 47.5088 20.061 46.9842 19.8704C45.227 19.2324 43.4033 19.3152 41.5462 19.9284C41.0216 20.1024 40.7385 20.6576 40.88 21.1879L41.0632 21.8425C41.1882 22.2983 41.6045 22.6132 42.0709 22.6132L42.0626 22.6049Z" fill="#C0CFEB"/>
<path d="M50.5849 36.7798C51.1058 34.584 49.739 32.3838 47.5323 31.8655C45.3255 31.3473 43.1143 32.7072 42.5935 34.903C42.0726 37.0988 43.4393 39.299 45.6461 39.8173C47.8529 40.3356 50.0641 38.9756 50.5849 36.7798Z" fill="url(#paint13_linear_431_2535)"/>
<path d="M47.7515 34.5123C47.7515 35.142 47.2352 35.8298 46.6023 35.8298C45.9694 35.8298 45.4531 35.1503 45.4531 34.5123C45.4531 33.8742 45.9694 33.4268 46.6023 33.4268C47.2352 33.4268 47.7515 33.8742 47.7515 34.5123Z" fill="#C0CFEB"/>
<path d="M45.169 38.2662H47.9754C48.2752 38.2662 48.5334 38.0756 48.625 37.7939L48.7749 37.3215C48.8831 36.9735 48.7083 36.6006 48.3668 36.4763C47.226 36.062 46.0434 36.1117 44.8276 36.5178C44.4862 36.6338 44.303 36.9901 44.3946 37.3381L44.5112 37.769C44.5944 38.0673 44.8609 38.2662 45.169 38.2662Z" fill="#C0CFEB"/>
<path d="M119.023 34.3844C119.54 32.2019 118.182 30.0151 115.989 29.5C113.795 28.9849 111.598 30.3365 111.08 32.519C110.562 34.7015 111.921 36.8883 114.114 37.4034C116.307 37.9185 118.505 36.5668 119.023 34.3844Z" fill="url(#paint14_linear_431_2535)"/>
<path d="M116.204 32.1344C116.204 32.7641 115.696 33.4436 115.063 33.4436C114.43 33.4436 113.922 32.7641 113.922 32.1344C113.922 31.5046 114.43 31.0654 115.063 31.0654C115.696 31.0654 116.204 31.5129 116.204 32.1344Z" fill="#C0CFEB"/>
<path d="M113.646 35.8546H116.436C116.728 35.8546 116.986 35.664 117.077 35.3906L117.227 34.9265C117.336 34.5868 117.161 34.2139 116.819 34.0896C115.687 33.6753 114.513 33.7333 113.313 34.1311C112.98 34.2388 112.789 34.6034 112.88 34.9431L112.997 35.3657C113.08 35.6557 113.347 35.8629 113.646 35.8629V35.8546Z" fill="#C0CFEB"/>
<path d="M192.076 113.29C191.285 111.641 190.71 109.918 190.577 108.045C190.244 103.313 193.009 98.9631 195.032 94.8862C196.898 91.1408 198.288 85.5642 191.993 86.0614C186.979 86.4591 181.083 91.4309 180.409 96.6181C179.609 102.758 182.616 110.498 179.052 116.074C174.072 123.872 170.482 122.09 170.482 135.249C170.482 140.875 173.614 143.974 177.203 145.681C182.866 148.374 189.611 147.289 194.116 142.947C198.097 139.11 200.47 133.6 199.671 128.056C198.863 122.463 194.458 118.22 192.076 113.29Z" fill="#98B1DC"/>
<path d="M187.862 155.707C187.737 155.707 187.621 155.624 187.587 155.5C184.464 143.104 182.766 131.859 182.541 122.09C182.357 114.259 183.107 107.357 184.781 101.557C186.271 96.3859 188.237 93.0631 189.619 91.1904C191.126 89.1437 192.284 88.3399 192.326 88.3068C192.451 88.2156 192.625 88.2488 192.717 88.3731C192.809 88.4974 192.775 88.6714 192.65 88.7625C192.65 88.7625 191.501 89.5663 190.036 91.5633C188.678 93.4028 186.763 96.6759 185.297 101.78C183.657 107.523 182.915 114.375 183.099 122.14C183.332 131.851 185.022 143.029 188.128 155.359C188.162 155.508 188.079 155.658 187.929 155.699C187.904 155.699 187.887 155.707 187.862 155.707Z" fill="url(#paint15_linear_431_2535)"/>
<path d="M209.855 135.323C210.496 131.114 208.964 126.291 208.189 121.841C207.781 119.488 207.598 117.151 207.973 114.79C208.348 112.436 209.464 109.884 208.439 107.539C206.374 102.808 201.461 104.962 198.646 108.525C195.382 112.66 194.49 119.405 193.25 124.601C192.5 127.733 191.376 130.948 190.985 134.138C190.335 139.425 191.534 143.104 194.074 145.581C196.514 147.96 200.228 148.457 203.209 146.799C205.908 145.308 208.822 142.109 209.855 135.323Z" fill="#C0CFEB"/>
<path d="M198.613 154.953C198.48 154.953 198.364 154.854 198.339 154.721C198.33 154.655 197.256 148.233 197.231 139.375C197.206 131.188 198.089 119.19 202.436 108.492C202.494 108.351 202.652 108.285 202.802 108.335C202.944 108.393 203.01 108.55 202.96 108.699C200.579 114.558 197.747 124.634 197.797 139.375C197.822 148.192 198.888 154.572 198.896 154.63C198.921 154.779 198.822 154.928 198.663 154.953C198.647 154.953 198.63 154.953 198.613 154.953Z" fill="url(#paint16_linear_431_2535)"/>
<path d="M25.4247 76.3332C24.1589 76.9464 22.9347 77.8579 22.56 78.7942C20.8695 83.0202 25.3164 87.9257 27.1235 91.3479C30.2297 97.2146 32.0202 103.835 31.5122 110.498C30.9709 117.715 31.0292 124.733 32.9778 131.777C33.9771 135.406 35.6343 139.176 38.4741 141.786C43.8454 146.717 54.9044 142.002 56.1785 135.431C57.1945 130.186 55.6955 124.858 53.6636 120.052C50.241 111.972 45.5442 104.507 42.0716 96.444C39.4151 90.279 38.2242 77.427 30.2214 75.7034C28.7557 75.3886 26.7821 75.7034 25.433 76.3415L25.4247 76.3332Z" fill="#98B1DC"/>
<path d="M48.1434 153.703C48.1434 153.703 48.1434 153.703 48.135 153.703C47.9935 153.694 47.8852 153.57 47.8935 153.421C48.6514 143.527 48.0101 133.451 45.9865 123.466C44.3626 115.478 41.856 107.54 38.5333 99.8583C32.8789 86.7909 26.7414 78.9272 26.6831 78.8443C26.5915 78.7283 26.6165 78.5626 26.7248 78.4797C26.8414 78.3886 27.0079 78.4135 27.0912 78.5212C27.1495 78.5958 33.3286 86.5174 39.008 99.6429C42.3474 107.357 44.8623 115.329 46.4945 123.35C48.5348 133.376 49.176 143.502 48.4099 153.446C48.4015 153.587 48.2766 153.694 48.135 153.686L48.1434 153.703Z" fill="url(#paint17_linear_431_2535)"/>
<path d="M39.9145 128.603C38.3739 123.921 34.2517 119.737 31.1205 115.536C29.4717 113.315 28.0477 111.003 27.1982 108.36C26.3488 105.733 26.1656 102.518 23.8755 100.629C19.262 96.8169 15.3148 101.59 14.2738 106.736C13.0663 112.702 15.6895 120.134 17.1302 126.15C18.0046 129.78 18.5209 133.682 19.795 137.188C21.8936 142.988 25.0664 146.162 28.9887 147.405C32.7528 148.598 36.8499 147.173 39.0651 143.916C41.0637 140.974 42.3961 136.16 39.9062 128.611L39.9145 128.603Z" fill="#C0CFEB"/>
<path d="M38.4569 154.788C38.3486 154.788 38.2404 154.738 38.1737 154.647C38.1321 154.589 33.6519 148.507 28.9717 139.367C24.6497 130.923 19.2618 118.071 18.1459 104.755C18.1292 104.564 18.2708 104.39 18.4623 104.382C18.6538 104.366 18.8287 104.506 18.8371 104.697C20.9689 129.97 38.5568 154 38.7317 154.241C38.8483 154.398 38.815 154.614 38.6567 154.73C38.5901 154.779 38.5235 154.796 38.4485 154.796L38.4569 154.788Z" fill="url(#paint18_linear_431_2535)"/>
<path d="M159.281 108.915C159.315 122.936 155.384 133.824 147.423 141.538C139.453 149.253 128.003 153.131 112.98 153.164C98.2982 153.197 87.006 149.485 79.1031 142.027C71.2085 134.57 67.2362 123.789 67.2029 109.769L67.1113 64.998H96.3912L96.4828 107.44C96.4994 115.014 97.9235 120.533 100.78 123.947C103.636 127.361 107.825 129.076 113.371 129.059C119.317 129.051 123.614 127.344 126.279 123.938C128.944 120.541 130.26 114.939 130.243 107.217L130.151 64.998H159.19L159.281 108.915Z" fill="url(#paint19_linear_431_2535)"/>
<path d="M159.283 108.526C159.316 121.941 155.385 132.357 147.424 139.732C139.463 147.106 128.004 150.827 112.981 150.86C98.2996 150.893 87.0074 147.347 79.1045 140.212C71.2099 133.078 67.2377 122.77 67.2127 109.354L67.1211 65.1387H96.4009L96.4925 107.125C96.5092 114.367 97.9249 119.646 100.781 122.911C103.638 126.175 107.826 127.816 113.373 127.799C119.318 127.791 123.616 126.159 126.28 122.902C128.945 119.654 130.261 114.293 130.244 106.91L130.153 65.1387H159.191L159.283 108.534V108.526Z" fill="url(#paint20_linear_431_2535)"/>
<path d="M95.5007 44.5806L67.9281 44.6386C67.4534 44.6386 67.0703 44.97 67.0703 45.4423L67.1119 66.0171L96.3918 65.9508L96.3502 45.376C96.3502 44.9037 95.9837 44.5723 95.5091 44.5723L95.5007 44.5806Z" fill="white"/>
<path d="M158.34 44.4482L130.926 44.5062C130.451 44.5062 130.102 44.8377 130.102 45.31L130.143 65.8848L159.182 65.8268L159.14 45.252C159.14 44.7797 158.815 44.4482 158.34 44.4482Z" fill="white"/>
<g style="mix-blend-mode:soft-light">
<path d="M71.2264 111.591C71.0016 111.591 70.7518 111.409 70.7518 111.185L70.6602 69.9861C70.6602 69.7624 70.9017 69.5801 71.1348 69.5801C71.368 69.5801 71.6095 69.7624 71.6095 69.9861L71.7011 111.185C71.7011 111.409 71.4596 111.591 71.2264 111.591Z" fill="white"/>
</g>
<g style="mix-blend-mode:soft-light">
<path d="M140.261 142.235C140.103 142.235 139.944 142.144 139.886 141.986C139.803 141.779 139.894 141.539 140.103 141.456C149.479 137.553 153.343 127.079 154.926 118.983C156.658 110.15 156.133 102.162 156.133 102.079C156.117 101.856 156.291 101.657 156.516 101.649C156.741 101.632 156.941 101.806 156.949 102.03C156.949 102.113 157.482 110.208 155.733 119.141C154.701 124.403 153.094 128.927 150.953 132.581C148.264 137.18 144.716 140.42 140.419 142.21C140.369 142.235 140.311 142.243 140.261 142.243V142.235Z" fill="white"/>
</g>
<path d="M83.202 15.7441L77.3477 27.1378H81.7946L80.279 35.7058L89.3644 24.3453L83.3602 23.8481L83.202 15.7441Z" fill="#98B1DC"/>
<path d="M100.44 22.3818L92.5035 29.1351L95.8512 30.5024L92.0371 36.5016L102.405 30.751L98.0413 28.5303L100.44 22.3818Z" fill="#98B1DC"/>
<path d="M61.9492 23.4834L63.9645 33.6838L66.8042 31.4548L70.1769 37.7026L70.2435 25.8947L66.1547 28.5877L61.9492 23.4834Z" fill="#98B1DC"/>
<path d="M146.1 15.7441L140.246 27.1378H144.693L143.169 35.7058L152.263 24.3453L146.259 23.8481L146.1 15.7441Z" fill="#98B1DC"/>
<path d="M162.455 22.4893L154.519 29.2509L157.867 30.6181L154.053 36.6091L164.421 30.8584L160.057 28.6377L162.455 22.4893Z" fill="#98B1DC"/>
<path d="M124.848 23.4834L126.863 33.6838L129.703 31.4548L133.075 37.7026L133.142 25.8947L129.053 28.5877L124.848 23.4834Z" fill="#98B1DC"/>
<path d="M56.1439 55.6006H37.0071C35.2833 55.6006 33.8926 56.9927 33.8926 58.6997V63.5886C33.8926 65.3038 35.2916 66.6876 37.0071 66.6876H42.9197C43.0696 66.6876 43.2028 66.7705 43.2611 66.9113L45.7094 72.3223C45.7594 72.4383 45.876 72.5129 46.0092 72.5212C46.1341 72.5212 46.2591 72.4549 46.3174 72.3471L49.257 66.8948C49.3236 66.7705 49.4485 66.6959 49.5901 66.6959H56.1523C57.8761 66.6959 59.2668 65.3038 59.2668 63.5968V58.7079C59.2668 56.9927 57.8677 55.6089 56.1523 55.6089L56.1439 55.6006Z" fill="url(#paint21_linear_431_2535)"/>
<path d="M44.6693 59.0724H44.6526L43.5451 59.6276L43.3535 58.7658L44.8192 58.0449H45.7768V64.0525H44.6693V59.0641V59.0724Z" fill="white"/>
<path d="M47.8594 64.0611V63.365L48.5755 62.7104C49.9996 61.4012 50.6658 60.672 50.6741 59.8765C50.6741 59.3379 50.3826 58.8656 49.5998 58.8656C49.0669 58.8656 48.6172 59.1307 48.3091 59.3627L47.976 58.559C48.409 58.2109 49.0752 57.9375 49.833 57.9375C51.1738 57.9375 51.8233 58.7827 51.8233 59.7605C51.8233 60.8128 51.0572 61.6663 50.0079 62.6358L49.4749 63.0916V63.1081H51.9566V64.0528H47.8594V64.0611Z" fill="white"/>
<path d="M56.6779 58.9901H54.3545L54.1797 60.1916C54.3212 60.175 54.4378 60.1667 54.6127 60.1667C55.1457 60.1667 55.6703 60.291 56.0784 60.5562C56.5364 60.8462 56.8695 61.3516 56.8695 62.0808C56.8695 63.2243 55.9118 64.1607 54.4212 64.1607C53.7216 64.1607 53.1387 63.9867 52.8223 63.8127L53.0554 62.9509C53.3136 63.0918 53.8382 63.2658 54.3879 63.2658C55.0541 63.2658 55.6953 62.8846 55.6953 62.1637C55.6953 61.4759 55.1873 61.0285 53.9798 61.0285C53.6467 61.0285 53.3969 61.0451 53.1554 61.0865L53.5551 58.0537H56.6779V58.9983V58.9901Z" fill="white"/>
<path d="M40.2876 59.213C40.2876 60.0084 39.6464 60.8619 38.8469 60.8619C38.0475 60.8619 37.4062 60.0084 37.4062 59.213C37.4062 58.4175 38.0475 57.8623 38.8469 57.8623C39.6464 57.8623 40.2876 58.4258 40.2876 59.213Z" fill="white"/>
<path d="M37.0565 63.9032H40.5707C40.9371 63.9032 41.2702 63.6629 41.3785 63.3149L41.57 62.7265C41.7116 62.2956 41.4868 61.8316 41.0537 61.6742C39.6214 61.1521 38.1474 61.2184 36.6318 61.7239C36.2071 61.8648 35.9739 62.3122 36.0905 62.7431L36.232 63.2734C36.332 63.6463 36.6651 63.8949 37.0565 63.8949V63.9032Z" fill="white"/>
<path d="M56.4187 84.4121C56.4187 84.4121 52.8295 87.7929 51.647 93.817C50.4645 99.8329 47.6498 85.3153 47.6498 85.3153H44.8017C44.8017 85.3153 43.7275 100.28 51.7636 101.465C53.2959 101.689 54.8281 101.092 55.7858 99.8826C57.2515 98.0265 59.5416 94.7285 60.0912 91.588C59.6165 86.6328 56.4187 84.4204 56.4187 84.4204V84.4121Z" fill="url(#paint22_linear_431_2535)"/>
<path d="M74.6396 153.693C74.6396 153.652 74.6396 153.602 74.6229 153.561C73.9484 150.909 71.2003 149.542 71.2003 149.542L69.8762 149.641C69.1184 151.978 68.6271 153.122 68.7436 153.76C68.7436 153.776 68.752 153.793 68.7603 153.809C69.8512 153.909 72.0997 153.967 74.6396 153.685V153.693Z" fill="url(#paint23_linear_431_2535)"/>
<path d="M68.7603 153.826C68.8186 154.041 68.9768 154.207 69.1767 154.249C70.7256 154.572 73.1989 154.315 74.2315 154.174C74.4564 154.141 74.6312 153.934 74.6312 153.693C72.0913 153.983 69.8429 153.917 68.752 153.818L68.7603 153.826Z" fill="url(#paint24_linear_431_2535)"/>
<path d="M72.2903 147.495L71.7074 150.271C71.6657 150.478 71.5075 150.627 71.316 150.644C71.0828 150.669 70.7497 150.677 70.4166 150.627C70.1168 150.586 69.9086 150.279 69.9586 149.956L70.3583 147.495H72.2737H72.2903Z" fill="url(#paint25_linear_431_2535)"/>
<path d="M57.5178 153.802C58.9335 153.76 59.6663 153.594 60.0411 153.445C60.0411 153.586 60.0411 153.727 60.0411 153.876C60.0411 154.034 59.9162 154.158 59.7746 154.158L52.0133 154.108C51.7634 154.108 51.6219 153.818 51.7301 153.594C52.7461 153.677 55.336 153.868 57.5261 153.802H57.5178Z" fill="url(#paint26_linear_431_2535)"/>
<path d="M51.7227 153.594C51.7227 153.594 51.7393 153.553 51.756 153.536C52.4388 152.583 54.1876 150.685 57.6353 149.865L59.2924 149.815C59.2924 149.815 60.0253 151.092 60.0419 153.453C59.6672 153.611 58.9344 153.776 57.5187 153.809C55.3368 153.867 52.7386 153.685 51.7227 153.602V153.594Z" fill="url(#paint27_linear_431_2535)"/>
<path d="M59.5992 147.313C59.5825 147.437 59.3577 149.301 59.2661 150.022C59.2411 150.196 59.1162 150.329 58.9663 150.346C58.6831 150.379 58.2251 150.412 57.8337 150.329C57.6172 150.288 57.459 150.08 57.459 149.84V146.915L59.5992 147.313Z" fill="url(#paint28_linear_431_2535)"/>
<path d="M71.1836 111.053C71.1836 111.053 73.8318 134.47 72.3578 149.112C72.3578 149.112 70.5924 149.112 69.7097 148.822C69.7097 148.822 66.9615 125.927 66.0705 119.372C66.0372 119.124 65.6791 119.115 65.6375 119.356C64.5382 124.866 60.2245 146.485 59.7165 148.532C59.7165 148.532 58.2426 149.12 57.0684 148.532C57.0684 148.532 59.4251 117.209 61.1905 111.649L71.192 111.061L71.1836 111.053Z" fill="url(#paint29_linear_431_2535)"/>
<path d="M76.4795 83.8232C76.4795 83.8232 65.2955 82.0665 56.4766 84.4115L57.0678 93.485C57.0678 93.485 59.4245 106.072 61.19 111.632C61.19 111.632 67.9603 112.8 71.1914 111.044C71.1914 111.044 73.8396 95.2334 75.3136 92.8967C75.3136 92.8967 76.7876 86.7483 76.4878 83.8232H76.4795Z" fill="url(#paint30_linear_431_2535)"/>
<path d="M68.6362 74.2695L69.8271 83.3181C69.8271 83.3181 66.7126 84.7434 64.5391 83.2601L65.0054 77.9735L68.6362 74.2778V74.2695Z" fill="url(#paint31_linear_431_2535)"/>
<path d="M76.4802 83.8232C76.4802 83.8232 93.8349 102.558 73.3906 109.734V108.268C73.3906 108.268 81.0437 101.829 75.1561 93.0459C75.1561 93.0459 75.8889 84.7016 76.4802 83.8232Z" fill="url(#paint32_linear_431_2535)"/>
<path d="M73.2485 108.417C73.2485 108.417 70.6003 106.66 69.4261 107.248C68.252 107.837 68.252 108.715 68.252 108.715C68.252 108.715 68.8432 109.883 69.7259 109.593C70.6087 109.303 72.6656 109.883 73.5483 109.593C73.5483 109.593 73.8398 108.425 73.2568 108.425L73.2485 108.417Z" fill="url(#paint33_linear_431_2535)"/>
<path d="M44.6185 75.8444L48.3576 77.0956C48.8073 77.2282 49.1237 77.6839 49.1571 78.264L48.9655 84.4621C49.0238 85.4316 48.2244 86.2851 47.4582 86.0614L44.4603 85.0422C44.1688 84.951 43.9773 84.6527 43.969 84.2715L43.9023 76.5487C43.9023 76.1013 44.2688 75.7284 44.6185 75.8361V75.8444Z" fill="url(#paint34_linear_431_2535)"/>
<path d="M43.9099 83.8238C43.9099 83.8238 42.744 80.095 43.3353 79.4652C43.9265 78.8354 45.1174 77.1036 45.1923 78.5206C45.2673 79.9375 45.9834 86.0528 43.9099 83.8155V83.8238Z" fill="url(#paint35_linear_431_2535)"/>
<path d="M61.0669 71.8339C61.0503 71.9499 62.4576 79.4738 62.4576 79.4738L66.7547 78.5789L66.4799 71.2538C66.4799 71.2538 61.3667 69.928 61.0586 71.8421L61.0669 71.8339Z" fill="url(#paint36_linear_431_2535)"/>
<path d="M65.2052 72.4467C65.3717 72.5462 65.48 72.7202 65.505 72.9108L65.9463 76.7059C65.9463 76.7639 65.9463 76.8219 65.9463 76.8799C65.8964 77.1948 65.6465 78.1808 64.6223 77.8743C63.7562 77.6174 62.9484 77.3854 62.3571 77.4931C62.0157 77.5511 61.7909 77.8908 61.8492 78.2306C61.9824 78.9349 62.2822 80.3518 62.7319 81.5782C62.8401 81.8848 63.1732 82.0505 63.4897 81.9677C64.3225 81.7357 65.938 81.2385 67.1705 80.5424C67.3704 80.4264 67.4953 80.211 67.4869 79.979C67.462 78.9597 67.4037 76.101 67.5119 75.2889C67.6119 74.5349 68.5279 74.0957 68.9609 73.9217C69.1275 73.8554 69.2524 73.7311 69.319 73.5654C69.5106 73.0682 69.7271 72.049 68.4446 71.5767C68.1282 71.4607 67.9616 71.1044 68.0782 70.7812C68.2781 70.2094 68.328 69.3808 67.2954 68.8919C66.2461 68.403 65.4384 68.9085 64.972 69.3642C64.7638 69.5631 64.4474 69.6211 64.1975 69.4803C64.0893 69.414 63.9477 69.3974 63.7812 69.4803C63.473 69.6294 63.1066 69.5217 62.9484 69.2151C62.6819 68.6848 62.1573 68.1379 61.108 68.3036C59.1843 68.6019 58.9262 70.7149 59.4175 71.9578C59.9005 73.2091 61.9741 72.7699 63.015 72.1567C63.7812 71.7093 64.7555 72.1733 65.2135 72.455L65.2052 72.4467Z" fill="url(#paint37_linear_431_2535)"/>
<path d="M67.4533 76.5568C67.4533 76.5568 66.912 74.477 67.7281 73.9466C68.5442 73.4246 69.7434 73.7229 69.4519 75.3139C69.0939 77.286 67.4533 76.5568 67.4533 76.5568Z" fill="url(#paint38_linear_431_2535)"/>
<path d="M59.8839 71.6432C59.8839 71.6432 59.8423 71.635 59.834 71.6101C59.1761 70.218 60.7084 69.0994 60.725 69.0911C60.75 69.0745 60.7833 69.0828 60.8 69.0994C60.8166 69.1242 60.8083 69.1574 60.7916 69.1739C60.775 69.1822 59.3177 70.2511 59.9339 71.5604C59.9505 71.5852 59.9339 71.6184 59.9089 71.6349C59.9089 71.6349 59.8923 71.6349 59.8839 71.6349V71.6432Z" fill="#98B1DC"/>
<path d="M182.765 125.147L183.157 124.634C183.265 124.493 183.24 124.285 183.107 124.178C182.965 124.07 182.765 124.087 182.657 124.236V124.244L182.274 124.75C182.166 124.899 182.191 125.098 182.332 125.205C182.466 125.313 182.666 125.288 182.774 125.147H182.765Z" fill="white"/>
<path d="M184.03 123.399L184.38 122.852C184.48 122.694 184.438 122.487 184.288 122.388C184.139 122.288 183.93 122.33 183.83 122.487V122.495L183.497 123.026C183.397 123.192 183.447 123.39 183.597 123.49C183.747 123.589 183.947 123.548 184.047 123.39L184.03 123.399Z" fill="white"/>
<path d="M185.155 121.551L185.463 120.979C185.555 120.813 185.496 120.598 185.33 120.507C185.163 120.415 184.955 120.474 184.872 120.648V120.656L184.58 121.219C184.489 121.393 184.555 121.6 184.722 121.692C184.889 121.783 185.088 121.716 185.172 121.551H185.155Z" fill="white"/>
<path d="M186.121 119.612L186.379 119.015C186.462 118.833 186.379 118.618 186.204 118.543C186.029 118.46 185.821 118.543 185.738 118.725V118.734L185.488 119.314C185.413 119.504 185.488 119.711 185.671 119.794C185.846 119.869 186.046 119.794 186.129 119.612H186.121Z" fill="white"/>
<path d="M186.937 117.607L187.153 116.994C187.22 116.803 187.12 116.588 186.937 116.522C186.745 116.455 186.545 116.555 186.47 116.745V116.754L186.271 117.35C186.204 117.549 186.304 117.756 186.495 117.822C186.679 117.889 186.887 117.789 186.953 117.599L186.937 117.607Z" fill="white"/>
<path d="M187.604 115.543L187.771 114.913C187.829 114.706 187.712 114.499 187.513 114.441C187.313 114.383 187.105 114.507 187.055 114.706V114.715L186.896 115.328C186.846 115.535 186.963 115.742 187.155 115.8C187.354 115.85 187.554 115.734 187.604 115.535V115.543Z" fill="white"/>
<path d="M188.112 113.431L188.237 112.793C188.278 112.577 188.145 112.37 187.937 112.329C187.729 112.287 187.529 112.42 187.487 112.635V112.644L187.371 113.265C187.329 113.489 187.471 113.688 187.67 113.729C187.879 113.771 188.07 113.63 188.112 113.423V113.431Z" fill="white"/>
<path d="M188.486 111.292L188.569 110.646C188.594 110.422 188.445 110.223 188.228 110.19C188.011 110.165 187.812 110.314 187.787 110.538V110.555L187.712 111.185C187.687 111.417 187.837 111.615 188.053 111.64C188.27 111.665 188.461 111.508 188.486 111.292Z" fill="white"/>
<path d="M188.703 109.13L188.744 108.475C188.761 108.243 188.586 108.045 188.361 108.036C188.136 108.02 187.945 108.194 187.928 108.426V108.442L187.895 109.08C187.887 109.321 188.053 109.511 188.278 109.519C188.503 109.528 188.686 109.362 188.703 109.13Z" fill="white"/>
<path d="M188.786 106.959V106.305C188.786 106.064 188.595 105.874 188.362 105.882C188.129 105.882 187.945 106.073 187.945 106.313V106.33V106.968L187.954 106.976C187.954 107.208 188.145 107.398 188.37 107.39C188.595 107.39 188.778 107.2 188.778 106.968L188.786 106.959Z" fill="white"/>
<path d="M188.729 104.779L188.687 104.125C188.67 103.885 188.462 103.702 188.229 103.719C187.996 103.735 187.813 103.943 187.829 104.191V104.208L187.879 104.837C187.896 105.086 188.104 105.268 188.337 105.243C188.57 105.227 188.745 105.02 188.729 104.779Z" fill="white"/>
<path d="M188.536 102.617L188.452 101.971C188.419 101.722 188.203 101.548 187.961 101.581C187.72 101.614 187.553 101.838 187.586 102.087V102.103L187.678 102.733C187.711 102.99 187.936 103.156 188.169 103.122C188.402 103.089 188.569 102.866 188.544 102.617H188.536Z" fill="white"/>
<path d="M188.212 100.47L188.087 99.8324C188.037 99.5838 187.804 99.4181 187.562 99.4678C187.321 99.5175 187.162 99.7578 187.212 100.006V100.015L187.337 100.636C187.387 100.893 187.62 101.05 187.862 101.001C188.103 100.951 188.262 100.711 188.212 100.462V100.47Z" fill="white"/>
<path d="M187.754 98.3412L187.587 97.7115C187.521 97.4629 187.271 97.3137 187.029 97.38C186.788 97.4463 186.646 97.7032 186.704 97.9518V97.96L186.871 98.5732C186.938 98.8301 187.187 98.9793 187.429 98.9047C187.67 98.8384 187.812 98.5815 187.745 98.3412H187.754Z" fill="white"/>
<path d="M187.162 96.253L186.962 95.6316C186.878 95.383 186.62 95.2504 186.379 95.3333C186.137 95.4161 186.004 95.6813 186.087 95.9299V95.9381L186.287 96.5431C186.37 96.7999 186.629 96.9325 186.87 96.8414C187.112 96.7585 187.237 96.4933 187.153 96.2447L187.162 96.253Z" fill="white"/>
<path d="M186.447 94.2064L186.205 93.6015C186.105 93.3529 185.839 93.2369 185.597 93.3363C185.356 93.4357 185.247 93.7175 185.339 93.9578V93.9661L185.572 94.5544C185.672 94.803 185.939 94.919 186.18 94.8195C186.413 94.7201 186.53 94.4384 186.43 94.1981L186.447 94.2064Z" fill="white"/>
<path d="M185.597 92.2091L185.314 91.6208C185.198 91.3805 184.915 91.281 184.681 91.3971C184.448 91.5131 184.348 91.8031 184.465 92.0434V92.0517L184.74 92.6234C184.856 92.872 185.139 92.9714 185.373 92.8554C185.606 92.7394 185.697 92.4494 185.589 92.2091H185.597Z" fill="white"/>
<path d="M184.623 90.2705L184.306 89.6987C184.173 89.4667 183.881 89.3838 183.657 89.5164C183.423 89.649 183.348 89.9473 183.482 90.1876V90.1959L183.79 90.7428C183.923 90.9831 184.215 91.0659 184.439 90.9334C184.664 90.8008 184.748 90.5025 184.614 90.2705H184.623Z" fill="white"/>
<path d="M183.524 88.3979L183.174 87.851C183.024 87.6189 182.724 87.5609 182.499 87.7101C182.275 87.8592 182.216 88.1658 182.366 88.3979V88.4061L182.708 88.9282C182.858 89.1602 183.157 89.2265 183.374 89.069C183.59 88.9199 183.649 88.6133 183.507 88.3813L183.524 88.3979Z" fill="white"/>
<path d="M182.307 86.6164L181.924 86.0944C181.757 85.8706 181.449 85.8292 181.241 86.0032C181.024 86.1689 180.982 86.4838 181.149 86.7075V86.7158L181.524 87.2213C181.69 87.445 181.998 87.4864 182.207 87.3207C182.415 87.155 182.456 86.8401 182.298 86.6247L182.307 86.6164Z" fill="white"/>
<path d="M180.975 84.9173L180.559 84.4202C180.375 84.2047 180.067 84.1881 179.859 84.3704C179.651 84.5527 179.634 84.8759 179.809 85.0831V85.0914L180.217 85.572C180.4 85.7874 180.709 85.8123 180.917 85.6217C181.125 85.4394 181.142 85.1162 180.967 84.9091L180.975 84.9173Z" fill="white"/>
<path d="M179.551 83.3019L179.11 82.8378C178.918 82.639 178.602 82.6307 178.402 82.8378C178.202 83.0367 178.202 83.3599 178.402 83.567V83.5753L178.835 84.0228C179.026 84.2299 179.343 84.2299 179.543 84.031C179.734 83.8322 179.743 83.509 179.543 83.3101L179.551 83.3019Z" fill="white"/>
<path d="M178.036 81.7774L177.561 81.3382C177.353 81.1477 177.036 81.1642 176.845 81.3714C176.653 81.5868 176.67 81.91 176.878 82.1089L177.336 82.5315C177.544 82.7303 177.861 82.7138 178.052 82.4983C178.235 82.2829 178.219 81.9597 178.019 81.7691L178.036 81.7774Z" fill="white"/>
<path d="M176.437 80.3435L175.946 79.9292C175.729 79.7469 175.405 79.78 175.221 80.0037C175.047 80.2275 175.08 80.5589 175.296 80.7412L175.779 81.139C175.996 81.3295 176.321 81.2881 176.496 81.0644C176.67 80.8407 176.637 80.5092 176.421 80.3269L176.437 80.3435Z" fill="white"/>
<path d="M174.763 79.0009L174.246 78.6197C174.013 78.4457 173.688 78.5037 173.522 78.7357C173.355 78.976 173.405 79.3075 173.638 79.4815L174.146 79.8544C174.38 80.0284 174.704 79.9787 174.871 79.7384C175.038 79.4981 174.988 79.1749 174.754 79.0009H174.763Z" fill="white"/>
<path d="M173.022 77.7665L172.489 77.4102C172.248 77.2527 171.923 77.319 171.765 77.5676C171.607 77.8162 171.682 78.1477 171.923 78.3134L172.448 78.6531C172.689 78.8189 173.014 78.7443 173.172 78.4957C173.331 78.2471 173.256 77.9156 173.014 77.7582L173.022 77.7665Z" fill="white"/>
<path d="M171.223 76.6147L170.674 76.2916C170.424 76.1424 170.099 76.2336 169.949 76.4904C169.799 76.7473 169.891 77.087 170.149 77.2362L170.69 77.5511C170.94 77.7002 171.265 77.6091 171.406 77.3522C171.548 77.0953 171.465 76.7639 171.207 76.6147H171.223Z" fill="white"/>
<path d="M169.357 75.5709L168.791 75.2726C168.524 75.14 168.208 75.2477 168.075 75.5129C167.942 75.778 168.05 76.1095 168.308 76.2503L168.866 76.5404C169.132 76.6812 169.449 76.5735 169.582 76.3001C169.715 76.0349 169.607 75.7034 169.349 75.5709H169.357Z" fill="white"/>
<path d="M167.451 74.626L166.868 74.3608C166.602 74.2365 166.285 74.3608 166.16 74.6342C166.044 74.9077 166.16 75.2309 166.427 75.3551L166.993 75.612C167.26 75.7363 167.576 75.612 167.701 75.3386C167.818 75.0651 167.701 74.742 167.434 74.6177L167.451 74.626Z" fill="white"/>
<path d="M165.503 73.7726L164.911 73.5323C164.636 73.4246 164.328 73.5654 164.22 73.8472C164.112 74.1289 164.253 74.4438 164.528 74.5598L165.103 74.7918C165.378 74.9078 165.686 74.7669 165.794 74.4852C165.902 74.2035 165.761 73.8886 165.486 73.7726H165.503Z" fill="white"/>
<path d="M163.512 73.0182L162.913 72.8111C162.63 72.7117 162.33 72.8691 162.23 73.1591C162.138 73.4491 162.288 73.7557 162.571 73.8552L163.163 74.054C163.446 74.1535 163.746 73.996 163.837 73.706C163.929 73.416 163.779 73.1094 163.496 73.01L163.512 73.0182Z" fill="white"/>
<path d="M161.497 72.3637L160.889 72.1814C160.606 72.0986 160.306 72.2643 160.223 72.5626C160.139 72.8526 160.306 73.1592 160.589 73.2421L161.189 73.4161C161.472 73.499 161.772 73.3332 161.855 73.0349C161.938 72.7449 161.772 72.4383 161.488 72.3555L161.497 72.3637Z" fill="white"/>
<path d="M159.448 71.8004L158.832 71.6513C158.54 71.585 158.249 71.7673 158.182 72.0656C158.115 72.3639 158.29 72.6622 158.582 72.7285L159.19 72.8777C159.481 72.9522 159.773 72.7616 159.839 72.4716C159.906 72.1733 159.731 71.875 159.44 71.8087L159.448 71.8004Z" fill="white"/>
<path d="M157.375 71.3365L156.75 71.2122C156.459 71.1542 156.176 71.3531 156.118 71.6514C156.059 71.9497 156.259 72.2397 156.551 72.2977L157.158 72.4137C157.45 72.4717 157.733 72.2729 157.791 71.9745C157.85 71.6762 157.65 71.3862 157.358 71.3282L157.375 71.3365Z" fill="white"/>
<path d="M155.285 70.9636L154.652 70.8725C154.352 70.831 154.086 71.0382 154.044 71.3448C154.003 71.6514 154.211 71.9331 154.502 71.9745L155.119 72.0657C155.418 72.1071 155.685 71.9 155.727 71.5934C155.768 71.2868 155.56 71.0133 155.269 70.9636H155.285Z" fill="white"/>
<path d="M153.185 70.6985L152.552 70.6322C152.252 70.599 151.986 70.8227 151.961 71.1293C151.936 71.4359 152.152 71.7094 152.452 71.7342L153.069 71.7922C153.368 71.8254 153.635 71.6017 153.66 71.2951C153.685 70.9885 153.468 70.715 153.168 70.6902L153.185 70.6985Z" fill="white"/>
<path d="M151.07 70.5242L150.437 70.491C150.137 70.4745 149.879 70.7148 149.862 71.0214C149.846 71.328 150.079 71.5931 150.378 71.6097L151.003 71.6428C151.303 71.6594 151.561 71.4191 151.569 71.1125C151.586 70.8059 151.353 70.5408 151.053 70.5325L151.07 70.5242Z" fill="white"/>
<path d="M148.956 70.4414H148.323C148.023 70.4414 147.773 70.6817 147.773 70.9966C147.773 71.3032 148.015 71.5601 148.315 71.5601H148.948C149.247 71.5601 149.497 71.3115 149.497 71.0049C149.497 70.6983 149.256 70.4497 148.956 70.4414Z" fill="white"/>
<path d="M146.832 70.466L146.199 70.4909C145.899 70.4992 145.666 70.7643 145.674 71.0709C145.682 71.3775 145.941 71.6178 146.24 71.6095L146.865 71.5847C147.165 71.5764 147.398 71.3112 147.39 71.0046C147.381 70.698 147.123 70.4577 146.823 70.466H146.832Z" fill="white"/>
<path d="M144.724 70.5819L144.091 70.6316C143.792 70.6565 143.567 70.9299 143.592 71.2365C143.617 71.5431 143.875 71.7751 144.183 71.7503L144.799 71.7005C145.099 71.6757 145.324 71.4022 145.299 71.0957C145.274 70.7891 145.016 70.557 144.708 70.5819H144.724Z" fill="white"/>
<path d="M142.617 70.7813L141.984 70.8559C141.685 70.889 141.468 71.1708 141.501 71.4774C141.535 71.784 141.81 72.0077 142.109 71.9663L142.726 71.8917C143.025 71.8502 143.242 71.5768 143.209 71.2702C143.175 70.9636 142.9 70.7399 142.601 70.7813H142.617Z" fill="white"/>
<path d="M140.52 71.0629L139.895 71.1623C139.595 71.212 139.387 71.5021 139.437 71.8087C139.487 72.1152 139.762 72.3224 140.062 72.281L140.678 72.1815C140.978 72.1318 141.186 71.8418 141.136 71.5352C141.086 71.2286 140.811 71.0215 140.511 71.0629H140.52Z" fill="white"/>
<path d="M138.429 71.427L137.805 71.5513C137.505 71.6093 137.313 71.9076 137.372 72.2142C137.43 72.5208 137.722 72.7197 138.021 72.6617L138.629 72.5374C138.929 72.4794 139.121 72.1811 139.062 71.8745C139.004 71.5679 138.713 71.369 138.413 71.427H138.429Z" fill="white"/>
<path d="M136.363 71.8746L135.747 72.0237C135.447 72.0983 135.264 72.3966 135.339 72.7032C135.406 73.0098 135.705 73.2004 136.005 73.1258L136.613 72.9766C136.913 72.9021 137.096 72.5955 137.021 72.2972C136.955 71.9906 136.655 71.8 136.355 71.8746H136.363Z" fill="white"/>
<path d="M134.315 72.3887L133.708 72.5627C133.416 72.6456 133.241 72.9605 133.316 73.2588C133.399 73.5653 133.699 73.7394 133.999 73.6565L134.599 73.4908C134.89 73.4079 135.065 73.093 134.99 72.7947C134.907 72.4964 134.607 72.3141 134.315 72.397V72.3887Z" fill="white"/>
<path d="M132.275 72.985L131.667 73.1755C131.376 73.2667 131.209 73.5899 131.301 73.8882C131.392 74.1865 131.7 74.3605 131.992 74.261L132.583 74.0705C132.874 73.9793 133.041 73.6561 132.949 73.3578C132.858 73.0595 132.55 72.8938 132.258 72.985H132.275Z" fill="white"/>
<path d="M130.269 73.6401L129.669 73.8556C129.378 73.955 129.228 74.2782 129.328 74.5765C129.428 74.8748 129.744 75.0322 130.036 74.9328L130.627 74.7256C130.918 74.6179 131.068 74.2947 130.968 73.9964C130.868 73.6981 130.552 73.5407 130.26 73.6401H130.269Z" fill="white"/>
<path d="M128.278 74.3695L127.686 74.6015C127.403 74.7175 127.253 75.0407 127.37 75.339C127.486 75.6373 127.803 75.7782 128.086 75.6705L128.669 75.4467C128.952 75.3307 129.102 75.0076 128.994 74.7093C128.885 74.4192 128.561 74.2701 128.278 74.3778V74.3695Z" fill="white"/>
<path d="M126.314 75.1644L125.731 75.413C125.448 75.5373 125.314 75.8604 125.431 76.1505C125.547 76.4405 125.872 76.5731 126.155 76.457L126.73 76.2085C127.013 76.0842 127.146 75.7527 127.03 75.4627C126.913 75.1727 126.588 75.0401 126.305 75.1561L126.314 75.1644Z" fill="white"/>
<path d="M124.373 76.0185L123.798 76.2837C123.523 76.4079 123.398 76.7477 123.523 77.0294C123.648 77.3112 123.973 77.4355 124.248 77.3112L124.814 77.046C125.089 76.9134 125.214 76.582 125.089 76.3002C124.964 76.0185 124.639 75.8859 124.364 76.0185H124.373Z" fill="white"/>
<path d="M122.465 76.9296L121.898 77.2113C121.624 77.3439 121.515 77.6836 121.649 77.9571C121.782 78.2388 122.107 78.3465 122.381 78.214L122.939 77.9322C123.214 77.7914 123.322 77.4599 123.189 77.1782C123.056 76.8964 122.731 76.7804 122.456 76.9213L122.465 76.9296Z" fill="white"/>
<path d="M120.574 77.8993L120.017 78.1976C119.75 78.3385 119.65 78.6782 119.783 78.9516C119.925 79.2251 120.25 79.3328 120.516 79.1837L121.074 78.8854C121.341 78.7445 121.449 78.4048 121.307 78.1313C121.166 77.8579 120.841 77.7501 120.574 77.891V77.8993Z" fill="white"/>
<path d="M118.719 78.9182L118.169 79.2331C117.911 79.3822 117.811 79.7219 117.961 79.9871C118.102 80.2523 118.435 80.3517 118.694 80.2026L119.243 79.8877C119.501 79.7385 119.601 79.3988 119.451 79.1336C119.31 78.8685 118.977 78.769 118.719 78.9182Z" fill="white"/>
<path d="M116.877 79.9867L116.336 80.3182C116.078 80.4756 115.995 80.8071 116.145 81.0722C116.295 81.3374 116.628 81.4203 116.877 81.2628L117.419 80.9397C117.677 80.7822 117.76 80.4425 117.61 80.1856C117.46 79.9205 117.127 79.8376 116.877 79.9867Z" fill="white"/>
<path d="M115.079 81.1054L114.546 81.4534C114.297 81.6109 114.222 81.9506 114.38 82.2075C114.538 82.4643 114.863 82.5389 115.113 82.3815L115.646 82.0417C115.895 81.876 115.97 81.5446 115.821 81.2794C115.662 81.0225 115.338 80.9397 115.079 81.1054Z" fill="white"/>
<path d="M113.297 82.2659L112.773 82.6222C112.531 82.7879 112.465 83.1277 112.623 83.3762C112.781 83.6248 113.114 83.6994 113.356 83.5337L113.88 83.1774C114.122 83.0116 114.197 82.6719 114.03 82.415C113.872 82.1665 113.539 82.0919 113.289 82.2576L113.297 82.2659Z" fill="white"/>
<path d="M111.547 83.4757L111.031 83.8486C110.789 84.0226 110.731 84.354 110.897 84.6026C111.064 84.8512 111.397 84.9092 111.63 84.7352L112.147 84.3706C112.388 84.1966 112.446 83.8569 112.28 83.6166C112.113 83.368 111.78 83.31 111.539 83.484L111.547 83.4757Z" fill="white"/>
<path d="M109.832 84.7267L109.324 85.1078C109.091 85.2818 109.041 85.6216 109.207 85.8619C109.382 86.1022 109.707 86.1519 109.94 85.9779L110.448 85.605C110.681 85.431 110.74 85.0912 110.565 84.8509C110.39 84.6106 110.065 84.5526 109.832 84.7267Z" fill="white"/>
<path d="M108.141 86.0108L107.641 86.4003C107.408 86.5826 107.366 86.914 107.541 87.1543C107.716 87.3946 108.041 87.4361 108.274 87.262L108.774 86.8726C109.007 86.6903 109.049 86.3588 108.874 86.1185C108.699 85.8782 108.374 85.8368 108.141 86.0108Z" fill="white"/>
<path d="M106.477 87.3208L105.977 87.7185C105.752 87.9008 105.711 88.2323 105.886 88.4643C106.06 88.6963 106.385 88.7377 106.618 88.5554L107.11 88.166C107.335 87.9837 107.376 87.6522 107.201 87.4119C107.026 87.1799 106.702 87.1385 106.469 87.3208H106.477Z" fill="white"/>
<path d="M104.827 88.6468L104.335 89.0528C104.11 89.2351 104.077 89.5666 104.252 89.7986C104.427 90.0306 104.752 90.0637 104.977 89.8814L105.468 89.4837C105.693 89.3014 105.726 88.9699 105.551 88.7379C105.376 88.5059 105.052 88.4728 104.827 88.6551V88.6468Z" fill="white"/>
<path d="M103.188 89.9967L102.696 90.4027C102.48 90.585 102.438 90.9165 102.621 91.1485C102.796 91.3722 103.121 91.4136 103.346 91.2231L103.837 90.817C104.062 90.6347 104.095 90.3033 103.912 90.0713C103.737 89.8475 103.413 89.8061 103.188 89.9884V89.9967Z" fill="white"/>
<path d="M101.563 91.3481L101.08 91.7541C100.863 91.9364 100.83 92.2679 101.005 92.4916C101.188 92.7154 101.504 92.7485 101.721 92.5662L102.204 92.1602C102.42 91.9779 102.454 91.6464 102.279 91.4227C102.104 91.199 101.779 91.1658 101.554 91.3481H101.563Z" fill="white"/>
<path d="M99.94 92.7153L99.457 93.1213C99.2405 93.3036 99.2072 93.6351 99.3904 93.8588C99.5653 94.0825 99.8901 94.1157 100.107 93.9334L100.59 93.5274C100.806 93.3451 100.839 93.0136 100.665 92.7899C100.49 92.5661 100.165 92.533 99.9484 92.7153H99.94Z" fill="white"/>
<path d="M98.3243 94.0737L97.8413 94.4797C97.6248 94.662 97.5915 94.9852 97.7664 95.2089C97.9413 95.4326 98.2577 95.4658 98.4742 95.2835L98.9656 94.8775C99.1821 94.6952 99.2154 94.372 99.0405 94.1483C98.8656 93.9245 98.5409 93.8914 98.3243 94.0737Z" fill="white"/>
<path d="M96.6999 95.4331L96.2085 95.8391C95.992 96.0214 95.9587 96.3446 96.1336 96.5683C96.3085 96.792 96.6249 96.8252 96.8414 96.6429L97.3328 96.2368C97.5493 96.0545 97.5826 95.7314 97.4077 95.5077C97.2328 95.2839 96.9164 95.2508 96.6999 95.4331Z" fill="white"/>
<path d="M95.0749 96.7837L94.5835 97.1815C94.367 97.3555 94.3337 97.6787 94.5086 97.9024C94.6835 98.1261 94.9916 98.1593 95.2081 97.9852L95.6994 97.5875C95.9159 97.4135 95.9493 97.0903 95.7827 96.8666C95.6078 96.6429 95.2997 96.6097 95.0749 96.7837Z" fill="white"/>
<path d="M93.4354 98.1097L92.9441 98.5074C92.7276 98.6814 92.6859 99.0046 92.8608 99.22C93.0274 99.4437 93.3438 99.4852 93.5603 99.3112L94.06 98.9134C94.2765 98.7394 94.3181 98.4162 94.1516 98.2008C93.985 97.9771 93.6686 97.9356 93.4521 98.1097H93.4354Z" fill="white"/>
<path d="M91.7872 99.4185L91.2875 99.8079C91.071 99.9819 91.0294 100.297 91.1959 100.521C91.3625 100.744 91.6706 100.786 91.8871 100.62L92.3951 100.231C92.6116 100.065 92.6533 99.7416 92.495 99.5179C92.3285 99.2942 92.0204 99.2527 91.8038 99.4185H91.7872Z" fill="white"/>
<path d="M90.1132 100.702L89.6052 101.084C89.3887 101.249 89.3387 101.564 89.4969 101.788C89.6551 102.012 89.9633 102.061 90.1798 101.896L90.6878 101.515C90.9043 101.349 90.9542 101.034 90.796 100.81C90.6378 100.586 90.3297 100.537 90.1048 100.694L90.1132 100.702Z" fill="white"/>
<path d="M88.4222 101.946L87.9059 102.31C87.6811 102.468 87.6311 102.783 87.781 103.006C87.9392 103.23 88.239 103.288 88.4639 103.131L88.9802 102.758C89.205 102.6 89.255 102.286 89.1051 102.062C88.9552 101.838 88.6471 101.78 88.4222 101.938V101.946Z" fill="white"/>
<path d="M86.7057 103.156L86.1811 103.512C85.9562 103.67 85.8979 103.976 86.0478 104.208C86.1977 104.44 86.4975 104.498 86.7224 104.349L87.247 103.993C87.4719 103.844 87.5302 103.529 87.3886 103.305C87.2387 103.073 86.9389 103.015 86.714 103.164L86.7057 103.156Z" fill="white"/>
<path d="M84.9578 104.324L84.4332 104.664C84.2083 104.813 84.1417 105.111 84.2833 105.344C84.4248 105.576 84.7163 105.642 84.9412 105.501L85.4825 105.161C85.7073 105.02 85.7822 104.714 85.6407 104.482C85.4991 104.25 85.2076 104.175 84.9745 104.324H84.9578Z" fill="white"/>
<path d="M83.1918 105.434L82.6505 105.757C82.4257 105.898 82.3507 106.188 82.484 106.42C82.6172 106.652 82.9004 106.727 83.1252 106.594L83.6748 106.271C83.8997 106.139 83.9829 105.84 83.8497 105.608C83.7165 105.376 83.425 105.293 83.2002 105.434H83.1918Z" fill="white"/>
<path d="M81.3847 106.495L80.8351 106.801C80.6103 106.926 80.527 107.216 80.6519 107.448C80.7768 107.68 81.0516 107.762 81.2848 107.638L81.8428 107.332C82.0676 107.207 82.1592 106.917 82.0343 106.685C81.9094 106.453 81.6262 106.362 81.4014 106.486L81.3847 106.495Z" fill="white"/>
<path d="M79.544 107.489L78.986 107.771C78.7612 107.887 78.6696 108.169 78.7778 108.401C78.8861 108.633 79.1609 108.724 79.3941 108.616L79.9603 108.334C80.1852 108.218 80.2851 107.936 80.1685 107.704C80.0603 107.472 79.7771 107.373 79.5523 107.489H79.544Z" fill="white"/>
<path d="M77.6713 108.409L77.105 108.666C76.8802 108.774 76.7719 109.047 76.8802 109.279C76.9801 109.511 77.2466 109.619 77.4798 109.511L78.0627 109.246C78.2959 109.138 78.3958 108.865 78.2959 108.633C78.196 108.401 77.9295 108.293 77.6963 108.393L77.6713 108.409Z" fill="white"/>
<path d="M75.764 109.246L75.1894 109.478C74.9646 109.578 74.848 109.843 74.9396 110.075C75.0312 110.307 75.2894 110.423 75.5142 110.332L76.1055 110.1C76.3386 110.009 76.4469 109.744 76.3636 109.503C76.272 109.263 76.0139 109.147 75.7807 109.238L75.764 109.246Z" fill="white"/>
<path d="M73.832 110L73.2408 110.207C73.0076 110.29 72.891 110.547 72.966 110.779C73.0409 111.011 73.2907 111.135 73.5239 111.061L74.1235 110.854C74.3567 110.771 74.4816 110.514 74.3983 110.282C74.3233 110.042 74.0735 109.917 73.8403 110H73.832Z" fill="white"/>
<path d="M71.8589 110.654L71.2593 110.828C71.0262 110.895 70.9012 111.143 70.9595 111.383C71.0262 111.615 71.2677 111.756 71.4925 111.69L72.1004 111.516C72.3336 111.45 72.4668 111.201 72.4002 110.969C72.3336 110.729 72.0921 110.596 71.8673 110.663L71.8589 110.654Z" fill="white"/>
<path d="M69.8593 111.21L69.2514 111.351C69.0183 111.409 68.8767 111.641 68.935 111.881C68.9849 112.113 69.2181 112.262 69.443 112.212L70.0675 112.071C70.3007 112.022 70.4423 111.781 70.3923 111.549C70.3423 111.309 70.1092 111.168 69.8843 111.218L69.8593 111.21Z" fill="white"/>
<path d="M67.8369 111.641L67.229 111.749C67.0041 111.79 66.8459 112.014 66.8875 112.246C66.9292 112.478 67.1374 112.635 67.3705 112.602L67.9951 112.495C68.2283 112.453 68.3782 112.238 68.3449 111.997C68.3115 111.765 68.0867 111.6 67.8619 111.641H67.8369Z" fill="white"/>
<path d="M65.7879 111.956L65.1716 112.022C64.9468 112.047 64.7802 112.254 64.8052 112.486C64.8302 112.718 65.0301 112.884 65.2549 112.859L65.8878 112.793C66.1127 112.768 66.2792 112.561 66.2625 112.329C66.2376 112.097 66.0377 111.923 65.8045 111.948L65.7879 111.956Z" fill="white"/>
<path d="M63.7228 112.138L63.1065 112.163C62.8817 112.171 62.7068 112.37 62.7151 112.602C62.7235 112.834 62.915 113.008 63.1398 113L63.7727 112.975C63.9976 112.967 64.1725 112.768 64.1641 112.544C64.1558 112.312 63.9643 112.13 63.7394 112.138H63.7228Z" fill="white"/>
<path d="M61.6576 112.188H61.0331V112.18C60.8082 112.18 60.6333 112.354 60.625 112.586C60.625 112.809 60.7915 113 61.0164 113L61.6493 113.017C61.8741 113.017 62.0573 112.843 62.0573 112.611C62.0573 112.387 61.8908 112.196 61.666 112.188H61.6576Z" fill="white"/>
<path d="M59.591 112.097L58.9747 112.047C58.7582 112.03 58.5667 112.196 58.55 112.412C58.5334 112.635 58.6916 112.826 58.9081 112.851L59.541 112.909C59.7575 112.925 59.9491 112.768 59.974 112.544C59.9907 112.32 59.8325 112.122 59.616 112.105L59.591 112.097Z" fill="white"/>
<path d="M57.5351 111.865L56.9189 111.765C56.7107 111.732 56.5108 111.881 56.4775 112.097C56.4442 112.312 56.5858 112.511 56.8023 112.553L57.4269 112.66C57.635 112.693 57.8349 112.544 57.8765 112.329C57.9099 112.113 57.7683 111.906 57.5518 111.873L57.5351 111.865Z" fill="white"/>
<path d="M55.5028 111.491L54.8948 111.35H54.8865C54.6783 111.301 54.4785 111.433 54.4285 111.64C54.3785 111.847 54.5118 112.055 54.7116 112.104L55.3279 112.254C55.5361 112.303 55.7359 112.171 55.7859 111.963C55.8359 111.756 55.711 111.541 55.5028 111.491H55.4944H55.5028Z" fill="white"/>
<path d="M53.5036 110.961L52.9123 110.771H52.904C52.7041 110.704 52.4959 110.82 52.4377 111.019C52.3794 111.218 52.4876 111.434 52.6792 111.5L53.2871 111.699C53.4869 111.765 53.6951 111.649 53.7617 111.45C53.8284 111.251 53.7201 111.028 53.5202 110.97H53.5119L53.5036 110.961Z" fill="white"/>
<path d="M51.5565 110.274L50.9819 110.033H50.9736C50.782 109.951 50.5738 110.042 50.4989 110.241C50.4239 110.431 50.5155 110.647 50.6987 110.73L51.29 110.978C51.4815 111.061 51.6981 110.97 51.773 110.771C51.8479 110.58 51.7647 110.357 51.5731 110.274H51.5648H51.5565Z" fill="white"/>
<path d="M49.6659 109.42L49.1163 109.13H49.1079C48.9331 109.031 48.7165 109.105 48.6333 109.288C48.5417 109.47 48.6166 109.685 48.7832 109.777L49.3494 110.075C49.5243 110.166 49.7408 110.1 49.8324 109.917C49.924 109.735 49.8574 109.511 49.6825 109.42H49.6742H49.6659Z" fill="white"/>
<path d="M47.8498 108.409L47.3251 108.07C47.1669 107.962 46.9504 108.012 46.8505 108.177C46.7505 108.343 46.8005 108.559 46.9587 108.666L47.4917 109.023C47.6499 109.13 47.8664 109.081 47.9747 108.915C48.0746 108.749 48.033 108.525 47.8664 108.418L47.8498 108.409Z" fill="white"/>
<path d="M46.1425 107.225L45.6512 106.835H45.6429C45.493 106.711 45.2848 106.744 45.1765 106.893C45.0682 107.042 45.0932 107.258 45.2348 107.374L45.7345 107.78C45.8844 107.896 46.0925 107.871 46.2091 107.722C46.3257 107.573 46.3007 107.357 46.1508 107.233L46.1425 107.225Z" fill="white"/>
<path d="M44.5608 105.881L44.1111 105.442C43.9862 105.31 43.778 105.31 43.6531 105.442C43.5282 105.575 43.5365 105.782 43.6531 105.906L44.1111 106.362C44.236 106.495 44.4442 106.486 44.5691 106.362C44.694 106.229 44.694 106.014 44.5691 105.89V105.881H44.5608Z" fill="white"/>
<path d="M43.1203 104.365L42.7206 103.885C42.6123 103.744 42.4125 103.727 42.2792 103.843C42.146 103.959 42.1293 104.158 42.2459 104.291L42.654 104.796C42.7622 104.937 42.9621 104.954 43.0953 104.838C43.2286 104.722 43.2452 104.523 43.137 104.382V104.374L43.1203 104.365Z" fill="white"/>
<path d="M41.8381 102.709L41.4883 102.187C41.3967 102.037 41.2052 102.004 41.0719 102.104C40.9387 102.203 40.9054 102.394 40.997 102.535L41.3551 103.073C41.4467 103.214 41.6382 103.256 41.7798 103.156C41.9214 103.057 41.9547 102.866 41.8631 102.725V102.717L41.8381 102.709Z" fill="white"/>
<path d="M40.7214 100.927L40.4216 100.371C40.3466 100.222 40.1634 100.173 40.0302 100.247C39.8886 100.33 39.8386 100.504 39.9136 100.645L40.2134 101.217C40.2883 101.366 40.4715 101.416 40.6131 101.341C40.7547 101.258 40.8046 101.076 40.7297 100.935V100.927H40.7214Z" fill="white"/>
<path d="M39.7814 99.046L39.5315 98.466C39.4732 98.3168 39.3067 98.2422 39.1651 98.3085C39.0236 98.3748 38.9569 98.5405 39.0152 98.6814L39.2651 99.2863C39.3234 99.4355 39.4899 99.5017 39.6315 99.4437C39.773 99.3857 39.8397 99.2117 39.7814 99.0626V99.0543V99.046Z" fill="white"/>
<path d="M39.0308 97.0737L38.8476 96.4688C38.8059 96.3196 38.656 96.2368 38.5145 96.2782C38.3729 96.3197 38.2979 96.4771 38.3396 96.618L38.5228 97.2394C38.5644 97.3886 38.7143 97.4714 38.8642 97.4217C39.0058 97.3803 39.0891 97.2229 39.0474 97.0737V97.0654L39.0308 97.0737Z" fill="white"/>
<path d="M38.4805 95.0353L38.3556 94.4139C38.3306 94.2647 38.1891 94.1735 38.0558 94.1984C37.9143 94.2233 37.831 94.3641 37.856 94.505L37.9726 95.143C37.9975 95.2839 38.1391 95.3833 38.2807 95.3585C38.4222 95.3336 38.5138 95.1928 38.4889 95.0436V95.0353H38.4805Z" fill="white"/>
<path d="M38.1492 92.9389L38.0992 92.3091C38.0909 92.16 37.966 92.0606 37.8328 92.0688C37.6995 92.0771 37.5996 92.2014 37.6079 92.3423L37.6579 92.9969C37.6662 93.1378 37.7911 93.2455 37.9244 93.2289C38.0576 93.2123 38.1659 93.0963 38.1575 92.9555V92.9472L38.1492 92.9389Z" fill="white"/>
<path d="M38.0567 90.8256L38.0734 90.1875C38.0734 90.0467 37.9734 89.9307 37.8485 89.9307C37.7153 89.9307 37.607 90.0301 37.607 90.1627L37.582 90.8173C37.582 90.9499 37.682 91.0659 37.8069 91.0742C37.9401 91.0742 38.0484 90.9747 38.0567 90.8422V90.8339V90.8256Z" fill="white"/>
<path d="M38.2158 88.7129L38.3158 88.0832C38.3324 87.9506 38.2492 87.8263 38.1326 87.8097C38.0077 87.7932 37.8994 87.876 37.8744 88.0003L37.7662 88.6466C37.7412 88.7709 37.8244 88.8952 37.9494 88.9201C38.0743 88.9449 38.1909 88.8538 38.2158 88.7295V88.7212V88.7129Z" fill="white"/>
<path d="M38.6405 86.6491L38.8237 86.0442C38.857 85.9199 38.7904 85.7956 38.6822 85.7625C38.5739 85.7293 38.449 85.7956 38.4157 85.9033L38.2241 86.5248C38.1908 86.6408 38.2491 86.7651 38.3657 86.8066C38.4823 86.8397 38.5989 86.7817 38.6405 86.6574V86.6491Z" fill="white"/>
<path d="M171.331 78.5625C171.331 78.5625 173.147 74.1377 166.301 75.0326C159.464 75.9275 161.122 78.4963 160.58 80.5015C160.039 82.5068 157.166 84.7855 149.18 87.8846C141.194 90.9837 143.559 99.4274 147.148 102.236C150.737 105.037 152.694 103.173 153.527 108.012C154.36 112.851 157.691 116.779 161.846 112.677C166.002 108.575 170.715 103.728 169.399 97.3641C168.075 91.0002 169.574 92.21 172.147 89.285C174.721 86.3682 169.266 83.5426 171.323 78.5543L171.331 78.5625Z" fill="url(#paint39_linear_431_2535)"/>
<path d="M169.808 90.4041C170.891 89.3103 171.948 91.9453 172.231 92.5999C172.947 94.2655 173.68 95.7653 175.188 96.9088C176.12 97.6131 177.378 98.0689 178.552 97.7291C182.791 96.5028 182.807 93.122 182.907 90.5781C182.807 89.8572 183.24 89.1445 183.765 88.9208C184.373 88.6639 184.606 88.0342 184.606 88.0342C184.606 88.0342 185.022 88.9457 184.514 89.3766C184.34 89.5257 184.281 89.6997 184.29 89.8737C184.348 89.8654 184.415 89.8572 184.473 89.8489C185.747 89.6914 184.473 91.5061 184.473 91.5061C184.473 91.5061 185.705 98.1434 180.059 100.787C177.261 102.096 175.121 101.781 173.664 101.135C172.931 100.878 172.29 100.422 171.748 99.8338C171.532 99.6184 171.415 99.4692 171.415 99.4692V99.4444C169.158 96.5939 168.767 91.4481 169.808 90.3958V90.4041Z" fill="url(#paint40_linear_431_2535)"/>
<path d="M148.015 84.106C148.123 83.8988 148.431 83.932 148.489 84.1557C148.722 84.9843 149.28 86.4344 150.455 86.9482C150.496 86.9648 150.554 86.9647 150.596 86.9399C150.638 86.915 150.663 86.8653 150.663 86.8156C150.663 86.7162 150.629 86.6002 150.554 86.4924C150.396 86.2604 150.43 85.987 150.513 85.755C150.546 85.6555 150.646 85.5892 150.746 85.5809C150.854 85.5809 150.954 85.6389 150.996 85.7384C151.079 85.9207 151.204 86.1113 151.396 86.277C151.837 86.6416 152.045 87.4454 151.745 88.1083C151.112 90.5693 150.155 93.8175 153.869 96.1957C157.583 98.5738 162.804 91.7128 162.804 91.7128L163.038 97.9192C163.038 97.9192 156.209 102.833 151.554 98.6981C146.899 94.5633 149.98 88.5474 149.98 88.5474C149.98 88.5474 146.432 87.1222 148.006 84.1226L148.015 84.106Z" fill="url(#paint41_linear_431_2535)"/>
<path d="M169.757 89.9813C168.65 89.6499 165.419 89.0367 162.338 91.8623C161.813 92.3429 161.605 93.0721 161.788 93.7516C162.612 96.7761 164.794 105.709 162.879 109.578C162.879 109.578 166.243 113.274 169.916 110.291C169.916 110.291 171.565 103.148 173.721 100.008C175.212 97.845 171.348 91.8789 170.365 90.4371C170.216 90.2216 169.999 90.0559 169.749 89.9813H169.757Z" fill="url(#paint42_linear_431_2535)"/>
<path d="M166.693 83.9736C166.693 83.9736 165.053 88.5974 164.928 90.6358C164.928 90.6358 166.743 91.4561 168.45 90.0723C168.45 90.0723 168.634 85.4569 168.892 84.6282L166.693 83.9736Z" fill="url(#paint43_linear_431_2535)"/>
<path d="M170.224 79.3331C170.049 78.6867 169.541 78.173 168.883 77.999C168.009 77.767 166.785 77.5681 166.002 78.0156C164.678 78.7779 164.678 82.2001 164.678 82.2001C164.678 82.2001 166.368 87.147 169.325 86.2272C171.59 85.5229 170.74 81.2886 170.216 79.3331H170.224Z" fill="url(#paint44_linear_431_2535)"/>
<path d="M163.644 77.618C164.46 75.6707 166.984 76.2508 166.984 76.2508C166.984 76.2508 168.957 76.7148 169.232 77.6014C169.357 77.9992 168.799 78.3886 168.074 78.6952C166.459 79.383 165.285 80.8248 164.952 82.54L164.877 82.9378C164.877 82.9378 162.828 79.5653 163.636 77.618H163.644Z" fill="url(#paint45_linear_431_2535)"/>
<path d="M166.102 82.6813C166.102 82.6813 165.061 80.3528 164.061 81.3638C163.062 82.3747 164.861 83.8994 165.76 83.5265L166.102 82.6813Z" fill="url(#paint46_linear_431_2535)"/>
<path d="M174.213 125.297C174.197 125.621 174.771 128.198 175.088 129.565C175.213 130.12 175.129 130.692 174.846 131.189L164.062 149.253C163.929 149.468 163.837 149.709 163.779 149.957C163.579 150.802 163.171 152.882 163.388 154.772L163.946 155.923L161.531 155.377L161.006 148.93L161.689 148.515C162.28 148.159 162.738 147.621 163.004 146.983C163.979 144.621 166.402 138.622 167.027 135.697C167.735 132.374 171.449 129.673 171.449 129.673L170.799 128.14L174.23 125.289L174.213 125.297Z" fill="url(#paint47_linear_431_2535)"/>
<path d="M158.84 153.163C158.84 153.163 160.148 151.109 160.298 150.305C160.448 149.501 160.881 148.092 161.68 148.515C161.68 148.515 162.055 152.401 161.93 153.926C161.797 155.442 163.654 155.393 163.654 155.393C163.654 155.393 164.162 155.467 164.536 155.84C164.795 156.097 164.611 156.544 164.245 156.569C163.637 156.611 162.671 156.619 161.655 156.42C161.297 156.354 161.039 156.055 161.014 155.691L160.747 151.216L159.107 153.28L158.832 153.155L158.84 153.163Z" fill="url(#paint48_linear_431_2535)"/>
<path d="M167.776 128.173C167.776 128.173 167.393 144.331 167.343 146.626C167.293 148.921 167.709 154.009 170.016 155.526L169.008 156.263C169.008 156.263 167.751 155.202 166.518 153.156C165.136 150.86 164.72 150.438 164.72 150.438L165.178 149.502C165.377 149.095 165.436 148.631 165.344 148.184C164.844 145.781 163.179 137.776 162.721 136.053C162.188 134.014 162.146 131.305 164.012 129.026C165.877 126.756 167.759 128.164 167.759 128.164L167.776 128.173Z" fill="url(#paint49_linear_431_2535)"/>
<path d="M165.635 157.001C165.56 157.001 165.502 156.951 165.494 156.876C165.419 156.338 165.094 154.175 164.836 153.62C164.536 152.982 163.554 150.28 164.836 150.057C164.836 150.057 168.025 154.689 168.633 155.31C169.241 155.932 170.016 155.526 170.016 155.526C170.016 155.526 170.615 155.7 171.065 156.271C171.282 156.545 171.082 156.943 170.732 156.943L168.583 156.959C167.959 156.959 167.401 156.586 167.168 156.014C166.793 155.078 166.143 153.694 165.386 153.089L165.777 156.835C165.785 156.918 165.719 156.992 165.635 156.992V157.001Z" fill="url(#paint50_linear_431_2535)"/>
<path d="M170.441 108.551C170.441 108.551 169.958 110.084 170.699 112.611L175.304 128.629C175.379 128.877 175.238 129.142 174.996 129.233C173.614 129.722 169.084 131.114 162.896 130.692C162.588 130.667 162.322 130.451 162.255 130.145C161.847 128.322 160.456 122.091 160.173 120.806C159.082 115.926 157.866 110.672 163.221 107.49C165.694 108.543 167.993 109.164 170.433 108.551H170.441Z" fill="url(#paint51_linear_431_2535)"/>
<path d="M181.116 93.1881C180.991 92.9146 181.024 92.5583 181.049 92.2849C181.116 91.6303 181.107 90.9839 181.116 90.3293C181.141 88.6389 181.124 86.9402 181.266 85.2498C181.291 84.8852 181.257 84.5206 181.282 84.156C181.357 83.2363 181.898 82.9628 182.806 82.7722C183.572 82.6065 184.405 82.3828 185.196 82.5485C185.504 82.6148 185.804 82.7805 185.846 83.1037C186.004 84.4046 185.962 92.9561 184.38 93.1964C183.847 93.2792 183.314 93.3704 182.781 93.4615C182.406 93.5278 181.898 93.6687 181.515 93.5444C181.307 93.4781 181.182 93.3455 181.107 93.1881H181.116Z" fill="url(#paint52_linear_431_2535)"/>
<path d="M181.741 93.1881C181.616 92.9146 181.649 92.5583 181.674 92.2849C181.741 91.6303 181.732 90.9839 181.741 90.3293C181.766 88.6389 181.749 86.9402 181.891 85.2498C181.916 84.8852 181.882 84.5206 181.907 84.156C181.982 83.2363 182.523 82.9628 183.431 82.7722C184.197 82.6065 185.03 82.3828 185.821 82.5485C186.129 82.6148 186.429 82.7805 186.471 83.1037C186.629 84.4046 186.587 92.9561 185.005 93.1964C184.472 93.2792 183.939 93.3704 183.406 93.4615C183.031 93.5278 182.523 93.6687 182.14 93.5444C181.932 93.4781 181.807 93.3455 181.732 93.1881H181.741Z" fill="url(#paint53_linear_431_2535)"/>
<path d="M186.088 91.3155C186.088 91.3155 186.437 91.0835 186.72 89.6831C187.004 88.2827 187.287 87.4375 186.72 86.7912C186.154 86.1449 185.271 86.1117 185.271 86.7912C185.271 87.4707 185.421 88.7136 185.313 89.6831C185.213 90.6526 185.455 92.9479 186.079 91.3155H186.088Z" fill="url(#paint54_linear_431_2535)"/>
<path d="M164.286 77.1377C163.628 77.2786 162.995 77.5852 162.512 78.0658C162.279 78.3143 162.087 78.6127 161.971 78.9275L161.887 79.1761L161.838 79.433C161.804 79.607 161.788 79.7644 161.763 79.9302C161.521 81.2228 160.955 82.4658 160.097 83.4684C159.681 83.9739 159.189 84.4296 158.648 84.8108C158.107 85.192 157.507 85.482 156.899 85.7637C156.291 86.0454 155.683 86.3189 155.059 86.5592C154.434 86.8078 153.81 87.0398 153.16 87.2138C154.476 86.9321 155.742 86.4515 156.974 85.9211C157.59 85.656 158.207 85.366 158.765 84.9765C159.323 84.5953 159.831 84.1313 160.272 83.6093C161.13 82.5569 161.721 81.2891 161.929 79.955C161.954 79.7893 161.962 79.6153 161.987 79.4579L162.021 79.2176L162.087 78.9855C162.196 78.6789 162.362 78.3972 162.579 78.1486C163.02 77.6597 163.628 77.3283 164.269 77.146L164.286 77.1377Z" fill="#C0CFEB"/>
<path d="M146.922 91.1494C146.373 91.9449 145.99 92.8564 145.74 93.7927C145.49 94.7374 145.423 95.7234 145.54 96.6929C145.682 97.6624 146.031 98.5988 146.564 99.4191C146.706 99.618 146.839 99.8251 146.997 100.007C147.072 100.099 147.147 100.198 147.231 100.289L147.48 100.554C147.647 100.737 147.838 100.886 148.013 101.052C148.197 101.209 148.388 101.358 148.58 101.507C147.855 100.861 147.214 100.14 146.714 99.328C146.481 98.9137 146.256 98.4911 146.098 98.0436C145.94 97.5961 145.831 97.1321 145.765 96.6681C145.632 95.7317 145.698 94.7622 145.906 93.8342C146.006 93.3701 146.148 92.9061 146.314 92.4586C146.481 92.0112 146.681 91.572 146.914 91.1494H146.922Z" fill="#C0CFEB"/>
<path d="M194.815 62.4707H174.929C173.138 62.4707 171.689 63.9125 171.689 65.6941V70.7736C171.689 72.5551 173.138 73.9969 174.929 73.9969H181.075C181.225 73.9969 181.366 74.0881 181.433 74.2289L183.981 79.847C184.039 79.9713 184.156 80.0459 184.289 80.0542C184.422 80.0542 184.547 79.9879 184.614 79.8719L187.662 74.2041C187.728 74.0798 187.862 73.9969 188.003 73.9969H194.824C196.614 73.9969 198.063 72.5551 198.063 70.7736V65.6941C198.063 63.9125 196.614 62.4707 194.824 62.4707H194.815Z" fill="url(#paint55_linear_431_2535)"/>
<path d="M190.827 68.0974C190.827 70.1027 190.035 71.3622 188.536 71.3622C187.038 71.3622 186.313 70.053 186.305 68.1554C186.305 66.2165 187.137 64.9072 188.603 64.9072C190.069 64.9072 190.827 66.2496 190.827 68.0974ZM187.504 68.1554C187.496 69.6718 187.92 70.459 188.578 70.459C189.278 70.459 189.644 69.6138 189.644 68.114C189.644 66.6142 189.294 65.8104 188.578 65.8104C187.937 65.8104 187.496 66.5893 187.504 68.1554Z" fill="white"/>
<path d="M195.997 68.0974C195.997 70.1027 195.205 71.3622 193.706 71.3622C192.207 71.3622 191.483 70.053 191.475 68.1554C191.475 66.2165 192.307 64.9072 193.773 64.9072C195.239 64.9072 195.997 66.2496 195.997 68.0974ZM192.674 68.1554C192.665 69.6718 193.09 70.459 193.748 70.459C194.448 70.459 194.814 69.6138 194.814 68.114C194.814 66.6142 194.464 65.8104 193.748 65.8104C193.107 65.8104 192.665 66.5893 192.674 68.1554Z" fill="white"/>
<path d="M181.424 71.188V70.492L182.14 69.8373C183.564 68.5281 184.23 67.7989 184.239 67.0034C184.239 66.4648 183.947 65.9925 183.164 65.9925C182.631 65.9925 182.182 66.2577 181.874 66.4897L181.54 65.6859C181.973 65.3379 182.64 65.0645 183.397 65.0645C184.738 65.0645 185.388 65.9097 185.388 66.8874C185.388 67.9398 184.622 68.7933 183.572 69.7628L183.039 70.2185V70.2351H185.521V71.1797H181.424V71.188Z" fill="white"/>
<path d="M178.5 66.7052C178.5 67.5006 177.859 68.3541 177.06 68.3541C176.26 68.3541 175.619 67.5006 175.619 66.7052C175.619 65.9097 176.26 65.3545 177.06 65.3545C177.859 65.3545 178.5 65.918 178.5 66.7052Z" fill="white"/>
<path d="M175.269 71.3954H178.784C179.15 71.3954 179.483 71.1551 179.591 70.807L179.783 70.2187C179.924 69.7878 179.7 69.3238 179.267 69.1664C177.834 68.6443 176.36 68.7106 174.845 69.2161C174.42 69.3569 174.187 69.8044 174.303 70.2353L174.445 70.7656C174.545 71.1385 174.878 71.3871 175.269 71.3871V71.3954Z" fill="white"/>
<path d="M37.8323 77.3691H1.31576C0.589086 77.3691 0 77.9553 0 78.6784V78.8192C0 79.5423 0.589086 80.1285 1.31576 80.1285H37.8323C38.559 80.1285 39.148 79.5423 39.148 78.8192V78.6784C39.148 77.9553 38.559 77.3691 37.8323 77.3691Z" fill="#C0CFEB"/>
<path d="M33.0605 88.5146H9.07705C8.42396 88.5146 7.89453 89.0415 7.89453 89.6913V89.7824C7.89453 90.4323 8.42396 90.9591 9.07705 90.9591H33.0605C33.7136 90.9591 34.2431 90.4323 34.2431 89.7824V89.6913C34.2431 89.0415 33.7136 88.5146 33.0605 88.5146Z" fill="#C0CFEB"/>
<path d="M40.7383 83.3105H16.7548C16.1017 83.3105 15.5723 83.8373 15.5723 84.4872V84.5783C15.5723 85.2282 16.1017 85.755 16.7548 85.755H40.7383C41.3914 85.755 41.9208 85.2282 41.9208 84.5783V84.4872C41.9208 83.8373 41.3914 83.3105 40.7383 83.3105Z" fill="#C0CFEB"/>
<path d="M228.749 87.2881H194.232C193.542 87.2881 192.982 87.8446 192.982 88.531V88.6968C192.982 89.3832 193.542 89.9397 194.232 89.9397H228.749C229.439 89.9397 229.999 89.3832 229.999 88.6968V88.531C229.999 87.8446 229.439 87.2881 228.749 87.2881Z" fill="#C0CFEB"/>
<path d="M220.656 95.4668H197.946C197.326 95.4668 196.822 95.9676 196.822 96.5854V96.6849C196.822 97.3027 197.326 97.8035 197.946 97.8035H220.656C221.277 97.8035 221.78 97.3027 221.78 96.6849V96.5854C221.78 95.9676 221.277 95.4668 220.656 95.4668Z" fill="#C0CFEB"/>
<path d="M213.836 91.6465H191.126C190.505 91.6465 190.002 92.1473 190.002 92.7651V92.8646C190.002 93.4824 190.505 93.9832 191.126 93.9832H213.836C214.456 93.9832 214.96 93.4824 214.96 92.8646V92.7651C214.96 92.1473 214.456 91.6465 213.836 91.6465Z" fill="#C0CFEB"/>
</g>
<defs>
<linearGradient id="paint0_linear_431_2535" x1="1.88204" y1="88.3485" x2="226.311" y2="88.3485" gradientUnits="userSpaceOnUse">
<stop stop-color="#DBE2F3"/>
<stop offset="1" stop-color="#EAEFF8"/>
</linearGradient>
<linearGradient id="paint1_linear_431_2535" x1="241.359" y1="48.6936" x2="64.3423" y2="2.64205" gradientUnits="userSpaceOnUse">
<stop stop-color="#4C57A6"/>
<stop offset="1" stop-color="#5560AB"/>
</linearGradient>
<linearGradient id="paint2_linear_431_2535" x1="195.792" y1="86.729" x2="18.7756" y2="40.6774" gradientUnits="userSpaceOnUse">
<stop stop-color="#4C57A6"/>
<stop offset="1" stop-color="#5560AB"/>
</linearGradient>
<linearGradient id="paint3_linear_431_2535" x1="175.094" y1="19.7256" x2="-1.92249" y2="-26.3175" gradientUnits="userSpaceOnUse">
<stop stop-color="#4C57A6"/>
<stop offset="1" stop-color="#5560AB"/>
</linearGradient>
<linearGradient id="paint4_linear_431_2535" x1="234.122" y1="51.913" x2="57.1049" y2="5.86979" gradientUnits="userSpaceOnUse">
<stop stop-color="#4C57A6"/>
<stop offset="1" stop-color="#5560AB"/>
</linearGradient>
<linearGradient id="paint5_linear_431_2535" x1="174.491" y1="28.075" x2="-2.52617" y2="-17.9765" gradientUnits="userSpaceOnUse">
<stop stop-color="#4C57A6"/>
<stop offset="1" stop-color="#5560AB"/>
</linearGradient>
<linearGradient id="paint6_linear_431_2535" x1="209.846" y1="46.4953" x2="32.8287" y2="0.443734" gradientUnits="userSpaceOnUse">
<stop stop-color="#4C57A6"/>
<stop offset="1" stop-color="#5560AB"/>
</linearGradient>
<linearGradient id="paint7_linear_431_2535" x1="214.241" y1="31.6727" x2="37.2246" y2="-14.3788" gradientUnits="userSpaceOnUse">
<stop stop-color="#4C57A6"/>
<stop offset="1" stop-color="#5560AB"/>
</linearGradient>
<linearGradient id="paint8_linear_431_2535" x1="208.024" y1="76.4497" x2="31.0156" y2="30.3982" gradientUnits="userSpaceOnUse">
<stop stop-color="#4C57A6"/>
<stop offset="1" stop-color="#5560AB"/>
</linearGradient>
<linearGradient id="paint9_linear_431_2535" x1="221.734" y1="30.2083" x2="44.7251" y2="-15.8432" gradientUnits="userSpaceOnUse">
<stop stop-color="#4C57A6"/>
<stop offset="1" stop-color="#5560AB"/>
</linearGradient>
<linearGradient id="paint10_linear_431_2535" x1="226.573" y1="24.2869" x2="49.5559" y2="-21.7562" gradientUnits="userSpaceOnUse">
<stop stop-color="#4C57A6"/>
<stop offset="1" stop-color="#5560AB"/>
</linearGradient>
<linearGradient id="paint11_linear_431_2535" x1="200.706" y1="41.7892" x2="23.6891" y2="-4.26233" gradientUnits="userSpaceOnUse">
<stop stop-color="#4C57A6"/>
<stop offset="1" stop-color="#5560AB"/>
</linearGradient>
<linearGradient id="paint12_linear_431_2535" x1="198.782" y1="58.6891" x2="21.7734" y2="12.6376" gradientUnits="userSpaceOnUse">
<stop stop-color="#4C57A6"/>
<stop offset="1" stop-color="#5560AB"/>
</linearGradient>
<linearGradient id="paint13_linear_431_2535" x1="195.804" y1="74.2741" x2="18.787" y2="28.2226" gradientUnits="userSpaceOnUse">
<stop stop-color="#4C57A6"/>
<stop offset="1" stop-color="#5560AB"/>
</linearGradient>
<linearGradient id="paint14_linear_431_2535" x1="224.041" y1="61.5284" x2="47.0244" y2="15.4852" gradientUnits="userSpaceOnUse">
<stop stop-color="#4C57A6"/>
<stop offset="1" stop-color="#5560AB"/>
</linearGradient>
<linearGradient id="paint15_linear_431_2535" x1="182.516" y1="121.982" x2="192.767" y2="121.982" gradientUnits="userSpaceOnUse">
<stop stop-color="#4C57A6"/>
<stop offset="1" stop-color="#5560AB"/>
</linearGradient>
<linearGradient id="paint16_linear_431_2535" x1="196.517" y1="130.654" x2="204.19" y2="132.466" gradientUnits="userSpaceOnUse">
<stop stop-color="#4C57A6"/>
<stop offset="1" stop-color="#5560AB"/>
</linearGradient>
<linearGradient id="paint17_linear_431_2535" x1="34.7758" y1="116.655" x2="44.6089" y2="114.542" gradientUnits="userSpaceOnUse">
<stop stop-color="#4C57A6"/>
<stop offset="1" stop-color="#5560AB"/>
</linearGradient>
<linearGradient id="paint18_linear_431_2535" x1="23.6131" y1="130.725" x2="32.5372" y2="128.56" gradientUnits="userSpaceOnUse">
<stop stop-color="#4C57A6"/>
<stop offset="1" stop-color="#5560AB"/>
</linearGradient>
<linearGradient id="paint19_linear_431_2535" x1="105.168" y1="151.001" x2="120.515" y2="31.7424" gradientUnits="userSpaceOnUse">
<stop stop-color="#E1483D"/>
<stop offset="1" stop-color="#E9625A"/>
</linearGradient>
<linearGradient id="paint20_linear_431_2535" x1="106.894" y1="133.674" x2="126.331" y2="-5.13074" gradientUnits="userSpaceOnUse">
<stop stop-color="#F37064"/>
<stop offset="1" stop-color="#F5928F"/>
</linearGradient>
<linearGradient id="paint21_linear_431_2535" x1="41.8704" y1="71.0296" x2="37.2613" y2="80.8086" gradientUnits="userSpaceOnUse">
<stop stop-color="#F37064"/>
<stop offset="1" stop-color="#F5928F"/>
</linearGradient>
<linearGradient id="paint22_linear_431_2535" x1="43.2944" y1="53.0071" x2="63.9431" y2="139.827" gradientUnits="userSpaceOnUse">
<stop stop-color="#4C57A6"/>
<stop offset="1" stop-color="#5560AB"/>
</linearGradient>
<linearGradient id="paint23_linear_431_2535" x1="71.0837" y1="171.434" x2="71.4382" y2="160.935" gradientUnits="userSpaceOnUse">
<stop stop-color="#4C57A6"/>
<stop offset="1" stop-color="#5560AB"/>
</linearGradient>
<linearGradient id="paint24_linear_431_2535" x1="83.6251" y1="144.57" x2="61.9726" y2="161.653" gradientUnits="userSpaceOnUse">
<stop stop-color="#E1483D"/>
<stop offset="1" stop-color="#E9625A"/>
</linearGradient>
<linearGradient id="paint25_linear_431_2535" x1="70.6664" y1="144.827" x2="71.8374" y2="155.07" gradientUnits="userSpaceOnUse">
<stop stop-color="#F5928F"/>
<stop offset="1" stop-color="#F8B2B1"/>
</linearGradient>
<linearGradient id="paint26_linear_431_2535" x1="50.6392" y1="149.609" x2="71.5782" y2="166.133" gradientUnits="userSpaceOnUse">
<stop stop-color="#E1483D"/>
<stop offset="1" stop-color="#E9625A"/>
</linearGradient>
<linearGradient id="paint27_linear_431_2535" x1="56.7026" y1="177.922" x2="56.348" y2="167.424" gradientUnits="userSpaceOnUse">
<stop stop-color="#4C57A6"/>
<stop offset="1" stop-color="#5560AB"/>
</linearGradient>
<linearGradient id="paint28_linear_431_2535" x1="58.2418" y1="146.136" x2="59.3303" y2="155.725" gradientUnits="userSpaceOnUse">
<stop stop-color="#F5928F"/>
<stop offset="1" stop-color="#F8B2B1"/>
</linearGradient>
<linearGradient id="paint29_linear_431_2535" x1="65.0545" y1="145.83" x2="63.7435" y2="104.556" gradientUnits="userSpaceOnUse">
<stop stop-color="#201B59"/>
<stop offset="1" stop-color="#2D2D84"/>
</linearGradient>
<linearGradient id="paint30_linear_431_2535" x1="57.226" y1="49.7086" x2="77.8664" y2="136.512" gradientUnits="userSpaceOnUse">
<stop stop-color="#4C57A6"/>
<stop offset="1" stop-color="#5560AB"/>
</linearGradient>
<linearGradient id="paint31_linear_431_2535" x1="66.4128" y1="72.7614" x2="67.3033" y2="85.092" gradientUnits="userSpaceOnUse">
<stop stop-color="#F5928F"/>
<stop offset="1" stop-color="#F8B2B1"/>
</linearGradient>
<linearGradient id="paint32_linear_431_2535" x1="65.038" y1="47.8443" x2="85.6784" y2="134.656" gradientUnits="userSpaceOnUse">
<stop stop-color="#4C57A6"/>
<stop offset="1" stop-color="#5560AB"/>
</linearGradient>
<linearGradient id="paint33_linear_431_2535" x1="68.5434" y1="106.743" x2="77.914" y2="114.794" gradientUnits="userSpaceOnUse">
<stop stop-color="#F5928F"/>
<stop offset="1" stop-color="#F8B2B1"/>
</linearGradient>
<linearGradient id="paint34_linear_431_2535" x1="49.3106" y1="77.3212" x2="44.1165" y2="79.521" gradientUnits="userSpaceOnUse">
<stop stop-color="#201B59"/>
<stop offset="1" stop-color="#2D2D84"/>
</linearGradient>
<linearGradient id="paint35_linear_431_2535" x1="44.1014" y1="78.0317" x2="44.4889" y2="84.3212" gradientUnits="userSpaceOnUse">
<stop stop-color="#F5928F"/>
<stop offset="1" stop-color="#F8B2B1"/>
</linearGradient>
<linearGradient id="paint36_linear_431_2535" x1="71.1433" y1="71.3118" x2="59.0267" y2="77.5256" gradientUnits="userSpaceOnUse">
<stop stop-color="#F5928F"/>
<stop offset="1" stop-color="#F8B2B1"/>
</linearGradient>
<linearGradient id="paint37_linear_431_2535" x1="69.2225" y1="76.0579" x2="58.8171" y2="74.3698" gradientUnits="userSpaceOnUse">
<stop stop-color="#201B59"/>
<stop offset="1" stop-color="#2D2D84"/>
</linearGradient>
<linearGradient id="paint38_linear_431_2535" x1="74.1286" y1="83.2" x2="68.4585" y2="75.0969" gradientUnits="userSpaceOnUse">
<stop stop-color="#F5928F"/>
<stop offset="1" stop-color="#F8B2B1"/>
</linearGradient>
<linearGradient id="paint39_linear_431_2535" x1="151.662" y1="112.702" x2="163.563" y2="76.6876" gradientUnits="userSpaceOnUse">
<stop stop-color="#201B59"/>
<stop offset="1" stop-color="#2D2D84"/>
</linearGradient>
<linearGradient id="paint40_linear_431_2535" x1="170.416" y1="84.4628" x2="182.692" y2="99.6285" gradientUnits="userSpaceOnUse">
<stop stop-color="#F5928F"/>
<stop offset="1" stop-color="#F8B2B1"/>
</linearGradient>
<linearGradient id="paint41_linear_431_2535" x1="144.359" y1="79.59" x2="161.154" y2="100.338" gradientUnits="userSpaceOnUse">
<stop stop-color="#F5928F"/>
<stop offset="1" stop-color="#F8B2B1"/>
</linearGradient>
<linearGradient id="paint42_linear_431_2535" x1="173.498" y1="146.806" x2="179.328" y2="196.77" gradientUnits="userSpaceOnUse">
<stop stop-color="#4C57A6"/>
<stop offset="1" stop-color="#5560AB"/>
</linearGradient>
<linearGradient id="paint43_linear_431_2535" x1="168.3" y1="84.3299" x2="164.843" y2="96.4205" gradientUnits="userSpaceOnUse">
<stop stop-color="#F5928F"/>
<stop offset="1" stop-color="#F8B2B1"/>
</linearGradient>
<linearGradient id="paint44_linear_431_2535" x1="167.259" y1="74.6348" x2="168.026" y2="86.9735" gradientUnits="userSpaceOnUse">
<stop stop-color="#F5928F"/>
<stop offset="1" stop-color="#F8B2B1"/>
</linearGradient>
<linearGradient id="paint45_linear_431_2535" x1="154.451" y1="113.63" x2="166.36" y2="77.6157" gradientUnits="userSpaceOnUse">
<stop stop-color="#201B59"/>
<stop offset="1" stop-color="#2D2D84"/>
</linearGradient>
<linearGradient id="paint46_linear_431_2535" x1="168.912" y1="23.2941" x2="168.012" y2="35.6157" gradientUnits="userSpaceOnUse">
<stop stop-color="#F5928F"/>
<stop offset="1" stop-color="#F8B2B1"/>
</linearGradient>
<linearGradient id="paint47_linear_431_2535" x1="167.901" y1="137.901" x2="169.69" y2="157.814" gradientUnits="userSpaceOnUse">
<stop stop-color="#F5928F"/>
<stop offset="1" stop-color="#F8B2B1"/>
</linearGradient>
<linearGradient id="paint48_linear_431_2535" x1="158.611" y1="152.898" x2="164.407" y2="152.843" gradientUnits="userSpaceOnUse">
<stop stop-color="#4C57A6"/>
<stop offset="1" stop-color="#5560AB"/>
</linearGradient>
<linearGradient id="paint49_linear_431_2535" x1="170.999" y1="125.281" x2="165.364" y2="147.65" gradientUnits="userSpaceOnUse">
<stop stop-color="#F5928F"/>
<stop offset="1" stop-color="#F8B2B1"/>
</linearGradient>
<linearGradient id="paint50_linear_431_2535" x1="163.992" y1="153.883" x2="170.895" y2="153.818" gradientUnits="userSpaceOnUse">
<stop stop-color="#4C57A6"/>
<stop offset="1" stop-color="#5560AB"/>
</linearGradient>
<linearGradient id="paint51_linear_431_2535" x1="169.858" y1="131.346" x2="163.967" y2="111.029" gradientUnits="userSpaceOnUse">
<stop stop-color="#201B59"/>
<stop offset="1" stop-color="#2D2D84"/>
</linearGradient>
<linearGradient id="paint52_linear_431_2535" x1="183.414" y1="89.3515" x2="183.035" y2="98.4169" gradientUnits="userSpaceOnUse">
<stop stop-color="#293882"/>
<stop offset="1" stop-color="#171042"/>
</linearGradient>
<linearGradient id="paint53_linear_431_2535" x1="179.267" y1="82.1756" x2="187.181" y2="91.9505" gradientUnits="userSpaceOnUse">
<stop stop-color="#293882"/>
<stop offset="1" stop-color="#171042"/>
</linearGradient>
<linearGradient id="paint54_linear_431_2535" x1="183.623" y1="86.2277" x2="187.323" y2="90.8032" gradientUnits="userSpaceOnUse">
<stop stop-color="#F5928F"/>
<stop offset="1" stop-color="#F8B2B1"/>
</linearGradient>
<linearGradient id="paint55_linear_431_2535" x1="183.881" y1="74.3284" x2="180.046" y2="98.2403" gradientUnits="userSpaceOnUse">
<stop stop-color="#F37064"/>
<stop offset="0.53" stop-color="#F37165"/>
<stop offset="0.72" stop-color="#F3766C"/>
<stop offset="0.86" stop-color="#F38078"/>
<stop offset="0.97" stop-color="#F48D89"/>
<stop offset="1" stop-color="#F5928F"/>
</linearGradient>
<clipPath id="clip0_431_2535">
<rect width="230" height="157" fill="white"/>
</clipPath>
</defs>
</svg>
