<svg width="175" height="86" viewBox="0 0 175 86" fill="none" xmlns="http://www.w3.org/2000/svg">
<g clip-path="url(#clip0_229_2556)">
<path d="M34.2771 31.14C34.2771 31.14 43.0643 27.6253 43.0643 19.5547V13.5813C43.0643 13.5813 43.1786 1.40299 25.7186 1.40299C25.7186 1.40299 0.271552 1.17157 0.400144 1.28728V65.5486H24.2183C24.2183 65.5486 45.7218 65.8668 45.7218 51.3889V41.5537C45.7218 41.5537 45.1503 31.14 34.2771 31.14ZM11.2591 10.1823V9.35792H23.4039C23.4039 9.35792 32.191 9.43023 32.191 18.253C32.191 27.6542 23.5182 27.741 23.5182 27.741H11.2591V10.1823ZM25.3042 56.6536H11.7306V36.289H25.1756C25.1756 36.289 34.9058 36.0865 34.9058 46.1386C34.9058 57.1598 25.3042 56.6391 25.3042 56.6391V56.6536Z" fill="#ED2B38"/>
<path d="M99.4876 14.9842L106.017 8.37437C106.017 8.37437 101.331 0 86.6426 0C71.9545 0 56.5806 7.37639 56.5806 33.3673C56.5806 59.3582 72.9975 66.6044 86.5283 66.6044C100.059 66.6044 106.417 58.6495 106.417 58.6495V30.9085H84.328V39.8036H96.0013V53.9633C96.0013 53.9633 67.6681 66.9516 67.6681 33.3673C67.6681 -0.216952 98.2017 10.5439 99.4733 14.9842H99.4876Z" fill="#ED2B38"/>
<path d="M147.481 0.347452C147.481 0.347452 119.148 -1.79315 119.148 33.3532C119.148 68.4995 146.552 66.5903 146.552 66.5903C146.552 66.5903 175 67.1688 175 32.6445C175 -1.87993 147.481 0.347452 147.481 0.347452ZM146.21 57.3481C141.694 57.3481 130.593 54.3108 130.593 31.8345C130.593 9.35822 146.895 9.70534 146.895 9.70534C146.895 9.70534 163.541 7.95526 163.541 33.5846C163.541 59.2139 146.195 57.3481 146.195 57.3481H146.21Z" fill="#ED2B38"/>
<path d="M0 75.9189H1.08589V83.7292H0V75.9189ZM0.528658 75.9189H4.95795V76.9603H0.528658V75.9189ZM0.528658 79.3323H4.37214V80.3737H0.528658V79.3323ZM0.528658 82.6879H4.95795V83.7292H0.528658V82.6879Z" fill="#231F20"/>
<path d="M7.54419 75.9189H8.53006L12.3021 81.9647L12.1735 82.1093V75.9334H13.2451V83.7437H12.2592L8.50149 77.7992L8.63008 77.6546V83.7437H7.55848V75.9334L7.54419 75.9189Z" fill="#231F20"/>
<path d="M16.217 75.9189H17.3029V83.7292H16.217V75.9189ZM16.9457 82.6879H18.6889C19.2604 82.6879 19.7033 82.5432 20.0177 82.2395C20.332 81.9358 20.4892 81.5163 20.4892 80.9812V78.6815C20.4892 78.1319 20.332 77.7124 20.0177 77.4087C19.7033 77.105 19.2604 76.9603 18.6889 76.9603H16.9457V75.9189H18.6603C19.2747 75.9189 19.8033 76.0347 20.2463 76.2516C20.6892 76.4686 21.0178 76.7868 21.2464 77.2062C21.475 77.6256 21.5893 78.1319 21.5893 78.7249V80.9378C21.5893 81.5308 21.475 82.037 21.2464 82.4564C21.0178 82.8759 20.6749 83.1941 20.2463 83.411C19.8033 83.628 19.2747 83.7437 18.6603 83.7437H16.9457V82.7023V82.6879Z" fill="#231F20"/>
<path d="M25.3327 83.4692C24.9326 83.2377 24.6183 82.9051 24.4039 82.4712C24.1896 82.0373 24.0896 81.5166 24.0896 80.8947V75.9047H25.1755V80.9236C25.1755 81.4877 25.3184 81.936 25.6041 82.2398C25.8899 82.5435 26.29 82.7026 26.8043 82.7026C27.3187 82.7026 27.7331 82.5435 28.0045 82.2398C28.2903 81.9216 28.4332 81.4877 28.4332 80.9236V75.9047H29.5191V80.8947C29.5191 81.5021 29.419 82.0373 29.2047 82.4712C28.9904 82.9051 28.6761 83.2377 28.276 83.4692C27.8759 83.7006 27.3758 83.8163 26.8043 83.8163C26.2328 83.8163 25.747 83.7006 25.3469 83.4692H25.3327ZM25.1755 74.1836H26.2614V75.2828H25.1755V74.1836ZM27.3473 74.1836H28.4332V75.2828H27.3473V74.1836Z" fill="#231F20"/>
<path d="M33.4197 83.7002C33.091 83.6279 32.7767 83.5266 32.4909 83.382C32.2052 83.2373 31.9337 83.0638 31.6765 82.8468L32.3481 82.0079C32.6481 82.2683 32.9624 82.4563 33.3196 82.5865C33.6768 82.7167 34.0626 82.7745 34.477 82.7745C35.0342 82.7745 35.4628 82.6733 35.7772 82.4563C36.0772 82.2538 36.2344 81.9501 36.2344 81.574C36.2344 81.2992 36.163 81.0823 36.0201 80.9232C35.8772 80.7641 35.7057 80.6484 35.4771 80.5616C35.2485 80.4893 34.9628 80.417 34.6199 80.3446H34.5913H34.5627H34.477C33.9626 80.2434 33.534 80.1422 33.2196 80.0265C32.9053 79.9107 32.6195 79.7083 32.3909 79.4045C32.1623 79.1008 32.048 78.6813 32.048 78.1317C32.048 77.64 32.148 77.235 32.3623 76.8879C32.5767 76.5407 32.891 76.2804 33.3053 76.1068C33.7197 75.9333 34.2055 75.832 34.7913 75.832C35.0628 75.832 35.3343 75.861 35.6057 75.9188C35.8772 75.9767 36.1344 76.0634 36.3916 76.1936C36.6488 76.3093 36.9059 76.4684 37.1631 76.642L36.5487 77.5098C36.2487 77.2928 35.9629 77.1337 35.6629 77.018C35.3771 76.9023 35.0771 76.8589 34.7913 76.8589C34.2627 76.8589 33.8483 76.9602 33.5625 77.1771C33.2768 77.3941 33.1196 77.6978 33.1196 78.0883C33.1196 78.3631 33.191 78.5801 33.3482 78.7247C33.5054 78.8694 33.6911 78.9851 33.9054 79.0719C34.1198 79.1586 34.4484 79.2165 34.8485 79.3033C34.8485 79.3033 34.877 79.3033 34.8913 79.3033C34.8913 79.3033 34.9199 79.3033 34.9342 79.3033C34.9485 79.3033 34.9771 79.3033 34.9913 79.3033C35.0056 79.3033 35.0342 79.3033 35.0485 79.3033C35.52 79.4045 35.9058 79.5202 36.2201 79.6504C36.5344 79.7806 36.7916 79.9975 37.006 80.2868C37.2203 80.5905 37.3203 80.981 37.3203 81.5017C37.3203 81.9935 37.206 82.3985 36.9917 82.7311C36.7631 83.0638 36.4487 83.3241 36.0201 83.5122C35.5914 83.6857 35.0914 83.7725 34.4913 83.7725C34.1198 83.7725 33.7626 83.7436 33.4339 83.6712L33.4197 83.7002Z" fill="#231F20"/>
<path d="M38.835 75.9189H44.2787V76.9603H38.835V75.9189ZM41.021 76.5553H42.1069V83.7292H41.021V76.5553Z" fill="#231F20"/>
<path d="M46.4075 75.9189H47.4934V83.7292H46.4075V75.9189ZM46.879 79.3902H49.508C49.708 79.3902 49.8938 79.3323 50.0509 79.2456C50.2081 79.1588 50.3367 78.9997 50.4224 78.8261C50.5081 78.6525 50.551 78.4356 50.551 78.1897C50.551 77.9438 50.5081 77.7413 50.4224 77.5533C50.3367 77.3653 50.2081 77.2207 50.0509 77.1339C49.8938 77.0326 49.708 76.9892 49.508 76.9892H46.879V75.9479H49.4651C49.908 75.9479 50.3081 76.0347 50.6367 76.2227C50.9796 76.4107 51.2368 76.671 51.4226 77.0182C51.6083 77.3653 51.7083 77.7558 51.7083 78.2042C51.7083 78.6525 51.6083 79.0431 51.4226 79.3902C51.2368 79.7373 50.9654 79.9976 50.6367 80.1857C50.3081 80.3737 49.908 80.4605 49.4651 80.4605H46.879V79.4191V79.3902ZM48.9793 80.1857L50.0509 79.9398L52.0227 83.7292H50.7367L48.965 80.1857H48.9793Z" fill="#231F20"/>
<path d="M54.5374 74.1836H55.6232V75.2828H54.5374V74.1836ZM55.6232 83.7295H54.5374V75.9192H55.6232V83.7295Z" fill="#231F20"/>
<path d="M61.1243 80.5617V83.7437H60.0384V80.5617L57.6809 75.9189H58.8811L60.5671 79.448L62.2531 75.9189H63.4533L61.0958 80.5617H61.1243Z" fill="#231F20"/>
<path d="M65.3821 75.9189H66.468V83.7292H65.3821V75.9189ZM65.9107 75.9189H70.34V76.9603H65.9107V75.9189ZM65.9107 79.3323H69.7542V80.3737H65.9107V79.3323ZM65.9107 82.6879H70.34V83.7292H65.9107V82.6879Z" fill="#231F20"/>
<path d="M72.9263 75.9189H74.0122V83.7292H72.9263V75.9189ZM73.4692 82.6879H77.8842V83.7292H73.4692V82.6879Z" fill="#231F20"/>
<path d="M84.1851 74.1836H85.271V75.2828H84.1851V74.1836ZM85.271 83.7295H84.1851V75.9192H85.271V83.7295Z" fill="#231F20"/>
<path d="M88.2288 75.9189H89.2146L92.9867 81.9647L92.8581 82.1093V75.9334H93.9297V83.7437H92.9438L89.1861 77.7992L89.3146 77.6546V83.7437H88.243V75.9334L88.2288 75.9189Z" fill="#231F20"/>
<path d="M98.0302 83.4551C97.6158 83.2092 97.3015 82.8766 97.0729 82.4426C96.8443 82.0087 96.73 81.5025 96.73 80.924V78.7111C96.73 78.1325 96.8443 77.6263 97.0729 77.1924C97.3015 76.7585 97.6158 76.4258 98.0302 76.1799C98.4446 75.9485 98.9161 75.8184 99.459 75.8184C100.002 75.8184 100.473 75.9341 100.888 76.1799C101.302 76.4258 101.616 76.7585 101.845 77.1924C102.074 77.6263 102.188 78.1325 102.188 78.7111V80.924C102.188 81.5025 102.074 82.0087 101.845 82.4426C101.616 82.8766 101.302 83.2092 100.888 83.4551C100.473 83.701 100.002 83.8167 99.459 83.8167C98.9161 83.8167 98.4446 83.701 98.0302 83.4551ZM100.288 82.515C100.531 82.3703 100.716 82.1678 100.845 81.893C100.974 81.6182 101.045 81.3145 101.045 80.9674V78.6821C101.045 78.335 100.974 78.0168 100.845 77.7565C100.716 77.4961 100.531 77.2792 100.288 77.1345C100.045 76.9899 99.759 76.9176 99.4447 76.9176C99.1304 76.9176 98.8446 76.9899 98.6017 77.1345C98.3588 77.2792 98.1731 77.4817 98.0445 77.7565C97.9159 78.0313 97.8445 78.335 97.8445 78.6821V80.9674C97.8445 81.3145 97.9159 81.6327 98.0445 81.893C98.1731 82.1534 98.3588 82.3703 98.6017 82.515C98.8446 82.6596 99.1304 82.7319 99.4447 82.7319C99.759 82.7319 100.045 82.6596 100.288 82.515Z" fill="#231F20"/>
<path d="M104.174 75.9189H105.36L107.217 82.0515L109.075 75.9189H110.246L107.732 83.7292H106.703L104.188 75.9189H104.174Z" fill="#231F20"/>
<path d="M114.033 75.9189H114.962L117.805 83.7292H116.633L114.49 77.4231L112.347 83.7292H111.175L114.019 75.9189H114.033ZM112.504 80.9812H116.562V82.0225H112.504V80.9812Z" fill="#231F20"/>
<path d="M120.848 83.7002C120.52 83.6279 120.205 83.5266 119.92 83.382C119.634 83.2373 119.362 83.0638 119.105 82.8468L119.777 82.0079C120.077 82.2683 120.391 82.4563 120.748 82.5865C121.106 82.7167 121.491 82.7745 121.906 82.7745C122.463 82.7745 122.892 82.6733 123.206 82.4563C123.506 82.2538 123.663 81.9501 123.663 81.574C123.663 81.2992 123.592 81.0823 123.449 80.9232C123.306 80.7641 123.134 80.6484 122.906 80.5616C122.677 80.4893 122.391 80.417 122.049 80.3446H122.02H121.991H121.906C121.391 80.2434 120.963 80.1422 120.648 80.0265C120.334 79.9107 120.048 79.7083 119.82 79.4045C119.591 79.1008 119.477 78.6813 119.477 78.1317C119.477 77.64 119.577 77.235 119.791 76.8879C120.005 76.5407 120.32 76.2804 120.734 76.1068C121.148 75.9333 121.634 75.832 122.22 75.832C122.491 75.832 122.763 75.861 123.034 75.9188C123.306 75.9767 123.563 76.0634 123.82 76.1936C124.077 76.3093 124.335 76.4684 124.592 76.642L123.977 77.5098C123.677 77.2928 123.392 77.1337 123.092 77.018C122.806 76.9023 122.506 76.8589 122.22 76.8589C121.691 76.8589 121.277 76.9602 120.991 77.1771C120.705 77.3941 120.548 77.6978 120.548 78.0883C120.548 78.3631 120.62 78.5801 120.777 78.7247C120.934 78.8694 121.12 78.9851 121.334 79.0719C121.548 79.1586 121.877 79.2165 122.277 79.3033C122.277 79.3033 122.306 79.3033 122.32 79.3033C122.32 79.3033 122.349 79.3033 122.363 79.3033C122.377 79.3033 122.406 79.3033 122.42 79.3033C122.434 79.3033 122.463 79.3033 122.477 79.3033C122.949 79.4045 123.334 79.5202 123.649 79.6504C123.963 79.7806 124.22 79.9975 124.435 80.2868C124.649 80.5905 124.749 80.981 124.749 81.5017C124.749 81.9935 124.635 82.3985 124.42 82.7311C124.192 83.0638 123.877 83.3241 123.449 83.5122C123.02 83.6857 122.52 83.7725 121.92 83.7725C121.548 83.7725 121.191 83.7436 120.863 83.6712L120.848 83.7002Z" fill="#231F20"/>
<path d="M129.664 80.5617V83.7437H128.578V80.5617L126.221 75.9189H127.421L129.107 79.448L130.793 75.9189H131.993L129.636 80.5617H129.664Z" fill="#231F20"/>
<path d="M134.879 83.4551C134.465 83.2092 134.15 82.8766 133.922 82.4426C133.693 82.0087 133.579 81.5025 133.579 80.924V78.7111C133.579 78.1325 133.693 77.6263 133.922 77.1924C134.15 76.7585 134.465 76.4258 134.879 76.1799C135.293 75.9485 135.765 75.8184 136.308 75.8184C136.851 75.8184 137.322 75.9341 137.737 76.1799C138.151 76.4258 138.465 76.7585 138.694 77.1924C138.923 77.6263 139.037 78.1325 139.037 78.7111V80.924C139.037 81.5025 138.923 82.0087 138.694 82.4426C138.465 82.8766 138.151 83.2092 137.737 83.4551C137.322 83.701 136.851 83.8167 136.308 83.8167C135.765 83.8167 135.293 83.701 134.879 83.4551ZM137.137 82.515C137.379 82.3703 137.565 82.1678 137.694 81.893C137.822 81.6182 137.894 81.3145 137.894 80.9674V78.6821C137.894 78.335 137.822 78.0168 137.694 77.7565C137.565 77.4961 137.379 77.2792 137.137 77.1345C136.894 76.9899 136.608 76.9176 136.294 76.9176C135.979 76.9176 135.693 76.9899 135.451 77.1345C135.208 77.2792 135.022 77.4817 134.893 77.7565C134.765 78.0313 134.693 78.335 134.693 78.6821V80.9674C134.693 81.3145 134.765 81.6327 134.893 81.893C135.022 82.1534 135.208 82.3703 135.451 82.515C135.693 82.6596 135.979 82.7319 136.294 82.7319C136.608 82.7319 136.894 82.6596 137.137 82.515Z" fill="#231F20"/>
<path d="M141.723 75.9189H142.709L146.481 81.9647L146.352 82.1093V75.9334H147.424V83.7437H146.438L142.68 77.7992L142.809 77.6546V83.7437H141.737V75.9334L141.723 75.9189Z" fill="#231F20"/>
<path d="M156.454 75.9189H157.383L160.226 83.7292H159.054L156.911 77.4231L154.768 83.7292H153.596L156.44 75.9189H156.454ZM154.925 80.9812H158.983V82.0225H154.925V80.9812Z" fill="#231F20"/>
<path d="M162.155 82.5869H163.284V83.7295H162.155V82.5869Z" fill="#231F20"/>
<path d="M166.913 83.7002C166.584 83.6279 166.27 83.5266 165.984 83.382C165.699 83.2373 165.427 83.0638 165.17 82.8468L165.841 82.0079C166.142 82.2683 166.456 82.4563 166.813 82.5865C167.17 82.7167 167.556 82.7745 167.97 82.7745C168.528 82.7745 168.956 82.6733 169.271 82.4563C169.571 82.2538 169.728 81.9501 169.728 81.574C169.728 81.2992 169.656 81.0823 169.513 80.9232C169.371 80.7641 169.199 80.6484 168.971 80.5616C168.742 80.4893 168.456 80.417 168.113 80.3446H168.085H168.056H167.97C167.456 80.2434 167.027 80.1422 166.713 80.0264C166.399 79.9107 166.113 79.7083 165.884 79.4045C165.656 79.1008 165.541 78.6813 165.541 78.1317C165.541 77.64 165.641 77.235 165.856 76.8879C166.07 76.5407 166.384 76.2804 166.799 76.1068C167.213 75.9333 167.699 75.832 168.285 75.832C168.556 75.832 168.828 75.861 169.099 75.9188C169.371 75.9767 169.628 76.0634 169.885 76.1936C170.142 76.3093 170.399 76.4684 170.657 76.642L170.042 77.5098C169.742 77.2928 169.456 77.1337 169.156 77.018C168.871 76.9023 168.57 76.8589 168.285 76.8589C167.756 76.8589 167.342 76.9602 167.056 77.1771C166.77 77.3941 166.613 77.6978 166.613 78.0883C166.613 78.3631 166.684 78.5801 166.842 78.7247C166.999 78.8694 167.185 78.9851 167.399 79.0719C167.613 79.1586 167.942 79.2165 168.342 79.3033C168.342 79.3033 168.37 79.3033 168.385 79.3033C168.385 79.3033 168.413 79.3033 168.428 79.3033C168.442 79.3033 168.47 79.3033 168.485 79.3033C168.499 79.3033 168.528 79.3033 168.542 79.3033C169.013 79.4045 169.399 79.5202 169.714 79.6504C170.028 79.7806 170.285 79.9975 170.499 80.2868C170.714 80.5905 170.814 80.981 170.814 81.5017C170.814 81.9935 170.699 82.3985 170.485 82.7311C170.256 83.0638 169.942 83.3241 169.513 83.5122C169.085 83.6857 168.585 83.7725 167.985 83.7725C167.613 83.7725 167.256 83.7436 166.927 83.6712L166.913 83.7002ZM167.213 85.8986L167.442 85.1465C167.613 85.2044 167.785 85.2188 167.942 85.2188C168.142 85.2188 168.285 85.2044 168.37 85.1465C168.456 85.0887 168.513 85.0308 168.513 84.944C168.513 84.8573 168.456 84.7849 168.328 84.7415C168.199 84.6982 167.999 84.6837 167.742 84.6837L168.199 84.0618C168.613 84.0618 168.928 84.1341 169.142 84.3076C169.342 84.4667 169.456 84.7126 169.456 85.0308C169.456 85.349 169.342 85.5949 169.113 85.754C168.885 85.9131 168.542 85.9999 168.085 85.9999C167.727 85.9999 167.442 85.9709 167.213 85.8986ZM168.542 83.3964V84.6982H167.656V83.3964H168.542Z" fill="#231F20"/>
<path d="M172.785 82.5869H173.914V83.7295H172.785V82.5869Z" fill="#231F20"/>
</g>
<defs>
<clipPath id="clip0_229_2556">
<rect width="175" height="86" fill="white"/>
</clipPath>
</defs>
</svg>
