<svg width="196" height="107" viewBox="0 0 196 107" fill="none" xmlns="http://www.w3.org/2000/svg">
<g clip-path="url(#clip0_213_2095)">
<path d="M123.385 51.1512C122.596 52.2072 121.352 52.6167 120.076 52.9076C120.098 52.9076 120.12 52.8861 120.13 52.8753C120.098 52.8753 120.066 52.8861 120.022 52.8861C120.012 52.8861 119.99 52.8861 119.979 52.8861C119.925 52.9184 119.849 52.9292 119.774 52.9399C119.503 53.0369 119.103 53.0693 118.898 53.1339C118.627 53.2309 118.379 53.3602 118.141 53.5218C117.849 53.7158 117.557 53.899 117.265 54.0929C117.265 54.1145 117.243 54.136 117.232 54.1468C117.243 54.1468 117.254 54.1468 117.265 54.136C117.222 54.1683 117.189 54.2007 117.157 54.2438C117.157 54.2438 117.135 54.2653 117.124 54.2653C113.058 57.9721 111.977 64.3835 109.76 69.2216C108.96 70.9672 107.954 72.5943 106.689 74.049C105.132 75.8377 103.272 77.3247 101.423 78.7902C99.6816 80.1802 97.9406 81.5595 96.3726 83.1435C95.5723 83.9624 94.8478 84.846 94.0476 85.6757C93.1392 86.6024 92.2741 87.5722 91.4307 88.5527C88.1649 92.2918 84.9099 96.1171 80.7683 98.9295C77.0051 101.494 72.6579 103.035 68.2134 103.951C63.6392 104.888 58.9244 105.125 54.2637 105.093C50.0246 105.071 45.7856 104.543 41.7197 103.337C35.0908 101.375 29.273 97.5071 23.7688 93.4448C20.8598 91.3005 17.8212 89.3609 14.8906 87.2597C11.9276 85.1262 9.02955 82.7017 7.15877 79.5229C6.99656 79.2428 6.56401 79.5229 6.72621 79.7923C8.81328 83.3374 12.1331 85.9343 15.4529 88.2726C17.2156 89.5117 19.0215 90.6863 20.795 91.9147C22.5792 93.1431 24.2986 94.4792 26.0721 95.7292C32.5387 100.309 39.4704 103.929 47.4077 105.104C51.7981 105.75 56.2858 105.707 60.7087 105.416C65.1531 105.136 69.6084 104.403 73.8258 102.938C77.9675 101.494 81.7848 99.2204 84.964 96.1925C86.824 94.4253 88.5866 92.6151 90.2628 90.6755C91.8957 88.7898 93.5177 86.8933 95.302 85.1369C96.0157 84.4365 96.6213 83.596 97.3566 82.8956C98.1244 82.1414 98.9571 81.441 99.7789 80.7513C101.282 79.5122 102.839 78.3376 104.321 77.0661C107.089 74.6955 109.133 71.9909 110.582 68.6505C112.755 63.6723 114.323 56.9053 118.8 53.6727C120.682 53.2201 122.564 53.0908 123.786 51.4745C123.98 51.2159 123.613 50.8711 123.418 51.1297L123.385 51.1512Z" fill="#040303"/>
<path d="M140.612 0.291016L123.212 51.776L177.033 42.7893L177.043 6.34681L140.612 0.291016Z" fill="#B83838"/>
<path d="M122.834 52.0992L140.439 0L177.303 6.13122V43.0047L177.087 43.0371L122.845 52.0884L122.834 52.0992ZM140.785 0.571098L123.591 51.4527L176.784 42.5737V6.56224L140.785 0.571098Z" fill="#14141B"/>
<path d="M142.483 3.87891L127.689 47.6595L173.464 40.0197V9.02956L142.483 3.87891Z" fill="#4EC6DB"/>
<path d="M127.311 47.9826L142.321 3.59863L173.724 8.82471V40.2459L127.311 47.9934V47.9826ZM142.656 4.16973L128.068 47.3469L173.205 39.8148V9.24496L142.656 4.15895V4.16973Z" fill="#030305"/>
<path d="M119.417 57.799L115.286 53.9845L116.789 52.3682L120.92 56.1827L119.417 57.799ZM115.524 53.9737L119.406 57.5619L120.682 56.1934L116.8 52.6052L115.524 53.9737Z" fill="#090910"/>
<path d="M118.605 54.3725L117.794 56.1073L115.653 54.0169L116.789 52.6484L118.605 54.3725Z" fill="white"/>
<path d="M123.277 52.0126L117.924 50.1269L123.331 46.3555L123.277 52.0233V52.0126ZM118.292 50.073L123.115 51.7755L123.169 46.6787L118.292 50.073Z" fill="#050404"/>
<path d="M123.277 52.001L122.92 57.0331L128.132 53.4126L123.277 52.001Z" fill="#B14B25"/>
<path d="M122.823 57.2059L123.201 51.8828L128.327 53.3698L122.823 57.2059ZM123.353 52.1091L123.017 56.8718L127.938 53.4452L123.353 52.1091Z" fill="#050404"/>
<path d="M120.617 56.1827L119.406 57.4865L117.827 56.0426L118.53 54.2539L120.617 56.1827Z" fill="#0FB291"/>
<path d="M119.417 57.6055L117.73 56.0646L118.498 54.1143L120.747 56.1724L119.417 57.6055ZM117.935 56.0215L119.417 57.3684L120.509 56.1831L118.573 54.4052L117.935 56.0215Z" fill="#010101"/>
<path d="M115.232 61.8725L110.484 58.8554L111.674 56.9912L116.421 60.0083L115.232 61.8725ZM110.711 58.8015L115.178 61.6354L116.183 60.0622L111.717 57.2283L110.711 58.8015Z" fill="#090910"/>
<path d="M113.826 58.6507L113.339 60.5041L110.863 58.8231L111.728 57.2822L113.826 58.6507Z" fill="white"/>
<path d="M116.129 60.073L115.178 61.5708L113.361 60.4286L113.729 58.5537L116.129 60.073Z" fill="#4EC6DB"/>
<path d="M115.199 61.6898L113.264 60.4722L113.664 58.4141L116.248 60.0412L115.199 61.6898ZM113.448 60.3967L115.145 61.4635L116.01 60.1058L113.783 58.705L113.448 60.4075V60.3967Z" fill="#030305"/>
<path d="M113.145 66.668L108.3 63.791L109.436 61.8945L114.28 64.7716L113.145 66.668ZM108.538 63.7371L113.091 66.4418L114.053 64.8362L109.501 62.1316L108.538 63.7371Z" fill="#090910"/>
<path d="M111.642 63.4884L111.198 65.3633L108.679 63.7578L109.501 62.1846L111.642 63.4884Z" fill="white"/>
<path d="M113.977 64.8355L113.069 66.3656L111.22 65.2881L111.533 63.3916L113.977 64.8355Z" fill="#B83838"/>
<path d="M113.101 66.4845L111.133 65.3316L111.469 63.2627L114.096 64.8144L113.101 66.4953V66.4845ZM111.317 65.2454L113.047 66.2583L113.869 64.8682L111.598 63.5321L111.317 65.2454Z" fill="#010101"/>
<path d="M111.426 70.1587L106.451 67.508L107.5 65.5576L112.474 68.2084L111.426 70.1587ZM106.689 67.4433L111.361 69.9324L112.247 68.2838L107.576 65.7947L106.689 67.4433Z" fill="#090910"/>
<path d="M109.782 67.0555L109.436 68.9412L106.83 67.4542L107.576 65.8486L109.782 67.0555Z" fill="white"/>
<path d="M112.182 68.2951L111.35 69.8683L109.446 68.8662L109.673 66.9697L112.182 68.2951Z" fill="#4EC6DB"/>
<path d="M101.596 83.6931L97.7568 79.5769L99.3789 78.0684L103.218 82.1846L101.596 83.6931ZM97.9947 79.5877L101.607 83.4561L102.98 82.1846L99.3681 78.3162L97.9947 79.5877Z" fill="#090910"/>
<path d="M101.044 80.2235L100.103 81.8937L98.1245 79.6416L99.3573 78.3701L101.044 80.2235Z" fill="white"/>
<path d="M102.915 82.1734L101.617 83.3802L100.146 81.8286L100.979 80.1045L102.915 82.1734Z" fill="#DAA827"/>
<path d="M101.607 83.4992L100.039 81.8398L100.947 79.9541L103.034 82.1738L101.607 83.51V83.4992ZM100.244 81.8075L101.617 83.2622L102.796 82.1631L100.99 80.245L100.244 81.8075Z" fill="#010101"/>
<path d="M97.5187 86.9901L93.7339 82.8308L95.3776 81.3438L99.1732 85.5031L97.5295 86.9901H97.5187ZM93.9718 82.8415L97.5295 86.753L98.9245 85.4923L95.3668 81.5808L93.9718 82.8415Z" fill="#090910"/>
<path d="M97.0105 83.5097L96.048 85.1691L94.1016 82.9063L95.3452 81.6348L97.0105 83.5097Z" fill="white"/>
<path d="M98.8596 85.4811L97.5404 86.6771L96.0913 85.1039L96.9456 83.3906L98.8596 85.4811Z" fill="#B83838"/>
<path d="M97.5405 86.7961L95.9941 85.1152L96.9241 83.2402L98.9896 85.4815L97.5405 86.7961ZM96.1996 85.0828L97.5513 86.5483L98.7408 85.46L96.9674 83.5204L96.1996 85.0721V85.0828Z" fill="#010101"/>
<path d="M87.9054 97.4315L84.1206 93.2722L85.7643 91.7852L89.5599 95.9445L87.9162 97.4315H87.9054ZM84.3585 93.2829L87.9162 97.1944L89.3112 95.9337L85.7535 92.0222L84.3585 93.2829Z" fill="#090910"/>
<path d="M87.3972 93.9511L86.4348 95.6105L84.4883 93.3476L85.7319 92.0869L87.3972 93.9511Z" fill="white"/>
<path d="M89.2459 95.9225L87.9266 97.1293L86.4775 95.5453L87.3318 93.832L89.2459 95.9225Z" fill="#0FB291"/>
<path d="M87.9267 97.2483L86.3804 95.5673L87.3104 93.6924L89.3758 95.9337L87.9267 97.2483ZM86.5858 95.535L87.9376 97.0112L89.1271 95.9229L87.3536 93.9833L86.5858 95.535Z" fill="#010101"/>
<path d="M58.6975 107L58.2217 101.408L60.4277 101.225L60.9035 106.817L58.6975 107ZM58.4055 101.559L58.8597 106.817L60.7305 106.655L60.2763 101.397L58.4055 101.559Z" fill="#090910"/>
<path d="M60.4167 103.929L58.6324 104.661L58.4702 101.687L60.2329 101.429L60.4167 103.929Z" fill="white"/>
<path d="M60.6761 106.611L58.9027 106.762L58.708 104.639L60.4274 103.788L60.6761 106.611Z" fill="#D77C3C"/>
<path d="M58.827 106.859L58.6216 104.586L60.5032 103.659L60.7735 106.687L58.827 106.859ZM58.8054 104.694L58.9893 106.676L60.6005 106.536L60.3626 103.918L58.8054 104.683V104.694Z" fill="#010101"/>
<path d="M51.5387 107L51.0737 101.408L53.2797 101.225L53.7447 106.828L51.5387 107.011V107ZM51.2576 101.559L51.6901 106.817L53.5609 106.666L53.1284 101.408L51.2576 101.559Z" fill="#090910"/>
<path d="M53.2687 103.929L51.4844 104.661L51.333 101.677L53.0957 101.439L53.2687 103.929Z" fill="white"/>
<path d="M53.5282 106.611L51.7439 106.762L51.5601 104.639L53.2795 103.788L53.5282 106.611Z" fill="#B83838"/>
<path d="M51.6683 106.859L51.4736 104.586L53.366 103.659L53.6256 106.687L51.6791 106.849L51.6683 106.859ZM51.6467 104.683L51.8197 106.676L53.4309 106.536L53.2038 103.918L51.6467 104.683Z" fill="#010101"/>
<path d="M47.1264 106.536L44.9204 106.31L45.5044 100.729L47.7104 100.955L47.1264 106.536ZM45.1042 106.159L46.975 106.353L47.5265 101.106L45.6557 100.912L45.1042 106.159Z" fill="#090910"/>
<path d="M47.1804 103.616L45.2988 104.004L45.6989 101.041L47.4724 101.127L47.1804 103.616Z" fill="white"/>
<path d="M46.9424 106.299L45.1689 106.116L45.3744 103.993L47.2344 103.476L46.9424 106.299Z" fill="#0FB291"/>
<path d="M47.0183 106.385L45.0718 106.191L45.2989 103.918L47.321 103.357L47.0183 106.385ZM45.2556 106.041L46.8669 106.202L47.1372 103.584L45.4611 104.047L45.2664 106.03L45.2556 106.041Z" fill="#010101"/>
<path d="M39.9895 105.093L37.8916 104.371L39.7408 99.0693L41.8386 99.7913L39.9895 105.093ZM38.1079 104.263L39.8813 104.877L41.6224 99.8883L39.8489 99.2741L38.1079 104.263Z" fill="#090910"/>
<path d="M40.7139 102.259L38.7891 102.205L39.8596 99.4141L41.5682 99.899L40.7139 102.259Z" fill="white"/>
<path d="M39.8706 104.813L38.1729 104.231L38.8757 102.216L40.7898 102.13L39.8706 104.813Z" fill="#0FB291"/>
<path d="M33.6744 102.173L31.6738 101.214L34.1069 96.1494L36.1075 97.1084L33.6744 102.173ZM31.9009 101.138L33.5987 101.947L35.8912 97.1839L34.1934 96.3757L31.9009 101.138Z" fill="#090910"/>
<path d="M34.7231 99.4357L32.8198 99.1771L34.1932 96.5264L35.8369 97.1944L34.7231 99.4357Z" fill="white"/>
<path d="M33.5873 101.892L31.9761 101.127L32.8952 99.1875L34.8093 99.3276L33.5873 101.892Z" fill="#B83838"/>
<path d="M33.6308 102L31.8682 101.16L32.8522 99.1016L34.9501 99.2524L33.6416 102H33.6308ZM32.0953 101.084L33.5551 101.774L34.6906 99.4033L32.9604 99.274L32.1061 101.073L32.0953 101.084Z" fill="#010101"/>
<path d="M26.8289 97.6257L24.9473 96.4512L27.9427 91.6992L29.8243 92.8737L26.8289 97.6365V97.6257ZM25.1852 96.3973L26.7748 97.3886L29.5864 92.9168L27.9968 91.9255L25.1852 96.3973Z" fill="#090910"/>
<path d="M28.17 95.0179L26.3101 94.5438L27.9862 92.0654L29.5326 92.9167L28.17 95.0179Z" fill="white"/>
<path d="M26.7747 97.323L25.25 96.3855L26.3854 94.5645L28.2779 94.92L26.7747 97.323Z" fill="#DC6A26"/>
<path d="M26.7966 97.4418L25.1421 96.4074L26.3532 94.4678L28.4187 94.8557L26.8074 97.4418H26.7966ZM25.3692 96.3535L26.7425 97.2047L28.1375 94.9742L26.4289 94.651L25.3692 96.3427V96.3535Z" fill="#010101"/>
<path d="M20.5894 93.3904L18.9565 91.9034L22.7522 87.7549L24.3959 89.2419L20.6002 93.3904H20.5894ZM19.1944 91.8926L20.5786 93.1534L24.1472 89.2527L22.763 87.9919L19.1944 91.8926Z" fill="#090910"/>
<path d="M22.3846 91.0736L20.6328 90.2654L22.7199 88.1211L24.0932 89.2417L22.3846 91.0736Z" fill="white"/>
<path d="M20.5898 93.0887L19.2705 91.8926L20.7087 90.3086L22.5038 90.9875L20.5898 93.0887Z" fill="#0FB291"/>
<path d="M20.5897 93.2075L19.1406 91.8929L20.6762 90.2012L22.6443 90.9447L20.5897 93.1967V93.2075ZM19.3785 91.8821L20.5789 92.9597L22.3523 91.0093L20.7303 90.3951L19.3893 91.8821H19.3785Z" fill="#010101"/>
<path d="M13.5172 88.0672L11.8843 86.5802L15.6799 82.4316L17.3236 83.9186L13.528 88.0672H13.5172ZM12.1222 86.5694L13.5063 87.8301L17.0749 83.9294L15.6907 82.6687L12.1222 86.5694Z" fill="#090910"/>
<path d="M15.3124 85.7405L13.5605 84.9431L15.6476 82.7988L17.021 83.9195L15.3124 85.7405Z" fill="white"/>
<path d="M13.5175 87.7654L12.1982 86.5694L13.6365 84.9746L15.4316 85.6642L13.5175 87.7654Z" fill="#0FB291"/>
<path d="M13.5174 87.8843L12.0684 86.5697L13.6039 84.8779L15.572 85.6214L13.5174 87.8735V87.8843ZM12.3063 86.5589L13.5066 87.6364L15.2801 85.6861L13.658 85.0719L12.3171 86.5589H12.3063Z" fill="#010101"/>
<path opacity="0.9" d="M172.739 40.0632C172.599 39.9447 158.692 28.5012 147.1 27.7684L147.013 27.79L146.916 27.7146C146.786 27.6176 146.786 27.596 146.786 26.4431C146.786 22.8764 146.776 12.004 142.547 4.31033L142.991 4.0625C147.284 11.8747 147.295 22.8333 147.295 26.4431C147.295 26.7879 147.295 27.0896 147.295 27.2728C159.017 28.1133 172.912 39.546 173.053 39.6645L172.729 40.0524L172.739 40.0632Z" fill="white"/>
<path d="M172.902 40.0201C172.761 39.9016 158.757 28.3072 147.23 27.4344L147.143 27.456L147.046 27.3805C146.927 27.2835 146.927 27.262 146.927 26.1845C146.949 16.7775 145.467 9.41789 142.526 4.31033L142.969 4.0625C144.894 7.39211 146.213 11.6807 146.895 16.8206C147.446 20.9476 147.435 24.4927 147.435 26.1952C147.435 26.5077 147.435 26.7879 147.435 26.9603C159.103 27.9516 173.086 39.5352 173.226 39.6537L172.902 40.0417V40.0201Z" fill="#030404"/>
<g opacity="0.8">
<path d="M143.748 4.88161C148.246 10.2909 152.896 15.4739 157.471 21.1741C157.979 21.6913 158.422 22.1546 158.866 22.6287L143.261 4.32129L143.748 4.88161Z" fill="#040303"/>
<path d="M158.617 22.8657L158.476 22.7148C158.087 22.3053 157.676 21.8743 157.222 21.411L157.2 21.3894C154.475 17.9952 151.685 14.741 148.993 11.5946C147.252 9.5688 145.467 7.47836 143.726 5.38793L143.013 4.54745C142.894 4.38582 142.894 4.31039 142.969 4.17031L143.207 3.72852L143.575 4.15953C143.575 4.15953 143.683 4.28884 143.759 4.37504C143.845 4.47202 143.921 4.55822 143.975 4.63365L144.018 4.68753C144.094 4.77373 144.17 4.87071 144.256 4.96769L159.136 22.4347L158.628 22.8872L158.617 22.8657Z" fill="white"/>
</g>
<g opacity="0.8">
<path d="M167.527 32.79C169.517 35.1606 171.096 37.014 173.14 39.3738L167.527 32.79Z" fill="#040303"/>
<path d="M172.869 39.5998C170.869 37.2939 169.301 35.4405 167.257 33.0052L167.776 32.5742L173.388 39.158L172.869 39.5998Z" fill="white"/>
</g>
<g opacity="0.8">
<path d="M158.866 22.6289L167.528 32.8009C165.008 29.7946 162.488 26.7774 159.915 23.7172C159.536 23.3401 159.201 22.9845 158.866 22.6397V22.6289Z" fill="#040303"/>
<path d="M167.268 33.0162L158.606 22.8442L159.114 22.3916C159.482 22.7795 159.806 23.1136 160.152 23.4691L160.174 23.4907C161.482 25.0424 162.769 26.5832 164.045 28.1134C165.289 29.6111 166.532 31.0874 167.787 32.5744L167.268 33.0054V33.0162Z" fill="white"/>
</g>
<path d="M94.0259 45.3211C93.9394 45.3211 93.8637 45.3211 93.7772 45.3103C92.5228 45.1594 91.7118 43.8879 91.3657 42.735C91.2143 42.2501 91.2252 42.0346 91.2684 41.9376C91.7983 38.5218 93.0419 35.6986 94.9559 33.5328C92.5769 34.2655 88.8569 36.5822 83.0824 41.9807L82.7363 41.6143C88.3703 36.3559 92.685 33.4142 95.6156 32.8539C97.3566 31.1622 99.5734 29.923 102.212 29.1795C104.407 28.5653 108.062 27.9834 113.004 28.6946C113.123 28.7161 113.199 28.7269 113.231 28.7269H113.264C132.307 32.4875 146.754 26.7658 146.895 26.7119L147.089 27.186C147.089 27.186 143.38 28.673 137.4 29.6536C131.885 30.5587 123.202 31.216 113.177 29.2441C113.134 29.2441 113.047 29.2226 112.928 29.2118C109.035 28.6515 101.455 28.2959 96.4266 32.7677C97.1187 32.7354 97.7134 32.8647 98.2217 33.1556C100.417 34.4271 100.049 38.3602 99.7464 39.6424C99.7248 39.7394 99.7032 39.8472 99.6383 39.9226C97.5296 43.5216 95.648 45.3426 94.0259 45.3426V45.3211ZM91.755 42.1208C91.7875 42.4871 92.3173 44.3621 93.5717 44.7392C94.5991 45.0517 96.405 44.4159 99.2165 39.6101C99.3463 39.1899 100.06 34.9982 98.1027 33.6621C97.5945 33.3173 96.87 33.1341 95.821 33.3173C93.8637 35.2999 92.3822 38.1015 91.7658 42.0561V42.1208H91.755Z" fill="white"/>
<path d="M94.2422 45.5584C94.1557 45.5584 94.08 45.5584 93.9935 45.5476C92.7391 45.3967 91.9281 44.1252 91.582 42.9723C91.4307 42.4874 91.4415 42.2719 91.4847 42.1749C92.0146 38.7591 93.2582 35.9359 95.1722 33.7701C92.7932 34.5028 89.0732 36.8195 83.2987 42.218L82.9526 41.8516C88.5866 36.5932 92.9013 33.6515 95.8319 33.0912C97.5729 31.3995 99.7897 30.1603 102.428 29.4168C104.623 28.8026 108.279 28.2207 113.22 28.9319C113.339 28.9534 113.415 28.9642 113.448 28.9642H113.48C132.523 32.7248 146.97 27.0031 147.111 26.9492L147.306 27.4233C147.306 27.4233 143.596 28.9103 137.616 29.8909C132.101 30.796 123.418 31.4533 113.393 29.4814C113.35 29.4814 113.264 29.4599 113.145 29.4491C109.252 28.8888 101.671 28.5332 96.6429 33.005C97.335 32.9727 97.9297 33.102 98.438 33.3929C100.633 34.6644 100.266 38.5975 99.9627 39.8797C99.9411 39.9767 99.9195 40.0845 99.8546 40.1599C97.7459 43.7589 95.8643 45.5799 94.2422 45.5799V45.5584ZM91.9713 42.3581C92.0038 42.7244 92.5337 44.5994 93.7881 44.9765C94.8154 45.289 96.6213 44.6532 99.4329 39.8474C99.5626 39.4272 100.276 35.2355 98.319 33.8994C97.8108 33.5546 97.0863 33.3714 96.0373 33.5546C94.08 35.5372 92.5985 38.3388 91.9822 42.2934V42.3581H91.9713Z" fill="#030404"/>
<path opacity="0.9" d="M172.891 8.6923L127.974 46.5957L128.414 47.1137L173.331 9.21034L172.891 8.6923Z" fill="white"/>
<path d="M142.734 3.65581L142.216 4.09668L173.194 40.2391L173.712 39.7982L142.734 3.65581Z" fill="#030305"/>
<path d="M173.249 8.77192L127.672 47.2324L128.113 47.7505L173.69 9.28996L173.249 8.77192Z" fill="#030305"/>
<path d="M141.272 43.9538C141.769 44.9128 141.888 45.8503 141.531 46.0334C141.174 46.2166 140.482 45.5809 139.985 44.6219C139.487 43.6628 139.368 42.7254 139.725 42.5422C140.082 42.359 140.774 42.9948 141.272 43.9538Z" fill="white"/>
<path d="M141.401 46.227C140.904 46.227 140.266 45.505 139.844 44.6861C139.358 43.7486 139.13 42.6495 139.66 42.3801C140.179 42.1108 140.947 42.9297 141.434 43.8672C141.92 44.8046 142.148 45.9037 141.618 46.1731C141.553 46.2054 141.477 46.227 141.401 46.227ZM139.877 42.6711C139.877 42.6711 139.833 42.6711 139.812 42.6819C139.606 42.7896 139.639 43.5547 140.147 44.5352C140.655 45.505 141.261 45.9791 141.466 45.8822C141.672 45.7744 141.639 45.0093 141.131 44.0288C140.677 43.1452 140.125 42.6711 139.877 42.6711Z" fill="#030305"/>
<path d="M172.556 14.1479C173.648 14.191 174.513 14.5574 174.491 14.9561C174.47 15.3548 173.572 15.6349 172.491 15.5918C171.399 15.5487 170.533 15.1824 170.555 14.7837C170.577 14.385 171.463 14.1048 172.556 14.1479Z" fill="white"/>
<path d="M172.718 15.764C172.642 15.764 172.556 15.764 172.48 15.764C171.42 15.7209 170.35 15.3653 170.382 14.7834C170.382 14.5895 170.523 14.3309 171.096 14.1477C171.496 14.0184 172.015 13.9645 172.556 13.9861C173.615 14.0292 174.686 14.3848 174.654 14.9666C174.632 15.5054 173.691 15.764 172.718 15.764ZM172.318 14.3093C171.896 14.3093 171.507 14.3632 171.204 14.4602C170.858 14.5679 170.728 14.708 170.728 14.7942C170.728 15.0205 171.409 15.3761 172.502 15.4192C173.605 15.4623 174.318 15.1714 174.329 14.9451C174.329 14.7188 173.648 14.3632 172.556 14.3201C172.48 14.3201 172.404 14.3201 172.329 14.3201L172.318 14.3093Z" fill="#030305"/>
<path d="M131.907 36.3137C132.999 36.303 133.886 36.6155 133.886 37.0141C133.886 37.4128 133.01 37.7469 131.917 37.7577C130.825 37.7684 129.938 37.4559 129.938 37.0573C129.938 36.6586 130.814 36.3245 131.907 36.3137Z" fill="white"/>
<path d="M131.853 37.9189C131.334 37.9189 130.847 37.8434 130.468 37.7141C129.895 37.5094 129.776 37.24 129.776 37.0568C129.776 36.475 130.847 36.1517 131.907 36.1409C132.966 36.1301 134.048 36.4211 134.059 37.0029C134.059 37.5848 132.988 37.9081 131.928 37.9189C131.907 37.9189 131.885 37.9189 131.853 37.9189ZM131.907 36.4749C130.804 36.4857 130.112 36.8198 130.112 37.046C130.112 37.1323 130.241 37.2723 130.587 37.3909C130.944 37.5202 131.42 37.5848 131.928 37.574C133.031 37.5633 133.723 37.2292 133.723 37.0029C133.723 36.7767 133.01 36.4534 131.917 36.4749H131.907Z" fill="#030305"/>
<path d="M165.127 7.65048C165.538 8.6526 165.57 9.59006 165.202 9.74092C164.835 9.89177 164.197 9.20215 163.786 8.18926C163.375 7.18714 163.342 6.24968 163.71 6.09882C164.078 5.94797 164.716 6.63759 165.127 7.65048Z" fill="white"/>
<path d="M165.084 9.93501C164.911 9.93501 164.673 9.83803 164.381 9.51477C164.099 9.21305 163.829 8.76049 163.624 8.25404C163.224 7.27348 163.105 6.16361 163.645 5.93732C164.186 5.72182 164.878 6.59463 165.278 7.57519C165.678 8.55575 165.797 9.66562 165.257 9.89191C165.203 9.91346 165.148 9.92423 165.084 9.92423V9.93501ZM163.818 6.24981C163.818 6.24981 163.786 6.24981 163.764 6.24981C163.559 6.33602 163.516 7.11185 163.926 8.12474C164.121 8.58808 164.359 9.00832 164.619 9.27771C164.867 9.54709 165.04 9.61175 165.116 9.57942C165.321 9.49322 165.365 8.71739 164.954 7.70449C164.564 6.75626 164.045 6.23904 163.808 6.23904L163.818 6.24981Z" fill="#030305"/>
<path d="M143.095 3.93225L143.04 4.26172L144.159 4.44807L144.215 4.11859L143.095 3.93225Z" fill="#040303"/>
<path d="M173.194 38.404L173.171 39.5352L173.657 39.545L173.68 38.4138L173.194 38.404Z" fill="#040303"/>
<path d="M128.057 47.6595L127.462 47.4332L128.154 45.5475L128.879 45.0195L128.057 47.6595Z" fill="#030305"/>
<path d="M173.659 39.6426L173.605 40.2137L171.55 40.5908L171.485 40.1167L173.659 39.6426Z" fill="#030404"/>
<path d="M146.922 26.0459L146.865 27.1543L147.06 27.1642L147.117 26.0558L146.922 26.0459Z" fill="#030305"/>
<path d="M11.2357 51.054C11.0194 51.1402 11.1167 51.4851 11.333 51.3989C11.7763 51.2264 12.1224 51.6359 12.1764 52.0346C12.2197 52.3579 11.9385 52.6919 11.7439 52.9074C11.387 53.3061 10.8355 53.5432 10.3597 53.7802C10.0786 53.9203 9.81904 54.0927 9.60277 54.3082C8.88906 54.3621 8.04558 55.2026 7.99151 55.8922C7.91581 56.8512 8.61871 57.7348 8.86743 58.6292C9.01882 59.2003 9.09452 59.7714 9.1594 60.3532C9.21347 60.9459 9.10533 61.5062 9.10533 62.0989C9.10533 62.142 9.11615 62.1635 9.13777 62.1958C9.18103 62.5083 9.17022 62.8531 8.97557 63.1225C8.95394 63.1548 8.89987 63.1872 8.83499 63.2303C8.65115 62.8316 8.46732 62.4652 7.95907 62.3898C7.38594 62.3036 7.00746 62.9932 7.08315 63.4781C7.12641 63.7798 7.56977 63.8445 7.78605 63.866C8.06721 63.8983 8.38081 63.8014 8.66197 63.6936C8.69441 63.769 8.72685 63.8337 8.7701 63.9091C8.7701 63.9199 8.79173 63.9307 8.80255 63.9415C9.37568 65.0621 7.54815 65.9349 6.0234 66.2582C5.43946 66.172 4.83388 66.2151 4.33645 66.3444C4.15262 66.3875 4.17424 66.6461 4.33645 66.6892C4.72575 66.7969 5.36376 66.7754 6.06666 66.6245C6.67223 66.7323 7.24536 67.0017 7.62384 67.465C7.5914 67.4758 7.55896 67.5081 7.53733 67.5404C7.5157 67.5943 7.48326 67.6482 7.45082 67.6913C7.45082 67.6913 7.37513 67.7775 7.32106 67.8098C7.28862 67.8314 7.26699 67.8637 7.25617 67.896C7.23455 67.9068 7.21292 67.9284 7.2021 67.9499C7.2021 67.9499 7.19129 67.9715 7.18048 67.9822C7.16966 67.993 7.15885 68.0146 7.14804 68.0361C6.71548 68.7796 6.27212 69.7386 6.75874 70.536C6.75874 70.536 6.75874 70.5576 6.76955 70.5576C6.76955 70.5576 6.76955 70.5576 6.76955 70.5683C6.76955 70.5683 6.76955 70.5683 6.76955 70.5791C6.76955 70.5791 6.76955 70.5791 6.76955 70.5899C6.91013 70.7946 7.06153 70.9994 7.19129 71.2149C7.24536 71.3118 7.3535 71.4735 7.23455 71.5489C7.14804 71.6028 7.05071 71.6351 6.9642 71.6782C6.61816 71.8291 6.60735 72.0338 6.75874 72.2278C6.21805 72.5833 5.7855 73.1006 5.92608 73.801C6.12073 74.7708 6.8885 75.525 7.06153 76.4948C6.91013 76.4194 6.74793 76.3763 6.55328 76.3763C5.52597 76.3763 4.20668 77.6155 4.22831 78.6607C3.97959 78.6391 3.72006 78.6284 3.46053 78.6284C2.3359 78.6284 0.994988 78.6822 0.0325602 79.3288C-0.162088 79.4581 0.0325602 79.7598 0.216395 79.6305C1.09231 79.0271 2.29264 79.0055 3.31995 78.9839C4.54191 78.9516 5.74224 79.1564 6.79118 79.8029C6.84525 79.8352 6.89932 79.8352 6.95339 79.8029C7.02908 79.8029 7.09397 79.7598 7.12641 79.6736C7.33187 78.8762 7.91581 78.3266 7.72117 77.4538C7.6671 77.2168 7.56977 77.0013 7.44001 76.8289C7.42919 76.1716 7.14804 75.5789 6.83444 75.0078C7.20211 74.9755 7.54815 75.0617 7.89419 74.8354C8.24023 74.6091 8.31593 74.1027 8.33755 73.7255C8.38081 73.079 7.77524 72.1847 7.11559 72.0877C7.08315 72.0661 7.05071 72.0446 7.01827 72.023C7.08315 71.9907 7.15885 71.9691 7.22373 71.9368C7.37513 71.8722 7.53733 71.786 7.60222 71.6243C7.77524 71.2149 7.24536 70.6869 7.0399 70.3744C7.02908 70.3528 7.01827 70.3313 7.00746 70.3097C8.28348 69.9972 8.58627 68.7042 8.06721 67.5512C7.80768 66.9909 7.32106 66.6353 6.73711 66.4198C8.31593 65.9349 9.80823 64.922 9.00801 63.6397C9.00801 63.629 8.98638 63.6182 8.97557 63.6074C8.96475 63.5859 8.95394 63.5643 8.94313 63.5428C9.50544 63.2842 9.51626 62.5299 9.42975 62.0126C9.42975 61.6463 9.48382 61.2799 9.51626 60.9136C9.53788 60.5364 9.46219 60.127 9.41893 59.7498C9.33242 59.0063 9.14859 58.2736 8.86743 57.5732C8.54302 56.765 7.9807 56 8.64034 55.1918C8.78092 55.0194 9.00801 54.8362 9.25673 54.7285C9.17022 54.8901 9.12696 55.0733 9.11615 55.278C9.09452 55.6875 9.46219 56.2586 9.93799 56.14C10.4895 56 10.6084 55.4396 10.4462 54.9547C10.3489 54.653 10.1975 54.4591 10.0029 54.3621C10.2083 54.2005 10.4462 54.0927 10.6733 53.9742C11.2357 53.694 11.8845 53.36 12.2197 52.7997C12.4901 52.3471 12.5657 51.9376 12.317 51.4635C12.1008 51.054 11.6141 50.8601 11.1924 51.0217L11.2357 51.054ZM7.46164 78.0788C7.40757 78.5637 7.06153 78.9839 6.8885 79.4365C6.18561 79.0271 5.41783 78.8115 4.62842 78.7146C4.62842 78.7146 4.62842 78.7146 4.62842 78.7038C4.58517 77.8094 5.64492 76.9797 6.42351 76.775C6.73711 76.6888 6.98583 76.8073 7.15885 77.012C7.15885 77.0336 7.18048 77.0444 7.19129 77.0551C7.40757 77.3353 7.49408 77.7448 7.46164 78.0788ZM8.02395 73.7686C8.07802 74.2428 7.77524 74.6846 7.28861 74.6953C7.08315 74.6953 6.89932 74.6846 6.69386 74.7061C6.67223 74.6738 6.6506 74.6307 6.62897 74.5984C6.15317 73.7148 6.19642 73.0359 7.08315 72.4864C7.12641 72.5079 7.16966 72.4971 7.2021 72.4864C7.67791 72.6049 7.9807 73.3484 8.02395 73.7686ZM6.93176 70.008C6.82362 69.4046 7.16966 68.7473 7.47245 68.2301C7.55896 68.1546 7.63466 68.0684 7.69954 67.9822C7.69954 67.9822 7.72117 67.9607 7.72117 67.9499C7.72117 67.9499 7.73198 67.9284 7.74279 67.9284C7.74279 67.9176 7.76442 67.9068 7.76442 67.896C7.78605 67.8637 7.80768 67.8314 7.81849 67.7991C8.2943 68.6826 7.91582 69.7602 6.92095 70.0188L6.93176 70.008ZM8.42406 63.2195C8.4565 63.2734 8.47813 63.3273 8.51057 63.3919C8.02395 63.5535 7.36431 63.629 7.42919 63.2087C7.47245 62.9609 7.73198 62.7454 7.99151 62.7777C8.2186 62.81 8.33755 63.0471 8.42406 63.2195ZM9.74335 55.7952C9.27835 55.6013 9.5487 54.9978 9.76497 54.6854C10.3165 54.7931 10.3273 56.0323 9.74335 55.7952Z" fill="#030305"/>
<path d="M173.334 8.92247L173.312 9.07333L172.09 8.90092L172.155 8.72852L173.334 8.92247Z" fill="#4078BC"/>
<path d="M173.453 9.26688L171.842 9.02982L172.058 8.54492L173.529 8.78198L173.453 9.26688Z" fill="#030305"/>
<path d="M17.8321 79.4906V59.7285H21.9413C24.9043 59.7285 27.0563 59.9656 28.3972 60.4397C30.322 61.1078 31.8252 62.2715 32.9065 63.9309C33.9879 65.5904 34.5286 67.5623 34.5286 69.8574C34.5286 71.8401 34.096 73.5749 33.2418 75.0835C32.3875 76.5921 31.2736 77.7019 29.9003 78.4131C28.5269 79.1243 26.6129 79.4906 24.1365 79.4906H17.8213H17.8321ZM19.7353 77.6265H22.0279C24.7746 77.6265 26.667 77.4541 27.7267 77.1201C29.219 76.6352 30.3869 75.7624 31.252 74.5124C32.1063 73.2517 32.528 71.7216 32.528 69.9005C32.528 67.9933 32.0631 66.3662 31.1439 65.0085C30.2139 63.6615 28.9271 62.7349 27.2725 62.2284C26.029 61.8513 23.9852 61.6681 21.1411 61.6681H19.7353V77.6373V77.6265Z" fill="#010101"/>
<path d="M24.1473 80.5902H16.729V58.6299H21.9413C25.0664 58.6299 27.2941 58.8885 28.7756 59.4057C30.9167 60.16 32.6253 61.4746 33.8364 63.3387C35.0368 65.1706 35.6423 67.3688 35.6423 69.8687C35.6423 72.0345 35.1557 73.9741 34.2149 75.6443C33.2525 77.3252 31.9765 78.5968 30.4193 79.4049C28.8729 80.2131 26.8183 80.601 24.1365 80.601L24.1473 80.5902ZM20.8382 76.5279H22.0278C25.2827 76.5279 26.7426 76.28 27.3914 76.0753C28.6566 75.6658 29.619 74.9547 30.3328 73.8987C31.0573 72.8319 31.4249 71.485 31.4249 69.901C31.4249 68.2308 31.0248 66.7977 30.2246 65.6339C29.4352 64.4809 28.3646 63.7159 26.948 63.2849C25.8126 62.9401 23.8553 62.7676 21.1302 62.7676H20.8274V76.5279H20.8382Z" fill="#010101"/>
<path d="M38.8218 59.7178H50.1871V61.6574H40.8007V67.8532H50.1114V69.7928H40.8007V77.5619H50.1114V79.5015H38.8218V59.7393V59.7178Z" fill="#010101"/>
<path d="M51.2144 80.5902H37.7188V58.6191H51.3009V62.7569H41.9145V66.7546H51.2144V70.8816H41.9145V76.4525H51.2144V80.5902Z" fill="#010101"/>
<path d="M53.3878 75.806L55.0747 74.7932C56.2642 76.9698 57.6376 78.0581 59.184 78.0581C59.8544 78.0581 60.4708 77.9073 61.0547 77.5948C61.6387 77.2823 62.0821 76.8728 62.3848 76.3556C62.6876 75.8384 62.839 75.2888 62.839 74.7069C62.839 74.0389 62.6119 73.3923 62.1686 72.7566C61.5522 71.8838 60.4167 70.817 58.773 69.5886C57.1185 68.3387 56.0912 67.4443 55.6803 66.884C54.9774 65.9573 54.6314 64.9444 54.6314 63.8561C54.6314 62.9941 54.8368 62.2075 55.2477 61.507C55.6587 60.7959 56.2426 60.2463 56.9888 59.8369C57.7349 59.4274 58.5568 59.2227 59.4327 59.2227C60.3627 59.2227 61.2386 59.4489 62.0604 59.9123C62.8715 60.3756 63.7366 61.2269 64.6449 62.4553L63.0229 63.6729C62.2767 62.6923 61.6387 62.035 61.1196 61.7226C60.5898 61.4101 60.0166 61.2484 59.4002 61.2484C58.6 61.2484 57.9512 61.4855 57.4429 61.9704C56.9347 62.4553 56.686 63.0479 56.686 63.7591C56.686 64.1901 56.7725 64.6104 56.9563 65.0091C57.1402 65.4078 57.4646 65.8495 57.9404 66.3237C58.1999 66.5715 59.0542 67.2288 60.5032 68.2956C62.2226 69.5563 63.4013 70.6877 64.0394 71.6683C64.6774 72.6488 65.0018 73.6402 65.0018 74.6423C65.0018 76.0754 64.4503 77.3254 63.3581 78.3814C62.2659 79.4374 60.9358 79.9654 59.3678 79.9654C58.1675 79.9654 57.0753 79.6421 56.0912 79.0063C55.1072 78.3706 54.2096 77.2931 53.377 75.7845L53.3878 75.806Z" fill="#010101"/>
<path d="M59.3785 81.0855C57.9619 81.0855 56.6534 80.6976 55.4964 79.9433C54.3717 79.2106 53.3336 77.993 52.4252 76.3336L51.917 75.4069L55.4964 73.2626L56.0479 74.2754C57.0211 76.0642 58.0809 76.9693 59.1947 76.9693C59.6813 76.9693 60.1247 76.8616 60.5572 76.6353C60.9573 76.4198 61.2601 76.1504 61.4548 75.8056C61.6602 75.45 61.7575 75.0944 61.7575 74.7065C61.7575 74.2754 61.6062 73.8444 61.2817 73.3919C60.7302 72.616 59.6705 71.6247 58.1241 70.4609C55.7991 68.7046 55.1179 67.9503 54.8151 67.53C53.9716 66.4094 53.5499 65.1702 53.5499 63.8556C53.5499 62.7996 53.8094 61.8298 54.3177 60.9462C54.8367 60.0627 55.5612 59.3623 56.4912 58.8558C57.3996 58.3601 58.4053 58.1123 59.465 58.1123C60.5897 58.1123 61.6494 58.3925 62.6335 58.9528C63.5959 59.5023 64.5475 60.429 65.564 61.8083L66.202 62.6811L62.8389 65.2241L62.1685 64.3405C61.3034 63.1983 60.7951 62.8104 60.5788 62.6703C60.222 62.4548 59.8435 62.3578 59.4218 62.3578C58.9027 62.3578 58.5242 62.4871 58.2214 62.7781C57.9295 63.0582 57.7997 63.3599 57.7997 63.7694C57.7997 64.0496 57.8538 64.3082 57.9727 64.5776C58.0592 64.7715 58.2539 65.0948 58.7189 65.5581C58.8486 65.6874 59.3461 66.0969 61.1628 67.4331C63.0011 68.7908 64.2447 69.9868 64.9692 71.0967C65.7262 72.2604 66.1047 73.4565 66.1047 74.6634C66.1047 76.3982 65.4451 77.9175 64.1366 79.189C62.8389 80.4498 61.2385 81.0855 59.3785 81.0855Z" fill="#010101"/>
<path d="M67.9863 61.6574V59.7178H78.8542V61.6574H74.4314V79.4907H72.4092V61.6574H67.9863Z" fill="#010101"/>
<path d="M75.5343 80.5902H71.3061V62.7569H66.8833V58.6191H79.9572V62.7569H75.5343V80.5902Z" fill="#010101"/>
<path d="M83.2339 59.7178H85.2128V79.4799H83.2339V59.7178Z" fill="#010101"/>
<path d="M86.3158 58.6191H82.1309V80.5795H86.3158V58.6191Z" fill="#010101"/>
<path d="M89.7651 79.4916V59.7295H90.1977L103.401 74.8797V59.7295H105.359V79.4916H104.915L91.8198 64.5246V79.4916H89.7651Z" fill="#010101"/>
<path d="M106.462 80.5902H104.418L92.9227 67.455V80.5902H88.6621V58.6191H90.7059L102.298 71.9268V58.6191H106.462V80.5902Z" fill="#010101"/>
<path d="M118.487 59.7178L127.733 79.4799H125.591L122.466 72.9716H113.923L110.831 79.4799H108.614L117.989 59.7178H118.476H118.487ZM118.238 63.9202L114.843 71.0751H121.623L118.238 63.9202Z" fill="#010101"/>
<path d="M129.463 80.5902H124.9L121.774 74.0818H114.626L111.534 80.5902H106.884L117.297 58.6299H119.19L129.474 80.5902H129.463ZM116.573 69.9764H119.871L118.227 66.4959L116.573 69.9764Z" fill="#010101"/>
<path d="M63.0015 101.688V83.2617H64.7209V90.6752C65.4346 89.7916 66.2456 89.1343 67.1323 88.7033C68.0191 88.2723 69.0031 88.046 70.0629 88.046C71.9445 88.046 73.5557 88.7249 74.8966 90.0933C76.2376 91.4618 76.8972 93.1105 76.8972 95.0608C76.8972 97.0112 76.2267 98.6275 74.875 99.9852C73.5233 101.343 71.9012 102.022 70.0088 102.022C68.9274 102.022 67.9434 101.785 67.0566 101.321C66.1699 100.858 65.3913 100.158 64.7209 99.2309V101.677H63.0015V101.688ZM69.8682 100.384C70.8198 100.384 71.7066 100.147 72.5068 99.6835C73.3178 99.2201 73.9558 98.5521 74.4316 97.7116C74.9075 96.8603 75.1454 95.966 75.1454 95.0177C75.1454 94.0695 74.9075 93.1751 74.4208 92.3131C73.9342 91.4618 73.2962 90.7937 72.4852 90.3196C71.6741 89.8455 70.809 89.6085 69.8898 89.6085C68.9707 89.6085 68.0623 89.8455 67.2188 90.3196C66.3754 90.7937 65.7265 91.4403 65.2724 92.2484C64.8182 93.0566 64.5911 93.9617 64.5911 94.9746C64.5911 96.5155 65.0993 97.7978 66.1158 98.8322C67.1323 99.8667 68.3867 100.384 69.8682 100.384Z" fill="#010101"/>
<path d="M70.0196 103.132C68.7544 103.132 67.5865 102.852 66.5484 102.313C66.2997 102.184 66.0617 102.033 65.8238 101.871V102.787H61.8984V82.1631H65.8238V88.1865C66.0942 88.0141 66.3645 87.8525 66.6457 87.7124C67.6838 87.206 68.8301 86.9474 70.0629 86.9474C72.2472 86.9474 74.1396 87.7448 75.686 89.3287C77.2216 90.902 78.0002 92.8308 78.0002 95.0613C78.0002 97.2918 77.2108 99.1883 75.6644 100.761C74.1072 102.335 72.204 103.132 70.0196 103.132ZM69.9006 90.708C69.1545 90.708 68.4516 90.8912 67.7703 91.2791C67.0999 91.6562 66.6024 92.1519 66.2456 92.7877C65.8779 93.4342 65.7049 94.1454 65.7049 94.9751C65.7049 96.225 66.105 97.2379 66.916 98.0676C67.7271 98.8866 68.6895 99.2852 69.879 99.2852C70.6468 99.2852 71.3281 99.1021 71.9661 98.7357C72.6041 98.3585 73.1015 97.8521 73.4908 97.1733C73.8801 96.4836 74.064 95.7832 74.064 95.0182C74.064 94.2531 73.8693 93.5527 73.48 92.8523C73.0907 92.1627 72.5933 91.6455 71.9444 91.2683C71.2956 90.8912 70.636 90.708 69.9006 90.708Z" fill="#010101"/>
<path d="M87.3 88.0459C89.3546 88.0459 91.0632 88.7894 92.4149 90.2657C93.6477 91.6234 94.2533 93.2181 94.2533 95.0715C94.2533 96.9249 93.6045 98.552 92.3068 99.942C91.0092 101.332 89.3438 102.022 87.3 102.022C85.2562 102.022 83.5801 101.332 82.2824 99.942C80.9848 98.552 80.3359 96.9249 80.3359 95.0715C80.3359 93.2181 80.9523 91.6342 82.1743 90.2764C83.526 88.7894 85.2346 88.0352 87.3 88.0352V88.0459ZM87.3 89.7161C85.8726 89.7161 84.6506 90.2441 83.6233 91.2893C82.596 92.3453 82.0878 93.6061 82.0878 95.1038C82.0878 96.0629 82.3257 96.9572 82.7907 97.7977C83.2557 98.6274 83.8937 99.2739 84.6831 99.7265C85.4833 100.179 86.3484 100.405 87.3 100.405C88.2516 100.405 89.1276 100.179 89.917 99.7265C90.7172 99.2739 91.3444 98.6382 91.8094 97.7977C92.2744 96.968 92.5123 96.0736 92.5123 95.1038C92.5123 93.6168 91.9932 92.3453 90.9659 91.2893C89.9386 90.2333 88.7166 89.7161 87.2892 89.7161H87.3Z" fill="#010101"/>
<path d="M87.3 103.132C84.9426 103.132 82.9853 102.313 81.4714 100.697C79.9791 99.1019 79.2329 97.2162 79.2329 95.0827C79.2329 92.9491 79.9466 91.1066 81.3632 89.5549C82.9204 87.8308 84.921 86.958 87.3 86.958C89.679 86.958 91.6688 87.8308 93.226 89.5441C94.6426 91.0958 95.3563 92.9599 95.3563 95.0827C95.3563 97.2054 94.5993 99.1127 93.1178 100.697C91.6039 102.313 89.6574 103.132 87.3 103.132ZM87.3 90.8264C86.1754 90.8264 85.2238 91.2359 84.4127 92.0656C83.5909 92.906 83.1908 93.9082 83.1908 95.115C83.1908 95.8908 83.3746 96.5912 83.7531 97.2701C84.1207 97.9274 84.6074 98.4231 85.2346 98.7787C85.8618 99.1342 86.543 99.3174 87.3108 99.3174C88.0786 99.3174 88.7491 99.145 89.3871 98.7787C90.0143 98.4231 90.4901 97.9274 90.8686 97.2701C91.247 96.602 91.4309 95.8908 91.4309 95.115C91.4309 93.9082 91.0308 92.9168 90.1981 92.0656C89.3763 91.2251 88.4354 90.8156 87.3108 90.8156L87.3 90.8264Z" fill="#010101"/>
<path d="M97.2918 88.3906H107.089L99.5303 100.168H106.84V101.688H96.5781L104.126 89.8992H97.2918V88.3906Z" fill="#010101"/>
<path d="M107.954 102.787H94.5669L102.115 90.988H96.189V87.292H109.111L101.553 99.0695H107.954V102.787Z" fill="#010101"/>
<path d="M122.964 91.1493L121.601 91.9897C120.423 90.4381 118.822 89.6515 116.789 89.6515C115.167 89.6515 113.815 90.1687 112.745 91.2139C111.674 92.2591 111.134 93.5199 111.134 95.0069C111.134 95.9766 111.382 96.8818 111.88 97.7438C112.377 98.5951 113.048 99.2632 113.913 99.7373C114.778 100.211 115.74 100.448 116.811 100.448C118.768 100.448 120.369 99.6726 121.612 98.1102L122.975 99.0045C122.337 99.9636 121.482 100.707 120.401 101.235C119.33 101.763 118.098 102.022 116.724 102.022C114.616 102.022 112.864 101.354 111.48 100.017C110.085 98.6813 109.393 97.0542 109.393 95.1362C109.393 93.8539 109.717 92.6578 110.366 91.5479C111.015 90.4489 111.912 89.5868 113.048 88.9618C114.183 88.3476 115.459 88.0352 116.865 88.0352C117.752 88.0352 118.606 88.1645 119.428 88.4339C120.25 88.7032 120.942 89.0481 121.515 89.4898C122.088 89.9209 122.575 90.4704 122.975 91.1385L122.964 91.1493Z" fill="#010101"/>
<path d="M116.724 103.132C114.324 103.132 112.301 102.356 110.712 100.815C109.101 99.2744 108.29 97.3671 108.29 95.1474C108.29 93.6712 108.668 92.2704 109.414 90.9989C110.16 89.7274 111.209 88.7145 112.518 88.0033C113.815 87.3029 115.275 86.9365 116.865 86.9365C117.86 86.9365 118.833 87.0874 119.763 87.3999C120.693 87.7016 121.504 88.111 122.174 88.6175C122.856 89.1347 123.44 89.792 123.915 90.5786L124.467 91.5053L121.331 93.4449L120.725 92.6367C119.763 91.3652 118.476 90.7402 116.789 90.7402C115.448 90.7402 114.378 91.1497 113.513 91.9902C112.658 92.8199 112.237 93.8113 112.237 94.9965C112.237 95.7724 112.431 96.4943 112.831 97.184C113.231 97.8628 113.751 98.38 114.443 98.7572C115.145 99.1451 115.924 99.3283 116.811 99.3283C118.433 99.3283 119.72 98.7033 120.747 97.4102L121.374 96.6236L124.499 98.671L123.883 99.5869C123.137 100.708 122.131 101.58 120.877 102.195C119.655 102.798 118.249 103.1 116.713 103.1L116.724 103.132Z" fill="#010101"/>
<path d="M140.514 88.3917V101.689H138.817V99.4041C138.092 100.277 137.292 100.934 136.394 101.376C135.497 101.818 134.524 102.033 133.453 102.033C131.561 102.033 129.949 101.354 128.619 99.986C127.278 98.6175 126.619 96.9581 126.619 95.0078C126.619 93.0574 127.289 91.4519 128.641 90.0942C129.993 88.7365 131.615 88.0576 133.507 88.0576C134.599 88.0576 135.594 88.2947 136.481 88.758C137.368 89.2214 138.146 89.9218 138.817 90.8484V88.4024H140.514V88.3917ZM133.648 89.6955C132.696 89.6955 131.809 89.9325 130.998 90.3959C130.187 90.8592 129.549 91.5165 129.073 92.3678C128.598 93.219 128.36 94.1134 128.36 95.0509C128.36 95.9883 128.598 96.8827 129.084 97.7339C129.571 98.5852 130.209 99.2533 131.031 99.7274C131.842 100.202 132.718 100.439 133.648 100.439C134.578 100.439 135.475 100.202 136.319 99.7274C137.162 99.2533 137.811 98.6175 138.265 97.8094C138.719 97.0012 138.946 96.0961 138.946 95.0832C138.946 93.5423 138.438 92.26 137.422 91.2256C136.405 90.1912 135.151 89.6739 133.669 89.6739L133.648 89.6955Z" fill="#010101"/>
<path d="M133.464 103.132C131.279 103.132 129.387 102.335 127.841 100.751C126.305 99.1774 125.526 97.2486 125.526 95.0073C125.526 92.766 126.316 90.8911 127.873 89.3179C129.43 87.7446 131.333 86.9473 133.529 86.9473C134.805 86.9473 135.972 87.2274 137.011 87.7662C137.259 87.8955 137.497 88.0356 137.735 88.1972V87.2813H141.639V102.776H137.735V101.871C137.465 102.044 137.184 102.205 136.902 102.345C135.854 102.863 134.707 103.121 133.475 103.121L133.464 103.132ZM133.658 90.8049C132.891 90.8049 132.209 90.988 131.571 91.3544C130.933 91.7208 130.436 92.238 130.047 92.9169C129.657 93.6065 129.473 94.3069 129.473 95.0612C129.473 95.8154 129.668 96.5158 130.057 97.2055C130.447 97.8951 130.944 98.4123 131.593 98.7895C132.242 99.1666 132.912 99.3498 133.648 99.3498C134.383 99.3498 135.097 99.1666 135.778 98.7787C136.448 98.4015 136.946 97.9166 137.303 97.2809C137.67 96.6344 137.843 95.9232 137.843 95.0935C137.843 93.8435 137.443 92.8306 136.632 92.0009C135.821 91.182 134.859 90.7833 133.669 90.7833L133.658 90.8049Z" fill="#010101"/>
<path d="M158.628 88.3917V101.689H156.93V99.4041C156.205 100.277 155.405 100.934 154.508 101.376C153.61 101.818 152.637 102.033 151.566 102.033C149.674 102.033 148.063 101.354 146.732 99.986C145.392 98.6175 144.732 96.9581 144.732 95.0078C144.732 93.0574 145.402 91.4519 146.754 90.0942C148.106 88.7365 149.728 88.0576 151.62 88.0576C152.713 88.0576 153.707 88.2947 154.594 88.758C155.481 89.2214 156.259 89.9218 156.93 90.8484V88.4024H158.628V88.3917ZM151.761 89.6955C150.809 89.6955 149.923 89.9325 149.112 90.3959C148.3 90.8592 147.662 91.5165 147.187 92.3678C146.711 93.219 146.473 94.1134 146.473 95.0509C146.473 95.9883 146.711 96.8827 147.197 97.7339C147.684 98.5852 148.322 99.2533 149.144 99.7274C149.955 100.202 150.831 100.439 151.761 100.439C152.691 100.439 153.588 100.202 154.432 99.7274C155.275 99.2533 155.924 98.6175 156.378 97.8094C156.833 97.0012 157.06 96.0961 157.06 95.0832C157.06 93.5423 156.551 92.26 155.535 91.2256C154.518 90.1912 153.264 89.6739 151.783 89.6739L151.761 89.6955Z" fill="#010101"/>
<path d="M151.577 103.132C149.393 103.132 147.5 102.335 145.954 100.751C144.418 99.1774 143.64 97.2486 143.64 95.0073C143.64 92.766 144.429 90.8911 145.986 89.3179C147.543 87.7446 149.447 86.9473 151.642 86.9473C152.918 86.9473 154.086 87.2274 155.124 87.7662C155.373 87.8955 155.611 88.0356 155.848 88.1972V87.2813H159.752V102.776H155.848V101.871C155.578 102.044 155.297 102.205 155.016 102.345C153.967 102.863 152.821 103.121 151.588 103.121L151.577 103.132ZM151.772 90.8049C151.004 90.8049 150.323 90.988 149.685 91.3544C149.047 91.7208 148.549 92.238 148.16 92.9169C147.771 93.6065 147.587 94.3069 147.587 95.0612C147.587 95.8154 147.781 96.5158 148.171 97.2055C148.56 97.8951 149.057 98.4123 149.706 98.7895C150.355 99.1666 151.025 99.3498 151.761 99.3498C152.496 99.3498 153.21 99.1666 153.891 98.7787C154.562 98.4015 155.059 97.9166 155.416 97.2809C155.784 96.6344 155.957 95.9232 155.957 95.0935C155.957 93.8435 155.556 92.8306 154.745 92.0009C153.934 91.182 152.972 90.7833 151.782 90.7833L151.772 90.8049Z" fill="#010101"/>
<path d="M176.762 83.251V101.677H175.065V99.3926C174.34 100.265 173.54 100.923 172.642 101.364C171.745 101.806 170.772 102.022 169.701 102.022C167.809 102.022 166.197 101.343 164.867 99.9744C163.526 98.606 162.867 96.9465 162.867 94.9962C162.867 93.0458 163.537 91.4403 164.889 90.0826C166.241 88.7249 167.863 88.046 169.755 88.046C170.847 88.046 171.842 88.2831 172.729 88.7464C173.616 89.2098 174.394 89.9102 175.065 90.8369V83.2617H176.762V83.251ZM169.896 89.6947C168.944 89.6947 168.057 89.9317 167.246 90.3951C166.435 90.8584 165.797 91.5157 165.321 92.367C164.846 93.2182 164.608 94.1126 164.608 95.0501C164.608 95.9875 164.846 96.8819 165.332 97.7331C165.819 98.5844 166.457 99.2525 167.279 99.7266C168.09 100.201 168.966 100.438 169.896 100.438C170.826 100.438 171.723 100.201 172.567 99.7266C173.41 99.2525 174.059 98.6167 174.513 97.8086C174.967 97.0004 175.194 96.0953 175.194 95.0824C175.194 93.5415 174.686 92.2592 173.67 91.2248C172.653 90.1904 171.399 89.6731 169.917 89.6731L169.896 89.6947Z" fill="#010101"/>
<path d="M169.712 103.132C167.527 103.132 165.635 102.335 164.089 100.751C162.553 99.1775 161.774 97.2487 161.774 95.0074C161.774 92.7661 162.564 90.8912 164.121 89.318C165.678 87.7448 167.581 86.9474 169.777 86.9474C171.053 86.9474 172.221 87.2276 173.259 87.7663C173.507 87.8956 173.745 88.0357 173.983 88.1974V82.1523H177.887V102.777H173.983V101.871C173.713 102.044 173.432 102.205 173.151 102.346C172.102 102.863 170.955 103.121 169.723 103.121L169.712 103.132ZM169.906 90.805C169.139 90.805 168.457 90.9882 167.819 91.3546C167.181 91.7209 166.684 92.2381 166.295 92.917C165.905 93.6066 165.721 94.307 165.721 95.0613C165.721 95.8156 165.916 96.516 166.305 97.2056C166.695 97.8952 167.192 98.4125 167.841 98.7896C168.49 99.1667 169.16 99.3499 169.896 99.3499C170.631 99.3499 171.345 99.1667 172.026 98.7788C172.696 98.4017 173.194 97.9168 173.551 97.281C173.918 96.6345 174.091 95.9233 174.091 95.0936C174.091 93.8437 173.691 92.8308 172.88 92.0011C172.069 91.1822 171.107 90.7835 169.917 90.7835L169.906 90.805Z" fill="#010101"/>
<path d="M194.897 88.3917V101.689H193.199V99.4041C192.475 100.277 191.675 100.934 190.777 101.376C189.88 101.818 188.906 102.033 187.836 102.033C185.943 102.033 184.332 101.354 183.002 99.986C181.661 98.6175 181.001 96.9581 181.001 95.0078C181.001 93.0574 181.672 91.4519 183.024 90.0942C184.375 88.7365 185.997 88.0576 187.89 88.0576C188.982 88.0576 189.977 88.2947 190.864 88.758C191.75 89.2214 192.529 89.9218 193.199 90.8484V88.4024H194.897V88.3917ZM188.03 89.6955C187.079 89.6955 186.192 89.9325 185.381 90.3959C184.57 90.8592 183.932 91.5165 183.456 92.3678C182.98 93.219 182.742 94.1134 182.742 95.0509C182.742 95.9883 182.98 96.8827 183.467 97.7339C183.954 98.5852 184.592 99.2533 185.413 99.7274C186.225 100.202 187.1 100.439 188.03 100.439C188.96 100.439 189.858 100.202 190.701 99.7274C191.545 99.2533 192.194 98.6175 192.648 97.8094C193.102 97.0012 193.329 96.0961 193.329 95.0832C193.329 93.5423 192.821 92.26 191.804 91.2256C190.788 90.1912 189.534 89.6739 188.052 89.6739L188.03 89.6955Z" fill="#010101"/>
<path d="M187.847 103.132C185.662 103.132 183.77 102.335 182.223 100.751C180.688 99.1774 179.909 97.2486 179.909 95.0073C179.909 92.766 180.699 90.8911 182.256 89.3179C183.813 87.7446 185.716 86.9473 187.911 86.9473C189.187 86.9473 190.355 87.2274 191.393 87.7662C191.642 87.8955 191.88 88.0356 192.118 88.1972V87.2813H196.022V102.776H192.118V101.871C191.848 102.044 191.566 102.205 191.285 102.345C190.236 102.863 189.09 103.121 187.857 103.121L187.847 103.132ZM188.041 90.8049C187.273 90.8049 186.592 90.988 185.954 91.3544C185.316 91.7208 184.819 92.238 184.429 92.9169C184.04 93.6065 183.856 94.3069 183.856 95.0612C183.856 95.8154 184.051 96.5158 184.44 97.2055C184.829 97.8951 185.327 98.4123 185.976 98.7895C186.625 99.1666 187.295 99.3498 188.03 99.3498C188.766 99.3498 189.479 99.1666 190.161 98.7787C190.831 98.4015 191.329 97.9166 191.685 97.2809C192.053 96.6344 192.226 95.9232 192.226 95.0935C192.226 93.8435 191.826 92.8306 191.015 92.0009C190.204 91.182 189.241 90.7833 188.052 90.7833L188.041 90.8049Z" fill="#010101"/>
<path d="M86.4348 55.4612C86.4348 56.7327 85.4075 57.7563 84.1315 57.7563C82.8554 57.7563 81.8281 56.7327 81.8281 55.4612C81.8281 54.1897 82.8554 53.166 84.1315 53.166C85.4075 53.166 86.4348 54.1897 86.4348 55.4612Z" fill="#010101"/>
<path d="M155.329 60.7848L152.096 63.6295C150.96 62.0563 149.803 61.2697 148.625 61.2697C148.052 61.2697 147.587 61.4206 147.219 61.733C146.851 62.0348 146.667 62.3796 146.667 62.7675C146.667 63.1554 146.797 63.511 147.057 63.8558C147.414 64.3084 148.473 65.2889 150.258 66.7867C151.923 68.1767 152.929 69.0496 153.285 69.4159C154.172 70.3103 154.799 71.1615 155.167 71.9697C155.535 72.7779 155.718 73.6722 155.718 74.6312C155.718 76.5062 155.07 78.0578 153.772 79.2754C152.474 80.4931 150.777 81.1073 148.69 81.1073C147.057 81.1073 145.629 80.7086 144.418 79.9112C143.207 79.1138 142.169 77.8639 141.304 76.1506L144.97 73.9416C146.073 75.9566 147.338 76.9695 148.776 76.9695C149.522 76.9695 150.16 76.754 150.668 76.3122C151.177 75.8812 151.436 75.3747 151.436 74.8036C151.436 74.2864 151.242 73.7692 150.863 73.252C150.474 72.7348 149.63 71.9374 148.322 70.8706C145.824 68.8448 144.213 67.2716 143.477 66.1725C142.753 65.0734 142.385 63.9743 142.385 62.8752C142.385 61.2912 142.991 59.9335 144.202 58.8021C145.413 57.6707 146.905 57.0996 148.69 57.0996C149.836 57.0996 150.928 57.369 151.955 57.897C152.993 58.425 154.107 59.384 155.318 60.7848H155.329Z" fill="#010101"/>
<path d="M158.498 57.6817H162.877V72.4548C162.877 73.7263 162.985 74.6314 163.212 75.1594C163.439 75.6874 163.807 76.1077 164.315 76.4201C164.834 76.7326 165.451 76.8943 166.175 76.8943C166.943 76.8943 167.603 76.7219 168.165 76.3663C168.717 76.0107 169.106 75.5689 169.322 75.0193C169.538 74.4806 169.647 73.4354 169.647 71.9052V57.6709H174.026V71.291C174.026 73.5862 173.896 75.181 173.637 76.0753C173.377 76.9697 172.88 77.8209 172.145 78.6507C171.409 79.4804 170.566 80.0946 169.614 80.4932C168.663 80.8919 167.549 81.0859 166.283 81.0859C164.618 81.0859 163.169 80.7088 161.947 79.9437C160.714 79.1787 159.838 78.2304 159.309 77.0882C158.779 75.946 158.508 74.0065 158.508 71.291V57.6709L158.498 57.6817Z" fill="#010101"/>
<path d="M179.693 51.4961C180.32 51.4961 180.85 51.7116 181.282 52.1534C181.715 52.5844 181.942 53.1124 181.942 53.7266C181.942 54.3408 181.726 54.8796 181.282 55.3106C180.85 55.7416 180.32 55.9679 179.693 55.9679C179.065 55.9679 178.557 55.7524 178.114 55.3106C177.681 54.8796 177.454 54.3516 177.454 53.7266C177.454 53.1016 177.67 52.5952 178.114 52.1534C178.546 51.7224 179.076 51.4961 179.693 51.4961ZM177.53 57.6812H181.866V80.5359H177.53V57.6812Z" fill="#010101"/>
<path d="M183.272 57.6816H195.946V61.9703H191.772V80.5363H187.349V61.9703H183.283V57.6816H183.272Z" fill="#010101"/>
</g>
<defs>
<clipPath id="clip0_213_2095">
<rect width="196" height="107" fill="white"/>
</clipPath>
</defs>
</svg>
