<svg width="15" height="16" viewBox="0 0 15 16" fill="none" xmlns="http://www.w3.org/2000/svg">
<path d="M11.1385 15.1635C10.973 15.1245 10.8027 15.0953 10.6373 15.0516C9.14835 14.638 8.17033 13.2707 8.26764 11.7282C8.36496 10.1955 9.6106 8.90606 11.1336 8.76495C12.8658 8.59952 14.3499 9.73811 14.6516 11.4606C14.9435 13.1101 13.7514 14.8034 12.1019 15.1002C12.0046 15.1197 11.9121 15.1391 11.8148 15.1586H11.1336L11.1385 15.1635ZM11.0265 12.2197C10.7541 11.9131 10.4864 11.6114 10.2188 11.3098C9.99013 11.5141 9.77604 11.699 9.56194 11.8937C10.0437 12.4386 10.5156 12.9739 11.0022 13.5188C11.7856 12.7111 12.5544 11.9083 13.2989 11.1395C13.0945 10.9156 12.9047 10.7064 12.7052 10.4826C12.1408 11.0616 11.591 11.6309 11.0314 12.2148L11.0265 12.2197Z" fill="#144973"/>
<path d="M3.22174 3.47101C3.22174 3.16933 3.22661 2.86765 3.23147 2.56597C3.23634 1.296 4.19977 0.2012 5.46 0.0260314C6.88568 -0.173466 8.19458 0.794826 8.40381 2.2059C8.42813 2.36648 8.433 2.53191 8.433 2.69248C8.43787 2.94064 8.433 3.18393 8.433 3.45155H10.5302C10.5545 3.79702 10.5739 4.11816 10.5934 4.44417C10.6567 5.55357 10.7151 6.66297 10.7832 7.7675C10.788 7.86968 10.7832 7.91834 10.6567 7.94267C8.92931 8.29301 7.61068 9.72355 7.40632 11.4606C7.31387 12.2343 7.43551 12.9739 7.76152 13.6794C7.78099 13.7184 7.79558 13.7573 7.81991 13.8157C7.76639 13.8157 7.72746 13.8254 7.68367 13.8254C6.09742 13.8254 4.51604 13.8254 2.92979 13.8254C1.81553 13.8254 0.905627 13.1004 0.701264 12.0153C0.628277 11.6309 0.672069 11.2222 0.691532 10.8232C0.725592 10.0593 0.779116 9.29536 0.822908 8.53143C0.881298 7.57773 0.934821 6.61917 0.993211 5.66548C1.037 4.95508 1.07593 4.24467 1.11972 3.53913C1.11972 3.51967 1.11972 3.5002 1.12459 3.48074C1.13918 3.47588 1.14892 3.46128 1.16351 3.46128C1.84959 3.46128 2.53567 3.46128 3.22174 3.46128C3.22174 4.11816 3.22174 4.77991 3.22174 5.43679H4.11218V3.46614C4.17057 3.46614 4.22896 3.45641 4.28735 3.45641C5.3043 3.45641 6.32125 3.45641 7.3382 3.45641C7.39659 3.45641 7.45498 3.45641 7.5231 3.45641C7.5231 3.12067 7.5377 2.79953 7.5231 2.48325C7.47444 1.63174 6.80783 0.969994 5.93685 0.892142C5.13886 0.824021 4.33601 1.38845 4.1803 2.19131C4.10245 2.6049 4.13651 3.04282 4.11705 3.47101C3.81537 3.47101 3.51369 3.47101 3.21688 3.47101H3.22174ZM7.55716 3.47101V5.44652H8.41354V3.46614H7.55716V3.47101Z" fill="#144973"/>
</svg>
