<svg width="15" height="14" viewBox="0 0 15 14" fill="none" xmlns="http://www.w3.org/2000/svg">
<path d="M0.000372097 13.6994V6.91769C0.171741 6.61159 0.336414 6.55351 0.673948 6.67953C0.743091 6.70546 0.811864 6.73249 0.881379 6.75733C2.5434 7.34433 4.26899 7.59418 6.02394 7.68331C7.36962 7.75162 8.71119 7.69573 10.0476 7.52259C11.2531 7.36662 12.4386 7.12371 13.5698 6.67734C13.9839 6.51369 14.2616 6.75624 14.2586 7.13576C14.2426 9.24962 14.2482 11.3639 14.2549 13.4777C14.2556 13.7261 14.1772 13.8992 13.9452 14.0001H13.7225C13.6081 13.9537 13.495 13.9033 13.3787 13.862C11.7178 13.271 9.99219 13.0233 8.23761 12.9331C7.24545 12.8823 6.25478 12.9035 5.26448 12.9828C4.13218 13.0734 3.01216 13.2374 1.91778 13.5398C1.44828 13.6695 0.991784 13.8452 0.528976 14.0001H0.306308C0.165049 13.9383 0.061336 13.8397 0 13.6994H0.000372097ZM2.65009 10.306C2.85529 10.1139 3.04486 9.94804 3.22032 9.76832C3.38426 9.59993 3.37571 9.36103 3.2181 9.20323C3.05714 9.04215 2.80622 9.03484 2.63225 9.19995C2.34936 9.46879 2.07093 9.74275 1.79696 10.0204C1.62597 10.1935 1.62522 10.4222 1.79585 10.5953C2.06944 10.8733 2.34973 11.1454 2.63076 11.4161C2.7315 11.5133 2.8564 11.5585 2.99952 11.5279C3.33296 11.4559 3.45043 11.0873 3.21252 10.8397C3.04152 10.6622 2.85492 10.4989 2.65046 10.306H2.65009ZM11.5903 10.3129C11.4814 10.4127 11.3925 10.4923 11.3059 10.5745C11.2193 10.6567 11.1338 10.74 11.0505 10.8258C10.8739 11.0077 10.8673 11.2459 11.0316 11.4124C11.1988 11.5823 11.4501 11.5808 11.6382 11.4004C11.91 11.1396 12.1791 10.8762 12.4442 10.6085C12.6274 10.4233 12.6296 10.1968 12.4479 10.0131C12.1769 9.73873 11.8999 9.46989 11.6223 9.20214C11.5215 9.10497 11.3966 9.05895 11.2539 9.0889C10.9204 9.15904 10.8015 9.52979 11.0383 9.77672C11.2089 9.95498 11.3921 10.1215 11.5907 10.3133L11.5903 10.3129Z" fill="#144973"/>
<path d="M11.6657 4.51778C11.6657 4.80452 11.6839 5.09236 11.662 5.37728C11.6089 6.07021 11.0003 6.57649 10.2632 6.56078C9.60076 6.54653 9.01305 5.99095 8.99223 5.33016C8.97476 4.78005 8.9755 4.22848 8.99297 3.678C9.01342 3.03037 9.60745 2.47478 10.2632 2.46126C10.9959 2.44629 11.6085 2.95037 11.6605 3.63052C11.6828 3.92457 11.6642 4.22154 11.6642 4.51741C11.6646 4.51741 11.6654 4.51741 11.6657 4.51741V4.51778ZM10.8331 4.51449C10.8331 4.27779 10.8331 4.04073 10.8331 3.80403C10.8331 3.79489 10.833 3.78576 10.8327 3.77663C10.8241 3.49646 10.6052 3.28095 10.3282 3.28095C10.0524 3.28095 9.82564 3.49938 9.82378 3.77663C9.82044 4.26391 9.82081 4.75119 9.82378 5.23847C9.82527 5.51864 10.0446 5.73635 10.3215 5.7411C10.6018 5.74621 10.8278 5.52631 10.8323 5.23847C10.836 4.99702 10.833 4.75557 10.8334 4.51449H10.8331Z" fill="#144973"/>
<path d="M3.94334 2.46094C4.32734 2.47738 4.71208 2.6907 4.94144 3.12867C5.17043 3.56627 5.13252 4.00058 4.84591 4.40422C4.78271 4.49298 4.79163 4.54266 4.85148 4.62448C5.16634 5.05295 5.16001 5.63009 4.84478 6.05272C4.52323 6.48375 3.97605 6.66419 3.46417 6.50822C2.94523 6.35005 2.58762 5.88871 2.57424 5.35942C2.56867 5.14062 2.72479 4.95104 2.9337 4.92364C3.15749 4.89442 3.35228 5.03067 3.40433 5.25458C3.41139 5.28527 3.41547 5.31705 3.41845 5.34883C3.44112 5.58078 3.61472 5.74442 3.8359 5.74113C4.05076 5.73821 4.2318 5.56178 4.23924 5.34883C4.24742 5.1198 4.08533 4.94519 3.84334 4.92182C3.61844 4.8999 3.47495 4.79762 3.42625 4.62375C3.35302 4.36331 3.53331 4.12405 3.81992 4.10177C4.14073 4.07656 4.33069 3.79311 4.20467 3.52426C4.13181 3.36865 4.00096 3.28427 3.83145 3.28427C3.65636 3.28427 3.52142 3.36865 3.44968 3.5323C3.42774 3.58198 3.41734 3.63677 3.39578 3.68681C3.30879 3.88844 3.085 3.99109 2.88055 3.92497C2.67461 3.85813 2.55379 3.64736 2.60063 3.43696C2.72888 2.86347 3.23407 2.4613 3.94259 2.46167L3.94334 2.46094Z" fill="#144973"/>
<path d="M6.95283 3.79153C7.16286 3.83463 7.33907 3.85144 7.50114 3.90696C8.15316 4.13014 8.51895 4.76354 8.40408 5.44734C8.30074 6.06247 7.71378 6.55376 7.07403 6.56107C6.37406 6.56911 5.78449 6.10922 5.66144 5.44588C5.59156 5.06854 5.68076 4.70217 5.79266 4.3442C6.01012 3.64871 6.40081 3.06097 6.96138 2.58429C7.12346 2.44658 7.2967 2.42247 7.46212 2.50721C7.62159 2.58904 7.7175 2.74684 7.67512 2.92692C7.65096 3.02956 7.57698 3.12855 7.50412 3.21074C7.32978 3.40726 7.14279 3.59282 6.95283 3.79153ZM6.48074 5.18909C6.47963 5.493 6.72349 5.73883 7.02905 5.74175C7.32978 5.74467 7.58627 5.49446 7.5885 5.19603C7.5911 4.89686 7.34056 4.64811 7.03611 4.64665C6.72794 4.64519 6.48186 4.88554 6.48074 5.18909Z" fill="#144973"/>
<path d="M10.884 1.23574C10.8829 0.550109 11.4387 0.000365461 12.1338 1.82776e-07C12.8308 -0.000365095 13.388 0.546822 13.388 1.23099C13.388 1.90858 12.8327 2.45796 12.1457 2.45978C11.4472 2.46197 10.8855 1.91661 10.8844 1.23537L10.884 1.23574ZM12.1383 0.82005C11.9182 0.818223 11.7204 1.01036 11.7186 1.22733C11.7171 1.44321 11.9126 1.63791 12.1331 1.63973C12.3531 1.64156 12.5509 1.44942 12.5528 1.23208C12.5546 1.01584 12.3591 0.821511 12.1383 0.82005Z" fill="#144973"/>
</svg>
