<svg width="48" height="48" viewBox="0 0 48 48" fill="none" xmlns="http://www.w3.org/2000/svg">
<g clip-path="url(#clip0_159_1274)">
<path d="M43.3113 47.9998C41.9817 47.7719 41.0158 46.9797 40.0986 46.0518C37.179 43.0945 34.2214 40.1753 31.3018 37.2234C30.9708 36.887 30.7537 36.8219 30.3358 37.0878C28.431 38.2869 26.358 39.0846 24.1656 39.5567C21.9189 40.0396 19.6505 40.1264 17.3766 39.8171C14.2997 39.3993 11.456 38.3575 8.88914 36.6048C4.50429 33.615 1.64979 29.5508 0.493886 24.3688C-1.8722 13.7932 4.49343 3.25009 15.0323 0.678079C23.1562 -1.30248 30.0482 1.07962 35.5347 7.42825C35.6378 7.54762 35.7355 7.66157 35.8929 7.84607C36.3053 7.41197 36.7123 6.99958 37.0868 6.56549C37.1573 6.48409 37.1573 6.28332 37.1085 6.16937C36.2293 4.0803 37.4287 1.93695 39.6591 1.63309C41.0158 1.4486 42.4267 2.2788 42.9369 3.60822C43.0617 3.92836 43.2245 4.02061 43.5501 4.01518C45.0316 4.00433 46.5185 4.02603 48.0001 4.03146V5.62676C46.5185 5.62676 45.0316 5.62676 43.5501 5.6159C43.2353 5.6159 43.0671 5.68102 42.9369 6.01744C42.5733 6.97788 41.8569 7.59646 40.8638 7.88405C39.9955 8.13365 39.1761 7.99257 38.3621 7.56933C37.9442 8.00342 37.5589 8.43752 37.1356 8.82278C36.8643 9.06696 36.7937 9.27315 37.0434 9.56074C37.1248 9.65298 37.1736 9.77236 37.2333 9.88088C39.5831 13.8854 40.4351 18.2046 39.8164 22.7952C39.4474 25.5463 38.5086 28.1129 37.0271 30.4678C36.8426 30.7554 36.8588 30.9236 37.1085 31.1678C40.0769 34.1196 43.0237 37.0932 46.003 40.0342C46.9255 40.9458 47.7504 41.8954 48.0055 43.2139V44.4348C47.707 45.52 47.2729 46.5402 46.2798 47.1479C45.6882 47.5169 44.9936 47.7176 44.3478 47.9944H43.3167L43.3113 47.9998ZM38.3838 19.9627C38.3783 9.81034 30.1188 1.39434 19.5962 1.58425C9.69773 1.76874 1.41644 9.87003 1.59553 20.3643C1.76376 30.2616 9.88767 38.5528 20.3722 38.3629C30.3358 38.1838 38.3729 30.0663 38.3838 19.9627ZM39.2683 35.6118C38.0419 36.8327 36.8426 38.0265 35.6215 39.2474C35.7138 39.3451 35.8223 39.4698 35.9417 39.5838C37.4884 41.1303 39.035 42.6767 40.5816 44.2232C41.1026 44.7441 41.6019 45.2813 42.1554 45.7642C43.2028 46.6812 44.7006 46.6053 45.672 45.6231C46.6217 44.6627 46.7193 43.138 45.7642 42.1504C43.6261 39.9365 41.4282 37.7877 39.2521 35.6118C39.2412 35.601 39.2249 35.6064 39.2683 35.6118ZM34.3679 37.9397C35.5781 36.7459 36.7829 35.5576 37.9442 34.4126C37.2441 33.7127 36.5278 33.0018 36.0123 32.4918C34.8509 33.6584 33.6516 34.8576 32.4686 36.0405C32.9787 36.556 33.6842 37.2614 34.3679 37.9451V37.9397ZM39.9847 6.38642C40.8801 6.39185 41.6019 5.68102 41.591 4.79655C41.5802 3.92836 40.8692 3.21753 40.001 3.21753C39.1381 3.21753 38.4326 3.92836 38.4272 4.79655C38.4272 5.68102 39.1055 6.37557 39.9792 6.381L39.9847 6.38642Z" fill="#FF7BEA"/>
<path d="M19.9435 3.20117C29.207 3.25543 36.7828 10.5102 36.7991 20.0006C36.8154 29.3391 29.3969 36.7892 20.014 36.7892C10.7179 36.7892 3.2615 29.4259 3.22894 20.0386C3.20181 10.7924 10.528 3.33683 19.9435 3.20117ZM33.2717 12.6427C32.7507 13.1853 32.2949 13.6737 31.8119 14.1404C31.6274 14.3194 31.5948 14.4551 31.7088 14.6992C32.2732 15.9364 32.0018 17.3635 31.063 18.2805C30.1187 19.2084 28.7295 19.4634 27.5139 18.91C27.2751 18.8014 27.1394 18.8069 26.9549 18.9968C25.3811 20.5867 23.8019 22.1657 22.2173 23.7338C22.0274 23.9183 22.0165 24.0648 22.1196 24.3036C22.2499 24.5966 22.3584 24.9222 22.391 25.2423C22.5483 26.6151 21.8266 27.8849 20.573 28.4926C19.4116 29.0569 17.9247 28.8073 16.975 27.8849C16.0308 26.9678 15.7594 25.5516 16.3075 24.3036C16.4106 24.0703 16.4106 23.9292 16.2207 23.7393C15.1625 22.7029 14.1151 21.6502 13.0731 20.5921C12.9103 20.4239 12.7855 20.3913 12.5522 20.4944C10.7993 21.2704 8.95421 20.5053 8.25415 18.7255C8.15647 18.4813 8.03708 18.3945 7.7766 18.3999C6.96258 18.4162 6.15398 18.4216 5.33997 18.3999C4.98722 18.3891 4.89497 18.5139 4.87326 18.8503C4.74302 21.189 5.03064 23.4625 5.92063 25.633C7.33703 29.1058 9.70854 31.7375 13.0352 33.4684C16.009 35.0149 19.1729 35.5087 22.4778 34.966C26.4122 34.3203 29.6086 32.3886 32.0398 29.2523C34.1291 26.5555 35.1656 23.4625 35.1819 20.0386C35.1928 17.4449 34.5578 15.0194 33.2717 12.6373V12.6427ZM13.9794 19.2301C15.1299 20.3805 16.2641 21.52 17.4146 22.6432C17.5014 22.73 17.7348 22.7571 17.8487 22.7083C18.7604 22.3068 19.6559 22.3122 20.5676 22.7029C20.6924 22.7571 20.9366 22.7137 21.0343 22.6215C22.646 21.0316 24.2469 19.4309 25.8424 17.8193C25.9292 17.7325 25.9781 17.4992 25.9238 17.3961C25.2563 16.0232 25.7122 14.5744 26.575 13.728C27.5247 12.7947 28.8651 12.583 30.173 13.1311C30.2815 13.1745 30.4715 13.1908 30.5366 13.1311C31.1661 12.5288 31.7793 11.9102 32.3871 11.3025C29.3318 6.74447 23.0802 3.61899 16.3347 5.29568C9.99073 6.8747 6.04545 12.1706 5.25314 16.7992C6.06716 16.7992 6.88118 16.7829 7.68977 16.8046C8.01538 16.8155 8.1619 16.7232 8.28672 16.3976C8.8511 14.9271 10.5388 14.1295 12.0366 14.5148C13.822 14.976 15.1245 17.1193 13.9903 19.2355L13.9794 19.2301ZM19.2054 27.1903C20.0629 27.1903 20.7955 26.4795 20.8118 25.6222C20.828 24.7594 20.0683 23.9943 19.2 24.0051C18.3426 24.016 17.6208 24.7485 17.6262 25.6004C17.6262 26.4632 18.3426 27.1795 19.2054 27.1849V27.1903ZM11.2226 16.0232C10.3435 16.0232 9.65427 16.7069 9.64884 17.5914C9.64884 18.4867 10.3652 19.2138 11.2443 19.1976C12.1126 19.1813 12.8072 18.465 12.8018 17.5914C12.7964 16.7178 12.0963 16.0232 11.2226 16.0232ZM30.3901 16.0015C30.3901 15.1225 29.7009 14.4279 28.8217 14.4279C27.948 14.4279 27.2371 15.1171 27.2208 15.9853C27.2045 16.8589 27.948 17.6077 28.8271 17.5968C29.6954 17.586 30.3901 16.8751 30.3901 16.0015Z" fill="#FF7BEA"/>
</g>
<defs>
<clipPath id="clip0_159_1274">
<rect width="48" height="48" fill="white"/>
</clipPath>
</defs>
</svg>
