<svg width="13" height="13" viewBox="0 0 13 13" fill="none" xmlns="http://www.w3.org/2000/svg">
<path d="M11.0783 7.85674C11.4828 8.02476 11.841 8.26222 12.141 8.58715C12.7063 9.19902 12.9897 9.93057 13 10.7753C13.0037 11.0868 12.8734 11.3385 12.6541 11.5433C12.3248 11.851 11.9218 11.9998 11.4995 12.0949C10.3834 12.3466 9.27182 12.342 8.18022 11.9703C7.92722 11.8843 7.68423 11.737 7.4668 11.5748C7.09009 11.2932 7.03489 10.8762 7.0949 10.4293C7.25974 9.20362 7.90203 8.35544 9.00142 7.84753C8.63471 7.43898 8.47691 6.9606 8.59396 6.40628C8.67175 6.03724 8.86363 5.73878 9.15589 5.51321C9.73855 5.06361 10.5498 5.12269 11.0724 5.64288C11.5188 6.08672 11.7977 7.03157 11.0776 7.85674H11.0783Z" fill="#144973"/>
<path d="M4.00411 6.95635C4.4086 7.12437 4.76679 7.36183 5.06683 7.68675C5.63208 8.29863 5.91545 9.03019 5.92582 9.87491C5.92953 10.1864 5.79914 10.4381 5.57985 10.6429C5.25056 10.9506 4.84755 11.0994 4.42528 11.1946C3.30922 11.4462 2.19761 11.4416 1.106 11.0699C0.853004 10.984 0.610012 10.8366 0.392579 10.6744C0.0158688 10.3928 -0.0393242 9.9758 0.0206828 9.52889C0.185517 8.30323 0.827813 7.45505 1.9272 6.94714C1.56049 6.53859 1.40269 6.06021 1.51975 5.50589C1.59753 5.13685 1.78941 4.83839 2.08167 4.61282C2.66433 4.16322 3.47554 4.2223 3.99819 4.74249C4.44454 5.18633 4.72345 6.13118 4.00337 6.95635H4.00411Z" fill="#144973"/>
<path d="M5.44721 3.0699C5.18755 3.0699 4.95196 3.06645 4.71675 3.07259C4.666 3.07374 4.61118 3.10174 4.5671 3.13128C4.33856 3.28435 4.1115 3.44048 3.88666 3.5993C3.77516 3.67794 3.66108 3.70939 3.53662 3.64341C3.41031 3.57628 3.374 3.45621 3.374 3.31887C3.374 2.48182 3.37067 1.64438 3.37511 0.807324C3.37771 0.319746 3.69367 0.000959045 4.1615 0.000575427C5.02086 -0.000191809 5.88022 -0.000191809 6.73958 0.000575427C7.21631 0.000959045 7.52301 0.322431 7.52412 0.820367C7.52412 0.948879 7.52412 1.07777 7.52412 1.22624C7.58301 1.22624 7.63228 1.22624 7.68154 1.22624C8.05122 1.22624 8.42089 1.22393 8.79056 1.227C9.2984 1.23084 9.60029 1.54502 9.60066 2.06789C9.6014 2.88615 9.59992 3.70402 9.60177 4.52228C9.60177 4.67074 9.56991 4.79849 9.43434 4.87329C9.30174 4.94656 9.18654 4.89631 9.07356 4.81613C8.86798 4.67036 8.66351 4.5219 8.45015 4.38878C8.36866 4.33814 8.26457 4.30324 8.17049 4.30208C7.54227 4.2948 6.91368 4.29863 6.28546 4.29825C5.74725 4.29786 5.44758 3.9856 5.44721 3.42552C5.44721 3.30851 5.44721 3.19151 5.44721 3.07067V3.0699ZM3.9737 2.79331C4.08482 2.71736 4.17706 2.66365 4.25893 2.59652C4.40005 2.48105 4.55414 2.44192 4.73416 2.44384C5.39424 2.45189 6.05431 2.44767 6.71439 2.44652C6.89441 2.44652 6.92516 2.41507 6.92553 2.22901C6.92664 1.76522 6.92664 1.30181 6.92553 0.838014C6.92516 0.652342 6.89367 0.619351 6.71439 0.618584C6.36805 0.61705 6.02209 0.618201 5.67576 0.618201C5.17718 0.618201 4.6786 0.618968 4.18002 0.617817C4.06594 0.617817 3.9737 0.642752 3.9737 0.785842C3.97296 1.44528 3.97333 2.10434 3.97333 2.79331H3.9737Z" fill="#144973"/>
</svg>
