<svg width="78" height="79" viewBox="0 0 78 79" fill="none" xmlns="http://www.w3.org/2000/svg">
<rect width="78" height="79" rx="15" fill="#D9D9D9" fill-opacity="0.25"/>
<path d="M29.8118 17.5518C30.4063 17.6953 31.0111 17.808 31.5953 17.9925C32.6613 18.3205 33.6248 18.8535 34.4653 19.5812C34.5985 19.694 34.701 19.9092 34.701 20.0732C34.7113 30.5076 34.701 40.9318 34.701 51.3662C34.701 51.4277 34.701 51.4994 34.6805 51.6839C34.2193 50.577 33.6043 49.7262 32.774 49.06C31.5953 48.1067 30.2321 47.666 28.7151 47.6557C26.8803 47.6557 25.0456 47.6557 23.2109 47.6557C22.3191 47.6557 21.8066 47.1432 21.8066 46.2412C21.8066 37.1598 21.8066 28.0784 21.8066 18.9867C21.8066 18.2693 22.1551 17.849 22.7599 17.562H29.8118V17.5518Z" fill="#24419A"/>
<path d="M49.2463 17.5518C49.9535 17.8695 50.2098 18.4128 50.1995 19.1917C50.179 25.1674 50.1893 31.1431 50.1893 37.1086C50.1893 37.2828 50.1893 37.4468 50.1893 37.6313C44.4903 36.4321 40.2161 38.3488 37.2949 43.4328C37.2949 43.279 37.2949 43.1458 37.2949 43.0125C37.2949 35.4071 37.2949 27.8017 37.2949 20.1962C37.2949 19.8785 37.3872 19.6735 37.6434 19.4787C38.9247 18.4845 40.3494 17.849 41.9689 17.6338C42.0509 17.6235 42.1226 17.5825 42.2046 17.5518C44.5519 17.5518 46.9093 17.5518 49.2566 17.5518H49.2463Z" fill="#24419A"/>
<path d="M60.6764 59.1666C60.6457 59.2384 60.5944 59.3101 60.5739 59.3819C59.8667 61.6368 57.2017 62.3133 55.5104 60.6733C54.4855 59.6689 53.481 58.6541 52.4662 57.6394C52.4047 57.5779 52.3535 57.5164 52.2715 57.4139C54.0652 56.3786 55.4695 54.9846 56.5047 53.1807C56.6277 53.2934 56.7404 53.3857 56.8327 53.4882C57.6322 54.2877 58.4214 55.1076 59.2414 55.8866C59.8667 56.4811 60.3997 57.1371 60.6662 57.9674V59.1666H60.6764Z" fill="#24419A"/>
<path d="M55.2622 48.0042C55.2622 52.5346 51.6337 56.1528 47.1033 56.1631C42.5625 56.1631 38.9238 52.5244 38.9238 47.9734C38.9238 43.4737 42.5933 39.8247 47.1135 39.835C51.6337 39.835 55.2622 43.4839 55.2622 48.0144V48.0042Z" fill="#24419A"/>
<path d="M32.3137 52.8118H31.8935C27.3118 52.8118 22.7198 52.8118 18.1381 52.8118C17.1541 52.8118 16.6621 52.3198 16.6621 51.3358C16.6621 41.7111 16.6621 32.0762 16.6621 22.4516C16.6621 21.4983 17.1644 21.0063 18.1176 20.9961C18.4763 20.9961 18.8248 20.9961 19.2348 20.9961C19.2348 21.1908 19.2348 21.3548 19.2348 21.5291C19.2348 29.7393 19.2348 37.9494 19.2348 46.1596C19.2348 47.9943 20.2188 49.4601 21.8486 49.9931C22.3201 50.1468 22.8223 50.2186 23.3245 50.2288C25.2105 50.2596 27.1068 50.2288 29.003 50.2493C30.8377 50.2698 32.119 51.7356 32.324 52.822L32.3137 52.8118Z" fill="#24419A"/>
<path d="M55.3462 40.9421C54.5262 40.2758 53.7062 39.6301 52.9067 38.9433C52.8042 38.8613 52.7734 38.6461 52.7734 38.4821C52.7734 35.7044 52.7734 32.9267 52.7734 30.1489C52.7734 27.2687 52.7734 24.3885 52.7734 21.5083C52.7734 21.3545 52.7734 21.2008 52.7734 20.9958C53.2962 20.9958 53.7984 20.9548 54.2904 20.9958C54.8644 21.0573 55.3154 21.5903 55.3462 22.1745C55.3462 22.2462 55.3462 22.318 55.3462 22.3897C55.3462 28.4679 55.3462 34.5359 55.3462 40.6141C55.3462 40.7371 55.3462 40.8601 55.3462 40.9216V40.9421Z" fill="#24419A"/>
</svg>
