<svg width="47" height="43" viewBox="0 0 47 43" fill="none" xmlns="http://www.w3.org/2000/svg">
<g clip-path="url(#clip0_159_1272)">
<path d="M47.0001 35.1512C46.8844 35.6498 46.7872 36.1576 46.6438 36.6516C45.5332 40.4696 42.0164 43.115 38.0462 42.9996C34.7237 42.9026 32.1741 41.3791 30.4943 38.5075C28.2408 34.648 26.0197 30.7746 23.7893 26.9058C23.7106 26.7673 23.6181 26.6288 23.5024 26.4441C23.3867 26.6334 23.2988 26.7673 23.2155 26.9104C20.9805 30.7792 18.7455 34.648 16.5058 38.5122C15.0899 40.9544 13.0215 42.4918 10.1988 42.9026C5.62695 43.5675 0.740468 40.6128 0.0833847 35.4882C-0.180374 33.4338 0.185186 31.5178 1.22171 29.7266C6.11745 21.2549 11.0039 12.7879 15.9182 4.3393C18.3059 0.23505 23.5487 -1.19151 27.7364 1.07067C27.8938 1.15839 28.3658 1.43539 28.5092 1.54158C28.8053 1.75856 29.6198 2.50185 29.7771 2.71422C30.573 3.7576 30.6146 3.73451 31.2856 4.85637C33.8954 9.20993 36.4636 13.5958 39.0179 17.9817C41.1696 21.6704 43.2751 25.3822 45.4175 29.0802C46.1487 30.3452 46.7733 31.6379 46.9307 33.1106C46.9307 33.1522 46.9723 33.1891 46.9955 33.226V35.1512H47.0001ZM16.6539 8.89599C16.5938 9.62543 16.7418 10.4103 17.1074 11.1489C17.3804 11.7122 17.6396 12.28 17.9496 12.8202C20.9389 18.0278 23.9374 23.2355 26.9405 28.4385C28.7406 31.5548 30.5036 34.6895 32.373 37.7689C34.9412 41.9978 41.0493 42.1501 43.8257 38.0643C45.4175 35.7237 45.5008 33.226 44.1034 30.7653C41.1881 25.6362 38.2313 20.5301 35.2698 15.4286C33.2846 12.0123 31.2764 8.61437 29.2403 5.23494C28.8192 4.53782 28.3195 3.80838 27.6716 3.35133C26.0058 2.16483 24.1178 1.70316 22.0679 2.13252C19.2267 2.72807 16.6956 5.24418 16.6539 8.90061V8.89599ZM5.68711 25.9501C8.39411 25.0775 10.8882 25.2391 13.2389 26.6011C15.5896 27.963 16.964 30.0405 17.5331 32.7597C17.6673 32.5428 17.746 32.4135 17.82 32.2842C19.2499 29.8189 20.6705 27.3443 22.1188 24.8883C22.3132 24.5605 22.2854 24.3296 22.1096 24.0249C20.2262 20.7979 18.3475 17.5708 16.4781 14.3345C15.7701 13.1064 15.0806 11.8645 14.8215 10.4472C14.8122 10.4057 14.7891 10.3687 14.7521 10.281C11.7212 15.521 8.73653 20.6778 5.68248 25.9547L5.68711 25.9501ZM8.76429 41.019C12.6004 41.0283 15.6637 37.9258 15.6729 34.0155C15.6822 30.396 12.4847 27.3582 8.66249 27.3582C4.97912 27.3582 1.97134 30.4191 1.95283 34.1817C1.93432 37.9258 5.00226 41.0052 8.75967 41.0144L8.76429 41.019Z" fill="#52FEB6"/>
</g>
<defs>
<clipPath id="clip0_159_1272">
<rect width="47" height="43" fill="white"/>
</clipPath>
</defs>
</svg>
