<svg width="18" height="16" viewBox="0 0 18 16" fill="none" xmlns="http://www.w3.org/2000/svg">
<path d="M17.2963 15.9404C17.2263 15.9404 17.1463 15.9404 17.0763 15.9404C13.9063 15.9404 10.7463 15.9404 7.57628 15.9404C7.50628 15.9404 7.43628 15.9404 7.36628 15.9404C7.21628 14.3504 7.83628 12.5504 9.35628 11.4404C11.3263 12.8304 13.2963 12.8304 15.2863 11.4404C15.8363 11.8404 16.2863 12.3604 16.6363 12.9604C16.9763 13.5604 17.1863 14.2004 17.2563 14.8804C17.2563 14.9204 17.2763 14.9604 17.2863 14.9904V15.9404H17.2963Z" fill="#144973"/>
<path d="M12.3162 11.4596C10.2962 11.4596 8.65625 9.81965 8.65625 7.79965C8.65625 5.77965 10.2962 4.13965 12.3162 4.13965C14.3362 4.13965 15.9762 5.76965 15.9762 7.78965C15.9762 9.80965 14.3462 11.4496 12.3162 11.4496V11.4596Z" fill="#144973"/>
<path d="M6.58607 2.82C6.58607 4.37 5.31607 5.64 3.77607 5.63C2.22607 5.63 0.966064 4.36 0.966064 2.81C0.966064 1.27 2.23606 0 3.78606 0C5.33606 0 6.59607 1.27 6.59607 2.82H6.58607Z" fill="#144973"/>
<path d="M0.0161783 8.87988C-0.0838217 7.60988 0.276175 6.51988 1.19617 5.62988C1.93617 6.28988 2.79618 6.62988 3.78618 6.62988C4.76618 6.62988 5.61618 6.28988 6.36618 5.62988C7.28618 6.51988 7.63618 7.60988 7.54618 8.87988H0.0261766H0.0161783Z" fill="#144973"/>
<path d="M6.66611 13.3604C6.05611 13.9704 5.43611 14.5904 4.83611 15.1904C4.60611 14.9604 4.37611 14.7304 4.11611 14.4704C4.30611 14.2904 4.50611 14.1004 4.73611 13.8804H0.0161133V9.94043H1.01611V12.8304H4.71611C4.49611 12.6204 4.28611 12.4304 4.09611 12.2604C4.36611 11.9904 4.59611 11.7504 4.82611 11.5204C5.42611 12.1204 6.03611 12.7304 6.65611 13.3504L6.66611 13.3604Z" fill="#144973"/>
</svg>
