<svg width="40" height="48" viewBox="0 0 40 48" fill="none" xmlns="http://www.w3.org/2000/svg">
<g clip-path="url(#clip0_159_1277)">
<path d="M28.9987 0C29.3352 0.135262 29.6947 0.234454 30.0035 0.414804C31.0036 1.00545 31.5612 1.88465 31.5751 3.03438C31.5981 4.68909 31.5797 6.34379 31.5797 7.9985C31.5797 8.16532 31.5797 8.33665 31.5797 8.5666C31.8055 8.5666 31.9945 8.5666 32.1788 8.5666C33.4094 8.57111 34.6399 8.52151 35.8659 8.59365C38.2901 8.74244 39.9631 10.4422 39.977 12.8093C40.0092 17.9763 40.0138 23.1479 39.977 28.3149C39.9585 30.8037 38.1196 32.526 35.5387 32.5621C34.4049 32.5801 33.2711 32.5621 32.1373 32.5621C31.9668 32.5621 31.7963 32.5621 31.5751 32.5621C31.5751 32.8011 31.5751 32.9814 31.5751 33.1663C31.5751 36.9942 31.5428 40.8176 31.5889 44.6455C31.6119 46.6068 30.068 48.0045 28.1738 47.991C19.9055 47.9459 11.6373 47.9729 3.36905 47.9729C1.34117 47.9729 0 46.6834 0 44.6996C0 30.9029 0 17.1016 0 3.29589C0 1.64118 0.82498 0.572609 2.44729 0.0766485C2.48877 0.067631 2.52103 0.0270524 2.5579 0C11.37 0 20.182 0 28.9987 0ZM8.95034 1.45632C8.91347 1.43829 8.88582 1.41574 8.85816 1.41574C6.94089 1.41574 5.02823 1.40222 3.11096 1.41574C2.57633 1.41574 2.06475 1.63216 1.82049 2.10107C1.61309 2.49784 1.48865 2.98027 1.48865 3.42664C1.47022 15.8437 1.47482 28.2608 1.47482 40.6778C1.47482 40.8356 1.43334 41.007 1.48865 41.1422C1.64074 41.5209 1.7744 41.9357 2.03249 42.2469C2.39198 42.6797 2.94965 42.6797 3.48888 42.6797C9.44348 42.6797 15.3981 42.6797 21.3527 42.6797C23.6848 42.6797 26.0168 42.6887 28.3443 42.6752C29.4642 42.6662 30.1095 41.9944 30.1095 40.8987C30.1095 38.3197 30.1095 35.7453 30.1095 33.1663C30.1095 32.9859 30.1095 32.8056 30.1095 32.6162C29.9435 32.5982 29.8514 32.5801 29.7546 32.5801C26.3394 32.5801 22.9197 32.5711 19.5046 32.5891C19.2787 32.5891 19.016 32.7199 18.8363 32.8687C17.214 34.1852 15.6101 35.5198 13.997 36.8454C13.8772 36.9446 13.7435 37.0393 13.6053 37.1114C12.8678 37.4946 12.1396 37.1069 12.1258 36.2908C12.1028 35.0735 12.1212 33.8606 12.1212 32.6342C11.9691 32.6027 11.8631 32.5666 11.7525 32.5621C9.81219 32.4764 7.76126 30.7856 7.78892 28.139C7.83961 23.0937 7.79813 18.0485 7.81657 13.0032C7.81657 12.4351 7.89492 11.8399 8.08388 11.3079C8.71068 9.56303 10.3007 8.57111 12.3839 8.57111C18.085 8.57111 23.7815 8.57111 29.4827 8.57111C29.6808 8.57111 29.8836 8.55307 30.1048 8.53955C30.1141 8.38625 30.1233 8.27804 30.1233 8.16983C30.1233 6.52865 30.1325 4.89198 30.1233 3.2508C30.1187 2.07402 29.4135 1.40673 28.1968 1.40673C26.4731 1.40673 24.7494 1.40673 23.0257 1.40673C22.8874 1.40673 22.7492 1.42025 22.574 1.42927C22.574 1.76742 22.574 2.07402 22.574 2.38512C22.5602 3.69716 21.5278 4.75672 20.1913 4.76573C17.2554 4.78377 14.315 4.78377 11.3792 4.76573C10.2454 4.76122 9.29139 3.9722 9.07017 2.88108C8.97799 2.41668 8.98721 1.92974 8.95034 1.45181V1.45632ZM13.573 35.3755C15.1308 34.086 16.601 32.8912 18.0436 31.6603C18.4768 31.2906 18.9146 31.1193 19.5046 31.1238C24.8831 31.1418 30.2616 31.1418 35.64 31.1328C37.2808 31.1328 38.4975 30.0056 38.5021 28.4276C38.5206 23.1839 38.5206 17.9358 38.5021 12.6921C38.4975 11.1591 37.29 10.0184 35.7138 10.0139C27.8281 10.0049 19.947 10.0049 12.0613 10.0139C10.4943 10.0139 9.26835 11.2222 9.26835 12.7552C9.25913 17.9718 9.25913 23.1839 9.26835 28.4005C9.26835 29.5773 10.0472 30.6504 11.1856 30.9885C11.6327 31.1193 12.1258 31.1148 12.6005 31.1328C13.3241 31.1599 13.573 31.3898 13.573 32.0977C13.573 33.1527 13.573 34.2123 13.573 35.3801V35.3755ZM1.49326 43.8475C1.49326 44.1991 1.44256 44.6726 1.51169 45.1324C1.55778 45.439 1.71909 45.7547 1.91266 46.0026C2.28137 46.467 2.82521 46.5843 3.41053 46.5843C11.6603 46.5843 19.9101 46.5843 28.1599 46.5843C28.2705 46.5843 28.3858 46.5843 28.4964 46.5798C29.3398 46.5166 29.9758 45.9801 30.0864 45.155C30.1463 44.6861 30.0956 44.2036 30.0956 43.6491C29.1554 44.2352 28.1415 44.1225 27.146 44.1225C19.3617 44.1225 11.5728 44.1315 3.78845 44.1135C3.04183 44.1135 2.2952 43.9466 1.49787 43.8475H1.49326ZM21.1084 1.43829H10.4943C10.3099 2.8901 10.6049 3.39959 12.112 3.37253C14.5362 3.32294 16.9605 3.35901 19.3801 3.35901C20.9609 3.35901 21.2144 3.0975 21.1361 1.55551C21.1361 1.52846 21.1222 1.4969 21.1038 1.43829H21.1084Z" fill="#FFC32A"/>
<path d="M26.7634 20.2491C26.3348 20.8848 25.9108 21.5205 25.4776 22.1563C25.0536 22.774 24.5005 22.7785 24.0765 22.1608C23.6341 21.5205 23.2054 20.8713 22.6754 20.2446C22.6754 20.5647 22.6754 20.8803 22.6754 21.2004C22.6754 22.2013 22.6846 23.1978 22.6708 24.1987C22.6662 24.627 22.3528 24.9201 21.9564 24.9246C21.5601 24.9246 21.2467 24.6316 21.2421 24.2032C21.2329 22.0481 21.2421 19.8929 21.2421 17.7422C21.2421 17.3905 21.408 17.1471 21.7583 17.0434C22.1177 16.9397 22.3851 17.0839 22.5786 17.368C23.187 18.2652 23.7908 19.1625 24.3945 20.0642C24.5051 20.231 24.6203 20.3979 24.7678 20.6143C25.0997 20.1228 25.4085 19.6719 25.7126 19.2211C26.109 18.6349 26.5054 18.0533 26.8925 17.4627C27.1137 17.1245 27.3902 16.9306 27.8096 17.0614C28.2014 17.1876 28.3304 17.4852 28.3258 17.8639C28.3212 18.3464 28.3258 18.8333 28.3258 19.3158C28.3258 20.8307 28.3258 22.3456 28.3258 23.8606C28.3258 23.9688 28.3304 24.0815 28.3258 24.1897C28.2982 24.6496 27.9986 24.9427 27.5792 24.9336C27.1782 24.9246 26.8925 24.6451 26.8879 24.1942C26.8741 23.04 26.8833 21.8857 26.8833 20.727C26.8833 20.5782 26.8833 20.4249 26.8833 20.2761C26.8464 20.2671 26.8095 20.2626 26.7727 20.2536L26.7634 20.2491Z" fill="#FFC32A"/>
<path d="M16.4258 24.9378C16.0433 24.9378 15.6608 24.9378 15.2782 24.9378C14.6975 24.9288 14.3473 24.6537 14.3611 24.2164C14.3749 23.7926 14.716 23.5311 15.269 23.5311C16.0018 23.5311 16.7392 23.5446 17.472 23.5266C18.0988 23.513 18.4814 23.0757 18.4122 22.4805C18.3569 22.0342 18.0942 21.7727 17.638 21.7321C17.2093 21.6915 16.7761 21.7005 16.3521 21.6509C15.1169 21.5157 14.2505 20.5463 14.2551 19.3244C14.2551 18.1116 15.0985 17.1557 16.3383 17.0565C17.2278 16.9844 18.1219 17.0069 19.016 17.025C19.4769 17.034 19.7396 17.3406 19.735 17.7418C19.7304 18.1341 19.4446 18.4272 18.993 18.4407C18.2417 18.4632 17.4951 18.4407 16.7439 18.4497C16.0986 18.4542 15.7299 18.7653 15.7069 19.3064C15.6838 19.8429 16.0894 20.2171 16.7254 20.2577C17.1863 20.2848 17.6564 20.2712 18.1035 20.3569C19.2142 20.5733 19.9839 21.6329 19.8871 22.742C19.7811 23.9368 18.8685 24.8702 17.7255 24.9288C17.2969 24.9513 16.8637 24.9288 16.4351 24.9288C16.4351 24.9288 16.4351 24.9378 16.4351 24.9423L16.4258 24.9378Z" fill="#FFC32A"/>
<path d="M32.0728 24.924C31.3953 24.7166 30.1187 25.4606 30.1187 24.2387C30.1187 22.9718 31.4046 23.7112 32.1097 23.5399C32.4415 23.4587 32.8102 23.5399 33.1605 23.5218C33.7412 23.4858 34.0823 23.1341 34.0869 22.593C34.0869 22.1151 33.8242 21.7905 33.331 21.7274C32.9209 21.6778 32.5061 21.6868 32.0913 21.6507C30.8377 21.547 29.9067 20.5686 29.8929 19.3512C29.879 18.1519 30.7639 17.142 32.0083 17.0473C32.8794 16.9797 33.7597 17.0022 34.6353 17.0157C35.0962 17.0247 35.4188 17.3674 35.4004 17.7506C35.382 18.1384 35.0501 18.4315 34.58 18.4405C33.8472 18.454 33.1144 18.4405 32.3816 18.4495C31.718 18.4585 31.3815 18.7516 31.3723 19.3152C31.3631 19.8833 31.7272 20.2169 32.3816 20.253C32.8425 20.28 33.3126 20.2665 33.7597 20.3522C34.9165 20.5821 35.6355 21.6282 35.5202 22.832C35.4096 23.9817 34.474 24.879 33.3264 24.9195C32.9116 24.9331 32.4968 24.9195 32.0728 24.9195V24.924Z" fill="#FFC32A"/>
</g>
<defs>
<clipPath id="clip0_159_1277">
<rect width="40" height="48" fill="white"/>
</clipPath>
</defs>
</svg>
