<svg width="19" height="18" viewBox="0 0 19 18" fill="none" xmlns="http://www.w3.org/2000/svg">
<path d="M3.8216 5.44674C4.0216 6.37674 4.3816 7.23674 4.7916 8.06674C5.4716 9.44674 6.2916 10.7467 7.3316 11.8867C7.4816 12.0567 7.6416 12.2967 7.8216 12.3267C7.9916 12.3567 8.2116 12.1567 8.4016 12.0567C8.7416 11.8767 9.08159 11.6867 9.42159 11.4967C9.99159 11.1867 10.5616 11.3467 10.8916 11.8967C11.3616 12.7067 11.8316 13.5167 12.3016 14.3367C12.6416 14.9267 12.4416 15.5567 11.8216 15.8467C10.9116 16.2867 10.0016 16.7167 9.0816 17.1467C9.0016 17.1867 8.89161 17.1867 8.81161 17.1667C7.97161 16.9267 7.26161 16.4667 6.59161 15.9267C5.25161 14.8367 4.1716 13.5167 3.2116 12.0867C1.9816 10.2367 1.0016 8.26674 0.401604 6.11674C0.151604 5.22674 -0.0184047 4.32674 0.00159529 3.39674C0.00159529 2.98674 0.0816044 2.57674 0.151604 2.16674C0.161604 2.08674 0.231598 1.98674 0.301598 1.93674C1.1316 1.35674 1.9616 0.786739 2.8016 0.216739C3.3616 -0.173261 4.0116 -0.0232614 4.3516 0.556739C4.8216 1.36674 5.29161 2.17674 5.76161 2.99674C6.07161 3.54674 5.93159 4.12674 5.39159 4.46674C5.13159 4.62674 4.8716 4.78674 4.6116 4.94674C4.3516 5.10674 4.09161 5.26674 3.81161 5.43674L3.8216 5.44674Z" fill="#144973"/>
<path d="M18.6017 3.39648C18.6017 3.51648 18.6117 3.59648 18.6117 3.67648C18.6117 6.49648 18.6117 9.30648 18.6117 12.1265C18.6117 12.6665 18.3016 12.9865 17.7516 12.9865C16.0816 12.9865 14.4216 12.9865 12.7516 12.9865C12.6316 12.9865 12.5616 12.9565 12.5016 12.8465C12.2416 12.3865 11.9817 11.9365 11.7217 11.4865C11.1217 10.4565 10.0017 10.1465 8.96166 10.7165C8.64166 10.8865 8.32165 11.0665 7.97165 11.2565C7.68165 10.8865 7.38166 10.5265 7.10166 10.1465C6.21166 8.89648 5.48166 7.55648 4.96166 6.11648C4.90166 5.94648 4.92166 5.85648 5.09166 5.76648C5.47166 5.54648 5.84166 5.30648 6.24166 5.06648C6.69166 5.37648 7.16165 5.69648 7.63165 6.01648C8.70165 6.75648 9.78166 7.48648 10.8517 8.22648C11.1517 8.42648 11.2717 8.42648 11.5717 8.22648C13.8417 6.66648 16.1116 5.11648 18.3916 3.55648C18.4516 3.51648 18.5117 3.47648 18.6017 3.41648V3.39648Z" fill="#144973"/>
<path d="M6.71167 2.82715H17.7817C15.5617 4.34715 13.3917 5.83715 11.2117 7.33715C10.8617 7.09715 10.5117 6.85715 10.1617 6.61715C9.07167 5.86715 7.98166 5.11715 6.89166 4.37715C6.79166 4.30715 6.74167 4.24715 6.79167 4.11715C6.93167 3.69715 6.89167 3.27715 6.73167 2.83715L6.71167 2.82715Z" fill="#144973"/>
</svg>
