<svg width="149" height="149" viewBox="0 0 149 149" fill="none" xmlns="http://www.w3.org/2000/svg">
<g clip-path="url(#clip0_486_2895)">
<path d="M18.3874 127.246C21.4212 130.432 24.2917 132.486 26.5594 134.109C53.2178 153.191 84.7619 147.629 91.4657 146.271C101.365 144.265 120.501 140.387 134.336 124.156C155.267 99.6013 152.008 60.9143 135.772 35.3771C132.803 30.7055 117.116 4.77899 85.2318 0.621323C65.9365 -1.89502 43.4436 3.18009 27.1553 16.7938C-7.03552 45.3708 -4.60141 103.101 18.3874 127.246Z" fill="url(#paint0_linear_486_2895)"/>
<path d="M146.375 50.2519C146.52 50.1851 146.622 50.0398 146.622 49.8722C146.624 49.3207 146.615 48.7596 146.594 48.2049C146.586 47.9769 146.391 47.8024 146.159 47.8151C145.596 47.8422 145.788 48.3905 145.782 49.8833C145.781 50.1114 145.969 50.2938 146.201 50.2906C146.264 50.2896 146.322 50.2758 146.375 50.2514L146.375 50.2519Z" fill="#91B3FA"/>
<path d="M146.06 43.0431C145.882 41.9978 145.66 40.9473 145.4 39.9206C145.344 39.7 145.116 39.569 144.89 39.6279C144.278 39.7917 144.708 40.1126 145.231 43.1926C145.269 43.417 145.485 43.5654 145.714 43.5241C145.947 43.4822 146.098 43.2647 146.06 43.0431ZM143.807 34.9918C143.415 34.0018 142.976 33.009 142.517 32.0751C142.272 31.5729 141.523 31.9638 141.759 32.4442C142.216 33.3755 142.639 34.3332 143.022 35.3026C143.106 35.5142 143.349 35.6155 143.566 35.5296C143.785 35.4426 143.889 35.2008 143.807 34.9913V34.9918ZM139.94 27.5818C139.355 26.6993 138.726 25.8291 138.07 24.9954C137.732 24.5659 137.065 25.0797 137.401 25.5077C138.043 26.3249 138.66 27.1777 139.234 28.0421C139.536 28.4971 140.241 28.0357 139.94 27.5823V27.5818ZM134.595 21.7133C134.761 21.5505 134.762 21.2885 134.599 21.1294C133.839 20.3865 133.039 19.6642 132.221 18.9827C131.8 18.6322 131.25 19.2664 131.671 19.617C132.473 20.2852 133.257 20.9926 134.001 21.7202C134.164 21.8798 134.431 21.8766 134.595 21.7138V21.7133ZM128.126 16.4807C128.255 16.2887 128.202 16.0331 128.008 15.9101C127.107 15.3373 126.172 14.7927 125.228 14.2916C124.742 14.0349 124.333 14.762 124.819 15.0202C125.744 15.5113 126.66 16.0448 127.543 16.6059C127.736 16.7289 127.997 16.6727 128.126 16.4802V16.4807ZM120.472 12.8931C120.568 12.8491 120.647 12.7706 120.69 12.6672C120.776 12.454 120.672 12.2154 120.457 12.1337C119.453 11.754 118.422 11.4088 117.392 11.1081C117.17 11.0434 116.935 11.168 116.864 11.387C116.795 11.6061 116.918 11.8357 117.139 11.9004C118.148 12.1952 119.159 12.5336 120.143 12.9053C120.253 12.9472 120.371 12.9393 120.472 12.8931ZM112.357 10.7342C112.479 10.678 112.572 10.5661 112.598 10.4266C112.639 10.2012 112.487 9.98912 112.259 9.95253C111.196 9.7823 110.111 9.65184 109.036 9.56381C108.805 9.54472 108.599 9.71389 108.576 9.94139C108.553 10.1684 108.721 10.3683 108.952 10.3869C110.006 10.4728 111.068 10.6011 112.11 10.7676C112.197 10.7814 112.282 10.7676 112.357 10.7337V10.7342ZM104.182 9.86026C104.176 9.63222 103.983 9.45616 103.751 9.46623C102.672 9.51396 101.579 9.60464 100.503 9.73616C99.9483 9.8051 100.041 10.6228 100.592 10.556C101.646 10.4277 102.717 10.3386 103.774 10.2919C104.005 10.2819 104.189 10.0888 104.182 9.86079V9.86026ZM77.9296 20.6993C80.3074 18.6067 80.8751 18.5977 80.4935 18.1029C80.3547 17.9226 80.0916 17.8903 79.9055 18.0292C79.0396 18.6799 78.1885 19.3725 77.3757 20.0879C76.9584 20.4549 77.5113 21.0669 77.9302 20.6993H77.9296ZM95.7967 11.002C95.743 10.7809 95.5165 10.6478 95.2906 10.7045C94.2402 10.9681 93.1855 11.2757 92.1559 11.6188C91.6264 11.7954 91.8847 12.5771 92.4131 12.4005C93.4226 12.0642 94.456 11.7625 95.4852 11.5042C95.7137 11.4464 95.8498 11.2205 95.7967 11.0015V11.002ZM84.7488 15.8252C87.4965 14.2523 88.06 14.3547 87.79 13.7899C87.6188 13.4319 87.1808 13.6011 87.2313 13.5995C86.2489 14.0662 85.2745 14.5758 84.3352 15.113C84.1332 15.2286 84.062 15.4821 84.1763 15.6783C84.2852 15.8661 84.5335 15.9446 84.7488 15.8252Z" fill="#91B3FA"/>
<path d="M73.1714 25.6445C74.0624 24.5495 74.6359 24.1591 74.2069 23.7959C74.0331 23.6484 73.7673 23.6681 73.6137 23.8431C72.6467 24.9387 72.154 25.3831 72.5798 25.7151C72.7073 25.8148 73.0247 25.8233 73.1709 25.6445H73.1714Z" fill="#91B3FA"/>
<path d="M64.0739 56.4335C64.2371 56.3582 64.3413 56.1859 64.3185 56.0024C64.2509 55.4636 64.1941 54.9179 64.1494 54.3791C64.1303 54.1521 63.9277 53.9861 63.696 54.0089C63.4653 54.0323 63.2925 54.2338 63.3111 54.4608C63.3568 55.0102 63.4153 55.5675 63.4839 56.1175C63.512 56.3434 63.722 56.5009 63.9522 56.4691C63.9953 56.4632 64.0362 56.451 64.0739 56.4335Z" fill="#91B3FA"/>
<path d="M123.126 86.9989C124.175 86.4819 125.214 85.9155 126.215 85.3152C126.415 85.1953 126.481 84.9408 126.362 84.7467C126.028 84.1999 125.828 84.7488 122.761 86.2613C122.552 86.3641 122.465 86.6129 122.566 86.8165C122.742 87.1723 123.177 86.9968 123.127 86.9984L123.126 86.9989ZM118.115 88.6578C117.912 88.0516 117.579 88.549 114.28 89.3742C114.054 89.4299 113.915 89.6558 113.968 89.8764C114.022 90.0976 114.248 90.2307 114.474 90.1745C115.602 89.8923 116.737 89.5588 117.846 89.1828C118.068 89.1075 118.186 88.8715 118.115 88.6572V88.6578ZM130.902 82.058C131.811 81.3299 132.702 80.5546 133.549 79.7538C133.718 79.5942 133.725 79.3327 133.566 79.1694C133.116 78.7096 133.045 79.2871 130.378 81.4206C130.196 81.5659 130.166 81.8263 130.311 82.0023C130.455 82.1778 130.72 82.2028 130.901 82.058H130.902ZM108.991 91.1497C109.15 91.0765 109.254 90.91 109.236 90.7292C109.214 90.5027 109.009 90.3394 108.778 90.3654C107.641 90.4921 106.487 90.5722 105.349 90.604C105.116 90.6104 104.931 90.8002 104.934 91.0283C104.936 91.2563 105.126 91.4361 105.358 91.4297C106.52 91.3974 107.698 91.3157 108.858 91.1863C108.905 91.181 108.95 91.1683 108.991 91.1497ZM99.9047 91.1677C100.033 91.1083 100.13 90.9869 100.149 90.8389C100.178 90.6125 100.015 90.4083 99.7851 90.3834C98.655 90.262 97.5163 90.0912 96.4 89.8759C96.173 89.8319 95.9497 89.9782 95.9014 90.202C95.853 90.4258 95.9976 90.6427 96.2246 90.6867C97.3638 90.9063 98.5258 91.0808 99.6793 91.2049C99.7591 91.2133 99.8362 91.1996 99.9042 91.1683L99.9047 91.1677ZM91.0682 89.2257C91.1682 89.1796 91.2506 89.0958 91.291 88.9855C91.3696 88.7696 91.2564 88.5347 91.0385 88.461C89.9663 88.0988 88.8967 87.6873 87.8596 87.2376C87.6486 87.1464 87.3992 87.2413 87.3025 87.4502C87.2057 87.6592 87.2982 87.9031 87.5093 87.9943C88.5677 88.4531 89.659 88.8731 90.753 89.2427C90.8598 89.2788 90.972 89.2697 91.0682 89.2252V89.2257ZM82.9058 85.4292C82.9781 85.3958 83.0419 85.3422 83.0876 85.2712C83.212 85.0765 83.154 84.822 82.9579 84.7032C81.9952 84.1193 81.0463 83.4867 80.1378 82.8243C79.9528 82.6896 79.6897 82.7288 79.5488 82.9134C79.4085 83.0974 79.4441 83.3557 79.6291 83.4904C80.5562 84.1665 81.5242 84.8119 82.5071 85.408C82.6309 85.4833 82.7808 85.4859 82.9052 85.4287L82.9058 85.4292ZM75.9351 79.8726C76.3971 79.4117 75.8118 79.3672 73.6148 76.8392C73.257 76.4271 72.6133 76.9702 72.9716 77.3822C73.7211 78.2445 74.5179 79.0856 75.3408 79.8821C75.504 80.0402 75.7698 80.0375 75.9351 79.8726ZM70.1914 73.0379C70.7442 72.6868 70.1882 72.5203 68.6179 69.5664C68.3633 69.0876 67.6153 69.4774 67.8715 69.9589C68.4074 70.967 68.9927 71.9624 69.6119 72.9186C69.7374 73.1121 70.0005 73.1614 70.1914 73.0379ZM66.1726 65.0943C66.3704 65.0036 66.4698 64.7782 66.3953 64.5757C66.0105 63.5214 65.6681 62.4422 65.3768 61.3688C65.3173 61.1493 65.0871 61.022 64.8628 61.0841C64.6379 61.1477 64.505 61.3747 64.5646 61.5942C64.8617 62.6899 65.2115 63.7908 65.6038 64.8663C65.6814 65.08 65.9222 65.1876 66.1407 65.1076C66.1519 65.1038 66.1625 65.0991 66.1726 65.0943Z" fill="#91B3FA"/>
<path d="M137.427 75.551C138.343 74.4119 138.813 73.9473 138.372 73.6355C137.912 73.3104 137.709 73.8789 136.771 75.0461C136.625 75.2264 136.655 75.4863 136.835 75.6258C137.017 75.7652 137.281 75.7318 137.426 75.5515L137.427 75.551Z" fill="#91B3FA"/>
<path d="M132.1 65.472L126.083 65.1564C124.417 67.4172 122.376 69.4398 120.005 71.1188C120.179 76.8727 120.6 77.264 120 77.5117L113.288 80.2815C113.092 80.3621 112.867 80.3128 112.729 80.1585L108.778 75.7516C105.913 76.2336 103.041 76.2384 100.265 75.8104L96.2209 80.2783C96.0789 80.4348 95.8535 80.4873 95.659 80.4093L89.0025 77.7365C88.8079 77.6586 88.6873 77.4666 88.7022 77.2593L89.1279 71.3388C86.8565 69.7405 84.8344 67.7698 83.1668 65.4683L77.1466 65.8708C76.9356 65.8851 76.741 65.7658 76.6618 65.5749L73.9598 59.0249C73.8806 58.8335 73.9348 58.6118 74.0948 58.4729L78.6478 54.5125C78.2071 51.704 78.2518 48.8806 78.736 46.1452C74.4462 42.2469 73.8848 42.2829 74.1368 41.6975C77.0318 35.2822 76.8043 34.7694 77.4634 34.8039L83.4804 35.1194C85.1464 32.8587 87.1866 30.8361 89.558 29.1571C89.3836 23.4064 88.9621 23.0118 89.5628 22.7642C96.2788 20.1264 96.4096 19.6433 96.8343 20.1174L100.786 24.5243C103.651 24.0422 106.523 24.0369 109.298 24.4654C113.291 20.233 113.304 19.6258 113.904 19.8665C120.444 22.6274 120.907 22.377 120.861 23.0166L120.435 28.937C122.706 30.5354 124.729 32.506 126.396 34.8081C132.151 34.5414 132.655 34.1034 132.902 34.7015C135.458 41.2292 135.961 41.375 135.469 41.8035L130.916 45.7644C131.356 48.5724 131.311 51.3958 130.827 54.1317C135.102 58.0168 135.68 57.9914 135.427 58.5795C132.532 64.9947 132.759 65.5075 132.1 65.473L132.1 65.472Z" fill="#91B3FA"/>
<path d="M111.772 49.0825C111.247 45.3035 107.683 42.7023 103.829 43.2846C99.9749 43.868 97.266 47.4147 97.7906 51.1937C98.3158 54.9727 101.879 57.5739 105.734 56.9922C109.589 56.4099 112.296 52.861 111.772 49.0831V49.0825ZM105.648 56.3791L105.645 56.3807L105.648 56.3791ZM103.999 44.5091C107.127 44.0366 110.085 46.1207 110.522 49.2708C110.954 52.3747 108.729 55.2893 105.563 55.7666C102.398 56.2444 99.4715 54.1083 99.0398 51.0049C98.6077 47.8968 100.839 44.9859 103.999 44.5096V44.5091Z" fill="#BDD0FB"/>
<path d="M112.081 66.148C113.031 65.7111 113.944 65.1961 114.801 64.6112C115.059 64.4357 115.146 64.1085 115.023 63.8407C115.008 63.8088 114.991 63.7775 114.97 63.7479C114.775 63.4678 114.382 63.401 114.094 63.5967C113.109 64.2691 112.043 64.8429 110.929 65.3033C102.536 68.7673 92.9878 65.1033 89.3044 57.1306C89.2104 56.927 89.1205 56.7207 89.0339 56.5112C85.5477 48.0596 89.768 38.3834 98.361 34.8346C106.943 31.2931 116.775 35.1989 120.256 43.6267C122.325 48.644 121.08 52.1971 121.317 52.712C121.574 53.2683 122.417 53.1416 122.515 52.5349C123.049 49.2199 122.629 45.715 121.135 42.4785C114.684 28.5148 94.1557 29.086 88.0026 43.3864C86.1091 47.7875 86.0597 52.6197 87.8639 56.9943C87.9569 57.2207 88.0547 57.4445 88.1568 57.6657C90.0269 61.7152 93.3397 64.8525 97.5546 66.5453C102 68.3303 106.916 68.2942 111.399 66.4445C111.627 66.3501 111.855 66.2509 112.079 66.1475L112.081 66.148Z" fill="#BDD0FB"/>
<path d="M59.6878 39.9048C58.6709 41.1007 57.4552 42.1438 56.0693 42.9764L56.0018 46.3317C55.9944 46.704 55.6754 46.5603 51.9671 47.8251C51.6237 47.9354 51.662 47.6156 49.6409 45.0446C48.0286 45.1767 46.4317 45.0388 44.9056 44.6607L42.4778 46.9872C42.2078 47.2454 42.085 46.9182 38.5665 45.1974C38.4612 45.1438 38.4022 45.0293 38.4187 44.9131L38.8928 41.5886C37.6941 40.5741 36.6485 39.3613 35.8139 37.9787C32.601 37.8472 32.3055 38.0689 32.1928 37.7199C31.0323 33.9022 30.7602 33.7983 31.0504 33.5808L33.7407 31.5656C33.6084 29.9572 33.7466 28.3636 34.1256 26.8416L31.7935 24.4197C31.5347 24.1513 31.8627 24.0278 33.5876 20.5176C33.7508 20.1989 33.9374 20.4487 37.2056 20.8432C38.2225 19.6474 39.4377 18.6042 40.8235 17.7716L40.8911 14.4163C40.8985 14.0435 41.2175 14.1878 44.9258 12.923C45.2671 12.8132 45.2208 13.1192 47.2515 15.7039C48.8637 15.5719 50.4611 15.7098 51.9868 16.0879L54.4145 13.7614C54.4996 13.6797 54.6272 13.6612 54.7324 13.7147L58.3259 15.5512C58.4306 15.6048 58.4902 15.7193 58.4737 15.8355L57.9995 19.16C59.1982 20.1745 60.2439 21.3868 61.0784 22.7698C64.2913 22.9014 64.5869 22.6797 64.6996 23.0286C65.8595 26.8448 66.1327 26.9498 65.842 27.1677L63.1516 29.1829C63.284 30.7914 63.1458 32.385 62.7668 33.907C64.9457 36.2663 65.3136 36.3183 65.1456 36.6455L63.3047 40.2304C63.1399 40.5508 62.9379 40.2973 59.6868 39.9048H59.6878Z" fill="#91B3FA"/>
<path d="M52.6518 30.1026C52.5008 27.7846 50.4989 26.0298 48.1748 26.1799C45.8518 26.3299 44.0922 28.3276 44.2427 30.6456C44.3931 32.9583 46.4015 34.7179 48.7197 34.5684C51.0379 34.4183 52.8017 32.4153 52.6518 30.1021V30.1026ZM48.6793 33.9436L48.6756 33.9452L48.6793 33.9436ZM51.3989 30.1832C51.5041 31.807 50.2655 33.2134 48.6389 33.3184C46.0256 33.4871 44.4909 30.3969 46.2255 28.4273C47.9521 26.4662 51.2287 27.5597 51.3989 30.1832Z" fill="#BDD0FB"/>
<path d="M69.5944 36.6623C69.7565 36.1214 69.899 35.5667 70.0181 35.0135C70.0664 34.7882 69.9229 34.566 69.697 34.5177C69.1282 34.3957 69.209 35.0294 68.7922 36.4236C68.7258 36.6448 68.8523 36.8771 69.0734 36.9433C69.2941 37.0091 69.528 36.8845 69.5944 36.6628V36.6623Z" fill="#91B3FA"/>
<path d="M70.4896 29.4508C70.4428 28.343 70.3099 27.1895 70.0792 26.0356C69.9708 25.4925 69.15 25.6591 69.2585 26.1994C69.8575 29.1894 69.3898 29.9159 70.0898 29.8862C70.3227 29.8761 70.4997 29.6804 70.4901 29.4513L70.4896 29.4508ZM68.1001 21.3031C68.308 21.2023 68.3946 20.952 68.2936 20.7446C67.7918 19.7164 67.2039 18.7183 66.5458 17.7786C66.2284 17.3262 65.5422 17.804 65.8595 18.2569C66.4926 19.1606 67.0582 20.1205 67.5409 21.11C67.7185 21.4743 68.1512 21.3015 68.1007 21.3031H68.1001ZM62.6913 14.3416C62.7444 14.3172 62.7933 14.2812 62.8337 14.234C62.9842 14.0584 62.9634 13.7954 62.788 13.6448C61.9157 12.9002 60.9785 12.2182 60.002 11.6185C59.8053 11.4975 59.547 11.5591 59.4263 11.7547C59.3051 11.951 59.3662 12.2087 59.5629 12.3291C60.5022 12.9066 61.4043 13.5626 62.2437 14.279C62.3723 14.3883 62.5472 14.4069 62.6913 14.3411V14.3416ZM54.9589 10.0975C55.0636 10.0493 55.1476 9.95858 55.1843 9.84031C55.2523 9.6197 55.1279 9.38637 54.9068 9.31902C53.8096 8.98386 52.6773 8.73249 51.5403 8.57339C51.3111 8.54158 51.0996 8.70067 51.0672 8.92923C51.0353 9.15727 51.1947 9.36887 51.4238 9.40068C52.5173 9.55394 53.6065 9.79524 54.6617 10.1177C54.7638 10.149 54.869 10.1394 54.9594 10.098L54.9589 10.0975ZM46.41 8.86878C46.3839 8.63968 46.1766 8.47476 45.9469 8.50074C44.803 8.63014 43.6638 8.84916 42.5608 9.1525C42.0281 9.29621 42.2477 10.1044 42.7835 9.95751C43.8445 9.66584 44.9407 9.45478 46.0416 9.33068C46.2771 9.30311 46.436 9.0931 46.4105 8.86878H46.41Z" fill="#91B3FA"/>
<path d="M36.4151 12.9191C37.6798 12.0499 38.2369 11.9603 37.953 11.4724C37.8371 11.273 37.5852 11.2014 37.381 11.3207C36.893 11.6028 36.4082 11.9094 35.9399 12.2313C35.7496 12.3623 35.7017 12.6221 35.8331 12.812C35.9622 12.9986 36.2206 13.0511 36.4151 12.9186V12.9191Z" fill="#91B3FA"/>
<path d="M27.3862 27.6696C27.5818 26.1444 27.8859 25.675 27.3325 25.5605C27.1061 25.5138 26.8844 25.6586 26.8376 25.8845C26.7228 26.4355 26.6282 27.0008 26.5559 27.5635C26.5266 27.7921 26.6888 28.0015 26.9179 28.0307C27.1465 28.0599 27.357 27.8987 27.3862 27.6696Z" fill="#91B3FA"/>
<path d="M55.6632 50.739C55.4447 50.0803 54.9498 50.7586 51.9671 51.2555C51.4223 51.3451 51.5573 52.1703 52.1048 52.0796C53.2201 51.894 54.3279 51.6203 55.3974 51.2671C55.6133 51.1966 55.7371 50.9612 55.6632 50.7395V50.739ZM47.0601 51.9269C47.0787 51.6972 46.9075 51.4952 46.6768 51.4766C43.6372 51.2274 43.1157 50.5915 42.9515 51.2682C42.8973 51.4925 43.0355 51.7179 43.2603 51.772C44.3565 52.0361 45.4829 52.2169 46.6088 52.3087C46.8395 52.3272 47.0409 52.1565 47.0601 51.9263V51.9269ZM38.6829 49.6523C39.0093 49.0377 38.1832 49.1554 35.7533 47.346C35.3094 47.0162 34.8082 47.6849 35.2526 48.0153C36.1579 48.6893 37.1216 49.2986 38.1167 49.8252C38.3209 49.9334 38.5744 49.856 38.6829 49.6523ZM31.8749 44.2739C32.4176 43.8353 31.608 43.6211 30.084 41.0072C29.806 40.5299 29.0814 40.9488 29.36 41.4272C29.9272 42.3998 30.5746 43.3363 31.2859 44.2124C31.4316 44.3922 31.6952 44.4187 31.8749 44.2739ZM28.0172 36.1458C27.189 33.22 27.6031 32.5057 26.9088 32.5905C26.6792 32.6181 26.516 32.8265 26.5436 33.0556C26.6808 34.1767 26.9051 35.293 27.2113 36.3733C27.274 36.5949 27.5053 36.7243 27.728 36.6618C27.9502 36.5992 28.0799 36.3685 28.0172 36.1463V36.1458Z" fill="#91B3FA"/>
<path d="M60.38 48.8881C60.8563 48.5816 61.3267 48.2533 61.777 47.9118C61.9609 47.7723 61.997 47.5103 61.8572 47.3263C61.5048 46.8639 61.155 47.3958 59.9265 48.1854C59.7325 48.3106 59.6761 48.5688 59.8016 48.7629C59.9286 48.9597 60.1897 49.0106 60.3805 48.8876L60.38 48.8881Z" fill="#91B3FA"/>
<path d="M53.5539 39.2946C53.8989 39.0978 53.9685 38.7091 53.8048 38.4264C53.631 38.1268 53.244 38.0255 52.9468 38.1979C52.3897 38.5193 51.7928 38.7839 51.1724 38.9838C51.0368 39.0002 47.8463 40.2704 44.2188 38.4227C37.0249 34.7455 37.8749 24.1515 45.577 21.6749C50.0077 20.2494 54.7505 22.4009 56.6514 26.5188C58.5667 30.6658 56.4016 32.8232 57.7268 33.1291C58.0644 33.2076 58.4019 32.9976 58.4806 32.6609C58.9037 30.843 58.8224 28.9391 58.2451 27.1541C56.4941 21.7338 50.6424 18.7295 45.1916 20.4827C39.3261 22.3691 36.3333 28.9842 38.9635 34.6787C41.0846 39.2718 46.4195 41.8295 51.5583 40.176C52.2536 39.9522 52.9256 39.6557 53.5544 39.2951L53.5539 39.2946Z" fill="#BDD0FB"/>
<path d="M55.2709 54.2718C55.2869 54.0761 55.4873 53.9069 55.8264 53.7706C55.4575 53.5675 55.2539 53.3506 55.2709 53.1369C55.323 52.4915 57.3712 52.1298 59.8457 52.3292C62.3202 52.5281 64.2839 53.2127 64.2318 53.8576C64.2159 54.0533 64.0155 54.2225 63.6763 54.3587C64.0452 54.5619 64.2488 54.7787 64.2318 54.9919C64.2159 55.1876 64.0155 55.3568 63.6763 55.4931C64.0452 55.6957 64.2488 55.9131 64.2318 56.1263C64.2159 56.322 64.0155 56.4911 63.6763 56.6274C64.0452 56.8305 64.2488 57.0474 64.2318 57.2612C64.2089 57.5465 63.7948 57.7761 63.1266 57.9267C63.1351 58.1378 63.1304 58.3684 63.1096 58.6241C63.0129 59.813 61.6722 60.7453 59.8994 60.7453C58.1266 60.7453 56.5919 59.4742 56.5744 58.2815C56.5701 57.9893 56.5823 57.7321 56.6089 57.5035C55.7605 57.2208 55.2438 56.8756 55.2709 56.541C55.2869 56.3453 55.4873 56.1761 55.8264 56.0404C55.4575 55.8378 55.2539 55.6204 55.2709 55.4066C55.2869 55.211 55.4873 55.0418 55.8264 54.906C55.4575 54.7034 55.2539 54.486 55.2709 54.2723V54.2718Z" fill="url(#paint1_linear_486_2895)"/>
<path d="M60.9908 58.1834C61.7254 58.1834 62.3979 58.1293 62.9534 58.0232C62.9858 58.0169 63.0065 57.9861 63.0007 57.9538C62.9943 57.9214 62.9635 57.9007 62.931 57.9066C62.0619 58.0726 60.9004 58.1092 59.6618 58.0095C58.6481 57.9278 57.6997 57.765 56.9199 57.5375C56.8885 57.5285 56.8556 57.5465 56.846 57.5778C56.837 57.6091 56.855 57.642 56.8864 57.6515C57.6742 57.8806 58.6305 58.0455 59.6522 58.1277C60.1126 58.1648 60.5623 58.1829 60.9908 58.1829V58.1834Z" fill="url(#paint2_linear_486_2895)"/>
<path d="M60.978 57.0472C61.9327 57.0472 62.7859 56.9576 63.3877 56.7868C63.419 56.7778 63.4376 56.7449 63.4286 56.7136C63.4196 56.6824 63.3866 56.6638 63.3552 56.6728C62.4978 56.9162 61.1167 56.9921 59.6613 56.8749C58.2217 56.7593 56.879 56.4676 56.0694 56.0953C56.0396 56.0815 56.004 56.0948 55.9907 56.1245C55.9769 56.1542 55.9902 56.1892 56.0199 56.203C56.8412 56.5811 58.1989 56.8765 59.6517 56.9931C60.1051 57.0297 60.5517 57.0472 60.978 57.0472Z" fill="url(#paint3_linear_486_2895)"/>
<path d="M60.9902 55.914C62.021 55.914 62.9231 55.809 63.5307 55.609C63.562 55.599 63.5785 55.565 63.5684 55.5343C63.5583 55.503 63.5248 55.486 63.4934 55.4966C62.6482 55.7745 61.2161 55.8657 59.6618 55.7411C58.2223 55.6255 56.8795 55.3338 56.0699 54.9615C56.0401 54.9477 56.0045 54.961 55.9912 54.9907C55.9774 55.0204 55.9907 55.0554 56.0205 55.0692C56.8418 55.4473 58.1999 55.7427 59.6522 55.8593C60.1126 55.8965 60.5628 55.9145 60.9908 55.9145L60.9902 55.914Z" fill="url(#paint4_linear_486_2895)"/>
<path d="M60.9823 54.7794C61.7998 54.7794 62.5435 54.7137 63.1219 54.5853C63.1538 54.5784 63.174 54.5466 63.1671 54.5148C63.1601 54.483 63.1283 54.4628 63.0964 54.4697C62.2267 54.6622 60.9748 54.7126 59.6613 54.6065C58.2345 54.492 56.8986 54.2035 56.088 53.8355C56.0582 53.8217 56.0231 53.8355 56.0093 53.8646C55.9955 53.8943 56.0093 53.9293 56.0385 53.9431C56.8609 54.3165 58.2116 54.6087 59.6517 54.7248C60.1067 54.7614 60.5543 54.7794 60.9823 54.7794Z" fill="url(#paint5_linear_486_2895)"/>
<path d="M65.8919 48.5453C66.1923 47.4836 66.7031 46.4909 67.3905 45.6265C68.8635 43.7746 71.2668 40.0078 71.5623 34.8675C71.9924 27.39 65.3455 23.6465 59.2796 24.1551C53.2137 24.6631 47.2286 29.1692 47.8835 36.1254C48.2864 40.4055 50.6881 43.6521 52.4758 45.5167C53.6113 46.7004 54.4209 48.1508 54.8595 49.7295C55.3958 51.662 56.6727 54.0707 59.708 54.2176C63.6354 54.4074 65.2663 50.7557 65.8919 48.5458V48.5453Z" fill="url(#paint6_linear_486_2895)"/>
<path d="M58.7049 52.7262L56.5823 38.955C56.5387 38.6708 56.3979 38.4793 56.2687 38.5281C56.1395 38.5769 56.0704 38.8474 56.114 39.1316C56.1151 39.139 56.1167 39.1486 56.1183 39.156L58.5359 52.7994C58.554 52.9017 58.6061 52.967 58.6523 52.9442C58.697 52.9224 58.7198 52.8254 58.7044 52.7262H58.7049Z" fill="url(#paint7_linear_486_2895)"/>
<path d="M60.9083 52.8356L63.031 39.0644C63.0751 38.7801 63.2154 38.5887 63.3446 38.6375C63.4738 38.6863 63.5434 38.9567 63.4993 39.241C63.4982 39.2484 63.4966 39.2579 63.495 39.2654L61.0774 52.9088C61.0593 53.0111 61.0072 53.0763 60.961 53.0535C60.9163 53.0318 60.8935 52.9347 60.9089 52.8356H60.9083Z" fill="url(#paint8_linear_486_2895)"/>
<path d="M56.5978 37.7726C56.6514 37.6862 56.7764 37.6538 56.8763 37.7005L58.058 38.2515L58.4684 37.0853C58.4902 37.0244 58.5402 36.9708 58.6119 36.9411C58.748 36.8854 58.9107 36.9353 58.975 37.053L58.9771 37.0567L59.9489 38.8248L60.8509 36.3084L60.8525 36.3042C60.8749 36.2427 60.9211 36.1875 60.9892 36.1504C61.1401 36.0682 61.34 36.1074 61.4352 36.2379L62.7939 38.1041C62.8492 38.1804 62.83 38.2828 62.746 38.3395C62.6562 38.4 62.527 38.3857 62.4569 38.3083L61.2603 36.9772L60.1833 39.371L60.1822 39.3726C60.1647 39.4108 60.1322 39.4442 60.0871 39.4654C59.9861 39.5126 59.8601 39.4802 59.8053 39.3927L58.7661 37.7286L58.3748 38.5702L58.3716 38.5777C58.369 38.5835 58.3658 38.5898 58.3621 38.5957C58.3084 38.6821 58.1835 38.7145 58.0835 38.6678L56.6807 38.0139C56.5807 37.9673 56.5435 37.8596 56.5972 37.7732L56.5978 37.7726Z" fill="white"/>
<path d="M52.4301 43.7415C52.486 43.7415 52.5423 43.7245 52.5907 43.6885C52.7103 43.5999 52.7353 43.4318 52.6465 43.3125C52.285 42.8267 51.9538 42.325 51.662 41.8207C51.5876 41.6924 51.4228 41.6484 51.2941 41.7226C51.1655 41.7969 51.1208 41.9613 51.1958 42.0896C51.4977 42.6114 51.8406 43.1311 52.2143 43.6333C52.2669 43.7044 52.3483 43.742 52.4307 43.742L52.4301 43.7415Z" fill="white"/>
<path d="M50.6839 40.7521C50.7195 40.7521 50.7562 40.7447 50.7913 40.7298C50.9279 40.6704 50.9906 40.5124 50.9311 40.3761C48.6883 35.2236 50.6228 30.8988 50.6424 30.8554C50.7046 30.7207 50.6451 30.561 50.5101 30.499C50.3745 30.4375 50.2145 30.4963 50.1528 30.631C50.0678 30.8156 48.0993 35.2193 50.4372 40.5898C50.4814 40.6911 50.5802 40.7516 50.6844 40.7516L50.6839 40.7521Z" fill="white"/>
<path d="M95.5527 138.719C95.5527 138.719 95.903 140.592 96.0832 142.447C96.1539 143.172 95.5989 143.808 94.8696 143.845C92.3913 143.972 87.0909 144.223 85.1873 144.156C84.9013 144.146 84.7116 143.856 84.8147 143.589C84.9013 143.366 85.0704 143.185 85.2878 143.082L94.0084 138.983L95.5527 138.719Z" fill="url(#paint9_linear_486_2895)"/>
<path d="M95.8142 137.615L95.5686 139.861C95.5686 139.861 94.0409 140.588 92.9857 139.796L93.597 137.289L95.8142 137.615Z" fill="url(#paint10_linear_486_2895)"/>
<path d="M95.2098 95.4287C95.3305 96.0136 96.1082 124.666 93.1605 137.538C93.1127 137.748 93.2211 137.963 93.4215 138.042C93.8941 138.229 94.8201 138.499 95.9269 138.525C96.2698 138.534 96.5749 138.308 96.6685 137.98C97.5179 134.992 101.581 120.023 101.993 105.757C102.454 89.8153 101.987 105.214 101.987 105.214L101.534 95.3672L95.2093 95.4287H95.2098Z" fill="url(#paint11_linear_486_2895)"/>
<path d="M105.638 139.602C105.638 139.602 106.176 140.543 106.712 143.056C106.808 143.509 106.494 143.947 106.032 143.997C105.215 144.085 103.955 144.2 102.946 144.203C102.481 144.204 102.113 143.804 102.165 143.342C102.268 142.423 102.602 140.913 103.667 139.727L105.638 139.602V139.602Z" fill="url(#paint12_linear_486_2895)"/>
<path d="M106.074 136.711L105.483 140.11C105.483 140.11 104.871 140.574 103.648 140.253L103.911 136.6L106.074 136.711Z" fill="url(#paint13_linear_486_2895)"/>
<path d="M107.372 96.1921C110.028 111.288 107.185 133.567 106.195 137.932C106.135 138.199 105.921 138.405 105.651 138.452C105.191 138.533 104.434 138.602 103.685 138.393C103.428 138.321 103.244 138.091 103.231 137.824C103.06 134.304 103.102 112.688 100.68 104.168C100.557 103.736 100.289 103.361 99.9191 103.105L95.3464 99.9271L94.9483 94.7236L107.371 96.1915L107.372 96.1921Z" fill="url(#paint14_linear_486_2895)"/>
<path d="M91.0959 67.6941C98.6204 67.4984 106.944 69.5147 106.944 69.5147C109.313 82.5519 107.606 97.6314 107.606 97.6314C101.794 99.2112 95.1981 96.8174 95.1981 96.8174C94.1775 91.3684 89.5123 76.0502 89.5123 76.0502C85.8311 75.6302 82.7915 74.6004 80.2835 73.2247C82.1653 71.0064 83.0355 68.1979 83.4092 66.5391C86.0777 67.3388 88.775 67.7535 91.0959 67.6936V67.6941Z" fill="url(#paint15_linear_486_2895)"/>
<path d="M68.7598 56.8474C69.4908 55.9496 70.4306 56.3622 70.4306 56.3622C71.5825 61.0189 77.4262 64.7475 83.4097 66.5405C83.036 68.1994 82.1658 71.0079 80.284 73.2262C70.3296 67.7666 68.7604 56.8474 68.7604 56.8474H68.7598Z" fill="url(#paint16_linear_486_2895)"/>
<path d="M68.9411 57.0727C68.8661 57.3188 69.7656 57.6836 70.2833 56.6755C70.2972 56.1945 70.5704 54.1316 70.2786 53.7423C68.7247 51.6704 65.725 49.083 65.725 49.083C65.2269 49.5826 65.6458 50.0646 65.6458 50.0646L67.1029 51.5506C66.8063 52.0973 66.4426 52.5603 66.2763 53.22C66.1503 53.7195 66.2353 54.2515 66.4921 54.7027C66.7499 55.1556 67.1008 55.7438 67.4319 56.2041C68.0587 57.0748 68.9406 57.0727 68.9406 57.0727H68.9411Z" fill="url(#paint17_linear_486_2895)"/>
<path d="M67.744 52.5171L69.0697 53.6165L69.4934 54.7195L68.3335 56.0283C68.3335 56.0283 67.9183 53.8355 67.6206 53.3625C67.323 52.8899 67.4729 52.6587 67.7445 52.5166L67.744 52.5171Z" fill="url(#paint18_linear_486_2895)"/>
<path d="M104.128 76.8127L106.944 69.5156C106.944 69.5156 114.02 74.2137 115.233 80.2439C113.906 80.3542 111.493 80.7217 109.138 81.9361C108.591 79.0883 104.127 76.8127 104.127 76.8127H104.128Z" fill="url(#paint19_linear_486_2895)"/>
<path d="M98.0495 83.7124C98.0495 83.7124 105.984 88.087 108.612 84.2623C109.157 83.4679 109.281 82.6825 109.138 81.9364C111.493 80.722 113.907 80.3544 115.234 80.2441C115.6 82.0621 115.434 84.0009 114.38 85.9689C109.797 94.526 97.0241 85.6634 97.0241 85.6634L98.05 83.7124H98.0495Z" fill="url(#paint20_linear_486_2895)"/>
<path d="M98.6603 61.5269L101.121 68.4125C101.162 68.5265 101.116 68.6538 101.01 68.7132C100.361 69.0796 98.0187 70.1424 95.1678 68.377C94.8706 68.1929 94.667 67.8901 94.6187 67.5449L93.7862 61.573L98.6603 61.5264V61.5269Z" fill="url(#paint21_linear_486_2895)"/>
<path d="M93.3891 55.1797C93.3891 55.1797 90.8067 60.1429 91.1629 62.1342C91.519 64.1256 94.7766 63.9516 97.6067 62.3045L99.5443 56.9536L93.3891 55.1797Z" fill="url(#paint22_linear_486_2895)"/>
<path d="M97.4557 59.6869C97.3399 59.6371 97.2957 59.496 97.3638 59.3899C97.5716 59.067 97.9602 58.4083 98.0803 57.8335C98.0803 57.8335 98.5503 57.5269 96.8705 57.1425C95.1907 56.758 92.6858 56.1609 92.1468 54.7428C91.6216 53.3603 92.9336 49.8581 95.1072 52.6178C95.1901 52.7228 95.3501 52.7239 95.4304 52.6168C95.7781 52.1564 96.694 51.1992 97.9841 51.7619C99.1914 52.2885 99.3354 53.1662 99.3232 53.609C99.3195 53.7394 99.4375 53.8397 99.5656 53.8137C100.172 53.6922 101.63 53.5793 102.325 55.0652C102.898 56.2892 102.54 56.9887 102.211 57.3323C102.105 57.4437 102.154 57.625 102.302 57.6685C102.702 57.7868 103.221 58.1198 103.179 59.0537C103.12 60.345 101.672 60.2453 101.26 60.1902C101.192 60.1812 101.124 60.205 101.079 60.2559C100.73 60.6489 99.1541 62.3194 97.4345 62.5358C97.2856 62.5543 97.1687 62.4085 97.216 62.2664L97.9405 60.0984C97.974 59.9977 97.9251 59.8879 97.8273 59.846L97.4563 59.6864L97.4557 59.6869Z" fill="url(#paint23_linear_486_2895)"/>
<path d="M97.1591 59.9968C97.1591 59.9968 99.0191 58.6976 99.1664 59.7752C99.3136 60.8528 97.4956 61.3545 96.5887 60.9604L97.1591 59.9963V59.9968Z" fill="url(#paint24_linear_486_2895)"/>
<path d="M99.6714 90.6266L95.3491 75.5673C95.3002 75.3965 95.154 75.2719 94.977 75.2512C94.1939 75.16 91.9246 74.9039 89.3044 74.6832C86.1484 74.417 82.4832 74.2012 80.293 74.3847C79.9815 74.4107 79.7934 74.7395 79.9321 75.0189C81.1776 77.5326 86.3005 87.7581 88.8659 91.1076C88.9509 91.2184 89.0822 91.2837 89.2226 91.2821L99.2514 91.1887C99.5433 91.1861 99.7522 90.9066 99.6719 90.6266H99.6714Z" fill="url(#paint25_linear_486_2895)"/>
<path d="M98.6268 86.988C98.6268 86.988 99.2291 84.5177 98.9862 83.6417C98.7432 82.7651 98.2728 81.6387 96.7041 81.889C95.1354 82.1393 93.2849 82.7985 93.2849 82.7985C93.2849 82.7985 93.3785 83.9397 94.5708 83.5717L93.8314 84.1423C93.8314 84.1423 93.9372 85.056 94.944 84.5681L94.2567 85.3249C94.2567 85.3249 94.6894 86.0753 95.4299 85.5943C96.1709 85.1128 96.526 87.2855 98.6268 86.988Z" fill="url(#paint26_linear_486_2895)"/>
<path d="M89.592 79.178C89.592 79.8769 89.0238 80.4438 88.3231 80.4438C87.6225 80.4438 87.0542 79.8769 87.0542 79.178C87.0542 78.479 87.6225 77.9121 88.3231 77.9121C89.0238 77.9121 89.592 78.479 89.592 79.178Z" fill="#91B3FA"/>
<path d="M94.8595 80.013L95.1832 79.9175L94.3034 76.9393C94.1599 76.4541 93.7676 76.0897 93.2796 75.9884C90.4899 75.4072 83.1429 75.289 82.8319 75.2842L82.8266 75.6209C82.9026 75.622 90.4527 75.744 93.2105 76.3178C93.5768 76.3941 93.8718 76.6683 93.9802 77.0342L94.86 80.0125L94.8595 80.013Z" fill="#91B3FA"/>
<path d="M146.016 122.156C146.477 122.837 148.309 138.237 148.595 143.925C148.614 144.31 148.306 144.63 147.92 144.63C147.587 144.63 147.304 144.389 147.252 144.06L143.903 122.646L146.016 122.156Z" fill="#7D97F4"/>
<path d="M131.293 122.156C130.832 122.837 129 138.237 128.714 143.925C128.694 144.31 129.003 144.63 129.389 144.63C129.722 144.63 130.005 144.389 130.057 144.06L133.406 122.646L131.293 122.156Z" fill="#7D97F4"/>
<path d="M148.787 120.955L148.789 121.123C148.8 122.331 147.756 123.322 146.45 123.344L130.967 123.607C129.68 123.629 128.606 122.701 128.544 121.511L128.536 121.357C128.47 120.117 129.527 119.072 130.869 119.048L146.359 118.771C147.684 118.747 148.776 119.729 148.787 120.955V120.955Z" fill="#7D97F4"/>
<path d="M116.172 143.366C118.924 143.366 120.142 143.131 120.687 142.916C120.581 143.367 120.179 143.723 119.67 143.723H109.934C109.606 143.723 109.399 143.41 109.477 143.126C110.587 143.215 112.944 143.366 116.173 143.366H116.172Z" fill="#91B3FA"/>
<path d="M109.476 143.126C109.492 143.069 109.515 143.013 109.556 142.961C110.298 142.016 111.788 140.532 113.815 140.561C116.784 140.603 117.819 140.924 120.126 140.579L120.67 142.379C120.726 142.562 120.727 142.746 120.687 142.916C120.143 143.13 118.925 143.366 116.172 143.366C112.944 143.366 110.586 143.215 109.476 143.126V143.126Z" fill="url(#paint27_linear_486_2895)"/>
<path d="M119.457 138.64L120.126 140.907C120.126 140.907 118.646 141.579 117.344 141.039L117.088 139.076L119.457 138.64V138.64Z" fill="url(#paint28_linear_486_2895)"/>
<path d="M99.2775 141.939C101.423 143.658 102.52 144.237 103.078 144.41C102.714 144.694 102.178 144.718 101.781 144.4L94.1913 138.317C93.9356 138.112 93.9701 137.74 94.2083 137.568C95.0179 138.331 96.7609 139.921 99.278 141.939H99.2775Z" fill="#91B3FA"/>
<path d="M94.2078 137.569C94.2556 137.534 94.3093 137.505 94.3731 137.49C95.5415 137.221 97.6301 137.001 99.1919 138.29C101.48 140.177 102.086 141.073 104.101 142.247L103.4 143.984C103.329 144.161 103.215 144.304 103.078 144.411C102.519 144.238 101.422 143.66 99.2769 141.94C96.7599 139.922 95.0168 138.332 94.2072 137.569L94.2078 137.569Z" fill="url(#paint29_linear_486_2895)"/>
<path d="M133.75 112.812C133.75 112.812 117.272 114.154 113.892 115.742C110.511 117.329 116.65 139.578 116.65 139.578C116.65 139.578 117.57 140.02 119.618 139.385C119.618 139.385 117.518 122.966 119.081 119.405L136.922 116.494L133.749 112.812L133.75 112.812Z" fill="url(#paint30_linear_486_2895)"/>
<path d="M105.738 139.122C105.585 139.261 104.101 142.247 104.101 142.247C104.101 142.247 102.449 141.891 102.112 140.847L103.599 138.152L105.738 139.122Z" fill="url(#paint31_linear_486_2895)"/>
<path d="M143.675 112.675C143.675 112.675 144.212 113.964 144.19 115.677C144.16 118.046 142.251 119.968 139.879 120.086L120.399 120.973C119.988 120.991 119.64 121.275 119.537 121.673C119.079 123.44 116.841 128.864 105.904 139.687C105.613 139.975 105.16 140.024 104.813 139.806L103.256 138.825C103.093 138.722 103.041 138.509 103.138 138.342L114.48 119.02C115.076 118.039 116.033 117.331 117.147 117.047L133.75 112.813L143.674 112.675L143.675 112.675Z" fill="url(#paint32_linear_486_2895)"/>
<path d="M124.478 82.4932C124.478 82.4932 126.564 86.1741 128.692 87.957L124.294 90.4049C124.294 90.4049 123.303 86.5082 121.039 85.3675L124.478 82.4937V82.4932Z" fill="url(#paint33_linear_486_2895)"/>
<path d="M144.028 112.813C144.028 112.813 138.769 114.091 133.75 112.813C133.75 112.813 126.726 103.393 124.009 100.83C124.009 100.83 119.675 107.653 110.028 108.62L109.49 107.421C109.49 107.421 117.17 103.889 119.534 98.4614C121.899 93.0342 122.848 90.7199 125 89.3034C126.339 88.4215 127.141 87.819 127.556 87.4903C127.783 87.3099 128.096 87.2898 128.344 87.4404C130.626 88.8282 141.368 96.1678 144.029 112.813H144.028Z" fill="url(#paint34_linear_486_2895)"/>
<path d="M124.294 100.697C124.396 100.697 124.496 100.652 124.562 100.566C126.237 98.3871 127.17 95.9859 127.208 95.8851C127.275 95.7117 127.188 95.5171 127.014 95.4503C126.84 95.3834 126.645 95.4704 126.578 95.6438C126.569 95.6677 125.64 98.0573 124.027 100.156C123.914 100.304 123.941 100.515 124.089 100.628C124.15 100.675 124.223 100.698 124.294 100.698V100.697Z" fill="url(#paint35_linear_486_2895)"/>
<path d="M110.607 106.794L109.521 106.505L106.224 105.743C105.827 105.652 105.41 105.722 105.065 105.939L102.23 107.718L110.059 107.705L110.607 106.794V106.794Z" fill="url(#paint36_linear_486_2895)"/>
<path d="M121.164 76.9736C121.164 76.9736 119.136 80.3369 118.784 82.1956C118.433 84.0544 117.867 85.2163 119.988 85.8787C122.109 86.541 124.08 85.7026 125.317 83.9674C125.317 83.9674 127.248 81.2973 127.055 80.0744C126.862 78.8515 121.164 76.9736 121.164 76.9736Z" fill="url(#paint37_linear_486_2895)"/>
<path d="M124.752 82.5288L124.478 82.4928C124.478 82.4928 125.913 80.328 124.974 79.7913C124.034 79.2541 120.205 77.9368 119.54 76.4323C118.899 74.9819 119.858 73.3438 121.014 73.0017C121.088 72.98 121.165 73.0235 121.191 73.0945L121.259 73.277C121.306 73.4021 121.482 73.4069 121.535 73.2849C121.586 73.1688 121.752 73.164 121.804 73.2791C122.009 73.7298 122.624 74.4993 124.465 75.0949C127.078 75.9397 128.705 77.2538 128.505 79.1056C128.492 79.2228 128.609 79.304 128.717 79.2562C128.931 79.1619 129.254 79.147 129.63 79.5575C130.284 80.2707 129.772 81.8315 127.986 82.9356C127.901 82.9881 127.886 83.1074 127.962 83.1721C128.23 83.4001 128.605 83.9092 127.397 84.3626C126.161 84.8267 125.487 84.6697 125.237 84.57C125.17 84.5429 125.132 84.474 125.146 84.4029L125.463 82.7802C125.48 82.6964 125.422 82.6158 125.337 82.6047L124.752 82.5278V82.5288Z" fill="url(#paint38_linear_486_2895)"/>
<path d="M124.639 82.8625C124.639 82.8625 125.534 80.6616 126.474 81.4354C127.414 82.2091 125.605 83.9188 124.771 83.896L124.639 82.8625Z" fill="url(#paint39_linear_486_2895)"/>
<path d="M113.632 109.249C113.619 109.25 113.606 109.25 113.594 109.25L96.8683 109.234C96.4548 109.234 96.1199 108.899 96.1204 108.488C96.1204 108.076 96.4574 107.736 96.8699 107.743L113.595 107.76C114.009 107.76 114.343 108.094 114.343 108.506C114.343 108.905 114.027 109.23 113.632 109.25V109.249Z" fill="url(#paint40_linear_486_2895)"/>
<path d="M90.3915 92.9092C90.3974 92.9204 90.4032 92.932 90.4085 92.9437L97.4456 108.08C97.6194 108.454 97.4573 108.898 97.0826 109.071C96.7078 109.244 96.257 109.083 96.0896 108.707L89.0525 93.5711C88.8786 93.1967 89.0408 92.7533 89.4155 92.5799C89.7781 92.4123 90.2071 92.5597 90.3915 92.9092Z" fill="url(#paint41_linear_486_2895)"/>
<path d="M46.5955 124.461H48.3609V143.505H46.5955V124.461Z" fill="#7D97F4"/>
<path d="M39.7476 143.873H55.2082C55.2082 143.24 54.6936 142.727 54.0589 142.727H40.8964C40.2617 142.727 39.7471 143.24 39.7471 143.873H39.7476Z" fill="#7D97F4"/>
<path d="M39.3516 120.194H54.994C56.0423 120.194 56.8922 121.042 56.8922 122.088V123.8C56.8922 124.846 56.0423 125.694 54.994 125.694H39.3516C38.3032 125.694 37.4533 124.846 37.4533 123.8V122.088C37.4533 121.042 38.3032 120.194 39.3516 120.194Z" fill="#7D97F4"/>
<path d="M60.5096 111.762C60.5096 111.762 63.1325 112.168 66.0817 114.135C66.5458 114.445 66.8004 114.984 66.7308 115.536C66.3778 118.327 64.9255 127.359 60.1375 136.181C59.885 136.646 59.8127 137.188 59.9238 137.705L60.7558 141.566L62.2984 143.009H58.3248L55.6792 135.867L56.8104 135.51C57.6875 135.233 58.2892 134.429 58.3052 133.511L58.4381 125.85C58.3248 122.436 60.5362 120.081 60.5362 120.081L54.1907 119.773L60.5096 111.762V111.762Z" fill="url(#paint42_linear_486_2895)"/>
<path d="M63.8501 143.706C64.2121 144.179 59.9552 144.802 57.805 143.769C57.805 143.769 54.8238 138.595 54.8238 135.93C54.8238 135.93 55.0604 135.387 56.8109 135.51C56.8109 135.51 57.8119 141.637 58.8687 142.323C59.9254 143.01 61.8259 142.393 61.8259 142.393C61.8259 142.393 63.3164 143.009 63.8501 143.706Z" fill="url(#paint43_linear_486_2895)"/>
<path d="M54.994 120.194C55.028 120.135 61.8259 119.378 61.8259 119.378C61.8259 119.378 61.6031 121.44 62.2984 124.279C62.9937 127.118 72.9753 139.416 72.9753 139.416L71.9286 142.726C75.1643 143.85 78.3475 144.03 81.4795 143.299L74.9937 139.416C74.9937 139.416 68.9236 118.779 65.2057 115.098L58.3913 112.746L54.994 120.194Z" fill="url(#paint44_linear_486_2895)"/>
<path d="M39.7476 108.186C39.7476 108.186 35.8309 113.997 35.5093 116.648C35.1877 119.299 36.5821 120.376 40.6917 120.554C44.8014 120.732 55.7727 120.729 55.7727 120.729L65.1366 112.746C65.1366 112.746 58.3126 110.316 56.5382 109.63C54.7638 108.943 39.7471 108.186 39.7471 108.186H39.7476Z" fill="url(#paint45_linear_486_2895)"/>
<path d="M72.3241 141.611C72.3241 141.611 71.1971 142.7 71.9584 143.911C71.9584 143.911 80.8842 145.49 83.3076 144.774C83.3076 144.774 82.8042 143.628 80.0756 142.324L80.2771 142.478C80.5317 142.673 80.3824 143.079 80.0618 143.061C78.2635 142.959 74.5424 142.63 72.3241 141.611Z" fill="url(#paint46_linear_486_2895)"/>
<path d="M56.7141 71.3287C48.7074 69.9705 44.938 76.4854 45.2139 77.8542C45.2506 78.0355 45.0789 78.1893 44.8997 78.1411C43.9806 77.8945 41.95 77.5832 40.6912 79.1566C39.5796 80.5461 40.4105 81.857 41.0877 82.5766C41.2515 82.7506 41.1138 83.0327 40.8767 83.003C39.1868 82.7904 35.5146 82.7394 34.9139 86.1711C34.3537 89.3715 36.5863 90.2736 37.9105 90.5282C38.1348 90.5711 38.1869 90.8649 37.9945 90.9869C37.3337 91.4048 36.5682 92.2692 36.8776 93.9741C37.3624 96.6464 42.6144 96.4279 43.2279 96.3929C43.2667 96.3908 43.3034 96.3797 43.3374 96.36L51.7497 91.5739C51.8151 91.5368 51.8608 91.4721 51.8736 91.3979L53.572 81.613C53.5858 81.534 53.5608 81.4529 53.505 81.3951L58.9893 73.6742C60.9801 73.382 56.8093 71.3451 56.7152 71.3292L56.7141 71.3287Z" fill="url(#paint47_linear_486_2895)"/>
<path d="M50.3405 107.418C50.3405 107.418 54.9014 103.085 57.1469 100.215C58.3605 98.6636 58.7416 96.6214 58.1803 94.7351C57.1554 91.2901 55.3336 87.7217 55.1672 87.1664C54.9126 86.3153 49.7983 86.3508 49.7983 86.3508C49.7983 86.3508 39.7343 92.8668 35.7804 103.904L40.2213 105.284C40.2213 105.284 42.8489 100.886 45.4451 98.0898C45.4451 98.0898 40.9527 104.01 40.7943 106.434L50.3399 107.419L50.3405 107.418Z" fill="url(#paint48_linear_486_2895)"/>
<path d="M55.7855 82.4084C55.7323 82.5855 54.3975 86.9999 54.2928 87.0916C54.1886 87.1834 51.3653 87.3345 50.0369 86.4287L53.3327 79.9971L55.7855 82.4084Z" fill="url(#paint49_linear_486_2895)"/>
<path d="M61.1369 76.7361C61.1369 76.7361 61.7822 79.2652 59.9972 82.6666C58.2127 86.068 56.1921 86.0643 55.0875 84.9756C53.9829 83.8869 52.621 82.0392 52.9447 78.7508C53.2684 75.4623 60.2056 73.5187 61.1369 76.7361Z" fill="url(#paint50_linear_486_2895)"/>
<path d="M55.4134 78.9294C55.4134 78.9294 58.3743 74.4132 61.1513 77.9674L61.2012 79.2603C61.2012 79.2603 64.4535 78.8753 63.8841 75.9002C63.3148 72.9251 60.5043 71.0659 56.8848 72.3545C53.2652 73.6432 51.191 74.9647 50.9576 77.5527C50.7243 80.1406 52.7879 79.5732 52.7879 79.5732C52.7879 79.5732 53.4609 77.751 54.4182 77.5617C55.3751 77.3724 55.1263 78.7931 55.1263 78.7931L55.4134 78.9299V78.9294Z" fill="url(#paint51_linear_486_2895)"/>
<path d="M54.6553 78.8693C54.6553 78.8693 56.1911 76.5566 54.6176 76.2119C53.0441 75.8672 53.2881 78.4652 53.4582 79.4262L54.6559 78.8693H54.6553Z" fill="url(#paint52_linear_486_2895)"/>
<path d="M59.6325 107.739L56.2814 104.516L51.6455 106.47C51.6455 106.47 47.0308 107.183 44.3899 106.47L41.749 105.757L35.7809 103.903L34.8438 106.546C34.6056 107.217 34.8448 107.962 35.4264 108.374C35.9426 108.74 36.548 109.142 36.934 109.31C37.7202 109.654 56.3086 109.073 56.3086 109.073L59.6331 107.739H59.6325Z" fill="url(#paint53_linear_486_2895)"/>
<path d="M46.9506 109.258C46.9655 109.258 46.9803 109.259 46.9952 109.259L66.4347 109.238C66.9152 109.238 67.3043 108.849 67.3038 108.369C67.3038 107.89 66.912 107.494 66.4326 107.502L46.9931 107.523C46.5125 107.523 46.1234 107.913 46.124 108.392C46.1245 108.857 46.4908 109.235 46.9506 109.258Z" fill="url(#paint54_linear_486_2895)"/>
<path d="M83.9099 91.6504H67.7206C66.5261 91.6504 65.439 92.3382 64.9298 93.4158L57.4456 109.248H77.5644C78.3342 109.248 79.0257 108.778 79.3085 108.065L85.1124 93.4142C85.4478 92.5678 84.8227 91.6504 83.9099 91.6504Z" fill="url(#paint55_linear_486_2895)"/>
<path d="M72.5043 99.7677C72.1534 100.855 72.4129 101.911 73.0832 102.127C73.7535 102.342 74.5817 101.635 74.9326 100.548C75.2834 99.4607 75.024 98.4043 74.3537 98.189C73.6833 97.9737 72.8551 98.6806 72.5043 99.7677Z" fill="#7D97F4"/>
<path d="M24.7884 141.472C24.7884 141.472 24.5842 142.603 24.504 143.944C24.4694 144.516 24.8941 145.013 25.4656 145.068C27.4553 145.26 31.9844 145.616 34.8762 145.2C35.2813 145.141 35.4423 144.645 35.1425 144.366C33.9502 143.258 31.0701 141.102 26.3305 140.631L24.7884 141.472V141.472Z" fill="url(#paint56_linear_486_2895)"/>
<path d="M23.7991 138.925L24.8048 141.385C24.9425 141.722 25.2854 141.931 25.6485 141.893C25.8946 141.868 26.1864 141.821 26.4703 141.735C27.038 141.563 27.358 140.963 27.1885 140.395L26.4294 137.861L23.7991 138.925Z" fill="url(#paint57_linear_486_2895)"/>
<path d="M6.59972 143.431C6.59972 143.431 8.61443 145.112 9.39904 147.269C9.61486 147.863 9.15876 148.487 8.52617 148.487H4.38089C3.77436 148.487 3.30923 147.943 3.41448 147.347C3.67868 145.857 4.4399 143.437 6.59972 143.431Z" fill="url(#paint58_linear_486_2895)"/>
<path d="M4.10446 141.243C4.10446 141.243 4.51113 143.04 4.82423 144.227C4.88111 144.442 5.11128 144.561 5.32178 144.486C5.94905 144.262 6.45938 144.163 6.83095 144.213C7.00265 144.236 7.15202 144.093 7.15468 143.921L7.1935 140.937L4.10446 141.243Z" fill="url(#paint59_linear_486_2895)"/>
<path d="M14.818 100.813L27.071 138.105C27.071 138.105 24.7209 139.64 23.6013 139.576L9.04766 109.606C9.04766 109.606 6.50085 128.073 7.73519 141.33L3.56651 141.647C3.56651 141.647 -3.2117 107.767 1.92233 96.1631L14.8185 100.812L14.818 100.813Z" fill="url(#paint60_linear_486_2895)"/>
<path d="M9.12634 109.284C9.12155 109.284 9.11623 109.284 9.11145 109.283C9.0466 109.275 9.00035 109.216 9.00833 109.151L9.48356 105.386C9.49153 105.321 9.55054 105.276 9.61592 105.283C9.68078 105.291 9.72702 105.35 9.71905 105.415L9.24381 109.18C9.23637 109.24 9.18534 109.284 9.12634 109.284V109.284Z" fill="url(#paint61_linear_486_2895)"/>
<path d="M17.1155 67.9986C17.1155 67.9986 7.18818 68.8778 8.59262 75.9347C8.59262 75.9347 3.10509 86.2371 0.539675 98.3734C0.456217 98.7685 0.721485 99.1535 1.12017 99.2214L17.6524 102.045C18.1085 102.123 18.5481 101.84 18.664 101.392L22.6142 86.1624L24.1536 93.2431L29.0447 91.972L24.9276 71.1646C24.9276 71.1646 24.353 68.1285 17.116 67.998L17.1155 67.9986Z" fill="url(#paint62_linear_486_2895)"/>
<path d="M22.6982 85.4812C22.6897 85.4812 22.6806 85.4802 22.6721 85.4786C22.6057 85.4643 22.5637 85.3985 22.578 85.3322L23.9559 79.0194C23.9703 78.9531 24.0351 78.9117 24.1026 78.9255C24.1691 78.9398 24.2111 79.0056 24.1967 79.0719L22.8189 85.3847C22.8061 85.442 22.7551 85.4812 22.6987 85.4812H22.6982Z" fill="#91B3FA"/>
<path d="M21.6999 104.266C21.1789 103.98 20.5692 103.901 19.9929 104.044L18.8426 104.33C18.5981 104.391 18.3557 104.223 18.3275 103.973L17.1373 93.4033C15.6489 94.1086 13.5018 94.0243 12.7937 93.9723L15.5335 106.433H25.1206L21.7004 104.265L21.6999 104.266Z" fill="url(#paint63_linear_486_2895)"/>
<path d="M47.1728 81.3392L46.8831 80.3782C46.7161 79.8251 46.3068 79.3781 45.7694 79.1628L40.5285 77.0601C40.5285 77.0601 40.4493 76.3897 41.6358 75.9337C42.8223 75.4781 42.5448 74.1523 42.5448 74.1523C42.5448 74.1523 40.924 74.89 38.551 76.0599C37.1939 76.7291 36.4327 77.9102 36.0287 78.7995L24.1531 93.2426L25.5475 94.1982C27.3809 95.4551 29.9027 94.8378 30.9446 92.8767L37.3778 80.5697C40.6077 81.5375 43.8764 81.7226 47.1728 81.3386V81.3392Z" fill="url(#paint64_linear_486_2895)"/>
<path d="M20.3316 61.2612L17.2781 69.7865C17.2781 69.7865 19.9818 71.8951 21.955 71.1823L23.4934 66.2955C23.4934 66.2955 22.3181 60.3226 20.3316 61.2612Z" fill="url(#paint65_linear_486_2895)"/>
<path d="M29.4445 58.1989C29.4445 58.3304 26.5032 66.5052 26.5032 66.5052L21.8599 64.7308L23.4934 56.5692C23.4934 56.5692 29.444 55.9997 29.444 58.1989H29.4445Z" fill="url(#paint66_linear_486_2895)"/>
<path d="M24.3078 58.5578L23.1107 62.7871C23.0953 62.8412 23.0873 62.8958 23.0873 62.9525C23.0873 63.2972 23.1723 64.4846 24.3843 64.3229C25.4842 64.1765 26.4899 64.0588 27.1294 64.3595C27.4165 64.4942 27.5542 64.824 27.4468 65.122C27.1794 65.8645 26.5458 67.527 25.7744 68.8878C25.6181 69.1641 25.2747 69.2712 24.985 69.1397C24.1127 68.7441 22.2973 67.8579 21.0035 66.8037C20.828 66.661 20.7441 66.4362 20.7855 66.2145C20.9891 65.1327 21.5951 61.8421 21.6217 60.8992C21.6467 60.0141 20.651 59.3384 20.213 59.0844C20.0695 59.0012 19.9669 58.8638 19.9281 58.7026C19.7904 58.133 19.6735 56.8438 21.3224 56.5596C21.6674 56.5002 21.8923 56.1709 21.8221 55.8283C21.6828 55.1468 21.7275 54.1445 23.024 53.7749C24.3423 53.3995 25.1716 54.1912 25.5937 54.7979C25.7643 55.0434 26.0833 55.123 26.3571 55.001C26.5128 54.9315 26.7004 54.9283 26.9024 55.0986C27.1746 55.3277 27.5893 55.2577 27.7891 54.9639C28.1735 54.3996 28.872 53.8359 30.0542 54.2177C32.1518 54.8949 32.0519 57.3079 31.2827 58.6193C30.5135 59.9308 28.2814 59.068 27.2241 58.1988C26.4203 57.538 25.1971 57.9331 24.6565 58.1606C24.4853 58.2327 24.3578 58.3791 24.3073 58.5573L24.3078 58.5578Z" fill="url(#paint67_linear_486_2895)"/>
<path d="M21.2018 62.4426C21.2018 62.4426 22.4436 60.0996 21.6223 59.3641C20.8015 58.6286 19.4103 58.7489 19.4475 60.5812C19.4943 62.8599 21.2018 62.4431 21.2018 62.4431V62.4426Z" fill="url(#paint68_linear_486_2895)"/>
<path d="M13.757 94.1303C13.0792 94.1303 12.596 94.0789 12.5434 94.073L12.4551 94.063L8.84035 77.2494C8.826 77.1831 8.86851 77.1178 8.93496 77.1035C9.00194 77.0887 9.06679 77.1316 9.08115 77.1979L12.6587 93.8371C13.1967 93.8843 16.0693 94.0746 17.586 93.0029L14.4544 78.3954L15.1082 77.1666C15.1401 77.1067 15.2145 77.0839 15.2746 77.1157C15.3347 77.1475 15.3576 77.2218 15.3257 77.2817L14.7138 78.4314L17.8597 93.1063L17.797 93.1535C16.7014 93.9749 14.936 94.1303 13.757 94.1303Z" fill="#91B3FA"/>
<path d="M122.126 145.392C122.209 145.392 122.294 145.374 122.375 145.336C122.695 145.187 122.843 144.783 122.705 144.435L109.496 110.999C109.358 110.651 108.988 110.49 108.668 110.64C108.348 110.789 108.201 111.193 108.338 111.541L121.548 144.977C121.65 145.236 121.882 145.392 122.126 145.392V145.392Z" fill="url(#paint69_linear_486_2895)"/>
<path d="M107.245 145.393C107.489 145.393 107.722 145.238 107.824 144.978L121.034 111.542C121.171 111.194 121.023 110.79 120.704 110.641C120.384 110.491 120.014 110.652 119.876 111L106.667 144.436C106.529 144.784 106.677 145.188 106.997 145.337C107.077 145.375 107.162 145.393 107.245 145.393V145.393Z" fill="url(#paint70_linear_486_2895)"/>
<path d="M32.4788 145.392C32.5617 145.392 32.6462 145.374 32.7275 145.336C33.047 145.187 33.1948 144.783 33.0571 144.435L19.8478 110.999C19.7101 110.651 19.3402 110.49 19.0202 110.64C18.7007 110.789 18.5529 111.193 18.6906 111.541L31.8999 144.977C32.0025 145.236 32.2348 145.392 32.4788 145.392V145.392Z" fill="url(#paint71_linear_486_2895)"/>
<path d="M17.5982 145.393C17.8422 145.393 18.0745 145.238 18.1771 144.978L31.3864 111.542C31.5241 111.194 31.3763 110.79 31.0568 110.641C30.7373 110.491 30.3668 110.652 30.2291 111L17.0198 144.436C16.8821 144.784 17.0299 145.188 17.3494 145.337C17.4307 145.375 17.5147 145.393 17.5982 145.393V145.393Z" fill="url(#paint72_linear_486_2895)"/>
<path d="M34.3956 108.639H15.264V106.669H34.3956C33.9863 106.669 33.9863 108.639 34.3956 108.639Z" fill="#91B3FA"/>
<path d="M15.4437 108.639C15.3448 108.639 15.264 108.558 15.264 108.459V106.848C15.264 106.75 15.3448 106.669 15.4437 106.669H34.7996C34.8985 106.669 34.9793 106.588 34.9793 106.49V106.403C34.9793 106.304 34.8985 106.224 34.7996 106.224H14.1689C13.7128 106.224 13.3428 106.593 13.3428 107.048V108.307C13.3428 108.736 13.6916 109.084 14.1221 109.084H34.8002C34.8991 109.084 34.9799 109.003 34.9799 108.904V108.817C34.9799 108.719 34.8991 108.638 34.8002 108.638H15.4442L15.4437 108.639Z" fill="url(#paint73_linear_486_2895)"/>
<path d="M12.4907 109.967C12.4264 109.747 12.5141 109.52 12.7294 109.347C12.9447 109.174 13.2652 109.074 13.6039 109.074H128.239C128.684 109.074 129.098 109.224 129.338 109.472C129.578 109.721 129.61 110.032 129.423 110.3L128.181 112.079C127.896 112.486 127.28 112.747 126.601 112.747H14.3906C13.7596 112.747 13.2174 112.451 13.0978 112.041L12.4912 109.967L12.4907 109.967Z" fill="url(#paint74_linear_486_2895)"/>
</g>
<defs>
<linearGradient id="paint0_linear_486_2895" x1="-17.9468" y1="191.777" x2="113.744" y2="27.8346" gradientUnits="userSpaceOnUse">
<stop stop-color="#DAE3FE"/>
<stop offset="1" stop-color="#E9EFFD"/>
</linearGradient>
<linearGradient id="paint1_linear_486_2895" x1="59.471" y1="53.3538" x2="61.2826" y2="65.3402" gradientUnits="userSpaceOnUse">
<stop stop-color="#09005D"/>
<stop offset="1" stop-color="#1A0F91"/>
</linearGradient>
<linearGradient id="paint2_linear_486_2895" x1="59.0685" y1="48.3847" x2="62.197" y2="82.9707" gradientUnits="userSpaceOnUse">
<stop stop-color="#53D8FF"/>
<stop offset="1" stop-color="#3840F7"/>
</linearGradient>
<linearGradient id="paint3_linear_486_2895" x1="58.9771" y1="48.392" x2="62.1055" y2="82.9782" gradientUnits="userSpaceOnUse">
<stop stop-color="#53D8FF"/>
<stop offset="1" stop-color="#3840F7"/>
</linearGradient>
<linearGradient id="paint4_linear_486_2895" x1="59.1504" y1="48.3766" x2="62.2793" y2="82.9624" gradientUnits="userSpaceOnUse">
<stop stop-color="#53D8FF"/>
<stop offset="1" stop-color="#3840F7"/>
</linearGradient>
<linearGradient id="paint5_linear_486_2895" x1="59.0574" y1="48.3854" x2="62.1858" y2="82.9712" gradientUnits="userSpaceOnUse">
<stop stop-color="#53D8FF"/>
<stop offset="1" stop-color="#3840F7"/>
</linearGradient>
<linearGradient id="paint6_linear_486_2895" x1="58.1027" y1="23.7908" x2="62.9297" y2="56.5856" gradientUnits="userSpaceOnUse">
<stop stop-color="#FF928E"/>
<stop offset="1" stop-color="#FE7062"/>
</linearGradient>
<linearGradient id="paint7_linear_486_2895" x1="13.404" y1="-15.6313" x2="35.1582" y2="14.7901" gradientUnits="userSpaceOnUse">
<stop stop-color="#E1473D"/>
<stop offset="1" stop-color="#E9605A"/>
</linearGradient>
<linearGradient id="paint8_linear_486_2895" x1="16.434" y1="-17.798" x2="38.1882" y2="12.6234" gradientUnits="userSpaceOnUse">
<stop stop-color="#E1473D"/>
<stop offset="1" stop-color="#E9605A"/>
</linearGradient>
<linearGradient id="paint9_linear_486_2895" x1="85.3934" y1="136.192" x2="117.713" y2="170.77" gradientUnits="userSpaceOnUse">
<stop stop-color="#09005D"/>
<stop offset="1" stop-color="#1A0F91"/>
</linearGradient>
<linearGradient id="paint10_linear_486_2895" x1="95.8279" y1="138.679" x2="92.9793" y2="138.706" gradientUnits="userSpaceOnUse">
<stop stop-color="#FEBBBA"/>
<stop offset="1" stop-color="#FF928E"/>
</linearGradient>
<linearGradient id="paint11_linear_486_2895" x1="82.494" y1="96.8549" x2="110.051" y2="133.565" gradientUnits="userSpaceOnUse">
<stop stop-color="#09005D"/>
<stop offset="1" stop-color="#1A0F91"/>
</linearGradient>
<linearGradient id="paint12_linear_486_2895" x1="92.5257" y1="129.524" x2="124.846" y2="164.104" gradientUnits="userSpaceOnUse">
<stop stop-color="#09005D"/>
<stop offset="1" stop-color="#1A0F91"/>
</linearGradient>
<linearGradient id="paint13_linear_486_2895" x1="106.094" y1="138.436" x2="103.635" y2="138.459" gradientUnits="userSpaceOnUse">
<stop stop-color="#FEBBBA"/>
<stop offset="1" stop-color="#FF928E"/>
</linearGradient>
<linearGradient id="paint14_linear_486_2895" x1="87.3245" y1="93.2283" x2="114.882" y2="129.938" gradientUnits="userSpaceOnUse">
<stop stop-color="#09005D"/>
<stop offset="1" stop-color="#1A0F91"/>
</linearGradient>
<linearGradient id="paint15_linear_486_2895" x1="206.739" y1="-110.255" x2="181.681" y2="-66.7184" gradientUnits="userSpaceOnUse">
<stop stop-color="#FF928E"/>
<stop offset="1" stop-color="#FE7062"/>
</linearGradient>
<linearGradient id="paint16_linear_486_2895" x1="83.4012" y1="64.6402" x2="68.8455" y2="64.7777" gradientUnits="userSpaceOnUse">
<stop stop-color="#FEBBBA"/>
<stop offset="1" stop-color="#FF928E"/>
</linearGradient>
<linearGradient id="paint17_linear_486_2895" x1="72.0426" y1="62.3512" x2="81.9793" y2="84.446" gradientUnits="userSpaceOnUse">
<stop stop-color="#FEBBBA"/>
<stop offset="1" stop-color="#FF928E"/>
</linearGradient>
<linearGradient id="paint18_linear_486_2895" x1="68.8229" y1="54.9599" x2="64.7021" y2="48.7386" gradientUnits="userSpaceOnUse">
<stop stop-color="#FEBBBA"/>
<stop offset="1" stop-color="#FF928E"/>
</linearGradient>
<linearGradient id="paint19_linear_486_2895" x1="215.302" y1="-105.326" x2="190.245" y2="-61.7898" gradientUnits="userSpaceOnUse">
<stop stop-color="#FF928E"/>
<stop offset="1" stop-color="#FE7062"/>
</linearGradient>
<linearGradient id="paint20_linear_486_2895" x1="115.445" y1="84.9067" x2="97.0259" y2="85.0807" gradientUnits="userSpaceOnUse">
<stop stop-color="#FEBBBA"/>
<stop offset="1" stop-color="#FF928E"/>
</linearGradient>
<linearGradient id="paint21_linear_486_2895" x1="101.116" y1="65.3958" x2="93.8327" y2="65.4646" gradientUnits="userSpaceOnUse">
<stop stop-color="#FEBBBA"/>
<stop offset="1" stop-color="#FF928E"/>
</linearGradient>
<linearGradient id="paint22_linear_486_2895" x1="92.0449" y1="60.8882" x2="99.9956" y2="55.9233" gradientUnits="userSpaceOnUse">
<stop stop-color="#FEBBBA"/>
<stop offset="1" stop-color="#FF928E"/>
</linearGradient>
<linearGradient id="paint23_linear_486_2895" x1="104.196" y1="50.7639" x2="93.948" y2="59.0363" gradientUnits="userSpaceOnUse">
<stop stop-color="#09005D"/>
<stop offset="1" stop-color="#1A0F91"/>
</linearGradient>
<linearGradient id="paint24_linear_486_2895" x1="94.1653" y1="62.6848" x2="101.319" y2="58.2181" gradientUnits="userSpaceOnUse">
<stop stop-color="#FEBBBA"/>
<stop offset="1" stop-color="#FF928E"/>
</linearGradient>
<linearGradient id="paint25_linear_486_2895" x1="92.0793" y1="73.2578" x2="81.9607" y2="115.518" gradientUnits="userSpaceOnUse">
<stop stop-color="#09005D"/>
<stop offset="1" stop-color="#1A0F91"/>
</linearGradient>
<linearGradient id="paint26_linear_486_2895" x1="99.0441" y1="84.435" x2="93.2849" y2="84.435" gradientUnits="userSpaceOnUse">
<stop stop-color="#FEBBBA"/>
<stop offset="1" stop-color="#FF928E"/>
</linearGradient>
<linearGradient id="paint27_linear_486_2895" x1="116.343" y1="112.408" x2="115.151" y2="141.676" gradientUnits="userSpaceOnUse">
<stop stop-color="#4F52FF"/>
<stop offset="1" stop-color="#4042E2"/>
</linearGradient>
<linearGradient id="paint28_linear_486_2895" x1="120.126" y1="139.944" x2="117.088" y2="139.944" gradientUnits="userSpaceOnUse">
<stop stop-color="#FEBBBA"/>
<stop offset="1" stop-color="#FF928E"/>
</linearGradient>
<linearGradient id="paint29_linear_486_2895" x1="100.306" y1="111.755" x2="99.1146" y2="141.024" gradientUnits="userSpaceOnUse">
<stop stop-color="#4F52FF"/>
<stop offset="1" stop-color="#4042E2"/>
</linearGradient>
<linearGradient id="paint30_linear_486_2895" x1="136.923" y1="126.27" x2="112.876" y2="126.27" gradientUnits="userSpaceOnUse">
<stop stop-color="#09005D"/>
<stop offset="1" stop-color="#1A0F91"/>
</linearGradient>
<linearGradient id="paint31_linear_486_2895" x1="105.738" y1="140.2" x2="102.112" y2="140.2" gradientUnits="userSpaceOnUse">
<stop stop-color="#FEBBBA"/>
<stop offset="1" stop-color="#FF928E"/>
</linearGradient>
<linearGradient id="paint32_linear_486_2895" x1="115.08" y1="116.276" x2="141.408" y2="146.197" gradientUnits="userSpaceOnUse">
<stop stop-color="#09005D"/>
<stop offset="1" stop-color="#1A0F91"/>
</linearGradient>
<linearGradient id="paint33_linear_486_2895" x1="125.882" y1="89.2186" x2="124.102" y2="84.7181" gradientUnits="userSpaceOnUse">
<stop stop-color="#FEBBBA"/>
<stop offset="1" stop-color="#FF928E"/>
</linearGradient>
<linearGradient id="paint34_linear_486_2895" x1="77.5884" y1="32.2686" x2="132.259" y2="115.776" gradientUnits="userSpaceOnUse">
<stop stop-color="#4F52FF"/>
<stop offset="1" stop-color="#4042E2"/>
</linearGradient>
<linearGradient id="paint35_linear_486_2895" x1="124.722" y1="96.6132" x2="90.0888" y2="38.753" gradientUnits="userSpaceOnUse">
<stop stop-color="#09005D"/>
<stop offset="1" stop-color="#1A0F91"/>
</linearGradient>
<linearGradient id="paint36_linear_486_2895" x1="110.607" y1="106.711" x2="102.23" y2="106.711" gradientUnits="userSpaceOnUse">
<stop stop-color="#FEBBBA"/>
<stop offset="1" stop-color="#FF928E"/>
</linearGradient>
<linearGradient id="paint37_linear_486_2895" x1="120.425" y1="80.085" x2="128.41" y2="88.0667" gradientUnits="userSpaceOnUse">
<stop stop-color="#FEBBBA"/>
<stop offset="1" stop-color="#FF928E"/>
</linearGradient>
<linearGradient id="paint38_linear_486_2895" x1="127.386" y1="75.5435" x2="117.983" y2="84.859" gradientUnits="userSpaceOnUse">
<stop stop-color="#09005D"/>
<stop offset="1" stop-color="#1A0F91"/>
</linearGradient>
<linearGradient id="paint39_linear_486_2895" x1="121.719" y1="78.7907" x2="129.704" y2="86.7728" gradientUnits="userSpaceOnUse">
<stop stop-color="#FEBBBA"/>
<stop offset="1" stop-color="#FF928E"/>
</linearGradient>
<linearGradient id="paint40_linear_486_2895" x1="1905.9" y1="-1808.52" x2="1876.36" y2="-1776.91" gradientUnits="userSpaceOnUse">
<stop stop-color="#09005D"/>
<stop offset="1" stop-color="#1A0F91"/>
</linearGradient>
<linearGradient id="paint41_linear_486_2895" x1="-2407.72" y1="-719.449" x2="-2366.59" y2="-705.897" gradientUnits="userSpaceOnUse">
<stop stop-color="#09005D"/>
<stop offset="1" stop-color="#1A0F91"/>
</linearGradient>
<linearGradient id="paint42_linear_486_2895" x1="79.9167" y1="200.166" x2="57.628" y2="110.797" gradientUnits="userSpaceOnUse">
<stop stop-color="#FEBBBA"/>
<stop offset="1" stop-color="#FF928E"/>
</linearGradient>
<linearGradient id="paint43_linear_486_2895" x1="29.2552" y1="90.7104" x2="50.4647" y2="126.502" gradientUnits="userSpaceOnUse">
<stop stop-color="#09005D"/>
<stop offset="1" stop-color="#1A0F91"/>
</linearGradient>
<linearGradient id="paint44_linear_486_2895" x1="69.0373" y1="143.659" x2="64.5805" y2="77.0216" gradientUnits="userSpaceOnUse">
<stop stop-color="#FEBBBA"/>
<stop offset="1" stop-color="#FF928E"/>
</linearGradient>
<linearGradient id="paint45_linear_486_2895" x1="65.1371" y1="114.458" x2="35.4652" y2="114.458" gradientUnits="userSpaceOnUse">
<stop stop-color="#09005D"/>
<stop offset="1" stop-color="#1A0F91"/>
</linearGradient>
<linearGradient id="paint46_linear_486_2895" x1="41.4131" y1="83.5065" x2="62.6193" y2="119.294" gradientUnits="userSpaceOnUse">
<stop stop-color="#09005D"/>
<stop offset="1" stop-color="#1A0F91"/>
</linearGradient>
<linearGradient id="paint47_linear_486_2895" x1="44.2363" y1="65.0174" x2="48.5853" y2="87.9202" gradientUnits="userSpaceOnUse">
<stop stop-color="#09005D"/>
<stop offset="1" stop-color="#1A0F91"/>
</linearGradient>
<linearGradient id="paint48_linear_486_2895" x1="64.9776" y1="139.155" x2="48.3401" y2="101.764" gradientUnits="userSpaceOnUse">
<stop stop-color="#4F52FF"/>
<stop offset="1" stop-color="#4042E2"/>
</linearGradient>
<linearGradient id="paint49_linear_486_2895" x1="51.4669" y1="93.6665" x2="53.2463" y2="82.2204" gradientUnits="userSpaceOnUse">
<stop stop-color="#FEBBBA"/>
<stop offset="1" stop-color="#FF928E"/>
</linearGradient>
<linearGradient id="paint50_linear_486_2895" x1="61.1731" y1="81.5313" x2="47.7754" y2="77.0003" gradientUnits="userSpaceOnUse">
<stop stop-color="#FEBBBA"/>
<stop offset="1" stop-color="#FF928E"/>
</linearGradient>
<linearGradient id="paint51_linear_486_2895" x1="64.0326" y1="69.5951" x2="48.4233" y2="86.9402" gradientUnits="userSpaceOnUse">
<stop stop-color="#09005D"/>
<stop offset="1" stop-color="#1A0F91"/>
</linearGradient>
<linearGradient id="paint52_linear_486_2895" x1="61.5725" y1="80.3517" x2="48.1745" y2="75.8202" gradientUnits="userSpaceOnUse">
<stop stop-color="#FEBBBA"/>
<stop offset="1" stop-color="#FF928E"/>
</linearGradient>
<linearGradient id="paint53_linear_486_2895" x1="44.1252" y1="106.661" x2="19.2445" y2="106.661" gradientUnits="userSpaceOnUse">
<stop stop-color="#FEBBBA"/>
<stop offset="1" stop-color="#FF928E"/>
</linearGradient>
<linearGradient id="paint54_linear_486_2895" x1="43.6577" y1="104.106" x2="59.0821" y2="109.177" gradientUnits="userSpaceOnUse">
<stop stop-color="#09005D"/>
<stop offset="1" stop-color="#1A0F91"/>
</linearGradient>
<linearGradient id="paint55_linear_486_2895" x1="64.8506" y1="94.0113" x2="75.9358" y2="105.756" gradientUnits="userSpaceOnUse">
<stop stop-color="#09005D"/>
<stop offset="1" stop-color="#1A0F91"/>
</linearGradient>
<linearGradient id="paint56_linear_486_2895" x1="30.0654" y1="161.938" x2="30.2288" y2="179.291" gradientUnits="userSpaceOnUse">
<stop stop-color="#09005D"/>
<stop offset="1" stop-color="#1A0F91"/>
</linearGradient>
<linearGradient id="paint57_linear_486_2895" x1="25.8728" y1="142.559" x2="24.9744" y2="135.519" gradientUnits="userSpaceOnUse">
<stop stop-color="#FEBBBA"/>
<stop offset="1" stop-color="#FF928E"/>
</linearGradient>
<linearGradient id="paint58_linear_486_2895" x1="6.56464" y1="162.158" x2="6.72812" y2="179.511" gradientUnits="userSpaceOnUse">
<stop stop-color="#09005D"/>
<stop offset="1" stop-color="#1A0F91"/>
</linearGradient>
<linearGradient id="paint59_linear_486_2895" x1="6.14628" y1="144.971" x2="5.27117" y2="138.111" gradientUnits="userSpaceOnUse">
<stop stop-color="#FEBBBA"/>
<stop offset="1" stop-color="#FF928E"/>
</linearGradient>
<linearGradient id="paint60_linear_486_2895" x1="19.9876" y1="89.5898" x2="11.8821" y2="129.14" gradientUnits="userSpaceOnUse">
<stop stop-color="#09005D"/>
<stop offset="1" stop-color="#1A0F91"/>
</linearGradient>
<linearGradient id="paint61_linear_486_2895" x1="5.61527" y1="114.762" x2="6.596" y2="112.796" gradientUnits="userSpaceOnUse">
<stop stop-color="#4F52FF"/>
<stop offset="1" stop-color="#4042E2"/>
</linearGradient>
<linearGradient id="paint62_linear_486_2895" x1="21.8173" y1="73.4985" x2="4.98807" y2="123.617" gradientUnits="userSpaceOnUse">
<stop stop-color="#4F52FF"/>
<stop offset="1" stop-color="#4042E2"/>
</linearGradient>
<linearGradient id="paint63_linear_486_2895" x1="12.7937" y1="99.9182" x2="25.1206" y2="99.9182" gradientUnits="userSpaceOnUse">
<stop stop-color="#FEBBBA"/>
<stop offset="1" stop-color="#FF928E"/>
</linearGradient>
<linearGradient id="paint64_linear_486_2895" x1="24.1531" y1="84.503" x2="47.1728" y2="84.503" gradientUnits="userSpaceOnUse">
<stop stop-color="#FEBBBA"/>
<stop offset="1" stop-color="#FF928E"/>
</linearGradient>
<linearGradient id="paint65_linear_486_2895" x1="15.8657" y1="71.623" x2="23.8576" y2="63.4042" gradientUnits="userSpaceOnUse">
<stop stop-color="#FEBBBA"/>
<stop offset="1" stop-color="#FF928E"/>
</linearGradient>
<linearGradient id="paint66_linear_486_2895" x1="27.484" y1="58.2567" x2="17.5265" y2="71.4616" gradientUnits="userSpaceOnUse">
<stop stop-color="#FEBBBA"/>
<stop offset="1" stop-color="#FF928E"/>
</linearGradient>
<linearGradient id="paint67_linear_486_2895" x1="12.2584" y1="20.7671" x2="22.7516" y2="51.2459" gradientUnits="userSpaceOnUse">
<stop stop-color="#E1473D"/>
<stop offset="1" stop-color="#E9605A"/>
</linearGradient>
<linearGradient id="paint68_linear_486_2895" x1="12.8554" y1="68.695" x2="20.8472" y2="60.4761" gradientUnits="userSpaceOnUse">
<stop stop-color="#FEBBBA"/>
<stop offset="1" stop-color="#FF928E"/>
</linearGradient>
<linearGradient id="paint69_linear_486_2895" x1="141.398" y1="220.048" x2="111.861" y2="114.463" gradientUnits="userSpaceOnUse">
<stop stop-color="#4F52FF"/>
<stop offset="1" stop-color="#4042E2"/>
</linearGradient>
<linearGradient id="paint70_linear_486_2895" x1="139.849" y1="220.482" x2="110.312" y2="114.897" gradientUnits="userSpaceOnUse">
<stop stop-color="#4F52FF"/>
<stop offset="1" stop-color="#4042E2"/>
</linearGradient>
<linearGradient id="paint71_linear_486_2895" x1="58.2871" y1="243.299" x2="28.7491" y2="137.714" gradientUnits="userSpaceOnUse">
<stop stop-color="#4F52FF"/>
<stop offset="1" stop-color="#4042E2"/>
</linearGradient>
<linearGradient id="paint72_linear_486_2895" x1="56.7381" y1="243.733" x2="27.2" y2="138.148" gradientUnits="userSpaceOnUse">
<stop stop-color="#4F52FF"/>
<stop offset="1" stop-color="#4042E2"/>
</linearGradient>
<linearGradient id="paint73_linear_486_2895" x1="16.4313" y1="75.0041" x2="21.1765" y2="94.9829" gradientUnits="userSpaceOnUse">
<stop stop-color="#09005D"/>
<stop offset="1" stop-color="#1A0F91"/>
</linearGradient>
<linearGradient id="paint74_linear_486_2895" x1="104.85" y1="230.273" x2="75.312" y2="124.689" gradientUnits="userSpaceOnUse">
<stop stop-color="#4F52FF"/>
<stop offset="1" stop-color="#4042E2"/>
</linearGradient>
<clipPath id="clip0_486_2895">
<rect width="149" height="148.488" fill="white" transform="matrix(-1 0 0 1 149 0)"/>
</clipPath>
</defs>
</svg>
