<svg width="173" height="40" viewBox="0 0 173 40" fill="none" xmlns="http://www.w3.org/2000/svg">
<g clip-path="url(#clip0_413_3413)">
<path d="M107.828 7.201C107.828 6.18651 108.09 5.36864 108.62 4.74736C109.146 4.12347 109.833 3.81414 110.682 3.81414C111.201 3.81414 111.644 3.92162 112.011 4.1392C112.377 4.35677 112.647 4.66872 112.818 5.07504V0H114.272V10.3834H112.818V9.56026C112.558 9.92726 112.257 10.1999 111.911 10.3781C111.565 10.5564 111.169 10.6455 110.721 10.6455C109.825 10.6455 109.118 10.3388 108.601 9.72541C108.085 9.112 107.828 8.27053 107.828 7.20362V7.201ZM109.348 7.24032C109.348 7.91402 109.5 8.43568 109.804 8.80005C110.108 9.16705 110.535 9.35055 111.091 9.35055C111.646 9.35055 112.045 9.15394 112.37 8.75811C112.695 8.36228 112.86 7.84062 112.86 7.18789C112.86 6.53516 112.708 6.02136 112.401 5.65437C112.094 5.28737 111.667 5.10387 111.12 5.10387C110.572 5.10387 110.14 5.29261 109.822 5.6701C109.508 6.04758 109.351 6.57186 109.351 7.24032H109.348Z" fill="#174873"/>
<path d="M116.151 1.2872C116.151 1.04341 116.24 0.828451 116.421 0.650196C116.602 0.47194 116.817 0.382812 117.068 0.382812C117.32 0.382812 117.542 0.469319 117.715 0.63971C117.888 0.810101 117.972 1.02768 117.972 1.2872C117.972 1.54672 117.886 1.76429 117.71 1.93993C117.535 2.11556 117.322 2.20469 117.068 2.20469C116.814 2.20469 116.602 2.11556 116.421 1.93468C116.24 1.75381 116.151 1.53885 116.151 1.2872ZM116.345 10.3835V4.03181H117.799V10.3808H116.345V10.3835Z" fill="#174873"/>
<path d="M119.749 1.2872C119.749 1.04341 119.838 0.828451 120.019 0.650196C120.2 0.47194 120.415 0.382812 120.666 0.382812C120.918 0.382812 121.14 0.469319 121.313 0.63971C121.486 0.810101 121.57 1.02768 121.57 1.2872C121.57 1.54672 121.484 1.76429 121.308 1.93993C121.133 2.11556 120.92 2.20469 120.666 2.20469C120.412 2.20469 120.2 2.11556 120.019 1.93468C119.838 1.75381 119.749 1.53885 119.749 1.2872ZM119.943 13.3719V4.03181H121.397V13.3692H119.943V13.3719Z" fill="#174873"/>
<path d="M123.344 1.2872C123.344 1.04341 123.433 0.828451 123.614 0.650196C123.795 0.47194 124.01 0.382812 124.261 0.382812C124.513 0.382812 124.736 0.469319 124.909 0.63971C125.082 0.810101 125.165 1.02768 125.165 1.2872C125.165 1.54672 125.079 1.76429 124.903 1.93993C124.728 2.11556 124.516 2.20469 124.261 2.20469C124.007 2.20469 123.795 2.11556 123.614 1.93468C123.433 1.75381 123.344 1.53885 123.344 1.2872ZM123.538 10.3835V4.03181H124.993V10.3808H123.538V10.3835Z" fill="#174873"/>
<path d="M126.298 5.32365V4.03129H127.409V1.64844H128.863V4.03129H129.974V5.32365H128.863V10.3803H127.409V5.32365H126.298Z" fill="#174873"/>
<path d="M130.755 7.20131C130.755 6.18682 131.017 5.36895 131.546 4.74767C132.073 4.12378 132.76 3.81445 133.609 3.81445C134.128 3.81445 134.57 3.92193 134.937 4.13951C135.304 4.35708 135.574 4.66903 135.744 5.07535V4.03727H137.199V10.3863H135.744V9.56319C135.485 9.93019 135.184 10.2028 134.838 10.3811C134.492 10.5593 134.096 10.6485 133.648 10.6485C132.752 10.6485 132.044 10.3417 131.528 9.72834C131.012 9.11493 130.755 8.27346 130.755 7.20655V7.20131ZM132.275 7.24063C132.275 7.91433 132.427 8.43599 132.731 8.80036C133.035 9.16736 133.462 9.35086 134.017 9.35086C134.539 9.35086 134.966 9.15163 135.294 8.7558C135.621 8.35735 135.786 7.83569 135.786 7.1882C135.786 6.54071 135.634 6.02168 135.328 5.65468C135.021 5.28768 134.594 5.10418 134.046 5.10418C133.499 5.10418 133.066 5.29292 132.749 5.67041C132.435 6.04789 132.277 6.57217 132.277 7.24063H132.275Z" fill="#174873"/>
<path d="M139.272 10.3834V0H140.726V10.3834H139.272Z" fill="#174873"/>
<path d="M108.297 26.6836V17.3462H109.752V18.3842C109.922 17.9806 110.192 17.6712 110.567 17.4537C110.939 17.2335 111.384 17.126 111.903 17.126C112.747 17.126 113.431 17.4379 113.955 18.0592C114.479 18.6805 114.741 19.501 114.741 20.5128C114.741 21.5797 114.484 22.4212 113.968 23.0346C113.452 23.648 112.747 23.9547 111.848 23.9547C111.403 23.9547 111.007 23.8656 110.658 23.6874C110.312 23.5091 110.011 23.2365 109.752 22.8695V26.681H108.297V26.6836ZM109.705 20.4997C109.705 21.1551 109.87 21.682 110.197 22.0752C110.525 22.4684 110.957 22.665 111.494 22.665C112.032 22.665 112.469 22.4815 112.77 22.1145C113.072 21.7475 113.221 21.2285 113.221 20.5548C113.221 19.8811 113.064 19.362 112.75 18.9846C112.435 18.6071 112.003 18.4183 111.452 18.4183C110.902 18.4183 110.475 18.6018 110.166 18.9688C109.856 19.3358 109.705 19.847 109.705 20.5023V20.4997Z" fill="#174873"/>
<path d="M115.81 20.5148C115.81 19.5003 116.072 18.6824 116.602 18.0612C117.128 17.4373 117.815 17.1279 118.664 17.1279C119.183 17.1279 119.626 17.2354 119.993 17.453C120.359 17.6706 120.629 17.9825 120.8 18.3888V17.3508H122.254V23.6998H120.8V22.8767C120.54 23.2437 120.239 23.5163 119.893 23.6945C119.547 23.8728 119.151 23.9619 118.703 23.9619C117.807 23.9619 117.1 23.6552 116.583 23.0418C116.067 22.4284 115.81 21.5869 115.81 20.52V20.5148ZM117.33 20.5541C117.33 21.2278 117.482 21.7495 117.786 22.1138C118.09 22.4808 118.517 22.6643 119.073 22.6643C119.594 22.6643 120.021 22.4651 120.349 22.0693C120.677 21.6708 120.842 21.1492 120.842 20.5017C120.842 19.8542 120.69 19.3352 120.383 18.9682C120.076 18.6012 119.649 18.4177 119.102 18.4177C118.554 18.4177 118.122 18.6064 117.804 18.9839C117.49 19.3614 117.333 19.8856 117.333 20.5541H117.33Z" fill="#174873"/>
<path d="M123.242 23.6977L126.777 18.641H123.596V17.3486H129.141L125.679 22.4053H129.141V23.6977H123.242Z" fill="#174873"/>
<path d="M129.953 20.5148C129.953 19.5003 130.215 18.6824 130.744 18.0612C131.271 17.4373 131.958 17.1279 132.807 17.1279C133.326 17.1279 133.769 17.2354 134.135 17.453C134.502 17.6706 134.772 17.9825 134.943 18.3888V17.3508H136.397V23.6998H134.943V22.8767C134.683 23.2437 134.382 23.5163 134.036 23.6945C133.69 23.8728 133.294 23.9619 132.846 23.9619C131.95 23.9619 131.242 23.6552 130.726 23.0418C130.21 22.4284 129.953 21.5869 129.953 20.52V20.5148ZM131.473 20.5541C131.473 21.2278 131.625 21.7495 131.929 22.1138C132.233 22.4808 132.66 22.6643 133.216 22.6643C133.737 22.6643 134.164 22.4651 134.492 22.0693C134.819 21.6708 134.984 21.1492 134.984 20.5017C134.984 19.8542 134.832 19.3352 134.526 18.9682C134.219 18.6012 133.792 18.4177 133.244 18.4177C132.697 18.4177 132.264 18.6064 131.947 18.9839C131.633 19.3614 131.476 19.8856 131.476 20.5541H131.473Z" fill="#174873"/>
<path d="M138.402 23.6978V17.3331H139.856V18.3318C140.013 17.9203 140.218 17.6162 140.474 17.4196C140.731 17.223 141.048 17.126 141.428 17.126C141.633 17.126 141.837 17.1496 142.034 17.1994C142.233 17.2492 142.427 17.32 142.618 17.4117L142.097 18.6202C141.971 18.531 141.837 18.4629 141.69 18.4209C141.546 18.379 141.384 18.3554 141.206 18.3554C140.723 18.3554 140.377 18.5494 140.168 18.9374C139.958 19.3253 139.853 19.9781 139.853 20.8929V23.6926H138.399L138.402 23.6978Z" fill="#174873"/>
<path d="M143.517 23.6978V13.3145H144.971V23.6978H143.517Z" fill="#174873"/>
<path d="M146.578 20.5148C146.578 19.5003 146.84 18.6824 147.369 18.0612C147.896 17.4373 148.582 17.1279 149.431 17.1279C149.95 17.1279 150.393 17.2354 150.76 17.453C151.127 17.6706 151.397 17.9825 151.567 18.3888V17.3508H153.021V23.6998H151.567V22.8767C151.308 23.2437 151.006 23.5163 150.66 23.6945C150.314 23.8728 149.919 23.9619 149.471 23.9619C148.574 23.9619 147.867 23.6552 147.351 23.0418C146.834 22.4284 146.578 21.5869 146.578 20.52V20.5148ZM148.097 20.5541C148.097 21.2278 148.249 21.7495 148.553 22.1138C148.857 22.4808 149.285 22.6643 149.84 22.6643C150.362 22.6643 150.789 22.4651 151.116 22.0693C151.444 21.6708 151.609 21.1492 151.609 20.5017C151.609 19.8542 151.457 19.3352 151.15 18.9682C150.844 18.6012 150.417 18.4177 149.869 18.4177C149.321 18.4177 148.889 18.6064 148.572 18.9839C148.257 19.3614 148.1 19.8856 148.1 20.5541H148.097Z" fill="#174873"/>
<path d="M155.029 23.6976V17.3485H156.394V18.3866C156.685 17.9436 157.012 17.6212 157.382 17.4193C157.751 17.2148 158.184 17.1152 158.684 17.1152C159.185 17.1152 159.586 17.2201 159.908 17.4272C160.233 17.6343 160.479 17.9515 160.647 18.3761C160.982 17.9384 161.339 17.6185 161.716 17.4193C162.094 17.2175 162.523 17.1179 163.008 17.1179C163.427 17.1179 163.794 17.1965 164.106 17.3485C164.421 17.5032 164.662 17.726 164.837 18.0222C164.918 18.1612 164.976 18.3263 165.015 18.5177C165.055 18.709 165.073 18.9843 165.073 19.3408V23.7002H163.619V20.4366C163.619 19.5846 163.53 19.0236 163.346 18.751C163.165 18.481 162.843 18.3447 162.377 18.3447C161.805 18.3447 161.396 18.5255 161.153 18.8899C160.909 19.2543 160.786 19.8913 160.786 20.8009V23.695H159.332V20.4313C159.332 19.6449 159.237 19.1023 159.046 18.7982C158.857 18.4941 158.53 18.3421 158.066 18.3421C157.78 18.3421 157.518 18.4076 157.282 18.536C157.044 18.6645 156.858 18.8454 156.719 19.0708C156.63 19.2176 156.567 19.3985 156.533 19.6134C156.496 19.8284 156.478 20.2242 156.478 20.7983V23.6923H155.023L155.029 23.6976Z" fill="#174873"/>
<path d="M166.559 20.5148C166.559 19.5003 166.821 18.6824 167.35 18.0612C167.877 17.4373 168.564 17.1279 169.413 17.1279C169.931 17.1279 170.374 17.2354 170.741 17.453C171.108 17.6706 171.378 17.9825 171.548 18.3888V17.3508H173.003V23.6998H171.548V22.8767C171.289 23.2437 170.987 23.5163 170.642 23.6945C170.296 23.8728 169.9 23.9619 169.452 23.9619C168.556 23.9619 167.848 23.6552 167.332 23.0418C166.816 22.4284 166.559 21.5869 166.559 20.52V20.5148ZM168.079 20.5541C168.079 21.2278 168.231 21.7495 168.535 22.1138C168.839 22.4808 169.266 22.6643 169.821 22.6643C170.343 22.6643 170.77 22.4651 171.098 22.0693C171.425 21.6708 171.59 21.1492 171.59 20.5017C171.59 19.8542 171.438 19.3352 171.132 18.9682C170.825 18.6012 170.398 18.4177 169.85 18.4177C169.302 18.4177 168.87 18.6064 168.553 18.9839C168.239 19.3614 168.081 19.8856 168.081 20.5541H168.079Z" fill="#174873"/>
<path d="M107.828 33.8292C107.828 32.8148 108.09 31.9969 108.62 31.3756C109.146 30.7517 109.833 30.4424 110.682 30.4424C111.201 30.4424 111.644 30.5499 112.011 30.7674C112.377 30.985 112.647 31.297 112.818 31.7033V30.6652H114.272V37.0142H112.818V36.1911C112.558 36.5581 112.257 36.8307 111.911 37.009C111.565 37.1873 111.169 37.2764 110.721 37.2764C109.825 37.2764 109.118 36.9697 108.601 36.3563C108.085 35.7429 107.828 34.9014 107.828 33.8345V33.8292ZM109.348 33.8686C109.348 34.5423 109.5 35.0639 109.804 35.4283C110.108 35.7953 110.535 35.9788 111.091 35.9788C111.612 35.9788 112.039 35.7796 112.367 35.3837C112.695 34.9853 112.86 34.4636 112.86 33.8161C112.86 33.1686 112.708 32.6496 112.401 32.2826C112.094 31.9156 111.667 31.7321 111.12 31.7321C110.572 31.7321 110.14 31.9209 109.822 32.2983C109.508 32.6758 109.351 33.2001 109.351 33.8686H109.348Z" fill="#174873"/>
<path d="M116.151 27.9151C116.151 27.6713 116.24 27.4564 116.421 27.2781C116.602 27.0999 116.817 27.0107 117.068 27.0107C117.32 27.0107 117.542 27.0972 117.715 27.2676C117.888 27.438 117.972 27.6556 117.972 27.9151C117.972 28.1746 117.886 28.3922 117.71 28.5679C117.535 28.7435 117.322 28.8326 117.068 28.8326C116.814 28.8326 116.602 28.7435 116.421 28.5626C116.24 28.3817 116.151 28.1668 116.151 27.9151ZM116.345 39.9998V30.6624H117.799V39.9998H116.345Z" fill="#174873"/>
<path d="M119.406 33.8292C119.406 32.8148 119.668 31.9969 120.197 31.3756C120.724 30.7517 121.41 30.4424 122.259 30.4424C122.778 30.4424 123.221 30.5499 123.588 30.7674C123.955 30.985 124.225 31.297 124.395 31.7033V30.6652H125.849V37.0142H124.395V36.1911C124.136 36.5581 123.834 36.8307 123.488 37.009C123.142 37.1873 122.747 37.2764 122.299 37.2764C121.402 37.2764 120.695 36.9697 120.179 36.3563C119.662 35.7429 119.406 34.9014 119.406 33.8345V33.8292ZM120.925 33.8686C120.925 34.5423 121.077 35.0639 121.381 35.4283C121.685 35.7953 122.113 35.9788 122.668 35.9788C123.19 35.9788 123.617 35.7796 123.944 35.3837C124.272 34.9853 124.437 34.4636 124.437 33.8161C124.437 33.1686 124.285 32.6496 123.978 32.2826C123.672 31.9156 123.245 31.7321 122.697 31.7321C122.149 31.7321 121.717 31.9209 121.4 32.2983C121.085 32.6758 120.928 33.2001 120.928 33.8686H120.925Z" fill="#174873"/>
<path d="M127.857 37.0113V30.6623H129.222V31.7003C129.513 31.2626 129.854 30.9428 130.247 30.7409C130.64 30.5391 131.117 30.4395 131.68 30.4395C132.149 30.4395 132.55 30.5155 132.88 30.6649C133.21 30.8143 133.47 31.0371 133.656 31.3307C133.766 31.5037 133.847 31.7082 133.897 31.9415C133.947 32.1748 133.97 32.5811 133.97 33.1605V37.0113H132.516V33.7477C132.516 32.9141 132.414 32.3583 132.212 32.0831C132.008 31.8078 131.649 31.6715 131.13 31.6715C130.792 31.6715 130.488 31.7344 130.223 31.8603C129.958 31.9861 129.749 32.1617 129.597 32.3898C129.489 32.5418 129.416 32.7358 129.371 32.9744C129.329 33.2129 129.308 33.593 129.308 34.1173V37.0113H127.854H127.857Z" fill="#174873"/>
<path d="M135.189 35.8609L136.394 35.2056C136.483 35.5228 136.648 35.7639 136.89 35.9291C137.131 36.0942 137.442 36.1755 137.82 36.1755C138.145 36.1755 138.402 36.0995 138.585 35.9501C138.768 35.8006 138.863 35.5962 138.863 35.3366C138.863 34.9932 138.533 34.697 137.872 34.4532C137.65 34.372 137.477 34.3064 137.356 34.2514C136.677 33.9709 136.203 33.6852 135.933 33.3942C135.663 33.1032 135.527 32.7519 135.527 32.3351C135.527 31.7689 135.75 31.3075 136.193 30.9563C136.635 30.6024 137.225 30.4268 137.956 30.4268C138.446 30.4268 138.868 30.5159 139.219 30.6968C139.57 30.8776 139.825 31.1345 139.987 31.4701L138.955 32.1805C138.879 31.9786 138.745 31.8213 138.556 31.7008C138.368 31.5802 138.147 31.5225 137.896 31.5225C137.618 31.5225 137.398 31.588 137.23 31.7191C137.063 31.8502 136.979 32.0258 136.979 32.2434C136.979 32.5737 137.353 32.8751 138.103 33.1478C138.339 33.2317 138.522 33.3024 138.651 33.3549C139.235 33.5882 139.654 33.8503 139.906 34.1413C140.157 34.4349 140.283 34.7993 140.283 35.237C140.283 35.8714 140.053 36.3695 139.594 36.726C139.135 37.0851 138.501 37.266 137.691 37.266C137.07 37.266 136.554 37.1507 136.145 36.9174C135.737 36.684 135.412 36.3302 135.181 35.8531L135.189 35.8609Z" fill="#174873"/>
<path d="M141.758 37.0113V30.4395H143.666V37.0113H141.758Z" fill="#174873"/>
<path d="M89.8857 1.20312L78.2454 27.3805L66.1833 1.20312L58.3663 35.6222L46.6422 21.3984C46.6422 21.3984 54.8837 22.2792 54.8837 11.8251C54.8837 1.37089 45.8928 2.83364 45.8928 2.83364L35.3427 2.67898V36.558H40.1853V21.3984L51.8256 36.558H63.72L67.9678 15.7362L78.2481 37.9185L88.8689 15.9066L92.6922 36.558H98.2136L89.8857 1.20312ZM40.6099 16.7559V7.2376C47.5751 7.2376 48.681 7.91654 48.681 12.7609C48.681 17.6052 40.6099 16.7559 40.6099 16.7559Z" fill="#174873"/>
<path d="M16.1423 2.67871H0V36.5577H15.3771C15.3771 36.5577 28.7154 36.217 28.7154 19.6444C28.7154 3.07192 16.1423 2.67871 16.1423 2.67871ZM13.9332 31.6845H5.43753V7.9189H14.3577C14.3577 7.9189 23.0237 7.74851 23.0237 19.8017C23.0237 31.8549 13.9332 31.6845 13.9332 31.6845Z" fill="#174873"/>
<path d="M102.629 1.20312H101.835V37.0115H102.629V1.20312Z" fill="#174873"/>
</g>
<defs>
<clipPath id="clip0_413_3413">
<rect width="173" height="40" fill="white"/>
</clipPath>
</defs>
</svg>
