<svg width="79" height="79" viewBox="0 0 79 79" fill="none" xmlns="http://www.w3.org/2000/svg">
<rect width="79" height="79" rx="15" fill="#D9D9D9" fill-opacity="0.25"/>
<path d="M43.2677 59.1122C43.8416 59.1122 44.3541 59.1122 44.8666 59.1122C45.2869 59.1122 45.5431 59.3582 45.5534 59.7169C45.5636 60.0757 45.3176 60.3422 44.9076 60.3832C44.8256 60.3832 44.7334 60.3832 44.6514 60.3832C39.7314 60.3832 34.8217 60.3832 29.9018 60.3832C29.748 60.3832 29.584 60.3832 29.4405 60.3319C29.1228 60.2397 28.9588 60.0039 28.9895 59.6862C29.0203 59.3582 29.2253 59.1224 29.584 59.1122C30.0555 59.1019 30.527 59.1122 30.9985 59.0917C31.1113 59.0917 31.306 59.0097 31.3368 58.9277C31.839 57.4004 32.331 55.8629 32.8333 54.2845C32.6283 54.2845 32.4745 54.2845 32.3208 54.2845C29.4303 54.2845 26.5296 54.2845 23.6391 54.2845C21.3431 54.2845 19.7031 52.665 19.7031 50.369C19.7031 43.3991 19.7031 36.4394 19.7031 29.4694C19.7031 27.1632 21.2919 25.5642 23.6083 25.5027C23.9158 25.5027 24.2336 25.5027 24.5923 25.5027C24.5923 24.6622 24.5923 23.8627 24.5923 23.0633C24.5923 21.2183 25.8018 19.9883 27.6571 19.9883C34.0735 19.9883 40.5002 19.9883 46.9166 19.9883C48.7718 19.9883 49.9711 21.1978 49.9916 23.053C49.9916 23.8525 49.9916 24.652 49.9916 25.472C50.5041 25.4925 50.9756 25.4925 51.4471 25.5437C53.4151 25.7385 54.85 27.3272 54.85 29.3054C54.85 32.8929 54.85 36.4701 54.85 40.0576C54.85 40.3241 54.9116 40.4881 55.1575 40.6521C58.991 43.1941 60.016 48.2883 57.474 52.1115C57.4023 52.214 57.3305 52.3267 57.2485 52.46C57.9865 53.5157 58.7143 54.5715 59.4523 55.6272C60.221 56.7239 60.3235 57.8617 59.6162 58.9994C58.499 60.8034 55.8955 60.8136 54.7168 59.0199C54.0403 57.9949 53.4151 56.9289 52.7796 55.8732C52.6258 55.6067 52.4516 55.5452 52.1543 55.5964C50.0018 55.9552 47.9621 55.6579 46.1171 54.4177C46.0146 54.346 45.8916 54.2845 45.7686 54.2845C44.4566 54.2845 43.1344 54.2845 41.7404 54.2845C42.2632 55.9142 42.7654 57.4927 43.2779 59.1019L43.2677 59.1122ZM46.6091 40.2831C47.2139 40.0576 47.7674 39.8116 48.3311 39.6476C48.6489 39.5553 48.7206 39.4118 48.7206 39.1146C48.7206 33.7949 48.7206 28.4855 48.7206 23.1658C48.7206 21.905 48.0954 21.2798 46.8449 21.2798C40.4694 21.2798 34.094 21.29 27.7185 21.2695C26.6628 21.2695 25.8531 21.946 25.8531 23.1248C25.8838 31.0787 25.8633 39.0326 25.8633 46.9865C25.8633 47.1403 25.8633 47.294 25.8633 47.4478H42.2222C42.5092 46.3613 42.7757 45.3465 43.0319 44.3318C43.0729 44.1781 43.0729 44.0243 43.0729 43.8706C43.0729 41.8923 43.0729 39.9141 43.0729 37.9359C43.0729 37.3106 43.4214 36.9519 44.0569 36.9416C44.5284 36.9416 44.9999 36.9416 45.4714 36.9416C46.3016 36.9416 46.6091 37.2389 46.6091 38.0794C46.6091 38.8071 46.6091 39.5348 46.6091 40.2831ZM20.9741 47.4785H24.5616V26.7942C24.2848 26.7942 24.0286 26.7942 23.7826 26.7942C22.0094 26.7942 20.9741 27.8192 20.9741 29.5924C20.9741 35.3939 20.9741 41.1953 20.9741 46.9968C20.9741 47.1505 20.9741 47.3043 20.9741 47.4785ZM50.6168 54.4895C54.4708 54.4997 57.5868 51.4145 57.597 47.5503C57.6073 43.7168 54.4708 40.5803 50.6066 40.5496C46.8244 40.5188 43.6674 43.6963 43.6572 47.54C43.6572 51.4042 46.7321 54.4792 50.6168 54.4895ZM53.5586 39.6988C53.5586 39.6988 53.5586 39.6988 53.5586 39.6681C53.5586 36.1729 53.5586 32.6777 53.5586 29.1824C53.5586 28.5675 53.3023 28.0447 52.8923 27.5937C52.1031 26.7327 51.0781 26.743 50.0121 26.8147V39.1966C51.2216 39.3708 52.3696 39.5246 53.5483 39.6988H53.5586ZM56.4285 53.526C55.5265 54.1205 54.6861 54.674 53.8456 55.2275C54.4708 56.2319 55.096 57.2774 55.7418 58.3024C56.2543 59.1122 57.2075 59.3274 57.9865 58.8559C58.7553 58.3947 59.0525 57.4209 58.5708 56.6624C57.884 55.5759 57.1255 54.5407 56.4285 53.526ZM37.2612 49.8975C36.718 49.8975 36.2772 50.3382 36.267 50.8815C36.267 51.4042 36.7282 51.8757 37.251 51.886C37.8045 51.886 38.2554 51.435 38.2452 50.8712C38.2452 50.3177 37.8045 49.9078 37.251 49.9078L37.2612 49.8975Z" fill="#24419A"/>
<path d="M27.3283 28.178C27.3488 25.6872 29.3783 23.6783 31.8485 23.6885C34.3187 23.709 36.3584 25.759 36.3482 28.219C36.3482 30.7199 34.2982 32.7289 31.787 32.7084C29.2963 32.6982 27.3078 30.6687 27.3283 28.1677V28.178ZM31.0387 25.1235C29.942 25.2568 28.9273 26.3022 28.6505 27.563C28.3635 28.875 28.9785 30.269 30.1675 30.9864C31.1412 31.5707 32.566 31.6014 33.2425 31.0377C32.607 30.2792 31.951 29.5412 31.3462 28.7622C31.172 28.547 31.0695 28.2292 31.0592 27.9525C31.0285 27.0095 31.049 26.0665 31.049 25.1235H31.0387Z" fill="#24419A"/>
<path d="M33.2734 39.9966C33.2734 38.6641 33.2734 37.3316 33.2734 35.9991C33.2734 35.2508 33.5912 34.9331 34.3497 34.9229C34.7904 34.9229 35.2414 34.9229 35.6822 34.9229C36.5432 34.9229 36.8507 35.2303 36.8507 36.0913C36.8507 38.0183 36.8507 39.9556 36.8507 41.8825C36.8507 42.5795 36.8507 43.2868 36.8507 43.9838C36.8507 44.7218 36.5124 45.06 35.7744 45.0703C35.3029 45.0703 34.8314 45.0703 34.3599 45.0703C33.6219 45.06 33.2837 44.7115 33.2837 43.9838C33.2837 42.6513 33.2837 41.3188 33.2837 39.9863L33.2734 39.9966Z" fill="#24419A"/>
<path d="M31.9615 42.1897C31.9615 42.8047 31.9615 43.4197 31.9615 44.0347C31.9512 44.6906 31.613 45.0391 30.957 45.0596C30.424 45.0801 29.9013 45.0801 29.3683 45.0596C28.7328 45.0289 28.3945 44.6804 28.3945 44.0449C28.3945 42.7944 28.3945 41.5542 28.3945 40.3037C28.3945 39.6682 28.743 39.3299 29.3785 39.3094C29.9115 39.2992 30.4343 39.2992 30.9673 39.3094C31.6232 39.3197 31.9512 39.6682 31.9717 40.3344C31.9717 40.3447 31.9717 40.3652 31.9717 40.3754C31.9717 40.9802 31.9717 41.5747 31.9717 42.1794L31.9615 42.1897Z" fill="#24419A"/>
<path d="M41.7301 42.7125C41.7301 43.1737 41.7403 43.635 41.7301 44.086C41.7096 44.7009 41.3816 45.0392 40.7666 45.0597C40.2233 45.0802 39.6801 45.0802 39.1368 45.0597C38.5013 45.0289 38.1836 44.6804 38.1836 44.0347C38.1836 43.143 38.1836 42.2615 38.1836 41.3697C38.1836 40.7035 38.5218 40.3755 39.1881 40.3652C39.7313 40.3652 40.2746 40.3652 40.8178 40.3652C41.3406 40.3652 41.6891 40.6727 41.7198 41.2057C41.7506 41.708 41.7198 42.2102 41.7198 42.7125H41.7301Z" fill="#24419A"/>
<path d="M42.6109 32.022C41.7192 32.022 40.8377 32.022 39.946 32.022C39.454 32.022 39.1465 31.7657 39.1465 31.3762C39.1465 30.9867 39.4437 30.751 39.9562 30.751C41.7192 30.751 43.4822 30.751 45.2452 30.751C45.7577 30.751 46.0549 30.9765 46.0652 31.366C46.0754 31.7657 45.7577 32.022 45.2349 32.022C44.3637 32.022 43.4924 32.022 42.6109 32.022Z" fill="#24419A"/>
<path d="M42.5919 28.8442C41.7002 28.8442 40.8187 28.8442 39.9269 28.8442C39.4452 28.8442 39.1685 28.6085 39.1582 28.2292C39.1582 27.8397 39.4554 27.5732 39.9474 27.5732C41.7207 27.5732 43.4939 27.5732 45.2774 27.5732C45.7694 27.5732 46.0769 27.8397 46.0769 28.2292C46.0769 28.6187 45.7694 28.8442 45.2569 28.8545C44.3652 28.8545 43.4837 28.8545 42.5919 28.8545V28.8442Z" fill="#24419A"/>
<path d="M42.6313 24.426C43.5333 24.426 44.4353 24.4055 45.3373 24.4465C45.5628 24.4568 45.8396 24.6413 45.9728 24.8258C46.0651 24.9488 46.0138 25.2563 45.9113 25.3998C45.8088 25.5433 45.5628 25.6765 45.3783 25.6765C43.5231 25.697 41.6576 25.697 39.8024 25.6765C39.4026 25.6765 39.1259 25.3793 39.1566 25.0308C39.1874 24.6515 39.4129 24.426 39.8024 24.426C40.7454 24.426 41.6884 24.426 42.6313 24.426Z" fill="#24419A"/>
<path d="M56.1505 47.5711C56.1403 50.6973 53.7213 53.1061 50.6155 53.0958C47.5508 53.0856 45.0601 50.5846 45.0703 47.5506C45.0806 44.5269 47.5918 42.0054 50.5951 42.0157C53.7008 42.0157 56.1608 44.4859 56.1505 47.5814V47.5711ZM49.9493 47.8376C49.8366 47.6736 49.7648 47.5609 49.6726 47.4686C49.5803 47.3559 49.4778 47.2636 49.3651 47.1611C49.0268 46.8536 48.6886 46.8229 48.4118 47.0894C48.1351 47.3559 48.1453 47.6941 48.4733 48.0323C48.7808 48.3501 49.0986 48.6678 49.4163 48.9753C49.8161 49.3648 50.1338 49.3648 50.5233 48.9753C51.251 48.2476 51.9788 47.5199 52.7065 46.7819C53.055 46.4334 53.096 46.0849 52.8398 45.7979C52.563 45.5006 52.2043 45.5416 51.8353 45.9106C51.2305 46.5154 50.6258 47.1304 49.9493 47.8274V47.8376Z" fill="#24419A"/>
</svg>
