<svg width="52" height="52" viewBox="0 0 52 52" fill="none" xmlns="http://www.w3.org/2000/svg">
<g clip-path="url(#clip0_486_3583)">
<path d="M0.00012207 48.1236C0.00012207 33.3762 0.00012207 18.6238 0.00012207 3.87138C0.0351322 3.77598 0.0801452 3.68559 0.105152 3.59019C0.610298 1.43608 2.40582 0 4.62146 0C18.8856 0 33.1547 0 47.4188 0C49.9795 0 51.9951 2.01352 51.9951 4.58942C51.9951 18.8598 51.9951 33.1352 51.9951 47.4056C51.9951 49.9764 49.9795 51.995 47.4188 51.995C33.1347 51.995 18.8506 51.995 4.56644 51.995C3.22605 51.995 2.11073 51.4728 1.19047 50.5037C0.550281 49.8258 0.255196 48.9873 0.00012207 48.1236ZM3.046 15.3098V15.9123C3.046 26.2912 3.046 36.6701 3.046 47.0541C3.046 48.3696 3.62117 48.9471 4.93154 48.9471C18.9756 48.9471 33.0196 48.9471 47.0637 48.9471C48.3791 48.9471 48.9542 48.3696 48.9542 47.0591C48.9542 36.6601 48.9542 26.2661 48.9542 15.8671V15.3098H3.046ZM3.046 12.2016H48.9542C48.9542 9.70606 48.9542 7.24565 48.9542 4.78022C48.9542 3.68057 48.3191 3.05794 47.2087 3.05794C33.0647 3.05794 18.9206 3.05794 4.7765 3.05794C3.67118 3.05794 3.051 3.68559 3.046 4.79529C3.046 7.12012 3.046 9.44998 3.046 11.7748C3.046 11.9054 3.046 12.0409 3.046 12.1966V12.2016Z" fill="#174873"/>
<path d="M21.6013 44.3472C20.306 44.3522 19.5958 43.2425 20.0559 42.1529C20.9061 40.1243 21.7814 38.1058 22.6466 36.0772C24.7873 31.0609 26.9229 26.0497 29.0635 21.0335C29.4436 20.1397 30.1338 19.723 30.919 19.9037C31.8543 20.1197 32.3494 21.1289 31.9493 22.0729C31.1991 23.8705 30.4239 25.6581 29.6587 27.4457C27.423 32.6778 25.1874 37.9099 22.9617 43.1471C22.6616 43.8501 22.2315 44.317 21.6013 44.3421V44.3472Z" fill="#174873"/>
<path d="M11.7135 32.1254C12.6938 32.9138 13.639 33.677 14.5893 34.4352C15.6346 35.2738 16.6799 36.1023 17.7202 36.9458C18.4704 37.5534 18.6055 38.5024 18.0503 39.1953C17.5002 39.8833 16.5549 39.9535 15.7897 39.341C13.3189 37.3626 10.8482 35.3792 8.38253 33.3908C7.47226 32.6577 7.47226 31.5681 8.38253 30.835C10.8482 28.8466 13.3189 26.8682 15.7897 24.8848C16.5549 24.2722 17.5002 24.3375 18.0453 25.0304C18.6105 25.7384 18.4604 26.6824 17.6752 27.3151C15.8297 28.8014 13.9791 30.2826 12.1286 31.7689C11.9986 31.8744 11.8785 31.9848 11.7085 32.1305L11.7135 32.1254Z" fill="#174873"/>
<path d="M40.2818 32.1011C39.3215 31.3278 38.3862 30.5746 37.4559 29.8214C36.4106 28.9829 35.3703 28.1494 34.325 27.3108C33.5348 26.6781 33.3848 25.7442 33.9499 25.0312C34.5051 24.3282 35.4504 24.278 36.2456 24.9157C38.6913 26.874 41.137 28.8373 43.5777 30.8006C44.538 31.5738 44.538 32.6584 43.5777 33.4267C41.137 35.39 38.6913 37.3483 36.2456 39.3066C35.4454 39.9493 34.5051 39.8991 33.9449 39.1961C33.3698 38.473 33.5348 37.5491 34.36 36.8863C36.2206 35.39 38.0861 33.8937 39.9467 32.3973C40.0467 32.317 40.1417 32.2216 40.2768 32.0961L40.2818 32.1011Z" fill="#174873"/>
<path d="M39.7066 6.12109C41.192 6.12109 42.6824 6.12109 44.1679 6.12109C45.1432 6.12109 45.8083 6.75879 45.7983 7.66764C45.7883 8.55138 45.1282 9.16899 44.1729 9.17401C41.197 9.17401 38.2262 9.17401 35.2503 9.17401C34.275 9.17401 33.6098 8.53631 33.6198 7.62245C33.6298 6.74373 34.295 6.12109 35.2453 6.12109C36.7307 6.12109 38.2212 6.12109 39.7066 6.12109Z" fill="#174873"/>
<path d="M9.23777 7.63252C9.24277 8.50119 8.56758 9.17906 7.70733 9.17404C6.86709 9.17404 6.2019 8.50119 6.1969 7.66264C6.1919 6.79397 6.86709 6.1161 7.72734 6.12112C8.56758 6.12112 9.23277 6.79397 9.23777 7.63252Z" fill="#174873"/>
<path d="M15.3345 7.62258C15.3445 8.49126 14.6743 9.17415 13.8091 9.17415C12.9689 9.17415 12.2987 8.51134 12.2887 7.66778C12.2787 6.7991 12.9488 6.11621 13.8091 6.11621C14.6493 6.11621 15.3195 6.77902 15.3295 7.61756L15.3345 7.62258Z" fill="#174873"/>
<path d="M18.3854 7.66287C18.3804 6.81428 19.0306 6.13641 19.8659 6.12135C20.7311 6.10628 21.4213 6.76909 21.4313 7.63274C21.4363 8.50142 20.7611 9.17928 19.9009 9.17928C19.0606 9.17928 18.3954 8.51146 18.3904 7.66789L18.3854 7.66287Z" fill="#174873"/>
</g>
<defs>
<clipPath id="clip0_486_3583">
<rect width="52" height="52" fill="white"/>
</clipPath>
</defs>
</svg>
