<svg width="117" height="150" viewBox="0 0 117 150" fill="none" xmlns="http://www.w3.org/2000/svg">
<g clip-path="url(#clip0_228_2277)">
<path fill-rule="evenodd" clip-rule="evenodd" d="M58.5195 13.5166C32.9758 13.4878 12.2613 34.1014 12.2325 59.6162C12.2036 84.9869 32.8893 105.745 58.26 105.802C83.6883 105.86 104.46 85.2319 104.504 59.8757C104.561 34.2744 84.0054 13.5455 58.5195 13.5166Z" fill="white"/>
<path fill-rule="evenodd" clip-rule="evenodd" d="M58.5195 13.5166C84.0054 13.5455 104.561 34.2744 104.504 59.8757C104.446 85.2319 83.6883 105.846 58.26 105.802C32.9038 105.745 12.2036 84.9869 12.2325 59.6162C12.2613 34.1159 32.9758 13.4878 58.5195 13.5166ZM91.8184 59.7315C91.8617 41.2658 76.8411 26.2164 58.3753 26.2164C40.0104 26.2164 25.0043 41.1793 24.9466 59.5441C24.8889 77.8946 39.8518 92.9873 58.1735 93.0737C76.6249 93.1602 91.7607 78.1541 91.804 59.7315H91.8184ZM22.1645 60.0919C22.1356 58.5207 20.8239 57.2521 19.267 57.2954C17.739 57.3386 16.4273 58.7225 16.4561 60.2217C16.4993 61.7352 17.8688 63.047 19.3968 63.0182C20.9536 62.9894 22.1933 61.6776 22.1645 60.0919ZM100.323 60.164C100.323 58.6072 99.0404 57.2954 97.498 57.2954C95.9844 57.2954 94.615 58.636 94.615 60.1496C94.615 61.6488 95.9556 63.0038 97.4836 63.0182C99.0404 63.0182 100.309 61.7497 100.323 60.164Z" fill="#3D62AE"/>
<path fill-rule="evenodd" clip-rule="evenodd" d="M91.8185 59.7457C91.7753 78.1682 76.6394 93.1743 58.188 93.0879C39.8664 93.0014 24.9034 77.9087 24.9611 59.5583C25.0188 41.1934 40.0249 26.2305 58.3898 26.2305C76.8556 26.2305 91.8762 41.2943 91.8329 59.7457H91.8185ZM46.8865 50.4911C45.2 55.2625 43.3116 60.2502 41.6827 65.3099C40.3997 69.2885 40.2411 73.3247 41.9277 77.3465C44.7531 84.0928 50.3029 88.1435 56.7032 87.6101C61.0854 87.2497 64.1847 84.7703 66.0875 80.8782C67.9615 77.0438 67.6587 73.3391 65.1361 69.8362C62.9594 66.8091 60.0043 64.8486 56.7465 63.1044C54.5842 61.9512 52.3643 60.4087 50.9228 58.4771C49.1785 56.1419 48.2271 53.2012 46.8865 50.4623V50.4911ZM66.5199 53.9508C66.2316 53.9075 65.9289 53.8787 65.6406 53.8354C65.1073 55.7094 64.5739 57.569 64.0405 59.4429C63.1756 58.2176 62.6855 56.8626 62.354 55.4788C61.9071 53.6192 61.8783 51.6155 61.1575 49.8713C59.4133 45.6621 59.4998 41.4673 60.5521 37.186C60.7971 36.2057 60.9845 35.2111 61.2007 34.2309C59.9755 34.7931 58.9808 35.5282 58.3466 36.5085C55.0311 41.7123 56.7753 47.3486 57.3231 53.2733C56.2708 52.7399 55.4779 52.5093 54.9158 52.0047C52.3787 49.756 53.0994 46.4837 52.5517 42.9809C51.903 44.1052 51.5138 44.653 51.2543 45.244C49.0776 50.0299 50.6921 55.6518 55.5356 59.4285C57.4672 60.9277 59.6872 62.0521 61.7918 63.335C67.9326 67.0685 70.3544 72.4886 69.2012 79.5665C69.0138 80.7341 68.8552 81.9161 68.6534 83.2711C72.8338 80.4314 75.3852 73.5842 73.641 69.3029C72.4734 66.4199 70.8156 63.681 69.0858 61.0718C67.6299 58.8807 66.1307 56.805 66.5199 53.9364V53.9508Z" fill="white"/>
<path fill-rule="evenodd" clip-rule="evenodd" d="M22.1645 60.1062C22.1933 61.6919 20.9536 63.0036 19.3968 63.0325C17.8688 63.0613 16.4994 61.7495 16.4561 60.2359C16.4129 58.7368 17.7391 57.3529 19.2671 57.3097C20.8095 57.2664 22.1213 58.535 22.1645 60.1062Z" fill="white"/>
<path fill-rule="evenodd" clip-rule="evenodd" d="M100.323 60.1782C100.323 61.7638 99.0402 63.0468 97.4834 63.0324C95.9554 63.0324 94.6147 61.6629 94.6147 60.1638C94.6147 58.6646 95.9842 57.3096 97.4978 57.3096C99.0402 57.3096 100.323 58.6213 100.323 60.1782Z" fill="white"/>
<path fill-rule="evenodd" clip-rule="evenodd" d="M46.9011 50.4766C48.2273 53.2299 49.1931 56.1561 50.9373 58.4914C52.3788 60.423 54.5844 61.951 56.761 63.1186C60.0189 64.8629 62.974 66.8233 65.1507 69.8505C67.6733 73.339 67.976 77.0581 66.102 80.8925C64.1993 84.7846 61.1 87.264 56.7178 87.6244C50.3175 88.1577 44.7676 84.1071 41.9423 77.3608C40.2557 73.3246 40.4287 69.3027 41.6972 65.3242C43.3261 60.25 45.2145 55.2768 46.9011 50.5054V50.4766ZM43.7009 74.6075C44.4505 79.4654 46.7714 82.6656 50.7067 84.8278C54.7718 87.0622 56.9917 86.9613 61.8928 83.1845C64.8047 80.9357 65.7561 78.687 65.1218 76.8563C55.8673 85.1017 53.46 84.8855 43.7009 74.6075Z" fill="#66A2D7"/>
<path fill-rule="evenodd" clip-rule="evenodd" d="M66.5341 53.9506C66.1448 56.8192 67.6296 58.8806 69.0999 61.0861C70.8298 63.6952 72.4731 66.4197 73.6551 69.3171C75.3994 73.5984 72.8479 80.4456 68.6675 83.2854C68.8693 81.9304 69.0135 80.7483 69.2153 79.5807C70.3685 72.5173 67.9467 67.0972 61.8059 63.3493C59.7013 62.0663 57.4669 60.9419 55.5497 59.4428C50.7062 55.666 49.0917 50.0441 51.2684 45.2583C51.5423 44.6673 51.9171 44.1195 52.5658 42.9951C53.1136 46.5124 52.4072 49.7702 54.9299 52.019C55.4921 52.5235 56.2993 52.7541 57.3372 53.2875C56.7894 47.3629 55.0308 41.7266 58.3607 36.5227C58.9805 35.5425 59.9896 34.8073 61.2149 34.2451C60.9986 35.2253 60.8112 36.22 60.5662 37.2002C59.5139 41.4959 59.4418 45.6763 61.1716 49.8855C61.8924 51.6154 61.9212 53.6335 62.3681 55.493C62.6996 56.8769 63.1897 58.2319 64.0546 59.4572C64.588 57.5832 65.1214 55.7237 65.6547 53.8497C65.943 53.8929 66.2457 53.9218 66.5341 53.965V53.9506Z" fill="#F7B948"/>
<path fill-rule="evenodd" clip-rule="evenodd" d="M43.7007 74.6084C53.4597 84.8864 55.8671 85.117 65.1216 76.8572C65.7558 78.6879 64.8044 80.9366 61.8926 83.1854C56.9914 86.9766 54.7859 87.0631 50.7064 84.8287C46.7567 82.6665 44.4503 79.4519 43.7007 74.6084Z" fill="white"/>
<path d="M58.4475 118.617C26.2297 118.617 0.0229492 92.1221 0.0229492 59.5439C0.0229492 26.9657 26.2297 0.470703 58.4475 0.470703C90.6653 0.470703 116.872 26.9657 116.872 59.5439C116.872 92.1221 90.6653 118.617 58.4475 118.617ZM58.4475 10.5613C31.7939 10.5613 10.1135 32.53 10.1135 59.5439C10.1135 86.5579 31.7939 108.527 58.4475 108.527C85.1011 108.527 106.781 86.5579 106.781 59.5439C106.781 32.53 85.1011 10.5613 58.4475 10.5613Z" fill="#3D62AE"/>
<path fill-rule="evenodd" clip-rule="evenodd" d="M59.8456 140.081C50.9658 140.081 42.1005 140.081 33.2208 140.081C32.5721 140.081 32.4424 139.966 32.4424 139.317C32.4424 138.798 32.4424 138.279 32.4424 137.775C32.4424 137.357 32.6154 137.198 33.0334 137.184C33.0911 137.184 33.1631 137.184 33.2208 137.184H86.4415C86.528 137.184 86.6145 137.184 86.7009 137.184C87.0469 137.198 87.2199 137.371 87.2343 137.703C87.2343 138.322 87.2343 138.957 87.2343 139.577C87.2343 139.894 87.0469 140.067 86.7154 140.081C86.6145 140.081 86.528 140.081 86.4271 140.081C77.5617 140.081 68.6964 140.081 59.8456 140.081Z" fill="#F6AF33"/>
<path fill-rule="evenodd" clip-rule="evenodd" d="M74.6929 130.856C74.6929 131.966 74.6929 133.076 74.6929 134.171C74.6929 134.748 74.6064 134.863 74.0731 135.022C72.3432 135.512 70.5846 135.829 68.7683 135.786C66.9808 135.742 65.2366 135.44 63.6653 134.546C61.6616 133.407 60.5084 131.663 60.1048 129.429C59.6435 126.935 60.0904 124.628 61.7049 122.639C62.7572 121.342 64.141 120.506 65.7267 120.015C68.2782 119.237 70.8441 119.266 73.41 120.015C73.4388 120.015 73.4676 120.03 73.4965 120.044C74.2028 120.275 74.2749 120.419 74.0442 121.125C73.9289 121.486 73.7992 121.861 73.6839 122.221C73.5541 122.625 73.3379 122.74 72.9487 122.596C71.6946 122.106 70.3828 121.976 69.0566 122.034C67.3268 122.106 65.7555 122.552 64.5158 123.864C63.7518 124.672 63.3338 125.652 63.2185 126.747C63.0887 127.944 63.1608 129.111 63.6653 130.221C64.3717 131.764 65.6114 132.658 67.2115 133.047C68.5809 133.378 69.9792 133.335 71.363 133.09C71.5792 133.047 71.6369 132.946 71.6369 132.744C71.6369 131.692 71.6369 130.639 71.6369 129.587C71.6369 129.371 71.5792 129.284 71.3486 129.299C70.5414 129.299 69.7341 129.299 68.9269 129.299C68.3647 129.299 68.2061 129.126 68.2061 128.564C68.2061 128.16 68.2061 127.771 68.2061 127.367C68.2061 126.992 68.3935 126.805 68.7683 126.805C70.5414 126.805 72.3144 126.805 74.0875 126.805C74.5199 126.805 74.6929 127.007 74.7073 127.482C74.7073 128.607 74.7073 129.746 74.7073 130.87L74.6929 130.856Z" fill="#F6AF33"/>
<path fill-rule="evenodd" clip-rule="evenodd" d="M44.4503 119.295C45.9639 119.324 47.1171 119.497 48.2271 119.944C48.8469 120.189 48.919 120.362 48.6883 120.981C48.5442 121.371 48.4 121.76 48.2415 122.149C48.0973 122.524 47.8667 122.639 47.5063 122.481C46.6126 122.077 45.6756 121.861 44.6954 121.846C43.816 121.846 42.9511 121.933 42.2736 122.61C41.697 123.201 41.6826 124.124 42.2304 124.744C42.5619 125.119 43.0088 125.349 43.4557 125.566C44.4071 126.012 45.4449 126.272 46.3819 126.733C47.2757 127.166 48.1117 127.67 48.7028 128.492C50.1587 130.495 49.5533 133.364 47.391 134.734C46.4396 135.339 45.3729 135.627 44.2629 135.743C42.4466 135.93 40.688 135.685 38.987 134.993C38.8716 134.95 38.7563 134.878 38.641 134.82C38.3959 134.676 38.3095 134.474 38.3959 134.186C38.5689 133.681 38.7275 133.162 38.9005 132.658C39.0302 132.297 39.2897 132.211 39.6789 132.413C40.3852 132.759 41.1204 133.047 41.8988 133.162C42.9511 133.321 44.0034 133.379 45.0413 132.96C46.627 132.326 46.7135 130.366 45.4594 129.544C44.7818 129.097 44.0611 128.794 43.2971 128.549C42.2304 128.189 41.2069 127.771 40.3132 127.079C38.0788 125.349 38.1509 122.178 40.4573 120.52C41.5673 119.727 43.1529 119.281 44.4071 119.309L44.4503 119.295Z" fill="#F6AF33"/>
<path fill-rule="evenodd" clip-rule="evenodd" d="M79.5652 126.2H82.8231C83.515 126.2 84.2213 126.2 84.9277 126.2C85.3745 126.2 85.5043 126.344 85.5043 126.776C85.5043 127.223 85.5043 127.684 85.5043 128.131C85.5043 128.434 85.3745 128.621 85.0574 128.665C84.9133 128.679 84.7835 128.708 84.6394 128.708C83.0537 128.708 81.4536 128.708 79.868 128.708C79.5797 128.708 79.5508 128.78 79.6373 129.039C80.1851 130.611 81.2518 131.721 82.7077 132.485C83.7024 133.018 84.7547 133.292 85.8935 133.263C86.2394 133.263 86.4268 133.436 86.4557 133.84C86.4845 134.315 86.4701 134.791 86.4557 135.252C86.4413 135.613 86.2394 135.771 85.8214 135.771C84.6105 135.771 83.4573 135.569 82.3329 135.123C80.4878 134.373 78.9886 133.205 77.8931 131.533C77.1291 130.351 76.7399 129.039 76.711 127.612C76.6822 125.81 77.23 124.21 78.3111 122.798C79.0895 121.789 80.0554 120.996 81.1653 120.376C82.578 119.583 84.0916 119.179 85.7205 119.165C86.2539 119.165 86.4557 119.338 86.4557 119.857C86.4557 120.232 86.4557 120.607 86.4557 120.981C86.4557 121.486 86.2683 121.644 85.7637 121.659C83.3997 121.731 81.5545 122.754 80.2283 124.686C79.9112 125.147 79.6661 125.652 79.5652 126.228V126.2Z" fill="#F6AF33"/>
<path fill-rule="evenodd" clip-rule="evenodd" d="M36.5221 127.829C36.5221 130.265 36.5221 132.686 36.5221 135.123C36.5221 135.728 36.4212 135.829 35.8013 135.829C35.2103 135.829 34.6193 135.829 34.0283 135.829C33.6247 135.829 33.4517 135.642 33.4229 135.238C33.4229 135.18 33.4229 135.108 33.4229 135.051V120.607C33.4229 119.972 33.567 119.828 34.1869 119.828C34.7058 119.828 35.2247 119.828 35.7293 119.828C36.378 119.828 36.5077 119.958 36.5077 120.592C36.5077 123.014 36.5077 125.436 36.5077 127.843L36.5221 127.829Z" fill="#F6AF33"/>
<path fill-rule="evenodd" clip-rule="evenodd" d="M54.959 128.001C55.9104 128.001 56.8762 128.001 57.8276 128.001C58.3465 128.001 58.4763 128.131 58.4763 128.65C58.4763 129.053 58.4763 129.442 58.4763 129.846C58.4763 130.134 58.3321 130.307 58.0438 130.351C57.9285 130.365 57.8132 130.379 57.6978 130.379C55.8671 130.379 54.0508 130.379 52.2201 130.379C51.5282 130.379 51.3984 130.235 51.3984 129.543C51.3984 129.226 51.3984 128.924 51.3984 128.606C51.3984 128.174 51.5858 128.001 52.0183 128.001C53.0129 128.001 53.9932 128.001 54.9878 128.001H54.959Z" fill="#F5AF32"/>
<path fill-rule="evenodd" clip-rule="evenodd" d="M35.0227 119.684C34.0857 119.684 33.2929 118.949 33.3073 118.069C33.3073 117.219 34.129 116.469 35.0227 116.484C35.9165 116.484 36.6949 117.248 36.6949 118.084C36.6949 118.949 35.9165 119.684 35.0227 119.684Z" fill="#F6AF33"/>
<path fill-rule="evenodd" clip-rule="evenodd" d="M59.8457 137.63C68.711 137.63 77.5619 137.63 86.4272 137.63C86.7011 137.63 86.8164 137.673 86.802 137.991C86.7732 138.466 86.7876 138.942 86.802 139.403C86.802 139.591 86.7588 139.663 86.5714 139.634C86.5137 139.634 86.4705 139.634 86.4128 139.634C68.711 139.634 51.0092 139.634 33.3074 139.634C33.0047 139.634 32.875 139.591 32.9038 139.245C32.9471 138.783 32.9182 138.322 32.9038 137.861C32.9038 137.673 32.9471 137.601 33.1345 137.63C33.2065 137.63 33.2786 137.63 33.3651 137.63H59.8457Z" fill="#0B070C"/>
<path fill-rule="evenodd" clip-rule="evenodd" d="M74.2173 130.884C74.2173 132.008 74.2173 133.118 74.2173 134.243C74.2173 134.459 74.1452 134.546 73.9578 134.589C71.637 135.266 69.2873 135.54 66.8944 135.165C64.5015 134.791 62.4834 133.753 61.3013 131.533C59.3409 127.857 60.249 122.264 65.7988 120.476C68.2927 119.669 70.8153 119.727 73.3235 120.462C73.7416 120.577 73.7416 120.592 73.6118 120.995C73.5109 121.298 73.3956 121.601 73.3091 121.918C73.2515 122.149 73.165 122.192 72.9199 122.12C70.8297 121.413 68.7107 121.327 66.5917 122.019C64.1555 122.826 62.714 124.873 62.6852 127.424C62.6708 128.794 62.9158 130.077 63.6942 131.216C64.6889 132.657 66.116 133.363 67.8026 133.609C69.0567 133.796 70.3108 133.753 71.5505 133.479C72.0838 133.363 72.0838 133.349 72.0838 132.816C72.0838 131.619 72.0838 130.423 72.0838 129.241C72.0838 128.736 72.1415 128.808 71.637 128.808C70.7288 128.808 69.8351 128.808 68.9269 128.808C68.6963 128.808 68.6386 128.751 68.6386 128.52C68.653 128.188 68.653 127.857 68.6386 127.525C68.6386 127.309 68.6819 127.237 68.9125 127.237C70.5847 127.237 72.2712 127.237 73.9434 127.237C74.1452 127.237 74.2173 127.295 74.2173 127.497C74.2173 128.621 74.2173 129.76 74.2173 130.884Z" fill="#0B070C"/>
<path fill-rule="evenodd" clip-rule="evenodd" d="M43.1527 135.324C41.7688 135.324 40.4138 135.094 39.1308 134.531C38.9002 134.43 38.7993 134.33 38.9146 134.056C39.0732 133.71 39.1885 133.335 39.2894 132.96C39.3471 132.744 39.4336 132.744 39.621 132.83C40.9904 133.508 42.4319 133.796 43.9599 133.666C44.8537 133.58 45.6897 133.321 46.2952 132.585C47.1168 131.591 46.9727 130.12 45.9636 129.299C45.2717 128.722 44.45 128.405 43.6139 128.131C42.6337 127.8 41.6823 127.425 40.8174 126.834C39.2317 125.709 38.7128 123.907 39.5345 122.279C40.1111 121.125 41.1201 120.448 42.3166 120.087C44.2338 119.525 46.1366 119.655 48.0106 120.318C48.2845 120.419 48.3854 120.534 48.2412 120.823C48.0826 121.14 47.9673 121.471 47.8664 121.817C47.7943 122.019 47.7223 122.062 47.506 121.976C46.4681 121.515 45.3726 121.313 44.2482 121.37C43.4266 121.414 42.6337 121.601 42.0139 122.206C41.149 123.057 41.1634 124.354 42.0571 125.19C42.6049 125.695 43.2824 125.983 43.9599 126.243C44.8681 126.589 45.805 126.877 46.67 127.353C47.2898 127.699 47.8808 128.102 48.3133 128.679C49.6683 130.438 49.1349 133.075 47.1601 134.315C45.9348 135.094 44.5653 135.31 43.1527 135.295V135.324Z" fill="#0B070C"/>
<path fill-rule="evenodd" clip-rule="evenodd" d="M82.0015 128.246C81.1077 128.246 80.214 128.246 79.3203 128.246C79.032 128.246 79.0031 128.347 79.0608 128.578C79.4356 130.351 80.4879 131.619 81.9726 132.585C83.0682 133.291 84.2791 133.666 85.5908 133.695C85.908 133.695 86.0521 133.782 86.0089 134.128C85.9801 134.43 85.9801 134.733 86.0089 135.036C86.0233 135.266 85.9368 135.324 85.7206 135.31C83.5871 135.266 81.6843 134.574 80.0266 133.219C78.513 131.965 77.504 130.408 77.2445 128.434C76.9562 126.315 77.504 124.426 78.8878 122.812C80.5744 120.837 82.7511 119.77 85.3458 119.626C86.0089 119.583 86.0089 119.583 86.0089 120.275C86.0089 120.548 86.0954 120.894 85.9656 121.096C85.8359 121.312 85.4755 121.168 85.2161 121.197C82.852 121.485 80.9924 122.581 79.7239 124.599C79.3779 125.147 79.1905 125.752 79.0464 126.372C79.0031 126.588 79.0464 126.675 79.2914 126.675C81.0933 126.675 82.8808 126.675 84.6827 126.675C84.9277 126.675 85.0287 126.733 84.9998 126.992C84.971 127.324 84.9854 127.655 84.9998 127.987C84.9998 128.217 84.9277 128.275 84.7115 128.275C83.8034 128.275 82.9096 128.275 82.0015 128.275V128.246Z" fill="#0B070C"/>
<path fill-rule="evenodd" clip-rule="evenodd" d="M36.0751 127.814C36.0751 130.206 36.0751 132.614 36.0751 135.007C36.0751 135.338 35.9887 135.396 35.6859 135.381C35.2102 135.353 34.7201 135.353 34.23 135.381C33.9417 135.396 33.8696 135.309 33.8696 135.036C33.8696 130.668 33.8696 126.314 33.8696 121.947C33.8696 121.471 33.8696 120.995 33.8696 120.534C33.8696 120.303 33.9561 120.274 34.1579 120.274C34.6913 120.274 35.2391 120.289 35.7724 120.274C36.0175 120.274 36.0751 120.332 36.0751 120.577C36.0751 122.624 36.0751 124.685 36.0751 126.732V127.828V127.814Z" fill="#0B070C"/>
<path fill-rule="evenodd" clip-rule="evenodd" d="M54.9011 129.904C53.9641 129.904 53.0271 129.904 52.0901 129.904C51.8739 129.904 51.8018 129.847 51.8162 129.63C51.8306 129.313 51.8306 129.01 51.8162 128.693C51.8162 128.491 51.8883 128.448 52.0757 128.448C53.9641 128.448 55.8669 128.448 57.7553 128.448C57.9571 128.448 58.0147 128.491 58.0147 128.693C58.0003 129.01 58.0003 129.313 58.0147 129.63C58.0147 129.847 57.9571 129.904 57.7408 129.904C56.7894 129.904 55.8525 129.904 54.9011 129.904Z" fill="#0B070C"/>
<path fill-rule="evenodd" clip-rule="evenodd" d="M35.0229 116.959C35.7004 116.959 36.2194 117.464 36.205 118.098C36.205 118.718 35.6572 119.222 34.9941 119.222C34.3166 119.222 33.7544 118.703 33.7544 118.083C33.7544 117.464 34.331 116.973 35.0229 116.973V116.959Z" fill="#0B070C"/>
</g>
<defs>
<clipPath id="clip0_228_2277">
<rect width="116.849" height="149.298" fill="white" transform="translate(0.0229492 0.470703)"/>
</clipPath>
</defs>
</svg>
