<svg width="13" height="11" viewBox="0 0 13 11" fill="none" xmlns="http://www.w3.org/2000/svg">
<path d="M12.9997 2.93807V9.19987C12.9411 9.35829 12.9031 9.52769 12.8207 9.67276C12.5266 10.1893 12.0598 10.4138 11.466 10.4135C8.17816 10.4124 4.89034 10.4129 1.60251 10.4124C1.49684 10.4124 1.39087 10.4073 1.28581 10.3987C0.588993 10.3409 0.00479383 9.73387 0.00328427 9.04886C-0.0009425 7.06147 -0.00124441 5.07379 0.00328427 3.0864C0.00479383 2.39398 0.613449 1.76741 1.3166 1.74249C1.89144 1.72232 2.46719 1.73359 3.04263 1.73092C3.09215 1.73092 3.14196 1.73092 3.20204 1.73092C3.20204 1.57873 3.20204 1.44196 3.20204 1.3055C3.20355 0.553142 3.73945 0.00875403 4.50389 0.00519399C5.83683 -0.00133273 7.16977 -0.00222267 8.50272 0.00549073C9.26142 0.00994077 9.79641 0.554626 9.79822 1.29897C9.79852 1.4387 9.79822 1.57843 9.79822 1.72944C9.86072 1.72944 9.90661 1.72944 9.9525 1.72944C10.4688 1.72944 10.985 1.72914 11.5013 1.72944C12.0876 1.73003 12.5396 1.96914 12.8255 2.47645C12.9055 2.61826 12.9429 2.78321 13 2.93747L12.9997 2.93807ZM6.4953 9.18385C8.23432 9.19245 9.66719 7.79128 9.67414 6.07534C9.68108 4.36594 8.25605 2.96358 6.50556 2.95705C4.76323 2.95053 3.32552 4.34665 3.32915 6.06526C3.33277 7.81412 4.76444 9.18147 6.4953 9.18414V9.18385Z" fill="#144973"/>
<path d="M6.49235 8.12892C5.33452 8.12358 4.38651 7.1873 4.3998 6.06262C4.41338 4.91511 5.35414 4.00581 6.52133 4.01175C7.66558 4.01738 8.61178 4.95783 8.60121 6.07864C8.59034 7.21815 7.64807 8.13426 6.49265 8.12922L6.49235 8.12892Z" fill="#144973"/>
</svg>
