<svg width="146" height="145" viewBox="0 0 146 145" fill="none" xmlns="http://www.w3.org/2000/svg">
<g clip-path="url(#clip0_436_3750)">
<path d="M128.226 124.797C124.432 128.694 121.037 130.985 118.437 132.715C93.0882 149.583 64.111 144.721 55.152 143.059C40.698 140.378 28.4965 138.487 18.0135 129.048C-5.80791 107.6 -4.64913 62.8583 13.553 35.1432C15.711 31.8568 33.8856 5.00853 62.9257 1.22558C63.6361 1.13288 64.1661 1.08058 64.6301 1.03138C69.1223 0.557544 96.961 -1.94423 119.661 17.0083C122.91 19.7214 128.139 24.6146 132.988 32.0785C150.718 59.368 150.774 101.634 128.226 124.797V124.797Z" fill="url(#paint0_linear_436_3750)"/>
<path d="M46.1146 67.6012C49.6408 60.7743 56.2001 55.9618 63.819 55.1022L64.3401 22.2317C64.3448 21.9511 64.1157 21.7196 63.834 21.7227C42.3452 21.9547 23.3844 35.2833 14.5351 55.0256C14.4062 55.313 14.5486 55.6496 14.8438 55.7614L46.1146 67.6017V67.6012Z" fill="#91B3FA"/>
<path d="M88.5762 83.349C88.1351 83.3371 87.7402 83.6172 87.6087 84.0367C87.2398 85.2122 86.5653 87.467 86.4546 87.7523C85.9173 89.1397 85.288 90.4923 84.5512 91.7859C83.1846 94.1841 81.4365 96.3824 79.2795 98.1229C73.8135 102.534 65.9562 103.354 59.4021 101.171C59.215 101.108 59.03 101.042 58.8456 100.973C58.5042 100.845 58.1212 100.987 57.9456 101.305L41.4198 131.34C49.4444 135.35 56.9962 136.399 66.4701 135.794C93.9965 134.036 115.611 111.762 118.01 84.1403L88.5757 83.3495L88.5762 83.349Z" fill="#7D97F4"/>
<path d="M88.5762 83.3492C86.7846 94.3096 78.6565 102.874 67.6117 103.248C64.5044 103.353 60.7973 102.634 58.0713 101.533C57.7871 101.418 57.4613 101.534 57.3075 101.798L40.3213 130.92C48.3459 134.93 57.4078 136.894 66.8817 136.288C94.4081 134.53 116.023 111.58 118.422 83.9587L88.5762 83.3486V83.3492Z" fill="#91B3FA"/>
<path d="M36.7805 126.323L53.2273 96.9238C53.3437 96.7156 53.2944 96.4557 53.1115 96.3024C48.0482 92.0529 43.9997 86.3554 43.9997 78.9666C43.9997 77.1443 43.1891 74.4918 43.5606 72.7824L12.6301 61.7598C10.9133 67.3257 9.98626 73.2495 9.98626 79.3876C9.98626 99.2304 20.5659 116.683 35.0917 126.715C35.6597 127.107 36.4438 126.924 36.78 126.323H36.7805Z" fill="#91B3FA"/>
<path d="M35.1359 125.487L52.1798 96.4519C52.3964 96.0832 52.3216 95.613 52 95.3308C47.1108 91.045 44.0002 84.6034 44.0002 77.3347C44.0002 75.5124 44.1977 73.7361 44.5692 72.0262L13.0937 60.3003C12.8432 60.2071 12.5636 60.3438 12.4872 60.5991C10.8624 66.0278 9.98678 71.7906 9.98678 77.7558C9.98678 98.0811 20.064 115.584 35.1364 125.487L35.1359 125.487Z" fill="#7D97F4"/>
<path d="M69.8488 55.258C79.6048 56.884 87.1701 65.0708 88.4521 75.3016C88.5206 75.849 88.9738 76.2669 89.5272 76.2855L136.713 77.8614C136.86 77.7195 136.937 77.6449 137.084 77.5035C136.939 38.164 108.635 4.46082 70.7202 0L69.8488 55.258Z" fill="url(#paint1_linear_436_3750)"/>
<path d="M105.564 33.0657C110.024 28.6214 110.024 21.4157 105.564 16.9714C101.105 12.527 93.8745 12.527 89.415 16.9714C84.9554 21.4157 84.9554 28.6214 89.415 33.0657C93.8745 37.5101 101.105 37.5101 105.564 33.0657Z" fill="#91B3FA"/>
<path d="M104.725 32.3701C108.781 28.328 108.781 21.7745 104.725 17.7324C100.669 13.6903 94.0932 13.6903 90.0373 17.7324C85.9814 21.7745 85.9814 28.328 90.0373 32.3701C94.0932 36.4122 100.669 36.4122 104.725 32.3701Z" fill="white"/>
<path d="M91.72 35.2141C91.8837 34.4569 92.0131 33.9619 92.0131 33.9619L89.126 29.0894C89.126 29.0894 88.1917 30.0319 87.6316 34.139C87.5541 34.7076 87.9979 35.2146 88.5737 35.2146H91.72V35.2141Z" fill="#7D97F4"/>
<path d="M107.334 34.1223C106.533 30.5615 105.106 28.9038 105.106 28.9038L103.299 34.869C103.299 34.869 103.353 34.9866 103.437 35.2139H106.458C107.034 35.2139 107.461 34.6821 107.334 34.1223Z" fill="#7D97F4"/>
<path d="M91.6982 35.214C94.6658 36.3021 98.6986 36.1498 103.404 35.214C103.515 34.7599 103.665 34.271 103.864 33.7086L105.106 28.9024C103.366 27.3473 100.92 26.8341 99.9785 26.688C97.7914 26.1474 95.2353 26.6264 95.2353 26.6264C91.7694 26.8672 89.1271 29.0836 89.1271 29.0836L91.2747 33.9541C91.4441 34.3637 91.5859 34.7847 91.6987 35.2135L91.6982 35.214Z" fill="#7D97F4"/>
<path d="M95.6786 24.2783L95.6048 26.706C95.5975 26.9463 95.7466 27.1623 95.9742 27.2425C96.5973 27.4616 97.8865 27.7946 99.1081 27.3585C99.3544 27.2705 99.503 27.0193 99.4651 26.7609L99.0988 24.2788H95.6786V24.2783Z" fill="url(#paint2_linear_436_3750)"/>
<path d="M94.7765 20.2021C94.7765 20.2021 94.9194 23.4817 95.492 24.7649C96.0641 26.0482 97.4952 26.0482 97.6381 26.0482C97.781 26.0482 99.0686 25.7628 99.7842 24.6225C100.5 23.4817 100.785 19.7743 100.785 19.7743C100.785 19.7743 99.4978 18.3487 97.781 18.2057C96.0641 18.0633 94.7765 19.489 94.7765 20.2021Z" fill="url(#paint3_linear_436_3750)"/>
<path d="M100.161 21.3862C100.161 21.3862 100.818 20.4049 101.146 20.7317C101.475 21.059 100.818 23.1853 100.161 23.1853C99.5051 23.1853 100.161 21.3857 100.161 21.3857V21.3862Z" fill="url(#paint4_linear_436_3750)"/>
<path d="M95.2369 21.5499C95.2369 21.5499 94.4159 20.4049 94.088 20.7322C93.7601 21.0595 94.5806 23.1858 95.2369 23.1858V21.5499Z" fill="url(#paint5_linear_436_3750)"/>
<path d="M101.191 19.399C101.195 19.1773 101.182 18.9479 101.172 18.6864C101.16 18.4254 101.185 18.1639 101.213 17.9039C101.293 17.1541 100.508 16.5606 99.7977 16.7486C99.7431 16.7631 99.6839 16.7817 99.6314 16.761C99.5654 16.7351 99.5363 16.6606 99.5098 16.5948C99.3456 16.1867 98.9086 15.659 98.4955 15.4866C98.14 15.3379 97.7472 15.2763 97.3637 15.3198C96.591 15.4079 95.8812 15.9216 95.5585 16.6269C95.5403 16.6668 95.5211 16.7092 95.4842 16.7325C95.4504 16.7538 95.4089 16.7548 95.3689 16.7553C94.9817 16.7605 94.5354 16.6761 94.208 16.9133C93.9305 17.1147 93.7279 17.428 93.7081 17.7745C93.6868 18.153 93.85 18.515 94.0183 18.8552C94.1202 19.0613 94.2272 19.2964 94.1456 19.5114C94.1207 19.5771 94.0791 19.6356 94.0474 19.6983C93.6946 20.3959 94.6211 21.082 94.7921 21.7076C94.922 22.1825 95.0514 22.6573 95.1813 23.1317C95.2389 22.8287 95.2556 22.5175 95.2296 22.2099C95.1943 21.7863 95.0794 21.3684 95.0945 20.9437C95.1054 20.6382 95.1761 20.3368 95.3174 20.0644C95.453 19.8029 95.7004 19.6874 95.8854 19.4585C96.0563 19.6175 96.2429 19.7843 96.4746 19.8179C96.6201 19.8392 96.7682 19.8045 96.9085 19.7604C97.121 19.6942 97.423 19.4549 97.6292 19.4389C97.835 19.4228 97.9067 19.6382 98.0429 19.7522C98.4212 20.0686 99.0655 20.1566 99.5191 19.9676C99.4142 20.0116 100.028 21.153 100.048 21.2565C100.165 21.864 100.236 22.4802 100.259 23.0986C100.308 23.1343 100.363 23.0613 100.379 23.0033C100.491 22.5916 100.525 22.1633 100.597 21.7428C100.679 21.2679 100.872 20.82 101.027 20.3658C101.148 20.0116 101.187 19.7128 101.192 19.3995L101.191 19.399Z" fill="url(#paint6_linear_436_3750)"/>
<path d="M127.528 26.6433C131.614 22.5709 131.614 15.9682 127.528 11.8958C123.441 7.82334 116.816 7.82333 112.73 11.8958C108.643 15.9682 108.643 22.5709 112.73 26.6433C116.816 30.7157 123.441 30.7157 127.528 26.6433Z" fill="#91B3FA"/>
<path d="M120.029 28.785C125.286 28.785 129.547 24.5386 129.547 19.3005C129.547 14.0623 125.286 9.81592 120.029 9.81592C114.773 9.81592 110.512 14.0623 110.512 19.3005C110.512 24.5386 114.773 28.785 120.029 28.785Z" fill="white"/>
<path d="M117.989 17.24C117.387 17.24 116.762 17.3166 116.526 16.5932C116.081 15.2312 116.828 13.1945 118.051 12.4529C118.46 12.2049 118.937 12.0961 119.406 12.0024C119.959 11.8921 120.436 11.8646 120.934 12.1313C121.393 12.3773 121.839 11.9817 122.315 12.2981C122.72 12.5668 123.03 12.9899 123.247 13.4172C123.529 13.9754 123.676 14.5912 123.799 15.2043C123.827 15.3431 123.853 15.487 123.822 15.6253C123.796 15.7413 123.731 15.8438 123.667 15.9438C123.173 16.7061 122.515 17.2405 121.565 17.2405H117.989V17.24Z" fill="url(#paint7_linear_436_3750)"/>
<path d="M117.868 14.8423C117.868 14.8423 117.977 15.0697 117.267 15.4249C116.872 15.6233 116.102 15.9159 116 16.7714C115.948 17.2131 115.775 18.3032 115.353 18.3705C114.303 18.5383 112.886 19.1913 112.754 20.4611C112.602 21.9183 113.023 22.6837 113.767 22.8738C114.314 23.0136 114.452 23.1602 114.342 23.736C114.236 24.2886 114.656 26.2709 115.573 26.7758C117.629 27.9074 119.419 22.7511 119.419 22.7511L119.84 16.0935L117.868 14.8413V14.8423Z" fill="url(#paint8_linear_436_3750)"/>
<path d="M122.572 14.2603C122.572 14.2603 122.461 14.5011 123.184 14.8775C123.586 15.0873 124.37 15.3975 124.473 16.3042C124.527 16.7719 124.652 17.4295 125.081 17.501C126.15 17.6791 127.389 18.7169 127.652 20.7324C127.854 22.2705 127.414 23.9204 126.656 24.1223C126.1 24.2704 126.141 23.9768 126.254 24.5868C126.362 25.172 126.109 24.9462 125.175 25.4812C123.082 26.68 120.992 22.6407 120.992 22.6407L120.564 15.5875L122.573 14.2608L122.572 14.2603Z" fill="url(#paint9_linear_436_3750)"/>
<path d="M119.774 21.652C119.774 21.652 121.363 21.2439 121.7 21.7483C121.869 22.5867 121.956 23.4199 121.956 23.4199L120.125 23.7622L118.914 23.4847L118.626 23.3179L118.507 22.1299C118.507 22.1299 119.126 21.7721 119.774 21.6514L119.774 21.652Z" fill="url(#paint10_linear_436_3750)"/>
<path d="M117.869 17.4214C117.869 17.4214 117.613 16.6576 117.23 16.9124C116.847 17.1672 117.805 18.7917 117.805 18.7917L117.869 17.4214Z" fill="url(#paint11_linear_436_3750)"/>
<path d="M121.701 17.4213C121.701 17.4213 121.701 16.2758 122.339 16.9122C122.978 17.5487 121.701 18.4394 121.701 18.4394V17.4213Z" fill="url(#paint12_linear_436_3750)"/>
<path d="M127.715 27.824C127.181 25.2518 126.413 23.2415 126.17 23.1255L124.721 26.7003C124.721 26.7003 124.428 27.7655 124.452 29.0881H126.681C127.35 29.0881 127.851 28.4765 127.715 27.824Z" fill="url(#paint13_linear_436_3750)"/>
<path d="M116.554 29.0882C116.621 27.9391 116.592 27.2157 116.592 27.2157L114.548 23.9097C114.548 23.9097 114.292 24.9231 114.037 27.5963C114.025 27.7206 114.014 27.8469 114.003 27.9748C113.953 28.5745 114.428 29.0882 115.032 29.0882H116.554H116.554Z" fill="url(#paint14_linear_436_3750)"/>
<path d="M119.383 29.0951H121.608L122.211 22.7746C122.211 22.7746 121.701 22.6436 121.445 21.7524C121.189 20.8617 121.062 19.0776 121.062 19.0776L118.763 19.5857C118.763 19.5857 119.019 22.0113 118.507 23.1568L119.383 29.0951Z" fill="url(#paint15_linear_436_3750)"/>
<path d="M122.809 29.0951L123.129 25.105C120.799 26.4944 118.401 26.4271 115.971 25.6902L116.661 29.0946H122.809V29.0951Z" fill="url(#paint16_linear_436_3750)"/>
<path d="M119.929 29.0881C119.239 25.7681 118.508 22.1343 118.508 22.1343L118.125 22.896L114.549 23.9173C114.724 24.7313 115.259 26.9726 115.796 29.0881H119.93H119.929Z" fill="url(#paint17_linear_436_3750)"/>
<path d="M125.039 29.0879C125.229 28.0708 125.397 27.2769 125.397 27.2769L126.17 23.1248C125.927 22.8824 122.109 22.3604 122.109 22.3604L121.701 21.7524C121.701 21.7524 121.191 25.4458 120.755 29.0874H125.039L125.039 29.0879Z" fill="url(#paint18_linear_436_3750)"/>
<path d="M117.614 15.6391C117.614 15.6391 117.486 18.6939 117.869 19.203C118.252 19.712 118.763 20.8575 119.657 20.9849C120.551 21.1123 121.956 18.5665 121.956 18.4391C121.956 18.3117 121.828 15.0026 121.828 15.0026C121.828 15.0026 119.147 12.839 117.614 15.6391Z" fill="url(#paint19_linear_436_3750)"/>
<path d="M117.102 15.1303C117.102 15.1303 116.592 16.6575 118.124 16.1484L119.656 15.6394C119.656 15.6394 121.189 14.7487 121.444 15.1303C121.7 15.512 121.955 16.4524 121.955 16.4524C121.955 16.4524 122.466 15.1303 121.955 14.3665C121.444 13.6027 118.251 12.9662 117.102 15.1303H117.102Z" fill="url(#paint20_linear_436_3750)"/>
<path d="M102.221 62.1497C108.751 62.1497 114.045 56.8741 114.045 50.3663C114.045 43.8586 108.751 38.583 102.221 38.583C95.6912 38.583 90.3975 43.8586 90.3975 50.3663C90.3975 56.8741 95.6912 62.1497 102.221 62.1497Z" fill="#91B3FA"/>
<path d="M102.109 61.1187C108.048 61.1187 112.863 56.3205 112.863 50.4016C112.863 44.4828 108.048 39.6846 102.109 39.6846C96.1699 39.6846 91.3552 44.4828 91.3552 50.4016C91.3552 56.3205 96.1699 61.1187 102.109 61.1187Z" fill="white"/>
<path d="M104.886 48.2535C106.256 46.8884 106.256 44.6751 104.886 43.31C103.516 41.9449 101.295 41.9449 99.9256 43.31C98.5558 44.6751 98.5558 46.8884 99.9256 48.2535C101.295 49.6185 103.516 49.6185 104.886 48.2535Z" fill="url(#paint21_linear_436_3750)"/>
<path d="M99.0369 44.8052C97.4941 50.1215 96.4455 54.9547 96.6155 56.3135L101.113 55.8402L101.635 46.0066L99.0369 44.8052Z" fill="url(#paint22_linear_436_3750)"/>
<path d="M104.016 44.2561L103.399 56.2766L108.487 58.9772C108.381 54.869 106.275 44.3135 105.413 44.0303L104.016 44.2555L104.016 44.2561Z" fill="url(#paint23_linear_436_3750)"/>
<path d="M104.017 50.7661L104.165 54.0395L100.979 54.518L100.778 51.081L104.017 50.7661Z" fill="url(#paint24_linear_436_3750)"/>
<path d="M105.528 48.7945C105.528 48.7945 104.765 52.1932 102.699 52.6018C100.633 53.0104 100.021 49.808 99.9115 49.5775C99.9115 49.5775 99.4495 49.7945 99.3456 49.3367C99.2417 48.8789 98.6971 47.7277 99.7249 47.751C99.7249 47.751 99.5228 46.6076 99.8782 46.0462C100.234 45.4849 100.95 44.1348 102.427 44.5103C103.904 44.8857 106.264 46.1239 105.528 48.794V48.7945Z" fill="url(#paint25_linear_436_3750)"/>
<path d="M104.115 52.9453L106.136 54.0131L103.49 56.9069L98.5978 53.8402C99.343 53.5631 100.076 53.1903 100.745 53.0794L104.115 52.9453Z" fill="url(#paint26_linear_436_3750)"/>
<path d="M99.8403 44.7112C99.1497 45.6733 99.6927 46.5273 99.5072 47.2186C100.176 46.9763 102.435 46.6143 103.114 46.6806C103.255 46.2202 102.979 45.4543 102.838 44.8505C103.058 45.4237 103.562 46.3015 103.509 46.7546C104.422 46.7966 104.235 46.809 105.261 47.2186L104.462 44.4429C102.684 43.6149 101.147 43.72 99.8408 44.7117L99.8403 44.7112Z" fill="url(#paint27_linear_436_3750)"/>
<path d="M103.241 41.4484C103.241 42.1159 102.61 42.8648 102.156 42.8648C101.782 42.8648 101.072 42.1159 101.072 41.4484C101.072 40.7809 101.557 40.2397 102.156 40.2397C102.755 40.2397 103.241 40.7809 103.241 41.4484Z" fill="url(#paint28_linear_436_3750)"/>
<path d="M107.586 61.2578L108.698 55.0912C107.185 54.0653 105.782 53.577 104.116 52.9473C103.599 54.0177 101.239 53.9115 100.745 53.0804C99.1757 53.4776 97.6817 54.2119 96.2372 55.1632L97.7592 61.2584H107.586V61.2578Z" fill="url(#paint29_linear_436_3750)"/>
<path d="M110.637 60.1673C109.736 56.328 108.698 55.0913 108.698 55.0913L107.034 60.1389C107.034 60.1389 107.235 60.5418 107.498 61.258H109.768C110.343 61.258 110.768 60.7246 110.638 60.1673H110.637Z" fill="url(#paint30_linear_436_3750)"/>
<path d="M97.8693 61.2581C98.0533 60.5989 98.2991 59.9071 98.6181 59.1981L96.2366 55.165C96.2366 55.165 95.0618 57.1987 94.6731 60.2613C94.606 60.7905 95.0223 61.2581 95.5575 61.2581H97.8693Z" fill="url(#paint31_linear_436_3750)"/>
<path d="M104.357 44.5039C105.538 47.4774 106.127 55.8647 105.406 60.3001C106.534 56.4281 107.94 51.5167 105.792 44.9125L104.357 44.5039Z" fill="url(#paint32_linear_436_3750)"/>
<path d="M126.98 52.1869C132.854 52.1869 137.616 47.4409 137.616 41.5864C137.616 35.7319 132.854 30.9858 126.98 30.9858C121.105 30.9858 116.343 35.7319 116.343 41.5864C116.343 47.4409 121.105 52.1869 126.98 52.1869Z" fill="#91B3FA"/>
<path d="M133.719 48.4353C137.497 44.6703 137.497 38.566 133.719 34.801C129.941 31.036 123.816 31.036 120.038 34.801C116.26 38.566 116.26 44.6703 120.038 48.4353C123.816 52.2004 129.941 52.2004 133.719 48.4353Z" fill="white"/>
<path d="M133.375 52.3224C133.914 52.3224 134.35 51.8848 134.346 51.3473C134.336 49.8077 134.305 48.4555 134.233 47.7088C134.049 45.8031 133.034 45.1987 133.034 45.1987L132.517 52.3224H133.375Z" fill="url(#paint33_linear_436_3750)"/>
<path d="M130.878 52.3223C130.803 48.3317 130.729 45.0314 130.729 45.0314C128.916 43.9195 122.221 44.0588 122.221 44.0588C122.221 44.0588 121.756 47.9086 121.226 52.3223H130.878Z" fill="url(#paint34_linear_436_3750)"/>
<path d="M119.822 52.322H126.052C125.852 50.3925 124.243 43.2549 124.243 43.2549L119.245 44.7789C119.245 44.7789 119.64 49.2289 119.64 50.6193C119.64 50.9378 119.73 51.5556 119.821 52.322H119.822Z" fill="url(#paint35_linear_436_3750)"/>
<path d="M120.009 52.3221C120.032 49.97 119.989 45.6314 119.246 44.7847C119.246 44.7847 118.283 45.2787 117.307 48.4754C117.025 49.3983 116.769 50.274 116.53 51.1082C116.357 51.7167 116.816 52.3216 117.45 52.3216H120.009L120.009 52.3221Z" fill="url(#paint36_linear_436_3750)"/>
<path d="M132.847 52.3221C133.026 48.939 133.183 45.3347 133.034 45.1861C132.755 44.908 129.404 43.8174 129.404 43.8174C129.404 43.8174 127.22 50.4718 126.713 52.3221H132.847Z" fill="url(#paint37_linear_436_3750)"/>
<path d="M124.453 44.4358L125.29 41.5166H128.358L128.776 44.8526C128.776 44.8526 126.126 45.5476 124.453 44.4358Z" fill="url(#paint38_linear_436_3750)"/>
<path d="M124.453 37.7247C124.453 37.7247 124.741 40.517 125.227 41.6076C125.714 42.6982 126.929 42.6982 127.051 42.6982C127.172 42.6982 128.267 42.4558 128.874 41.4864C129.482 40.517 129.725 37.3668 129.725 37.3668C129.725 37.3668 128.631 36.1551 127.172 36.0339C125.714 35.9127 124.453 37.1188 124.453 37.7242V37.7247Z" fill="url(#paint39_linear_436_3750)"/>
<path d="M129.195 38.7368C129.195 38.7368 129.753 37.903 130.032 38.1806C130.311 38.4587 129.753 40.2655 129.195 40.2655C128.637 40.2655 129.195 38.7363 129.195 38.7363V38.7368Z" fill="url(#paint40_linear_436_3750)"/>
<path d="M125.01 38.8753C125.01 38.8753 124.313 37.9023 124.034 38.1804C123.755 38.4584 124.452 40.2652 125.01 40.2652V38.8753Z" fill="url(#paint41_linear_436_3750)"/>
<path d="M130.626 37.0821C130.773 36.7 130.812 36.2738 130.765 35.8647C130.692 35.2474 130.359 34.1029 129.898 33.6436C130.029 33.7741 128.779 34.3012 128.586 34.2826C128.962 33.9776 129.43 33.6285 129.447 33.0962C129.012 33.3883 128.481 33.4939 127.964 33.5845C126.676 33.8108 125.291 33.7637 124.299 34.7352C123.885 35.1412 123.605 35.7683 123.711 36.3535C123.788 36.7807 124.427 37.2318 124.034 37.6249C123.756 37.9029 124.598 38.4089 124.734 39.1981C124.744 39.2551 124.754 39.3136 124.771 39.3674C124.759 38.964 124.603 38.5306 124.613 38.1381C124.633 37.3333 125.85 37.2763 126.446 37.223C127.238 37.152 128.102 37.1588 128.788 36.6974C129.067 36.5099 129.244 38.0262 129.256 38.1008C129.325 38.5321 129.407 38.9951 129.334 39.4311H129.526C129.582 38.9195 129.531 38.4301 129.908 38.0578C130.091 37.8781 130.274 37.6968 130.417 37.4845C130.502 37.3582 130.572 37.223 130.626 37.0816L130.626 37.0821Z" fill="url(#paint42_linear_436_3750)"/>
<path d="M125.141 42.0362C125.034 42.6752 125.001 42.9838 124.798 43.5991C124.614 44.1542 124.749 44.9279 124.76 45.5115C124.776 46.3266 125.411 47.2178 125.272 48.019C124.916 47.0226 123.83 46.2469 123.274 45.3168C122.731 44.4079 122.343 43.6741 122.964 42.8161C123.349 42.2842 125.149 41.9859 125.141 42.0356L125.141 42.0362Z" fill="url(#paint43_linear_436_3750)"/>
<path d="M128.425 44.708C128.502 46.405 128.168 46.7494 127.897 48.464C128.261 47.3056 129.08 46.6966 129.725 45.664C130.36 44.6459 130.566 43.3766 129.526 42.6982C129.455 42.6516 128.448 42.1871 128.453 42.2772C128.465 42.5247 128.391 43.9727 128.425 44.708H128.425Z" fill="url(#paint44_linear_436_3750)"/>
<path d="M30.931 56.3816C34.9594 56.3816 38.2251 53.1271 38.2251 49.1124C38.2251 45.0978 34.9594 41.8433 30.931 41.8433C26.9026 41.8433 23.637 45.0978 23.637 49.1124C23.637 53.1271 26.9026 56.3816 30.931 56.3816Z" fill="url(#paint45_linear_436_3750)"/>
<path d="M35.9172 54.0814C38.6709 51.337 38.6709 46.8876 35.9172 44.1432C33.1634 41.3989 28.6987 41.3989 25.945 44.1432C23.1913 46.8876 23.1913 51.337 25.945 54.0814C28.6987 56.8257 33.1634 56.8257 35.9172 54.0814Z" fill="url(#paint46_linear_436_3750)"/>
<path opacity="0.7" d="M24.431 48.8344C24.431 48.8344 24.4284 48.8344 24.4273 48.8344C24.3904 48.8323 24.3624 48.8012 24.3639 48.7645C24.3785 48.4884 24.4107 48.2119 24.4595 47.9411C24.4663 47.9048 24.5006 47.881 24.537 47.8872C24.5733 47.8939 24.5972 47.9281 24.591 47.9644C24.5432 48.2295 24.5115 48.5009 24.4975 48.7707C24.4954 48.8064 24.4663 48.8339 24.431 48.8339V48.8344Z" fill="white"/>
<path opacity="0.7" d="M25.1169 46.2597C25.107 46.2597 25.0966 46.2576 25.0867 46.2525C25.054 46.2359 25.0405 46.196 25.0571 46.1629C26.1831 43.9397 28.4342 42.5586 30.931 42.5586C31.3296 42.5586 31.7286 42.5943 32.1173 42.6648C32.1537 42.6715 32.1776 42.7062 32.1709 42.7419C32.1641 42.7782 32.1298 42.8025 32.0934 42.7953C31.7125 42.7259 31.3213 42.6912 30.931 42.6912C28.4846 42.6912 26.2793 44.0443 25.1761 46.2224C25.1642 46.2457 25.1408 46.2592 25.1163 46.2592L25.1169 46.2597Z" fill="white"/>
<path opacity="0.78" d="M35.3048 53.4707C37.6355 51.148 37.6355 47.3822 35.3048 45.0596C32.9742 42.7369 29.1955 42.7369 26.8649 45.0596C24.5342 47.3822 24.5342 51.148 26.8649 53.4707C29.1955 55.7934 32.9742 55.7934 35.3048 53.4707Z" fill="white"/>
<path d="M32.9118 47.0177C32.9118 48.025 32.0924 49.112 31.0822 49.112C30.0721 49.112 29.2526 48.025 29.2526 47.0177C29.2526 46.0105 30.0721 45.2964 31.0822 45.2964C32.0924 45.2964 32.9118 46.011 32.9118 47.0177Z" fill="url(#paint47_linear_436_3750)"/>
<path d="M28.8114 52.9895H33.2782C33.7485 52.9895 34.1647 52.6866 34.3081 52.2402L34.5487 51.4913C34.7248 50.9429 34.4385 50.3495 33.896 50.1522C32.0784 49.4898 30.1983 49.5747 28.2731 50.2133C27.7337 50.3919 27.4344 50.9673 27.583 51.5141L27.768 52.1941C27.8959 52.6638 28.3235 52.9895 28.8114 52.9895Z" fill="url(#paint48_linear_436_3750)"/>
<path d="M44.0912 45.0876C48.1196 45.0876 51.3852 41.8331 51.3852 37.8185C51.3852 33.8038 48.1196 30.5493 44.0912 30.5493C40.0628 30.5493 36.7971 33.8038 36.7971 37.8185C36.7971 41.8331 40.0628 45.0876 44.0912 45.0876Z" fill="url(#paint49_linear_436_3750)"/>
<path d="M49.0773 42.7874C51.831 40.0431 51.831 35.5936 49.0773 32.8493C46.3235 30.1049 41.8588 30.105 39.1051 32.8493C36.3514 35.5936 36.3514 40.0431 39.1051 42.7874C41.8588 45.5318 46.3235 45.5318 49.0773 42.7874Z" fill="url(#paint50_linear_436_3750)"/>
<path opacity="0.7" d="M37.5911 37.5404C37.5911 37.5404 37.5885 37.5404 37.5875 37.5404C37.5506 37.5384 37.5225 37.5073 37.5241 37.4705C37.5386 37.1945 37.5709 36.918 37.6197 36.6471C37.6265 36.6109 37.6608 36.5871 37.6971 36.5933C37.7335 36.6 37.7574 36.6342 37.7512 36.6704C37.7034 36.9356 37.6717 37.2069 37.6576 37.4767C37.6556 37.5125 37.6265 37.5399 37.5911 37.5399V37.5404Z" fill="white"/>
<path opacity="0.7" d="M38.2765 34.9658C38.2666 34.9658 38.2563 34.9637 38.2464 34.9585C38.2136 34.942 38.2001 34.9021 38.2168 34.8689C39.3428 32.6458 41.5938 31.2646 44.0907 31.2646C44.4892 31.2646 44.8883 31.3004 45.277 31.3708C45.3134 31.3775 45.3373 31.4122 45.3305 31.448C45.3237 31.4842 45.2894 31.5086 45.2531 31.5013C44.8722 31.4319 44.4809 31.3972 44.0907 31.3972C41.6442 31.3972 39.4389 32.7504 38.3358 34.9285C38.3238 34.9518 38.3004 34.9653 38.276 34.9653L38.2765 34.9658Z" fill="white"/>
<path opacity="0.78" d="M48.4646 42.1773C50.7952 39.8546 50.7952 36.0888 48.4646 33.7661C46.1339 31.4434 42.3552 31.4434 40.0246 33.7661C37.694 36.0888 37.694 39.8546 40.0246 42.1773C42.3552 44.4999 46.1339 44.4999 48.4646 42.1773Z" fill="white"/>
<path d="M46.072 35.7238C46.072 36.731 45.2526 37.818 44.2424 37.818C43.2322 37.818 42.4128 36.731 42.4128 35.7238C42.4128 34.7166 43.2322 34.0024 44.2424 34.0024C45.2526 34.0024 46.072 34.7171 46.072 35.7238Z" fill="url(#paint51_linear_436_3750)"/>
<path d="M41.9716 41.696H46.4384C46.9086 41.696 47.3248 41.3931 47.4683 40.9467L47.7089 40.1979C47.885 39.6495 47.5987 39.056 47.0562 38.8587C45.2385 38.1964 43.3585 38.2813 41.4333 38.9198C40.8939 39.0985 40.5946 39.6738 40.7432 40.2207L40.9282 40.9006C41.056 41.3703 41.4837 41.696 41.9716 41.696Z" fill="url(#paint52_linear_436_3750)"/>
<path d="M46.7813 61.8977C50.8097 61.8977 54.0754 58.6432 54.0754 54.6285C54.0754 50.6139 50.8097 47.3594 46.7813 47.3594C42.7529 47.3594 39.4873 50.6139 39.4873 54.6285C39.4873 58.6432 42.7529 61.8977 46.7813 61.8977Z" fill="url(#paint53_linear_436_3750)"/>
<path d="M46.7813 61.6557C50.6757 61.6557 53.8327 58.5095 53.8327 54.6284C53.8327 50.7473 50.6757 47.6011 46.7813 47.6011C42.8869 47.6011 39.7299 50.7473 39.7299 54.6284C39.7299 58.5095 42.8869 61.6557 46.7813 61.6557Z" fill="url(#paint54_linear_436_3750)"/>
<path opacity="0.7" d="M40.2812 54.351C40.2812 54.351 40.2786 54.351 40.2776 54.351C40.2407 54.3489 40.2127 54.3178 40.2142 54.2811C40.2288 54.005 40.261 53.7285 40.3098 53.4577C40.3166 53.4214 40.3509 53.3976 40.3873 53.4038C40.4236 53.4105 40.4475 53.4447 40.4413 53.481C40.3935 53.7461 40.3618 54.0175 40.3478 54.2873C40.3457 54.323 40.3166 54.3505 40.2812 54.3505V54.351Z" fill="white"/>
<path opacity="0.7" d="M40.9666 51.7763C40.9568 51.7763 40.9464 51.7742 40.9365 51.7691C40.9038 51.7525 40.8903 51.7126 40.9069 51.6795C42.0329 49.4563 44.284 48.0752 46.7808 48.0752C47.1793 48.0752 47.5784 48.1109 47.9671 48.1814C48.0035 48.1881 48.0274 48.2228 48.0206 48.2585C48.0139 48.2948 47.9796 48.3191 47.9432 48.3119C47.5623 48.2425 47.171 48.2078 46.7808 48.2078C44.3344 48.2078 42.1291 49.5609 41.0259 51.739C41.0139 51.7623 40.9905 51.7758 40.9661 51.7758L40.9666 51.7763Z" fill="white"/>
<path opacity="0.78" d="M46.9351 60.7296C50.2311 60.7296 52.9031 58.0668 52.9031 54.7821C52.9031 51.4973 50.2311 48.8345 46.9351 48.8345C43.6391 48.8345 40.9672 51.4973 40.9672 54.7821C40.9672 58.0668 43.6391 60.7296 46.9351 60.7296Z" fill="white"/>
<path d="M48.7621 52.5343C48.7621 53.5416 47.9427 54.6286 46.9325 54.6286C45.9224 54.6286 45.1029 53.5416 45.1029 52.5343C45.1029 51.5271 45.9224 50.813 46.9325 50.813C47.9427 50.813 48.7621 51.5276 48.7621 52.5343Z" fill="url(#paint55_linear_436_3750)"/>
<path d="M44.6617 58.5061H49.1285C49.5988 58.5061 50.015 58.2032 50.1584 57.7568L50.399 57.0079C50.5751 56.4595 50.2888 55.8661 49.7463 55.6688C47.9287 55.0064 46.0486 55.0914 44.1234 55.7299C43.584 55.9085 43.2847 56.4839 43.4333 57.0307L43.6183 57.7107C43.7461 58.1804 44.1738 58.5061 44.6617 58.5061Z" fill="url(#paint56_linear_436_3750)"/>
<path d="M58.8118 54.3398C58.8118 54.3398 56.7967 55.3165 56.4262 56.4387C56.1289 57.3393 53.9008 57.4553 53.6804 59.2258C53.5667 60.1398 52.888 60.8721 51.9745 61.0119C49.699 61.3594 46.192 62.537 45.6308 66.4748C45.2027 69.4804 46.7397 70.6197 48.3532 71.0143C49.5385 71.3038 50.3257 72.4529 50.0862 73.645C49.8565 74.7885 50.1989 76.1106 52.187 77.1561C56.6418 79.4989 61.0909 71.6062 61.0909 71.6062L62.0028 57.825L58.8118 54.3404V54.3398Z" fill="url(#paint57_linear_436_3750)"/>
<path d="M83.0531 51.0728C83.0531 51.0728 74.1581 65.0943 63.581 67.8026C63.581 67.8026 65.6418 73.6529 67.2329 74.3225C67.2329 74.3225 80.246 63.5018 83.5899 53.0655L83.0531 51.0733V51.0728Z" fill="url(#paint58_linear_436_3750)"/>
<path d="M40.5 140.754L40.2116 143.116C40.1571 143.564 39.8032 143.918 39.3532 143.97C38.5935 144.056 37.3744 144.145 36.1814 144.019C35.6576 143.964 35.3177 143.436 35.4773 142.936C35.7683 142.024 36.2998 140.655 37.0668 139.85H39.6956C40.1815 139.85 40.5582 140.274 40.4995 140.755L40.5 140.754Z" fill="url(#paint59_linear_436_3750)"/>
<path d="M61.0914 113.086L61.5352 115.687C61.5352 115.687 60.049 130.687 59.7851 136.688C59.7435 137.629 59.9877 138.558 60.4835 139.36L63.0676 143.542L56.5005 139.68L56.3695 138.881L57.4447 137.409L56.0365 120.604C55.9538 119.617 56.158 118.627 56.6252 117.752L57.9835 115.209L61.0914 113.086Z" fill="url(#paint60_linear_436_3750)"/>
<path d="M63.4994 144.148H61.4037C61.0114 144.148 60.6414 143.968 60.4024 143.658C59.7492 142.812 58.3956 141.162 57.7481 141.119C56.8767 141.061 56.9884 144.148 56.9884 144.148H56.5L55.8811 140.312C55.7252 139.347 56.2069 138.391 57.0768 137.938C57.0768 137.938 57.2758 139.407 58.3561 140.055C59.4359 140.705 62.7506 143.03 62.7506 143.03C62.7506 143.03 63.1564 142.973 63.6023 143.053C64.2632 143.172 64.1713 144.148 63.4994 144.148Z" fill="url(#paint61_linear_436_3750)"/>
<path d="M52.0971 114.322C52.0971 114.322 43.3918 130.779 42.008 134.536C40.6242 138.293 40.1394 141.427 40.1207 141.725C40.0916 142.189 39.5127 142.634 37.9175 142.634C37.0938 142.634 36.6906 142.305 36.4931 141.986C36.3248 141.714 36.3159 141.375 36.4578 141.088C36.9613 140.073 38.5592 136.827 39.1511 135.355C39.8578 133.597 41.3777 125.632 42.2112 122.863C43.0446 120.093 43.9873 117.089 47.6174 114.322C47.6174 114.322 50.1095 111.89 52.0966 114.322L52.0971 114.322Z" fill="url(#paint62_linear_436_3750)"/>
<path d="M57.5964 87.3564C59.8422 77.8734 54.1533 72.51 54.1533 72.51C57.7429 69.076 64.283 67.5137 64.283 67.5137C64.283 67.5137 70.5238 72.0605 69.7833 75.6197C69.3494 77.7056 65.3966 88.114 65.3966 88.114C65.3966 88.114 61.7415 89.838 57.5964 87.3569V87.3564Z" fill="url(#paint63_linear_436_3750)"/>
<path d="M52.6173 92.0513C53.5313 89.3077 57.5959 87.3564 57.5959 87.3564C61.741 89.8375 65.396 88.1136 65.396 88.1136C65.396 88.1136 66.2155 91.2357 65.6501 94.1378C65.0843 97.0393 61.5352 115.688 61.5352 115.688C55.9424 116.817 47.341 114.552 47.341 114.552C50.903 108.249 51.7033 94.7949 52.6173 92.0513Z" fill="url(#paint64_linear_436_3750)"/>
<path d="M60.2028 61.247L58.3774 69.4198C58.2028 70.1396 58.8612 70.0221 59.5912 69.8848C60.7874 69.6601 62.3287 69.1971 62.8441 68.2696C62.8966 68.1754 62.9226 68.0687 62.9377 67.9615L63.7218 62.2941C63.7841 61.8446 63.5399 61.408 63.1237 61.2242L61.61 60.5551C61.027 60.2978 60.3525 60.6292 60.2028 61.2465V61.247Z" fill="url(#paint65_linear_436_3750)"/>
<path d="M63.7 53.7971C63.7 53.7971 65.6439 55.1083 66.479 58.4474C67.314 61.7866 65.9567 62.9844 64.5657 62.9108C63.1746 62.8373 61.1569 62.4085 59.4094 60.0129C57.6613 57.6173 61.1533 52.1943 63.7005 53.7965L63.7 53.7971Z" fill="url(#paint66_linear_436_3750)"/>
<path d="M61.1714 58.6662C61.1714 58.6662 60.459 53.8812 64.4456 54.6135L65.2516 55.4498C65.2516 55.4498 67.2028 53.2598 65.0437 51.6047C62.8847 49.9497 59.8885 50.3733 58.2303 53.3867C56.5727 56.4001 55.971 58.5176 57.3605 60.3902C58.75 62.2628 59.7949 60.6569 59.7949 60.6569C59.7949 60.6569 59.1579 59.036 59.6863 58.3405C60.2153 57.645 60.8971 58.745 60.8971 58.745L61.1714 58.6662Z" fill="url(#paint67_linear_436_3750)"/>
<path d="M60.6269 59.076C60.6269 59.076 60.2751 56.6142 59.0139 57.3179C57.7523 58.0217 59.4686 59.6177 60.1566 60.1604L60.6269 59.076Z" fill="url(#paint68_linear_436_3750)"/>
<path d="M82.9918 53.9592C83.0188 54.2487 81.9395 54.4486 81.596 53.2156C81.6906 52.6801 81.8579 50.3358 82.27 49.9717C84.4634 48.0318 88.3751 45.8501 88.3751 45.8501C88.8127 46.5155 88.239 46.9542 88.239 46.9542L86.2862 48.2675C86.4899 48.9396 86.7872 49.5341 86.8209 50.3016C86.8464 50.8826 86.6307 51.4518 86.2436 51.893C85.8549 52.3352 85.3317 52.9069 84.8604 53.3404C83.9676 54.1612 82.9918 53.9592 82.9918 53.9592Z" fill="url(#paint69_linear_436_3750)"/>
<path d="M84.0523 53.0036L83.7541 52.8814C83.7936 52.7851 84.731 50.5158 85.1841 50.0441C85.3561 49.8649 85.4392 49.7116 85.432 49.5878C85.4283 49.521 85.3951 49.4547 85.3317 49.3874L83.752 50.2295L83.0541 51.3185L82.7824 51.145L83.5254 49.985L85.3758 48.999L85.4595 49.0669C85.6466 49.2196 85.7432 49.3833 85.7547 49.5681C85.7682 49.7882 85.6585 50.0166 85.4184 50.2667C85.077 50.622 84.3174 52.363 84.0534 53.0041L84.0523 53.0036Z" fill="url(#paint70_linear_436_3750)"/>
<path d="M59.6307 92.3596C59.6432 92.3602 59.6557 92.3607 59.6682 92.3607L75.9788 92.3431C76.3821 92.3431 76.7084 92.0199 76.7079 91.6227C76.7079 91.225 76.379 90.8967 75.9768 90.9034L59.6661 90.921C59.2628 90.921 58.9365 91.2442 58.937 91.6414C58.937 92.0267 59.2447 92.341 59.6302 92.3596H59.6307Z" fill="url(#paint71_linear_436_3750)"/>
<path d="M90.6413 77.7569H77.0576C76.0557 77.7569 75.1433 78.327 74.7161 79.2208L68.4364 92.3506H85.3171C85.963 92.3506 86.5429 91.9617 86.7804 91.3693L91.6499 79.2193C91.931 78.5171 91.4067 77.7563 90.6413 77.7563V77.7569Z" fill="url(#paint72_linear_436_3750)"/>
<path d="M83.1032 85.1414C83.401 84.2406 83.188 83.3612 82.6273 83.177C82.0667 82.9929 81.3707 83.5738 81.0728 84.4745C80.775 85.3753 80.988 86.2547 81.5487 86.4389C82.1093 86.623 82.8053 86.0421 83.1032 85.1414Z" fill="#91B3FA"/>
<path d="M54.1299 72.5298C51.9043 74.768 49.0807 84.688 50.4816 86.3452C51.7152 88.2742 55.9149 90.8997 59.9145 90.9034H65.8149C63.3352 88.2778 61.6282 87.6119 59.5949 89.4482C57.9814 88.761 55.8894 86.0997 54.4931 84.9118C53.9449 84.4452 53.8155 83.6492 54.1824 83.0309C55.2918 81.1594 56.6829 79.2355 57.1251 77.3717C57.2202 75.1879 55.5984 72.6883 54.1299 72.5308V72.5298Z" fill="url(#paint73_linear_436_3750)"/>
<path d="M83.4755 144.82C83.3171 144.811 83.1705 144.739 83.0666 144.619C81.5534 142.877 70.4754 129.187 82.7735 114.993C94.4481 101.518 99.9743 98.5167 100.18 91.0984C100.204 90.232 101.354 89.9384 101.797 90.6846C105.101 96.262 110.588 109.443 96.4731 119.422C80.9023 130.43 83.0479 141.057 84.0669 144.047C84.2015 144.442 83.8933 144.846 83.4755 144.821V144.82Z" fill="#7D97F4"/>
<path d="M85.5187 144.943C85.1441 144.92 84.8281 144.657 84.7434 144.293C84.1646 141.811 82.5007 132.5 89.2486 129.493C96.6768 126.182 103.376 132.806 108.57 126.839C108.843 126.525 109.358 126.742 109.319 127.156C109.038 130.091 107.319 136.969 97.5217 139.061C87.035 141.3 85.9344 142.601 86.2618 144.087C86.3626 144.545 85.989 144.971 85.5187 144.942V144.943Z" fill="#7D97F4"/>
<path d="M100.377 98.6319C100.289 99.1875 100.155 99.7132 99.9884 100.237C99.8252 100.76 99.6303 101.273 99.4137 101.777C98.986 102.788 98.4539 103.753 97.8615 104.679C96.6674 106.528 95.1792 108.185 93.5091 109.62C92.6761 110.334 91.7782 111 90.8865 111.608C90.0187 112.2 89.1899 112.853 88.4011 113.551C86.823 114.947 85.4169 116.536 84.1984 118.253C81.7722 121.689 80.1723 125.737 79.862 129.943C79.6999 132.041 79.8568 134.165 80.3011 136.236C80.7423 138.309 81.4963 140.315 82.4353 142.233C82.4857 142.335 82.4441 142.459 82.3412 142.509C82.2425 142.558 82.1235 142.52 82.0694 142.426C80.9985 140.541 80.1515 138.515 79.6074 136.399C79.3315 135.342 79.1335 134.263 79.0182 133.172C78.9096 132.082 78.8727 130.982 78.9288 129.885C79.0301 127.689 79.4853 125.511 80.2206 123.438C80.9585 121.364 81.9925 119.401 83.236 117.588C84.479 115.772 85.9557 114.121 87.5952 112.652C88.4167 111.919 89.2824 111.232 90.1923 110.606C91.084 110.003 91.9279 109.395 92.738 108.715C94.3566 107.369 95.8308 105.845 97.0696 104.139C97.6978 103.293 98.257 102.395 98.7594 101.466C99.2505 100.535 99.7015 99.5583 100.004 98.5604L100.008 98.5475C100.038 98.448 100.144 98.3916 100.244 98.4216C100.335 98.4491 100.39 98.5397 100.375 98.6314L100.377 98.6319Z" fill="#91B3FA"/>
<path d="M84.9503 143.274C84.9757 143.18 84.9591 143.096 84.9503 143.01L84.9227 142.752L84.8775 142.235C84.8521 141.89 84.8333 141.545 84.8224 141.2C84.8011 140.508 84.8084 139.816 84.8489 139.124C84.9342 137.743 85.1425 136.357 85.5993 135.032C86.0508 133.716 86.7877 132.435 87.9314 131.549C88.5014 131.114 89.1567 130.784 89.8467 130.591C90.5358 130.391 91.2539 130.315 91.9622 130.325C94.7443 130.436 97.4874 130.761 100.231 130.986C101.596 131.085 102.978 131.162 104.29 130.882C104.616 130.809 104.935 130.713 105.243 130.589C105.547 130.457 105.844 130.307 106.117 130.118C106.669 129.747 107.142 129.26 107.557 128.729L107.558 128.727C107.616 128.654 107.722 128.641 107.795 128.698C107.868 128.754 107.881 128.858 107.826 128.931C107.407 129.492 106.92 130.018 106.334 130.431C106.044 130.64 105.727 130.81 105.401 130.959C105.072 131.101 104.731 131.211 104.384 131.296C102.988 131.608 101.576 131.537 100.196 131.453C98.8114 131.362 97.4401 131.21 96.0662 131.093C94.697 130.975 93.3122 130.865 91.9528 130.809C91.283 130.794 90.6116 130.86 89.973 131.039C89.3328 131.213 88.7311 131.509 88.2021 131.906C87.1358 132.7 86.4089 133.891 85.9495 135.157C85.4839 136.429 85.2532 137.786 85.1441 139.146C85.0911 139.827 85.0719 140.511 85.0802 141.195C85.0848 141.537 85.0968 141.879 85.1155 142.221L85.1508 142.732L85.1732 142.988C85.182 143.072 85.1846 143.159 85.2324 143.236C85.2776 143.31 85.2553 143.406 85.1815 143.451C85.1077 143.496 85.0116 143.474 84.9659 143.4C84.9425 143.362 84.9373 143.318 84.9477 143.278L84.9487 143.275L84.9503 143.274Z" fill="#91B3FA"/>
</g>
<defs>
<linearGradient id="paint0_linear_436_3750" x1="159.084" y1="168.541" x2="56.6809" y2="59.1573" gradientUnits="userSpaceOnUse">
<stop stop-color="#DAE3FE"/>
<stop offset="1" stop-color="#E9EFFD"/>
</linearGradient>
<linearGradient id="paint1_linear_436_3750" x1="27.12" y1="109.471" x2="337.047" y2="-177.91" gradientUnits="userSpaceOnUse">
<stop stop-color="#4F52FF"/>
<stop offset="1" stop-color="#4042E2"/>
</linearGradient>
<linearGradient id="paint2_linear_436_3750" x1="97.198" y1="21.5461" x2="97.8317" y2="31.3805" gradientUnits="userSpaceOnUse">
<stop stop-color="#C4421B"/>
<stop offset="1" stop-color="#5C0E16"/>
</linearGradient>
<linearGradient id="paint3_linear_436_3750" x1="97.2489" y1="26.6836" x2="98.0643" y2="16.3358" gradientUnits="userSpaceOnUse">
<stop stop-color="#C4421B"/>
<stop offset="1" stop-color="#5C0E16"/>
</linearGradient>
<linearGradient id="paint4_linear_436_3750" x1="100.153" y1="26.9128" x2="100.969" y2="16.5651" gradientUnits="userSpaceOnUse">
<stop stop-color="#C4421B"/>
<stop offset="1" stop-color="#5C0E16"/>
</linearGradient>
<linearGradient id="paint5_linear_436_3750" x1="94.2782" y1="26.4498" x2="95.0931" y2="16.1021" gradientUnits="userSpaceOnUse">
<stop stop-color="#C4421B"/>
<stop offset="1" stop-color="#5C0E16"/>
</linearGradient>
<linearGradient id="paint6_linear_436_3750" x1="97.3128" y1="16.7486" x2="98.6367" y2="27.024" gradientUnits="userSpaceOnUse">
<stop stop-color="#090056"/>
<stop offset="1" stop-color="#020039"/>
</linearGradient>
<linearGradient id="paint7_linear_436_3750" x1="120.388" y1="11.1893" x2="119.355" y2="27.9326" gradientUnits="userSpaceOnUse">
<stop stop-color="#09005D"/>
<stop offset="1" stop-color="#1A0F91"/>
</linearGradient>
<linearGradient id="paint8_linear_436_3750" x1="116.749" y1="10.9646" x2="115.716" y2="27.7079" gradientUnits="userSpaceOnUse">
<stop stop-color="#09005D"/>
<stop offset="1" stop-color="#1A0F91"/>
</linearGradient>
<linearGradient id="paint9_linear_436_3750" x1="124.578" y1="11.4478" x2="123.546" y2="28.191" gradientUnits="userSpaceOnUse">
<stop stop-color="#09005D"/>
<stop offset="1" stop-color="#1A0F91"/>
</linearGradient>
<linearGradient id="paint10_linear_436_3750" x1="117.35" y1="4.09247" x2="118.396" y2="10.9748" gradientUnits="userSpaceOnUse">
<stop stop-color="#FF928E"/>
<stop offset="1" stop-color="#FE7062"/>
</linearGradient>
<linearGradient id="paint11_linear_436_3750" x1="117.691" y1="17.2371" x2="120.409" y2="8.52607" gradientUnits="userSpaceOnUse">
<stop stop-color="#FEBBBA"/>
<stop offset="1" stop-color="#FF928E"/>
</linearGradient>
<linearGradient id="paint12_linear_436_3750" x1="121.731" y1="18.4979" x2="124.45" y2="9.78691" gradientUnits="userSpaceOnUse">
<stop stop-color="#FEBBBA"/>
<stop offset="1" stop-color="#FF928E"/>
</linearGradient>
<linearGradient id="paint13_linear_436_3750" x1="122.241" y1="3.34904" x2="123.287" y2="10.2314" gradientUnits="userSpaceOnUse">
<stop stop-color="#FF928E"/>
<stop offset="1" stop-color="#FE7062"/>
</linearGradient>
<linearGradient id="paint14_linear_436_3750" x1="111.815" y1="4.93435" x2="112.861" y2="11.8167" gradientUnits="userSpaceOnUse">
<stop stop-color="#FF928E"/>
<stop offset="1" stop-color="#FE7062"/>
</linearGradient>
<linearGradient id="paint15_linear_436_3750" x1="119.897" y1="26.265" x2="121.15" y2="17.8511" gradientUnits="userSpaceOnUse">
<stop stop-color="#FEBBBA"/>
<stop offset="1" stop-color="#FF928E"/>
</linearGradient>
<linearGradient id="paint16_linear_436_3750" x1="119.286" y1="28.0837" x2="119.89" y2="24.0252" gradientUnits="userSpaceOnUse">
<stop stop-color="#09005D"/>
<stop offset="1" stop-color="#1A0F91"/>
</linearGradient>
<linearGradient id="paint17_linear_436_3750" x1="113.889" y1="4.6188" x2="114.935" y2="11.5011" gradientUnits="userSpaceOnUse">
<stop stop-color="#FF928E"/>
<stop offset="1" stop-color="#FE7062"/>
</linearGradient>
<linearGradient id="paint18_linear_436_3750" x1="120.031" y1="3.68492" x2="121.077" y2="10.5673" gradientUnits="userSpaceOnUse">
<stop stop-color="#FF928E"/>
<stop offset="1" stop-color="#FE7062"/>
</linearGradient>
<linearGradient id="paint19_linear_436_3750" x1="119.542" y1="17.8146" x2="122.261" y2="9.10306" gradientUnits="userSpaceOnUse">
<stop stop-color="#FEBBBA"/>
<stop offset="1" stop-color="#FF928E"/>
</linearGradient>
<linearGradient id="paint20_linear_436_3750" x1="116.747" y1="10.7684" x2="127.766" y2="28.3929" gradientUnits="userSpaceOnUse">
<stop stop-color="#09005D"/>
<stop offset="1" stop-color="#1A0F91"/>
</linearGradient>
<linearGradient id="paint21_linear_436_3750" x1="103.494" y1="41.6443" x2="98.8769" y2="59.3234" gradientUnits="userSpaceOnUse">
<stop stop-color="#09005D"/>
<stop offset="1" stop-color="#1A0F91"/>
</linearGradient>
<linearGradient id="paint22_linear_436_3750" x1="102.41" y1="41.3609" x2="97.7935" y2="59.0395" gradientUnits="userSpaceOnUse">
<stop stop-color="#09005D"/>
<stop offset="1" stop-color="#1A0F91"/>
</linearGradient>
<linearGradient id="paint23_linear_436_3750" x1="108.528" y1="42.9583" x2="103.912" y2="60.6369" gradientUnits="userSpaceOnUse">
<stop stop-color="#09005D"/>
<stop offset="1" stop-color="#1A0F91"/>
</linearGradient>
<linearGradient id="paint24_linear_436_3750" x1="100.063" y1="46.534" x2="104.432" y2="57.6031" gradientUnits="userSpaceOnUse">
<stop stop-color="#FEBBBA"/>
<stop offset="1" stop-color="#FF928E"/>
</linearGradient>
<linearGradient id="paint25_linear_436_3750" x1="101.389" y1="53.7038" x2="104.404" y2="36.8771" gradientUnits="userSpaceOnUse">
<stop stop-color="#FEBBBA"/>
<stop offset="1" stop-color="#FF928E"/>
</linearGradient>
<linearGradient id="paint26_linear_436_3750" x1="101.285" y1="46.1702" x2="102.917" y2="57.953" gradientUnits="userSpaceOnUse">
<stop stop-color="#FEBBBA"/>
<stop offset="1" stop-color="#FF928E"/>
</linearGradient>
<linearGradient id="paint27_linear_436_3750" x1="98.3062" y1="39.4778" x2="111.427" y2="62.3509" gradientUnits="userSpaceOnUse">
<stop stop-color="#09005D"/>
<stop offset="1" stop-color="#1A0F91"/>
</linearGradient>
<linearGradient id="paint28_linear_436_3750" x1="101.026" y1="39.4728" x2="106.492" y2="49.0087" gradientUnits="userSpaceOnUse">
<stop stop-color="#09005D"/>
<stop offset="1" stop-color="#1A0F91"/>
</linearGradient>
<linearGradient id="paint29_linear_436_3750" x1="102.468" y1="34.2599" x2="102.468" y2="45.573" gradientUnits="userSpaceOnUse">
<stop stop-color="#FF928E"/>
<stop offset="1" stop-color="#FE7062"/>
</linearGradient>
<linearGradient id="paint30_linear_436_3750" x1="108.848" y1="34.26" x2="108.848" y2="45.5731" gradientUnits="userSpaceOnUse">
<stop stop-color="#FF928E"/>
<stop offset="1" stop-color="#FE7062"/>
</linearGradient>
<linearGradient id="paint31_linear_436_3750" x1="96.6425" y1="34.2602" x2="96.6425" y2="45.5733" gradientUnits="userSpaceOnUse">
<stop stop-color="#FF928E"/>
<stop offset="1" stop-color="#FE7062"/>
</linearGradient>
<linearGradient id="paint32_linear_436_3750" x1="97.1065" y1="40.5837" x2="112.256" y2="62.1779" gradientUnits="userSpaceOnUse">
<stop stop-color="#09005D"/>
<stop offset="1" stop-color="#1A0F91"/>
</linearGradient>
<linearGradient id="paint33_linear_436_3750" x1="132.518" y1="48.7606" x2="134.347" y2="48.7606" gradientUnits="userSpaceOnUse">
<stop stop-color="#4F52FF"/>
<stop offset="1" stop-color="#4042E2"/>
</linearGradient>
<linearGradient id="paint34_linear_436_3750" x1="157.112" y1="-11.9241" x2="147.161" y2="7.78343" gradientUnits="userSpaceOnUse">
<stop stop-color="#FF928E"/>
<stop offset="1" stop-color="#FE7062"/>
</linearGradient>
<linearGradient id="paint35_linear_436_3750" x1="119.246" y1="47.7887" x2="126.053" y2="47.7887" gradientUnits="userSpaceOnUse">
<stop stop-color="#4F52FF"/>
<stop offset="1" stop-color="#4042E2"/>
</linearGradient>
<linearGradient id="paint36_linear_436_3750" x1="116.493" y1="48.5536" x2="120.013" y2="48.5536" gradientUnits="userSpaceOnUse">
<stop stop-color="#4F52FF"/>
<stop offset="1" stop-color="#4042E2"/>
</linearGradient>
<linearGradient id="paint37_linear_436_3750" x1="126.713" y1="48.07" x2="133.094" y2="48.07" gradientUnits="userSpaceOnUse">
<stop stop-color="#4F52FF"/>
<stop offset="1" stop-color="#4042E2"/>
</linearGradient>
<linearGradient id="paint38_linear_436_3750" x1="128.84" y1="34.4049" x2="125.398" y2="50.3489" gradientUnits="userSpaceOnUse">
<stop stop-color="#FEBBBA"/>
<stop offset="1" stop-color="#FF928E"/>
</linearGradient>
<linearGradient id="paint39_linear_436_3750" x1="126.758" y1="39.5475" x2="128.965" y2="28.9647" gradientUnits="userSpaceOnUse">
<stop stop-color="#FEBBBA"/>
<stop offset="1" stop-color="#FF928E"/>
</linearGradient>
<linearGradient id="paint40_linear_436_3750" x1="129.332" y1="40.0848" x2="131.539" y2="29.5014" gradientUnits="userSpaceOnUse">
<stop stop-color="#FEBBBA"/>
<stop offset="1" stop-color="#FF928E"/>
</linearGradient>
<linearGradient id="paint41_linear_436_3750" x1="124.537" y1="39.0845" x2="126.743" y2="28.5012" gradientUnits="userSpaceOnUse">
<stop stop-color="#FEBBBA"/>
<stop offset="1" stop-color="#FF928E"/>
</linearGradient>
<linearGradient id="paint42_linear_436_3750" x1="127.029" y1="34.5125" x2="128.059" y2="42.4993" gradientUnits="userSpaceOnUse">
<stop stop-color="#090056"/>
<stop offset="1" stop-color="#020039"/>
</linearGradient>
<linearGradient id="paint43_linear_436_3750" x1="124.136" y1="43.0947" x2="123.552" y2="52.4143" gradientUnits="userSpaceOnUse">
<stop stop-color="#4F52FF"/>
<stop offset="1" stop-color="#4042E2"/>
</linearGradient>
<linearGradient id="paint44_linear_436_3750" x1="129.249" y1="43.5522" x2="128.683" y2="52.5771" gradientUnits="userSpaceOnUse">
<stop stop-color="#4F52FF"/>
<stop offset="1" stop-color="#4042E2"/>
</linearGradient>
<linearGradient id="paint45_linear_436_3750" x1="81.3986" y1="-50.1551" x2="71.4474" y2="-30.447" gradientUnits="userSpaceOnUse">
<stop stop-color="#FF928E"/>
<stop offset="1" stop-color="#FE7062"/>
</linearGradient>
<linearGradient id="paint46_linear_436_3750" x1="81.3987" y1="-50.1551" x2="71.4475" y2="-30.4471" gradientUnits="userSpaceOnUse">
<stop stop-color="#FF928E"/>
<stop offset="1" stop-color="#FE7062"/>
</linearGradient>
<linearGradient id="paint47_linear_436_3750" x1="80.6882" y1="-50.5134" x2="70.7371" y2="-30.8058" gradientUnits="userSpaceOnUse">
<stop stop-color="#FF928E"/>
<stop offset="1" stop-color="#FE7062"/>
</linearGradient>
<linearGradient id="paint48_linear_436_3750" x1="82.4098" y1="-49.6446" x2="72.4586" y2="-29.9365" gradientUnits="userSpaceOnUse">
<stop stop-color="#FF928E"/>
<stop offset="1" stop-color="#FE7062"/>
</linearGradient>
<linearGradient id="paint49_linear_436_3750" x1="87.3016" y1="-47.1743" x2="77.3504" y2="-27.4667" gradientUnits="userSpaceOnUse">
<stop stop-color="#FF928E"/>
<stop offset="1" stop-color="#FE7062"/>
</linearGradient>
<linearGradient id="paint50_linear_436_3750" x1="87.3014" y1="-47.1742" x2="77.3502" y2="-27.4666" gradientUnits="userSpaceOnUse">
<stop stop-color="#FF928E"/>
<stop offset="1" stop-color="#FE7062"/>
</linearGradient>
<linearGradient id="paint51_linear_436_3750" x1="86.5912" y1="-47.5332" x2="76.6401" y2="-27.8251" gradientUnits="userSpaceOnUse">
<stop stop-color="#FF928E"/>
<stop offset="1" stop-color="#FE7062"/>
</linearGradient>
<linearGradient id="paint52_linear_436_3750" x1="88.3128" y1="-46.6633" x2="78.3616" y2="-26.9557" gradientUnits="userSpaceOnUse">
<stop stop-color="#FF928E"/>
<stop offset="1" stop-color="#FE7062"/>
</linearGradient>
<linearGradient id="paint53_linear_436_3750" x1="96.2408" y1="-42.6556" x2="86.2897" y2="-22.948" gradientUnits="userSpaceOnUse">
<stop stop-color="#FF928E"/>
<stop offset="1" stop-color="#FE7062"/>
</linearGradient>
<linearGradient id="paint54_linear_436_3750" x1="96.2429" y1="-42.6599" x2="86.2917" y2="-22.9523" gradientUnits="userSpaceOnUse">
<stop stop-color="#FF928E"/>
<stop offset="1" stop-color="#FE7062"/>
</linearGradient>
<linearGradient id="paint55_linear_436_3750" x1="95.5326" y1="-43.0187" x2="85.5814" y2="-23.3106" gradientUnits="userSpaceOnUse">
<stop stop-color="#FF928E"/>
<stop offset="1" stop-color="#FE7062"/>
</linearGradient>
<linearGradient id="paint56_linear_436_3750" x1="97.2541" y1="-42.1493" x2="87.3029" y2="-22.4417" gradientUnits="userSpaceOnUse">
<stop stop-color="#FF928E"/>
<stop offset="1" stop-color="#FE7062"/>
</linearGradient>
<linearGradient id="paint57_linear_436_3750" x1="62.3562" y1="46.3022" x2="56.4141" y2="61.2584" gradientUnits="userSpaceOnUse">
<stop stop-color="#09005D"/>
<stop offset="1" stop-color="#1A0F91"/>
</linearGradient>
<linearGradient id="paint58_linear_436_3750" x1="76.4023" y1="57.6966" x2="60.3878" y2="79.9072" gradientUnits="userSpaceOnUse">
<stop stop-color="#FEBBBA"/>
<stop offset="1" stop-color="#FF928E"/>
</linearGradient>
<linearGradient id="paint59_linear_436_3750" x1="40.5057" y1="141.966" x2="35.4378" y2="141.966" gradientUnits="userSpaceOnUse">
<stop stop-color="#09005D"/>
<stop offset="1" stop-color="#1A0F91"/>
</linearGradient>
<linearGradient id="paint60_linear_436_3750" x1="61.9228" y1="161.884" x2="54.6781" y2="76.9244" gradientUnits="userSpaceOnUse">
<stop stop-color="#FEBBBA"/>
<stop offset="1" stop-color="#FF928E"/>
</linearGradient>
<linearGradient id="paint61_linear_436_3750" x1="64.0533" y1="141.043" x2="55.8525" y2="141.043" gradientUnits="userSpaceOnUse">
<stop stop-color="#09005D"/>
<stop offset="1" stop-color="#1A0F91"/>
</linearGradient>
<linearGradient id="paint62_linear_436_3750" x1="47.2505" y1="163.148" x2="40.0043" y2="78.1665" gradientUnits="userSpaceOnUse">
<stop stop-color="#FEBBBA"/>
<stop offset="1" stop-color="#FF928E"/>
</linearGradient>
<linearGradient id="paint63_linear_436_3750" x1="-239.512" y1="-515.741" x2="-229.561" y2="-496.033" gradientUnits="userSpaceOnUse">
<stop stop-color="#FF928E"/>
<stop offset="1" stop-color="#FE7062"/>
</linearGradient>
<linearGradient id="paint64_linear_436_3750" x1="41.6526" y1="77.8672" x2="59.7984" y2="107" gradientUnits="userSpaceOnUse">
<stop stop-color="#4F52FF"/>
<stop offset="1" stop-color="#4042E2"/>
</linearGradient>
<linearGradient id="paint65_linear_436_3750" x1="62.7225" y1="78.1436" x2="61.3614" y2="68.1529" gradientUnits="userSpaceOnUse">
<stop stop-color="#FEBBBA"/>
<stop offset="1" stop-color="#FF928E"/>
</linearGradient>
<linearGradient id="paint66_linear_436_3750" x1="65.1749" y1="66.1044" x2="57.6272" y2="42.9758" gradientUnits="userSpaceOnUse">
<stop stop-color="#FEBBBA"/>
<stop offset="1" stop-color="#FF928E"/>
</linearGradient>
<linearGradient id="paint67_linear_436_3750" x1="66.2519" y1="47.4941" x2="57.5178" y2="61.0224" gradientUnits="userSpaceOnUse">
<stop stop-color="#09005D"/>
<stop offset="1" stop-color="#1A0F91"/>
</linearGradient>
<linearGradient id="paint68_linear_436_3750" x1="62.401" y1="67.0098" x2="54.8532" y2="43.8817" gradientUnits="userSpaceOnUse">
<stop stop-color="#FEBBBA"/>
<stop offset="1" stop-color="#FF928E"/>
</linearGradient>
<linearGradient id="paint69_linear_436_3750" x1="78.3337" y1="59.0892" x2="62.3187" y2="81.2997" gradientUnits="userSpaceOnUse">
<stop stop-color="#FEBBBA"/>
<stop offset="1" stop-color="#FF928E"/>
</linearGradient>
<linearGradient id="paint70_linear_436_3750" x1="82.7818" y1="51.0016" x2="85.7552" y2="51.0016" gradientUnits="userSpaceOnUse">
<stop stop-color="#FEBBBA"/>
<stop offset="1" stop-color="#FF928E"/>
</linearGradient>
<linearGradient id="paint71_linear_436_3750" x1="56.8623" y1="88.041" x2="69.7998" y2="92.2981" gradientUnits="userSpaceOnUse">
<stop stop-color="#09005D"/>
<stop offset="1" stop-color="#1A0F91"/>
</linearGradient>
<linearGradient id="paint72_linear_436_3750" x1="74.6844" y1="79.6921" x2="83.9197" y2="89.4868" gradientUnits="userSpaceOnUse">
<stop stop-color="#09005D"/>
<stop offset="1" stop-color="#1A0F91"/>
</linearGradient>
<linearGradient id="paint73_linear_436_3750" x1="37.5511" y1="91.0639" x2="66.1769" y2="79.0478" gradientUnits="userSpaceOnUse">
<stop stop-color="#FEBBBA"/>
<stop offset="1" stop-color="#FF928E"/>
</linearGradient>
<clipPath id="clip0_436_3750">
<rect width="145.763" height="145" fill="white"/>
</clipPath>
</defs>
</svg>
