<svg width="48" height="48" viewBox="0 0 48 48" fill="none" xmlns="http://www.w3.org/2000/svg">
<g clip-path="url(#clip0_436_4228)">
<path d="M43.3113 48.0001C41.9817 47.7722 41.0158 46.9799 40.0986 46.0521C37.179 43.0948 34.2214 40.1755 31.3018 37.2237C30.9708 36.8872 30.7537 36.8221 30.3358 37.088C28.431 38.2872 26.358 39.0848 24.1656 39.5569C21.9189 40.0398 19.6505 40.1267 17.3766 39.8174C14.2996 39.3996 11.456 38.3577 8.88913 36.6051C4.50428 33.6152 1.64979 29.551 0.493879 24.369C-1.8722 13.7934 4.49343 3.25033 15.0323 0.678323C23.1562 -1.30223 30.0482 1.07986 35.5347 7.42849C35.6378 7.54787 35.7355 7.66182 35.8929 7.84631C36.3053 7.41221 36.7123 6.99983 37.0868 6.56573C37.1573 6.48434 37.1573 6.28357 37.1085 6.16962C36.2293 4.08054 37.4286 1.9372 39.6591 1.63333C41.0158 1.44884 42.4267 2.27905 42.9368 3.60846C43.0617 3.92861 43.2245 4.02085 43.5501 4.01542C45.0316 4.00457 46.5185 4.02628 48 4.0317V5.627C46.5185 5.627 45.0316 5.627 43.5501 5.61615C43.2353 5.61615 43.0671 5.68126 42.9368 6.01769C42.5733 6.97812 41.8569 7.5967 40.8638 7.88429C39.9955 8.1339 39.1761 7.99282 38.3621 7.56957C37.9442 8.00367 37.5589 8.43776 37.1356 8.82302C36.8643 9.0672 36.7937 9.2734 37.0433 9.56098C37.1247 9.65323 37.1736 9.7726 37.2333 9.88113C39.5831 13.8856 40.4351 18.2049 39.8164 22.7954C39.4474 25.5465 38.5086 28.1131 37.0271 30.4681C36.8426 30.7556 36.8588 30.9239 37.1085 31.168C40.0769 34.1199 43.0237 37.0934 46.003 40.0344C46.9255 40.946 47.7504 41.8956 48.0055 43.2142V44.4351C47.707 45.5203 47.2729 46.5404 46.2798 47.1481C45.6882 47.5171 44.9936 47.7179 44.3478 47.9946H43.3167L43.3113 48.0001ZM38.3838 19.963C38.3783 9.81059 30.1188 1.39458 19.5962 1.5845C9.69772 1.76899 1.41643 9.87027 1.59552 20.3645C1.76375 30.2619 9.88766 38.5531 20.3722 38.3632C30.3358 38.1841 38.3729 30.0665 38.3838 19.963ZM39.2683 35.6121C38.0419 36.833 36.8426 38.0267 35.6215 39.2476C35.7138 39.3453 35.8223 39.4701 35.9417 39.584C37.4883 41.1305 39.035 42.677 40.5816 44.2234C41.1026 44.7443 41.6019 45.2815 42.1554 45.7645C43.2028 46.6815 44.7006 46.6055 45.672 45.6234C46.6216 44.663 46.7193 43.1382 45.7642 42.1506C43.626 39.9367 41.4282 37.788 39.2521 35.6121C39.2412 35.6012 39.2249 35.6067 39.2683 35.6121ZM34.3679 37.9399C35.5781 36.7462 36.7829 35.5578 37.9442 34.4129C37.2441 33.7129 36.5278 33.0021 36.0123 32.492C34.8509 33.6587 33.6516 34.8578 32.4686 36.0407C32.9787 36.5562 33.6842 37.2616 34.3679 37.9453V37.9399ZM39.9847 6.38667C40.8801 6.39209 41.6019 5.68126 41.591 4.79679C41.5801 3.92861 40.8692 3.21778 40.0009 3.21778C39.1381 3.21778 38.4326 3.92861 38.4272 4.79679C38.4272 5.68126 39.1055 6.37581 39.9792 6.38124L39.9847 6.38667Z" fill="#FF7BEA"/>
<path d="M19.9435 3.20142C29.207 3.25568 36.7828 10.5105 36.7991 20.0009C36.8154 29.3393 29.397 36.7895 20.014 36.7895C10.7179 36.7895 3.2615 29.4261 3.22894 20.0389C3.20181 10.7926 10.528 3.33707 19.9435 3.20142ZM33.2717 12.643C32.7507 13.1856 32.2949 13.6739 31.8119 14.1406C31.6274 14.3197 31.5948 14.4553 31.7088 14.6995C32.2732 15.9367 32.0018 17.3637 31.063 18.2808C30.1187 19.2086 28.7295 19.4637 27.5139 18.9102C27.2751 18.8017 27.1394 18.8071 26.9549 18.997C25.3811 20.5869 23.8019 22.1659 22.2173 23.7341C22.0274 23.9186 22.0165 24.0651 22.1196 24.3038C22.2499 24.5968 22.3584 24.9224 22.391 25.2426C22.5483 26.6154 21.8266 27.8851 20.573 28.4928C19.4116 29.0572 17.9247 28.8076 16.975 27.8851C16.0308 26.9681 15.7594 25.5519 16.3075 24.3038C16.4106 24.0705 16.4106 23.9294 16.2207 23.7395C15.1625 22.7031 14.1151 21.6504 13.0732 20.5923C12.9103 20.4241 12.7855 20.3916 12.5522 20.4947C10.7993 21.2706 8.95421 20.5055 8.25416 18.7257C8.15647 18.4815 8.03708 18.3947 7.7766 18.4001C6.96258 18.4164 6.15399 18.4219 5.33997 18.4001C4.98723 18.3893 4.89497 18.5141 4.87326 18.8505C4.74302 21.1892 5.03064 23.4628 5.92063 25.6332C7.33703 29.106 9.70854 31.7377 13.0352 33.4687C16.009 35.0151 19.1729 35.5089 22.4778 34.9663C26.4122 34.3206 29.6086 32.3888 32.0398 29.2525C34.1291 26.5557 35.1656 23.4628 35.1819 20.0389C35.1928 17.4451 34.5578 15.0196 33.2717 12.6375V12.643ZM13.9794 19.2304C15.1299 20.3807 16.2641 21.5202 17.4146 22.6434C17.5014 22.7302 17.7348 22.7574 17.8487 22.7085C18.7604 22.307 19.6559 22.3124 20.5676 22.7031C20.6924 22.7574 20.9366 22.714 21.0343 22.6217C22.646 21.0318 24.2469 19.4311 25.8424 17.8195C25.9292 17.7327 25.9781 17.4994 25.9238 17.3963C25.2563 16.0235 25.7122 14.5747 26.575 13.7282C27.5247 12.7949 28.8651 12.5833 30.173 13.1313C30.2815 13.1747 30.4715 13.191 30.5366 13.1313C31.1661 12.529 31.7793 11.9104 32.3871 11.3027C29.3318 6.74471 23.0802 3.61923 16.3347 5.29592C9.99073 6.87494 6.04545 12.1709 5.25314 16.7994C6.06716 16.7994 6.88118 16.7831 7.68977 16.8049C8.01538 16.8157 8.1619 16.7235 8.28672 16.3979C8.8511 14.9274 10.5388 14.1297 12.0366 14.515C13.822 14.9762 15.1245 17.1196 13.9903 19.2358L13.9794 19.2304ZM19.2054 27.1906C20.0629 27.1906 20.7955 26.4797 20.8118 25.6224C20.828 24.7596 20.0683 23.9945 19.2 24.0054C18.3426 24.0162 17.6208 24.7488 17.6262 25.6007C17.6262 26.4635 18.3426 27.1797 19.2054 27.1851V27.1906ZM11.2226 16.0235C10.3435 16.0235 9.65427 16.7072 9.64884 17.5916C9.64884 18.487 10.3652 19.2141 11.2443 19.1978C12.1126 19.1815 12.8072 18.4653 12.8018 17.5916C12.7964 16.718 12.0963 16.0235 11.2226 16.0235ZM30.3901 16.0018C30.3901 15.1227 29.7009 14.4282 28.8217 14.4282C27.948 14.4282 27.2371 15.1173 27.2208 15.9855C27.2045 16.8591 27.948 17.6079 28.8271 17.5971C29.6954 17.5862 30.3901 16.8754 30.3901 16.0018Z" fill="#FF7BEA"/>
</g>
<defs>
<clipPath id="clip0_436_4228">
<rect width="48" height="48" fill="white"/>
</clipPath>
</defs>
</svg>
