<svg width="87" height="86" viewBox="0 0 87 86" fill="none" xmlns="http://www.w3.org/2000/svg">
<path d="M82.1658 23.2024C81.2364 19.7027 78.4979 16.9465 75.0209 16.0112C68.7186 14.3115 43.447 14.3115 43.447 14.3115C43.447 14.3115 18.1756 14.3115 11.8732 16.0112C8.39615 16.9467 5.6577 19.7027 4.72826 23.2024C3.03955 29.5457 3.03955 42.7804 3.03955 42.7804C3.03955 42.7804 3.03955 56.0151 4.72826 62.3584C5.6577 65.8581 8.39615 68.4995 11.8732 69.4348C18.1756 71.1345 43.447 71.1345 43.447 71.1345C43.447 71.1345 68.7184 71.1345 75.0209 69.4348C78.4979 68.4995 81.2364 65.8581 82.1658 62.3584C83.8545 56.0151 83.8545 42.7804 83.8545 42.7804C83.8545 42.7804 83.8545 29.5457 82.1658 23.2024ZM35.1818 54.7965V30.7643L56.3038 42.7807L35.1818 54.7965Z" fill="#FF0000"/>
</svg>
