<svg width="64" height="65" viewBox="0 0 64 65" fill="none" xmlns="http://www.w3.org/2000/svg">
<path d="M60.7897 17.8131C60.0958 15.2005 58.0515 13.1429 55.4558 12.4446C50.7509 11.1758 31.885 11.1758 31.885 11.1758C31.885 11.1758 13.0192 11.1758 8.31425 12.4446C5.71858 13.143 3.67425 15.2005 2.98039 17.8131C1.71973 22.5485 1.71973 32.4286 1.71973 32.4286C1.71973 32.4286 1.71973 42.3087 2.98039 47.0441C3.67425 49.6567 5.71858 51.6286 8.31425 52.3268C13.0192 53.5957 31.885 53.5957 31.885 53.5957C31.885 53.5957 50.7508 53.5957 55.4558 52.3268C58.0515 51.6286 60.0958 49.6567 60.7897 47.0441C62.0503 42.3087 62.0503 32.4286 62.0503 32.4286C62.0503 32.4286 62.0503 22.5485 60.7897 17.8131ZM25.7148 41.399V23.4582L41.483 32.4288L25.7148 41.399Z" fill="#FF0000"/>
</svg>
