<svg width="50" height="54" viewBox="0 0 50 54" fill="none" xmlns="http://www.w3.org/2000/svg">
<g clip-path="url(#clip0_159_1271)">
<path d="M41.7184 0C42.0723 0.117114 42.4317 0.218257 42.7692 0.356664C45.1759 1.34681 46.2975 4.05106 45.2848 6.41463C45.2085 6.5903 45.1378 6.76065 45.0506 6.95761C45.5842 7.01617 46.0961 7.01617 46.5806 7.12796C48.6442 7.59109 49.9837 9.27859 49.9946 11.4292C50.0109 13.7289 49.9946 16.0339 49.9946 18.3336C49.9946 24.9771 49.9946 31.6207 49.9946 38.2642C49.9946 40.4521 48.7205 42.1449 46.6841 42.6453C46.2213 42.7571 45.7258 42.7944 45.2467 42.7944C39.9815 42.805 34.7109 42.7997 29.4457 42.7997H28.7161C29.1408 44.5564 29.5546 46.2545 29.9793 48.0059C30.8777 48.0059 31.7707 47.9953 32.6691 48.0059C34.3406 48.0325 35.6528 49.0866 35.9523 50.6569C36.0231 51.0296 36.0013 51.4235 36.0285 51.8813C36.9215 51.8813 37.8144 51.8813 38.7074 51.8813C38.9796 51.8813 39.2464 51.8653 39.5132 51.8866C40.0523 51.9292 40.477 52.387 40.4933 52.9087C40.5096 53.4464 40.0686 53.9255 39.5132 53.9787C39.4043 53.9893 39.2954 53.9787 39.192 53.9787C29.7343 53.9787 20.282 53.9734 10.8243 53.9893C9.94228 53.9893 9.48492 53.3985 9.52848 52.8448C9.57204 52.2752 10.0294 51.876 10.661 51.876C11.7554 51.8653 12.8498 51.876 13.9769 51.876C14.0041 51.4448 13.9769 51.0402 14.0531 50.6516C14.3526 49.0865 15.6703 48.0272 17.3418 48.0006C18.2184 47.9899 19.1005 48.0006 20.0261 48.0006C20.4454 46.2811 20.8592 44.583 21.2948 42.7944H20.6142C15.2728 42.7944 9.93684 42.7944 4.59545 42.7944C2.40118 42.7944 0.680605 41.538 0.16879 39.5631C0.0544484 39.1266 0.0108897 38.6634 0.0108897 38.211C0 29.3316 0 20.4576 0 11.5836C0 8.81546 1.85125 7.01084 4.70435 7.01084C14.1239 7.01084 23.5435 7.01084 32.9631 7.02149C33.4259 7.02149 33.709 6.90438 33.9704 6.51045C34.9014 5.09444 35.8924 3.71037 36.8344 2.29968C37.5966 1.16049 38.6039 0.377957 39.9869 0.101144C40.0305 0.0904968 40.0686 0.0425867 40.1067 0.0106467C40.6458 0.0106467 41.1848 0.0106467 41.7238 0.0106467L41.7184 0ZM47.8003 31.445C47.8003 31.1841 47.8003 30.9925 47.8003 30.8062C47.8003 24.4288 47.8003 18.0515 47.8003 11.6688C47.8003 11.4771 47.8003 11.2802 47.784 11.0885C47.7023 10.0185 46.8257 9.19341 45.7312 9.16147C45.1214 9.1455 44.5062 9.18809 43.8963 9.1455C43.4117 9.10824 43.1123 9.29456 42.8128 9.65122C39.9161 13.122 37.0195 16.5929 34.0956 20.0424C33.6274 20.5907 33.2353 21.0964 33.6001 21.847C33.6872 22.028 33.6655 22.2622 33.6818 22.4698C33.8887 25.1315 32.2444 27.4844 29.718 27.9795C28.7488 28.1711 27.7143 28.1339 26.7178 28.0913C25.0953 28.0221 23.5762 28.1605 22.2966 29.3103C21.6814 29.864 20.7939 29.5446 20.5706 28.7301C20.0207 26.7392 19.6994 24.7269 19.9172 22.6455C20.2984 19.0735 23.0045 16.5609 26.6852 16.4651C27.0336 16.4545 27.2297 16.3427 27.4202 16.0605C28.874 13.9099 30.3496 11.7699 31.8142 9.6246C31.9013 9.49684 31.9721 9.36376 32.0974 9.15615C31.8251 9.15615 31.6345 9.15615 31.444 9.15615C22.5308 9.15615 13.6176 9.17744 4.6989 9.13486C3.25602 9.12953 2.16705 10.0505 2.17794 11.6102C2.2215 18.0248 2.19427 24.4395 2.19972 30.8488C2.19972 31.0351 2.21605 31.2214 2.22694 31.4397C2.90755 31.4397 3.5337 31.4397 4.15986 31.4397C4.57367 31.4397 4.99292 31.4184 5.39584 31.4716C5.97299 31.5461 6.33235 31.988 6.33235 32.5203C6.33235 33.058 5.96755 33.4838 5.38495 33.553C4.99292 33.6009 4.59545 33.5797 4.20342 33.585C3.54459 33.585 2.89121 33.585 2.2215 33.585C2.2215 35.3949 2.18883 37.1143 2.23783 38.8338C2.26506 39.7068 3.08178 40.4734 3.97474 40.6011C4.29054 40.6437 4.61723 40.6544 4.94392 40.6544C18.3165 40.6544 31.689 40.6544 45.0561 40.6544C45.1976 40.6544 45.3447 40.6544 45.4862 40.6544C46.9454 40.6011 47.7785 39.776 47.7894 38.36C47.8003 36.9174 47.7894 35.4801 47.7894 34.0375C47.7894 33.9044 47.7622 33.7713 47.7404 33.5903C47.4627 33.5903 47.2122 33.5903 46.9672 33.5903C36.132 33.5903 25.2913 33.5903 14.4561 33.5903C14.1893 33.5903 13.9116 33.5903 13.6502 33.5371C13.1547 33.4466 12.8281 33.0526 12.8117 32.5789C12.7954 32.0572 13.0404 31.6899 13.5413 31.5355C13.8081 31.4556 14.1076 31.445 14.3907 31.445C25.2641 31.445 36.1374 31.445 47.0108 31.445C47.2395 31.445 47.4736 31.445 47.7948 31.445H47.8003ZM35.6746 14.8255C36.5295 13.8088 37.3353 12.8452 38.1466 11.8817C39.7419 9.98127 41.3481 8.09148 42.9163 6.16975C43.9181 4.94539 43.5533 3.19933 42.1975 2.44341C40.9779 1.76735 39.5677 2.12934 38.7292 3.35371C36.72 6.28155 34.7163 9.21471 32.7126 12.1479C32.6364 12.2597 32.5819 12.3821 32.5057 12.5205C33.5675 13.2871 34.602 14.0377 35.6801 14.8255H35.6746ZM22.2966 26.5901C23.0807 26.3985 23.794 26.1376 24.5345 26.0631C25.5309 25.9673 26.5382 25.9992 27.54 26.0045C28.4384 26.0045 29.3477 26.0631 30.1427 25.552C31.2697 24.8281 31.7434 23.4972 31.4331 22.0653C31.3351 21.6128 31.1391 21.2774 30.7307 21.0059C29.8704 20.431 29.0047 19.8507 28.2261 19.18C27.5455 18.5944 26.854 18.4826 26.0046 18.653C24.0989 19.0416 22.7867 20.0424 22.2803 21.9322C21.861 23.4972 22.0081 25.057 22.2912 26.5848L22.2966 26.5901ZM16.1603 51.844H33.8179C33.905 50.5238 33.562 50.1565 32.2498 50.1565C29.3749 50.1565 26.5001 50.1565 23.6252 50.1565C21.5398 50.1565 19.4544 50.1512 17.3691 50.1565C16.5904 50.1565 16.1821 50.5664 16.1603 51.3277C16.1603 51.4821 16.1603 51.6418 16.1603 51.8334V51.844ZM27.736 47.9793C27.3059 46.2066 26.8921 44.5138 26.4783 42.8263H23.5163C23.097 44.5457 22.6887 46.2439 22.2694 47.9793H27.736ZM29.2061 17.2636C30.1372 17.9343 31.0247 18.5838 31.9558 19.2545C32.7398 18.3229 33.4967 17.418 34.2916 16.4757C33.2789 15.7411 32.277 15.0172 31.2534 14.2772C30.551 15.2993 29.8922 16.2628 29.2061 17.2689V17.2636Z" fill="white"/>
<path d="M10.6501 32.5415C10.6392 33.1324 10.1437 33.5955 9.53937 33.5743C8.96221 33.553 8.4994 33.0898 8.4994 32.5202C8.4994 31.94 9.00033 31.4449 9.58293 31.4502C10.1655 31.4556 10.6556 31.956 10.6501 32.5415Z" fill="white"/>
</g>
<defs>
<clipPath id="clip0_159_1271">
<rect width="50" height="54" fill="white"/>
</clipPath>
</defs>
</svg>
