<svg width="124" height="30" viewBox="0 0 124 30" fill="none" xmlns="http://www.w3.org/2000/svg">
<g clip-path="url(#clip0_956_3647)">
<path d="M77.2874 5.82645C77.2874 5.0993 77.4752 4.51308 77.8546 4.06777C78.2321 3.62059 78.7242 3.39888 79.3328 3.39888C79.7047 3.39888 80.0221 3.47591 80.2851 3.63186C80.548 3.78781 80.7415 4.01141 80.8636 4.30264V0.665039H81.906V8.10746H80.8636V7.51748C80.6776 7.78053 80.4616 7.97594 80.2137 8.1037C79.9658 8.23147 79.6822 8.29535 79.361 8.29535C78.7186 8.29535 78.2115 8.07552 77.8414 7.63585C77.4714 7.19618 77.2874 6.59305 77.2874 5.82833V5.82645ZM78.3768 5.85463C78.3768 6.33751 78.4857 6.71142 78.7036 6.97259C78.9214 7.23564 79.2276 7.36717 79.6258 7.36717C80.024 7.36717 80.3095 7.22625 80.5424 6.94253C80.7753 6.65881 80.8936 6.2849 80.8936 5.81705C80.8936 5.3492 80.7847 4.98093 80.5649 4.71788C80.3452 4.45483 80.039 4.32331 79.6465 4.32331C79.2539 4.32331 78.944 4.45859 78.7167 4.72915C78.4913 4.99972 78.3786 5.3755 78.3786 5.85463H78.3768Z" fill="#174873"/>
<path d="M83.2527 1.58768C83.2527 1.41294 83.3165 1.25887 83.4461 1.1311C83.5757 1.00334 83.7298 0.939453 83.9101 0.939453C84.0904 0.939453 84.2501 1.00146 84.374 1.12359C84.498 1.24572 84.5581 1.40167 84.5581 1.58768C84.5581 1.7737 84.4961 1.92965 84.3703 2.05553C84.2444 2.18142 84.0923 2.24531 83.9101 2.24531C83.7279 2.24531 83.5757 2.18142 83.4461 2.05178C83.3165 1.92213 83.2527 1.76806 83.2527 1.58768V1.58768ZM83.3917 8.10755V3.55492H84.4341V8.10567H83.3917V8.10755Z" fill="#174873"/>
<path d="M85.8315 1.58768C85.8315 1.41294 85.8954 1.25887 86.025 1.1311C86.1546 1.00334 86.3086 0.939453 86.4889 0.939453C86.6693 0.939453 86.8289 1.00146 86.9529 1.12359C87.0768 1.24572 87.1369 1.40167 87.1369 1.58768C87.1369 1.7737 87.075 1.92965 86.9491 2.05553C86.8233 2.18142 86.6711 2.24531 86.4889 2.24531C86.3067 2.24531 86.1546 2.18142 86.025 2.05178C85.8954 1.92213 85.8315 1.76806 85.8315 1.58768V1.58768ZM85.9705 10.2495V3.55492H87.013V10.2476H85.9705V10.2495Z" fill="#174873"/>
<path d="M88.4087 1.58768C88.4087 1.41294 88.4726 1.25887 88.6022 1.1311C88.7318 1.00334 88.8858 0.939453 89.0661 0.939453C89.2464 0.939453 89.4061 1.00146 89.53 1.12359C89.654 1.24572 89.7141 1.40167 89.7141 1.58768C89.7141 1.7737 89.6521 1.92965 89.5263 2.05553C89.4004 2.18142 89.2483 2.24531 89.0661 2.24531C88.8839 2.24531 88.7318 2.18142 88.6022 2.05178C88.4726 1.92213 88.4087 1.76806 88.4087 1.58768V1.58768ZM88.5477 8.10755V3.55492H89.5901V8.10567H88.5477V8.10755Z" fill="#174873"/>
<path d="M90.5254 4.48093V3.55462H91.3218V1.84668H92.3642V3.55462H93.1606V4.48093H92.3642V8.10538H91.3218V4.48093H90.5254Z" fill="#174873"/>
<path d="M93.7205 5.82601C93.7205 5.09886 93.9083 4.51264 94.2877 4.06734C94.6652 3.62015 95.1573 3.39844 95.7659 3.39844C96.1378 3.39844 96.4552 3.47547 96.7182 3.63142C96.9811 3.78738 97.1746 4.01097 97.2967 4.3022V3.55815H98.3391V8.1089H97.2967V7.51892C97.1107 7.78197 96.8947 7.97738 96.6468 8.10515C96.3989 8.23291 96.1153 8.2968 95.7941 8.2968C95.1517 8.2968 94.6446 8.07696 94.2746 7.63729C93.9045 7.19762 93.7205 6.59449 93.7205 5.82977V5.82601ZM94.8099 5.85419C94.8099 6.33708 94.9188 6.71098 95.1367 6.97215C95.3546 7.2352 95.6607 7.36673 96.0589 7.36673C96.4327 7.36673 96.7388 7.22393 96.9736 6.94021C97.2084 6.65462 97.3267 6.28071 97.3267 5.81661C97.3267 5.35252 97.2178 4.98049 96.998 4.71744C96.7783 4.45439 96.4721 4.32287 96.0796 4.32287C95.687 4.32287 95.3771 4.45815 95.1498 4.72872C94.9244 4.99928 94.8117 5.37507 94.8117 5.85419H94.8099Z" fill="#174873"/>
<path d="M99.8247 8.10746V0.665039H100.867V8.10746H99.8247Z" fill="#174873"/>
<path d="M77.6235 19.791V13.0983H78.666V13.8423C78.7881 13.553 78.9815 13.3312 79.2501 13.1753C79.5168 13.0175 79.8361 12.9404 80.208 12.9404C80.8128 12.9404 81.3031 13.164 81.6787 13.6093C82.0544 14.0546 82.2422 14.6427 82.2422 15.368C82.2422 16.1327 82.0581 16.7359 81.6881 17.1755C81.3181 17.6152 80.8129 17.835 80.1686 17.835C79.8493 17.835 79.5657 17.7711 79.3159 17.6434C79.0679 17.5156 78.8519 17.3202 78.666 17.0572V19.7891H77.6235V19.791ZM78.6322 15.3586C78.6322 15.8283 78.7505 16.206 78.9853 16.4878C79.2201 16.7697 79.53 16.9106 79.915 16.9106C80.3001 16.9106 80.6138 16.7791 80.8298 16.516C81.0458 16.253 81.1528 15.8809 81.1528 15.3981C81.1528 14.9152 81.0401 14.5432 80.8147 14.2726C80.5893 14.002 80.2794 13.8667 79.885 13.8667C79.4905 13.8667 79.1844 13.9983 78.9627 14.2613C78.7411 14.5244 78.6322 14.8908 78.6322 15.3605V15.3586Z" fill="#174873"/>
<path d="M83.0085 15.37C83.0085 14.6428 83.1964 14.0566 83.5758 13.6113C83.9533 13.1641 84.4454 12.9424 85.054 12.9424C85.4259 12.9424 85.7433 13.0194 86.0063 13.1754C86.2692 13.3313 86.4627 13.5549 86.5848 13.8461V13.1021H87.6272V17.6529H86.5848V17.0629C86.3988 17.3259 86.1828 17.5213 85.9349 17.6491C85.687 17.7769 85.4033 17.8407 85.0822 17.8407C84.4398 17.8407 83.9327 17.6209 83.5626 17.1812C83.1926 16.7416 83.0085 16.1384 83.0085 15.3737V15.37ZM84.0979 15.3981C84.0979 15.881 84.2069 16.2549 84.4248 16.5161C84.6426 16.7791 84.9488 16.9107 85.347 16.9107C85.7208 16.9107 86.0269 16.7679 86.2617 16.4842C86.4965 16.1986 86.6148 15.8247 86.6148 15.3606C86.6148 14.8965 86.5059 14.5244 86.2861 14.2614C86.0664 13.9983 85.7602 13.8668 85.3677 13.8668C84.9751 13.8668 84.6652 14.0021 84.4379 14.2727C84.2125 14.5432 84.0998 14.919 84.0998 15.3981H84.0979Z" fill="#174873"/>
<path d="M88.3354 17.6504L90.8692 14.0259H88.589V13.0996H92.5634L90.0822 16.7241H92.5634V17.6504H88.3354V17.6504Z" fill="#174873"/>
<path d="M93.1458 15.37C93.1458 14.6428 93.3336 14.0566 93.713 13.6113C94.0905 13.1641 94.5826 12.9424 95.1912 12.9424C95.5631 12.9424 95.8805 13.0194 96.1435 13.1754C96.4064 13.3313 96.5999 13.5549 96.722 13.8461V13.1021H97.7644V17.6529H96.722V17.0629C96.536 17.3259 96.32 17.5213 96.0721 17.6491C95.8242 17.7769 95.5406 17.8407 95.2194 17.8407C94.577 17.8407 94.0699 17.6209 93.6998 17.1812C93.3298 16.7416 93.1458 16.1384 93.1458 15.3737V15.37ZM94.2351 15.3981C94.2351 15.881 94.3441 16.2549 94.562 16.5161C94.7799 16.7791 95.086 16.9107 95.4842 16.9107C95.858 16.9107 96.1641 16.7679 96.3989 16.4842C96.6337 16.1986 96.752 15.8247 96.752 15.3606C96.752 14.8965 96.6431 14.5244 96.4233 14.2614C96.2036 13.9983 95.8974 13.8668 95.5049 13.8668C95.1123 13.8668 94.8024 14.0021 94.5751 14.2727C94.3497 14.5432 94.237 14.919 94.237 15.3981H94.2351Z" fill="#174873"/>
<path d="M99.2011 17.6509V13.0889H100.244V13.8047C100.356 13.5097 100.503 13.2918 100.687 13.1509C100.871 13.0099 101.098 12.9404 101.371 12.9404C101.517 12.9404 101.664 12.9573 101.804 12.993C101.947 13.0287 102.086 13.0795 102.223 13.1452L101.849 14.0114C101.759 13.9475 101.664 13.8987 101.558 13.8686C101.455 13.8386 101.339 13.8216 101.211 13.8216C100.865 13.8216 100.617 13.9607 100.467 14.2388C100.317 14.5168 100.242 14.9847 100.242 15.6404V17.6471H99.1992L99.2011 17.6509Z" fill="#174873"/>
<path d="M102.868 17.6504V10.208H103.91V17.6504H102.868Z" fill="#174873"/>
<path d="M105.062 15.37C105.062 14.6428 105.249 14.0566 105.629 13.6113C106.006 13.1641 106.498 12.9424 107.107 12.9424C107.479 12.9424 107.796 13.0194 108.059 13.1754C108.322 13.3313 108.516 13.5549 108.638 13.8461V13.1021H109.68V17.6529H108.638V17.0629C108.452 17.3259 108.236 17.5213 107.988 17.6491C107.74 17.7769 107.456 17.8407 107.135 17.8407C106.493 17.8407 105.986 17.6209 105.616 17.1812C105.246 16.7416 105.062 16.1384 105.062 15.3737V15.37ZM106.151 15.3981C106.151 15.881 106.26 16.2549 106.478 16.5161C106.696 16.7791 107.002 16.9107 107.4 16.9107C107.774 16.9107 108.08 16.7679 108.315 16.4842C108.549 16.1986 108.668 15.8247 108.668 15.3606C108.668 14.8965 108.559 14.5244 108.339 14.2614C108.119 13.9983 107.813 13.8668 107.421 13.8668C107.028 13.8668 106.718 14.0021 106.491 14.2727C106.266 14.5432 106.153 14.919 106.153 15.3981H106.151Z" fill="#174873"/>
<path d="M111.119 17.6506V13.0998H112.097V13.8439C112.306 13.5264 112.541 13.2952 112.805 13.1506C113.07 13.004 113.38 12.9326 113.739 12.9326C114.098 12.9326 114.385 13.0078 114.616 13.1562C114.849 13.3046 115.026 13.532 115.146 13.8364C115.386 13.5226 115.642 13.2934 115.912 13.1506C116.183 13.0059 116.491 12.9345 116.838 12.9345C117.139 12.9345 117.402 12.9909 117.625 13.0998C117.85 13.2107 118.023 13.3704 118.149 13.5827C118.207 13.6823 118.249 13.8007 118.277 13.9378C118.305 14.075 118.318 14.2723 118.318 14.5278V17.6525H117.276V15.3132C117.276 14.7026 117.212 14.3005 117.08 14.1051C116.951 13.9115 116.72 13.8138 116.385 13.8138C115.976 13.8138 115.683 13.9435 115.508 14.2046C115.334 14.4658 115.245 14.9224 115.245 15.5744V17.6487H114.203V15.3095C114.203 14.7458 114.135 14.3568 113.998 14.1389C113.863 13.9209 113.628 13.812 113.296 13.812C113.091 13.812 112.903 13.8589 112.734 13.951C112.563 14.0431 112.43 14.1727 112.33 14.3343C112.266 14.4395 112.221 14.5692 112.197 14.7232C112.171 14.8773 112.157 15.161 112.157 15.5725V17.6468H111.115L111.119 17.6506Z" fill="#174873"/>
<path d="M119.383 15.37C119.383 14.6428 119.571 14.0566 119.951 13.6113C120.328 13.1641 120.82 12.9424 121.429 12.9424C121.801 12.9424 122.118 13.0194 122.381 13.1754C122.644 13.3313 122.837 13.5549 122.96 13.8461V13.1021H124.002V17.6529H122.96V17.0629C122.774 17.3259 122.558 17.5213 122.31 17.6491C122.062 17.7769 121.778 17.8407 121.457 17.8407C120.815 17.8407 120.307 17.6209 119.937 17.1812C119.567 16.7416 119.383 16.1384 119.383 15.3737V15.37ZM120.473 15.3981C120.473 15.881 120.582 16.2549 120.8 16.5161C121.017 16.7791 121.324 16.9107 121.722 16.9107C122.096 16.9107 122.402 16.7679 122.636 16.4842C122.871 16.1986 122.99 15.8247 122.99 15.3606C122.99 14.8965 122.881 14.5244 122.661 14.2614C122.441 13.9983 122.135 13.8668 121.742 13.8668C121.35 13.8668 121.04 14.0021 120.813 14.2727C120.587 14.5432 120.475 14.919 120.475 15.3981H120.473Z" fill="#174873"/>
<path d="M77.2874 24.9129C77.2874 24.1858 77.4752 23.5996 77.8546 23.1542C78.2321 22.7071 78.7242 22.4854 79.3328 22.4854C79.7047 22.4854 80.0221 22.5624 80.2851 22.7183C80.548 22.8743 80.7415 23.0979 80.8636 23.3891V22.6451H81.906V27.1958H80.8636V26.6058C80.6776 26.8689 80.4616 27.0643 80.2137 27.1921C79.9658 27.3198 79.6822 27.3837 79.361 27.3837C78.7186 27.3837 78.2115 27.1639 77.8414 26.7242C77.4714 26.2845 77.2874 25.6814 77.2874 24.9167V24.9129ZM78.3768 24.9411C78.3768 25.424 78.4857 25.7979 78.7036 26.0591C78.9214 26.3221 79.2276 26.4536 79.6258 26.4536C79.9996 26.4536 80.3057 26.3108 80.5405 26.0271C80.7753 25.7415 80.8936 25.3676 80.8936 24.9035C80.8936 24.4394 80.7847 24.0674 80.5649 23.8044C80.3452 23.5413 80.039 23.4098 79.6465 23.4098C79.2539 23.4098 78.944 23.5451 78.7167 23.8156C78.4913 24.0862 78.3786 24.462 78.3786 24.9411H78.3768Z" fill="#174873"/>
<path d="M83.2527 20.6736C83.2527 20.4989 83.3165 20.3448 83.4461 20.217C83.5757 20.0893 83.7298 20.0254 83.9101 20.0254C84.0904 20.0254 84.2501 20.0874 84.374 20.2095C84.498 20.3317 84.5581 20.4876 84.5581 20.6736C84.5581 20.8596 84.4961 21.0156 84.3703 21.1415C84.2444 21.2674 84.0923 21.3312 83.9101 21.3312C83.7279 21.3312 83.5757 21.2674 83.4461 21.1377C83.3165 21.0081 83.2527 20.854 83.2527 20.6736V20.6736ZM83.3917 29.3355V22.6427H84.4341V29.3355H83.3917Z" fill="#174873"/>
<path d="M85.5857 24.9129C85.5857 24.1858 85.7735 23.5996 86.1529 23.1542C86.5305 22.7071 87.0226 22.4854 87.6311 22.4854C88.003 22.4854 88.3205 22.5624 88.5834 22.7183C88.8464 22.8743 89.0398 23.0979 89.1619 23.3891V22.6451H90.2044V27.1958H89.1619V26.6058C88.976 26.8689 88.76 27.0643 88.512 27.1921C88.2641 27.3198 87.9805 27.3837 87.6593 27.3837C87.0169 27.3837 86.5098 27.1639 86.1398 26.7242C85.7698 26.2845 85.5857 25.6814 85.5857 24.9167V24.9129ZM86.6751 24.9411C86.6751 25.424 86.784 25.7979 87.0019 26.0591C87.2198 26.3221 87.5259 26.4536 87.9241 26.4536C88.2979 26.4536 88.6041 26.3108 88.8389 26.0271C89.0737 25.7415 89.192 25.3676 89.192 24.9035C89.192 24.4394 89.083 24.0674 88.8633 23.8044C88.6435 23.5413 88.3374 23.4098 87.9448 23.4098C87.5522 23.4098 87.2423 23.5451 87.0151 23.8156C86.7897 24.0862 86.677 24.462 86.677 24.9411H86.6751Z" fill="#174873"/>
<path d="M91.643 27.1939V22.6431H92.6216V23.3872C92.8301 23.0734 93.0742 22.8442 93.356 22.6995C93.6377 22.5548 93.9796 22.4834 94.3834 22.4834C94.7196 22.4834 95.007 22.5379 95.2436 22.645C95.4803 22.7521 95.6663 22.9118 95.7996 23.1222C95.8785 23.2462 95.9367 23.3928 95.9724 23.56C96.0081 23.7272 96.025 24.0185 96.025 24.4337V27.1939H94.9826V24.8546C94.9826 24.2571 94.9093 23.8588 94.7647 23.6615C94.6182 23.4642 94.3609 23.3665 93.989 23.3665C93.7467 23.3665 93.5288 23.4116 93.3391 23.5018C93.1494 23.592 92.9991 23.7179 92.8902 23.8813C92.8132 23.9903 92.7606 24.1293 92.7286 24.3003C92.6986 24.4713 92.6836 24.7437 92.6836 25.1195V27.1939H91.6411H91.643Z" fill="#174873"/>
<path d="M96.8985 26.3686L97.7625 25.8989C97.8263 26.1263 97.9447 26.2991 98.1175 26.4175C98.2903 26.5359 98.5138 26.5941 98.7842 26.5941C99.0172 26.5941 99.2012 26.5396 99.3327 26.4325C99.4642 26.3254 99.5318 26.1789 99.5318 25.9929C99.5318 25.7467 99.2951 25.5344 98.8218 25.3597C98.6622 25.3014 98.5382 25.2544 98.4518 25.215C97.9653 25.0139 97.6253 24.8091 97.4319 24.6006C97.2384 24.392 97.1408 24.1402 97.1408 23.8415C97.1408 23.4356 97.3004 23.105 97.6178 22.8532C97.9353 22.5995 98.3579 22.4736 98.8819 22.4736C99.2332 22.4736 99.5356 22.5375 99.7873 22.6672C100.039 22.7968 100.221 22.9809 100.338 23.2214L99.5975 23.7306C99.5431 23.586 99.4473 23.4732 99.312 23.3868C99.1768 23.3004 99.019 23.259 98.8387 23.259C98.6396 23.259 98.4818 23.306 98.3616 23.3999C98.2414 23.4939 98.1813 23.6198 98.1813 23.7757C98.1813 24.0125 98.4499 24.2285 98.9871 24.424C99.1561 24.4841 99.2876 24.5348 99.3797 24.5724C99.7985 24.7396 100.099 24.9275 100.279 25.1361C100.46 25.3465 100.55 25.6077 100.55 25.9215C100.55 26.3762 100.385 26.7332 100.056 26.9887C99.7271 27.2461 99.2726 27.3757 98.6922 27.3757C98.2471 27.3757 97.877 27.2931 97.584 27.1259C97.291 26.9586 97.0581 26.705 96.8928 26.363L96.8985 26.3686Z" fill="#174873"/>
<path d="M101.607 27.1939V22.4834H102.975V27.1939H101.607Z" fill="#174873"/>
<path d="M64.4267 1.52734L56.0834 20.2903L47.4377 1.52734L41.8348 26.1976L33.4314 16.0026C33.4314 16.0026 39.3386 16.6339 39.3386 9.14075C39.3386 1.64759 32.8942 2.69604 32.8942 2.69604L25.3323 2.58518V26.8684H28.8033V16.0026L37.1466 26.8684H45.6721L48.7168 11.9441L56.0853 27.8436L63.6979 12.0662L66.4383 26.8684H70.3959L64.4267 1.52734ZM29.1076 12.675V5.85263C34.1001 5.85263 34.8927 6.33927 34.8927 9.81153C34.8927 13.2838 29.1076 12.675 29.1076 12.675Z" fill="#174873"/>
<path d="M11.5702 2.58496H0V26.8682H11.0217C11.0217 26.8682 20.5821 26.6239 20.5821 14.7454C20.5821 2.8668 11.5702 2.58496 11.5702 2.58496ZM9.98679 23.3753H3.89742V6.34093H10.2911C10.2911 6.34093 16.5025 6.2188 16.5025 14.8581C16.5025 23.4974 9.98679 23.3753 9.98679 23.3753V23.3753Z" fill="#174873"/>
<path d="M73.5608 1.52734H72.9917V27.1935H73.5608V1.52734Z" fill="#174873"/>
</g>
<defs>
<clipPath id="clip0_956_3647">
<rect width="124" height="28.6705" fill="white" transform="translate(0 0.665039)"/>
</clipPath>
</defs>
</svg>
