<svg width="13" height="14" viewBox="0 0 13 14" fill="none" xmlns="http://www.w3.org/2000/svg">
<path d="M12.9997 5.99469V8.04005C12.9204 8.22099 12.8674 8.41995 12.756 8.57945C12.5085 8.93316 12.1344 9.05525 11.7097 9.05491C8.2922 9.05423 4.87436 9.05491 1.45687 9.05389C1.33019 9.05389 1.20352 9.04777 1.07753 9.03757C0.491219 8.99097 0.0225869 8.51756 0.010127 7.93394C-0.00267914 7.32312 -0.0044129 6.71162 0.0111621 6.1008C0.0218915 5.67092 0.239941 5.34646 0.621009 5.1305C0.829367 5.01248 1.05745 4.98085 1.29177 4.98051C2.86934 4.97949 4.44726 4.97983 6.02483 4.97983C7.91979 4.97983 9.81475 4.98017 11.7097 4.97949C12.1344 4.97949 12.5085 5.10125 12.756 5.45495C12.8674 5.61446 12.9201 5.81342 12.9997 5.99435V5.99469ZM9.4496 7.02213C9.45133 6.70074 9.19175 6.44226 8.8664 6.44158C8.5421 6.4409 8.27698 6.70074 8.27767 7.01873C8.27836 7.33129 8.53968 7.59044 8.85671 7.59282C9.18413 7.59554 9.44787 7.34149 9.4496 7.02179V7.02213ZM10.0525 7.02179C10.0539 7.34149 10.3173 7.59554 10.6447 7.59316C10.9618 7.59078 11.2234 7.33197 11.2241 7.01941C11.2251 6.70142 10.96 6.44124 10.6361 6.44192C10.3107 6.4426 10.0511 6.7004 10.0525 7.02179ZM2.36679 7.02996C2.36679 6.84732 2.36887 6.66435 2.3661 6.48171C2.36333 6.28106 2.23804 6.14468 2.06671 6.15046C1.89573 6.1559 1.78186 6.28514 1.78083 6.48171C1.7791 6.83882 1.7791 7.19627 1.78083 7.55337C1.78186 7.74995 1.89539 7.87919 2.06671 7.88463C2.23838 7.89041 2.36368 7.75403 2.36645 7.55337C2.36887 7.3789 2.36679 7.20443 2.36679 7.02996ZM4.72796 7.02009C4.72796 6.83746 4.73003 6.65449 4.72727 6.47185C4.7245 6.27936 4.60059 6.14706 4.43169 6.14978C4.26833 6.1525 4.14441 6.28174 4.14268 6.46675C4.13888 6.83236 4.13922 7.19797 4.14268 7.56323C4.14441 7.75539 4.27179 7.88837 4.4393 7.88497C4.60994 7.88157 4.72554 7.75131 4.72796 7.55575C4.73003 7.3772 4.7283 7.19865 4.7283 7.02009H4.72796ZM3.53838 7.02996C3.53838 6.8225 3.54322 6.61469 3.53664 6.40723C3.53284 6.28208 3.45635 6.20079 3.33452 6.16678C3.12754 6.1093 2.9673 6.24194 2.96418 6.48103C2.95968 6.83814 2.96176 7.19559 2.96418 7.55269C2.96453 7.60915 2.97387 7.67003 2.99671 7.72138C3.04863 7.83735 3.17462 7.89721 3.29714 7.87579C3.43766 7.8513 3.52938 7.76729 3.53596 7.62751C3.5453 7.42855 3.53838 7.22926 3.53838 7.02996Z" fill="#144973"/>
<path d="M12.9996 1.62968V3.70021C12.9619 3.80905 12.9369 3.92434 12.8847 4.02603C12.6535 4.47802 12.2714 4.69637 11.7605 4.69671C8.25407 4.69739 4.74762 4.69705 1.24118 4.69705C1.21591 4.69705 1.1903 4.69705 1.16503 4.69637C0.510193 4.67154 0.0121361 4.17363 0.0065983 3.53016C0.00175275 2.95233 -0.00309263 2.37416 0.0110979 1.79667C0.0152512 1.62764 0.0550555 1.44603 0.129469 1.29435C0.350288 0.843032 0.735853 0.63285 1.24325 0.63285C4.7497 0.63285 8.25615 0.63285 11.7626 0.63285C11.7924 0.63285 11.8218 0.63251 11.8515 0.633871C12.2032 0.650195 12.4929 0.789296 12.7244 1.05185C12.8729 1.2202 12.9387 1.42324 12.9999 1.63036L12.9996 1.62968ZM9.44988 2.66869C9.45162 2.34798 9.19134 2.0878 8.86703 2.08576C8.54722 2.08406 8.27726 2.34934 8.27795 2.66529C8.27864 2.9775 8.53684 3.2336 8.85734 3.23972C9.18096 3.24584 9.4485 2.98804 9.45023 2.66869H9.44988ZM10.0525 2.66291C10.0521 2.98396 10.3138 3.24142 10.6391 3.23972C10.9579 3.23836 11.2209 2.9826 11.2244 2.67107C11.2279 2.35444 10.9645 2.09018 10.6412 2.0861C10.3203 2.08202 10.0528 2.34423 10.0521 2.66291H10.0525ZM1.78042 2.65611C1.78042 2.84282 1.77765 3.02988 1.78111 3.21659C1.78457 3.40399 1.90225 3.5271 2.07115 3.52846C2.23832 3.52948 2.36292 3.40637 2.36534 3.22033C2.36984 2.85098 2.3695 2.48129 2.36534 2.11195C2.36327 1.92353 2.24317 1.80177 2.07496 1.80075C1.89948 1.80007 1.78388 1.92387 1.78111 2.12079C1.77869 2.29934 1.78042 2.47789 1.78076 2.65645L1.78042 2.65611ZM4.72789 2.66869C4.72789 2.49014 4.72928 2.31158 4.72789 2.13303C4.72616 1.92557 4.61368 1.79973 4.4337 1.80075C4.26065 1.80143 4.144 1.92693 4.14262 2.12419C4.13985 2.48538 4.13951 2.84656 4.14262 3.20775C4.14435 3.40263 4.26549 3.52948 4.43716 3.52846C4.61091 3.52744 4.72513 3.40195 4.72755 3.20435C4.72963 3.0258 4.72789 2.84724 4.72789 2.66869ZM3.53693 2.66427C3.53693 2.45715 3.54524 2.24935 3.53416 2.04291C3.5262 1.89598 3.3971 1.79871 3.24793 1.80143C3.07487 1.8045 2.96619 1.92455 2.96412 2.12929C2.96066 2.48606 2.96169 2.84282 2.96446 3.19925C2.96481 3.2557 2.97415 3.31658 2.99665 3.36794C3.04649 3.48221 3.17455 3.54411 3.29846 3.52506C3.42375 3.50602 3.52828 3.41283 3.53416 3.28563C3.54385 3.07885 3.53658 2.87139 3.53693 2.66427Z" fill="#144973"/>
<path d="M12.9996 10.3356V12.4061C12.992 12.4248 12.9813 12.4429 12.9771 12.4623C12.9193 12.7415 12.7757 12.9676 12.5531 13.1496C12.3863 13.286 12.1859 13.3452 11.9845 13.404H1.02074C1.00586 13.3972 0.992013 13.387 0.976092 13.3836C0.383897 13.2584 0.00836645 12.8075 0.00628978 12.213C0.00421312 11.6518 -0.0034008 11.0903 0.0111358 10.5295C0.0156353 10.3519 0.0530171 10.1615 0.129854 10.0023C0.351018 9.54419 0.745239 9.33877 1.25506 9.33877C4.59607 9.33877 7.93742 9.33877 11.2784 9.33877C11.4518 9.33877 11.6252 9.33639 11.7986 9.33945C12.1887 9.34626 12.5237 9.48366 12.7484 9.80131C12.8605 9.9598 12.9176 10.1564 12.9993 10.3356H12.9996ZM9.44992 11.3682C9.44888 11.0485 9.18203 10.7907 8.85841 10.7961C8.53792 10.8015 8.27902 11.0573 8.27799 11.3695C8.27695 11.6855 8.54553 11.9507 8.86603 11.9501C9.18964 11.9494 9.4513 11.6889 9.44992 11.3685V11.3682ZM10.0525 11.3729C10.0528 11.6923 10.32 11.9538 10.6416 11.9497C10.9597 11.9456 11.2223 11.6878 11.2248 11.377C11.2272 11.0593 10.9635 10.7975 10.6395 10.7961C10.3142 10.7947 10.0521 11.0519 10.0528 11.3729H10.0525ZM1.78045 11.3729C1.78045 11.5515 1.77907 11.73 1.7808 11.9086C1.78288 12.1085 1.89329 12.2323 2.06773 12.2354C2.24217 12.2381 2.36365 12.1147 2.36573 11.9191C2.36919 11.5538 2.36919 11.1882 2.36573 10.823C2.36365 10.6301 2.23801 10.5036 2.06565 10.508C1.89675 10.5121 1.78391 10.6356 1.78115 10.825C1.77838 11.0076 1.78045 11.1903 1.78045 11.3729ZM4.72793 11.3692C4.72793 11.1906 4.72966 11.0121 4.72759 10.8335C4.72551 10.6352 4.61268 10.5097 4.43893 10.5077C4.26691 10.5057 4.14439 10.6322 4.14266 10.8267C4.13954 11.192 4.13885 11.5576 4.14266 11.9229C4.14473 12.1119 4.26311 12.2337 4.43166 12.2354C4.60714 12.2371 4.72447 12.1133 4.72724 11.9171C4.73001 11.7344 4.72793 11.5518 4.72793 11.3692ZM3.53662 11.3716C3.53662 11.1644 3.5432 10.957 3.5342 10.7502C3.52866 10.6278 3.43002 10.5363 3.31061 10.5128C3.19259 10.4897 3.06452 10.5397 3.00915 10.6471C2.98007 10.7036 2.96554 10.7733 2.96485 10.8373C2.96069 11.194 2.96173 11.5508 2.96415 11.9072C2.96415 11.9603 2.97108 12.0164 2.99046 12.0654C3.03718 12.1844 3.16628 12.25 3.29884 12.232C3.42275 12.215 3.52866 12.1208 3.53454 11.9929C3.54423 11.7861 3.53696 11.5787 3.53696 11.3712L3.53662 11.3716Z" fill="#144973"/>
</svg>
