<svg width="13" height="15" viewBox="0 0 13 15" fill="none" xmlns="http://www.w3.org/2000/svg">
<path d="M10.8506 4.44029C10.3684 4.45607 9.9355 4.58744 9.59326 4.92055C9.40217 5.10651 9.21767 5.32404 9.10235 5.56459C8.2066 7.43318 7.32568 9.30944 6.44599 11.1866C6.15523 11.8071 6.12312 12.4516 6.33233 13.1076C6.34798 13.1571 6.36322 13.2074 6.38546 13.2803C6.31833 13.2803 6.2652 13.2803 6.21166 13.2803C4.64996 13.2803 3.08868 13.2808 1.52699 13.2803C0.640711 13.2803 0.000308879 12.6201 0.000308879 11.7052C-0.00010296 8.32716 -0.00010296 4.94913 0.000308879 1.57109C0.000308879 0.665158 0.641534 0.00063978 1.51587 0.00063978C4.12034 -0.00021326 6.72439 -0.00021326 9.32886 0.00063978C10.2135 0.00063978 10.8494 0.661746 10.8502 1.5809C10.851 2.47446 10.8502 3.36844 10.8502 4.262V4.44029H10.8506ZM4.93908 3.06433C3.96879 3.06433 2.99891 3.06348 2.02862 3.06476C1.70532 3.06476 1.47675 3.28229 1.47963 3.58C1.48293 3.87174 1.70903 4.08457 2.02244 4.0867C2.31485 4.08883 2.60765 4.08713 2.90005 4.08713C4.53753 4.08713 6.17459 4.08628 7.81206 4.08798C7.99038 4.08798 8.15019 4.04789 8.2655 3.89989C8.39194 3.73781 8.42283 3.55696 8.33387 3.36418C8.23709 3.1539 8.0674 3.06476 7.84872 3.06433C6.87842 3.06433 5.90855 3.06433 4.93825 3.06433H4.93908ZM4.69238 5.10779C3.79416 5.10779 2.89595 5.10566 1.99773 5.10907C1.69832 5.10992 1.47675 5.33683 1.47963 5.62345C1.48293 5.90325 1.70202 6.12888 1.99113 6.12931C3.78757 6.13187 5.58402 6.13101 7.38005 6.13016C7.54231 6.13016 7.68193 6.06746 7.78159 5.9314C7.89938 5.7706 7.92696 5.59445 7.84047 5.40806C7.74328 5.19821 7.57402 5.10822 7.35533 5.10822C6.46741 5.10822 5.57948 5.10822 4.69155 5.10822L4.69238 5.10779ZM4.19324 8.17362C4.91149 8.17362 5.63013 8.17276 6.34838 8.17447C6.52135 8.17447 6.67498 8.12926 6.78618 7.98595C6.9122 7.82387 6.9435 7.64303 6.85413 7.45024C6.75694 7.24039 6.58766 7.15082 6.36897 7.15082C5.46581 7.15082 4.56266 7.15082 3.6595 7.15082C3.11052 7.15082 2.56154 7.14954 2.01215 7.15125C1.77081 7.1521 1.58876 7.27537 1.51422 7.47967C1.38778 7.82643 1.62789 8.17021 2.00678 8.17191C2.73532 8.17575 3.46428 8.17319 4.19282 8.17319L4.19324 8.17362ZM3.69162 10.2166C4.26119 10.2166 4.83035 10.2192 5.39992 10.2154C5.69233 10.2132 5.9102 9.99827 5.91802 9.71677C5.92585 9.43953 5.70675 9.19727 5.42216 9.19641C4.27313 9.19172 3.12369 9.19257 1.97466 9.19599C1.75721 9.19641 1.58094 9.33375 1.51257 9.53038C1.39273 9.87287 1.62913 10.2124 1.99855 10.2158C2.56277 10.2209 3.12699 10.2171 3.69162 10.2171V10.2166Z" fill="#144973"/>
<path d="M7.14526 12.2771C7.21281 12.0459 7.25234 11.8007 7.35283 11.5857C8.21316 9.74056 9.08339 7.90055 9.95401 6.06054C10.2176 5.50308 10.7756 5.30518 11.316 5.5709C11.5985 5.70952 11.8794 5.85197 12.1586 5.99827C12.6791 6.27082 12.8777 6.84577 12.6244 7.38659C11.7537 9.24452 10.8774 11.0995 10.0014 12.9544C9.81893 13.3404 9.52777 13.6036 9.13611 13.7456C8.84123 13.8522 8.54593 13.958 8.24941 14.0595C7.93682 14.1666 7.68561 14.0441 7.57812 13.7213C7.44633 13.3255 7.32606 12.9258 7.20622 12.5262C7.18398 12.4515 7.18687 12.3688 7.17822 12.2899C7.16752 12.2856 7.15639 12.2813 7.14569 12.2771H7.14526Z" fill="#144973"/>
</svg>
