<svg width="149" height="149" viewBox="0 0 149 149" fill="none" xmlns="http://www.w3.org/2000/svg">
<g clip-path="url(#clip0_53_402)">
<path d="M18.3873 127.246C21.4211 130.432 24.2916 132.486 26.5593 134.109C53.2177 153.191 84.7618 147.629 91.4656 146.271C101.365 144.265 120.501 140.387 134.336 124.156C155.267 99.6013 152.008 60.9143 135.772 35.3771C132.803 30.7055 117.116 4.77899 85.2317 0.621323C65.9363 -1.89502 43.4435 3.18009 27.1552 16.7938C-7.03564 45.3708 -4.60153 103.101 18.3873 127.246Z" fill="url(#paint0_linear_53_402)"/>
<path d="M146.375 50.2519C146.52 50.1851 146.622 50.0398 146.622 49.8722C146.624 49.3207 146.615 48.7596 146.594 48.2049C146.586 47.9769 146.39 47.8024 146.159 47.8151C145.596 47.8422 145.788 48.3905 145.782 49.8833C145.781 50.1114 145.969 50.2938 146.201 50.2906C146.263 50.2896 146.322 50.2758 146.375 50.2514L146.375 50.2519Z" fill="#91B3FA"/>
<path d="M146.06 43.0431C145.882 41.9978 145.66 40.9473 145.4 39.9206C145.344 39.7 145.116 39.569 144.89 39.6279C144.277 39.7917 144.707 40.1126 145.231 43.1926C145.269 43.417 145.485 43.5654 145.714 43.5241C145.947 43.4822 146.098 43.2647 146.06 43.0431ZM143.806 34.9918C143.415 34.0018 142.976 33.009 142.517 32.0751C142.272 31.5729 141.523 31.9638 141.759 32.4442C142.216 33.3755 142.639 34.3332 143.022 35.3026C143.106 35.5142 143.349 35.6155 143.566 35.5296C143.785 35.4426 143.889 35.2008 143.806 34.9913V34.9918ZM139.94 27.5818C139.354 26.6993 138.726 25.8291 138.07 24.9954C137.732 24.5659 137.065 25.0797 137.401 25.5077C138.043 26.3249 138.66 27.1777 139.234 28.0421C139.536 28.4971 140.241 28.0357 139.94 27.5823V27.5818ZM134.595 21.7133C134.76 21.5505 134.762 21.2885 134.599 21.1294C133.839 20.3865 133.039 19.6642 132.221 18.9827C131.8 18.6322 131.25 19.2664 131.67 19.617C132.473 20.2852 133.257 20.9926 134.001 21.7202C134.164 21.8798 134.43 21.8766 134.595 21.7138V21.7133ZM128.126 16.4807C128.254 16.2887 128.202 16.0331 128.008 15.9101C127.107 15.3373 126.172 14.7927 125.228 14.2916C124.742 14.0349 124.333 14.762 124.819 15.0202C125.744 15.5113 126.66 16.0448 127.543 16.6059C127.736 16.7289 127.997 16.6727 128.126 16.4802V16.4807ZM120.472 12.8931C120.568 12.8491 120.647 12.7706 120.689 12.6672C120.776 12.454 120.672 12.2154 120.457 12.1337C119.453 11.754 118.422 11.4088 117.392 11.1081C117.17 11.0434 116.934 11.168 116.864 11.387C116.795 11.6061 116.917 11.8357 117.139 11.9004C118.148 12.1952 119.159 12.5336 120.142 12.9053C120.253 12.9472 120.371 12.9393 120.472 12.8931ZM112.356 10.7342C112.479 10.678 112.572 10.5661 112.598 10.4266C112.639 10.2012 112.487 9.98912 112.259 9.95253C111.195 9.7823 110.111 9.65184 109.036 9.56381C108.805 9.54472 108.599 9.71389 108.576 9.94139C108.552 10.1684 108.721 10.3683 108.952 10.3869C110.006 10.4728 111.068 10.6011 112.11 10.7676C112.196 10.7814 112.282 10.7676 112.356 10.7337V10.7342ZM104.182 9.86026C104.176 9.63222 103.982 9.45616 103.751 9.46623C102.672 9.51396 101.579 9.60464 100.503 9.73616C99.9482 9.8051 100.041 10.6228 100.592 10.556C101.646 10.4277 102.717 10.3386 103.774 10.2919C104.005 10.2819 104.189 10.0888 104.182 9.86079V9.86026ZM77.9295 20.6993C80.3073 18.6067 80.875 18.5977 80.4933 18.1029C80.3546 17.9226 80.0915 17.8903 79.9054 18.0292C79.0395 18.6799 78.1884 19.3725 77.3756 20.0879C76.9583 20.4549 77.5112 21.0669 77.93 20.6993H77.9295ZM95.7965 11.002C95.7429 10.7809 95.5164 10.6478 95.2905 10.7045C94.2401 10.9681 93.1854 11.2757 92.1557 11.6188C91.6263 11.7954 91.8846 12.5771 92.413 12.4005C93.4225 12.0642 94.4559 11.7625 95.485 11.5042C95.7136 11.4464 95.8497 11.2205 95.7965 11.0015V11.002ZM84.7486 15.8252C87.4964 14.2523 88.0599 14.3547 87.7898 13.7899C87.6187 13.4319 87.1806 13.6011 87.2311 13.5995C86.2488 14.0662 85.2744 14.5758 84.3351 15.113C84.1331 15.2286 84.0619 15.4821 84.1761 15.6783C84.2851 15.8661 84.5334 15.9446 84.7486 15.8252Z" fill="#91B3FA"/>
<path d="M73.1713 25.6445C74.0622 24.5495 74.6358 24.1591 74.2068 23.7959C74.033 23.6484 73.7672 23.6681 73.6136 23.8431C72.6466 24.9387 72.1538 25.3831 72.5796 25.7151C72.7072 25.8148 73.0246 25.8233 73.1708 25.6445H73.1713Z" fill="#91B3FA"/>
<path d="M64.0738 56.4335C64.237 56.3582 64.3412 56.1859 64.3183 56.0024C64.2508 55.4636 64.1939 54.9179 64.1493 54.3791C64.1302 54.1521 63.9276 53.9861 63.6959 54.0089C63.4651 54.0323 63.2924 54.2338 63.311 54.4608C63.3567 55.0102 63.4152 55.5675 63.4838 56.1175C63.5119 56.3434 63.7219 56.5009 63.9521 56.4691C63.9951 56.4632 64.0361 56.451 64.0738 56.4335Z" fill="#91B3FA"/>
<path d="M123.126 86.9989C124.175 86.4819 125.214 85.9155 126.215 85.3152C126.415 85.1953 126.481 84.9408 126.362 84.7467C126.028 84.1999 125.828 84.7488 122.761 86.2613C122.552 86.3641 122.464 86.6129 122.565 86.8165C122.742 87.1723 123.177 86.9968 123.127 86.9984L123.126 86.9989ZM118.115 88.6578C117.912 88.0516 117.579 88.549 114.28 89.3742C114.054 89.4299 113.914 89.6558 113.968 89.8764C114.022 90.0976 114.248 90.2307 114.474 90.1745C115.602 89.8923 116.737 89.5588 117.846 89.1828C118.068 89.1075 118.186 88.8715 118.115 88.6572V88.6578ZM130.902 82.058C131.811 81.3299 132.702 80.5546 133.549 79.7538C133.718 79.5942 133.725 79.3327 133.565 79.1694C133.116 78.7096 133.045 79.2871 130.378 81.4206C130.196 81.5659 130.166 81.8263 130.311 82.0023C130.455 82.1778 130.719 82.2028 130.901 82.058H130.902ZM108.99 91.1497C109.15 91.0765 109.254 90.91 109.236 90.7292C109.214 90.5027 109.008 90.3394 108.778 90.3654C107.641 90.4921 106.487 90.5722 105.349 90.604C105.116 90.6104 104.931 90.8002 104.933 91.0283C104.936 91.2563 105.126 91.4361 105.358 91.4297C106.52 91.3974 107.698 91.3157 108.858 91.1863C108.905 91.181 108.95 91.1683 108.99 91.1497ZM99.9046 91.1677C100.033 91.1083 100.13 90.9869 100.149 90.8389C100.178 90.6125 100.015 90.4083 99.785 90.3834C98.6549 90.262 97.5162 90.0912 96.3999 89.8759C96.1729 89.8319 95.9496 89.9782 95.9013 90.202C95.8529 90.4258 95.9975 90.6427 96.2245 90.6867C97.3636 90.9063 98.5257 91.0808 99.6792 91.2049C99.759 91.2133 99.836 91.1996 99.9041 91.1683L99.9046 91.1677ZM91.0681 89.2257C91.168 89.1796 91.2504 89.0958 91.2908 88.9855C91.3695 88.7696 91.2563 88.5347 91.0383 88.461C89.9661 88.0988 88.8966 87.6873 87.8595 87.2376C87.6484 87.1464 87.3991 87.2413 87.3024 87.4502C87.2056 87.6592 87.2981 87.9031 87.5092 87.9943C88.5675 88.4531 89.6589 88.8731 90.7529 89.2427C90.8597 89.2788 90.9719 89.2697 91.0681 89.2252V89.2257ZM82.9057 85.4292C82.9779 85.3958 83.0417 85.3422 83.0874 85.2712C83.2118 85.0765 83.1539 84.822 82.9577 84.7032C81.995 84.1193 81.0462 83.4867 80.1377 82.8243C79.9527 82.6896 79.6896 82.7288 79.5487 82.9134C79.4084 83.0974 79.444 83.3557 79.629 83.4904C80.5561 84.1665 81.5241 84.8119 82.507 85.408C82.6308 85.4833 82.7807 85.4859 82.9051 85.4287L82.9057 85.4292ZM75.935 79.8726C76.397 79.4117 75.8117 79.3672 73.6146 76.8392C73.2569 76.4271 72.6131 76.9702 72.9714 77.3822C73.721 78.2445 74.5178 79.0856 75.3407 79.8821C75.5039 80.0402 75.7697 80.0375 75.935 79.8726ZM70.1913 73.0379C70.7441 72.6868 70.1881 72.5203 68.6178 69.5664C68.3631 69.0876 67.6152 69.4774 67.8714 69.9589C68.4073 70.967 68.9925 71.9624 69.6118 72.9186C69.7373 73.1121 70.0004 73.1614 70.1913 73.0379ZM66.1725 65.0943C66.3702 65.0036 66.4696 64.7782 66.3952 64.5757C66.0104 63.5214 65.668 62.4422 65.3767 61.3688C65.3172 61.1493 65.087 61.022 64.8627 61.0841C64.6378 61.1477 64.5049 61.3747 64.5645 61.5942C64.8616 62.6899 65.2114 63.7908 65.6037 64.8663C65.6813 65.08 65.9221 65.1876 66.1406 65.1076C66.1518 65.1038 66.1624 65.0991 66.1725 65.0943Z" fill="#91B3FA"/>
<path d="M137.426 75.551C138.343 74.4119 138.813 73.9473 138.372 73.6355C137.912 73.3104 137.709 73.8789 136.77 75.0461C136.625 75.2264 136.655 75.4863 136.835 75.6258C137.017 75.7652 137.281 75.7318 137.426 75.5515L137.426 75.551Z" fill="#91B3FA"/>
<path d="M132.099 65.472L126.082 65.1564C124.416 67.4172 122.376 69.4398 120.005 71.1188C120.179 76.8727 120.6 77.264 120 77.5117L113.288 80.2815C113.092 80.3621 112.867 80.3128 112.729 80.1585L108.778 75.7516C105.913 76.2336 103.04 76.2384 100.265 75.8104L96.2207 80.2783C96.0788 80.4348 95.8534 80.4873 95.6589 80.4093L89.0024 77.7365C88.8078 77.6586 88.6871 77.4666 88.702 77.2593L89.1278 71.3388C86.8564 69.7405 84.8342 67.7698 83.1667 65.4683L77.1465 65.8708C76.9355 65.8851 76.7409 65.7658 76.6617 65.5749L73.9596 59.0249C73.8804 58.8335 73.9347 58.6118 74.0947 58.4729L78.6477 54.5125C78.207 51.704 78.2516 48.8806 78.7359 46.1452C74.446 42.2469 73.8847 42.2829 74.1367 41.6975C77.0317 35.2822 76.8041 34.7694 77.4633 34.8039L83.4803 35.1194C85.1463 32.8587 87.1865 30.8361 89.5579 29.1571C89.3835 23.4064 88.962 23.0118 89.5627 22.7642C96.2787 20.1264 96.4095 19.6433 96.8342 20.1174L100.785 24.5243C103.651 24.0422 106.523 24.0369 109.298 24.4654C113.29 20.233 113.304 19.6258 113.904 19.8665C120.444 22.6274 120.906 22.377 120.861 23.0166L120.435 28.937C122.706 30.5354 124.728 32.506 126.396 34.8081C132.151 34.5414 132.655 34.1034 132.902 34.7015C135.457 41.2292 135.961 41.375 135.469 41.8035L130.916 45.7644C131.356 48.5724 131.311 51.3958 130.827 54.1317C135.102 58.0168 135.68 57.9914 135.427 58.5795C132.532 64.9947 132.759 65.5075 132.1 65.473L132.099 65.472Z" fill="#91B3FA"/>
<path d="M111.772 49.0825C111.246 45.3035 107.683 42.7023 103.829 43.2846C99.9748 43.868 97.2658 47.4147 97.7905 51.1937C98.3157 54.9727 101.879 57.5739 105.733 56.9922C109.589 56.4099 112.296 52.861 111.772 49.0831V49.0825ZM105.648 56.3791L105.645 56.3807L105.648 56.3791ZM103.999 44.5091C107.127 44.0366 110.084 46.1207 110.522 49.2708C110.954 52.3747 108.729 55.2893 105.563 55.7666C102.398 56.2444 99.4714 54.1083 99.0397 51.0049C98.6075 47.8968 100.839 44.9859 103.999 44.5096V44.5091Z" fill="#BDD0FB"/>
<path d="M112.081 66.148C113.031 65.7111 113.944 65.1961 114.801 64.6112C115.058 64.4357 115.146 64.1085 115.023 63.8407C115.008 63.8088 114.99 63.7775 114.97 63.7479C114.775 63.4678 114.382 63.401 114.094 63.5967C113.109 64.2691 112.043 64.8429 110.929 65.3033C102.535 68.7673 92.9877 65.1033 89.3043 57.1306C89.2102 56.927 89.1204 56.7207 89.0337 56.5112C85.5476 48.0596 89.7679 38.3834 98.3609 34.8346C106.943 31.2931 116.775 35.1989 120.256 43.6267C122.325 48.644 121.08 52.1971 121.317 52.712C121.574 53.2683 122.417 53.1416 122.515 52.5349C123.049 49.2199 122.629 45.715 121.134 42.4785C114.684 28.5148 94.1555 29.086 88.0025 43.3864C86.109 47.7875 86.0595 52.6197 87.8637 56.9943C87.9568 57.2207 88.0546 57.4445 88.1566 57.6657C90.0267 61.7152 93.3396 64.8525 97.5545 66.5453C102 68.3303 106.916 68.2942 111.398 66.4445C111.627 66.3501 111.855 66.2509 112.079 66.1475L112.081 66.148Z" fill="#BDD0FB"/>
<path d="M59.6877 39.9048C58.6708 41.1007 57.4551 42.1438 56.0692 42.9764L56.0017 46.3317C55.9943 46.704 55.6753 46.5603 51.967 47.8251C51.6236 47.9354 51.6619 47.6156 49.6408 45.0446C48.0285 45.1767 46.4316 45.0388 44.9055 44.6607L42.4777 46.9872C42.2077 47.2454 42.0849 46.9182 38.5663 45.1974C38.4611 45.1438 38.4021 45.0293 38.4185 44.9131L38.8927 41.5886C37.694 40.5741 36.6484 39.3613 35.8138 37.9787C32.6009 37.8472 32.3053 38.0689 32.1926 37.7199C31.0322 33.9022 30.76 33.7983 31.0503 33.5808L33.7406 31.5656C33.6083 29.9572 33.7465 28.3636 34.1255 26.8416L31.7934 24.4197C31.5345 24.1513 31.8625 24.0278 33.5875 20.5176C33.7507 20.1989 33.9373 20.4487 37.2055 20.8432C38.2224 19.6474 39.4376 18.6042 40.8234 17.7716L40.8909 14.4163C40.8984 14.0435 41.2173 14.1878 44.9257 12.923C45.2669 12.8132 45.2207 13.1192 47.2513 15.7039C48.8636 15.5719 50.461 15.7098 51.9867 16.0879L54.4144 13.7614C54.4995 13.6797 54.627 13.6612 54.7323 13.7147L58.3258 15.5512C58.4305 15.6048 58.4901 15.7193 58.4736 15.8355L57.9994 19.16C59.1981 20.1745 60.2437 21.3868 61.0783 22.7698C64.2912 22.9014 64.5868 22.6797 64.6995 23.0286C65.8594 26.8448 66.1326 26.9498 65.8418 27.1677L63.1515 29.1829C63.2839 30.7914 63.1457 32.385 62.7666 33.907C64.9456 36.2663 65.3134 36.3183 65.1455 36.6455L63.3046 40.2304C63.1398 40.5508 62.9378 40.2973 59.6866 39.9048H59.6877Z" fill="#91B3FA"/>
<path d="M52.6517 30.1026C52.5007 27.7846 50.4988 26.0298 48.1747 26.1799C45.8517 26.3299 44.0921 28.3276 44.2426 30.6456C44.393 32.9583 46.4013 34.7179 48.7196 34.5684C51.0378 34.4183 52.8016 32.4153 52.6517 30.1021V30.1026ZM48.6792 33.9436L48.6754 33.9452L48.6792 33.9436ZM51.3987 30.1832C51.504 31.807 50.2654 33.2134 48.6388 33.3184C46.0255 33.4871 44.4908 30.3969 46.2254 28.4273C47.952 26.4662 51.2286 27.5597 51.3987 30.1832Z" fill="#BDD0FB"/>
<path d="M69.5943 36.6623C69.7564 36.1214 69.8989 35.5667 70.018 35.0135C70.0663 34.7882 69.9228 34.566 69.6969 34.5177C69.1281 34.3957 69.2089 35.0294 68.7921 36.4236C68.7257 36.6448 68.8522 36.8771 69.0733 36.9433C69.2939 37.0091 69.5278 36.8845 69.5943 36.6628V36.6623Z" fill="#91B3FA"/>
<path d="M70.4895 29.4508C70.4427 28.343 70.3098 27.1895 70.0791 26.0356C69.9706 25.4925 69.1499 25.6591 69.2583 26.1994C69.8574 29.1894 69.3896 29.9159 70.0897 29.8862C70.3226 29.8761 70.4996 29.6804 70.49 29.4513L70.4895 29.4508ZM68.1 21.3031C68.3079 21.2023 68.3945 20.952 68.2935 20.7446C67.7917 19.7164 67.2038 18.7183 66.5457 17.7786C66.2283 17.3262 65.542 17.804 65.8594 18.2569C66.4925 19.1606 67.0581 20.1205 67.5408 21.11C67.7183 21.4743 68.151 21.3015 68.1005 21.3031H68.1ZM62.6912 14.3416C62.7443 14.3172 62.7932 14.2812 62.8336 14.234C62.9841 14.0584 62.9633 13.7954 62.7879 13.6448C61.9156 12.9002 60.9784 12.2182 60.0019 11.6185C59.8052 11.4975 59.5468 11.5591 59.4262 11.7547C59.305 11.951 59.3661 12.2087 59.5628 12.3291C60.5021 12.9066 61.4042 13.5626 62.2436 14.279C62.3722 14.3883 62.5471 14.4069 62.6912 14.3411V14.3416ZM54.9588 10.0975C55.0635 10.0493 55.1475 9.95858 55.1841 9.84031C55.2522 9.6197 55.1278 9.38637 54.9067 9.31902C53.8095 8.98386 52.6772 8.73249 51.5401 8.57339C51.311 8.54158 51.0995 8.70067 51.067 8.92923C51.0351 9.15727 51.1946 9.36887 51.4237 9.40068C52.5172 9.55394 53.6064 9.79524 54.6616 10.1177C54.7637 10.149 54.8689 10.1394 54.9593 10.098L54.9588 10.0975ZM46.4098 8.86878C46.3838 8.63968 46.1765 8.47476 45.9468 8.50074C44.8029 8.63014 43.6637 8.84916 42.5606 9.1525C42.028 9.29621 42.2475 10.1044 42.7834 9.95751C43.8444 9.66584 44.9405 9.45478 46.0415 9.33068C46.2769 9.30311 46.4359 9.0931 46.4104 8.86878H46.4098Z" fill="#91B3FA"/>
<path d="M36.415 12.9191C37.6797 12.0499 38.2368 11.9603 37.9529 11.4724C37.837 11.273 37.585 11.2014 37.3809 11.3207C36.8929 11.6028 36.4081 11.9094 35.9398 12.2313C35.7495 12.3623 35.7016 12.6221 35.8329 12.812C35.9621 12.9986 36.2205 13.0511 36.415 12.9186V12.9191Z" fill="#91B3FA"/>
<path d="M27.3861 27.6696C27.5817 26.1444 27.8858 25.675 27.3324 25.5605C27.1059 25.5138 26.8843 25.6586 26.8375 25.8845C26.7227 26.4355 26.6281 27.0008 26.5558 27.5635C26.5265 27.7921 26.6886 28.0015 26.9178 28.0307C27.1463 28.0599 27.3569 27.8987 27.3861 27.6696Z" fill="#91B3FA"/>
<path d="M55.6631 50.739C55.4446 50.0803 54.9497 50.7586 51.967 51.2555C51.4221 51.3451 51.5572 52.1703 52.1047 52.0796C53.2199 51.894 54.3278 51.6203 55.3973 51.2671C55.6131 51.1966 55.737 50.9612 55.6631 50.7395V50.739ZM47.06 51.9269C47.0786 51.6972 46.9074 51.4952 46.6767 51.4766C43.6371 51.2274 43.1156 50.5915 42.9514 51.2682C42.8971 51.4925 43.0353 51.7179 43.2602 51.772C44.3563 52.0361 45.4828 52.2169 46.6086 52.3087C46.8394 52.3272 47.0408 52.1565 47.06 51.9263V51.9269ZM38.6827 49.6523C39.0091 49.0377 38.1831 49.1554 35.7532 47.346C35.3093 47.0162 34.808 47.6849 35.2524 48.0153C36.1577 48.6893 37.1215 49.2986 38.1166 49.8252C38.3207 49.9334 38.5743 49.856 38.6827 49.6523ZM31.8748 44.2739C32.4175 43.8353 31.6079 43.6211 30.0839 41.0072C29.8058 40.5299 29.0813 40.9488 29.3599 41.4272C29.9271 42.3998 30.5745 43.3363 31.2858 44.2124C31.4314 44.3922 31.6951 44.4187 31.8748 44.2739ZM28.0171 36.1458C27.1889 33.22 27.603 32.5057 26.9087 32.5905C26.6791 32.6181 26.5159 32.8265 26.5435 33.0556C26.6807 34.1767 26.905 35.293 27.2112 36.3733C27.2739 36.5949 27.5052 36.7243 27.7279 36.6618C27.9501 36.5992 28.0798 36.3685 28.0171 36.1463V36.1458Z" fill="#91B3FA"/>
<path d="M60.3798 48.8881C60.8561 48.5816 61.3266 48.2533 61.7768 47.9118C61.9608 47.7723 61.9969 47.5103 61.8571 47.3263C61.5047 46.8639 61.1549 47.3958 59.9264 48.1854C59.7324 48.3106 59.676 48.5688 59.8015 48.7629C59.9285 48.9597 60.1895 49.0106 60.3804 48.8876L60.3798 48.8881Z" fill="#91B3FA"/>
<path d="M53.5538 39.2946C53.8988 39.0978 53.9684 38.7091 53.8047 38.4264C53.6308 38.1268 53.2439 38.0255 52.9467 38.1979C52.3896 38.5193 51.7926 38.7839 51.1723 38.9838C51.0367 39.0002 47.8462 40.2704 44.2186 38.4227C37.0247 34.7455 37.8747 24.1515 45.5768 21.6749C50.0076 20.2494 54.7504 22.4009 56.6513 26.5188C58.5666 30.6658 56.4015 32.8232 57.7267 33.1291C58.0642 33.2076 58.4018 32.9976 58.4805 32.6609C58.9036 30.843 58.8223 28.9391 58.245 27.1541C56.494 21.7338 50.6423 18.7295 45.1914 20.4827C39.326 22.3691 36.3331 28.9842 38.9634 34.6787C41.0844 39.2718 46.4194 41.8295 51.5582 40.176C52.2535 39.9522 52.9254 39.6557 53.5543 39.2951L53.5538 39.2946Z" fill="#BDD0FB"/>
<path d="M55.2708 54.2718C55.2867 54.0761 55.4871 53.9069 55.8263 53.7706C55.4574 53.5675 55.2538 53.3506 55.2708 53.1369C55.3229 52.4915 57.3711 52.1298 59.8456 52.3292C62.3201 52.5281 64.2838 53.2127 64.2317 53.8576C64.2157 54.0533 64.0153 54.2225 63.6762 54.3587C64.0451 54.5619 64.2487 54.7787 64.2317 54.9919C64.2157 55.1876 64.0153 55.3568 63.6762 55.4931C64.0451 55.6957 64.2487 55.9131 64.2317 56.1263C64.2157 56.322 64.0153 56.4911 63.6762 56.6274C64.0451 56.8305 64.2487 57.0474 64.2317 57.2612C64.2088 57.5465 63.7947 57.7761 63.1265 57.9267C63.135 58.1378 63.1302 58.3684 63.1095 58.6241C63.0128 59.813 61.6721 60.7453 59.8993 60.7453C58.1265 60.7453 56.5918 59.4742 56.5742 58.2815C56.57 57.9893 56.5822 57.7321 56.6088 57.5035C55.7604 57.2208 55.2437 56.8756 55.2708 56.541C55.2867 56.3453 55.4871 56.1761 55.8263 56.0404C55.4574 55.8378 55.2538 55.6204 55.2708 55.4066C55.2867 55.211 55.4871 55.0418 55.8263 54.906C55.4574 54.7034 55.2538 54.486 55.2708 54.2723V54.2718Z" fill="url(#paint1_linear_53_402)"/>
<path d="M60.9906 58.1834C61.7253 58.1834 62.3977 58.1293 62.9532 58.0232C62.9857 58.0169 63.0064 57.9861 63.0005 57.9538C62.9942 57.9214 62.9633 57.9007 62.9309 57.9066C62.0618 58.0726 60.9003 58.1092 59.6617 58.0095C58.6479 57.9278 57.6996 57.765 56.9198 57.5375C56.8884 57.5285 56.8554 57.5465 56.8459 57.5778C56.8368 57.6091 56.8549 57.642 56.8863 57.6515C57.6741 57.8806 58.6304 58.0455 59.6521 58.1277C60.1125 58.1648 60.5622 58.1829 60.9906 58.1829V58.1834Z" fill="url(#paint2_linear_53_402)"/>
<path d="M60.9779 57.0472C61.9326 57.0472 62.7858 56.9576 63.3875 56.7868C63.4189 56.7778 63.4375 56.7449 63.4285 56.7136C63.4194 56.6824 63.3865 56.6638 63.3551 56.6728C62.4977 56.9162 61.1166 56.9921 59.6611 56.8749C58.2216 56.7593 56.8788 56.4676 56.0692 56.0953C56.0395 56.0815 56.0039 56.0948 55.9906 56.1245C55.9767 56.1542 55.99 56.1892 56.0198 56.203C56.8411 56.5811 58.1988 56.8765 59.6516 56.9931C60.105 57.0297 60.5515 57.0472 60.9779 57.0472Z" fill="url(#paint3_linear_53_402)"/>
<path d="M60.9901 55.914C62.0208 55.914 62.9229 55.809 63.5305 55.609C63.5619 55.599 63.5784 55.565 63.5683 55.5343C63.5582 55.503 63.5247 55.486 63.4933 55.4966C62.6481 55.7745 61.216 55.8657 59.6617 55.7411C58.2222 55.6255 56.8794 55.3338 56.0698 54.9615C56.04 54.9477 56.0044 54.961 55.9911 54.9907C55.9773 55.0204 55.9906 55.0554 56.0203 55.0692C56.8416 55.4473 58.1998 55.7427 59.6521 55.8593C60.1125 55.8965 60.5627 55.9145 60.9906 55.9145L60.9901 55.914Z" fill="url(#paint4_linear_53_402)"/>
<path d="M60.9821 54.7794C61.7997 54.7794 62.5434 54.7137 63.1218 54.5853C63.1536 54.5784 63.1738 54.5466 63.1669 54.5148C63.16 54.483 63.1281 54.4628 63.0962 54.4697C62.2266 54.6622 60.9747 54.7126 59.6611 54.6065C58.2344 54.492 56.8985 54.2035 56.0879 53.8355C56.0581 53.8217 56.023 53.8355 56.0092 53.8646C55.9954 53.8943 56.0092 53.9293 56.0384 53.9431C56.8608 54.3165 58.2115 54.6087 59.6516 54.7248C60.1066 54.7614 60.5542 54.7794 60.9821 54.7794Z" fill="url(#paint5_linear_53_402)"/>
<path d="M65.8918 48.5453C66.1922 47.4836 66.703 46.4909 67.3904 45.6265C68.8634 43.7746 71.2667 40.0078 71.5622 34.8675C71.9923 27.39 65.3453 23.6465 59.2795 24.1551C53.2136 24.6631 47.2285 29.1692 47.8834 36.1254C48.2863 40.4055 50.688 43.6521 52.4757 45.5167C53.6112 46.7004 54.4208 48.1508 54.8594 49.7295C55.3957 51.662 56.6726 54.0707 59.7079 54.2176C63.6352 54.4074 65.2661 50.7557 65.8918 48.5458V48.5453Z" fill="url(#paint6_linear_53_402)"/>
<path d="M58.7048 52.7262L56.5822 38.955C56.5386 38.6708 56.3978 38.4793 56.2686 38.5281C56.1394 38.5769 56.0703 38.8474 56.1139 39.1316C56.115 39.139 56.1165 39.1486 56.1181 39.156L58.5358 52.7994C58.5538 52.9017 58.6059 52.967 58.6522 52.9442C58.6968 52.9224 58.7197 52.8254 58.7043 52.7262H58.7048Z" fill="url(#paint7_linear_53_402)"/>
<path d="M60.9082 52.8356L63.0308 39.0644C63.075 38.7801 63.2153 38.5887 63.3445 38.6375C63.4736 38.6863 63.5433 38.9567 63.4992 39.241C63.4981 39.2484 63.4965 39.2579 63.4949 39.2654L61.0773 52.9088C61.0592 53.0111 61.0071 53.0763 60.9609 53.0535C60.9162 53.0318 60.8933 52.9347 60.9088 52.8356H60.9082Z" fill="url(#paint8_linear_53_402)"/>
<path d="M56.5976 37.7726C56.6513 37.6862 56.7762 37.6538 56.8762 37.7005L58.0579 38.2515L58.4683 37.0853C58.4901 37.0244 58.54 36.9708 58.6118 36.9411C58.7479 36.8854 58.9105 36.9353 58.9749 37.053L58.977 37.0567L59.9487 38.8248L60.8508 36.3084L60.8524 36.3042C60.8747 36.2427 60.921 36.1875 60.989 36.1504C61.14 36.0682 61.3399 36.1074 61.435 36.2379L62.7938 38.1041C62.849 38.1804 62.8299 38.2828 62.7459 38.3395C62.6561 38.4 62.5269 38.3857 62.4567 38.3083L61.2601 36.9772L60.1832 39.371L60.1821 39.3726C60.1646 39.4108 60.1321 39.4442 60.0869 39.4654C59.9859 39.5126 59.86 39.4802 59.8052 39.3927L58.766 37.7286L58.3747 38.5702L58.3715 38.5777C58.3689 38.5835 58.3657 38.5898 58.362 38.5957C58.3083 38.6821 58.1833 38.7145 58.0834 38.6678L56.6806 38.0139C56.5806 37.9673 56.5434 37.8596 56.5971 37.7732L56.5976 37.7726Z" fill="white"/>
<path d="M52.43 43.7415C52.4858 43.7415 52.5422 43.7245 52.5906 43.6885C52.7102 43.5999 52.7351 43.4318 52.6464 43.3125C52.2849 42.8267 51.9537 42.325 51.6619 41.8207C51.5875 41.6924 51.4227 41.6484 51.294 41.7226C51.1654 41.7969 51.1207 41.9613 51.1957 42.0896C51.4976 42.6114 51.8405 43.1311 52.2142 43.6333C52.2668 43.7044 52.3481 43.742 52.4305 43.742L52.43 43.7415Z" fill="white"/>
<path d="M50.6838 40.7521C50.7194 40.7521 50.7561 40.7447 50.7912 40.7298C50.9278 40.6704 50.9905 40.5124 50.931 40.3761C48.6882 35.2236 50.6226 30.8988 50.6423 30.8554C50.7045 30.7207 50.645 30.561 50.5099 30.499C50.3744 30.4375 50.2144 30.4963 50.1527 30.631C50.0677 30.8156 48.0992 35.2193 50.4371 40.5898C50.4812 40.6911 50.5801 40.7516 50.6843 40.7516L50.6838 40.7521Z" fill="white"/>
<path d="M95.5525 138.719C95.5525 138.719 95.9029 140.592 96.0831 142.447C96.1538 143.172 95.5988 143.808 94.8695 143.845C92.3912 143.972 87.0908 144.223 85.1872 144.156C84.9012 144.146 84.7115 143.856 84.8146 143.589C84.9012 143.366 85.0703 143.185 85.2877 143.082L94.0083 138.983L95.5525 138.719Z" fill="url(#paint9_linear_53_402)"/>
<path d="M95.8141 137.615L95.5685 139.861C95.5685 139.861 94.0407 140.588 92.9855 139.796L93.5969 137.289L95.8141 137.615Z" fill="url(#paint10_linear_53_402)"/>
<path d="M95.2097 95.4287C95.3303 96.0136 96.1081 124.666 93.1604 137.538C93.1126 137.748 93.221 137.963 93.4214 138.042C93.894 138.229 94.82 138.499 95.9268 138.525C96.2696 138.534 96.5748 138.308 96.6683 137.98C97.5178 134.992 101.581 120.023 101.993 105.757C102.454 89.8153 101.987 105.214 101.987 105.214L101.533 95.3672L95.2091 95.4287H95.2097Z" fill="url(#paint11_linear_53_402)"/>
<path d="M105.638 139.602C105.638 139.602 106.176 140.543 106.712 143.056C106.808 143.509 106.494 143.947 106.032 143.997C105.215 144.085 103.955 144.2 102.946 144.203C102.481 144.204 102.113 143.804 102.165 143.342C102.268 142.423 102.602 140.913 103.667 139.727L105.638 139.602V139.602Z" fill="url(#paint12_linear_53_402)"/>
<path d="M106.074 136.711L105.483 140.11C105.483 140.11 104.871 140.574 103.648 140.253L103.911 136.6L106.074 136.711Z" fill="url(#paint13_linear_53_402)"/>
<path d="M107.372 96.1921C110.028 111.288 107.185 133.567 106.195 137.932C106.135 138.199 105.921 138.405 105.65 138.452C105.191 138.533 104.434 138.602 103.685 138.393C103.427 138.321 103.244 138.091 103.231 137.824C103.06 134.304 103.102 112.688 100.68 104.168C100.557 103.736 100.288 103.361 99.919 103.105L95.3463 99.9271L94.9481 94.7236L107.371 96.1915L107.372 96.1921Z" fill="url(#paint14_linear_53_402)"/>
<path d="M91.0957 67.6941C98.6203 67.4984 106.944 69.5147 106.944 69.5147C109.313 82.5519 107.606 97.6314 107.606 97.6314C101.794 99.2112 95.198 96.8174 95.198 96.8174C94.1773 91.3684 89.5122 76.0502 89.5122 76.0502C85.831 75.6302 82.7914 74.6004 80.2834 73.2247C82.1652 71.0064 83.0354 68.1979 83.4091 66.5391C86.0776 67.3388 88.7749 67.7535 91.0957 67.6936V67.6941Z" fill="url(#paint15_linear_53_402)"/>
<path d="M68.7597 56.8474C69.4906 55.9496 70.4305 56.3622 70.4305 56.3622C71.5824 61.0189 77.4261 64.7475 83.4096 66.5405C83.0359 68.1994 82.1657 71.0079 80.2839 73.2262C70.3295 67.7666 68.7602 56.8474 68.7602 56.8474H68.7597Z" fill="url(#paint16_linear_53_402)"/>
<path d="M68.941 57.0727C68.866 57.3188 69.7655 57.6836 70.2832 56.6755C70.297 56.1945 70.5703 54.1316 70.2784 53.7423C68.7246 51.6704 65.7249 49.083 65.7249 49.083C65.2268 49.5826 65.6457 50.0646 65.6457 50.0646L67.1028 51.5506C66.8061 52.0973 66.4425 52.5603 66.2761 53.22C66.1502 53.7195 66.2352 54.2515 66.492 54.7027C66.7498 55.1556 67.1006 55.7438 67.4318 56.2041C68.0585 57.0748 68.9404 57.0727 68.9404 57.0727H68.941Z" fill="url(#paint17_linear_53_402)"/>
<path d="M67.7439 52.5171L69.0696 53.6165L69.4933 54.7195L68.3334 56.0283C68.3334 56.0283 67.9182 53.8355 67.6205 53.3625C67.3228 52.8899 67.4727 52.6587 67.7444 52.5166L67.7439 52.5171Z" fill="url(#paint18_linear_53_402)"/>
<path d="M104.127 76.8127L106.944 69.5156C106.944 69.5156 114.02 74.2137 115.233 80.2439C113.906 80.3542 111.493 80.7217 109.138 81.9361C108.591 79.0883 104.127 76.8127 104.127 76.8127H104.127Z" fill="url(#paint19_linear_53_402)"/>
<path d="M98.0494 83.7124C98.0494 83.7124 105.984 88.087 108.611 84.2623C109.157 83.4679 109.281 82.6825 109.138 81.9364C111.493 80.722 113.906 80.3544 115.234 80.2441C115.6 82.0621 115.434 84.0009 114.38 85.9689C109.797 94.526 97.024 85.6634 97.024 85.6634L98.0499 83.7124H98.0494Z" fill="url(#paint20_linear_53_402)"/>
<path d="M98.6602 61.5269L101.121 68.4125C101.162 68.5265 101.116 68.6538 101.01 68.7132C100.361 69.0796 98.0186 70.1424 95.1677 68.377C94.8705 68.1929 94.6669 67.8901 94.6186 67.5449L93.7861 61.573L98.6602 61.5264V61.5269Z" fill="url(#paint21_linear_53_402)"/>
<path d="M93.389 55.1797C93.389 55.1797 90.8066 60.1429 91.1627 62.1342C91.5189 64.1256 94.7764 63.9516 97.6066 62.3045L99.5442 56.9536L93.389 55.1797Z" fill="url(#paint22_linear_53_402)"/>
<path d="M97.4556 59.6869C97.3397 59.6371 97.2956 59.496 97.3637 59.3899C97.5715 59.067 97.9601 58.4083 98.0802 57.8335C98.0802 57.8335 98.5501 57.5269 96.8703 57.1425C95.1905 56.758 92.6857 56.1609 92.1467 54.7428C91.6215 53.3603 92.9334 49.8581 95.1071 52.6178C95.19 52.7228 95.35 52.7239 95.4303 52.6168C95.7779 52.1564 96.6939 51.1992 97.984 51.7619C99.1912 52.2885 99.3353 53.1662 99.3231 53.609C99.3193 53.7394 99.4374 53.8397 99.5655 53.8137C100.172 53.6922 101.63 53.5793 102.325 55.0652C102.897 56.2892 102.54 56.9887 102.211 57.3323C102.105 57.4437 102.154 57.625 102.302 57.6685C102.702 57.7868 103.221 58.1198 103.179 59.0537C103.12 60.345 101.672 60.2453 101.26 60.1902C101.192 60.1812 101.124 60.205 101.079 60.2559C100.73 60.6489 99.154 62.3194 97.4344 62.5358C97.2855 62.5543 97.1686 62.4085 97.2159 62.2664L97.9404 60.0984C97.9739 59.9977 97.925 59.8879 97.8272 59.846L97.4561 59.6864L97.4556 59.6869Z" fill="url(#paint23_linear_53_402)"/>
<path d="M97.159 59.9968C97.159 59.9968 99.019 58.6976 99.1663 59.7752C99.3135 60.8528 97.4955 61.3545 96.5886 60.9604L97.159 59.9963V59.9968Z" fill="url(#paint24_linear_53_402)"/>
<path d="M99.6712 90.6266L95.3489 75.5673C95.3 75.3965 95.1539 75.2719 94.9768 75.2512C94.1938 75.16 91.9245 74.9039 89.3043 74.6832C86.1483 74.417 82.483 74.2012 80.2929 74.3847C79.9814 74.4107 79.7932 74.7395 79.932 75.0189C81.1775 77.5326 86.3003 87.7581 88.8658 91.1076C88.9508 91.2184 89.0821 91.2837 89.2225 91.2821L99.2513 91.1887C99.5431 91.1861 99.752 90.9066 99.6718 90.6266H99.6712Z" fill="url(#paint25_linear_53_402)"/>
<path d="M98.6267 86.988C98.6267 86.988 99.229 84.5177 98.986 83.6417C98.7431 82.7651 98.2727 81.6387 96.704 81.889C95.1353 82.1393 93.2848 82.7985 93.2848 82.7985C93.2848 82.7985 93.3784 83.9397 94.5707 83.5717L93.8313 84.1423C93.8313 84.1423 93.9371 85.056 94.9439 84.5681L94.2566 85.3249C94.2566 85.3249 94.6893 86.0753 95.4298 85.5943C96.1708 85.1128 96.5259 87.2855 98.6267 86.988Z" fill="url(#paint26_linear_53_402)"/>
<path d="M89.5919 79.178C89.5919 79.8769 89.0236 80.4438 88.323 80.4438C87.6224 80.4438 87.0541 79.8769 87.0541 79.178C87.0541 78.479 87.6224 77.9121 88.323 77.9121C89.0236 77.9121 89.5919 78.479 89.5919 79.178Z" fill="#91B3FA"/>
<path d="M94.8594 80.013L95.1831 79.9175L94.3033 76.9393C94.1598 76.4541 93.7675 76.0897 93.2795 75.9884C90.4897 75.4072 83.1427 75.289 82.8318 75.2842L82.8265 75.6209C82.9025 75.622 90.4525 75.744 93.2104 76.3178C93.5766 76.3941 93.8717 76.6683 93.9801 77.0342L94.8599 80.0125L94.8594 80.013Z" fill="#91B3FA"/>
<path d="M146.016 122.156C146.477 122.837 148.308 138.237 148.595 143.925C148.614 144.31 148.306 144.63 147.92 144.63C147.587 144.63 147.304 144.389 147.252 144.06L143.903 122.646L146.016 122.156Z" fill="#7D97F4"/>
<path d="M131.292 122.156C130.832 122.837 129 138.237 128.714 143.925C128.694 144.31 129.003 144.63 129.389 144.63C129.722 144.63 130.005 144.389 130.057 144.06L133.406 122.646L131.292 122.156Z" fill="#7D97F4"/>
<path d="M148.787 120.955L148.788 121.123C148.8 122.331 147.756 123.322 146.449 123.344L130.967 123.607C129.68 123.629 128.606 122.701 128.544 121.511L128.536 121.357C128.47 120.117 129.527 119.072 130.869 119.048L146.359 118.771C147.684 118.747 148.776 119.729 148.787 120.955V120.955Z" fill="#7D97F4"/>
<path d="M116.172 143.366C118.924 143.366 120.142 143.131 120.687 142.916C120.581 143.367 120.179 143.723 119.67 143.723H109.933C109.605 143.723 109.399 143.41 109.477 143.126C110.587 143.215 112.944 143.366 116.173 143.366H116.172Z" fill="#91B3FA"/>
<path d="M109.476 143.126C109.492 143.069 109.515 143.013 109.556 142.961C110.298 142.016 111.788 140.532 113.815 140.561C116.783 140.603 117.819 140.924 120.126 140.579L120.67 142.379C120.726 142.562 120.727 142.746 120.687 142.916C120.142 143.13 118.925 143.366 116.172 143.366C112.944 143.366 110.586 143.215 109.476 143.126V143.126Z" fill="url(#paint27_linear_53_402)"/>
<path d="M119.457 138.64L120.125 140.907C120.125 140.907 118.646 141.579 117.344 141.039L117.088 139.076L119.457 138.64V138.64Z" fill="url(#paint28_linear_53_402)"/>
<path d="M99.2773 141.939C101.423 143.658 102.519 144.237 103.078 144.41C102.714 144.694 102.178 144.718 101.781 144.4L94.1912 138.317C93.9355 138.112 93.97 137.74 94.2082 137.568C95.0178 138.331 96.7608 139.921 99.2779 141.939H99.2773Z" fill="#91B3FA"/>
<path d="M94.2076 137.569C94.2555 137.534 94.3092 137.505 94.373 137.49C95.5414 137.221 97.63 137.001 99.1918 138.29C101.48 140.177 102.086 141.073 104.1 142.247L103.4 143.984C103.329 144.161 103.215 144.304 103.078 144.411C102.519 144.238 101.422 143.66 99.2768 141.94C96.7598 139.922 95.0167 138.332 94.2071 137.569L94.2076 137.569Z" fill="url(#paint29_linear_53_402)"/>
<path d="M133.75 112.812C133.75 112.812 117.272 114.154 113.892 115.742C110.511 117.329 116.65 139.578 116.65 139.578C116.65 139.578 117.57 140.02 119.618 139.385C119.618 139.385 117.518 122.966 119.08 119.405L136.921 116.494L133.749 112.812L133.75 112.812Z" fill="url(#paint30_linear_53_402)"/>
<path d="M105.738 139.122C105.585 139.261 104.101 142.247 104.101 142.247C104.101 142.247 102.449 141.891 102.112 140.847L103.599 138.152L105.738 139.122Z" fill="url(#paint31_linear_53_402)"/>
<path d="M143.675 112.675C143.675 112.675 144.212 113.964 144.19 115.677C144.159 118.046 142.25 119.968 139.879 120.086L120.399 120.973C119.988 120.991 119.64 121.275 119.536 121.673C119.079 123.44 116.841 128.864 105.904 139.687C105.613 139.975 105.16 140.024 104.813 139.806L103.256 138.825C103.093 138.722 103.04 138.509 103.138 138.342L114.48 119.02C115.076 118.039 116.033 117.331 117.147 117.047L133.749 112.813L143.674 112.675L143.675 112.675Z" fill="url(#paint32_linear_53_402)"/>
<path d="M124.478 82.4932C124.478 82.4932 126.564 86.1741 128.692 87.957L124.294 90.4049C124.294 90.4049 123.303 86.5082 121.039 85.3675L124.478 82.4937V82.4932Z" fill="url(#paint33_linear_53_402)"/>
<path d="M144.028 112.813C144.028 112.813 138.769 114.091 133.75 112.813C133.75 112.813 126.726 103.393 124.009 100.83C124.009 100.83 119.675 107.653 110.028 108.62L109.49 107.421C109.49 107.421 117.17 103.889 119.534 98.4614C121.899 93.0342 122.848 90.7199 125 89.3034C126.339 88.4215 127.141 87.819 127.556 87.4903C127.783 87.3099 128.096 87.2898 128.344 87.4404C130.626 88.8282 141.368 96.1678 144.029 112.813H144.028Z" fill="url(#paint34_linear_53_402)"/>
<path d="M124.294 100.697C124.396 100.697 124.496 100.652 124.562 100.566C126.237 98.3871 127.169 95.9859 127.208 95.8851C127.275 95.7117 127.188 95.5171 127.014 95.4503C126.84 95.3834 126.645 95.4704 126.578 95.6438C126.569 95.6677 125.64 98.0573 124.027 100.156C123.914 100.304 123.941 100.515 124.089 100.628C124.15 100.675 124.222 100.698 124.294 100.698V100.697Z" fill="url(#paint35_linear_53_402)"/>
<path d="M110.607 106.794L109.521 106.505L106.224 105.743C105.827 105.652 105.41 105.722 105.065 105.939L102.23 107.718L110.059 107.705L110.607 106.794V106.794Z" fill="url(#paint36_linear_53_402)"/>
<path d="M121.164 76.9736C121.164 76.9736 119.136 80.3369 118.784 82.1956C118.432 84.0544 117.867 85.2163 119.988 85.8787C122.109 86.541 124.08 85.7026 125.316 83.9674C125.316 83.9674 127.248 81.2973 127.055 80.0744C126.862 78.8515 121.164 76.9736 121.164 76.9736Z" fill="url(#paint37_linear_53_402)"/>
<path d="M124.752 82.5288L124.478 82.4928C124.478 82.4928 125.913 80.328 124.974 79.7913C124.034 79.2541 120.205 77.9368 119.54 76.4323C118.899 74.9819 119.858 73.3438 121.014 73.0017C121.088 72.98 121.165 73.0235 121.191 73.0945L121.259 73.277C121.306 73.4021 121.482 73.4069 121.535 73.2849C121.586 73.1688 121.752 73.164 121.804 73.2791C122.009 73.7298 122.623 74.4993 124.465 75.0949C127.078 75.9397 128.705 77.2538 128.505 79.1056C128.492 79.2228 128.609 79.304 128.717 79.2562C128.931 79.1619 129.254 79.147 129.63 79.5575C130.284 80.2707 129.772 81.8315 127.986 82.9356C127.901 82.9881 127.886 83.1074 127.962 83.1721C128.229 83.4001 128.605 83.9092 127.397 84.3626C126.161 84.8267 125.486 84.6697 125.237 84.57C125.17 84.5429 125.132 84.474 125.146 84.4029L125.463 82.7802C125.48 82.6964 125.422 82.6158 125.337 82.6047L124.752 82.5278V82.5288Z" fill="url(#paint38_linear_53_402)"/>
<path d="M124.639 82.8625C124.639 82.8625 125.534 80.6616 126.474 81.4354C127.413 82.2091 125.605 83.9188 124.77 83.896L124.639 82.8625Z" fill="url(#paint39_linear_53_402)"/>
<path d="M113.632 109.249C113.619 109.25 113.606 109.25 113.593 109.25L96.8682 109.234C96.4546 109.234 96.1197 108.899 96.1203 108.488C96.1203 108.076 96.4573 107.736 96.8698 107.743L113.595 107.76C114.009 107.76 114.343 108.094 114.343 108.506C114.343 108.905 114.027 109.23 113.632 109.25V109.249Z" fill="url(#paint40_linear_53_402)"/>
<path d="M90.3914 92.9092C90.3972 92.9204 90.4031 92.932 90.4084 92.9437L97.4455 108.08C97.6193 108.454 97.4572 108.898 97.0824 109.071C96.7077 109.244 96.2569 109.083 96.0894 108.707L89.0523 93.5711C88.8785 93.1967 89.0406 92.7533 89.4154 92.5799C89.7779 92.4123 90.2069 92.5597 90.3914 92.9092Z" fill="url(#paint41_linear_53_402)"/>
<path d="M46.5954 124.461H48.3607V143.505H46.5954V124.461Z" fill="#7D97F4"/>
<path d="M39.7475 143.873H55.2081C55.2081 143.24 54.6935 142.727 54.0588 142.727H40.8963C40.2616 142.727 39.747 143.24 39.747 143.873H39.7475Z" fill="#7D97F4"/>
<path d="M39.3515 120.194H54.9938C56.0422 120.194 56.8921 121.042 56.8921 122.088V123.8C56.8921 124.846 56.0422 125.694 54.9938 125.694H39.3515C38.3031 125.694 37.4532 124.846 37.4532 123.8V122.088C37.4532 121.042 38.3031 120.194 39.3515 120.194Z" fill="#7D97F4"/>
<path d="M60.5095 111.762C60.5095 111.762 63.1324 112.168 66.0816 114.135C66.5457 114.445 66.8003 114.984 66.7306 115.536C66.3777 118.327 64.9254 127.359 60.1374 136.181C59.8849 136.646 59.8126 137.188 59.9237 137.705L60.7556 141.566L62.2983 143.009H58.3247L55.679 135.867L56.8102 135.51C57.6874 135.233 58.2891 134.429 58.3051 133.511L58.438 125.85C58.3247 122.436 60.5361 120.081 60.5361 120.081L54.1906 119.773L60.5095 111.762V111.762Z" fill="url(#paint42_linear_53_402)"/>
<path d="M63.85 143.706C64.212 144.179 59.9551 144.802 57.8048 143.769C57.8048 143.769 54.8237 138.595 54.8237 135.93C54.8237 135.93 55.0603 135.387 56.8108 135.51C56.8108 135.51 57.8117 141.637 58.8685 142.323C59.9253 143.01 61.8257 142.393 61.8257 142.393C61.8257 142.393 63.3163 143.009 63.85 143.706Z" fill="url(#paint43_linear_53_402)"/>
<path d="M54.9938 120.194C55.0279 120.135 61.8257 119.378 61.8257 119.378C61.8257 119.378 61.603 121.44 62.2983 124.279C62.9936 127.118 72.9752 139.416 72.9752 139.416L71.9285 142.726C75.1642 143.85 78.3473 144.03 81.4794 143.299L74.9936 139.416C74.9936 139.416 68.9234 118.779 65.2055 115.098L58.3912 112.746L54.9938 120.194Z" fill="url(#paint44_linear_53_402)"/>
<path d="M39.7475 108.186C39.7475 108.186 35.8308 113.997 35.5092 116.648C35.1876 119.299 36.5819 120.376 40.6916 120.554C44.8013 120.732 55.7726 120.729 55.7726 120.729L65.1364 112.746C65.1364 112.746 58.3125 110.316 56.5381 109.63C54.7637 108.943 39.747 108.186 39.747 108.186H39.7475Z" fill="url(#paint45_linear_53_402)"/>
<path d="M72.324 141.611C72.324 141.611 71.197 142.7 71.9582 143.911C71.9582 143.911 80.884 145.49 83.3075 144.774C83.3075 144.774 82.8041 143.628 80.0755 142.324L80.277 142.478C80.5316 142.673 80.3822 143.079 80.0617 143.061C78.2633 142.959 74.5423 142.63 72.324 141.611Z" fill="url(#paint46_linear_53_402)"/>
<path d="M56.714 71.3287C48.7073 69.9705 44.9379 76.4854 45.2138 77.8542C45.2504 78.0355 45.0787 78.1893 44.8996 78.1411C43.9805 77.8945 41.9498 77.5832 40.6911 79.1566C39.5795 80.5461 40.4104 81.857 41.0876 82.5766C41.2513 82.7506 41.1137 83.0327 40.8766 83.003C39.1867 82.7904 35.5145 82.7394 34.9138 86.1711C34.3535 89.3715 36.5862 90.2736 37.9103 90.5282C38.1347 90.5711 38.1868 90.8649 37.9943 90.9869C37.3336 91.4048 36.5681 92.2692 36.8775 93.9741C37.3623 96.6464 42.6143 96.4279 43.2278 96.3929C43.2666 96.3908 43.3033 96.3797 43.3373 96.36L51.7496 91.5739C51.815 91.5368 51.8607 91.4721 51.8734 91.3979L53.5718 81.613C53.5857 81.534 53.5607 81.4529 53.5049 81.3951L58.9892 73.6742C60.98 73.382 56.8092 71.3451 56.7151 71.3292L56.714 71.3287Z" fill="url(#paint47_linear_53_402)"/>
<path d="M50.3403 107.418C50.3403 107.418 54.9013 103.085 57.1467 100.215C58.3603 98.6636 58.7415 96.6214 58.1801 94.7351C57.1552 91.2901 55.3335 87.7217 55.1671 87.1664C54.9125 86.3153 49.7981 86.3508 49.7981 86.3508C49.7981 86.3508 39.7342 92.8668 35.7803 103.904L40.2211 105.284C40.2211 105.284 42.8487 100.886 45.445 98.0898C45.445 98.0898 40.9526 104.01 40.7942 106.434L50.3398 107.419L50.3403 107.418Z" fill="url(#paint48_linear_53_402)"/>
<path d="M55.7853 82.4084C55.7322 82.5855 54.3974 86.9999 54.2927 87.0916C54.1885 87.1834 51.3652 87.3345 50.0368 86.4287L53.3326 79.9971L55.7853 82.4084Z" fill="url(#paint49_linear_53_402)"/>
<path d="M61.1368 76.7361C61.1368 76.7361 61.7821 79.2652 59.9971 82.6666C58.2125 86.068 56.192 86.0643 55.0874 84.9756C53.9827 83.8869 52.6208 82.0392 52.9446 78.7508C53.2683 75.4623 60.2055 73.5187 61.1368 76.7361Z" fill="url(#paint50_linear_53_402)"/>
<path d="M55.4132 78.9294C55.4132 78.9294 58.3742 74.4132 61.1511 77.9674L61.2011 79.2603C61.2011 79.2603 64.4533 78.8753 63.884 75.9002C63.3147 72.9251 60.5042 71.0659 56.8847 72.3545C53.2651 73.6432 51.1909 74.9647 50.9575 77.5527C50.7241 80.1406 52.7878 79.5732 52.7878 79.5732C52.7878 79.5732 53.4607 77.751 54.4181 77.5617C55.375 77.3724 55.1262 78.7931 55.1262 78.7931L55.4132 78.9299V78.9294Z" fill="url(#paint51_linear_53_402)"/>
<path d="M54.6552 78.8693C54.6552 78.8693 56.1909 76.5566 54.6175 76.2119C53.044 75.8672 53.288 78.4652 53.4581 79.4262L54.6557 78.8693H54.6552Z" fill="url(#paint52_linear_53_402)"/>
<path d="M59.6324 107.739L56.2813 104.516L51.6454 106.47C51.6454 106.47 47.0307 107.183 44.3898 106.47L41.7489 105.757L35.7808 103.903L34.8437 106.546C34.6055 107.217 34.8447 107.962 35.4263 108.374C35.9424 108.74 36.5479 109.142 36.9338 109.31C37.72 109.654 56.3084 109.073 56.3084 109.073L59.6329 107.739H59.6324Z" fill="url(#paint53_linear_53_402)"/>
<path d="M46.9505 109.258C46.9653 109.258 46.9802 109.259 46.9951 109.259L66.4346 109.238C66.9151 109.238 67.3042 108.849 67.3037 108.369C67.3037 107.89 66.9119 107.494 66.4324 107.502L46.993 107.523C46.5124 107.523 46.1233 107.913 46.1238 108.392C46.1244 108.857 46.4906 109.235 46.9505 109.258Z" fill="url(#paint54_linear_53_402)"/>
<path d="M83.9098 91.6504H67.7205C66.526 91.6504 65.4389 92.3382 64.9296 93.4158L57.4455 109.248H77.5643C78.334 109.248 79.0256 108.778 79.3084 108.065L85.1122 93.4142C85.4477 92.5678 84.8225 91.6504 83.9098 91.6504Z" fill="url(#paint55_linear_53_402)"/>
<path d="M72.5042 99.7677C72.1533 100.855 72.4127 101.911 73.0831 102.127C73.7534 102.342 74.5816 101.635 74.9324 100.548C75.2833 99.4607 75.0239 98.4043 74.3535 98.189C73.6832 97.9737 72.855 98.6806 72.5042 99.7677Z" fill="#7D97F4"/>
<path d="M24.7882 141.472C24.7882 141.472 24.5841 142.603 24.5038 143.944C24.4693 144.516 24.894 145.013 25.4655 145.068C27.4552 145.26 31.9843 145.616 34.8761 145.2C35.2811 145.141 35.4422 144.645 35.1424 144.366C33.9501 143.258 31.07 141.102 26.3304 140.631L24.7882 141.472V141.472Z" fill="url(#paint56_linear_53_402)"/>
<path d="M23.799 138.925L24.8047 141.385C24.9424 141.722 25.2853 141.931 25.6483 141.893C25.8945 141.868 26.1863 141.821 26.4702 141.735C27.0379 141.563 27.3579 140.963 27.1883 140.395L26.4292 137.861L23.799 138.925Z" fill="url(#paint57_linear_53_402)"/>
<path d="M6.5996 143.431C6.5996 143.431 8.6143 145.112 9.39892 147.269C9.61474 147.863 9.15864 148.487 8.52605 148.487H4.38077C3.77423 148.487 3.3091 147.943 3.41436 147.347C3.67855 145.857 4.43977 143.437 6.5996 143.431Z" fill="url(#paint58_linear_53_402)"/>
<path d="M4.10434 141.243C4.10434 141.243 4.511 143.04 4.82411 144.227C4.88099 144.442 5.11115 144.561 5.32166 144.486C5.94893 144.262 6.45926 144.163 6.83083 144.213C7.00253 144.236 7.1519 144.093 7.15456 143.921L7.19337 140.937L4.10434 141.243Z" fill="url(#paint59_linear_53_402)"/>
<path d="M14.8179 100.813L27.0709 138.105C27.0709 138.105 24.7207 139.64 23.6012 139.576L9.04754 109.606C9.04754 109.606 6.50073 128.073 7.73507 141.33L3.56639 141.647C3.56639 141.647 -3.21182 107.767 1.9222 96.1631L14.8184 100.812L14.8179 100.813Z" fill="url(#paint60_linear_53_402)"/>
<path d="M9.12621 109.284C9.12143 109.284 9.11611 109.284 9.11133 109.283C9.04648 109.275 9.00023 109.216 9.0082 109.151L9.48344 105.386C9.49141 105.321 9.55042 105.276 9.6158 105.283C9.68065 105.291 9.7269 105.35 9.71892 105.415L9.24369 109.18C9.23625 109.24 9.18522 109.284 9.12621 109.284V109.284Z" fill="url(#paint61_linear_53_402)"/>
<path d="M17.1154 67.9986C17.1154 67.9986 7.18806 68.8778 8.5925 75.9347C8.5925 75.9347 3.10497 86.2371 0.539553 98.3734C0.456095 98.7685 0.721363 99.1535 1.12005 99.2214L17.6523 102.045C18.1084 102.123 18.548 101.84 18.6639 101.392L22.6141 86.1624L24.1535 93.2431L29.0446 91.972L24.9275 71.1646C24.9275 71.1646 24.3529 68.1285 17.1159 67.998L17.1154 67.9986Z" fill="url(#paint62_linear_53_402)"/>
<path d="M22.6981 85.4812C22.6896 85.4812 22.6805 85.4802 22.672 85.4786C22.6056 85.4643 22.5636 85.3985 22.5779 85.3322L23.9558 79.0194C23.9701 78.9531 24.035 78.9117 24.1025 78.9255C24.1689 78.9398 24.2109 79.0056 24.1966 79.0719L22.8187 85.3847C22.806 85.442 22.7549 85.4812 22.6986 85.4812H22.6981Z" fill="#91B3FA"/>
<path d="M21.6997 104.266C21.1788 103.98 20.5691 103.901 19.9928 104.044L18.8425 104.33C18.598 104.391 18.3556 104.223 18.3274 103.973L17.1372 93.4033C15.6487 94.1086 13.5017 94.0243 12.7936 93.9723L15.5334 106.433H25.1205L21.7003 104.265L21.6997 104.266Z" fill="url(#paint63_linear_53_402)"/>
<path d="M47.1727 81.3392L46.8829 80.3782C46.716 79.8251 46.3067 79.3781 45.7693 79.1628L40.5284 77.0601C40.5284 77.0601 40.4492 76.3897 41.6357 75.9337C42.8222 75.4781 42.5447 74.1523 42.5447 74.1523C42.5447 74.1523 40.9239 74.89 38.5509 76.0599C37.1938 76.7291 36.4326 77.9102 36.0286 78.7995L24.153 93.2426L25.5473 94.1982C27.3808 95.4551 29.9026 94.8378 30.9445 92.8767L37.3777 80.5697C40.6076 81.5375 43.8763 81.7226 47.1727 81.3386V81.3392Z" fill="url(#paint64_linear_53_402)"/>
<path d="M20.3314 61.2612L17.278 69.7865C17.278 69.7865 19.9817 71.8951 21.9549 71.1823L23.4933 66.2955C23.4933 66.2955 22.318 60.3226 20.3314 61.2612Z" fill="url(#paint65_linear_53_402)"/>
<path d="M29.4444 58.1989C29.4444 58.3304 26.5031 66.5052 26.5031 66.5052L21.8597 64.7308L23.4933 56.5692C23.4933 56.5692 29.4438 55.9997 29.4438 58.1989H29.4444Z" fill="url(#paint66_linear_53_402)"/>
<path d="M24.3077 58.5578L23.1105 62.7871C23.0951 62.8412 23.0872 62.8958 23.0872 62.9525C23.0872 63.2972 23.1722 64.4846 24.3842 64.3229C25.4841 64.1765 26.4898 64.0588 27.1293 64.3595C27.4164 64.4942 27.5541 64.824 27.4467 65.122C27.1793 65.8645 26.5456 67.527 25.7743 68.8878C25.618 69.1641 25.2746 69.2712 24.9849 69.1397C24.1126 68.7441 22.2972 67.8579 21.0033 66.8037C20.8279 66.661 20.7439 66.4362 20.7854 66.2145C20.989 65.1327 21.595 61.8421 21.6216 60.8992C21.6466 60.0141 20.6509 59.3384 20.2129 59.0844C20.0694 59.0012 19.9668 58.8638 19.928 58.7026C19.7903 58.133 19.6733 56.8438 21.3223 56.5596C21.6673 56.5002 21.8922 56.1709 21.822 55.8283C21.6827 55.1468 21.7274 54.1445 23.0239 53.7749C24.3422 53.3995 25.1715 54.1912 25.5936 54.7979C25.7642 55.0434 26.0832 55.123 26.3569 55.001C26.5127 54.9315 26.7003 54.9283 26.9023 55.0986C27.1745 55.3277 27.5891 55.2577 27.789 54.9639C28.1733 54.3996 28.8718 53.8359 30.0541 54.2177C32.1517 54.8949 32.0518 57.3079 31.2826 58.6193C30.5134 59.9308 28.2813 59.068 27.2239 58.1988C26.4202 57.538 25.197 57.9331 24.6564 58.1606C24.4852 58.2327 24.3576 58.3791 24.3071 58.5573L24.3077 58.5578Z" fill="url(#paint67_linear_53_402)"/>
<path d="M21.2016 62.4426C21.2016 62.4426 22.4434 60.0996 21.6221 59.3641C20.8014 58.6286 19.4102 58.7489 19.4474 60.5812C19.4942 62.8599 21.2016 62.4431 21.2016 62.4431V62.4426Z" fill="url(#paint68_linear_53_402)"/>
<path d="M13.7568 94.1303C13.0791 94.1303 12.5959 94.0789 12.5432 94.073L12.455 94.063L8.84023 77.2494C8.82587 77.1831 8.86839 77.1178 8.93484 77.1035C9.00182 77.0887 9.06667 77.1316 9.08102 77.1979L12.6586 93.8371C13.1965 93.8843 16.0692 94.0746 17.5858 93.0029L14.4543 78.3954L15.1081 77.1666C15.14 77.1067 15.2144 77.0839 15.2745 77.1157C15.3346 77.1475 15.3574 77.2218 15.3255 77.2817L14.7137 78.4314L17.8596 93.1063L17.7969 93.1535C16.7013 93.9749 14.9359 94.1303 13.7568 94.1303Z" fill="#91B3FA"/>
<path d="M122.126 145.392C122.209 145.392 122.294 145.374 122.375 145.336C122.695 145.187 122.842 144.783 122.705 144.435L109.495 110.999C109.358 110.651 108.988 110.49 108.668 110.64C108.348 110.789 108.2 111.193 108.338 111.541L121.547 144.977C121.65 145.236 121.882 145.392 122.126 145.392V145.392Z" fill="url(#paint69_linear_53_402)"/>
<path d="M107.245 145.393C107.489 145.393 107.722 145.238 107.824 144.978L121.033 111.542C121.171 111.194 121.023 110.79 120.704 110.641C120.384 110.491 120.014 110.652 119.876 111L106.667 144.436C106.529 144.784 106.677 145.188 106.996 145.337C107.077 145.375 107.162 145.393 107.245 145.393V145.393Z" fill="url(#paint70_linear_53_402)"/>
<path d="M32.4786 145.392C32.5616 145.392 32.6461 145.374 32.7274 145.336C33.0469 145.187 33.1947 144.783 33.057 144.435L19.8477 110.999C19.71 110.651 19.34 110.49 19.02 110.64C18.7005 110.789 18.5528 111.193 18.6904 111.541L31.8997 144.977C32.0023 145.236 32.2346 145.392 32.4786 145.392V145.392Z" fill="url(#paint71_linear_53_402)"/>
<path d="M17.5981 145.393C17.8421 145.393 18.0744 145.238 18.1769 144.978L31.3862 111.542C31.5239 111.194 31.3762 110.79 31.0567 110.641C30.7372 110.491 30.3667 110.652 30.229 111L17.0197 144.436C16.882 144.784 17.0298 145.188 17.3493 145.337C17.4306 145.375 17.5146 145.393 17.5981 145.393V145.393Z" fill="url(#paint72_linear_53_402)"/>
<path d="M34.3955 108.639H15.2638V106.669H34.3955C33.9862 106.669 33.9862 108.639 34.3955 108.639Z" fill="#91B3FA"/>
<path d="M15.4435 108.639C15.3447 108.639 15.2639 108.558 15.2639 108.459V106.848C15.2639 106.75 15.3447 106.669 15.4435 106.669H34.7995C34.8984 106.669 34.9792 106.588 34.9792 106.49V106.403C34.9792 106.304 34.8984 106.224 34.7995 106.224H14.1688C13.7127 106.224 13.3427 106.593 13.3427 107.048V108.307C13.3427 108.736 13.6914 109.084 14.122 109.084H34.8001C34.8989 109.084 34.9797 109.003 34.9797 108.904V108.817C34.9797 108.719 34.8989 108.638 34.8001 108.638H15.4441L15.4435 108.639Z" fill="url(#paint73_linear_53_402)"/>
<path d="M12.4906 109.967C12.4263 109.747 12.514 109.52 12.7293 109.347C12.9446 109.174 13.2651 109.074 13.6037 109.074H128.239C128.683 109.074 129.098 109.224 129.338 109.472C129.578 109.721 129.61 110.032 129.423 110.3L128.181 112.079C127.896 112.486 127.28 112.747 126.601 112.747H14.3905C13.7595 112.747 13.2173 112.451 13.0977 112.041L12.4911 109.967L12.4906 109.967Z" fill="url(#paint74_linear_53_402)"/>
</g>
<defs>
<linearGradient id="paint0_linear_53_402" x1="-17.9469" y1="191.777" x2="113.744" y2="27.8346" gradientUnits="userSpaceOnUse">
<stop stop-color="#DAE3FE"/>
<stop offset="1" stop-color="#E9EFFD"/>
</linearGradient>
<linearGradient id="paint1_linear_53_402" x1="59.4708" y1="53.3538" x2="61.2825" y2="65.3402" gradientUnits="userSpaceOnUse">
<stop stop-color="#09005D"/>
<stop offset="1" stop-color="#1A0F91"/>
</linearGradient>
<linearGradient id="paint2_linear_53_402" x1="59.0684" y1="48.3847" x2="62.1968" y2="82.9707" gradientUnits="userSpaceOnUse">
<stop stop-color="#53D8FF"/>
<stop offset="1" stop-color="#3840F7"/>
</linearGradient>
<linearGradient id="paint3_linear_53_402" x1="58.977" y1="48.392" x2="62.1054" y2="82.9782" gradientUnits="userSpaceOnUse">
<stop stop-color="#53D8FF"/>
<stop offset="1" stop-color="#3840F7"/>
</linearGradient>
<linearGradient id="paint4_linear_53_402" x1="59.1503" y1="48.3766" x2="62.2792" y2="82.9624" gradientUnits="userSpaceOnUse">
<stop stop-color="#53D8FF"/>
<stop offset="1" stop-color="#3840F7"/>
</linearGradient>
<linearGradient id="paint5_linear_53_402" x1="59.0573" y1="48.3854" x2="62.1857" y2="82.9712" gradientUnits="userSpaceOnUse">
<stop stop-color="#53D8FF"/>
<stop offset="1" stop-color="#3840F7"/>
</linearGradient>
<linearGradient id="paint6_linear_53_402" x1="58.1025" y1="23.7908" x2="62.9295" y2="56.5856" gradientUnits="userSpaceOnUse">
<stop stop-color="#FF928E"/>
<stop offset="1" stop-color="#FE7062"/>
</linearGradient>
<linearGradient id="paint7_linear_53_402" x1="13.4039" y1="-15.6313" x2="35.1581" y2="14.7901" gradientUnits="userSpaceOnUse">
<stop stop-color="#E1473D"/>
<stop offset="1" stop-color="#E9605A"/>
</linearGradient>
<linearGradient id="paint8_linear_53_402" x1="16.4339" y1="-17.798" x2="38.1881" y2="12.6234" gradientUnits="userSpaceOnUse">
<stop stop-color="#E1473D"/>
<stop offset="1" stop-color="#E9605A"/>
</linearGradient>
<linearGradient id="paint9_linear_53_402" x1="85.3933" y1="136.192" x2="117.712" y2="170.77" gradientUnits="userSpaceOnUse">
<stop stop-color="#09005D"/>
<stop offset="1" stop-color="#1A0F91"/>
</linearGradient>
<linearGradient id="paint10_linear_53_402" x1="95.8278" y1="138.679" x2="92.9792" y2="138.706" gradientUnits="userSpaceOnUse">
<stop stop-color="#FEBBBA"/>
<stop offset="1" stop-color="#FF928E"/>
</linearGradient>
<linearGradient id="paint11_linear_53_402" x1="82.4939" y1="96.8549" x2="110.051" y2="133.565" gradientUnits="userSpaceOnUse">
<stop stop-color="#09005D"/>
<stop offset="1" stop-color="#1A0F91"/>
</linearGradient>
<linearGradient id="paint12_linear_53_402" x1="92.5256" y1="129.524" x2="124.846" y2="164.104" gradientUnits="userSpaceOnUse">
<stop stop-color="#09005D"/>
<stop offset="1" stop-color="#1A0F91"/>
</linearGradient>
<linearGradient id="paint13_linear_53_402" x1="106.094" y1="138.436" x2="103.634" y2="138.459" gradientUnits="userSpaceOnUse">
<stop stop-color="#FEBBBA"/>
<stop offset="1" stop-color="#FF928E"/>
</linearGradient>
<linearGradient id="paint14_linear_53_402" x1="87.3244" y1="93.2283" x2="114.882" y2="129.938" gradientUnits="userSpaceOnUse">
<stop stop-color="#09005D"/>
<stop offset="1" stop-color="#1A0F91"/>
</linearGradient>
<linearGradient id="paint15_linear_53_402" x1="206.738" y1="-110.255" x2="181.681" y2="-66.7184" gradientUnits="userSpaceOnUse">
<stop stop-color="#FF928E"/>
<stop offset="1" stop-color="#FE7062"/>
</linearGradient>
<linearGradient id="paint16_linear_53_402" x1="83.4011" y1="64.6402" x2="68.8454" y2="64.7777" gradientUnits="userSpaceOnUse">
<stop stop-color="#FEBBBA"/>
<stop offset="1" stop-color="#FF928E"/>
</linearGradient>
<linearGradient id="paint17_linear_53_402" x1="72.0424" y1="62.3512" x2="81.9792" y2="84.446" gradientUnits="userSpaceOnUse">
<stop stop-color="#FEBBBA"/>
<stop offset="1" stop-color="#FF928E"/>
</linearGradient>
<linearGradient id="paint18_linear_53_402" x1="68.8228" y1="54.9599" x2="64.702" y2="48.7386" gradientUnits="userSpaceOnUse">
<stop stop-color="#FEBBBA"/>
<stop offset="1" stop-color="#FF928E"/>
</linearGradient>
<linearGradient id="paint19_linear_53_402" x1="215.302" y1="-105.326" x2="190.245" y2="-61.7898" gradientUnits="userSpaceOnUse">
<stop stop-color="#FF928E"/>
<stop offset="1" stop-color="#FE7062"/>
</linearGradient>
<linearGradient id="paint20_linear_53_402" x1="115.445" y1="84.9067" x2="97.0257" y2="85.0807" gradientUnits="userSpaceOnUse">
<stop stop-color="#FEBBBA"/>
<stop offset="1" stop-color="#FF928E"/>
</linearGradient>
<linearGradient id="paint21_linear_53_402" x1="101.115" y1="65.3958" x2="93.8326" y2="65.4646" gradientUnits="userSpaceOnUse">
<stop stop-color="#FEBBBA"/>
<stop offset="1" stop-color="#FF928E"/>
</linearGradient>
<linearGradient id="paint22_linear_53_402" x1="92.0448" y1="60.8882" x2="99.9955" y2="55.9233" gradientUnits="userSpaceOnUse">
<stop stop-color="#FEBBBA"/>
<stop offset="1" stop-color="#FF928E"/>
</linearGradient>
<linearGradient id="paint23_linear_53_402" x1="104.196" y1="50.7639" x2="93.9478" y2="59.0363" gradientUnits="userSpaceOnUse">
<stop stop-color="#09005D"/>
<stop offset="1" stop-color="#1A0F91"/>
</linearGradient>
<linearGradient id="paint24_linear_53_402" x1="94.1652" y1="62.6848" x2="101.319" y2="58.2181" gradientUnits="userSpaceOnUse">
<stop stop-color="#FEBBBA"/>
<stop offset="1" stop-color="#FF928E"/>
</linearGradient>
<linearGradient id="paint25_linear_53_402" x1="92.0792" y1="73.2578" x2="81.9606" y2="115.518" gradientUnits="userSpaceOnUse">
<stop stop-color="#09005D"/>
<stop offset="1" stop-color="#1A0F91"/>
</linearGradient>
<linearGradient id="paint26_linear_53_402" x1="99.044" y1="84.435" x2="93.2848" y2="84.435" gradientUnits="userSpaceOnUse">
<stop stop-color="#FEBBBA"/>
<stop offset="1" stop-color="#FF928E"/>
</linearGradient>
<linearGradient id="paint27_linear_53_402" x1="116.343" y1="112.408" x2="115.151" y2="141.676" gradientUnits="userSpaceOnUse">
<stop stop-color="#4F52FF"/>
<stop offset="1" stop-color="#4042E2"/>
</linearGradient>
<linearGradient id="paint28_linear_53_402" x1="120.125" y1="139.944" x2="117.088" y2="139.944" gradientUnits="userSpaceOnUse">
<stop stop-color="#FEBBBA"/>
<stop offset="1" stop-color="#FF928E"/>
</linearGradient>
<linearGradient id="paint29_linear_53_402" x1="100.306" y1="111.755" x2="99.1145" y2="141.024" gradientUnits="userSpaceOnUse">
<stop stop-color="#4F52FF"/>
<stop offset="1" stop-color="#4042E2"/>
</linearGradient>
<linearGradient id="paint30_linear_53_402" x1="136.922" y1="126.27" x2="112.876" y2="126.27" gradientUnits="userSpaceOnUse">
<stop stop-color="#09005D"/>
<stop offset="1" stop-color="#1A0F91"/>
</linearGradient>
<linearGradient id="paint31_linear_53_402" x1="105.738" y1="140.2" x2="102.112" y2="140.2" gradientUnits="userSpaceOnUse">
<stop stop-color="#FEBBBA"/>
<stop offset="1" stop-color="#FF928E"/>
</linearGradient>
<linearGradient id="paint32_linear_53_402" x1="115.08" y1="116.276" x2="141.408" y2="146.197" gradientUnits="userSpaceOnUse">
<stop stop-color="#09005D"/>
<stop offset="1" stop-color="#1A0F91"/>
</linearGradient>
<linearGradient id="paint33_linear_53_402" x1="125.882" y1="89.2186" x2="124.102" y2="84.7181" gradientUnits="userSpaceOnUse">
<stop stop-color="#FEBBBA"/>
<stop offset="1" stop-color="#FF928E"/>
</linearGradient>
<linearGradient id="paint34_linear_53_402" x1="77.5882" y1="32.2686" x2="132.259" y2="115.776" gradientUnits="userSpaceOnUse">
<stop stop-color="#4F52FF"/>
<stop offset="1" stop-color="#4042E2"/>
</linearGradient>
<linearGradient id="paint35_linear_53_402" x1="124.722" y1="96.6132" x2="90.0887" y2="38.753" gradientUnits="userSpaceOnUse">
<stop stop-color="#09005D"/>
<stop offset="1" stop-color="#1A0F91"/>
</linearGradient>
<linearGradient id="paint36_linear_53_402" x1="110.607" y1="106.711" x2="102.23" y2="106.711" gradientUnits="userSpaceOnUse">
<stop stop-color="#FEBBBA"/>
<stop offset="1" stop-color="#FF928E"/>
</linearGradient>
<linearGradient id="paint37_linear_53_402" x1="120.425" y1="80.085" x2="128.41" y2="88.0667" gradientUnits="userSpaceOnUse">
<stop stop-color="#FEBBBA"/>
<stop offset="1" stop-color="#FF928E"/>
</linearGradient>
<linearGradient id="paint38_linear_53_402" x1="127.386" y1="75.5435" x2="117.983" y2="84.859" gradientUnits="userSpaceOnUse">
<stop stop-color="#09005D"/>
<stop offset="1" stop-color="#1A0F91"/>
</linearGradient>
<linearGradient id="paint39_linear_53_402" x1="121.719" y1="78.7907" x2="129.704" y2="86.7728" gradientUnits="userSpaceOnUse">
<stop stop-color="#FEBBBA"/>
<stop offset="1" stop-color="#FF928E"/>
</linearGradient>
<linearGradient id="paint40_linear_53_402" x1="1905.9" y1="-1808.52" x2="1876.36" y2="-1776.91" gradientUnits="userSpaceOnUse">
<stop stop-color="#09005D"/>
<stop offset="1" stop-color="#1A0F91"/>
</linearGradient>
<linearGradient id="paint41_linear_53_402" x1="-2407.72" y1="-719.449" x2="-2366.59" y2="-705.897" gradientUnits="userSpaceOnUse">
<stop stop-color="#09005D"/>
<stop offset="1" stop-color="#1A0F91"/>
</linearGradient>
<linearGradient id="paint42_linear_53_402" x1="79.9166" y1="200.166" x2="57.6278" y2="110.797" gradientUnits="userSpaceOnUse">
<stop stop-color="#FEBBBA"/>
<stop offset="1" stop-color="#FF928E"/>
</linearGradient>
<linearGradient id="paint43_linear_53_402" x1="29.2551" y1="90.7104" x2="50.4646" y2="126.502" gradientUnits="userSpaceOnUse">
<stop stop-color="#09005D"/>
<stop offset="1" stop-color="#1A0F91"/>
</linearGradient>
<linearGradient id="paint44_linear_53_402" x1="69.0372" y1="143.659" x2="64.5804" y2="77.0216" gradientUnits="userSpaceOnUse">
<stop stop-color="#FEBBBA"/>
<stop offset="1" stop-color="#FF928E"/>
</linearGradient>
<linearGradient id="paint45_linear_53_402" x1="65.137" y1="114.458" x2="35.4651" y2="114.458" gradientUnits="userSpaceOnUse">
<stop stop-color="#09005D"/>
<stop offset="1" stop-color="#1A0F91"/>
</linearGradient>
<linearGradient id="paint46_linear_53_402" x1="41.413" y1="83.5065" x2="62.6192" y2="119.294" gradientUnits="userSpaceOnUse">
<stop stop-color="#09005D"/>
<stop offset="1" stop-color="#1A0F91"/>
</linearGradient>
<linearGradient id="paint47_linear_53_402" x1="44.2362" y1="65.0174" x2="48.5852" y2="87.9202" gradientUnits="userSpaceOnUse">
<stop stop-color="#09005D"/>
<stop offset="1" stop-color="#1A0F91"/>
</linearGradient>
<linearGradient id="paint48_linear_53_402" x1="64.9775" y1="139.155" x2="48.34" y2="101.764" gradientUnits="userSpaceOnUse">
<stop stop-color="#4F52FF"/>
<stop offset="1" stop-color="#4042E2"/>
</linearGradient>
<linearGradient id="paint49_linear_53_402" x1="51.4668" y1="93.6665" x2="53.2462" y2="82.2204" gradientUnits="userSpaceOnUse">
<stop stop-color="#FEBBBA"/>
<stop offset="1" stop-color="#FF928E"/>
</linearGradient>
<linearGradient id="paint50_linear_53_402" x1="61.173" y1="81.5313" x2="47.7753" y2="77.0003" gradientUnits="userSpaceOnUse">
<stop stop-color="#FEBBBA"/>
<stop offset="1" stop-color="#FF928E"/>
</linearGradient>
<linearGradient id="paint51_linear_53_402" x1="64.0324" y1="69.5951" x2="48.4232" y2="86.9402" gradientUnits="userSpaceOnUse">
<stop stop-color="#09005D"/>
<stop offset="1" stop-color="#1A0F91"/>
</linearGradient>
<linearGradient id="paint52_linear_53_402" x1="61.5724" y1="80.3517" x2="48.1744" y2="75.8202" gradientUnits="userSpaceOnUse">
<stop stop-color="#FEBBBA"/>
<stop offset="1" stop-color="#FF928E"/>
</linearGradient>
<linearGradient id="paint53_linear_53_402" x1="44.1251" y1="106.661" x2="19.2444" y2="106.661" gradientUnits="userSpaceOnUse">
<stop stop-color="#FEBBBA"/>
<stop offset="1" stop-color="#FF928E"/>
</linearGradient>
<linearGradient id="paint54_linear_53_402" x1="43.6576" y1="104.106" x2="59.0819" y2="109.177" gradientUnits="userSpaceOnUse">
<stop stop-color="#09005D"/>
<stop offset="1" stop-color="#1A0F91"/>
</linearGradient>
<linearGradient id="paint55_linear_53_402" x1="64.8504" y1="94.0113" x2="75.9357" y2="105.756" gradientUnits="userSpaceOnUse">
<stop stop-color="#09005D"/>
<stop offset="1" stop-color="#1A0F91"/>
</linearGradient>
<linearGradient id="paint56_linear_53_402" x1="30.0652" y1="161.938" x2="30.2287" y2="179.291" gradientUnits="userSpaceOnUse">
<stop stop-color="#09005D"/>
<stop offset="1" stop-color="#1A0F91"/>
</linearGradient>
<linearGradient id="paint57_linear_53_402" x1="25.8727" y1="142.559" x2="24.9743" y2="135.519" gradientUnits="userSpaceOnUse">
<stop stop-color="#FEBBBA"/>
<stop offset="1" stop-color="#FF928E"/>
</linearGradient>
<linearGradient id="paint58_linear_53_402" x1="6.56452" y1="162.158" x2="6.72799" y2="179.511" gradientUnits="userSpaceOnUse">
<stop stop-color="#09005D"/>
<stop offset="1" stop-color="#1A0F91"/>
</linearGradient>
<linearGradient id="paint59_linear_53_402" x1="6.14615" y1="144.971" x2="5.27104" y2="138.111" gradientUnits="userSpaceOnUse">
<stop stop-color="#FEBBBA"/>
<stop offset="1" stop-color="#FF928E"/>
</linearGradient>
<linearGradient id="paint60_linear_53_402" x1="19.9875" y1="89.5898" x2="11.882" y2="129.14" gradientUnits="userSpaceOnUse">
<stop stop-color="#09005D"/>
<stop offset="1" stop-color="#1A0F91"/>
</linearGradient>
<linearGradient id="paint61_linear_53_402" x1="5.61514" y1="114.762" x2="6.59588" y2="112.796" gradientUnits="userSpaceOnUse">
<stop stop-color="#4F52FF"/>
<stop offset="1" stop-color="#4042E2"/>
</linearGradient>
<linearGradient id="paint62_linear_53_402" x1="21.8172" y1="73.4985" x2="4.98795" y2="123.617" gradientUnits="userSpaceOnUse">
<stop stop-color="#4F52FF"/>
<stop offset="1" stop-color="#4042E2"/>
</linearGradient>
<linearGradient id="paint63_linear_53_402" x1="12.7936" y1="99.9182" x2="25.1205" y2="99.9182" gradientUnits="userSpaceOnUse">
<stop stop-color="#FEBBBA"/>
<stop offset="1" stop-color="#FF928E"/>
</linearGradient>
<linearGradient id="paint64_linear_53_402" x1="24.153" y1="84.503" x2="47.1727" y2="84.503" gradientUnits="userSpaceOnUse">
<stop stop-color="#FEBBBA"/>
<stop offset="1" stop-color="#FF928E"/>
</linearGradient>
<linearGradient id="paint65_linear_53_402" x1="15.8656" y1="71.623" x2="23.8575" y2="63.4042" gradientUnits="userSpaceOnUse">
<stop stop-color="#FEBBBA"/>
<stop offset="1" stop-color="#FF928E"/>
</linearGradient>
<linearGradient id="paint66_linear_53_402" x1="27.4839" y1="58.2567" x2="17.5263" y2="71.4616" gradientUnits="userSpaceOnUse">
<stop stop-color="#FEBBBA"/>
<stop offset="1" stop-color="#FF928E"/>
</linearGradient>
<linearGradient id="paint67_linear_53_402" x1="12.2583" y1="20.7671" x2="22.7515" y2="51.2459" gradientUnits="userSpaceOnUse">
<stop stop-color="#E1473D"/>
<stop offset="1" stop-color="#E9605A"/>
</linearGradient>
<linearGradient id="paint68_linear_53_402" x1="12.8552" y1="68.695" x2="20.8471" y2="60.4761" gradientUnits="userSpaceOnUse">
<stop stop-color="#FEBBBA"/>
<stop offset="1" stop-color="#FF928E"/>
</linearGradient>
<linearGradient id="paint69_linear_53_402" x1="141.398" y1="220.048" x2="111.861" y2="114.463" gradientUnits="userSpaceOnUse">
<stop stop-color="#4F52FF"/>
<stop offset="1" stop-color="#4042E2"/>
</linearGradient>
<linearGradient id="paint70_linear_53_402" x1="139.849" y1="220.482" x2="110.312" y2="114.897" gradientUnits="userSpaceOnUse">
<stop stop-color="#4F52FF"/>
<stop offset="1" stop-color="#4042E2"/>
</linearGradient>
<linearGradient id="paint71_linear_53_402" x1="58.287" y1="243.299" x2="28.7489" y2="137.714" gradientUnits="userSpaceOnUse">
<stop stop-color="#4F52FF"/>
<stop offset="1" stop-color="#4042E2"/>
</linearGradient>
<linearGradient id="paint72_linear_53_402" x1="56.738" y1="243.733" x2="27.1999" y2="138.148" gradientUnits="userSpaceOnUse">
<stop stop-color="#4F52FF"/>
<stop offset="1" stop-color="#4042E2"/>
</linearGradient>
<linearGradient id="paint73_linear_53_402" x1="16.4312" y1="75.0041" x2="21.1764" y2="94.9829" gradientUnits="userSpaceOnUse">
<stop stop-color="#09005D"/>
<stop offset="1" stop-color="#1A0F91"/>
</linearGradient>
<linearGradient id="paint74_linear_53_402" x1="104.849" y1="230.273" x2="75.3119" y2="124.689" gradientUnits="userSpaceOnUse">
<stop stop-color="#4F52FF"/>
<stop offset="1" stop-color="#4042E2"/>
</linearGradient>
<clipPath id="clip0_53_402">
<rect width="149" height="148.488" fill="white" transform="matrix(-1 0 0 1 149 0)"/>
</clipPath>
</defs>
</svg>
