<svg width="50" height="54" viewBox="0 0 50 54" fill="none" xmlns="http://www.w3.org/2000/svg">
<g clip-path="url(#clip0_486_3575)">
<path d="M41.7185 0C42.0724 0.117114 42.4318 0.218257 42.7694 0.356664C45.176 1.34681 46.2976 4.05106 45.2849 6.41463C45.2087 6.5903 45.1379 6.76065 45.0508 6.95761C45.5844 7.01617 46.0962 7.01617 46.5808 7.12796C48.6444 7.59109 49.9838 9.27859 49.9947 11.4292C50.011 13.7289 49.9947 16.0339 49.9947 18.3336C49.9947 24.9771 49.9947 31.6207 49.9947 38.2642C49.9947 40.4521 48.7206 42.1449 46.6842 42.6453C46.2214 42.7571 45.7259 42.7944 45.2468 42.7944C39.9816 42.805 34.711 42.7997 29.4458 42.7997H28.7162C29.1409 44.5564 29.5547 46.2545 29.9794 48.0059C30.8778 48.0059 31.7708 47.9953 32.6692 48.0059C34.3408 48.0325 35.653 49.0866 35.9524 50.6569C36.0232 51.0296 36.0014 51.4235 36.0287 51.8813C36.9216 51.8813 37.8146 51.8813 38.7075 51.8813C38.9798 51.8813 39.2466 51.8653 39.5134 51.8866C40.0524 51.9292 40.4771 52.387 40.4934 52.9087C40.5098 53.4464 40.0687 53.9255 39.5134 53.9787C39.4045 53.9893 39.2956 53.9787 39.1921 53.9787C29.7344 53.9787 20.2822 53.9734 10.8245 53.9893C9.94241 53.9893 9.48504 53.3985 9.5286 52.8448C9.57216 52.2752 10.0295 51.876 10.6611 51.876C11.7555 51.8653 12.85 51.876 13.977 51.876C14.0043 51.4448 13.977 51.0402 14.0533 50.6516C14.3527 49.0865 15.6704 48.0272 17.3419 48.0006C18.2186 47.9899 19.1006 48.0006 20.0263 48.0006C20.4455 46.2811 20.8593 44.583 21.2949 42.7944H20.6143C15.2729 42.7944 9.93696 42.7944 4.59557 42.7944C2.4013 42.7944 0.680728 41.538 0.168912 39.5631C0.0545705 39.1266 0.0110118 38.6634 0.0110118 38.211C0.00012207 29.3316 0.00012207 20.4576 0.00012207 11.5836C0.00012207 8.81546 1.85137 7.01084 4.70447 7.01084C14.124 7.01084 23.5436 7.01084 32.9632 7.02149C33.426 7.02149 33.7091 6.90438 33.9705 6.51045C34.9016 5.09444 35.8925 3.71037 36.8345 2.29968C37.5968 1.16049 38.6041 0.377957 39.9871 0.101144C40.0306 0.0904968 40.0687 0.0425867 40.1068 0.0106467C40.6459 0.0106467 41.1849 0.0106467 41.724 0.0106467L41.7185 0ZM47.8004 31.445C47.8004 31.1841 47.8004 30.9925 47.8004 30.8062C47.8004 24.4288 47.8004 18.0515 47.8004 11.6688C47.8004 11.4771 47.8004 11.2802 47.7841 11.0885C47.7024 10.0185 46.8258 9.19341 45.7314 9.16147C45.1215 9.1455 44.5063 9.18809 43.8965 9.1455C43.4119 9.10824 43.1124 9.29456 42.8129 9.65122C39.9163 13.122 37.0196 16.5929 34.0957 20.0424C33.6275 20.5907 33.2354 21.0964 33.6003 21.847C33.6874 22.028 33.6656 22.2622 33.6819 22.4698C33.8888 25.1315 32.2445 27.4844 29.7181 27.9795C28.7489 28.1711 27.7144 28.1339 26.718 28.0913C25.0954 28.0221 23.5763 28.1605 22.2968 29.3103C21.6815 29.864 20.794 29.5446 20.5707 28.7301C20.0208 26.7392 19.6996 24.7269 19.9174 22.6455C20.2985 19.0735 23.0046 16.5609 26.6853 16.4651C27.0338 16.4545 27.2298 16.3427 27.4204 16.0605C28.8741 13.9099 30.3497 11.7699 31.8143 9.6246C31.9015 9.49684 31.9722 9.36376 32.0975 9.15615C31.8252 9.15615 31.6347 9.15615 31.4441 9.15615C22.5309 9.15615 13.6177 9.17744 4.69902 9.13486C3.25614 9.12953 2.16717 10.0505 2.17806 11.6102C2.22162 18.0248 2.19439 24.4395 2.19984 30.8488C2.19984 31.0351 2.21617 31.2214 2.22706 31.4397C2.90767 31.4397 3.53383 31.4397 4.15998 31.4397C4.57379 31.4397 4.99304 31.4184 5.39596 31.4716C5.97312 31.5461 6.33248 31.988 6.33248 32.5203C6.33248 33.058 5.96767 33.4838 5.38507 33.553C4.99304 33.6009 4.59557 33.5797 4.20354 33.585C3.54472 33.585 2.89133 33.585 2.22162 33.585C2.22162 35.3949 2.18895 37.1143 2.23795 38.8338C2.26518 39.7068 3.0819 40.4734 3.97486 40.6011C4.29066 40.6437 4.61735 40.6544 4.94404 40.6544C18.3166 40.6544 31.6891 40.6544 45.0562 40.6544C45.1978 40.6544 45.3448 40.6544 45.4863 40.6544C46.9456 40.6011 47.7786 39.776 47.7895 38.36C47.8004 36.9174 47.7895 35.4801 47.7895 34.0375C47.7895 33.9044 47.7623 33.7713 47.7405 33.5903C47.4628 33.5903 47.2124 33.5903 46.9673 33.5903C36.1321 33.5903 25.2914 33.5903 14.4562 33.5903C14.1894 33.5903 13.9117 33.5903 13.6503 33.5371C13.1549 33.4466 12.8282 33.0526 12.8118 32.5789C12.7955 32.0572 13.0405 31.6899 13.5414 31.5355C13.8082 31.4556 14.1077 31.445 14.3908 31.445C25.2642 31.445 36.1376 31.445 47.0109 31.445C47.2396 31.445 47.4737 31.445 47.795 31.445H47.8004ZM35.6747 14.8255C36.5296 13.8088 37.3354 12.8452 38.1467 11.8817C39.742 9.98127 41.3483 8.09148 42.9164 6.16975C43.9182 4.94539 43.5534 3.19933 42.1977 2.44341C40.978 1.76735 39.5678 2.12934 38.7293 3.35371C36.7201 6.28155 34.7164 9.21471 32.7127 12.1479C32.6365 12.2597 32.5821 12.3821 32.5058 12.5205C33.5676 13.2871 34.6021 14.0377 35.6802 14.8255H35.6747ZM22.2968 26.5901C23.0808 26.3985 23.7941 26.1376 24.5346 26.0631C25.531 25.9673 26.5383 25.9992 27.5401 26.0045C28.4385 26.0045 29.3478 26.0631 30.1428 25.552C31.2699 24.8281 31.7436 23.4972 31.4332 22.0653C31.3352 21.6128 31.1392 21.2774 30.7308 21.0059C29.8705 20.431 29.0048 19.8507 28.2262 19.18C27.5456 18.5944 26.8541 18.4826 26.0047 18.653C24.099 19.0416 22.7868 20.0424 22.2804 21.9322C21.8612 23.4972 22.0082 25.057 22.2913 26.5848L22.2968 26.5901ZM16.1604 51.844H33.818C33.9052 50.5238 33.5621 50.1565 32.2499 50.1565C29.3751 50.1565 26.5002 50.1565 23.6253 50.1565C21.5399 50.1565 19.4545 50.1512 17.3692 50.1565C16.5906 50.1565 16.1822 50.5664 16.1604 51.3277C16.1604 51.4821 16.1604 51.6418 16.1604 51.8334V51.844ZM27.7362 47.9793C27.306 46.2066 26.8922 44.5138 26.4784 42.8263H23.5164C23.0971 44.5457 22.6888 46.2439 22.2695 47.9793H27.7362ZM29.2063 17.2636C30.1373 17.9343 31.0248 18.5838 31.9559 19.2545C32.74 18.3229 33.4968 17.418 34.2917 16.4757C33.279 15.7411 32.2772 15.0172 31.2535 14.2772C30.5511 15.2993 29.8923 16.2628 29.2063 17.2689V17.2636Z" fill="white"/>
<path d="M10.6502 32.5415C10.6393 33.1324 10.1439 33.5955 9.53949 33.5743C8.96234 33.553 8.49952 33.0898 8.49952 32.5202C8.49952 31.94 9.00045 31.4449 9.58305 31.4502C10.1656 31.4556 10.6557 31.956 10.6502 32.5415Z" fill="white"/>
</g>
<defs>
<clipPath id="clip0_486_3575">
<rect width="50" height="54" fill="white"/>
</clipPath>
</defs>
</svg>
