<svg width="14" height="17" viewBox="0 0 14 17" fill="none" xmlns="http://www.w3.org/2000/svg">
<path d="M12.9593 0C13.2443 0.119852 13.4305 0.314345 13.421 0.656841C13.4157 0.850907 13.3213 0.995924 13.1933 1.12815C12.155 2.19743 11.1184 3.268 10.0814 4.33856C9.57196 4.86446 9.06292 5.39036 8.55348 5.91626C8.51394 5.95678 8.47317 5.99602 8.45176 6.01692C8.17376 5.72688 7.90195 5.44368 7.61572 5.14426C7.62149 5.13786 7.65402 5.10075 7.68821 5.06493C9.23672 3.45567 10.7844 1.84598 12.3354 0.239278C12.4264 0.145017 12.5454 0.0789062 12.6513 0C12.7542 0 12.8568 0 12.9597 0H12.9593Z" fill="#144973"/>
<path d="M7.75992 3.64229C7.55895 3.84531 7.35756 4.04791 7.15782 4.25221C6.9972 4.41685 6.84194 4.58746 6.6772 4.7474C6.63437 4.78877 6.56353 4.82417 6.50711 4.82247C5.32101 4.78238 4.48086 5.35349 4.05337 6.49997C3.76014 7.28647 3.59417 8.10625 3.46444 8.93497C3.41338 9.25998 3.36684 9.58627 3.33925 9.91384C3.31083 10.2499 3.51963 10.4794 3.84128 10.4419C5.0352 10.3028 6.21306 10.0917 7.33738 9.62039C8.38057 9.18278 8.81217 8.10028 8.76975 7.20117C8.76605 7.12482 8.80352 7.02416 8.85583 6.97C9.90767 5.87725 10.9632 4.78835 12.0225 3.70371C12.0801 3.64485 12.1785 3.60305 12.2601 3.59964C12.5677 3.58769 12.8766 3.59196 13.1847 3.5958C13.5483 3.60049 13.7291 3.79413 13.7291 4.17203C13.7291 6.52386 13.7291 8.87526 13.7291 11.2271C13.7291 11.5939 13.543 11.7939 13.1921 11.7939C9.19518 11.7948 5.19829 11.7948 1.20139 11.7939C0.85009 11.7939 0.66188 11.5939 0.661468 11.2297C0.660645 8.88337 0.660645 6.53708 0.660645 4.19037C0.660645 3.78304 0.838559 3.59537 1.23351 3.59494C3.00607 3.59366 4.77821 3.59452 6.55077 3.59452C6.94572 3.59452 7.34026 3.59452 7.73521 3.59452C7.74345 3.6103 7.75169 3.62651 7.76034 3.64229H7.75992Z" fill="#144973"/>
<path d="M5.75091 15.3749C5.76903 15.1638 5.7888 14.9646 5.80321 14.7645C5.84769 14.1448 5.89382 13.5251 5.93088 12.9045C5.9383 12.7842 5.97866 12.7544 6.08862 12.7548C6.82293 12.759 7.55682 12.7603 8.29113 12.7539C8.42251 12.7527 8.45052 12.8017 8.45834 12.9275C8.50653 13.691 8.56377 14.4536 8.61896 15.2167C8.62225 15.2636 8.6342 15.3096 8.64532 15.3749C8.70338 15.3749 8.75816 15.3749 8.81293 15.3749C9.18276 15.3749 9.55218 15.3715 9.92202 15.3762C10.2292 15.38 10.4352 15.586 10.4294 15.8722C10.4236 16.152 10.2157 16.3452 9.91707 16.3452C8.09963 16.3452 6.28218 16.3457 4.46474 16.3452C4.16986 16.3452 3.96106 16.1452 3.959 15.8654C3.95694 15.586 4.16039 15.3813 4.45774 15.3766C4.82716 15.3711 5.19699 15.3749 5.56682 15.3749C5.62283 15.3749 5.67843 15.3749 5.75091 15.3749V15.3749Z" fill="#144973"/>
<path d="M4.33057 9.41851C4.47595 8.49254 4.64068 7.60538 4.94997 6.75148C5.24773 5.92873 6.05205 5.68561 6.63934 5.81655C7.34893 5.97436 7.87526 6.65808 7.83367 7.41813C7.80196 8.00417 7.55568 8.46524 7.01287 8.71604C6.43342 8.98389 5.81936 9.12635 5.20202 9.25601C4.92197 9.31487 4.63945 9.36179 4.33057 9.41894V9.41851Z" fill="#144973"/>
</svg>
