<svg width="18" height="15" viewBox="0 0 18 15" fill="none" xmlns="http://www.w3.org/2000/svg">
<path d="M17.1588 7.7C17.0488 7.95 16.9788 8.22 16.8288 8.44C16.5188 8.88 16.0688 9.07 15.5288 9.08C14.7688 9.08 14.0088 9.08 13.2488 9.08C13.1888 9.08 13.1288 9.08 13.0488 9.08C13.1788 9.43 13.2988 9.76 13.4188 10.09C13.9288 11.46 14.4288 12.84 14.9288 14.21C14.9688 14.33 14.9988 14.46 14.9888 14.58C14.9588 14.81 14.7688 14.97 14.5488 15C14.3488 15.03 14.1288 14.91 14.0488 14.71C13.9188 14.41 13.8188 14.11 13.7088 13.8C13.1488 12.27 12.5888 10.75 12.0288 9.22C11.9788 9.08 11.9088 9.07 11.7788 9.07C11.6488 9.07 11.5988 9.12 11.5588 9.24C10.9188 11 10.2788 12.77 9.63879 14.53C9.61879 14.6 9.58879 14.67 9.54879 14.73C9.41879 14.97 9.14879 15.07 8.90879 14.96C8.67879 14.86 8.54879 14.6 8.62879 14.35C8.81879 13.8 9.01879 13.25 9.21879 12.7C9.63879 11.55 10.0488 10.41 10.4688 9.26C10.4888 9.2 10.4988 9.15 10.5188 9.07H9.84879C9.86879 8.79 9.87879 8.52 9.89879 8.24C9.89879 8.18 9.92879 8.12 9.95879 8.07C10.2888 7.4 10.6288 6.73 10.9588 6.07C11.2388 5.5 11.2088 4.95 10.8388 4.43C10.2588 3.62 8.92879 3.65 8.40879 4.5C8.16879 4.89 7.97879 5.32 7.76879 5.73C7.73879 5.78 7.70879 5.84 7.67879 5.9C7.28879 5.71 6.90879 5.52 6.53879 5.33C6.49879 5.31 6.45879 5.24 6.45879 5.19C6.45879 3.96 6.44879 2.73 6.45879 1.5C6.47879 0.66 7.15879 0.02 7.99879 0C8.38879 0 8.77879 0 9.16879 0C11.2788 0 13.3888 0 15.4988 0C16.1688 0 16.6788 0.29 16.9788 0.9C17.0488 1.05 17.0888 1.21 17.1388 1.37V7.71L17.1588 7.7ZM11.7988 3.15C12.6688 3.15 13.5388 3.15 14.4088 3.15C14.4788 3.15 14.5588 3.15 14.6288 3.13C14.8788 3.07 15.0188 2.84 14.9888 2.58C14.9588 2.31 14.7588 2.15 14.4388 2.15C12.6788 2.15 10.9188 2.15 9.16879 2.15C9.07879 2.15 8.98879 2.17 8.90879 2.2C8.69879 2.29 8.57879 2.52 8.62879 2.73C8.67879 2.98 8.86879 3.14 9.12879 3.14C10.0188 3.14 10.9188 3.14 11.8088 3.14L11.7988 3.15ZM13.3888 5.93C13.0088 5.93 12.6288 5.93 12.2488 5.93C11.9488 5.93 11.7388 6.16 11.7588 6.46C11.7788 6.75 11.9888 6.92 12.3288 6.93C12.9288 6.93 13.5388 6.93 14.1388 6.93C14.2688 6.93 14.4088 6.93 14.5388 6.93C14.8288 6.9 15.0188 6.69 15.0088 6.42C14.9988 6.14 14.7888 5.94 14.4888 5.94C14.1288 5.94 13.7588 5.94 13.3988 5.94L13.3888 5.93ZM13.3688 5.03C13.7388 5.03 14.1188 5.03 14.4888 5.03C14.6488 5.03 14.7888 4.98 14.8888 4.85C15.0188 4.69 15.0388 4.52 14.9588 4.33C14.8788 4.14 14.7188 4.04 14.5088 4.04C13.7588 4.04 12.9988 4.04 12.2488 4.04C12.1988 4.04 12.1388 4.04 12.0888 4.07C11.8588 4.15 11.7288 4.37 11.7688 4.63C11.7988 4.85 11.9888 5.03 12.2188 5.03C12.5988 5.03 12.9888 5.03 13.3788 5.03H13.3688Z" fill="#144973"/>
<path d="M2.94889 5.38024C1.67889 5.19024 0.938894 4.13024 0.998894 3.03024C1.05889 2.01024 1.9089 1.12024 2.9689 1.01024C4.0289 0.900243 5.02889 1.61024 5.31889 2.65024C5.57889 3.60024 5.0589 5.08024 3.5789 5.38024C4.2989 5.35024 4.91889 5.64024 5.52889 5.95024C6.38889 6.38024 7.25889 6.81024 8.12889 7.25024C8.15889 7.19024 8.1889 7.14024 8.2189 7.09024C8.5389 6.45024 8.8589 5.82024 9.17889 5.18024C9.25889 5.03024 9.35889 4.91024 9.52889 4.87024C9.72889 4.82024 9.9089 4.87024 10.0389 5.03024C10.1789 5.20024 10.1989 5.39024 10.0989 5.58024C9.90889 5.97024 9.71889 6.35024 9.52889 6.73024C9.32889 7.13024 9.11889 7.54024 8.92889 7.94024C8.88889 8.02024 8.87889 8.12024 8.88889 8.21024C9.02889 8.95024 8.44889 9.72024 7.70889 9.79024C7.39889 9.82024 7.10889 9.76024 6.83889 9.62024C6.39889 9.40024 5.94889 9.18024 5.50889 8.95024C5.45889 8.92024 5.39889 8.90024 5.31889 8.86024V9.07024C5.31889 10.8202 5.31889 12.5802 5.31889 14.3302C5.31889 14.8202 5.13889 15.0002 4.65889 15.0002C3.66889 15.0002 2.66889 15.0002 1.67889 15.0002C1.26889 15.0002 1.0789 14.8102 1.0789 14.3902C1.0789 13.5402 1.0789 12.6902 1.0789 11.8402C1.0789 11.7302 1.05889 11.6702 0.938889 11.6102C0.348889 11.3402 0.0288889 10.8702 0.00888889 10.2202C-0.0111111 9.68024 0.00888889 9.14024 0.00888889 8.59024C0.00888889 7.06024 0.998892 5.80024 2.48889 5.44024C2.63889 5.40024 2.78889 5.38024 2.95889 5.35024L2.94889 5.38024Z" fill="#144973"/>
</svg>
