<svg width="13" height="13" viewBox="0 0 13 13" fill="none" xmlns="http://www.w3.org/2000/svg">
<path d="M5.40356 0.000334527C5.6225 0.0455032 5.84586 0.0762848 6.05935 0.138517C6.97222 0.404845 7.67875 0.941516 8.18098 1.73615C8.2198 1.79738 8.25555 1.83084 8.33727 1.83151C9.47282 1.84087 10.4163 2.49833 10.8099 3.54959C10.8198 3.57635 10.8324 3.60212 10.843 3.62654C11.9908 3.55327 12.9186 4.42051 12.9942 5.45269C13.0776 6.59663 12.2404 7.3287 11.572 7.49365C11.572 7.43844 11.5727 7.38658 11.572 7.33506C11.5658 6.95564 11.588 6.57321 11.5461 6.19781C11.4848 5.64976 11.0255 5.26399 10.463 5.23622C10.4334 5.23488 10.4034 5.23455 10.3738 5.23455C7.79145 5.23455 5.20913 5.23388 2.62681 5.23455C2.04967 5.23455 1.58933 5.57147 1.46675 6.09777C1.42861 6.26205 1.43304 6.4367 1.42861 6.60701C1.42282 6.83118 1.42725 7.05568 1.42725 7.27985C1.41703 7.28955 1.40682 7.29926 1.39626 7.30862C1.21818 7.17914 1.02751 7.06371 0.86441 6.91817C-0.510512 5.69192 -0.197257 3.5071 1.46334 2.69172C1.5151 2.66629 1.56277 2.60473 1.58251 2.54952C2.08406 1.1436 3.07491 0.300121 4.56832 0.0311162C4.62586 0.0207441 4.68341 0.0103721 4.74061 0C4.96159 0 5.18223 0 5.40322 0L5.40356 0.000334527Z" fill="#144973"/>
<path d="M2.19238 9.76953H10.8062V9.9027C10.8062 10.7331 10.8062 11.5639 10.8062 12.3943C10.8062 12.6797 10.6598 12.8226 10.3673 12.8226C7.78911 12.8226 5.21088 12.8226 2.63264 12.8226C2.33914 12.8226 2.19272 12.6804 2.19272 12.3957C2.19272 11.5652 2.19272 10.7345 2.19272 9.90403C2.19272 9.86322 2.19272 9.8224 2.19272 9.76953H2.19238ZM4.45668 10.8191C4.12129 10.8191 3.7859 10.8158 3.45085 10.8205C3.22851 10.8235 3.05554 10.9961 3.0586 11.1992C3.06167 11.3986 3.23055 11.5682 3.44643 11.5696C4.11686 11.5736 4.78764 11.5723 5.45842 11.5703C5.59325 11.5699 5.70698 11.5161 5.78257 11.403C5.86395 11.2818 5.8711 11.1507 5.80402 11.0229C5.73149 10.8844 5.60585 10.8208 5.4499 10.8198C5.11894 10.8178 4.78764 10.8191 4.45668 10.8195V10.8191ZM8.30837 11.2002C8.31245 11.0025 8.13505 10.8235 7.93178 10.8195C7.73088 10.8158 7.54804 10.9901 7.54429 11.1895C7.54055 11.3869 7.71795 11.5666 7.92088 11.5703C8.12177 11.5743 8.30428 11.4 8.30837 11.2002ZM9.56377 11.5703C9.76705 11.5659 9.94376 11.3862 9.93934 11.1885C9.93491 10.9888 9.75207 10.8151 9.55117 10.8195C9.34824 10.8238 9.17084 11.0038 9.17561 11.2009C9.18003 11.4003 9.36322 11.5746 9.56377 11.5703Z" fill="#144973"/>
<path d="M10.8062 9.01327H2.19238V8.89416C2.19238 8.06372 2.19238 7.23329 2.19238 6.40286C2.19238 6.13419 2.34288 5.9873 2.61834 5.9873C5.20475 5.9873 7.79115 5.9873 10.3776 5.9873C10.6544 5.9873 10.8059 6.13318 10.8059 6.40018C10.8062 7.23061 10.8059 8.06105 10.8059 8.89148C10.8059 8.92829 10.8059 8.96476 10.8059 9.01327H10.8062ZM4.46076 7.16336C4.13832 7.16336 3.81552 7.16269 3.49307 7.16336C3.23872 7.16403 3.0586 7.32129 3.05894 7.53943C3.05928 7.75792 3.23907 7.91484 3.49376 7.91517C4.13457 7.91617 4.77572 7.91617 5.41654 7.91517C5.67599 7.91484 5.84658 7.76394 5.84658 7.53877C5.84658 7.31359 5.67599 7.16403 5.41585 7.16336C5.09749 7.16236 4.77913 7.16336 4.46076 7.16336ZM7.92054 7.16269C7.71556 7.1657 7.54055 7.34203 7.54463 7.54144C7.54872 7.74085 7.73156 7.91517 7.93246 7.91082C8.13641 7.90647 8.31313 7.72747 8.30871 7.52973C8.30394 7.32831 8.12552 7.15968 7.92088 7.16269H7.92054ZM9.93968 7.53107C9.93593 7.32999 9.75785 7.16035 9.55288 7.16269C9.3479 7.16504 9.17254 7.34036 9.17561 7.5401C9.17867 7.73918 9.36084 7.91417 9.56207 7.91082C9.76569 7.90748 9.94308 7.72881 9.93934 7.53107H9.93968Z" fill="#144973"/>
</svg>
