<svg width="14" height="14" viewBox="0 0 14 14" fill="none" xmlns="http://www.w3.org/2000/svg">
<path d="M7.16164 13.4594C5.97679 13.4594 4.79232 13.4614 3.60747 13.459C2.21039 13.4559 1.07851 12.5646 0.750893 11.1972C0.691499 10.9488 0.666909 10.6855 0.666152 10.4289C0.660099 7.96063 0.658586 5.49274 0.663883 3.02446C0.667287 1.5431 1.58014 0.372826 2.96776 0.0640954C3.17772 0.0174724 3.39827 0.00375961 3.6139 0.00336782C5.97868 -0.000941871 8.34347 -0.0005502 10.7082 0.00140875C12.1643 0.00258412 13.3057 0.945232 13.6015 2.39838C13.6458 2.61622 13.6571 2.84463 13.6575 3.06795C13.6613 5.51155 13.6613 7.95554 13.6594 10.3991C13.6583 11.8064 12.8725 12.9403 11.6067 13.327C11.3132 13.4167 10.9946 13.45 10.6871 13.4539C9.51205 13.468 8.33666 13.4598 7.16127 13.4598L7.16164 13.4594ZM8.33136 4.53442C8.34082 4.25664 8.19252 4.06545 7.96138 4.01961C7.74499 3.97691 7.53238 4.10541 7.45558 4.34245C6.97325 5.83399 6.49242 7.32593 6.01841 8.82022C5.98701 8.91895 5.99495 9.0451 6.02332 9.14697C6.07667 9.33856 6.2609 9.45727 6.44551 9.451C6.65131 9.44395 6.80414 9.31387 6.88094 9.07606C7.35155 7.61664 7.82216 6.15722 8.29164 4.69741C8.31244 4.63315 8.32379 4.56577 8.33136 4.53482V4.53442ZM4.16017 6.71905C4.2173 6.67046 4.26042 6.63951 4.29712 6.60151C4.63116 6.25713 4.96634 5.91352 5.2966 5.56483C5.48159 5.36972 5.48348 5.09272 5.31098 4.90741C5.13658 4.71974 4.86042 4.70485 4.67694 4.89174C4.18287 5.39519 3.69259 5.90255 3.20685 6.41462C3.03812 6.5925 3.03434 6.86127 3.20155 7.03835C3.69297 7.55826 4.18665 8.07621 4.6932 8.58044C4.93721 8.82335 5.33708 8.68427 5.42144 8.34498C5.46835 8.15692 5.40404 8.00216 5.2739 7.86856C4.90922 7.4944 4.5468 7.11828 4.16017 6.71905V6.71905ZM10.1502 6.72336C10.1049 6.77311 10.0735 6.80877 10.0405 6.84246C9.70082 7.19507 9.35808 7.54455 9.02139 7.90069C8.83829 8.09423 8.84169 8.37279 9.0176 8.55811C9.19276 8.74264 9.46627 8.75205 9.65202 8.56242C10.1427 8.0621 10.6299 7.55826 11.1123 7.04972C11.2859 6.86675 11.2886 6.59642 11.1164 6.41462C10.6311 5.90216 10.1393 5.39597 9.64635 4.89134C9.52794 4.76989 9.37851 4.73149 9.21508 4.78125C8.87007 4.88586 8.77435 5.30076 9.03652 5.57541C9.40083 5.95741 9.77119 6.33352 10.1499 6.72375L10.1502 6.72336Z" fill="#144973"/>
</svg>
