<svg width="13" height="15" viewBox="0 0 13 15" fill="none" xmlns="http://www.w3.org/2000/svg">
<path d="M6.93135 10.6214C5.52826 9.16864 4.13834 7.72917 2.7395 6.28087C3.0219 5.72803 3.3105 5.16396 3.5991 4.59949C4.18094 3.46051 4.76241 2.32113 5.34503 1.18255C5.5546 0.772931 5.87884 0.721579 6.19455 1.04855C8.11867 3.04006 10.0424 5.03157 11.9665 7.02348C12.2865 7.35486 12.2373 7.69387 11.8364 7.91532C10.2373 8.79955 8.63777 9.68377 7.03827 10.5676C7.00031 10.5885 6.96118 10.6069 6.93174 10.6218L6.93135 10.6214Z" fill="#144973"/>
<path d="M2.51453 7.44864C3.61081 8.58522 4.69665 9.71055 5.79216 10.8463C5.77124 10.8712 5.74607 10.9053 5.71662 10.9358C5.31995 11.3458 4.92443 11.7574 4.52504 12.1646C3.92227 12.7793 3.08127 12.7777 2.48354 12.1618C2.06556 11.7314 1.64796 11.3005 1.23308 10.8664C0.664013 10.271 0.645028 9.40725 1.20092 8.80788C1.62898 8.34611 2.07485 7.90239 2.51491 7.44824L2.51453 7.44864Z" fill="#144973"/>
<path d="M4.81167 13.2028C5.3633 12.6419 5.9095 12.0863 6.47624 11.5098C6.79661 11.8608 7.14487 12.1834 7.42185 12.5617C7.76816 13.0347 7.6535 13.738 7.22467 14.1219C6.77492 14.5247 6.12024 14.5271 5.68017 14.1063C5.37569 13.815 5.09407 13.4985 4.81128 13.2028H4.81167Z" fill="#144973"/>
<path d="M0.101377 10.9365C0.798663 11.8256 1.57072 12.6332 2.42335 13.3405C1.94648 13.5627 1.1508 13.454 0.612727 12.9405C0.0700062 12.4221 -0.144998 11.572 0.101377 10.9365Z" fill="#144973"/>
<path d="M11.64 1.94059C11.5854 2.0469 11.5498 2.17248 11.4727 2.25673C11.1709 2.5861 10.8587 2.90585 10.5445 3.22319C10.35 3.41978 10.0665 3.41256 9.88403 3.21838C9.70583 3.02902 9.70235 2.74136 9.88752 2.54518C10.1939 2.21982 10.505 1.89927 10.818 1.58072C10.9648 1.43108 11.1647 1.39497 11.3379 1.48243C11.5126 1.57109 11.6067 1.71793 11.6404 1.94059H11.64Z" fill="#144973"/>
<path d="M7.89763 0.945634C7.89763 0.790374 7.89569 0.635113 7.89763 0.480254C7.9015 0.201426 8.10178 -0.00277972 8.36714 2.86146e-05C8.62242 0.00243576 8.82115 0.208246 8.82347 0.479451C8.82618 0.800002 8.82618 1.12015 8.82347 1.4407C8.82115 1.71993 8.61932 1.92334 8.35396 1.92093C8.09945 1.91852 7.9015 1.71191 7.89763 1.44151C7.8953 1.27622 7.89725 1.11093 7.89725 0.946036L7.89763 0.945634Z" fill="#144973"/>
<path d="M12.0733 5.285C11.9187 5.285 11.7638 5.287 11.6092 5.28459C11.3408 5.28058 11.1428 5.07156 11.1455 4.79755C11.1479 4.53196 11.345 4.32776 11.6081 4.32535C11.9172 4.32254 12.2267 4.32254 12.5359 4.32535C12.8035 4.32776 13.0023 4.53838 12.9999 4.81159C12.9976 5.07638 12.7993 5.28018 12.537 5.28419C12.3824 5.2866 12.2279 5.28459 12.0729 5.28459L12.0733 5.285Z" fill="#144973"/>
</svg>
