<svg width="13" height="14" viewBox="0 0 13 14" fill="none" xmlns="http://www.w3.org/2000/svg">
<path d="M6.501 13.4594C5.31615 13.4594 4.13168 13.4614 2.94683 13.459C1.54975 13.4559 0.417861 12.5646 0.0902487 11.1972C0.0308549 10.9488 0.00626433 10.6855 0.00550772 10.4289C-0.000545152 7.96063 -0.00205828 5.49274 0.00323799 3.02446C0.00664273 1.5431 0.919491 0.372826 2.30711 0.0640954C2.51707 0.0174724 2.73762 0.00375961 2.95326 0.00336782C5.31804 -0.000941871 7.68282 -0.0005502 10.0476 0.00140875C11.5037 0.00258412 12.645 0.945232 12.9409 2.39838C12.9851 2.61622 12.9965 2.84463 12.9969 3.06795C13.0006 5.51155 13.0006 7.95554 12.9988 10.3991C12.9976 11.8064 12.2119 12.9403 10.9461 13.327C10.6525 13.4167 10.334 13.45 10.0264 13.4539C8.8514 13.468 7.67601 13.4598 6.50062 13.4598L6.501 13.4594ZM7.67072 4.53442C7.68017 4.25664 7.53188 4.06545 7.30073 4.01961C7.08434 3.97691 6.87174 4.10541 6.79494 4.34245C6.3126 5.83399 5.83178 7.32593 5.35776 8.82022C5.32636 8.91895 5.33431 9.0451 5.36268 9.14697C5.41602 9.33856 5.60025 9.45727 5.78487 9.451C5.99066 9.44395 6.1435 9.31387 6.2203 9.07606C6.69091 7.61664 7.16152 6.15722 7.63099 4.69741C7.6518 4.63315 7.66315 4.56577 7.67072 4.53482V4.53442ZM3.49953 6.71905C3.55665 6.67046 3.59978 6.63951 3.63648 6.60151C3.97052 6.25713 4.3057 5.91352 4.63596 5.56483C4.82095 5.36972 4.82284 5.09272 4.65033 4.90741C4.47593 4.71974 4.19977 4.70485 4.01629 4.89174C3.52223 5.39519 3.03194 5.90255 2.5462 6.41462C2.37748 6.5925 2.3737 6.86127 2.54091 7.03835C3.03232 7.55826 3.52601 8.07621 4.03256 8.58044C4.27657 8.82335 4.67643 8.68427 4.7608 8.34498C4.80771 8.15692 4.7434 8.00216 4.61326 7.86856C4.24857 7.4944 3.88616 7.11828 3.49953 6.71905ZM9.4896 6.72336C9.44421 6.77311 9.41281 6.80877 9.3799 6.84246C9.04018 7.19507 8.69743 7.54455 8.36074 7.90069C8.17764 8.09423 8.18105 8.37279 8.35696 8.55811C8.53211 8.74264 8.80563 8.75205 8.99138 8.56242C9.48204 8.0621 9.9693 7.55826 10.4516 7.04972C10.6253 6.86675 10.6279 6.59642 10.4558 6.41462C9.97043 5.90216 9.47863 5.39597 8.9857 4.89134C8.86729 4.76989 8.71786 4.73149 8.55444 4.78125C8.20942 4.88586 8.11371 5.30077 8.37587 5.57541C8.74018 5.95741 9.11054 6.33352 9.48923 6.72375L9.4896 6.72336Z" fill="#144973"/>
</svg>
