<svg width="15" height="19" viewBox="0 0 15 19" fill="none" xmlns="http://www.w3.org/2000/svg">
<path d="M12.902 18.1446V13.9895C13.0377 13.9895 13.1602 13.9895 13.2826 13.9895C13.7208 13.9895 14.1594 13.9895 14.5975 13.9895C14.8562 13.9895 14.9583 13.9317 14.9616 13.7838C14.9649 13.6327 14.8605 13.5697 14.606 13.5693C14.1024 13.5693 13.5993 13.5693 13.0956 13.5693C13.0377 13.5693 12.9793 13.5693 12.9124 13.5693V10.2529H13.0966C13.5883 10.2529 14.0801 10.2529 14.5714 10.2529C14.6008 10.2529 14.6307 10.2529 14.6602 10.2529C14.8638 10.251 14.9654 10.1783 14.9611 10.0374C14.9573 9.90308 14.8595 9.83311 14.6668 9.83311C14.1513 9.83218 13.6363 9.83311 13.1208 9.83311C13.0562 9.83311 12.9917 9.83311 12.9143 9.83311V6.51674C13.0975 6.51674 13.2793 6.51674 13.4607 6.51674C13.8637 6.51674 14.2662 6.51768 14.6692 6.51674C14.8605 6.51628 14.9587 6.44445 14.9606 6.30965C14.9625 6.17345 14.8638 6.09788 14.6744 6.09742C14.1532 6.09602 13.632 6.09742 13.1108 6.09695C13.0472 6.09695 12.9831 6.09695 12.911 6.09695V2.3384C12.9542 2.3342 12.9993 2.32627 13.0444 2.32627C13.5418 2.32534 14.0393 2.32441 14.5372 2.32627C14.8396 2.32721 14.9972 2.48066 14.9972 2.77685C14.9977 7.74674 14.9972 12.7166 15 17.6865C15 17.9081 14.8947 18.0433 14.7138 18.1446H12.901H12.902Z" fill="#144973"/>
<path d="M7.03711 18.1451V15.8525H12.4755V18.1451H7.03711Z" fill="#144973"/>
<path d="M4.40648 18.1447C4.17199 18.0085 4.11456 17.8056 4.11741 17.5444C4.12975 16.4277 4.12262 15.3106 4.12262 14.1935V13.998H6.60994V18.1447H4.40602H4.40648Z" fill="#144973"/>
<path d="M9.7376 5.19307C9.7376 6.66514 9.7376 8.13768 9.7376 9.60976C9.7376 9.97591 9.59805 10.1116 9.2221 10.1116C6.31991 10.1116 3.41723 10.1116 0.515033 10.1116C0.139561 10.1116 0 9.97545 0 9.60976C0 6.65955 0 3.70886 0 0.758649C0 0.404623 0.142898 0.265625 0.506503 0.265625C3.41487 0.265625 6.32321 0.265625 9.23158 0.265625C9.59519 0.265625 9.73761 0.404623 9.73808 0.758649C9.73808 2.23679 9.73808 3.71493 9.73808 5.19307H9.7376ZM4.86121 5.02282C4.92197 4.96031 4.96517 4.91414 5.01026 4.86936C5.85187 4.04237 6.69348 3.21537 7.53508 2.38838C7.58113 2.34314 7.63001 2.29929 7.66799 2.24798C7.73966 2.15143 7.72307 2.04322 7.62766 1.99004C7.56025 1.95226 7.45486 1.96112 7.37226 1.97745C7.32337 1.98724 7.2854 2.05208 7.24362 2.09313C6.40581 2.91592 5.56848 3.73872 4.73067 4.56151C4.68558 4.60582 4.6381 4.64874 4.5688 4.71404C4.23415 4.35161 3.90519 3.99572 3.5601 3.62164C3.69586 3.41827 3.77087 3.13795 3.70299 2.8217C3.59002 2.29229 3.075 1.88416 2.53671 1.91448C1.95285 1.94713 1.47009 2.41777 1.42784 2.99522C1.38844 3.53302 1.79999 4.0433 2.35347 4.15291C2.62119 4.20609 2.86851 4.15618 3.11344 4.05263C3.16281 4.03211 3.25253 4.02371 3.28243 4.05216C3.61328 4.36607 3.93559 4.68838 4.27831 5.02655C4.09318 5.20146 3.91612 5.36378 3.74476 5.53217C3.57435 5.69962 3.40964 5.87313 3.2492 6.03685C3.17467 6.0014 3.13194 5.98181 3.09017 5.96036C2.26708 5.5345 1.48102 6.17818 1.43734 6.89323C1.41171 7.31349 1.68418 7.77107 2.09573 7.96743C2.49541 8.15821 2.97674 8.09197 3.30427 7.80138C3.68686 7.46182 3.84871 6.99585 3.64412 6.59704C3.51263 6.34097 3.56677 6.19964 3.76993 6.05318C3.80743 6.02612 3.8378 5.98834 3.87103 5.95522C4.09461 5.73367 4.31817 5.51211 4.56453 5.2677C4.61295 5.33067 4.64095 5.37684 4.67845 5.41323C5.54142 6.25235 6.40534 7.09007 7.26926 7.92779C7.31151 7.96837 7.35423 8.0346 7.40075 8.0388C7.48524 8.04626 7.59584 8.0402 7.65185 7.99169C7.69125 7.95717 7.66989 7.83963 7.65185 7.765C7.64094 7.72116 7.5835 7.68757 7.546 7.65072C6.9517 7.06628 6.3574 6.48183 5.76215 5.89832C5.46547 5.60773 5.16643 5.31901 4.86216 5.02328L4.86121 5.02282Z" fill="#144973"/>
<path d="M7.05042 12.1113H12.4651V15.4062H7.05042V12.1113Z" fill="#144973"/>
<path d="M10.1658 8.375H12.4627V11.6736H7.04663V10.5327C7.10834 10.5327 7.17101 10.5327 7.23319 10.5327C7.89632 10.5327 8.55897 10.5337 9.22209 10.5327C9.82256 10.5318 10.1643 10.1932 10.1653 9.59846C10.1658 9.19733 10.1653 8.79666 10.1653 8.37547L10.1658 8.375Z" fill="#144973"/>
<path d="M10.1777 4.67383H12.4657V7.93329H10.1777V4.67383Z" fill="#144973"/>
<path d="M6.59664 13.5619H4.13257V10.5469H6.59664V13.5619Z" fill="#144973"/>
<path d="M12.4599 4.2069H10.1796V2.33789H12.4599V4.2069Z" fill="#144973"/>
<path d="M3.30852 6.93749C3.30947 7.32556 2.96202 7.66326 2.55759 7.66606C2.175 7.66886 1.85032 7.34842 1.84937 6.96594C1.84795 6.56667 2.19064 6.22384 2.58605 6.22757C2.98146 6.2313 3.30758 6.55128 3.30852 6.93749Z" fill="#144973"/>
<path d="M2.56238 2.32617C2.96349 2.32664 3.30004 2.66247 3.30289 3.06594C3.30574 3.44889 2.9749 3.75907 2.56667 3.75627C2.16984 3.75347 1.86035 3.44609 1.86035 3.05521C1.86035 2.65454 2.17694 2.32571 2.56238 2.32617Z" fill="#144973"/>
</svg>
