<svg width="272" height="62" viewBox="0 0 272 62" fill="none" xmlns="http://www.w3.org/2000/svg">
<g clip-path="url(#clip0_243_2654)">
<path d="M91.3425 2.27816L33.8393 61.2528C33.6913 61.4024 33.4924 61.4879 33.2852 61.4879H1.71407C1.02029 61.4879 0.673406 60.6414 1.16836 60.1455L59.9448 1.17091C60.0886 1.02556 60.2875 0.944336 60.4905 0.944336H90.7883C91.4778 0.944336 91.8247 1.78225 91.3425 2.27816Z" fill="white"/>
<path d="M98.2971 0.944336H123.235C124.051 0.944336 124.47 1.93615 123.903 2.53039L99.6 28.1594C99.2278 28.5527 99.2616 29.1812 99.6762 29.5275L135.596 59.8249C136.26 60.3849 135.871 61.4836 135 61.4836H98.2802C98.039 61.4836 97.8064 61.3896 97.6329 61.2186L68.7566 32.8834C68.3885 32.5243 68.3801 31.9301 68.7354 31.5581L97.6287 1.23077C97.8021 1.04694 98.0433 0.944336 98.2971 0.944336Z" fill="#8E191C"/>
<path d="M65.7785 59.1581C70.8694 59.1581 74.9964 54.9875 74.9964 49.8427C74.9964 44.698 70.8694 40.5273 65.7785 40.5273C60.6876 40.5273 56.5605 44.698 56.5605 49.8427C56.5605 54.9875 60.6876 59.1581 65.7785 59.1581Z" fill="white"/>
<path d="M141.607 4.80017H149.526C149.806 4.80017 150.03 5.02675 150.03 5.30891V11.6916C150.03 12.102 150.483 12.3414 150.817 12.1105L161.278 4.88567C161.363 4.82582 161.46 4.7959 161.562 4.7959H170.987C171.486 4.7959 171.681 5.44571 171.266 5.72786L156.942 15.4622C156.659 15.6546 156.642 16.0735 156.917 16.2873L171.973 28.0395C172.353 28.3344 172.146 28.9501 171.664 28.9501H162.653C162.543 28.9501 162.437 28.9159 162.349 28.8475L150.546 19.8826C150.212 19.6304 149.738 19.8698 149.738 20.2888V28.437C149.738 28.7192 149.514 28.9458 149.235 28.9458H141.603C141.324 28.9458 141.1 28.7192 141.1 28.437V5.30891C141.1 5.02675 141.324 4.80017 141.603 4.80017H141.607Z" fill="white"/>
<path d="M174.515 28.7326V25.8512C174.515 25.7401 174.541 25.6332 174.591 25.5392L185.417 5.15134C185.531 4.93758 185.755 4.80078 185.996 4.80078H193.928C194.169 4.80078 194.389 4.93331 194.504 5.14279L206.403 26.967C206.458 27.0654 206.484 27.1765 206.484 27.2877V28.7326C206.484 29.1003 206.188 29.3953 205.828 29.3953H198.48C198.226 29.3953 197.994 29.2456 197.884 29.0105L190.345 12.6584C190.104 12.1325 189.355 12.1496 189.139 12.6883L182.599 28.9806C182.498 29.2328 182.257 29.3953 181.99 29.3953H175.171C174.807 29.3953 174.515 29.096 174.515 28.7326Z" fill="white"/>
<path d="M207.897 4.14685H216.497C216.586 4.14685 216.671 4.18105 216.734 4.24518L221.794 9.35817C221.857 9.42229 221.891 9.50779 221.891 9.59757V11.3717C221.891 11.453 221.861 11.5299 221.81 11.5898L218.464 15.5271C218.401 15.5998 218.308 15.6425 218.21 15.6425H216.852C216.759 15.6425 216.675 15.604 216.611 15.5356L207.656 5.91673C207.597 5.85261 207.567 5.77138 207.567 5.68588V4.48031C207.567 4.29648 207.715 4.14258 207.901 4.14258L207.897 4.14685Z" fill="white"/>
<path d="M229.218 4.80017H237.387C237.624 4.80017 237.814 4.99255 237.814 5.23196V5.58251C237.814 5.68939 237.776 5.79199 237.704 5.86894L226.76 18.1384C226.688 18.2153 226.65 18.3179 226.65 18.4248V28.9629C226.65 29.2023 226.46 29.3947 226.223 29.3947H218.147C217.91 29.3947 217.72 29.2023 217.72 28.9629V17.9118C217.72 17.8049 217.758 17.7066 217.825 17.6254L228.896 4.94125C228.977 4.8472 229.095 4.7959 229.214 4.7959L229.218 4.80017Z" fill="white"/>
<path d="M240.039 29.1046V25.1031C240.039 25.0561 240.052 25.009 240.073 24.9663L250.615 4.95468C250.666 4.86063 250.763 4.80078 250.869 4.80078H259.668C259.774 4.80078 259.871 4.86063 259.922 4.95468L271.902 27.6596C271.923 27.7023 271.936 27.7494 271.936 27.7964V29.1046C271.936 29.267 271.809 29.3953 271.648 29.3953H262.908C262.794 29.3953 262.688 29.3269 262.646 29.22L255.433 12.4147C255.332 12.1796 255.002 12.1838 254.904 12.419L248.039 29.2114C247.992 29.3183 247.891 29.391 247.772 29.391H240.331C240.17 29.391 240.043 29.2627 240.043 29.1003L240.039 29.1046Z" fill="white"/>
<path d="M159.286 44.6613V47.9916C159.286 48.1712 159.43 48.3208 159.612 48.3208H159.882C160.06 48.3208 160.208 48.1754 160.208 47.9916C160.208 47.8121 160.352 47.6624 160.534 47.6624H162.273C162.454 47.6624 162.607 47.8163 162.598 48.0002C162.569 48.6628 162.218 50.0778 159.827 50.1163C156.887 50.1634 154.489 47.5898 154.793 44.6357C155.098 41.6816 157.179 40.4589 159.836 40.4589C161.955 40.4589 163.482 42.0151 164.134 42.8231C164.29 43.0197 164.603 42.9641 164.688 42.7247C165.107 41.5405 166.012 38.9327 165.889 38.9327C165.729 38.9327 165.081 37.7314 158.922 37.7314C153.126 37.7314 151.447 42.1775 151.269 42.7034C151.257 42.7376 151.252 42.7718 151.252 42.806V47.7394C151.252 47.765 151.252 47.7864 151.261 47.8121C151.367 48.2738 152.661 53.1816 159.299 53.1816C165.395 53.1816 166.363 50.7148 166.511 50.0992C166.532 50.018 166.52 49.9368 166.477 49.8641C166.262 49.4793 165.585 47.9574 166.397 45.3069C166.461 45.0974 166.3 44.8879 166.084 44.8879H160.699V44.3407H159.62C159.442 44.3407 159.294 44.4861 159.294 44.6699L159.286 44.6613Z" fill="white"/>
<path d="M224.738 38.0564H229.336C229.425 38.0564 229.497 38.1291 229.497 38.2189V48.8552C229.497 48.898 229.514 48.9365 229.543 48.9664C229.89 49.3255 232.238 51.5058 235.589 48.9664C235.631 48.9365 235.656 48.8852 235.656 48.8339V39.9075C235.656 39.8177 235.584 39.7451 235.496 39.7451H235.166C235.077 39.7451 235.005 39.6724 235.005 39.5826V38.2103C235.005 38.1205 235.077 38.0479 235.166 38.0479H239.887C239.975 38.0479 240.047 38.1205 240.047 38.2103V39.5826C240.047 39.6724 239.975 39.7451 239.887 39.7451H239.269C239.18 39.7451 239.108 39.8177 239.108 39.9075V49.6632C239.108 49.6632 239.108 49.6846 239.108 49.6974C239.053 49.9497 238.343 53.0106 235.491 53.0106H229.192C229.192 53.0106 229.167 53.0106 229.154 53.0063C228.85 52.9251 225.017 51.8563 225.017 49.0262V39.6938H224.585V38.2189C224.585 38.1291 224.657 38.0564 224.746 38.0564H224.738Z" fill="white"/>
<path d="M259.025 38.056H249.862C249.739 38.056 249.638 38.1586 249.638 38.2826V52.7794C249.638 52.9034 249.739 53.006 249.862 53.006H253.678C253.8 53.006 253.902 52.9034 253.902 52.7794V47.0679C253.902 46.9439 254.003 46.8413 254.126 46.8413H258.923C258.923 46.8413 262.972 46.8969 262.972 42.5833C262.972 38.2698 259.173 38.0646 259.033 38.0518C259.029 38.0518 259.025 38.0518 259.021 38.0518L259.025 38.056ZM258.851 43.6778H254.071C253.948 43.6778 253.847 43.5751 253.847 43.4512V41.4504C253.847 41.3265 253.948 41.2239 254.071 41.2239H258.276C259.448 41.2239 259.19 42.9339 259.071 43.5025C259.05 43.6051 258.957 43.682 258.851 43.682V43.6778Z" fill="white"/>
<path d="M188.45 47.5V46.4398C188.45 46.3628 188.509 46.2987 188.585 46.2944C189.169 46.2602 191.475 45.9097 191.475 42.4768C191.475 38.6463 188.86 38.2915 188.725 38.2744C188.721 38.2744 188.717 38.2744 188.712 38.2744H175.581C175.501 38.2744 175.438 38.3385 175.438 38.4198V39.3817C175.438 39.4629 175.501 39.527 175.581 39.527H175.992C176.072 39.527 176.136 39.5911 176.136 39.6724V52.8567C176.136 52.9379 176.199 53.002 176.279 53.002H181.064C181.144 53.002 181.208 52.9379 181.208 52.8567V51.9504C181.208 51.8691 181.144 51.805 181.064 51.805H180.709C180.628 51.805 180.565 51.7409 180.565 51.6597V47.0426C180.565 46.9614 180.628 46.8972 180.709 46.8972H183.674C183.721 46.8972 183.767 46.9186 183.792 46.9614L186.208 50.4071C186.225 50.4327 186.233 50.4626 186.233 50.4926V52.8652C186.233 52.9465 186.297 53.0106 186.377 53.0106H191.809C191.889 53.0106 191.953 52.9465 191.953 52.8652V52.1898C191.953 52.1556 191.94 52.1256 191.923 52.1L188.475 47.5941C188.454 47.5684 188.446 47.5385 188.446 47.5043L188.45 47.5ZM186.766 43.6738H181.178C181.098 43.6738 181.034 43.6097 181.034 43.5285V41.3653C181.034 41.2841 181.098 41.2199 181.178 41.2199H186.026C187.405 41.2199 187.029 43.0839 186.91 43.5627C186.893 43.6268 186.834 43.6738 186.771 43.6738H186.766Z" fill="white"/>
<path d="M210.807 38.0566H205.248C201.987 38.0566 200.045 42.9302 200.011 43.02C200.011 43.02 200.011 43.02 200.011 43.0243V48.0218C200.011 51.4547 204.216 52.5406 204.275 52.5577H210.579C214.982 52.5577 215.477 47.6328 215.482 47.6072V42.7806C215.482 39.2836 210.875 38.078 210.811 38.0609L210.807 38.0566ZM211.59 46.1878C211.59 46.859 211.365 47.5131 210.955 48.0389L210.185 49.0265C209.623 49.749 208.764 50.1679 207.854 50.1679H207.749C206.941 50.1679 206.171 49.8345 205.612 49.2488L204.563 48.1458C204.03 47.5858 203.734 46.8419 203.734 46.0681V44.7771C203.734 44.0289 204.009 43.3107 204.508 42.7592L205.608 41.5408C206.171 40.9167 206.966 40.5618 207.799 40.5618C208.586 40.5618 209.339 40.8782 209.898 41.4382L210.727 42.2761C211.281 42.8362 211.594 43.6014 211.594 44.3966V46.1836L211.59 46.1878Z" fill="white"/>
</g>
<defs>
<clipPath id="clip0_243_2654">
<rect width="271.005" height="60.5436" fill="white" transform="translate(0.935547 0.944336)"/>
</clipPath>
</defs>
</svg>
