<svg width="149" height="149" viewBox="0 0 149 149" fill="none" xmlns="http://www.w3.org/2000/svg">
<g clip-path="url(#clip0_486_4488)">
<path d="M18.3876 127.246C21.4213 130.432 24.2919 132.486 26.5596 134.109C53.2179 153.191 84.7621 147.629 91.4659 146.271C101.366 144.265 120.501 140.387 134.336 124.156C155.267 99.6013 152.008 60.9143 135.772 35.3771C132.803 30.7055 117.116 4.77899 85.232 0.621323C65.9366 -1.89502 43.4437 3.18009 27.1555 16.7938C-7.03537 45.3708 -4.60126 103.101 18.3876 127.246Z" fill="url(#paint0_linear_486_4488)"/>
<path d="M146.375 50.2519C146.52 50.1851 146.622 50.0398 146.623 49.8722C146.625 49.3207 146.615 48.7596 146.594 48.2049C146.586 47.9769 146.391 47.8024 146.159 47.8151C145.597 47.8422 145.788 48.3905 145.783 49.8833C145.782 50.1114 145.969 50.2938 146.201 50.2906C146.264 50.2896 146.322 50.2758 146.375 50.2514L146.375 50.2519Z" fill="#91B3FA"/>
<path d="M146.06 43.0431C145.883 41.9978 145.66 40.9473 145.4 39.9206C145.344 39.7 145.116 39.569 144.891 39.6279C144.278 39.7917 144.708 40.1126 145.231 43.1926C145.269 43.417 145.486 43.5654 145.715 43.5241C145.947 43.4822 146.098 43.2647 146.06 43.0431ZM143.807 34.9918C143.415 34.0018 142.976 33.009 142.518 32.0751C142.272 31.5729 141.523 31.9638 141.76 32.4442C142.216 33.3755 142.639 34.3332 143.023 35.3026C143.106 35.5142 143.35 35.6155 143.566 35.5296C143.785 35.4426 143.889 35.2008 143.807 34.9913V34.9918ZM139.941 27.5818C139.355 26.6993 138.726 25.8291 138.07 24.9954C137.732 24.5659 137.065 25.0797 137.401 25.5077C138.043 26.3249 138.66 27.1777 139.234 28.0421C139.536 28.4971 140.241 28.0357 139.941 27.5823V27.5818ZM134.595 21.7133C134.761 21.5505 134.762 21.2885 134.599 21.1294C133.84 20.3865 133.04 19.6642 132.221 18.9827C131.8 18.6322 131.25 19.2664 131.671 19.617C132.473 20.2852 133.257 20.9926 134.001 21.7202C134.164 21.8798 134.431 21.8766 134.595 21.7138V21.7133ZM128.126 16.4807C128.255 16.2887 128.202 16.0331 128.009 15.9101C127.108 15.3373 126.172 14.7927 125.228 14.2916C124.743 14.0349 124.333 14.762 124.819 15.0202C125.744 15.5113 126.661 16.0448 127.544 16.6059C127.736 16.7289 127.997 16.6727 128.126 16.4802V16.4807ZM120.472 12.8931C120.568 12.8491 120.647 12.7706 120.69 12.6672C120.776 12.454 120.672 12.2154 120.457 12.1337C119.453 11.754 118.422 11.4088 117.392 11.1081C117.17 11.0434 116.935 11.168 116.865 11.387C116.795 11.6061 116.918 11.8357 117.139 11.9004C118.148 12.1952 119.159 12.5336 120.143 12.9053C120.253 12.9472 120.371 12.9393 120.472 12.8931ZM112.357 10.7342C112.479 10.678 112.573 10.5661 112.598 10.4266C112.639 10.2012 112.488 9.98912 112.259 9.95253C111.196 9.7823 110.111 9.65184 109.036 9.56381C108.805 9.54472 108.599 9.71389 108.576 9.94139C108.553 10.1684 108.721 10.3683 108.952 10.3869C110.006 10.4728 111.068 10.6011 112.11 10.7676C112.197 10.7814 112.282 10.7676 112.357 10.7337V10.7342ZM104.183 9.86026C104.176 9.63222 103.983 9.45616 103.751 9.46623C102.672 9.51396 101.579 9.60464 100.503 9.73616C99.9485 9.8051 100.041 10.6228 100.592 10.556C101.646 10.4277 102.717 10.3386 103.774 10.2919C104.006 10.2819 104.189 10.0888 104.183 9.86079V9.86026ZM77.9298 20.6993C80.3076 18.6067 80.8753 18.5977 80.4937 18.1029C80.3549 17.9226 80.0918 17.8903 79.9057 18.0292C79.0398 18.6799 78.1887 19.3725 77.3759 20.0879C76.9586 20.4549 77.5115 21.0669 77.9304 20.6993H77.9298ZM95.7969 11.002C95.7432 10.7809 95.5167 10.6478 95.2908 10.7045C94.2404 10.9681 93.1857 11.2757 92.1561 11.6188C91.6266 11.7954 91.8849 12.5771 92.4133 12.4005C93.4228 12.0642 94.4562 11.7625 95.4854 11.5042C95.7139 11.4464 95.85 11.2205 95.7969 11.0015V11.002ZM84.749 15.8252C87.4967 14.2523 88.0602 14.3547 87.7902 13.7899C87.619 13.4319 87.181 13.6011 87.2315 13.5995C86.2491 14.0662 85.2747 14.5758 84.3354 15.113C84.1334 15.2286 84.0622 15.4821 84.1765 15.6783C84.2854 15.8661 84.5337 15.9446 84.749 15.8252Z" fill="#91B3FA"/>
<path d="M73.1715 25.6445C74.0625 24.5495 74.636 24.1591 74.207 23.7959C74.0332 23.6484 73.7674 23.6681 73.6138 23.8431C72.6469 24.9387 72.1541 25.3831 72.5799 25.7151C72.7075 25.8148 73.0248 25.8233 73.171 25.6445H73.1715Z" fill="#91B3FA"/>
<path d="M64.0741 56.4335C64.2373 56.3582 64.3415 56.1859 64.3186 56.0024C64.2511 55.4636 64.1943 54.9179 64.1496 54.3791C64.1305 54.1521 63.9279 53.9861 63.6962 54.0089C63.4655 54.0323 63.2927 54.2338 63.3113 54.4608C63.357 55.0102 63.4155 55.5675 63.4841 56.1175C63.5122 56.3434 63.7222 56.5009 63.9524 56.4691C63.9954 56.4632 64.0364 56.451 64.0741 56.4335Z" fill="#91B3FA"/>
<path d="M123.127 86.9989C124.175 86.4819 125.214 85.9155 126.215 85.3152C126.415 85.1953 126.481 84.9408 126.362 84.7467C126.028 84.1999 125.829 84.7488 122.761 86.2613C122.552 86.3641 122.465 86.6129 122.566 86.8165C122.742 87.1723 123.178 86.9968 123.127 86.9984L123.127 86.9989ZM118.115 88.6578C117.912 88.0516 117.579 88.549 114.28 89.3742C114.054 89.4299 113.915 89.6558 113.968 89.8764C114.022 90.0976 114.249 90.2307 114.474 90.1745C115.602 89.8923 116.737 89.5588 117.846 89.1828C118.069 89.1075 118.187 88.8715 118.115 88.6572V88.6578ZM130.902 82.058C131.812 81.3299 132.702 80.5546 133.549 79.7538C133.718 79.5942 133.725 79.3327 133.566 79.1694C133.116 78.7096 133.045 79.2871 130.378 81.4206C130.197 81.5659 130.166 81.8263 130.311 82.0023C130.455 82.1778 130.72 82.2028 130.901 82.058H130.902ZM108.991 91.1497C109.15 91.0765 109.254 90.91 109.236 90.7292C109.214 90.5027 109.009 90.3394 108.778 90.3654C107.641 90.4921 106.487 90.5722 105.349 90.604C105.116 90.6104 104.931 90.8002 104.934 91.0283C104.936 91.2563 105.126 91.4361 105.358 91.4297C106.52 91.3974 107.698 91.3157 108.858 91.1863C108.905 91.181 108.95 91.1683 108.991 91.1497ZM99.9049 91.1677C100.034 91.1083 100.13 90.9869 100.149 90.8389C100.179 90.6125 100.015 90.4083 99.7853 90.3834C98.6551 90.262 97.5165 90.0912 96.4001 89.8759C96.1731 89.8319 95.9499 89.9782 95.9015 90.202C95.8531 90.4258 95.9977 90.6427 96.2247 90.6867C97.3639 90.9063 98.5259 91.0808 99.6795 91.2049C99.7592 91.2133 99.8363 91.1996 99.9043 91.1683L99.9049 91.1677ZM91.0684 89.2257C91.1683 89.1796 91.2507 89.0958 91.2911 88.9855C91.3698 88.7696 91.2565 88.5347 91.0386 88.461C89.9664 88.0988 88.8968 87.6873 87.8597 87.2376C87.6487 87.1464 87.3994 87.2413 87.3026 87.4502C87.2059 87.6592 87.2984 87.9031 87.5094 87.9943C88.5678 88.4531 89.6591 88.8731 90.7531 89.2427C90.86 89.2788 90.9721 89.2697 91.0684 89.2252V89.2257ZM82.9059 85.4292C82.9782 85.3958 83.042 85.3422 83.0877 85.2712C83.2121 85.0765 83.1542 84.822 82.958 84.7032C81.9953 84.1193 81.0464 83.4867 80.1379 82.8243C79.953 82.6896 79.6898 82.7288 79.549 82.9134C79.4086 83.0974 79.4442 83.3557 79.6292 83.4904C80.5563 84.1665 81.5243 84.8119 82.5072 85.408C82.6311 85.4833 82.781 85.4859 82.9054 85.4287L82.9059 85.4292ZM75.9353 79.8726C76.3972 79.4117 75.8119 79.3672 73.6149 76.8392C73.2571 76.4271 72.6134 76.9702 72.9717 77.3822C73.7212 78.2445 74.5181 79.0856 75.3409 79.8821C75.5041 80.0402 75.7699 80.0375 75.9353 79.8726ZM70.1915 73.0379C70.7444 72.6868 70.1883 72.5203 68.618 69.5664C68.3634 69.0876 67.6155 69.4774 67.8717 69.9589C68.4075 70.967 68.9928 71.9624 69.6121 72.9186C69.7375 73.1121 70.0007 73.1614 70.1915 73.0379ZM66.1727 65.0943C66.3705 65.0036 66.4699 64.7782 66.3955 64.5757C66.0106 63.5214 65.6683 62.4422 65.377 61.3688C65.3174 61.1493 65.0872 61.022 64.8629 61.0841C64.6381 61.1477 64.5052 61.3747 64.5647 61.5942C64.8619 62.6899 65.2116 63.7908 65.604 64.8663C65.6816 65.08 65.9224 65.1876 66.1408 65.1076C66.152 65.1038 66.1626 65.0991 66.1727 65.0943Z" fill="#91B3FA"/>
<path d="M137.427 75.551C138.343 74.4119 138.814 73.9473 138.372 73.6355C137.913 73.3104 137.709 73.8789 136.771 75.0461C136.626 75.2264 136.655 75.4863 136.836 75.6258C137.017 75.7652 137.281 75.7318 137.426 75.5515L137.427 75.551Z" fill="#91B3FA"/>
<path d="M132.1 65.472L126.083 65.1564C124.417 67.4172 122.377 69.4398 120.005 71.1188C120.179 76.8727 120.601 77.264 120 77.5117L113.289 80.2815C113.092 80.3621 112.868 80.3128 112.729 80.1585L108.778 75.7516C105.913 76.2336 103.041 76.2384 100.265 75.8104L96.2211 80.2783C96.0791 80.4348 95.8537 80.4873 95.6592 80.4093L89.0027 77.7365C88.8081 77.6586 88.6875 77.4666 88.7023 77.2593L89.1281 71.3388C86.8567 69.7405 84.8346 67.7698 83.167 65.4683L77.1468 65.8708C76.9358 65.8851 76.7412 65.7658 76.662 65.5749L73.96 59.0249C73.8808 58.8335 73.935 58.6118 74.095 58.4729L78.648 54.5125C78.2073 51.704 78.252 48.8806 78.7362 46.1452C74.4464 42.2469 73.885 42.2829 74.137 41.6975C77.032 35.2822 76.8045 34.7694 77.4636 34.8039L83.4806 35.1194C85.1466 32.8587 87.1868 30.8361 89.5582 29.1571C89.3838 23.4064 88.9623 23.0118 89.563 22.7642C96.279 20.1264 96.4098 19.6433 96.8345 20.1174L100.786 24.5243C103.651 24.0422 106.523 24.0369 109.299 24.4654C113.291 20.233 113.304 19.6258 113.904 19.8665C120.444 22.6274 120.907 22.377 120.861 23.0166L120.435 28.937C122.707 30.5354 124.729 32.506 126.396 34.8081C132.151 34.5414 132.655 34.1034 132.902 34.7015C135.458 41.2292 135.961 41.375 135.469 41.8035L130.916 45.7644C131.357 48.5724 131.311 51.3958 130.828 54.1317C135.103 58.0168 135.68 57.9914 135.427 58.5795C132.532 64.9947 132.759 65.5075 132.1 65.473L132.1 65.472Z" fill="#91B3FA"/>
<path d="M111.772 49.0825C111.247 45.3035 107.683 42.7023 103.829 43.2846C99.975 43.868 97.266 47.4147 97.7907 51.1937C98.3159 54.9727 101.879 57.5739 105.734 56.9922C109.589 56.4099 112.297 52.861 111.772 49.0831V49.0825ZM105.649 56.3791L105.645 56.3807L105.649 56.3791ZM103.999 44.5091C107.127 44.0366 110.085 46.1207 110.522 49.2708C110.954 52.3747 108.729 55.2893 105.564 55.7666C102.398 56.2444 99.4716 54.1083 99.0399 51.0049C98.6078 47.8968 100.839 44.9859 103.999 44.5096V44.5091Z" fill="#BDD0FB"/>
<path d="M112.081 66.148C113.031 65.7111 113.944 65.1961 114.801 64.6112C115.059 64.4357 115.146 64.1085 115.023 63.8407C115.008 63.8088 114.991 63.7775 114.97 63.7479C114.775 63.4678 114.382 63.401 114.094 63.5967C113.109 64.2691 112.044 64.8429 110.929 65.3033C102.536 68.7673 92.988 65.1033 89.3047 57.1306C89.2106 56.927 89.1207 56.7207 89.0341 56.5112C85.548 48.0596 89.7682 38.3834 98.3612 34.8346C106.943 31.2931 116.775 35.1989 120.256 43.6267C122.325 48.644 121.08 52.1971 121.318 52.712C121.574 53.2683 122.417 53.1416 122.515 52.5349C123.049 49.2199 122.63 45.715 121.135 42.4785C114.684 28.5148 94.1559 29.086 88.0028 43.3864C86.1093 47.7875 86.0599 52.6197 87.8641 56.9943C87.9571 57.2207 88.0549 57.4445 88.157 57.6657C90.0271 61.7152 93.3399 64.8525 97.5548 66.5453C102 68.3303 106.917 68.2942 111.399 66.4445C111.627 66.3501 111.855 66.2509 112.079 66.1475L112.081 66.148Z" fill="#BDD0FB"/>
<path d="M59.6881 39.9048C58.6712 41.1007 57.4555 42.1438 56.0697 42.9764L56.0021 46.3317C55.9947 46.704 55.6757 46.5603 51.9674 47.8251C51.624 47.9354 51.6623 47.6156 49.6412 45.0446C48.0289 45.1767 46.4321 45.0388 44.9059 44.6607L42.4781 46.9872C42.2081 47.2454 42.0853 46.9182 38.5668 45.1974C38.4615 45.1438 38.4025 45.0293 38.419 44.9131L38.8931 41.5886C37.6944 40.5741 36.6488 39.3613 35.8142 37.9787C32.6013 37.8472 32.3058 38.0689 32.1931 37.7199C31.0326 33.9022 30.7605 33.7983 31.0507 33.5808L33.741 31.5656C33.6087 29.9572 33.7469 28.3636 34.1259 26.8416L31.7938 24.4197C31.535 24.1513 31.863 24.0278 33.5879 20.5176C33.7511 20.1989 33.9377 20.4487 37.2059 20.8432C38.2228 19.6474 39.438 18.6042 40.8239 17.7716L40.8914 14.4163C40.8988 14.0435 41.2178 14.1878 44.9261 12.923C45.2674 12.8132 45.2211 13.1192 47.2518 15.7039C48.864 15.5719 50.4615 15.7098 51.9871 16.0879L54.4148 13.7614C54.4999 13.6797 54.6275 13.6612 54.7327 13.7147L58.3262 15.5512C58.4309 15.6048 58.4905 15.7193 58.474 15.8355L57.9998 19.16C59.1985 20.1745 60.2442 21.3868 61.0788 22.7698C64.2916 22.9014 64.5872 22.6797 64.6999 23.0286C65.8598 26.8448 66.133 26.9498 65.8423 27.1677L63.1519 29.1829C63.2843 30.7914 63.1461 32.385 62.7671 33.907C64.946 36.2663 65.3139 36.3183 65.1459 36.6455L63.305 40.2304C63.1402 40.5508 62.9382 40.2973 59.6871 39.9048H59.6881Z" fill="#91B3FA"/>
<path d="M52.652 30.1026C52.501 27.7846 50.4991 26.0298 48.175 26.1799C45.852 26.3299 44.0924 28.3276 44.2429 30.6456C44.3933 32.9583 46.4016 34.7179 48.7199 34.5684C51.0381 34.4183 52.8019 32.4153 52.652 30.1021V30.1026ZM48.6795 33.9436L48.6758 33.9452L48.6795 33.9436ZM51.3991 30.1832C51.5043 31.807 50.2657 33.2134 48.6391 33.3184C46.0258 33.4871 44.4911 30.3969 46.2257 28.4273C47.9523 26.4662 51.2289 27.5597 51.3991 30.1832Z" fill="#BDD0FB"/>
<path d="M69.5945 36.6623C69.7567 36.1214 69.8991 35.5667 70.0182 35.0135C70.0666 34.7882 69.9231 34.566 69.6971 34.5177C69.1283 34.3957 69.2091 35.0294 68.7924 36.4236C68.7259 36.6448 68.8524 36.8771 69.0736 36.9433C69.2942 37.0091 69.5281 36.8845 69.5945 36.6628V36.6623Z" fill="#91B3FA"/>
<path d="M70.4898 29.4508C70.443 28.343 70.3101 27.1895 70.0794 26.0356C69.971 25.4925 69.1502 25.6591 69.2587 26.1994C69.8578 29.1894 69.39 29.9159 70.0901 29.8862C70.3229 29.8761 70.4999 29.6804 70.4904 29.4513L70.4898 29.4508ZM68.1004 21.3031C68.3082 21.2023 68.3949 20.952 68.2939 20.7446C67.792 19.7164 67.2041 18.7183 66.546 17.7786C66.2287 17.3262 65.5424 17.804 65.8597 18.2569C66.4929 19.1606 67.0585 20.1205 67.5411 21.11C67.7187 21.4743 68.1514 21.3015 68.1009 21.3031H68.1004ZM62.6915 14.3416C62.7447 14.3172 62.7936 14.2812 62.834 14.234C62.9844 14.0584 62.9637 13.7954 62.7882 13.6448C61.9159 12.9002 60.9787 12.2182 60.0022 11.6185C59.8055 11.4975 59.5472 11.5591 59.4265 11.7547C59.3053 11.951 59.3665 12.2087 59.5631 12.3291C60.5024 12.9066 61.4045 13.5626 62.2439 14.279C62.3726 14.3883 62.5474 14.4069 62.6915 14.3411V14.3416ZM54.9591 10.0975C55.0638 10.0493 55.1478 9.95858 55.1845 9.84031C55.2525 9.6197 55.1281 9.38637 54.907 9.31902C53.8098 8.98386 52.6775 8.73249 51.5405 8.57339C51.3114 8.54158 51.0998 8.70067 51.0674 8.92923C51.0355 9.15727 51.195 9.36887 51.4241 9.40068C52.5175 9.55394 53.6068 9.79524 54.6619 10.1177C54.764 10.149 54.8693 10.1394 54.9596 10.098L54.9591 10.0975ZM46.4102 8.86878C46.3841 8.63968 46.1768 8.47476 45.9472 8.50074C44.8032 8.63014 43.664 8.84916 42.561 9.1525C42.0283 9.29621 42.2479 10.1044 42.7837 9.95751C43.8448 9.66584 44.9409 9.45478 46.0418 9.33068C46.2773 9.30311 46.4362 9.0931 46.4107 8.86878H46.4102Z" fill="#91B3FA"/>
<path d="M36.4153 12.9191C37.6799 12.0499 38.237 11.9603 37.9531 11.4724C37.8372 11.273 37.5853 11.2014 37.3811 11.3207C36.8931 11.6028 36.4083 11.9094 35.94 12.2313C35.7497 12.3623 35.7019 12.6221 35.8332 12.812C35.9623 12.9986 36.2207 13.0511 36.4153 12.9186V12.9191Z" fill="#91B3FA"/>
<path d="M27.3863 27.6696C27.5819 26.1444 27.886 25.675 27.3326 25.5605C27.1062 25.5138 26.8845 25.6586 26.8377 25.8845C26.7229 26.4355 26.6283 27.0008 26.556 27.5635C26.5268 27.7921 26.6889 28.0015 26.918 28.0307C27.1466 28.0599 27.3571 27.8987 27.3863 27.6696Z" fill="#91B3FA"/>
<path d="M55.6634 50.739C55.4449 50.0803 54.95 50.7586 51.9673 51.2555C51.4224 51.3451 51.5574 52.1703 52.1049 52.0796C53.2202 51.894 54.328 51.6203 55.3976 51.2671C55.6134 51.1966 55.7372 50.9612 55.6634 50.7395V50.739ZM47.0602 51.9269C47.0788 51.6972 46.9077 51.4952 46.677 51.4766C43.6374 51.2274 43.1159 50.5915 42.9516 51.2682C42.8974 51.4925 43.0356 51.7179 43.2605 51.772C44.3566 52.0361 45.483 52.2169 46.6089 52.3087C46.8396 52.3272 47.0411 52.1565 47.0602 51.9263V51.9269ZM38.683 49.6523C39.0094 49.0377 38.1833 49.1554 35.7535 47.346C35.3096 47.0162 34.8083 47.6849 35.2527 48.0153C36.158 48.6893 37.1218 49.2986 38.1169 49.8252C38.321 49.9334 38.5746 49.856 38.683 49.6523ZM31.875 44.2739C32.4178 43.8353 31.6082 43.6211 30.0841 41.0072C29.8061 40.5299 29.0816 40.9488 29.3601 41.4272C29.9273 42.3998 30.5748 43.3363 31.286 44.2124C31.4317 44.3922 31.6953 44.4187 31.875 44.2739ZM28.0173 36.1458C27.1891 33.22 27.6032 32.5057 26.909 32.5905C26.6793 32.6181 26.5161 32.8265 26.5438 33.0556C26.6809 34.1767 26.9053 35.293 27.2114 36.3733C27.2742 36.5949 27.5054 36.7243 27.7281 36.6618C27.9503 36.5992 28.0801 36.3685 28.0173 36.1463V36.1458Z" fill="#91B3FA"/>
<path d="M60.3802 48.8881C60.8565 48.5816 61.3269 48.2533 61.7772 47.9118C61.9611 47.7723 61.9973 47.5103 61.8575 47.3263C61.505 46.8639 61.1552 47.3958 59.9267 48.1854C59.7327 48.3106 59.6764 48.5688 59.8018 48.7629C59.9289 48.9597 60.1899 49.0106 60.3807 48.8876L60.3802 48.8881Z" fill="#91B3FA"/>
<path d="M53.554 39.2946C53.899 39.0978 53.9687 38.7091 53.8049 38.4264C53.6311 38.1268 53.2441 38.0255 52.947 38.1979C52.3899 38.5193 51.7929 38.7839 51.1725 38.9838C51.037 39.0002 47.8464 40.2704 44.2189 38.4227C37.025 34.7455 37.875 24.1515 45.5771 21.6749C50.0078 20.2494 54.7506 22.4009 56.6516 26.5188C58.5669 30.6658 56.4017 32.8232 57.727 33.1291C58.0645 33.2076 58.4021 32.9976 58.4807 32.6609C58.9039 30.843 58.8225 28.9391 58.2452 27.1541C56.4942 21.7338 50.6426 18.7295 45.1917 20.4827C39.3262 22.3691 36.3334 28.9842 38.9637 34.6787C41.0847 39.2718 46.4197 41.8295 51.5585 40.176C52.2538 39.9522 52.9257 39.6557 53.5546 39.2951L53.554 39.2946Z" fill="#BDD0FB"/>
<path d="M55.271 54.2718C55.287 54.0761 55.4874 53.9069 55.8265 53.7706C55.4576 53.5675 55.254 53.3506 55.271 53.1369C55.3231 52.4915 57.3713 52.1298 59.8458 52.3292C62.3203 52.5281 64.284 53.2127 64.2319 53.8576C64.2159 54.0533 64.0155 54.2225 63.6764 54.3587C64.0453 54.5619 64.2489 54.7787 64.2319 54.9919C64.2159 55.1876 64.0155 55.3568 63.6764 55.4931C64.0453 55.6957 64.2489 55.9131 64.2319 56.1263C64.2159 56.322 64.0155 56.4911 63.6764 56.6274C64.0453 56.8305 64.2489 57.0474 64.2319 57.2612C64.209 57.5465 63.7949 57.7761 63.1267 57.9267C63.1352 58.1378 63.1305 58.3684 63.1097 58.6241C63.013 59.813 61.6723 60.7453 59.8995 60.7453C58.1267 60.7453 56.592 59.4742 56.5745 58.2815C56.5702 57.9893 56.5824 57.7321 56.609 57.5035C55.7606 57.2208 55.2439 56.8756 55.271 56.541C55.287 56.3453 55.4874 56.1761 55.8265 56.0404C55.4576 55.8378 55.254 55.6204 55.271 55.4066C55.287 55.211 55.4874 55.0418 55.8265 54.906C55.4576 54.7034 55.254 54.486 55.271 54.2723V54.2718Z" fill="url(#paint1_linear_486_4488)"/>
<path d="M60.9908 58.1834C61.7255 58.1834 62.3979 58.1293 62.9534 58.0232C62.9858 58.0169 63.0066 57.9861 63.0007 57.9538C62.9943 57.9214 62.9635 57.9007 62.9311 57.9066C62.062 58.0726 60.9004 58.1092 59.6619 58.0095C58.6481 57.9278 57.6998 57.765 56.92 57.5375C56.8886 57.5285 56.8556 57.5465 56.8461 57.5778C56.837 57.6091 56.8551 57.642 56.8865 57.6515C57.6743 57.8806 58.6306 58.0455 59.6523 58.1277C60.1126 58.1648 60.5624 58.1829 60.9908 58.1829V58.1834Z" fill="url(#paint2_linear_486_4488)"/>
<path d="M60.9783 57.0472C61.933 57.0472 62.7862 56.9576 63.3879 56.7868C63.4193 56.7778 63.4379 56.7449 63.4289 56.7136C63.4198 56.6824 63.3869 56.6638 63.3555 56.6728C62.4981 56.9162 61.117 56.9921 59.6615 56.8749C58.222 56.7593 56.8792 56.4676 56.0696 56.0953C56.0399 56.0815 56.0042 56.0948 55.991 56.1245C55.9771 56.1542 55.9904 56.1892 56.0202 56.203C56.8415 56.5811 58.1992 56.8765 59.652 56.9931C60.1054 57.0297 60.5519 57.0472 60.9783 57.0472Z" fill="url(#paint3_linear_486_4488)"/>
<path d="M60.9904 55.914C62.0211 55.914 62.9232 55.809 63.5308 55.609C63.5622 55.599 63.5787 55.565 63.5686 55.5343C63.5585 55.503 63.525 55.486 63.4936 55.4966C62.6484 55.7745 61.2163 55.8657 59.662 55.7411C58.2224 55.6255 56.8797 55.3338 56.0701 54.9615C56.0403 54.9477 56.0047 54.961 55.9914 54.9907C55.9776 55.0204 55.9909 55.0554 56.0206 55.0692C56.8419 55.4473 58.2001 55.7427 59.6524 55.8593C60.1127 55.8965 60.563 55.9145 60.9909 55.9145L60.9904 55.914Z" fill="url(#paint4_linear_486_4488)"/>
<path d="M60.9823 54.7794C61.7999 54.7794 62.5436 54.7137 63.1219 54.5853C63.1538 54.5784 63.174 54.5466 63.1671 54.5148C63.1602 54.483 63.1283 54.4628 63.0964 54.4697C62.2267 54.6622 60.9749 54.7126 59.6613 54.6065C58.2345 54.492 56.8987 54.2035 56.088 53.8355C56.0582 53.8217 56.0232 53.8355 56.0093 53.8646C55.9955 53.8943 56.0093 53.9293 56.0386 53.9431C56.8609 54.3165 58.2117 54.6087 59.6517 54.7248C60.1068 54.7614 60.5544 54.7794 60.9823 54.7794Z" fill="url(#paint5_linear_486_4488)"/>
<path d="M65.8921 48.5453C66.1924 47.4836 66.7033 46.4909 67.3906 45.6265C68.8636 43.7746 71.2669 40.0078 71.5625 34.8675C71.9925 27.39 65.3456 23.6465 59.2797 24.1551C53.2138 24.6631 47.2287 29.1692 47.8836 36.1254C48.2866 40.4055 50.6883 43.6521 52.476 45.5167C53.6114 46.7004 54.421 48.1508 54.8596 49.7295C55.396 51.662 56.6728 54.0707 59.7082 54.2176C63.6355 54.4074 65.2664 50.7557 65.8921 48.5458V48.5453Z" fill="url(#paint6_linear_486_4488)"/>
<path d="M58.705 52.7262L56.5823 38.955C56.5388 38.6708 56.3979 38.4793 56.2687 38.5281C56.1395 38.5769 56.0704 38.8474 56.114 39.1316C56.1151 39.139 56.1167 39.1486 56.1183 39.156L58.5359 52.7994C58.554 52.9017 58.6061 52.967 58.6523 52.9442C58.697 52.9224 58.7198 52.8254 58.7044 52.7262H58.705Z" fill="url(#paint7_linear_486_4488)"/>
<path d="M60.9085 52.8356L63.0311 39.0644C63.0752 38.7801 63.2156 38.5887 63.3447 38.6375C63.4739 38.6863 63.5436 38.9567 63.4994 39.241C63.4984 39.2484 63.4968 39.2579 63.4952 39.2654L61.0775 52.9088C61.0595 53.0111 61.0074 53.0763 60.9611 53.0535C60.9165 53.0318 60.8936 52.9347 60.909 52.8356H60.9085Z" fill="url(#paint8_linear_486_4488)"/>
<path d="M56.5978 37.7726C56.6514 37.6862 56.7764 37.6538 56.8763 37.7005L58.058 38.2515L58.4684 37.0853C58.4902 37.0244 58.5402 36.9708 58.6119 36.9411C58.748 36.8854 58.9107 36.9353 58.975 37.053L58.9771 37.0567L59.9489 38.8248L60.8509 36.3084L60.8525 36.3042C60.8749 36.2427 60.9211 36.1875 60.9892 36.1504C61.1401 36.0682 61.34 36.1074 61.4352 36.2379L62.7939 38.1041C62.8492 38.1804 62.83 38.2828 62.746 38.3395C62.6562 38.4 62.527 38.3857 62.4569 38.3083L61.2603 36.9772L60.1833 39.371L60.1822 39.3726C60.1647 39.4108 60.1322 39.4442 60.0871 39.4654C59.9861 39.5126 59.8601 39.4802 59.8053 39.3927L58.7661 37.7286L58.3748 38.5702L58.3716 38.5777C58.369 38.5835 58.3658 38.5898 58.3621 38.5957C58.3084 38.6821 58.1835 38.7145 58.0835 38.6678L56.6807 38.0139C56.5807 37.9673 56.5435 37.8596 56.5972 37.7732L56.5978 37.7726Z" fill="white"/>
<path d="M52.4302 43.7415C52.486 43.7415 52.5424 43.7245 52.5907 43.6885C52.7103 43.5999 52.7353 43.4318 52.6466 43.3125C52.2851 42.8267 51.9539 42.325 51.6621 41.8207C51.5876 41.6924 51.4228 41.6484 51.2942 41.7226C51.1656 41.7969 51.1209 41.9613 51.1959 42.0896C51.4978 42.6114 51.8407 43.1311 52.2144 43.6333C52.267 43.7044 52.3483 43.742 52.4307 43.742L52.4302 43.7415Z" fill="white"/>
<path d="M50.6839 40.7521C50.7195 40.7521 50.7562 40.7447 50.7913 40.7298C50.9279 40.6704 50.9907 40.5124 50.9311 40.3761C48.6884 35.2236 50.6228 30.8988 50.6425 30.8554C50.7047 30.7207 50.6451 30.561 50.5101 30.499C50.3745 30.4375 50.2145 30.4963 50.1529 30.631C50.0678 30.8156 48.0994 35.2193 50.4373 40.5898C50.4814 40.6911 50.5803 40.7516 50.6845 40.7516L50.6839 40.7521Z" fill="white"/>
<path d="M95.553 138.719C95.553 138.719 95.9033 140.592 96.0835 142.447C96.1542 143.172 95.5993 143.808 94.8699 143.845C92.3917 143.972 87.0913 144.223 85.1877 144.156C84.9017 144.146 84.7119 143.856 84.815 143.589C84.9017 143.366 85.0707 143.185 85.2881 143.082L94.0088 138.983L95.553 138.719Z" fill="url(#paint9_linear_486_4488)"/>
<path d="M95.8145 137.615L95.5689 139.861C95.5689 139.861 94.0411 140.588 92.9859 139.796L93.5972 137.289L95.8145 137.615Z" fill="url(#paint10_linear_486_4488)"/>
<path d="M95.2101 95.4287C95.3307 96.0136 96.1084 124.666 93.1608 137.538C93.113 137.748 93.2214 137.963 93.4218 138.042C93.8944 138.229 94.8204 138.499 95.9272 138.525C96.27 138.534 96.5752 138.308 96.6687 137.98C97.5182 134.992 101.581 120.023 101.993 105.757C102.454 89.8153 101.988 105.214 101.988 105.214L101.534 95.3672L95.2095 95.4287H95.2101Z" fill="url(#paint11_linear_486_4488)"/>
<path d="M105.638 139.602C105.638 139.602 106.176 140.543 106.712 143.056C106.809 143.509 106.495 143.947 106.033 143.997C105.215 144.085 103.956 144.2 102.946 144.203C102.481 144.204 102.114 143.804 102.165 143.342C102.268 142.423 102.602 140.913 103.667 139.727L105.638 139.602V139.602Z" fill="url(#paint12_linear_486_4488)"/>
<path d="M106.074 136.711L105.483 140.11C105.483 140.11 104.871 140.574 103.648 140.253L103.911 136.6L106.074 136.711Z" fill="url(#paint13_linear_486_4488)"/>
<path d="M107.372 96.1921C110.028 111.288 107.185 133.567 106.196 137.932C106.135 138.199 105.921 138.405 105.651 138.452C105.192 138.533 104.435 138.602 103.686 138.393C103.428 138.321 103.244 138.091 103.232 137.824C103.06 134.304 103.102 112.688 100.68 104.168C100.557 103.736 100.289 103.361 99.9194 103.105L95.3467 99.9271L94.9485 94.7236L107.371 96.1915L107.372 96.1921Z" fill="url(#paint14_linear_486_4488)"/>
<path d="M91.0963 67.6941C98.6208 67.4984 106.945 69.5147 106.945 69.5147C109.313 82.5519 107.606 97.6314 107.606 97.6314C101.794 99.2112 95.1985 96.8174 95.1985 96.8174C94.1778 91.3684 89.5127 76.0502 89.5127 76.0502C85.8315 75.6302 82.7919 74.6004 80.2839 73.2247C82.1657 71.0064 83.0359 68.1979 83.4096 66.5391C86.0781 67.3388 88.7754 67.7535 91.0963 67.6936V67.6941Z" fill="url(#paint15_linear_486_4488)"/>
<path d="M68.7603 56.8474C69.4912 55.9496 70.431 56.3622 70.431 56.3622C71.583 61.0189 77.4267 64.7475 83.4102 66.5405C83.0365 68.1994 82.1662 71.0079 80.2844 73.2262C70.33 67.7666 68.7608 56.8474 68.7608 56.8474H68.7603Z" fill="url(#paint16_linear_486_4488)"/>
<path d="M68.9415 57.0727C68.8665 57.3188 69.766 57.6836 70.2837 56.6755C70.2976 56.1945 70.5708 54.1316 70.279 53.7423C68.7251 51.6704 65.7254 49.083 65.7254 49.083C65.2273 49.5826 65.6462 50.0646 65.6462 50.0646L67.1033 51.5506C66.8067 52.0973 66.443 52.5603 66.2767 53.22C66.1507 53.7195 66.2357 54.2515 66.4925 54.7027C66.7503 55.1556 67.1012 55.7438 67.4323 56.2041C68.0591 57.0748 68.941 57.0727 68.941 57.0727H68.9415Z" fill="url(#paint17_linear_486_4488)"/>
<path d="M67.7445 52.5171L69.0702 53.6165L69.4939 54.7195L68.334 56.0283C68.334 56.0283 67.9188 53.8355 67.6211 53.3625C67.3234 52.8899 67.4733 52.6587 67.745 52.5166L67.7445 52.5171Z" fill="url(#paint18_linear_486_4488)"/>
<path d="M104.128 76.8127L106.945 69.5156C106.945 69.5156 114.02 74.2137 115.234 80.2439C113.906 80.3542 111.493 80.7217 109.138 81.9361C108.591 79.0883 104.127 76.8127 104.127 76.8127H104.128Z" fill="url(#paint19_linear_486_4488)"/>
<path d="M98.0498 83.7124C98.0498 83.7124 105.985 88.087 108.612 84.2623C109.157 83.4679 109.282 82.6825 109.139 81.9364C111.493 80.722 113.907 80.3544 115.234 80.2441C115.6 82.0621 115.435 84.0009 114.381 85.9689C109.797 94.526 97.0244 85.6634 97.0244 85.6634L98.0503 83.7124H98.0498Z" fill="url(#paint20_linear_486_4488)"/>
<path d="M98.6605 61.5269L101.121 68.4125C101.162 68.5265 101.116 68.6538 101.01 68.7132C100.361 69.0796 98.0189 70.1424 95.168 68.377C94.8708 68.1929 94.6672 67.8901 94.6189 67.5449L93.7864 61.573L98.6605 61.5264V61.5269Z" fill="url(#paint21_linear_486_4488)"/>
<path d="M93.3892 55.1797C93.3892 55.1797 90.8068 60.1429 91.163 62.1342C91.5191 64.1256 94.7767 63.9516 97.6068 62.3045L99.5444 56.9536L93.3892 55.1797Z" fill="url(#paint22_linear_486_4488)"/>
<path d="M97.4559 59.6869C97.34 59.6371 97.2959 59.496 97.364 59.3899C97.5718 59.067 97.9604 58.4083 98.0805 57.8335C98.0805 57.8335 98.5504 57.5269 96.8706 57.1425C95.1908 56.758 92.686 56.1609 92.147 54.7428C91.6218 53.3603 92.9337 49.8581 95.1074 52.6178C95.1903 52.7228 95.3503 52.7239 95.4306 52.6168C95.7782 52.1564 96.6942 51.1992 97.9843 51.7619C99.1915 52.2885 99.3356 53.1662 99.3234 53.609C99.3196 53.7394 99.4377 53.8397 99.5658 53.8137C100.172 53.6922 101.63 53.5793 102.325 55.0652C102.898 56.2892 102.54 56.9887 102.211 57.3323C102.105 57.4437 102.154 57.625 102.302 57.6685C102.703 57.7868 103.221 58.1198 103.179 59.0537C103.12 60.345 101.672 60.2453 101.26 60.1902C101.192 60.1812 101.124 60.205 101.079 60.2559C100.73 60.6489 99.1543 62.3194 97.4347 62.5358C97.2858 62.5543 97.1689 62.4085 97.2162 62.2664L97.9407 60.0984C97.9742 59.9977 97.9253 59.8879 97.8275 59.846L97.4565 59.6864L97.4559 59.6869Z" fill="url(#paint23_linear_486_4488)"/>
<path d="M97.1594 59.9968C97.1594 59.9968 99.0194 58.6976 99.1666 59.7752C99.3139 60.8528 97.4959 61.3545 96.589 60.9604L97.1594 59.9963V59.9968Z" fill="url(#paint24_linear_486_4488)"/>
<path d="M99.6716 90.6266L95.3493 75.5673C95.3004 75.3965 95.1542 75.2719 94.9772 75.2512C94.1942 75.16 91.9249 74.9039 89.3047 74.6832C86.1487 74.417 82.4834 74.2012 80.2933 74.3847C79.9818 74.4107 79.7936 74.7395 79.9323 75.0189C81.1778 77.5326 86.3007 87.7581 88.8661 91.1076C88.9512 91.2184 89.0825 91.2837 89.2228 91.2821L99.2517 91.1887C99.5435 91.1861 99.7524 90.9066 99.6721 90.6266H99.6716Z" fill="url(#paint25_linear_486_4488)"/>
<path d="M98.6271 86.988C98.6271 86.988 99.2294 84.5177 98.9865 83.6417C98.7435 82.7651 98.2731 81.6387 96.7044 81.889C95.1357 82.1393 93.2852 82.7985 93.2852 82.7985C93.2852 82.7985 93.3788 83.9397 94.5711 83.5717L93.8317 84.1423C93.8317 84.1423 93.9375 85.056 94.9443 84.5681L94.257 85.3249C94.257 85.3249 94.6897 86.0753 95.4302 85.5943C96.1712 85.1128 96.5263 87.2855 98.6271 86.988Z" fill="url(#paint26_linear_486_4488)"/>
<path d="M89.5923 79.178C89.5923 79.8769 89.024 80.4438 88.3234 80.4438C87.6228 80.4438 87.0545 79.8769 87.0545 79.178C87.0545 78.479 87.6228 77.9121 88.3234 77.9121C89.024 77.9121 89.5923 78.479 89.5923 79.178Z" fill="#91B3FA"/>
<path d="M94.8596 80.013L95.1833 79.9175L94.3036 76.9393C94.1601 76.4541 93.7677 76.0897 93.2798 75.9884C90.49 75.4072 83.143 75.289 82.832 75.2842L82.8267 75.6209C82.9027 75.622 90.4528 75.744 93.2106 76.3178C93.5769 76.3941 93.8719 76.6683 93.9804 77.0342L94.8601 80.0125L94.8596 80.013Z" fill="#91B3FA"/>
<path d="M146.017 122.156C146.478 122.837 148.309 138.237 148.595 143.925C148.614 144.31 148.306 144.63 147.92 144.63C147.587 144.63 147.304 144.389 147.253 144.06L143.903 122.646L146.017 122.156Z" fill="#7D97F4"/>
<path d="M131.293 122.156C130.832 122.837 129 138.237 128.714 143.925C128.694 144.31 129.003 144.63 129.389 144.63C129.722 144.63 130.005 144.389 130.057 144.06L133.406 122.646L131.293 122.156Z" fill="#7D97F4"/>
<path d="M148.787 120.955L148.789 121.123C148.8 122.331 147.756 123.322 146.45 123.344L130.967 123.607C129.68 123.629 128.607 122.701 128.544 121.511L128.536 121.357C128.471 120.117 129.527 119.072 130.87 119.048L146.359 118.771C147.685 118.747 148.776 119.729 148.787 120.955V120.955Z" fill="#7D97F4"/>
<path d="M116.172 143.366C118.924 143.366 120.142 143.131 120.687 142.916C120.581 143.367 120.179 143.723 119.67 143.723H109.934C109.606 143.723 109.399 143.41 109.477 143.126C110.587 143.215 112.944 143.366 116.173 143.366H116.172Z" fill="#91B3FA"/>
<path d="M109.477 143.126C109.492 143.069 109.515 143.013 109.556 142.961C110.298 142.016 111.788 140.532 113.815 140.561C116.784 140.603 117.819 140.924 120.126 140.579L120.671 142.379C120.726 142.562 120.727 142.746 120.687 142.916C120.143 143.13 118.925 143.366 116.172 143.366C112.944 143.366 110.586 143.215 109.477 143.126V143.126Z" fill="url(#paint27_linear_486_4488)"/>
<path d="M119.458 138.64L120.126 140.907C120.126 140.907 118.646 141.579 117.344 141.039L117.088 139.076L119.458 138.64V138.64Z" fill="url(#paint28_linear_486_4488)"/>
<path d="M99.2776 141.939C101.423 143.658 102.52 144.237 103.078 144.41C102.714 144.694 102.178 144.718 101.781 144.4L94.1914 138.317C93.9357 138.112 93.9702 137.74 94.2084 137.568C95.018 138.331 96.761 139.921 99.2781 141.939H99.2776Z" fill="#91B3FA"/>
<path d="M94.2078 137.569C94.2557 137.534 94.3094 137.505 94.3732 137.49C95.5416 137.221 97.6302 137.001 99.192 138.29C101.48 140.177 102.086 141.073 104.101 142.247L103.4 143.984C103.329 144.161 103.216 144.304 103.078 144.411C102.519 144.238 101.422 143.66 99.277 141.94C96.76 139.922 95.0169 138.332 94.2073 137.569L94.2078 137.569Z" fill="url(#paint29_linear_486_4488)"/>
<path d="M133.75 112.812C133.75 112.812 117.272 114.154 113.892 115.742C110.512 117.329 116.65 139.578 116.65 139.578C116.65 139.578 117.57 140.02 119.618 139.385C119.618 139.385 117.518 122.966 119.081 119.405L136.922 116.494L133.749 112.812L133.75 112.812Z" fill="url(#paint30_linear_486_4488)"/>
<path d="M105.739 139.122C105.585 139.261 104.101 142.247 104.101 142.247C104.101 142.247 102.449 141.891 102.112 140.847L103.599 138.152L105.739 139.122Z" fill="url(#paint31_linear_486_4488)"/>
<path d="M143.675 112.675C143.675 112.675 144.212 113.964 144.19 115.677C144.16 118.046 142.251 119.968 139.879 120.086L120.4 120.973C119.988 120.991 119.64 121.275 119.537 121.673C119.079 123.44 116.842 128.864 105.904 139.687C105.614 139.975 105.16 140.024 104.814 139.806L103.257 138.825C103.093 138.722 103.041 138.509 103.139 138.342L114.48 119.02C115.076 118.039 116.034 117.331 117.147 117.047L133.75 112.813L143.674 112.675L143.675 112.675Z" fill="url(#paint32_linear_486_4488)"/>
<path d="M124.478 82.4932C124.478 82.4932 126.564 86.1741 128.692 87.957L124.295 90.4049C124.295 90.4049 123.304 86.5082 121.04 85.3675L124.478 82.4937V82.4932Z" fill="url(#paint33_linear_486_4488)"/>
<path d="M144.029 112.813C144.029 112.813 138.77 114.091 133.75 112.813C133.75 112.813 126.727 103.393 124.01 100.83C124.01 100.83 119.675 107.653 110.028 108.62L109.49 107.421C109.49 107.421 117.17 103.889 119.535 98.4614C121.899 93.0342 122.849 90.7199 125 89.3034C126.34 88.4215 127.142 87.819 127.556 87.4903C127.783 87.3099 128.096 87.2898 128.344 87.4404C130.627 88.8282 141.368 96.1678 144.029 112.813H144.029Z" fill="url(#paint34_linear_486_4488)"/>
<path d="M124.294 100.697C124.396 100.697 124.496 100.652 124.562 100.566C126.237 98.3871 127.17 95.9859 127.209 95.8851C127.275 95.7117 127.188 95.5171 127.015 95.4503C126.84 95.3834 126.646 95.4704 126.579 95.6438C126.57 95.6677 125.64 98.0573 124.027 100.156C123.914 100.304 123.941 100.515 124.089 100.628C124.15 100.675 124.223 100.698 124.294 100.698V100.697Z" fill="url(#paint35_linear_486_4488)"/>
<path d="M110.607 106.794L109.521 106.505L106.224 105.743C105.827 105.652 105.41 105.722 105.065 105.939L102.23 107.718L110.059 107.705L110.607 106.794V106.794Z" fill="url(#paint36_linear_486_4488)"/>
<path d="M121.165 76.9736C121.165 76.9736 119.137 80.3369 118.785 82.1956C118.433 84.0544 117.868 85.2163 119.989 85.8787C122.109 86.541 124.08 85.7026 125.317 83.9674C125.317 83.9674 127.249 81.2973 127.056 80.0744C126.863 78.8515 121.165 76.9736 121.165 76.9736Z" fill="url(#paint37_linear_486_4488)"/>
<path d="M124.752 82.5288L124.478 82.4928C124.478 82.4928 125.914 80.328 124.974 79.7913C124.035 79.2541 120.206 77.9368 119.541 76.4323C118.9 74.9819 119.859 73.3438 121.015 73.0017C121.088 72.98 121.165 73.0235 121.192 73.0945L121.26 73.277C121.306 73.4021 121.482 73.4069 121.535 73.2849C121.586 73.1688 121.753 73.164 121.805 73.2791C122.009 73.7298 122.624 74.4993 124.465 75.0949C127.078 75.9397 128.706 77.2538 128.505 79.1056C128.493 79.2228 128.609 79.304 128.717 79.2562C128.931 79.1619 129.255 79.147 129.631 79.5575C130.284 80.2707 129.773 81.8315 127.986 82.9356C127.901 82.9881 127.886 83.1074 127.963 83.1721C128.23 83.4001 128.606 83.9092 127.397 84.3626C126.162 84.8267 125.487 84.6697 125.238 84.57C125.171 84.5429 125.132 84.474 125.146 84.4029L125.464 82.7802C125.48 82.6964 125.422 82.6158 125.337 82.6047L124.752 82.5278V82.5288Z" fill="url(#paint38_linear_486_4488)"/>
<path d="M124.64 82.8625C124.64 82.8625 125.534 80.6616 126.474 81.4354C127.414 82.2091 125.606 83.9188 124.771 83.896L124.64 82.8625Z" fill="url(#paint39_linear_486_4488)"/>
<path d="M113.632 109.249C113.619 109.25 113.606 109.25 113.594 109.25L96.8685 109.234C96.455 109.234 96.1201 108.899 96.1206 108.488C96.1206 108.076 96.4576 107.736 96.8701 107.743L113.595 107.76C114.009 107.76 114.343 108.094 114.343 108.506C114.343 108.905 114.028 109.23 113.632 109.25V109.249Z" fill="url(#paint40_linear_486_4488)"/>
<path d="M90.3918 92.9092C90.3976 92.9204 90.4035 92.932 90.4088 92.9437L97.4459 108.08C97.6197 108.454 97.4576 108.898 97.0828 109.071C96.708 109.244 96.2572 109.083 96.0898 108.707L89.0527 93.5711C88.8789 93.1967 89.041 92.7533 89.4158 92.5799C89.7783 92.4123 90.2073 92.5597 90.3918 92.9092Z" fill="url(#paint41_linear_486_4488)"/>
<path d="M46.5954 124.461H48.3608V143.505H46.5954V124.461Z" fill="#7D97F4"/>
<path d="M39.7477 143.873H55.2083C55.2083 143.24 54.6937 142.727 54.059 142.727H40.8964C40.2617 142.727 39.7472 143.24 39.7472 143.873H39.7477Z" fill="#7D97F4"/>
<path d="M39.3517 120.194H54.994C56.0424 120.194 56.8923 121.042 56.8923 122.088V123.8C56.8923 124.846 56.0424 125.694 54.994 125.694H39.3517C38.3033 125.694 37.4534 124.846 37.4534 123.8V122.088C37.4534 121.042 38.3033 120.194 39.3517 120.194Z" fill="#7D97F4"/>
<path d="M60.51 111.762C60.51 111.762 63.1328 112.168 66.082 114.135C66.5461 114.445 66.8007 114.984 66.7311 115.536C66.3781 118.327 64.9258 127.359 60.1378 136.181C59.8853 136.646 59.813 137.188 59.9241 137.705L60.7561 141.566L62.2987 143.009H58.3252L55.6795 135.867L56.8107 135.51C57.6878 135.233 58.2895 134.429 58.3055 133.511L58.4384 125.85C58.3252 122.436 60.5365 120.081 60.5365 120.081L54.191 119.773L60.51 111.762V111.762Z" fill="url(#paint42_linear_486_4488)"/>
<path d="M63.8504 143.706C64.2124 144.179 59.9555 144.802 57.8052 143.769C57.8052 143.769 54.8241 138.595 54.8241 135.93C54.8241 135.93 55.0606 135.387 56.8111 135.51C56.8111 135.51 57.8121 141.637 58.8689 142.323C59.9257 143.01 61.8261 142.393 61.8261 142.393C61.8261 142.393 63.3167 143.009 63.8504 143.706Z" fill="url(#paint43_linear_486_4488)"/>
<path d="M54.9942 120.194C55.0282 120.135 61.8261 119.378 61.8261 119.378C61.8261 119.378 61.6033 121.44 62.2986 124.279C62.9939 127.118 72.9755 139.416 72.9755 139.416L71.9288 142.726C75.1645 143.85 78.3477 144.03 81.4797 143.299L74.9939 139.416C74.9939 139.416 68.9238 118.779 65.2059 115.098L58.3915 112.746L54.9942 120.194Z" fill="url(#paint44_linear_486_4488)"/>
<path d="M39.7478 108.186C39.7478 108.186 35.8311 113.997 35.5095 116.648C35.1879 119.299 36.5822 120.376 40.6919 120.554C44.8016 120.732 55.7729 120.729 55.7729 120.729L65.1367 112.746C65.1367 112.746 58.3128 110.316 56.5384 109.63C54.7639 108.943 39.7473 108.186 39.7473 108.186H39.7478Z" fill="url(#paint45_linear_486_4488)"/>
<path d="M72.3243 141.611C72.3243 141.611 71.1973 142.7 71.9586 143.911C71.9586 143.911 80.8844 145.49 83.3079 144.774C83.3079 144.774 82.8045 143.628 80.0758 142.324L80.2773 142.478C80.5319 142.673 80.3826 143.079 80.062 143.061C78.2637 142.959 74.5426 142.63 72.3243 141.611Z" fill="url(#paint46_linear_486_4488)"/>
<path d="M56.7142 71.3287C48.7075 69.9705 44.938 76.4854 45.2139 77.8542C45.2506 78.0355 45.0789 78.1893 44.8998 78.1411C43.9807 77.8945 41.95 77.5832 40.6912 79.1566C39.5797 80.5461 40.4105 81.857 41.0878 82.5766C41.2515 82.7506 41.1138 83.0327 40.8767 83.003C39.1868 82.7904 35.5147 82.7394 34.914 86.1711C34.3537 89.3715 36.5863 90.2736 37.9105 90.5282C38.1348 90.5711 38.1869 90.8649 37.9945 90.9869C37.3337 91.4048 36.5683 92.2692 36.8777 93.9741C37.3625 96.6464 42.6145 96.4279 43.2279 96.3929C43.2667 96.3908 43.3034 96.3797 43.3374 96.36L51.7497 91.5739C51.8151 91.5368 51.8608 91.4721 51.8736 91.3979L53.572 81.613C53.5858 81.534 53.5608 81.4529 53.505 81.3951L58.9894 73.6742C60.9801 73.382 56.8093 71.3451 56.7153 71.3292L56.7142 71.3287Z" fill="url(#paint47_linear_486_4488)"/>
<path d="M50.3406 107.418C50.3406 107.418 54.9015 103.085 57.1469 100.215C58.3605 98.6636 58.7417 96.6214 58.1803 94.7351C57.1555 91.2901 55.3337 87.7217 55.1673 87.1664C54.9127 86.3153 49.7983 86.3508 49.7983 86.3508C49.7983 86.3508 39.7344 92.8668 35.7805 103.904L40.2213 105.284C40.2213 105.284 42.849 100.886 45.4452 98.0898C45.4452 98.0898 40.9528 104.01 40.7944 106.434L50.34 107.419L50.3406 107.418Z" fill="url(#paint48_linear_486_4488)"/>
<path d="M55.7856 82.4084C55.7325 82.5855 54.3977 86.9999 54.293 87.0916C54.1888 87.1834 51.3655 87.3345 50.0371 86.4287L53.3329 79.9971L55.7856 82.4084Z" fill="url(#paint49_linear_486_4488)"/>
<path d="M61.1371 76.7361C61.1371 76.7361 61.7824 79.2652 59.9974 82.6666C58.2129 86.068 56.1923 86.0643 55.0877 84.9756C53.9831 83.8869 52.6211 82.0392 52.9449 78.7508C53.2686 75.4623 60.2058 73.5187 61.1371 76.7361Z" fill="url(#paint50_linear_486_4488)"/>
<path d="M55.4135 78.9294C55.4135 78.9294 58.3744 74.4132 61.1514 77.9674L61.2014 79.2603C61.2014 79.2603 64.4536 78.8753 63.8843 75.9002C63.315 72.9251 60.5045 71.0659 56.8849 72.3545C53.2654 73.6432 51.1912 74.9647 50.9578 77.5527C50.7244 80.1406 52.788 79.5732 52.788 79.5732C52.788 79.5732 53.461 77.751 54.4184 77.5617C55.3752 77.3724 55.1265 78.7931 55.1265 78.7931L55.4135 78.9299V78.9294Z" fill="url(#paint51_linear_486_4488)"/>
<path d="M54.6554 78.8693C54.6554 78.8693 56.1911 76.5566 54.6177 76.2119C53.0442 75.8672 53.2882 78.4652 53.4583 79.4262L54.6559 78.8693H54.6554Z" fill="url(#paint52_linear_486_4488)"/>
<path d="M59.6328 107.739L56.2817 104.516L51.6457 106.47C51.6457 106.47 47.0311 107.183 44.3902 106.47L41.7493 105.757L35.7812 103.903L34.844 106.546C34.6059 107.217 34.8451 107.962 35.4266 108.374C35.9428 108.74 36.5483 109.142 36.9342 109.31C37.7204 109.654 56.3088 109.073 56.3088 109.073L59.6333 107.739H59.6328Z" fill="url(#paint53_linear_486_4488)"/>
<path d="M46.9507 109.258C46.9656 109.258 46.9805 109.259 46.9954 109.259L66.4348 109.238C66.9154 109.238 67.3045 108.849 67.304 108.369C67.304 107.89 66.9122 107.494 66.4327 107.502L46.9932 107.523C46.5127 107.523 46.1236 107.913 46.1241 108.392C46.1246 108.857 46.4909 109.235 46.9507 109.258Z" fill="url(#paint54_linear_486_4488)"/>
<path d="M83.9101 91.6504H67.7207C66.5263 91.6504 65.4392 92.3382 64.9299 93.4158L57.4458 109.248H77.5646C78.3343 109.248 79.0259 108.778 79.3087 108.065L85.1125 93.4142C85.448 92.5678 84.8228 91.6504 83.9101 91.6504Z" fill="url(#paint55_linear_486_4488)"/>
<path d="M72.5045 99.7677C72.1536 100.855 72.413 101.911 73.0834 102.127C73.7537 102.342 74.5819 101.635 74.9327 100.548C75.2836 99.4607 75.0242 98.4043 74.3538 98.189C73.6835 97.9737 72.8553 98.6806 72.5045 99.7677Z" fill="#7D97F4"/>
<path d="M24.7884 141.472C24.7884 141.472 24.5843 142.603 24.504 143.944C24.4695 144.516 24.8942 145.013 25.4657 145.068C27.4554 145.26 31.9845 145.616 34.8763 145.2C35.2814 145.141 35.4424 144.645 35.1426 144.366C33.9503 143.258 31.0702 141.102 26.3306 140.631L24.7884 141.472V141.472Z" fill="url(#paint56_linear_486_4488)"/>
<path d="M23.7991 138.925L24.8049 141.385C24.9425 141.722 25.2854 141.931 25.6485 141.893C25.8946 141.868 26.1865 141.821 26.4703 141.735C27.0381 141.563 27.3581 140.963 27.1885 140.395L26.4294 137.861L23.7991 138.925Z" fill="url(#paint57_linear_486_4488)"/>
<path d="M6.59979 143.431C6.59979 143.431 8.6145 145.112 9.39912 147.269C9.61494 147.863 9.15883 148.487 8.52625 148.487H4.38097C3.77443 148.487 3.3093 147.943 3.41455 147.347C3.67875 145.857 4.43997 143.437 6.59979 143.431Z" fill="url(#paint58_linear_486_4488)"/>
<path d="M4.10457 141.243C4.10457 141.243 4.51123 143.04 4.82434 144.227C4.88121 144.442 5.11138 144.561 5.32189 144.486C5.94916 144.262 6.45948 144.163 6.83106 144.213C7.00276 144.236 7.15213 144.093 7.15479 143.921L7.1936 140.937L4.10457 141.243Z" fill="url(#paint59_linear_486_4488)"/>
<path d="M14.8181 100.813L27.071 138.105C27.071 138.105 24.7209 139.64 23.6014 139.576L9.04773 109.606C9.04773 109.606 6.50092 128.073 7.73525 141.33L3.56657 141.647C3.56657 141.647 -3.21164 107.767 1.92239 96.1631L14.8186 100.812L14.8181 100.813Z" fill="url(#paint60_linear_486_4488)"/>
<path d="M9.12637 109.284C9.12158 109.284 9.11627 109.284 9.11148 109.283C9.04663 109.275 9.00038 109.216 9.00836 109.151L9.48359 105.386C9.49156 105.321 9.55057 105.276 9.61595 105.283C9.68081 105.291 9.72705 105.35 9.71908 105.415L9.24384 109.18C9.2364 109.24 9.18537 109.284 9.12637 109.284V109.284Z" fill="url(#paint61_linear_486_4488)"/>
<path d="M17.1157 67.9986C17.1157 67.9986 7.18836 68.8778 8.59281 75.9347C8.59281 75.9347 3.10528 86.2371 0.539858 98.3734C0.4564 98.7685 0.721668 99.1535 1.12036 99.2214L17.6526 102.045C18.1087 102.123 18.5483 101.84 18.6642 101.392L22.6144 86.1624L24.1538 93.2431L29.0449 91.972L24.9278 71.1646C24.9278 71.1646 24.3532 68.1285 17.1162 67.998L17.1157 67.9986Z" fill="url(#paint62_linear_486_4488)"/>
<path d="M22.6984 85.4812C22.6899 85.4812 22.6808 85.4802 22.6723 85.4786C22.6059 85.4643 22.5639 85.3985 22.5782 85.3322L23.9561 79.0194C23.9704 78.9531 24.0353 78.9117 24.1028 78.9255C24.1693 78.9398 24.2112 79.0056 24.1969 79.0719L22.819 85.3847C22.8063 85.442 22.7552 85.4812 22.6989 85.4812H22.6984Z" fill="#91B3FA"/>
<path d="M21.6999 104.266C21.1789 103.98 20.5692 103.901 19.9929 104.044L18.8426 104.33C18.5981 104.391 18.3557 104.223 18.3275 103.973L17.1373 93.4033C15.6489 94.1086 13.5018 94.0243 12.7937 93.9723L15.5335 106.433H25.1206L21.7004 104.265L21.6999 104.266Z" fill="url(#paint63_linear_486_4488)"/>
<path d="M47.1729 81.3392L46.8831 80.3782C46.7162 79.8251 46.3069 79.3781 45.7695 79.1628L40.5286 77.0601C40.5286 77.0601 40.4494 76.3897 41.6359 75.9337C42.8224 75.4781 42.5449 74.1523 42.5449 74.1523C42.5449 74.1523 40.9241 74.89 38.5511 76.0599C37.194 76.7291 36.4328 77.9102 36.0288 78.7995L24.1532 93.2426L25.5475 94.1982C27.381 95.4551 29.9028 94.8378 30.9447 92.8767L37.3779 80.5697C40.6078 81.5375 43.8765 81.7226 47.1729 81.3386V81.3392Z" fill="url(#paint64_linear_486_4488)"/>
<path d="M20.3318 61.2612L17.2784 69.7865C17.2784 69.7865 19.982 71.8951 21.9553 71.1823L23.4937 66.2955C23.4937 66.2955 22.3183 60.3226 20.3318 61.2612Z" fill="url(#paint65_linear_486_4488)"/>
<path d="M29.4446 58.1989C29.4446 58.3304 26.5033 66.5052 26.5033 66.5052L21.86 64.7308L23.4935 56.5692C23.4935 56.5692 29.444 55.9997 29.444 58.1989H29.4446Z" fill="url(#paint66_linear_486_4488)"/>
<path d="M24.3079 58.5578L23.1108 62.7871C23.0954 62.8412 23.0874 62.8958 23.0874 62.9525C23.0874 63.2972 23.1725 64.4846 24.3845 64.3229C25.4843 64.1765 26.4901 64.0588 27.1296 64.3595C27.4166 64.4942 27.5543 64.824 27.4469 65.122C27.1795 65.8645 26.5459 67.527 25.7745 68.8878C25.6183 69.1641 25.2749 69.2712 24.9852 69.1397C24.1128 68.7441 22.2975 67.8579 21.0036 66.8037C20.8282 66.661 20.7442 66.4362 20.7857 66.2145C20.9892 65.1327 21.5953 61.8421 21.6218 60.8992C21.6468 60.0141 20.6512 59.3384 20.2131 59.0844C20.0696 59.0012 19.967 58.8638 19.9282 58.7026C19.7905 58.133 19.6736 56.8438 21.3225 56.5596C21.6675 56.5002 21.8924 56.1709 21.8222 55.8283C21.683 55.1468 21.7276 54.1445 23.0241 53.7749C24.3425 53.3995 25.1717 54.1912 25.5938 54.7979C25.7645 55.0434 26.0834 55.123 26.3572 55.001C26.5129 54.9315 26.7006 54.9283 26.9026 55.0986C27.1747 55.3277 27.5894 55.2577 27.7893 54.9639C28.1736 54.3996 28.8721 53.8359 30.0543 54.2177C32.1519 54.8949 32.052 57.3079 31.2828 58.6193C30.5136 59.9308 28.2815 59.068 27.2242 58.1988C26.4204 57.538 25.1972 57.9331 24.6566 58.1606C24.4855 58.2327 24.3579 58.3791 24.3074 58.5573L24.3079 58.5578Z" fill="url(#paint67_linear_486_4488)"/>
<path d="M21.2018 62.4426C21.2018 62.4426 22.4436 60.0996 21.6223 59.3641C20.8015 58.6286 19.4104 58.7489 19.4476 60.5812C19.4944 62.8599 21.2018 62.4431 21.2018 62.4431V62.4426Z" fill="url(#paint68_linear_486_4488)"/>
<path d="M13.7571 94.1303C13.0793 94.1303 12.5961 94.0789 12.5435 94.073L12.4553 94.063L8.8405 77.2494C8.82615 77.1831 8.86866 77.1178 8.93511 77.1035C9.00209 77.0887 9.06695 77.1316 9.0813 77.1979L12.6589 93.8371C13.1968 93.8843 16.0695 94.0746 17.5861 93.0029L14.4545 78.3954L15.1084 77.1666C15.1403 77.1067 15.2147 77.0839 15.2748 77.1157C15.3348 77.1475 15.3577 77.2218 15.3258 77.2817L14.714 78.4314L17.8599 93.1063L17.7971 93.1535C16.7015 93.9749 14.9362 94.1303 13.7571 94.1303Z" fill="#91B3FA"/>
<path d="M122.127 145.392C122.21 145.392 122.294 145.374 122.375 145.336C122.695 145.187 122.843 144.783 122.705 144.435L109.496 110.999C109.359 110.651 108.988 110.49 108.668 110.64C108.349 110.789 108.201 111.193 108.339 111.541L121.548 144.977C121.65 145.236 121.883 145.392 122.127 145.392V145.392Z" fill="url(#paint69_linear_486_4488)"/>
<path d="M107.245 145.393C107.489 145.393 107.722 145.238 107.824 144.978L121.034 111.542C121.171 111.194 121.024 110.79 120.704 110.641C120.385 110.491 120.014 110.652 119.876 111L106.667 144.436C106.529 144.784 106.677 145.188 106.997 145.337C107.078 145.375 107.162 145.393 107.245 145.393V145.393Z" fill="url(#paint70_linear_486_4488)"/>
<path d="M32.479 145.392C32.5619 145.392 32.6464 145.374 32.7278 145.336C33.0473 145.187 33.195 144.783 33.0574 144.435L19.8481 110.999C19.7104 110.651 19.3404 110.49 19.0204 110.64C18.7009 110.789 18.5531 111.193 18.6908 111.541L31.9001 144.977C32.0027 145.236 32.235 145.392 32.479 145.392V145.392Z" fill="url(#paint71_linear_486_4488)"/>
<path d="M17.5983 145.393C17.8423 145.393 18.0746 145.238 18.1772 144.978L31.3865 111.542C31.5241 111.194 31.3764 110.79 31.0569 110.641C30.7374 110.491 30.3669 110.652 30.2292 111L17.0199 144.436C16.8822 144.784 17.03 145.188 17.3495 145.337C17.4308 145.375 17.5148 145.393 17.5983 145.393V145.393Z" fill="url(#paint72_linear_486_4488)"/>
<path d="M34.3958 108.639H15.2641V106.669H34.3958C33.9864 106.669 33.9864 108.639 34.3958 108.639Z" fill="#91B3FA"/>
<path d="M15.4438 108.639C15.3449 108.639 15.2641 108.558 15.2641 108.459V106.848C15.2641 106.75 15.3449 106.669 15.4438 106.669H34.7998C34.8986 106.669 34.9794 106.588 34.9794 106.49V106.403C34.9794 106.304 34.8986 106.224 34.7998 106.224H14.169C13.7129 106.224 13.343 106.593 13.343 107.048V108.307C13.343 108.736 13.6917 109.084 14.1223 109.084H34.8003C34.8992 109.084 34.98 109.003 34.98 108.904V108.817C34.98 108.719 34.8992 108.638 34.8003 108.638H15.4443L15.4438 108.639Z" fill="url(#paint73_linear_486_4488)"/>
<path d="M12.4909 109.967C12.4265 109.747 12.5142 109.52 12.7295 109.347C12.9448 109.174 13.2654 109.074 13.604 109.074H128.239C128.684 109.074 129.098 109.224 129.338 109.472C129.578 109.721 129.61 110.032 129.423 110.3L128.181 112.079C127.896 112.486 127.28 112.747 126.601 112.747H14.3907C13.7597 112.747 13.2175 112.451 13.0979 112.041L12.4914 109.967L12.4909 109.967Z" fill="url(#paint74_linear_486_4488)"/>
</g>
<defs>
<linearGradient id="paint0_linear_486_4488" x1="-17.9466" y1="191.777" x2="113.744" y2="27.8346" gradientUnits="userSpaceOnUse">
<stop stop-color="#DAE3FE"/>
<stop offset="1" stop-color="#E9EFFD"/>
</linearGradient>
<linearGradient id="paint1_linear_486_4488" x1="59.471" y1="53.3538" x2="61.2827" y2="65.3402" gradientUnits="userSpaceOnUse">
<stop stop-color="#09005D"/>
<stop offset="1" stop-color="#1A0F91"/>
</linearGradient>
<linearGradient id="paint2_linear_486_4488" x1="59.0686" y1="48.3847" x2="62.197" y2="82.9707" gradientUnits="userSpaceOnUse">
<stop stop-color="#53D8FF"/>
<stop offset="1" stop-color="#3840F7"/>
</linearGradient>
<linearGradient id="paint3_linear_486_4488" x1="58.9774" y1="48.392" x2="62.1058" y2="82.9782" gradientUnits="userSpaceOnUse">
<stop stop-color="#53D8FF"/>
<stop offset="1" stop-color="#3840F7"/>
</linearGradient>
<linearGradient id="paint4_linear_486_4488" x1="59.1506" y1="48.3766" x2="62.2795" y2="82.9624" gradientUnits="userSpaceOnUse">
<stop stop-color="#53D8FF"/>
<stop offset="1" stop-color="#3840F7"/>
</linearGradient>
<linearGradient id="paint5_linear_486_4488" x1="59.0574" y1="48.3854" x2="62.1858" y2="82.9712" gradientUnits="userSpaceOnUse">
<stop stop-color="#53D8FF"/>
<stop offset="1" stop-color="#3840F7"/>
</linearGradient>
<linearGradient id="paint6_linear_486_4488" x1="58.1028" y1="23.7908" x2="62.9298" y2="56.5856" gradientUnits="userSpaceOnUse">
<stop stop-color="#FF928E"/>
<stop offset="1" stop-color="#FE7062"/>
</linearGradient>
<linearGradient id="paint7_linear_486_4488" x1="13.404" y1="-15.6313" x2="35.1583" y2="14.7901" gradientUnits="userSpaceOnUse">
<stop stop-color="#E1473D"/>
<stop offset="1" stop-color="#E9605A"/>
</linearGradient>
<linearGradient id="paint8_linear_486_4488" x1="16.4342" y1="-17.798" x2="38.1884" y2="12.6234" gradientUnits="userSpaceOnUse">
<stop stop-color="#E1473D"/>
<stop offset="1" stop-color="#E9605A"/>
</linearGradient>
<linearGradient id="paint9_linear_486_4488" x1="85.3938" y1="136.192" x2="117.713" y2="170.77" gradientUnits="userSpaceOnUse">
<stop stop-color="#09005D"/>
<stop offset="1" stop-color="#1A0F91"/>
</linearGradient>
<linearGradient id="paint10_linear_486_4488" x1="95.8282" y1="138.679" x2="92.9795" y2="138.706" gradientUnits="userSpaceOnUse">
<stop stop-color="#FEBBBA"/>
<stop offset="1" stop-color="#FF928E"/>
</linearGradient>
<linearGradient id="paint11_linear_486_4488" x1="82.4943" y1="96.8549" x2="110.052" y2="133.565" gradientUnits="userSpaceOnUse">
<stop stop-color="#09005D"/>
<stop offset="1" stop-color="#1A0F91"/>
</linearGradient>
<linearGradient id="paint12_linear_486_4488" x1="92.526" y1="129.524" x2="124.847" y2="164.104" gradientUnits="userSpaceOnUse">
<stop stop-color="#09005D"/>
<stop offset="1" stop-color="#1A0F91"/>
</linearGradient>
<linearGradient id="paint13_linear_486_4488" x1="106.094" y1="138.436" x2="103.635" y2="138.459" gradientUnits="userSpaceOnUse">
<stop stop-color="#FEBBBA"/>
<stop offset="1" stop-color="#FF928E"/>
</linearGradient>
<linearGradient id="paint14_linear_486_4488" x1="87.3248" y1="93.2283" x2="114.882" y2="129.938" gradientUnits="userSpaceOnUse">
<stop stop-color="#09005D"/>
<stop offset="1" stop-color="#1A0F91"/>
</linearGradient>
<linearGradient id="paint15_linear_486_4488" x1="206.739" y1="-110.255" x2="181.681" y2="-66.7184" gradientUnits="userSpaceOnUse">
<stop stop-color="#FF928E"/>
<stop offset="1" stop-color="#FE7062"/>
</linearGradient>
<linearGradient id="paint16_linear_486_4488" x1="83.4016" y1="64.6402" x2="68.846" y2="64.7777" gradientUnits="userSpaceOnUse">
<stop stop-color="#FEBBBA"/>
<stop offset="1" stop-color="#FF928E"/>
</linearGradient>
<linearGradient id="paint17_linear_486_4488" x1="72.043" y1="62.3512" x2="81.9797" y2="84.446" gradientUnits="userSpaceOnUse">
<stop stop-color="#FEBBBA"/>
<stop offset="1" stop-color="#FF928E"/>
</linearGradient>
<linearGradient id="paint18_linear_486_4488" x1="68.8234" y1="54.9599" x2="64.7026" y2="48.7386" gradientUnits="userSpaceOnUse">
<stop stop-color="#FEBBBA"/>
<stop offset="1" stop-color="#FF928E"/>
</linearGradient>
<linearGradient id="paint19_linear_486_4488" x1="215.303" y1="-105.326" x2="190.245" y2="-61.7898" gradientUnits="userSpaceOnUse">
<stop stop-color="#FF928E"/>
<stop offset="1" stop-color="#FE7062"/>
</linearGradient>
<linearGradient id="paint20_linear_486_4488" x1="115.446" y1="84.9067" x2="97.0262" y2="85.0807" gradientUnits="userSpaceOnUse">
<stop stop-color="#FEBBBA"/>
<stop offset="1" stop-color="#FF928E"/>
</linearGradient>
<linearGradient id="paint21_linear_486_4488" x1="101.116" y1="65.3958" x2="93.8329" y2="65.4646" gradientUnits="userSpaceOnUse">
<stop stop-color="#FEBBBA"/>
<stop offset="1" stop-color="#FF928E"/>
</linearGradient>
<linearGradient id="paint22_linear_486_4488" x1="92.045" y1="60.8882" x2="99.9957" y2="55.9233" gradientUnits="userSpaceOnUse">
<stop stop-color="#FEBBBA"/>
<stop offset="1" stop-color="#FF928E"/>
</linearGradient>
<linearGradient id="paint23_linear_486_4488" x1="104.196" y1="50.7639" x2="93.9481" y2="59.0363" gradientUnits="userSpaceOnUse">
<stop stop-color="#09005D"/>
<stop offset="1" stop-color="#1A0F91"/>
</linearGradient>
<linearGradient id="paint24_linear_486_4488" x1="94.1656" y1="62.6848" x2="101.319" y2="58.2181" gradientUnits="userSpaceOnUse">
<stop stop-color="#FEBBBA"/>
<stop offset="1" stop-color="#FF928E"/>
</linearGradient>
<linearGradient id="paint25_linear_486_4488" x1="92.0795" y1="73.2578" x2="81.961" y2="115.518" gradientUnits="userSpaceOnUse">
<stop stop-color="#09005D"/>
<stop offset="1" stop-color="#1A0F91"/>
</linearGradient>
<linearGradient id="paint26_linear_486_4488" x1="99.0444" y1="84.435" x2="93.2852" y2="84.435" gradientUnits="userSpaceOnUse">
<stop stop-color="#FEBBBA"/>
<stop offset="1" stop-color="#FF928E"/>
</linearGradient>
<linearGradient id="paint27_linear_486_4488" x1="116.344" y1="112.408" x2="115.152" y2="141.676" gradientUnits="userSpaceOnUse">
<stop stop-color="#4F52FF"/>
<stop offset="1" stop-color="#4042E2"/>
</linearGradient>
<linearGradient id="paint28_linear_486_4488" x1="120.126" y1="139.944" x2="117.088" y2="139.944" gradientUnits="userSpaceOnUse">
<stop stop-color="#FEBBBA"/>
<stop offset="1" stop-color="#FF928E"/>
</linearGradient>
<linearGradient id="paint29_linear_486_4488" x1="100.306" y1="111.755" x2="99.1147" y2="141.024" gradientUnits="userSpaceOnUse">
<stop stop-color="#4F52FF"/>
<stop offset="1" stop-color="#4042E2"/>
</linearGradient>
<linearGradient id="paint30_linear_486_4488" x1="136.923" y1="126.27" x2="112.876" y2="126.27" gradientUnits="userSpaceOnUse">
<stop stop-color="#09005D"/>
<stop offset="1" stop-color="#1A0F91"/>
</linearGradient>
<linearGradient id="paint31_linear_486_4488" x1="105.739" y1="140.2" x2="102.112" y2="140.2" gradientUnits="userSpaceOnUse">
<stop stop-color="#FEBBBA"/>
<stop offset="1" stop-color="#FF928E"/>
</linearGradient>
<linearGradient id="paint32_linear_486_4488" x1="115.08" y1="116.276" x2="141.408" y2="146.197" gradientUnits="userSpaceOnUse">
<stop stop-color="#09005D"/>
<stop offset="1" stop-color="#1A0F91"/>
</linearGradient>
<linearGradient id="paint33_linear_486_4488" x1="125.882" y1="89.2186" x2="124.102" y2="84.7181" gradientUnits="userSpaceOnUse">
<stop stop-color="#FEBBBA"/>
<stop offset="1" stop-color="#FF928E"/>
</linearGradient>
<linearGradient id="paint34_linear_486_4488" x1="77.5886" y1="32.2686" x2="132.26" y2="115.776" gradientUnits="userSpaceOnUse">
<stop stop-color="#4F52FF"/>
<stop offset="1" stop-color="#4042E2"/>
</linearGradient>
<linearGradient id="paint35_linear_486_4488" x1="124.722" y1="96.6132" x2="90.089" y2="38.753" gradientUnits="userSpaceOnUse">
<stop stop-color="#09005D"/>
<stop offset="1" stop-color="#1A0F91"/>
</linearGradient>
<linearGradient id="paint36_linear_486_4488" x1="110.607" y1="106.711" x2="102.23" y2="106.711" gradientUnits="userSpaceOnUse">
<stop stop-color="#FEBBBA"/>
<stop offset="1" stop-color="#FF928E"/>
</linearGradient>
<linearGradient id="paint37_linear_486_4488" x1="120.425" y1="80.085" x2="128.41" y2="88.0667" gradientUnits="userSpaceOnUse">
<stop stop-color="#FEBBBA"/>
<stop offset="1" stop-color="#FF928E"/>
</linearGradient>
<linearGradient id="paint38_linear_486_4488" x1="127.386" y1="75.5435" x2="117.983" y2="84.859" gradientUnits="userSpaceOnUse">
<stop stop-color="#09005D"/>
<stop offset="1" stop-color="#1A0F91"/>
</linearGradient>
<linearGradient id="paint39_linear_486_4488" x1="121.72" y1="78.7907" x2="129.704" y2="86.7728" gradientUnits="userSpaceOnUse">
<stop stop-color="#FEBBBA"/>
<stop offset="1" stop-color="#FF928E"/>
</linearGradient>
<linearGradient id="paint40_linear_486_4488" x1="1905.9" y1="-1808.52" x2="1876.36" y2="-1776.91" gradientUnits="userSpaceOnUse">
<stop stop-color="#09005D"/>
<stop offset="1" stop-color="#1A0F91"/>
</linearGradient>
<linearGradient id="paint41_linear_486_4488" x1="-2407.72" y1="-719.449" x2="-2366.59" y2="-705.897" gradientUnits="userSpaceOnUse">
<stop stop-color="#09005D"/>
<stop offset="1" stop-color="#1A0F91"/>
</linearGradient>
<linearGradient id="paint42_linear_486_4488" x1="79.917" y1="200.166" x2="57.6283" y2="110.797" gradientUnits="userSpaceOnUse">
<stop stop-color="#FEBBBA"/>
<stop offset="1" stop-color="#FF928E"/>
</linearGradient>
<linearGradient id="paint43_linear_486_4488" x1="29.2555" y1="90.7104" x2="50.465" y2="126.502" gradientUnits="userSpaceOnUse">
<stop stop-color="#09005D"/>
<stop offset="1" stop-color="#1A0F91"/>
</linearGradient>
<linearGradient id="paint44_linear_486_4488" x1="69.0375" y1="143.659" x2="64.5807" y2="77.0216" gradientUnits="userSpaceOnUse">
<stop stop-color="#FEBBBA"/>
<stop offset="1" stop-color="#FF928E"/>
</linearGradient>
<linearGradient id="paint45_linear_486_4488" x1="65.1373" y1="114.458" x2="35.4654" y2="114.458" gradientUnits="userSpaceOnUse">
<stop stop-color="#09005D"/>
<stop offset="1" stop-color="#1A0F91"/>
</linearGradient>
<linearGradient id="paint46_linear_486_4488" x1="41.4133" y1="83.5065" x2="62.6195" y2="119.294" gradientUnits="userSpaceOnUse">
<stop stop-color="#09005D"/>
<stop offset="1" stop-color="#1A0F91"/>
</linearGradient>
<linearGradient id="paint47_linear_486_4488" x1="44.2363" y1="65.0174" x2="48.5853" y2="87.9202" gradientUnits="userSpaceOnUse">
<stop stop-color="#09005D"/>
<stop offset="1" stop-color="#1A0F91"/>
</linearGradient>
<linearGradient id="paint48_linear_486_4488" x1="64.9777" y1="139.155" x2="48.3402" y2="101.764" gradientUnits="userSpaceOnUse">
<stop stop-color="#4F52FF"/>
<stop offset="1" stop-color="#4042E2"/>
</linearGradient>
<linearGradient id="paint49_linear_486_4488" x1="51.4671" y1="93.6665" x2="53.2465" y2="82.2204" gradientUnits="userSpaceOnUse">
<stop stop-color="#FEBBBA"/>
<stop offset="1" stop-color="#FF928E"/>
</linearGradient>
<linearGradient id="paint50_linear_486_4488" x1="61.1733" y1="81.5313" x2="47.7756" y2="77.0003" gradientUnits="userSpaceOnUse">
<stop stop-color="#FEBBBA"/>
<stop offset="1" stop-color="#FF928E"/>
</linearGradient>
<linearGradient id="paint51_linear_486_4488" x1="64.0327" y1="69.5951" x2="48.4235" y2="86.9402" gradientUnits="userSpaceOnUse">
<stop stop-color="#09005D"/>
<stop offset="1" stop-color="#1A0F91"/>
</linearGradient>
<linearGradient id="paint52_linear_486_4488" x1="61.5726" y1="80.3517" x2="48.1746" y2="75.8202" gradientUnits="userSpaceOnUse">
<stop stop-color="#FEBBBA"/>
<stop offset="1" stop-color="#FF928E"/>
</linearGradient>
<linearGradient id="paint53_linear_486_4488" x1="44.1254" y1="106.661" x2="19.2447" y2="106.661" gradientUnits="userSpaceOnUse">
<stop stop-color="#FEBBBA"/>
<stop offset="1" stop-color="#FF928E"/>
</linearGradient>
<linearGradient id="paint54_linear_486_4488" x1="43.6579" y1="104.106" x2="59.0822" y2="109.177" gradientUnits="userSpaceOnUse">
<stop stop-color="#09005D"/>
<stop offset="1" stop-color="#1A0F91"/>
</linearGradient>
<linearGradient id="paint55_linear_486_4488" x1="64.8507" y1="94.0113" x2="75.936" y2="105.756" gradientUnits="userSpaceOnUse">
<stop stop-color="#09005D"/>
<stop offset="1" stop-color="#1A0F91"/>
</linearGradient>
<linearGradient id="paint56_linear_486_4488" x1="30.0655" y1="161.938" x2="30.2289" y2="179.291" gradientUnits="userSpaceOnUse">
<stop stop-color="#09005D"/>
<stop offset="1" stop-color="#1A0F91"/>
</linearGradient>
<linearGradient id="paint57_linear_486_4488" x1="25.8728" y1="142.559" x2="24.9744" y2="135.519" gradientUnits="userSpaceOnUse">
<stop stop-color="#FEBBBA"/>
<stop offset="1" stop-color="#FF928E"/>
</linearGradient>
<linearGradient id="paint58_linear_486_4488" x1="6.56472" y1="162.158" x2="6.72819" y2="179.511" gradientUnits="userSpaceOnUse">
<stop stop-color="#09005D"/>
<stop offset="1" stop-color="#1A0F91"/>
</linearGradient>
<linearGradient id="paint59_linear_486_4488" x1="6.14638" y1="144.971" x2="5.27127" y2="138.111" gradientUnits="userSpaceOnUse">
<stop stop-color="#FEBBBA"/>
<stop offset="1" stop-color="#FF928E"/>
</linearGradient>
<linearGradient id="paint60_linear_486_4488" x1="19.9877" y1="89.5898" x2="11.8822" y2="129.14" gradientUnits="userSpaceOnUse">
<stop stop-color="#09005D"/>
<stop offset="1" stop-color="#1A0F91"/>
</linearGradient>
<linearGradient id="paint61_linear_486_4488" x1="5.6153" y1="114.762" x2="6.59603" y2="112.796" gradientUnits="userSpaceOnUse">
<stop stop-color="#4F52FF"/>
<stop offset="1" stop-color="#4042E2"/>
</linearGradient>
<linearGradient id="paint62_linear_486_4488" x1="21.8175" y1="73.4985" x2="4.98825" y2="123.617" gradientUnits="userSpaceOnUse">
<stop stop-color="#4F52FF"/>
<stop offset="1" stop-color="#4042E2"/>
</linearGradient>
<linearGradient id="paint63_linear_486_4488" x1="12.7937" y1="99.9182" x2="25.1206" y2="99.9182" gradientUnits="userSpaceOnUse">
<stop stop-color="#FEBBBA"/>
<stop offset="1" stop-color="#FF928E"/>
</linearGradient>
<linearGradient id="paint64_linear_486_4488" x1="24.1532" y1="84.503" x2="47.1729" y2="84.503" gradientUnits="userSpaceOnUse">
<stop stop-color="#FEBBBA"/>
<stop offset="1" stop-color="#FF928E"/>
</linearGradient>
<linearGradient id="paint65_linear_486_4488" x1="15.866" y1="71.623" x2="23.8578" y2="63.4042" gradientUnits="userSpaceOnUse">
<stop stop-color="#FEBBBA"/>
<stop offset="1" stop-color="#FF928E"/>
</linearGradient>
<linearGradient id="paint66_linear_486_4488" x1="27.4841" y1="58.2567" x2="17.5265" y2="71.4616" gradientUnits="userSpaceOnUse">
<stop stop-color="#FEBBBA"/>
<stop offset="1" stop-color="#FF928E"/>
</linearGradient>
<linearGradient id="paint67_linear_486_4488" x1="12.2585" y1="20.7671" x2="22.7517" y2="51.2459" gradientUnits="userSpaceOnUse">
<stop stop-color="#E1473D"/>
<stop offset="1" stop-color="#E9605A"/>
</linearGradient>
<linearGradient id="paint68_linear_486_4488" x1="12.8554" y1="68.695" x2="20.8472" y2="60.4761" gradientUnits="userSpaceOnUse">
<stop stop-color="#FEBBBA"/>
<stop offset="1" stop-color="#FF928E"/>
</linearGradient>
<linearGradient id="paint69_linear_486_4488" x1="141.399" y1="220.048" x2="111.861" y2="114.463" gradientUnits="userSpaceOnUse">
<stop stop-color="#4F52FF"/>
<stop offset="1" stop-color="#4042E2"/>
</linearGradient>
<linearGradient id="paint70_linear_486_4488" x1="139.85" y1="220.482" x2="110.312" y2="114.897" gradientUnits="userSpaceOnUse">
<stop stop-color="#4F52FF"/>
<stop offset="1" stop-color="#4042E2"/>
</linearGradient>
<linearGradient id="paint71_linear_486_4488" x1="58.2873" y1="243.299" x2="28.7493" y2="137.714" gradientUnits="userSpaceOnUse">
<stop stop-color="#4F52FF"/>
<stop offset="1" stop-color="#4042E2"/>
</linearGradient>
<linearGradient id="paint72_linear_486_4488" x1="56.7382" y1="243.733" x2="27.2001" y2="138.148" gradientUnits="userSpaceOnUse">
<stop stop-color="#4F52FF"/>
<stop offset="1" stop-color="#4042E2"/>
</linearGradient>
<linearGradient id="paint73_linear_486_4488" x1="16.4315" y1="75.0041" x2="21.1766" y2="94.9829" gradientUnits="userSpaceOnUse">
<stop stop-color="#09005D"/>
<stop offset="1" stop-color="#1A0F91"/>
</linearGradient>
<linearGradient id="paint74_linear_486_4488" x1="104.85" y1="230.273" x2="75.3121" y2="124.689" gradientUnits="userSpaceOnUse">
<stop stop-color="#4F52FF"/>
<stop offset="1" stop-color="#4042E2"/>
</linearGradient>
<clipPath id="clip0_486_4488">
<rect width="149" height="148.488" fill="white" transform="matrix(-1 0 0 1 149 0)"/>
</clipPath>
</defs>
</svg>
