<svg width="14" height="14" viewBox="0 0 14 14" fill="none" xmlns="http://www.w3.org/2000/svg">
<path d="M4.77167 13.5918C4.48718 13.5162 4.2338 13.3917 4.0471 13.1561C3.74926 12.7783 3.7137 12.2537 3.96264 11.8403C4.21157 11.4269 4.6961 11.2091 5.1673 11.298C5.62961 11.3869 6.00746 11.7648 6.09192 12.2271C6.1986 12.8094 5.84743 13.3784 5.27399 13.5473C5.23398 13.5606 5.18953 13.5784 5.14952 13.5918H4.77167Z" fill="#144973"/>
<path d="M11.7016 13.5918C11.4171 13.5162 11.1637 13.3917 10.977 13.1561C10.6792 12.7783 10.6436 12.2537 10.8926 11.8403C11.1415 11.4269 11.626 11.2091 12.0972 11.298C12.5595 11.3869 12.9374 11.7648 13.0218 12.2271C13.1285 12.8094 12.7774 13.3784 12.2039 13.5473C12.1639 13.5606 12.1195 13.5784 12.0795 13.5918H11.7016Z" fill="#144973"/>
<path d="M8.91894 10.7069C7.80763 10.7069 6.70076 10.7069 5.58945 10.7069C4.8382 10.7069 4.25587 10.249 4.08695 9.53331C4.02916 9.28438 4.05139 9.04433 4.10918 8.79984C4.17585 8.50645 4.25143 8.21307 4.28254 7.91524C4.30032 7.74187 4.25142 7.55517 4.19808 7.38625C3.58464 5.52813 2.9623 3.67446 2.34441 1.81634C2.25551 1.54963 2.13993 1.46517 1.85543 1.46517C1.54426 1.46517 1.2331 1.46517 0.921928 1.46517C0.597424 1.46517 0.344044 1.22068 0.339599 0.913957C0.330708 0.585008 0.566308 0.313848 0.899702 0.309402C1.48648 0.300512 2.07325 0.300512 2.66002 0.309402C2.92674 0.309402 3.11788 0.469431 3.20679 0.736147C3.37571 1.23846 3.54463 1.74077 3.71355 2.24309C3.81579 2.54537 3.91358 2.61649 4.23809 2.61649C7.26086 2.61649 10.2792 2.61649 13.302 2.61649C13.3998 2.61649 13.502 2.61649 13.5954 2.64316C13.9199 2.73651 14.0754 3.06546 13.9643 3.41219C13.6976 4.22567 13.4264 5.03471 13.1553 5.84375C12.9241 6.53276 12.693 7.22622 12.4618 7.91524C12.3462 8.25308 12.1684 8.38643 11.8128 8.38643C9.81244 8.38643 7.80763 8.38643 5.80726 8.38643C5.4961 8.38643 5.39386 8.46645 5.31829 8.77317C5.28717 8.89764 5.25161 9.02655 5.22494 9.15102C5.18048 9.34216 5.29606 9.50219 5.49165 9.52886C5.55388 9.53776 5.61612 9.53776 5.6828 9.53776C7.90987 9.53776 10.1369 9.53776 12.3685 9.53776C12.524 9.53776 12.6752 9.55109 12.8085 9.64444C13.0041 9.78224 13.0975 10.0312 13.0353 10.2668C12.9775 10.4935 12.7819 10.6668 12.5463 10.6891C12.4796 10.698 12.4129 10.698 12.3418 10.698C11.2038 10.698 10.0703 10.698 8.93228 10.698L8.91894 10.7069Z" fill="#144973"/>
</svg>
