<svg width="78" height="79" viewBox="0 0 78 79" fill="none" xmlns="http://www.w3.org/2000/svg">
<rect width="78" height="79" rx="15" fill="#D9D9D9" fill-opacity="0.25"/>
<path d="M20.7395 30.4395H57.141C57.141 30.5841 57.141 30.7016 57.141 30.8281C57.141 38.5478 57.141 46.2674 57.141 53.996C57.141 55.9485 55.9749 57.3496 54.0676 57.6841C53.8597 57.7202 53.6428 57.7202 53.4258 57.7202C43.7718 57.7202 34.1087 57.7202 24.4547 57.7202C22.2672 57.7202 20.7305 56.1926 20.7305 54.0051C20.7305 46.2854 20.7305 38.5658 20.7305 30.8372C20.7305 30.7106 20.7305 30.5931 20.7305 30.4395H20.7395ZM35.3019 39.6596C35.2567 39.6596 35.1121 39.6596 34.9765 39.6596C33.6025 39.6596 32.2195 39.6506 30.8455 39.6686C29.0015 39.6958 27.3202 41.0969 27.0399 42.9138C26.9043 43.8267 26.9315 44.7759 26.9495 45.7069C26.9767 47.9125 28.7213 49.6571 30.9359 49.6842C33.4488 49.7114 35.9618 49.7023 38.4838 49.6842C39.6589 49.6842 40.6351 49.1871 41.4216 48.3283C41.9729 47.7227 42.2803 47.0086 42.4611 46.195C42.6147 46.195 42.7503 46.195 42.8859 46.195C44.1876 46.195 45.4893 46.2041 46.7909 46.195C48.7886 46.1679 50.5061 44.8934 50.8134 43.0132C50.9942 41.9104 51.0213 40.7353 50.8677 39.6234C50.5875 37.4992 48.9423 36.1614 46.7638 36.1342C44.3774 36.1071 41.991 36.1162 39.5956 36.1342C38.1674 36.1433 36.9742 36.6947 36.1697 37.8879C35.8172 38.4122 35.6092 39.0268 35.3019 39.6596Z" fill="#24419A"/>
<path d="M20.7482 27.9721C20.7482 26.815 20.694 25.6941 20.7572 24.5733C20.8748 22.7202 22.4476 21.3281 24.3639 21.3281C32.4994 21.3281 40.6438 21.3281 48.7792 21.3281C50.3431 21.3281 51.9159 21.3281 53.4797 21.3281C55.5949 21.3281 57.1316 22.8739 57.1406 24.9891C57.1406 25.9744 57.1406 26.9596 57.1406 27.9721H20.7482ZM34.8225 25.1066C34.1355 25.1066 33.6202 25.6128 33.6202 26.2907C33.6202 26.9144 34.1988 27.493 34.8225 27.502C35.5456 27.502 36.0157 27.0229 36.0066 26.2817C36.0066 25.5585 35.5366 25.1066 34.8225 25.1066ZM30.6644 27.493C31.3423 27.493 31.8756 26.9868 31.8847 26.3179C31.8847 25.6309 31.3604 25.1066 30.6644 25.1066C30.0045 25.1066 29.4621 25.658 29.4802 26.3179C29.4893 26.9687 30.0226 27.493 30.6644 27.493ZM26.452 27.493C27.1571 27.493 27.6452 27.0139 27.6452 26.3088C27.6452 25.6309 27.1209 25.1066 26.452 25.0975C25.8464 25.0975 25.2498 25.6761 25.2317 26.2727C25.2136 26.8783 25.8283 27.4839 26.452 27.493Z" fill="#24419A"/>
<path d="M35.4101 42.0829C35.4643 44.2523 37.0372 46.2229 39.8936 46.2139C39.6496 46.7743 39.2428 47.1178 38.6643 47.2444C38.4835 47.2896 38.2846 47.2896 38.1038 47.2896C35.8169 47.2896 33.5299 47.2896 31.2429 47.2896C31.0079 47.2896 30.7548 47.2805 30.5288 47.2082C29.869 47.0003 29.4351 46.5483 29.3808 45.8523C29.3266 45.1201 29.3176 44.3879 29.3537 43.6557C29.417 42.6433 30.0859 42.0648 31.1435 42.0558C32.4723 42.0467 33.7921 42.0558 35.1208 42.0558C35.2112 42.0558 35.2926 42.0739 35.4011 42.0829H35.4101Z" fill="#24419A"/>
<path d="M42.4793 43.7636C42.3528 41.1512 40.337 39.5151 38.041 39.6416C38.1404 39.045 38.8274 38.5479 39.6048 38.5479C41.4488 38.5479 43.2929 38.5479 45.1369 38.5479C45.6883 38.5479 46.2488 38.5479 46.8002 38.5479C47.7402 38.5569 48.4363 39.1444 48.4996 40.0755C48.5538 40.8438 48.5357 41.6212 48.4815 42.3805C48.4272 43.1218 47.7764 43.7364 47.0442 43.7545C45.5256 43.7816 44.016 43.7636 42.4703 43.7636H42.4793Z" fill="#24419A"/>
<path d="M40.0115 43.7459C38.6737 43.8635 37.7969 43.1765 37.8872 42.1098C39.0352 41.8658 39.9844 42.5889 40.0115 43.7459Z" fill="#24419A"/>
</svg>
