<svg width="56" height="54" viewBox="0 0 56 54" fill="none" xmlns="http://www.w3.org/2000/svg">
<g clip-path="url(#clip0_159_1273)">
<path d="M6.59346 43.3479C6.59346 43.5638 6.59346 43.7744 6.59346 43.9904C6.59346 46.5117 6.59346 49.0276 6.59346 51.5489C6.59346 52.9418 5.60335 53.9784 4.27596 54C2.94312 54.0162 1.92038 52.9526 1.92038 51.5326C1.92038 48.8548 1.92038 46.1769 1.91494 43.4991C1.91494 43.4613 1.89862 43.4235 1.87686 43.3317C1.78437 43.3209 1.67557 43.3101 1.56133 43.2993C0.620183 43.1967 0.0217677 42.5812 0.0163275 41.6472C0.00544725 39.2447 7.11204e-06 36.8476 0.0163275 34.4451C0.0217677 33.4733 0.658264 32.8362 1.63205 32.8254C3.38922 32.8092 5.15182 32.8254 6.90899 32.8254C7.55092 32.8254 8.04598 33.1007 8.3071 33.673C8.45399 33.9862 8.63351 34.0509 8.9436 34.0402C11.2393 33.9754 13.3447 33.2573 15.2705 32.0803C16.5217 31.3137 17.6478 30.3527 18.8338 29.4835C19.2037 29.2135 19.3506 28.8842 19.3234 28.4199C19.2907 27.7828 19.492 27.6046 20.1231 27.5992C21.222 27.5938 22.3209 27.61 23.4198 27.5938C23.9693 27.5884 24.225 27.826 24.225 28.3767C24.225 34.823 24.225 41.2747 24.225 47.721C24.225 48.3149 24.0019 48.5363 23.3817 48.5417C22.3209 48.5525 21.2655 48.5471 20.2047 48.5417C19.5138 48.5417 19.2907 48.3365 19.3234 47.6616C19.3451 47.2189 19.1874 46.9328 18.861 46.6412C16.5544 44.5842 13.9975 42.9808 10.9293 42.3113C10.5212 42.2249 10.1078 42.1601 9.6889 42.1169C9.0524 42.0468 8.45943 41.928 8.05142 42.7324C7.86101 43.1049 7.17555 43.2291 6.71858 43.4667L6.5989 43.3425L6.59346 43.3479ZM19.2853 30.8332C16.1137 33.4679 12.6864 35.2765 8.53559 35.3575V40.7834C10.5702 40.7726 12.5069 41.1721 14.2749 42.0791C16.0103 42.97 17.6424 44.0551 19.2853 45.0378V30.8332ZM7.19731 38.0731C7.19731 36.9232 7.18643 35.7732 7.20275 34.6232C7.20819 34.2345 7.06131 34.0887 6.6805 34.0941C5.05934 34.0995 3.44362 34.0995 1.82245 34.0941C1.44164 34.0941 1.29476 34.2345 1.29476 34.6232C1.30564 36.907 1.30564 39.1853 1.29476 41.4691C1.29476 41.8794 1.4362 42.0306 1.84966 42.0252C3.44906 42.009 5.04846 42.009 6.64786 42.0252C7.06675 42.0252 7.20819 41.8848 7.20275 41.4691C7.18099 40.3407 7.19731 39.2069 7.19731 38.0785V38.0731ZM20.6236 47.2135H22.8812V28.9112H20.6236V47.2135ZM3.22057 43.3371C3.22057 46.1931 3.20969 49.0168 3.24233 51.8404C3.24233 52.0887 3.51978 52.4235 3.75915 52.5692C4.48268 53.0228 5.29326 52.4613 5.2987 51.5165C5.30959 48.9412 5.2987 46.3713 5.2987 43.796C5.2987 43.6448 5.2715 43.4937 5.25518 43.3371H3.21513H3.22057Z" fill="#52C1FF"/>
<path d="M44.3317 32.8197C44.2991 32.2151 44.5112 31.605 43.7387 31.5024C43.5374 31.4754 43.2763 31.5024 43.1294 31.6212C42.7867 31.8911 42.5038 32.2313 42.1829 32.5336C41.8347 32.8629 41.4756 32.8629 41.1329 32.5174C40.5073 31.9019 39.8871 31.2864 39.2669 30.6656C38.9242 30.3254 38.9133 29.9745 39.2669 29.629C39.5063 29.3914 39.7239 29.1215 39.9905 28.9217C40.4202 28.6032 40.5127 28.2415 40.1863 27.8257C40.0666 27.6692 39.849 27.5234 39.6641 27.5018C39.2506 27.4532 38.8263 27.4802 38.4074 27.4856C37.9178 27.491 37.6512 27.275 37.6512 26.7783C37.6512 25.8875 37.6512 24.9913 37.6512 24.1005C37.6512 23.6362 37.8906 23.4094 38.353 23.404C38.712 23.404 39.0765 23.3662 39.4301 23.404C39.9034 23.458 40.1482 23.2906 40.3114 22.8371C40.4257 22.5186 40.393 22.335 40.1482 22.1245C39.849 21.8653 39.5825 21.563 39.2941 21.2876C38.9242 20.9313 38.9024 20.5804 39.2778 20.2079C39.9034 19.5924 40.5236 18.9769 41.1438 18.356C41.492 18.0105 41.8401 18.0105 42.1883 18.3506C42.5038 18.653 42.7921 18.9931 43.1349 19.263C43.2818 19.3764 43.5483 19.425 43.7333 19.3764C44.0216 19.3062 44.3698 19.2469 44.3371 18.7825C44.3045 18.3506 44.3263 17.9079 44.3371 17.476C44.348 17.0009 44.582 16.7418 45.0824 16.7472C45.9638 16.7526 46.8396 16.7472 47.7209 16.7472C48.2486 16.7472 48.4825 17.0171 48.4662 17.53C48.4553 17.8485 48.5043 18.1725 48.4553 18.4802C48.3737 19.0147 48.5913 19.317 49.1027 19.3872C49.2822 19.4142 49.527 19.3872 49.6576 19.2846C49.9949 19.0093 50.2941 18.6854 50.5988 18.3722C50.9415 18.0213 51.2896 17.9943 51.6433 18.3398C52.2852 18.9661 52.9217 19.5924 53.5528 20.2349C53.8683 20.5588 53.8628 20.9097 53.5582 21.2391C53.3134 21.5036 53.0631 21.7628 52.7966 21.9949C52.4865 22.2649 52.3396 22.5024 52.5354 22.9559C52.7258 23.3986 53.0033 23.404 53.3787 23.3986C55.2392 23.377 55.2011 23.2906 55.1794 25.1695C55.1739 25.6878 55.1794 26.2007 55.1794 26.719C55.1794 27.2265 54.9291 27.491 54.4069 27.4856C54.0696 27.4856 53.7268 27.491 53.3895 27.4856C53.0251 27.4748 52.7258 27.4586 52.5463 27.9175C52.3722 28.3548 52.481 28.587 52.7911 28.8839C54.1348 30.1581 54.1457 30.1095 52.8129 31.4052C52.443 31.7669 52.0785 32.1341 51.7085 32.5012C51.3223 32.8845 50.9469 32.8737 50.5716 32.485C50.3485 32.2529 50.1037 32.0531 49.897 31.8047C49.6086 31.4592 49.3421 31.3728 48.8797 31.551C48.3901 31.74 48.4825 32.0639 48.4771 32.404C48.4771 32.7604 48.4825 33.1167 48.4771 33.473C48.4662 33.9049 48.2214 34.1371 47.7971 34.1425C46.8777 34.1533 45.9583 34.1533 45.0389 34.1425C44.6037 34.1425 44.3807 33.8887 44.3535 33.473C44.3371 33.2139 44.3535 32.9601 44.3535 32.8251L44.3317 32.8197ZM40.5182 20.7801C40.8935 21.1311 41.2417 21.455 41.5953 21.7789C41.9272 22.0813 41.938 22.4052 41.7476 22.7939C41.5518 23.1827 41.3777 23.5822 41.2471 23.9979C41.1003 24.4676 40.8228 24.6836 40.3278 24.662C39.8762 24.6404 39.4247 24.662 38.9514 24.662V26.2169C39.4628 26.2169 39.9361 26.2169 40.4148 26.2169C40.8283 26.2169 41.0731 26.4166 41.2145 26.7999C41.3723 27.2427 41.5518 27.6854 41.7585 28.1119C41.9489 28.506 41.9163 28.8353 41.5844 29.1269C41.2254 29.44 40.8663 29.7586 40.578 30.0123C40.986 30.4712 41.3124 30.8437 41.7259 31.308C42.0795 30.9139 42.3896 30.5576 42.716 30.2067C43.0152 29.8827 43.3416 29.8503 43.7387 30.0609C44.125 30.2661 44.5276 30.4496 44.9464 30.5684C45.4415 30.7034 45.6265 30.9841 45.6101 31.4754C45.5884 31.9235 45.6101 32.3716 45.6101 32.8143H47.0844C47.1823 32.1179 47.0681 31.335 47.4108 30.8815C47.7536 30.428 48.5315 30.2714 49.1408 30.0393C50.256 29.6182 50.3975 30.9355 51.17 31.1569C51.4964 30.8329 51.8445 30.4928 52.2689 30.0771C51.8881 29.7262 51.5236 29.3914 51.1645 29.0513C50.8816 28.7867 50.8544 28.4898 51.0285 28.1389C51.2407 27.7124 51.442 27.2804 51.5834 26.8323C51.7194 26.4058 51.9805 26.2115 52.4103 26.2115C52.8836 26.2115 53.3569 26.2115 53.852 26.2115V24.6566C53.3297 24.6566 52.8238 24.7214 52.3505 24.6296C52.0785 24.581 51.7684 24.3326 51.6161 24.0843C51.3713 23.6848 51.2679 23.2043 51.0448 22.7831C50.8327 22.3836 50.8816 22.0651 51.208 21.7735C51.5617 21.455 51.9261 21.1473 52.2689 20.8449C51.8282 20.3968 51.4855 20.0513 51.1101 19.668C50.3703 20.3374 49.7664 21.5198 48.4825 20.5264C46.8287 20.3698 47.215 19.0795 47.1606 18.0483H45.6047C45.6047 18.5504 45.5938 19.0201 45.6047 19.4898C45.621 19.9109 45.4252 20.1485 45.0389 20.2888C44.5928 20.4508 44.1413 20.6182 43.717 20.8233C43.3144 21.0177 42.9934 20.9691 42.6942 20.6506C42.3733 20.305 42.0414 19.9703 41.7096 19.6194C41.2852 20.0297 40.9316 20.3752 40.5236 20.7693L40.5182 20.7801Z" fill="#52C1FF"/>
<path d="M0.930265 15.5596C0.952025 9.65313 5.78831 4.88049 11.7017 4.92908C17.6478 4.97767 22.4406 9.77191 22.4134 15.6459C22.3862 21.4714 17.5173 26.2764 11.6473 26.2656C5.72303 26.2548 0.908504 21.4444 0.930265 15.565V15.5596ZM2.19782 15.5812C2.19782 20.7371 6.44657 24.9753 11.6365 24.9807C16.8372 24.9807 21.1077 20.7695 21.1132 15.6189C21.1186 10.4198 16.8699 6.18163 11.6473 6.18703C6.45201 6.18703 2.19782 10.4198 2.19782 15.5812Z" fill="#52C1FF"/>
<path d="M23.6102 9.1675C23.6265 4.09251 27.7991 -0.0268627 32.8965 0.00013192C38.0212 0.0271265 42.1176 4.1789 42.1013 9.31867C42.0795 14.2857 37.8797 18.4104 32.8367 18.3997C27.7393 18.3889 23.5939 14.2425 23.6102 9.1675ZM24.8832 9.21069C24.8941 13.5676 28.4737 17.1201 32.853 17.1201C37.265 17.1201 40.8228 13.5568 40.8119 9.1567C40.8011 4.79437 37.2269 1.27428 32.8258 1.27968C28.4519 1.29047 24.8723 4.86456 24.8832 9.21069Z" fill="#52C1FF"/>
<path d="M50.12 45.2966C50.1091 50.0639 46.127 54.0051 41.3233 54.0051C36.5142 54.0051 32.5484 50.0639 32.5375 45.2912C32.5266 40.5024 36.536 36.5342 41.3614 36.5558C46.1705 36.5773 50.1255 40.524 50.12 45.302V45.2966ZM48.8253 45.2966C48.8253 41.1934 45.4633 37.8353 41.3396 37.8299C37.2214 37.8299 33.8159 41.1988 33.8214 45.2804C33.8268 49.335 37.216 52.7093 41.2907 52.7201C45.4143 52.7309 48.8198 49.3782 48.8253 45.2966Z" fill="#52C1FF"/>
<path d="M31.0741 33.5378C32.1676 33.5378 33.2665 33.5486 34.3599 33.5378C34.8169 33.5378 35.1814 33.6566 35.1814 34.1641C35.1814 34.677 34.7951 34.8066 34.3545 34.8066C32.1621 34.8066 29.9697 34.8066 27.7774 34.8066C27.3095 34.8066 26.9015 34.6662 26.9178 34.1263C26.9396 33.6296 27.3313 33.527 27.7774 33.5324C28.8708 33.5486 29.9697 33.5324 31.0632 33.5324L31.0741 33.5378Z" fill="#52C1FF"/>
<path d="M31.0414 21.7248C32.1186 21.7248 33.2012 21.7248 34.2783 21.7248C34.7353 21.7248 35.1705 21.7788 35.1814 22.3403C35.1923 22.8964 34.7734 22.9881 34.311 22.9881C32.1349 22.9881 29.9534 22.9881 27.7774 22.9881C27.3258 22.9881 26.9341 22.8694 26.9233 22.3727C26.9178 21.8328 27.3313 21.7194 27.7991 21.7248C28.8763 21.7356 29.9589 21.7248 31.036 21.7248H31.0414Z" fill="#52C1FF"/>
<path d="M31.0034 26.9137C29.9262 26.9137 28.8436 26.9083 27.7665 26.9137C27.315 26.9137 26.9287 26.7949 26.9233 26.2928C26.9233 25.7961 27.2878 25.6611 27.7502 25.6611C29.948 25.6719 32.1458 25.6665 34.3436 25.6611C34.7951 25.6611 35.176 25.7637 35.1814 26.2766C35.1868 26.7895 34.8169 26.9191 34.3599 26.9137C33.2393 26.9083 32.124 26.9137 31.0034 26.9137Z" fill="#52C1FF"/>
<path d="M31.0034 30.8605C29.9262 30.8605 28.8436 30.8605 27.7665 30.8605C27.315 30.8605 26.9287 30.731 26.9233 30.2289C26.9233 29.7322 27.2932 29.5918 27.7502 29.5918C29.948 29.5972 32.1458 29.5972 34.3491 29.5918C34.8006 29.5918 35.1814 29.6944 35.1868 30.2127C35.1923 30.7256 34.8169 30.8605 34.3654 30.8605C33.2447 30.8605 32.124 30.8605 31.0088 30.8605H31.0034Z" fill="#52C1FF"/>
<path d="M46.3772 28.7869C44.5276 28.7869 43.037 27.3076 43.0206 25.4666C43.0043 23.5986 44.5058 22.0977 46.3935 22.0977C48.2758 22.0977 49.7827 23.5824 49.7773 25.4504C49.7773 27.313 48.2704 28.7923 46.3772 28.7869ZM48.4825 25.4342C48.4825 24.2788 47.5577 23.3556 46.4044 23.3502C45.262 23.3502 44.31 24.2788 44.2882 25.4126C44.2664 26.5626 45.2348 27.5128 46.4153 27.5074C47.5904 27.502 48.4825 26.6058 48.4825 25.4342Z" fill="#52C1FF"/>
<path d="M7.71413 15.5759C7.71413 14.048 7.71413 12.5201 7.71413 10.9976C7.71413 10.0204 8.13846 9.77206 8.98712 10.258C11.6691 11.7859 14.3457 13.3192 17.0168 14.8578C17.8763 15.3491 17.8709 15.8189 17.0004 16.3156C14.3239 17.8542 11.6473 19.3875 8.9708 20.9208C8.1439 21.3905 7.71957 21.153 7.71413 20.219C7.70324 18.6749 7.71413 17.1254 7.71413 15.5813V15.5759ZM9.0252 19.4253C11.2774 18.135 13.448 16.8878 15.7166 15.5867C13.448 14.2856 11.2665 13.033 9.0252 11.7481V19.4253Z" fill="#52C1FF"/>
<path d="M36.6992 9.17842C36.6992 11.284 34.991 13.0171 32.8802 13.0386C30.7531 13.0656 28.996 11.3164 29.0014 9.18382C29.0068 7.07284 30.7314 5.35598 32.8421 5.35059C34.942 5.35059 36.6883 7.08364 36.6938 9.17302L36.6992 9.17842ZM35.4044 9.18382C35.4044 7.7801 34.2675 6.64633 32.8639 6.63553C31.444 6.62473 30.2635 7.7963 30.269 9.21081C30.2798 10.6037 31.4277 11.7537 32.8258 11.7645C34.2511 11.7753 35.4044 10.6199 35.4044 9.18922V9.18382Z" fill="#52C1FF"/>
<path d="M41.3233 41.755C42.4059 40.8426 43.5211 40.7184 44.5384 41.3825C45.5231 42.0196 45.942 43.1588 45.5068 44.4221C45.2511 45.1564 44.8812 45.896 44.4079 46.5061C43.6408 47.4887 42.7432 48.3741 41.8945 49.2919C41.579 49.6375 41.1873 49.7346 40.8555 49.3621C39.8001 48.1797 38.7284 47.0028 37.7491 45.7556C37.2051 45.0646 36.9386 44.1953 37.0038 43.2991C37.08 42.2949 37.5968 41.5445 38.5597 41.1611C39.5933 40.7508 40.5127 40.9776 41.3233 41.755ZM41.2526 48.1366C42.3841 46.9596 43.4504 45.95 44.0978 44.6003C44.2501 44.2871 44.3372 43.9254 44.3752 43.5745C44.4405 42.9752 44.0815 42.4785 43.5157 42.3057C42.9445 42.133 42.4984 42.3219 42.1774 42.8132C42.0795 42.9644 42.0033 43.1264 41.9 43.2721C41.579 43.731 41.1003 43.7364 40.7793 43.2883C40.6759 43.1426 40.5998 42.9806 40.5019 42.8294C40.1374 42.2949 39.6695 42.1276 39.1146 42.3219C38.538 42.5271 38.1735 43.0724 38.2986 43.677C38.3911 44.1144 38.5053 44.5949 38.761 44.9458C39.5389 46.0148 40.3876 47.0352 41.258 48.1366H41.2526Z" fill="#52C1FF"/>
</g>
<defs>
<clipPath id="clip0_159_1273">
<rect width="55.1739" height="54" fill="white"/>
</clipPath>
</defs>
</svg>
