<svg width="49" height="49" viewBox="0 0 49 49" fill="none" xmlns="http://www.w3.org/2000/svg">
<g clip-path="url(#clip0_159_1295)">
<path d="M0 20.0903C0 18.2417 0 16.3931 0 14.5444C0.305922 13.8189 0.528808 13.041 0.935248 12.3767C2.94559 9.07278 5.00838 5.79941 7.04932 2.50856C7.63931 1.5602 8.42597 0.839101 9.45737 0.40644C9.85944 0.235997 10.2965 0.13111 10.716 0C19.9024 0 29.0845 0 38.2709 0C38.3102 0.0262219 38.3452 0.0655548 38.3889 0.0742954C39.984 0.345255 41.1509 1.22806 41.99 2.58286C44.0047 5.83 46.0238 9.07278 48.0385 12.3199C48.6373 13.2814 49.0087 14.3128 48.9869 15.4709C48.9607 16.7602 48.9781 18.0538 48.9825 19.343C48.9869 20.5143 48.6373 21.5675 47.9074 22.4853C47.6234 22.8393 47.2912 23.1539 46.9634 23.5036C48.5105 24.7316 49.083 26.3486 48.9913 28.276C48.9388 29.4035 49.035 30.5441 48.9607 31.6673C48.9126 32.3666 48.7859 33.1095 48.4843 33.7301C48.1259 34.4731 47.5491 35.1068 47.0421 35.8235C47.0159 35.806 47.0814 35.8497 47.1426 35.9022C48.3882 36.9729 49.0044 38.3277 48.9869 39.9753C48.9738 41.2995 48.9913 42.6193 48.9825 43.9435C48.965 46.6925 46.7012 48.9738 43.9567 48.9781C30.9812 48.9869 18.0057 48.9825 5.03024 48.9781C3.49188 48.9781 2.24634 48.327 1.22369 47.1819C0.55503 46.4303 0.235997 45.53 0 44.5816C0 42.733 0 40.8843 0 39.0357C0.0305922 38.9701 0.083036 38.9046 0.096147 38.8346C0.2797 37.8775 0.721102 37.0472 1.38539 36.3392C1.58643 36.125 1.77435 35.8978 1.96227 35.6836C1.69131 35.3996 1.38539 35.098 1.10569 34.779C0.493846 34.071 0.231627 33.21 0 32.336C0 30.4873 0 28.6387 0 26.79C0.0305922 26.7245 0.083036 26.6589 0.096147 26.589C0.2797 25.6319 0.721102 24.8016 1.38539 24.0936C1.58643 23.8794 1.77435 23.6522 1.96227 23.438C1.69131 23.1539 1.38539 22.8524 1.10569 22.5334C0.493846 21.8254 0.231627 20.9644 0 20.0903ZM24.5437 12.2456C22.7125 12.2456 20.877 12.2456 19.0458 12.2456C14.4876 12.2456 9.92936 12.2587 5.36675 12.2413C3.39574 12.2325 2.0759 13.6223 2.06716 15.2786C2.05842 16.6815 2.06716 18.0844 2.0759 19.4872C2.0759 20.1297 2.29005 20.7022 2.67463 21.2135C3.39137 22.1706 4.3878 22.446 5.53282 22.446C18.1762 22.4372 30.8151 22.4459 43.4584 22.4416C43.76 22.4416 44.0659 22.4241 44.3631 22.3935C45.578 22.2668 46.8192 21.0868 46.876 19.8762C46.9459 18.316 46.911 16.7558 46.9154 15.1912C46.9154 14.9858 46.8891 14.776 46.8367 14.5794C46.4477 13.1066 45.2721 12.25 43.6332 12.25C37.2744 12.25 30.9113 12.25 24.5524 12.25L24.5437 12.2456ZM24.5219 24.4913C21.0474 24.4913 17.573 24.4913 14.0943 24.4913C11.1749 24.4913 8.2599 24.5044 5.34053 24.4913C3.33892 24.4781 2.06716 25.9335 2.06279 27.5024C2.06279 28.9228 2.01035 30.3431 2.09338 31.7547C2.12834 32.3272 2.35997 32.9391 2.67026 33.4286C3.32581 34.4512 4.38343 34.6959 5.54593 34.6959C18.1718 34.6872 30.7976 34.6916 43.4235 34.6916C43.677 34.6916 43.9348 34.6741 44.1883 34.6522C45.6086 34.5386 46.8192 33.3717 46.8804 31.9558C46.9416 30.5092 46.9197 29.0582 46.9197 27.6073C46.9197 27.3407 46.8848 27.0654 46.8148 26.8075C46.4171 25.3347 45.2503 24.5 43.5983 24.4956C37.2395 24.4956 30.8763 24.4956 24.5175 24.4956L24.5219 24.4913ZM24.5437 36.7369C19.6184 36.7369 14.693 36.7369 9.76766 36.7369C8.26864 36.7369 6.76962 36.7369 5.2706 36.7369C3.269 36.7369 2.06716 38.2446 2.06716 39.7218C2.06716 41.1422 2.06716 42.5582 2.06716 43.9785C2.06716 44.6209 2.28131 45.1935 2.66589 45.7048C3.38263 46.6619 4.37906 46.9416 5.51971 46.9372C18.163 46.9285 30.802 46.9372 43.4453 46.9328C43.7469 46.9328 44.0528 46.9154 44.35 46.8848C45.5649 46.758 46.8061 45.5824 46.8629 44.3675C46.9328 42.8073 46.8979 41.2471 46.9022 39.6825C46.9022 39.4771 46.876 39.2673 46.8236 39.0706C46.4346 37.5978 45.259 36.7413 43.6201 36.7413C37.2613 36.7413 30.8981 36.7413 24.5393 36.7413L24.5437 36.7369ZM44.3063 10.2091C42.934 7.99768 41.5879 5.85623 40.2681 3.70166C39.582 2.58286 38.6118 2.04094 37.3007 2.04094C28.7698 2.04531 20.2433 2.04968 11.7125 2.04094C10.3795 2.04094 9.40492 2.58723 8.71004 3.72788C7.47761 5.75571 6.21022 7.76168 4.96031 9.7764C4.87727 9.90751 4.80298 10.0386 4.70246 10.2091H44.3063Z" fill="#F83636"/>
<path d="M33.6252 16.3449C31.0599 16.3449 28.4945 16.3449 25.9291 16.3449C25.7849 16.3449 25.6407 16.3536 25.5008 16.3362C24.8846 16.2575 24.5 15.8598 24.4956 15.3179C24.4913 14.7585 24.8977 14.3433 25.5314 14.2777C25.6581 14.2646 25.7849 14.2734 25.9116 14.2734C31.0905 14.2734 36.2649 14.2734 41.4437 14.2734C41.6972 14.2734 41.9594 14.2865 42.1954 14.3695C42.6281 14.5225 42.8597 14.8634 42.851 15.3222C42.8422 15.7811 42.6106 16.1133 42.1692 16.2531C41.9463 16.323 41.7016 16.3405 41.4656 16.3405C38.8521 16.3449 36.2387 16.3405 33.6296 16.3405L33.6252 16.3449Z" fill="#F83636"/>
<path d="M33.6646 18.3733C36.313 18.3733 38.957 18.3689 41.6054 18.382C41.8633 18.382 42.1517 18.4345 42.379 18.5525C42.7636 18.7622 42.9209 19.1381 42.8335 19.5708C42.7461 20.0122 42.4751 20.3093 42.0075 20.3793C41.8196 20.4055 41.6273 20.4142 41.435 20.4142C36.2693 20.4142 31.1036 20.4142 25.9378 20.4142C25.7456 20.4142 25.5533 20.4055 25.3653 20.3793C24.8584 20.305 24.5 19.8985 24.4956 19.4003C24.4913 18.889 24.8715 18.4476 25.3916 18.382C25.5489 18.3602 25.7106 18.3689 25.8679 18.3689C28.4683 18.3689 31.0642 18.3689 33.6646 18.3689V18.3733Z" fill="#F83636"/>
<path d="M7.10175 20.4009C5.39733 20.3703 4.04253 18.9762 4.08623 17.2936C4.12994 15.611 5.51096 14.2518 7.15857 14.2737C8.8324 14.2955 10.244 15.7246 10.2178 17.3766C10.1872 19.0636 8.78432 20.4315 7.10175 20.4009ZM7.15857 16.354C6.61665 16.3452 6.14465 16.7954 6.13154 17.3329C6.11843 17.8442 6.60354 18.3468 7.1236 18.3599C7.65241 18.3731 8.12878 17.9054 8.13752 17.3635C8.14626 16.8129 7.70923 16.3583 7.15857 16.3496V16.354Z" fill="#F83636"/>
<path d="M33.6733 26.5149C36.2518 26.5149 38.8346 26.5149 41.4175 26.5149C41.5617 26.5149 41.7059 26.5061 41.8458 26.5236C42.4576 26.5979 42.8466 26.9956 42.8553 27.5375C42.8641 28.0795 42.4838 28.4903 41.8764 28.5777C41.7365 28.5995 41.5923 28.5908 41.4481 28.5908C36.2693 28.5908 31.0948 28.5908 25.916 28.5908C25.68 28.5908 25.4352 28.5689 25.2124 28.5077C24.7753 28.3897 24.4956 27.992 24.5 27.5463C24.5044 27.1005 24.7841 26.7203 25.2298 26.5979C25.4396 26.5411 25.6669 26.5193 25.8898 26.5193C28.4857 26.5149 31.0817 26.5193 33.6777 26.5193L33.6733 26.5149Z" fill="#F83636"/>
<path d="M33.6383 32.6598C31.0861 32.6598 28.5382 32.6598 25.9859 32.6598C25.7805 32.6598 25.5707 32.6554 25.3653 32.6248C24.8584 32.5505 24.5 32.1441 24.4956 31.6459C24.4913 31.1346 24.8715 30.6975 25.3916 30.6276C25.5008 30.6145 25.6144 30.6189 25.7237 30.6189C31.0162 30.6189 36.3086 30.6189 41.6054 30.6189C41.7497 30.6189 41.8939 30.6189 42.0337 30.6407C42.5232 30.7325 42.8728 31.1826 42.8553 31.6721C42.8379 32.1485 42.4882 32.5462 42.0075 32.6205C41.8021 32.6511 41.5967 32.6598 41.3869 32.6598C38.8041 32.6598 36.2212 32.6598 33.6383 32.6598Z" fill="#F83636"/>
<path d="M7.14985 32.646C5.45416 32.6547 4.08188 31.2781 4.08625 29.5868C4.09062 27.9042 5.49787 26.497 7.16296 26.5188C8.81931 26.5407 10.1916 27.9086 10.2178 29.5737C10.244 31.23 8.84116 32.6416 7.14985 32.646ZM7.12362 28.5947C6.5817 28.6034 6.11408 29.0842 6.13156 29.6086C6.14467 30.1287 6.64726 30.6138 7.15859 30.6007C7.70051 30.5876 8.14628 30.1156 8.13754 29.5737C8.1288 29.023 7.67428 28.586 7.12362 28.5947Z" fill="#F83636"/>
<path d="M33.7039 38.7607C36.2387 38.7607 38.7691 38.7607 41.3039 38.7607C41.4175 38.7607 41.5268 38.7607 41.6404 38.7607C42.3921 38.7782 42.8685 39.189 42.8597 39.814C42.851 40.4171 42.3877 40.8323 41.6579 40.8323C36.3392 40.8366 31.0162 40.8366 25.6975 40.8323C24.972 40.8323 24.5088 40.4083 24.5044 39.8052C24.5044 39.1803 24.972 38.7607 25.7325 38.7607C28.394 38.7564 31.0511 38.7607 33.7127 38.7607H33.7039Z" fill="#F83636"/>
<path d="M33.6777 42.8643C36.3392 42.8643 39.0051 42.8643 41.6666 42.8643C42.0949 42.8643 42.4533 42.9691 42.6936 43.345C43.0782 43.9437 42.7461 44.7435 42.0468 44.8659C41.8283 44.9052 41.6011 44.9096 41.3825 44.9096C36.2474 44.9096 31.1123 44.9096 25.9815 44.9096C25.7761 44.9096 25.5664 44.9052 25.361 44.8746C24.8584 44.8003 24.5 44.3808 24.5 43.8869C24.5 43.3974 24.8671 42.9604 25.3566 42.8861C25.5139 42.8599 25.6756 42.8686 25.8329 42.8686C28.4464 42.8686 31.0642 42.8686 33.6777 42.8686V42.8643Z" fill="#F83636"/>
<path d="M7.11926 44.8967C5.41921 44.8792 4.05567 43.4895 4.08626 41.8069C4.11685 40.1287 5.48913 38.7652 7.14111 38.7695C8.80183 38.7695 10.2266 40.1986 10.2178 41.855C10.2091 43.5288 8.80183 44.9142 7.11926 44.8967ZM7.13674 42.8558C7.66992 42.8602 8.13754 42.3925 8.14191 41.8506C8.14191 41.3 7.70051 40.8498 7.14985 40.8498C6.60793 40.8498 6.13594 41.3087 6.13157 41.8419C6.13157 42.3576 6.62104 42.8514 7.13674 42.8602V42.8558Z" fill="#F83636"/>
</g>
<defs>
<clipPath id="clip0_159_1295">
<rect width="49" height="48.9825" fill="white"/>
</clipPath>
</defs>
</svg>
