<svg width="231" height="33" viewBox="0 0 231 33" fill="none" xmlns="http://www.w3.org/2000/svg">
<path d="M115.25 12.9102C113.33 12.9102 111.77 14.4702 111.77 16.3902C111.77 18.3102 113.33 19.8702 115.25 19.8702C117.17 19.8702 118.73 18.3102 118.73 16.3902C118.73 14.4702 117.17 12.9102 115.25 12.9102Z" fill="white"/>
<path d="M123.39 10.2398C123.2 9.74984 122.97 9.40984 122.61 9.03984C122.25 8.66984 121.9 8.44984 121.41 8.25984C121.04 8.11984 120.49 7.94984 119.47 7.89984C118.37 7.84984 118.04 7.83984 115.25 7.83984C112.46 7.83984 112.13 7.84984 111.03 7.89984C110.01 7.94984 109.46 8.11984 109.09 8.25984C108.6 8.44984 108.26 8.67984 107.89 9.03984C107.53 9.40984 107.3 9.74984 107.11 10.2398C106.97 10.6098 106.8 11.1598 106.75 12.1798C106.7 13.2798 106.69 13.6098 106.69 16.3998C106.69 19.1898 106.7 19.5198 106.75 20.6198C106.8 21.6398 106.97 22.1898 107.11 22.5598C107.3 23.0498 107.53 23.3898 107.89 23.7598C108.26 24.1198 108.6 24.3498 109.09 24.5398C109.46 24.6798 110.01 24.8498 111.03 24.8998C112.13 24.9498 112.46 24.9598 115.25 24.9598C118.04 24.9598 118.37 24.9498 119.47 24.8998C120.49 24.8498 121.04 24.6798 121.41 24.5398C121.9 24.3498 122.24 24.1198 122.61 23.7598C122.98 23.3898 123.2 23.0498 123.39 22.5598C123.53 22.1898 123.7 21.6398 123.75 20.6198C123.8 19.5198 123.81 19.1898 123.81 16.3998C123.81 13.6098 123.8 13.2798 123.75 12.1798C123.7 11.1598 123.53 10.6098 123.39 10.2398ZM115.26 21.7498C112.3 21.7498 109.9 19.3498 109.9 16.3898C109.9 13.4298 112.3 11.0298 115.26 11.0298C118.22 11.0298 120.62 13.4298 120.62 16.3898C120.62 19.3498 118.22 21.7498 115.26 21.7498ZM120.83 12.0698C120.14 12.0698 119.58 11.5098 119.58 10.8198C119.58 10.1298 120.14 9.56984 120.83 9.56984C121.52 9.56984 122.08 10.1298 122.08 10.8198C122.08 11.5098 121.52 12.0698 120.83 12.0698Z" fill="white"/>
<path d="M123.48 0H107.3C102.72 0 99 3.72 99 8.3V24.48C99 29.06 102.72 32.78 107.3 32.78H123.48C128.06 32.78 131.78 29.06 131.78 24.48V8.3C131.78 3.72 128.06 0 123.48 0ZM125.63 20.69C125.58 21.8 125.4 22.56 125.14 23.22C124.87 23.91 124.52 24.49 123.94 25.07C123.36 25.65 122.78 26.01 122.09 26.27C121.43 26.53 120.67 26.7 119.56 26.75C118.45 26.8 118.09 26.81 115.26 26.81C112.43 26.81 112.07 26.8 110.96 26.75C109.85 26.7 109.09 26.52 108.43 26.27C107.74 26 107.16 25.65 106.58 25.07C106 24.49 105.64 23.91 105.38 23.22C105.12 22.56 104.95 21.8 104.9 20.69C104.85 19.58 104.84 19.22 104.84 16.39C104.84 13.56 104.85 13.2 104.9 12.09C104.95 10.98 105.13 10.22 105.38 9.56C105.65 8.87 106 8.29 106.58 7.71C107.16 7.13 107.74 6.77 108.43 6.51C109.09 6.25 109.85 6.08 110.96 6.02C112.07 5.97 112.43 5.96 115.26 5.96C118.09 5.96 118.45 5.97 119.56 6.02C120.67 6.07 121.43 6.25 122.09 6.51C122.78 6.78 123.36 7.13 123.94 7.71C124.52 8.29 124.88 8.87 125.14 9.56C125.4 10.22 125.57 10.98 125.63 12.09C125.68 13.2 125.69 13.56 125.69 16.39C125.69 19.22 125.68 19.58 125.63 20.69Z" fill="white"/>
<path d="M173.48 0H157.3C152.72 0 149 3.72 149 8.3V24.48C149 29.06 152.72 32.78 157.3 32.78H173.48C178.06 32.78 181.78 29.06 181.78 24.48V8.3C181.78 3.72 178.06 0 173.48 0ZM175.64 21.57C175.39 22.5 174.67 23.23 173.75 23.47C172.08 23.92 165.39 23.92 165.39 23.92C165.39 23.92 158.7 23.92 157.03 23.47C156.11 23.22 155.38 22.49 155.14 21.57C154.69 19.89 154.69 16.39 154.69 16.39C154.69 16.39 154.69 12.89 155.14 11.21C155.39 10.28 156.11 9.55 157.03 9.31C158.7 8.86 165.39 8.86 165.39 8.86C165.39 8.86 172.08 8.86 173.75 9.31C174.67 9.56 175.4 10.29 175.64 11.21C176.09 12.89 176.09 16.39 176.09 16.39C176.09 16.39 176.09 19.89 175.64 21.57Z" fill="white"/>
<path d="M163.2 19.36V13L168.79 16.18L163.2 19.36Z" fill="white"/>
<path d="M24.48 0H8.3C3.72 0 0 3.72 0 8.3V24.48C0 29.06 3.72 32.78 8.3 32.78H24.48C29.06 32.78 32.78 29.06 32.78 24.48V8.3C32.78 3.72 29.06 0 24.48 0ZM23.48 12.25C23.74 18.1 19.38 24.63 11.65 24.63C9.3 24.63 7.11 23.94 5.27 22.76C7.48 23.02 9.68 22.41 11.43 21.04C9.61 21.01 8.07 19.8 7.54 18.15C8.19 18.27 8.83 18.24 9.42 18.08C7.42 17.68 6.04 15.88 6.08 13.95C6.64 14.26 7.28 14.45 7.97 14.47C6.12 13.23 5.59 10.79 6.68 8.91C8.73 11.43 11.8 13.08 15.26 13.26C14.65 10.66 16.63 8.15 19.31 8.15C20.51 8.15 21.59 8.65 22.35 9.46C23.3 9.27 24.19 8.93 24.99 8.45C24.68 9.42 24.02 10.24 23.16 10.75C24 10.65 24.8 10.43 25.55 10.1C24.99 10.94 24.29 11.67 23.47 12.25H23.48Z" fill="white"/>
<path d="M74.0601 0H57.8801C53.3001 0 49.5801 3.72 49.5801 8.3V24.48C49.5801 29.06 53.3001 32.78 57.8801 32.78H74.0601C78.6401 32.78 82.3601 29.06 82.3601 24.48V8.3C82.3601 3.72 78.6401 0 74.0601 0ZM71.2801 8.92H68.7701C67.8801 8.92 67.7001 9.28 67.7001 10.2V12.41H71.2801L70.9401 16.29H67.7101V27.89H63.0801V16.34H60.6701V12.41H63.0801V9.31C63.0801 6.4 64.6301 4.89 68.0801 4.89H71.2901V8.92H71.2801Z" fill="white"/>
<path d="M222.48 0H206.3C201.71 0 198 3.72 198 8.3V24.48C198 29.06 201.71 32.78 206.3 32.78H222.48C227.06 32.78 230.78 29.06 230.78 24.48V8.3C230.78 3.72 227.06 0 222.48 0ZM208.81 26.58H204.61V12.99H208.82V26.58H208.81ZM206.69 11.21C205.32 11.21 204.2 10.09 204.2 8.7C204.2 7.31 205.31 6.19 206.69 6.19C208.07 6.19 209.18 7.31 209.18 8.7C209.18 10.09 208.07 11.21 206.69 11.21ZM224.57 26.58H220.38V19.45C220.38 17.49 219.64 16.4 218.09 16.4C216.41 16.4 215.53 17.54 215.53 19.45V26.58H211.5V12.99H215.53V14.82C215.53 14.82 216.74 12.58 219.62 12.58C222.5 12.58 224.56 14.34 224.56 17.98V26.58H224.57Z" fill="white"/>
</svg>
