<svg width="56" height="54" viewBox="0 0 56 54" fill="none" xmlns="http://www.w3.org/2000/svg">
<g clip-path="url(#clip0_436_4205)">
<path d="M6.59345 43.3479C6.59345 43.5638 6.59345 43.7744 6.59345 43.9904C6.59345 46.5117 6.59345 49.0276 6.59345 51.5489C6.59345 52.9418 5.60335 53.9784 4.27595 54C2.94312 54.0162 1.92037 52.9526 1.92037 51.5326C1.92037 48.8548 1.92037 46.1769 1.91493 43.4991C1.91493 43.4613 1.89861 43.4235 1.87685 43.3317C1.78437 43.3209 1.67556 43.3101 1.56132 43.2993C0.620175 43.1967 0.02176 42.5812 0.0163199 41.6472C0.00543962 39.2447 -5.1735e-07 36.8476 0.0163199 34.4451C0.02176 33.4733 0.658257 32.8362 1.63204 32.8254C3.38921 32.8092 5.15181 32.8254 6.90898 32.8254C7.55092 32.8254 8.04597 33.1007 8.3071 33.673C8.45398 33.9862 8.6335 34.0509 8.94359 34.0402C11.2393 33.9754 13.3447 33.2573 15.2705 32.0803C16.5217 31.3137 17.6478 30.3527 18.8338 29.4835C19.2037 29.2135 19.3506 28.8842 19.3234 28.4199C19.2907 27.7828 19.492 27.6046 20.1231 27.5992C21.222 27.5938 22.3209 27.61 23.4198 27.5938C23.9693 27.5884 24.2249 27.826 24.2249 28.3767C24.2249 34.823 24.2249 41.2747 24.2249 47.721C24.2249 48.3149 24.0019 48.5363 23.3817 48.5417C22.3209 48.5525 21.2655 48.5471 20.2047 48.5417C19.5138 48.5417 19.2907 48.3365 19.3234 47.6616C19.3451 47.2189 19.1874 46.9328 18.861 46.6412C16.5543 44.5842 13.9975 42.9808 10.9292 42.3113C10.5212 42.2249 10.1078 42.1601 9.68889 42.1169C9.05239 42.0468 8.45942 41.928 8.05141 42.7324C7.861 43.1049 7.17555 43.2291 6.71857 43.4667L6.59889 43.3425L6.59345 43.3479ZM19.2853 30.8332C16.1137 33.4679 12.6864 35.2765 8.53558 35.3575V40.7834C10.5702 40.7726 12.5069 41.1721 14.2749 42.0791C16.0103 42.97 17.6424 44.0551 19.2853 45.0378V30.8332ZM7.19731 38.0731C7.19731 36.9232 7.18643 35.7732 7.20275 34.6232C7.20819 34.2345 7.0613 34.0887 6.68049 34.0941C5.05933 34.0995 3.44361 34.0995 1.82245 34.0941C1.44164 34.0941 1.29475 34.2345 1.29475 34.6232C1.30563 36.907 1.30563 39.1853 1.29475 41.4691C1.29475 41.8794 1.4362 42.0306 1.84965 42.0252C3.44905 42.009 5.04845 42.009 6.64785 42.0252C7.06674 42.0252 7.20819 41.8848 7.20275 41.4691C7.18099 40.3407 7.19731 39.2069 7.19731 38.0785V38.0731ZM20.6236 47.2135H22.8812V28.9112H20.6236V47.2135ZM3.22056 43.3371C3.22056 46.1931 3.20968 49.0168 3.24232 51.8404C3.24232 52.0887 3.51977 52.4235 3.75914 52.5692C4.48268 53.0228 5.29326 52.4613 5.2987 51.5165C5.30958 48.9412 5.2987 46.3713 5.2987 43.796C5.2987 43.6448 5.2715 43.4937 5.25518 43.3371H3.21512H3.22056Z" fill="#52C1FF"/>
<path d="M44.3317 32.82C44.2991 32.2153 44.5112 31.6052 43.7387 31.5026C43.5375 31.4757 43.2763 31.5026 43.1294 31.6214C42.7867 31.8914 42.5038 32.2315 42.1829 32.5338C41.8347 32.8632 41.4756 32.8632 41.1329 32.5176C40.5073 31.9022 39.8871 31.2867 39.2669 30.6658C38.9242 30.3257 38.9133 29.9748 39.2669 29.6292C39.5063 29.3917 39.7239 29.1217 39.9905 28.922C40.4203 28.6034 40.5127 28.2417 40.1863 27.826C40.0666 27.6694 39.849 27.5236 39.6641 27.502C39.2506 27.4535 38.8263 27.4805 38.4074 27.4859C37.9178 27.4912 37.6512 27.2753 37.6512 26.7786C37.6512 25.8878 37.6512 24.9915 37.6512 24.1007C37.6512 23.6364 37.8906 23.4097 38.353 23.4043C38.712 23.4043 39.0765 23.3665 39.4301 23.4043C39.9034 23.4583 40.1482 23.2909 40.3114 22.8374C40.4257 22.5188 40.3931 22.3353 40.1482 22.1247C39.849 21.8656 39.5825 21.5632 39.2941 21.2879C38.9242 20.9316 38.9024 20.5806 39.2778 20.2081C39.9034 19.5926 40.5236 18.9772 41.1438 18.3563C41.492 18.0107 41.8401 18.0107 42.1883 18.3509C42.5038 18.6532 42.7922 18.9933 43.1349 19.2633C43.2818 19.3767 43.5483 19.4253 43.7333 19.3767C44.0216 19.3065 44.3698 19.2471 44.3372 18.7828C44.3045 18.3509 44.3263 17.9082 44.3372 17.4763C44.348 17.0011 44.582 16.742 45.0825 16.7474C45.9638 16.7528 46.8396 16.7474 47.7209 16.7474C48.2486 16.7474 48.4825 17.0173 48.4662 17.5302C48.4553 17.8488 48.5043 18.1727 48.4553 18.4805C48.3737 19.0149 48.5913 19.3173 49.1027 19.3875C49.2822 19.4145 49.527 19.3875 49.6576 19.2849C49.9949 19.0095 50.2941 18.6856 50.5988 18.3725C50.9415 18.0215 51.2897 17.9945 51.6433 18.3401C52.2852 18.9664 52.9217 19.5926 53.5528 20.2351C53.8683 20.559 53.8628 20.91 53.5582 21.2393C53.3134 21.5038 53.0631 21.763 52.7966 21.9951C52.4865 22.2651 52.3396 22.5026 52.5354 22.9562C52.7259 23.3989 53.0033 23.4043 53.3787 23.3989C55.2392 23.3773 55.2011 23.2909 55.1794 25.1697C55.1739 25.688 55.1794 26.2009 55.1794 26.7192C55.1794 27.2267 54.9291 27.4912 54.4069 27.4859C54.0696 27.4859 53.7268 27.4912 53.3895 27.4859C53.0251 27.4751 52.7258 27.4589 52.5463 27.9178C52.3722 28.3551 52.481 28.5872 52.7911 28.8842C54.1348 30.1583 54.1457 30.1097 52.8129 31.4055C52.443 31.7672 52.0785 32.1343 51.7085 32.5014C51.3223 32.8848 50.9469 32.874 50.5716 32.4852C50.3485 32.2531 50.1037 32.0533 49.897 31.805C49.6087 31.4595 49.3421 31.3731 48.8797 31.5512C48.3901 31.7402 48.4825 32.0641 48.4771 32.4043C48.4771 32.7606 48.4825 33.1169 48.4771 33.4733C48.4662 33.9052 48.2214 34.1373 47.7971 34.1427C46.8777 34.1535 45.9583 34.1535 45.0389 34.1427C44.6037 34.1427 44.3807 33.889 44.3535 33.4733C44.3372 33.2141 44.3535 32.9604 44.3535 32.8254L44.3317 32.82ZM40.5182 20.7804C40.8935 21.1313 41.2417 21.4553 41.5953 21.7792C41.9272 22.0815 41.938 22.4055 41.7476 22.7942C41.5518 23.1829 41.3777 23.5824 41.2472 23.9981C41.1003 24.4679 40.8228 24.6838 40.3278 24.6622C39.8762 24.6406 39.4247 24.6622 38.9514 24.6622V26.2171C39.4628 26.2171 39.9361 26.2171 40.4148 26.2171C40.8283 26.2171 41.0731 26.4169 41.2145 26.8002C41.3723 27.2429 41.5518 27.6856 41.7585 28.1121C41.9489 28.5062 41.9163 28.8356 41.5844 29.1271C41.2254 29.4403 40.8663 29.7588 40.578 30.0125C40.986 30.4715 41.3124 30.844 41.7259 31.3083C42.0795 30.9142 42.3896 30.5578 42.716 30.2069C43.0152 29.883 43.3416 29.8506 43.7387 30.0611C44.125 30.2663 44.5276 30.4499 44.9465 30.5686C45.4415 30.7036 45.6265 30.9844 45.6101 31.4757C45.5884 31.9238 45.6101 32.3719 45.6101 32.8146H47.0844C47.1823 32.1181 47.0681 31.3353 47.4108 30.8818C47.7536 30.4283 48.5315 30.2717 49.1408 30.0395C50.256 29.6184 50.3975 30.9358 51.17 31.1571C51.4964 30.8332 51.8445 30.493 52.2689 30.0773C51.8881 29.7264 51.5236 29.3917 51.1645 29.0515C50.8816 28.787 50.8544 28.49 51.0285 28.1391C51.2407 27.7126 51.442 27.2807 51.5834 26.8326C51.7194 26.4061 51.9805 26.2117 52.4103 26.2117C52.8836 26.2117 53.3569 26.2117 53.852 26.2117V24.6568C53.3297 24.6568 52.8238 24.7216 52.3505 24.6298C52.0785 24.5812 51.7684 24.3329 51.6161 24.0845C51.3713 23.685 51.2679 23.2045 51.0448 22.7834C50.8327 22.3839 50.8816 22.0653 51.208 21.7738C51.5617 21.4553 51.9262 21.1475 52.2689 20.8452C51.8282 20.3971 51.4855 20.0515 51.1101 19.6682C50.3703 20.3377 49.7664 21.52 48.4825 20.5266C46.8287 20.3701 47.215 19.0797 47.1606 18.0485H45.6047C45.6047 18.5506 45.5938 19.0203 45.6047 19.49C45.621 19.9112 45.4252 20.1487 45.0389 20.2891C44.5928 20.4511 44.1413 20.6184 43.717 20.8236C43.3144 21.0179 42.9934 20.9694 42.6942 20.6508C42.3733 20.3053 42.0414 19.9706 41.7096 19.6196C41.2852 20.0299 40.9316 20.3755 40.5236 20.7696L40.5182 20.7804Z" fill="#52C1FF"/>
<path d="M0.930265 15.5598C0.952025 9.65338 5.78831 4.88073 11.7017 4.92932C17.6478 4.97791 22.4406 9.77215 22.4134 15.6462C22.3862 21.4716 17.5173 26.2767 11.6473 26.2659C5.72303 26.2551 0.908504 21.4446 0.930265 15.5652V15.5598ZM2.19782 15.5814C2.19782 20.7374 6.44657 24.9755 11.6365 24.9809C16.8372 24.9809 21.1077 20.7698 21.1132 15.6192C21.1186 10.42 16.8699 6.18187 11.6473 6.18727C6.45201 6.18727 2.19782 10.42 2.19782 15.5814Z" fill="#52C1FF"/>
<path d="M23.6102 9.16725C23.6265 4.09227 27.7991 -0.0271068 32.8965 -0.000112221C38.0211 0.0268824 42.1176 4.17865 42.1013 9.31842C42.0795 14.2854 37.8797 18.4102 32.8367 18.3994C27.7393 18.3886 23.5939 14.2422 23.6102 9.16725ZM24.8832 9.21045C24.8941 13.5674 28.4737 17.1199 32.853 17.1199C37.265 17.1199 40.8228 13.5566 40.8119 9.15646C40.8011 4.79413 37.2269 1.27403 32.8258 1.27943C28.4519 1.29023 24.8723 4.86431 24.8832 9.21045Z" fill="#52C1FF"/>
<path d="M50.12 45.2968C50.1091 50.0641 46.127 54.0053 41.3233 54.0053C36.5142 54.0053 32.5484 50.0641 32.5375 45.2914C32.5266 40.5026 36.536 36.5344 41.3614 36.556C46.1705 36.5776 50.1255 40.5242 50.12 45.3022V45.2968ZM48.8253 45.2968C48.8253 41.1937 45.4633 37.8355 41.3396 37.8301C37.2214 37.8301 33.8159 41.1991 33.8214 45.2807C33.8268 49.3352 37.216 52.7096 41.2907 52.7204C45.4143 52.7312 48.8198 49.3784 48.8253 45.2968Z" fill="#52C1FF"/>
<path d="M31.0741 33.5381C32.1676 33.5381 33.2665 33.5489 34.3599 33.5381C34.8169 33.5381 35.1814 33.6568 35.1814 34.1643C35.1814 34.6772 34.7951 34.8068 34.3545 34.8068C32.1621 34.8068 29.9697 34.8068 27.7774 34.8068C27.3095 34.8068 26.9015 34.6664 26.9178 34.1265C26.9396 33.6298 27.3313 33.5273 27.7774 33.5327C28.8708 33.5489 29.9697 33.5327 31.0632 33.5327L31.0741 33.5381Z" fill="#52C1FF"/>
<path d="M31.0414 21.7253C32.1186 21.7253 33.2012 21.7253 34.2783 21.7253C34.7353 21.7253 35.1705 21.7793 35.1814 22.3408C35.1923 22.8968 34.7734 22.9886 34.311 22.9886C32.1349 22.9886 29.9534 22.9886 27.7774 22.9886C27.3258 22.9886 26.9341 22.8698 26.9233 22.3731C26.9178 21.8333 27.3313 21.7199 27.7991 21.7253C28.8763 21.7361 29.9589 21.7253 31.036 21.7253H31.0414Z" fill="#52C1FF"/>
<path d="M31.0034 26.9137C29.9262 26.9137 28.8436 26.9083 27.7665 26.9137C27.3149 26.9137 26.9287 26.7949 26.9233 26.2928C26.9233 25.7961 27.2877 25.6611 27.7502 25.6611C29.948 25.6719 32.1458 25.6665 34.3436 25.6611C34.7951 25.6611 35.176 25.7637 35.1814 26.2766C35.1868 26.7895 34.8169 26.9191 34.3599 26.9137C33.2393 26.9083 32.124 26.9137 31.0034 26.9137Z" fill="#52C1FF"/>
<path d="M31.0034 30.8603C29.9262 30.8603 28.8436 30.8603 27.7665 30.8603C27.3149 30.8603 26.9287 30.7307 26.9233 30.2286C26.9233 29.7319 27.2932 29.5916 27.7502 29.5916C29.948 29.597 32.1458 29.597 34.3491 29.5916C34.8006 29.5916 35.1814 29.6941 35.1868 30.2124C35.1923 30.7253 34.8169 30.8603 34.3654 30.8603C33.2447 30.8603 32.124 30.8603 31.0088 30.8603H31.0034Z" fill="#52C1FF"/>
<path d="M46.3772 28.7872C44.5276 28.7872 43.037 27.3079 43.0206 25.4668C43.0043 23.5988 44.5058 22.0979 46.3935 22.0979C48.2758 22.0979 49.7827 23.5826 49.7773 25.4506C49.7773 27.3133 48.2704 28.7926 46.3772 28.7872ZM48.4825 25.4344C48.4825 24.2791 47.5577 23.3558 46.4044 23.3504C45.262 23.3504 44.31 24.2791 44.2882 25.4128C44.2664 26.5628 45.2348 27.513 46.4153 27.5076C47.5904 27.5022 48.4825 26.606 48.4825 25.4344Z" fill="#52C1FF"/>
<path d="M7.71412 15.5759C7.71412 14.048 7.71412 12.5201 7.71412 10.9976C7.71412 10.0204 8.13845 9.77206 8.98711 10.258C11.6691 11.7859 14.3457 13.3192 17.0168 14.8578C17.8763 15.3491 17.8709 15.8189 17.0004 16.3156C14.3239 17.8542 11.6473 19.3875 8.97079 20.9208C8.14389 21.3905 7.71956 21.153 7.71412 20.219C7.70324 18.6749 7.71412 17.1254 7.71412 15.5813V15.5759ZM9.0252 19.4253C11.2774 18.135 13.448 16.8878 15.7166 15.5867C13.448 14.2856 11.2665 13.033 9.0252 11.7481V19.4253Z" fill="#52C1FF"/>
<path d="M36.6992 9.17818C36.6992 11.2838 34.991 13.0168 32.8802 13.0384C30.7531 13.0654 28.996 11.3161 29.0014 9.18358C29.0068 7.0726 30.7314 5.35574 32.8421 5.35034C34.942 5.35034 36.6883 7.0834 36.6938 9.17278L36.6992 9.17818ZM35.4044 9.18358C35.4044 7.77986 34.2675 6.64608 32.8639 6.63529C31.444 6.62449 30.2635 7.79605 30.2689 9.21057C30.2798 10.6035 31.4277 11.7535 32.8258 11.7643C34.2511 11.7751 35.4044 10.6197 35.4044 9.18897V9.18358Z" fill="#52C1FF"/>
<path d="M41.3233 41.7553C42.4059 40.8429 43.5211 40.7187 44.5384 41.3828C45.5231 42.0198 45.942 43.159 45.5068 44.4223C45.2511 45.1566 44.8812 45.8962 44.4079 46.5063C43.6408 47.4889 42.7432 48.3744 41.8945 49.2922C41.579 49.6377 41.1873 49.7349 40.8555 49.3624C39.8001 48.18 38.7284 47.003 37.7491 45.7559C37.2051 45.0648 36.9386 44.1956 37.0038 43.2994C37.08 42.2952 37.5968 41.5447 38.5597 41.1614C39.5933 40.7511 40.5127 40.9778 41.3233 41.7553ZM41.2526 48.1368C42.3841 46.9598 43.4504 45.9502 44.0978 44.6005C44.2501 44.2874 44.3372 43.9256 44.3752 43.5747C44.4405 42.9754 44.0815 42.4787 43.5157 42.306C42.9445 42.1332 42.4984 42.3222 42.1774 42.8135C42.0795 42.9646 42.0033 43.1266 41.9 43.2724C41.579 43.7313 41.1003 43.7367 40.7793 43.2886C40.6759 43.1428 40.5998 42.9808 40.5019 42.8297C40.1374 42.2952 39.6695 42.1278 39.1146 42.3222C38.538 42.5273 38.1735 43.0726 38.2986 43.6773C38.3911 44.1146 38.5053 44.5951 38.761 44.946C39.5389 46.015 40.3876 47.0354 41.258 48.1368H41.2526Z" fill="#52C1FF"/>
</g>
<defs>
<clipPath id="clip0_436_4205">
<rect width="55.1739" height="54" fill="white"/>
</clipPath>
</defs>
</svg>
