<svg width="14" height="17" viewBox="0 0 14 17" fill="none" xmlns="http://www.w3.org/2000/svg">
<path d="M12.2987 0C12.5837 0.119852 12.7698 0.314345 12.7604 0.656841C12.755 0.850907 12.6607 0.995924 12.5326 1.12815C11.4944 2.19743 10.4578 3.268 9.42076 4.33856C8.91131 4.86446 8.40228 5.39036 7.89284 5.91626C7.8533 5.95678 7.81253 5.99602 7.79111 6.01692C7.51312 5.72688 7.24131 5.44368 6.95508 5.14426C6.96084 5.13786 6.99338 5.10075 7.02756 5.06493C8.57608 3.45567 10.1238 1.84598 11.6748 0.239278C11.7658 0.145017 11.8848 0.0789062 11.9906 0C12.0936 0 12.1961 0 12.2991 0H12.2987Z" fill="#144973"/>
<path d="M7.09928 3.64229C6.8983 3.84531 6.69691 4.04791 6.49717 4.25221C6.33655 4.41685 6.18129 4.58746 6.01656 4.7474C5.97372 4.78877 5.90289 4.82417 5.84647 4.82247C4.66037 4.78238 3.82022 5.35349 3.39273 6.49997C3.0995 7.28647 2.93353 8.10625 2.8038 8.93497C2.75273 9.25998 2.70619 9.58627 2.6786 9.91384C2.65018 10.2499 2.85899 10.4794 3.18063 10.4419C4.37455 10.3028 5.55241 10.0917 6.67673 9.62039C7.71992 9.18278 8.15153 8.10028 8.10911 7.20117C8.1054 7.12482 8.14288 7.02416 8.19518 6.97C9.24702 5.87725 10.3026 4.78835 11.3618 3.70371C11.4195 3.64485 11.5179 3.60305 11.5994 3.59964C11.9071 3.58769 12.216 3.59196 12.524 3.5958C12.8877 3.60049 13.0685 3.79413 13.0685 4.17203C13.0685 6.52386 13.0685 8.87526 13.0685 11.2271C13.0685 11.5939 12.8823 11.7939 12.5314 11.7939C8.53454 11.7948 4.53764 11.7948 0.540745 11.7939C0.189446 11.7939 0.00123552 11.5939 0.000823678 11.2297C0 8.88337 0 6.53708 0 4.19037C0 3.78304 0.177914 3.59537 0.572868 3.59494C2.34542 3.59366 4.11757 3.59452 5.89012 3.59452C6.28507 3.59452 6.67962 3.59452 7.07457 3.59452C7.08281 3.6103 7.09104 3.62651 7.09969 3.64229H7.09928Z" fill="#144973"/>
<path d="M5.09027 15.3749C5.10839 15.1638 5.12816 14.9646 5.14257 14.7645C5.18705 14.1448 5.23317 13.5251 5.27024 12.9045C5.27765 12.7842 5.31801 12.7544 5.42797 12.7548C6.16228 12.759 6.89618 12.7603 7.63049 12.7539C7.76187 12.7527 7.78987 12.8017 7.7977 12.9275C7.84588 13.691 7.90313 14.4536 7.95831 15.2167C7.96161 15.2636 7.97355 15.3096 7.98467 15.3749C8.04274 15.3749 8.09751 15.3749 8.15229 15.3749C8.52212 15.3749 8.89154 15.3715 9.26137 15.3762C9.5686 15.38 9.77452 15.586 9.76876 15.8722C9.76299 16.152 9.55501 16.3452 9.25643 16.3452C7.43898 16.3452 5.62154 16.3457 3.80409 16.3452C3.50922 16.3452 3.30041 16.1452 3.29836 15.8654C3.2963 15.586 3.49974 15.3813 3.79709 15.3766C4.16651 15.3711 4.53634 15.3749 4.90617 15.3749C4.96218 15.3749 5.01778 15.3749 5.09027 15.3749Z" fill="#144973"/>
<path d="M3.66992 9.41851C3.8153 8.49254 3.98004 7.60538 4.28933 6.75148C4.58709 5.92873 5.39141 5.68561 5.97869 5.81655C6.68829 5.97436 7.21462 6.65808 7.17302 7.41813C7.14131 8.00417 6.89503 8.46524 6.35223 8.71604C5.77277 8.98389 5.15872 9.12635 4.54137 9.25601C4.26132 9.31487 3.9788 9.36179 3.66992 9.41894V9.41851Z" fill="#144973"/>
</svg>
