<svg width="138" height="138" viewBox="0 0 138 138" fill="none" xmlns="http://www.w3.org/2000/svg">
<path d="M131.254 38.0519C129.759 32.4251 125.356 27.9935 119.766 26.4896C109.633 23.7568 69 23.7568 69 23.7568C69 23.7568 28.3676 23.7568 18.2343 26.4896C12.6438 27.9938 8.24081 32.4251 6.74642 38.0519C4.03125 48.2509 4.03125 69.5302 4.03125 69.5302C4.03125 69.5302 4.03125 90.8095 6.74642 101.009C8.24081 106.635 12.6438 110.882 18.2343 112.386C28.3676 115.119 69 115.119 69 115.119C69 115.119 109.632 115.119 119.766 112.386C125.356 110.882 129.759 106.635 131.254 101.009C133.969 90.8095 133.969 69.5302 133.969 69.5302C133.969 69.5302 133.969 48.2509 131.254 38.0519ZM55.7108 88.8502V50.2102L89.6716 69.5307L55.7108 88.8502Z" fill="#FF0000"/>
</svg>
