<svg width="252" height="108" viewBox="0 0 252 108" fill="none" xmlns="http://www.w3.org/2000/svg">
<g clip-path="url(#clip0_229_2530)">
<path d="M147.696 4.66476H123.99V1.19922H147.696V4.66476ZM147.696 7.9186H123.99V11.3841H147.696V7.9186ZM147.696 14.638H123.99V18.1035H147.696V14.638ZM147.696 21.3574H123.99V24.8229H147.696V21.3574ZM147.696 28.0767H123.99V31.5423H147.696V28.0767ZM147.696 34.7961H123.99V38.2617H147.696V34.7961ZM147.696 41.5155H123.99V44.981H147.696V41.5155ZM147.696 48.2349H123.99V51.7004H147.696V48.2349ZM147.696 54.9543H123.99V58.4198H147.696V54.9543Z" fill="#1D2F53"/>
<g style="mix-blend-mode:overlay" opacity="0.5">
<path d="M147.696 1.19922H123.99V58.4169H147.696V1.19922Z" fill="url(#paint0_linear_229_2530)"/>
</g>
<path d="M119.945 0.988281H102.643V58.4177H119.945V0.988281Z" fill="url(#paint1_linear_229_2530)"/>
<path d="M123.99 4.66504L125.702 6.37896H149.408L147.696 4.66504H123.99Z" fill="#1A1B36"/>
<path d="M123.99 18.0664L125.702 19.7803H149.408L147.696 18.0664H123.99Z" fill="#1A1B36"/>
<path d="M123.99 11.3672L125.702 13.0811H149.408L147.696 11.3672H123.99Z" fill="#1A1B36"/>
<path d="M123.99 24.7656L125.702 26.4795H149.408L147.696 24.7656H123.99Z" fill="#1A1B36"/>
<path d="M123.99 38.166L125.702 39.8799H149.408L147.696 38.166H123.99Z" fill="#1A1B36"/>
<path d="M123.99 31.4678L125.702 33.1817H149.408L147.696 31.4678H123.99Z" fill="#1A1B36"/>
<path d="M123.99 44.9814L125.702 46.6954H149.408L147.696 44.9814H123.99Z" fill="#1A1B36"/>
<path d="M123.99 58.3799L125.702 60.0938H149.408L147.696 58.3799H123.99Z" fill="#1A1B36"/>
<path d="M123.99 51.6807L125.702 53.3946H149.408L147.696 51.6807H123.99Z" fill="#1A1B36"/>
<path d="M147.696 54.9521L149.408 56.6661V60.1316L147.696 58.4177V54.9521Z" fill="#3A519F"/>
<path d="M147.696 48.2324L149.408 49.9463V53.4119L147.696 51.698V48.2324Z" fill="#3A519F"/>
<path d="M147.696 41.5156L149.408 43.2295V46.6922L147.696 44.9812V41.5156Z" fill="#3A519F"/>
<path d="M147.696 34.7969L149.408 36.5108V39.9763L147.696 38.2624V34.7969Z" fill="#3A519F"/>
<path d="M147.696 28.0771L149.408 29.7911V33.2566L147.696 31.5427V28.0771Z" fill="#3A519F"/>
<path d="M147.696 21.3574L149.408 23.0713V26.5369L147.696 24.823V21.3574Z" fill="#3A519F"/>
<path d="M147.696 14.6387L149.408 16.3526V19.8181L147.696 18.1042V14.6387Z" fill="#3A519F"/>
<path d="M147.696 7.91895L149.408 9.63287V13.0984L147.696 11.3845V7.91895Z" fill="#3A519F"/>
<path d="M147.696 1.19922L149.408 2.91314V6.37868L147.696 4.66476V1.19922Z" fill="#3A519F"/>
<g style="mix-blend-mode:overlay" opacity="0.54">
<path d="M149.408 54.9521H147.696V60.1316H149.408V54.9521Z" fill="url(#paint2_linear_229_2530)"/>
</g>
<g style="mix-blend-mode:overlay" opacity="0.54">
<path d="M149.408 48.2324H147.696V53.4119H149.408V48.2324Z" fill="url(#paint3_linear_229_2530)"/>
</g>
<g style="mix-blend-mode:overlay" opacity="0.54">
<path d="M149.408 41.5156H147.696V46.6951H149.408V41.5156Z" fill="url(#paint4_linear_229_2530)"/>
</g>
<g style="mix-blend-mode:overlay" opacity="0.54">
<path d="M149.408 34.7969H147.696V39.9763H149.408V34.7969Z" fill="url(#paint5_linear_229_2530)"/>
</g>
<g style="mix-blend-mode:overlay" opacity="0.54">
<path d="M149.408 28.0771H147.696V33.2566H149.408V28.0771Z" fill="url(#paint6_linear_229_2530)"/>
</g>
<g style="mix-blend-mode:overlay" opacity="0.54">
<path d="M149.408 21.3574H147.696V26.5369H149.408V21.3574Z" fill="url(#paint7_linear_229_2530)"/>
</g>
<g style="mix-blend-mode:overlay" opacity="0.54">
<path d="M149.408 14.6387H147.696V19.8181H149.408V14.6387Z" fill="url(#paint8_linear_229_2530)"/>
</g>
<g style="mix-blend-mode:overlay" opacity="0.54">
<path d="M149.408 7.91895H147.696V13.0984H149.408V7.91895Z" fill="url(#paint9_linear_229_2530)"/>
</g>
<g style="mix-blend-mode:overlay" opacity="0.54">
<path d="M149.408 1.19922H147.696V6.37868H149.408V1.19922Z" fill="url(#paint10_linear_229_2530)"/>
</g>
<path d="M107.838 0.988281H106.105V60.0939H107.838V0.988281Z" fill="url(#paint11_radial_229_2530)"/>
<path d="M114.756 0.988281H113.026V60.0939H114.756V0.988281Z" fill="url(#paint12_radial_229_2530)"/>
<path d="M121.678 0.958984H119.945V60.0646H121.678V0.958984Z" fill="url(#paint13_radial_229_2530)"/>
<path d="M107.835 58.417H102.643V60.0932H107.835V58.417Z" fill="url(#paint14_linear_229_2530)"/>
<path d="M114.756 58.417H109.564V60.0932H114.756V58.417Z" fill="url(#paint15_linear_229_2530)"/>
<path d="M121.675 58.417H116.483V60.0932H121.675V58.417Z" fill="url(#paint16_linear_229_2530)"/>
<path d="M0.291992 73.5938H11.748C16.0708 73.5938 18.2293 76.5866 18.2293 79.6084C18.2293 80.8525 17.8439 82.0966 17.1051 83.1349C19.0289 84.379 19.9474 86.3945 19.9474 88.3781C19.9474 91.4 17.786 94.3319 13.6138 94.3319H0.291992V73.5938ZM5.29276 81.9198H10.7078C12.3941 81.9198 13.2546 80.7945 13.2546 79.6374C13.2546 78.4803 12.397 77.3551 10.7078 77.3551H5.29276V81.9168V81.9198ZM5.29276 90.2747H12.5737C14.2599 90.2747 15.1204 89.1205 15.1204 87.9634C15.1204 86.8063 14.2628 85.6231 12.5737 85.6231H5.29276V90.2747Z" fill="#1D2F53"/>
<path d="M31.7248 73.2979H36.7864L46.7908 94.3318H41.4916L40.0401 91.31H28.4363L26.9877 94.3318H21.6885L31.7219 73.2979H31.7248ZM30.4529 87.1339H38.0293L34.2396 79.2226L30.45 87.1339H30.4529Z" fill="#1D2F53"/>
<path d="M54.6946 73.5938L60.3792 82.0966L66.0318 73.5938H71.8641L62.8651 86.0088V94.3319H57.8614V86.0088L48.8652 73.5938H54.6946Z" fill="#1D2F53"/>
<path d="M75.1182 73.5938H87.6085C92.166 73.5938 94.4172 76.8244 94.4172 80.0811C94.4172 82.5984 93.0265 85.1475 90.245 86.1248L96.6394 94.3319H90.3638L84.8879 86.5395H80.1218V94.3319H75.1182V73.5938ZM80.1218 82.3924H86.3974C88.2922 82.3924 89.2397 81.2382 89.2397 80.0811C89.2397 78.924 88.2922 77.7698 86.3974 77.7698H80.1218V82.3924Z" fill="#1D2F53"/>
<path d="M108.568 73.2979H113.629L123.634 94.3318H118.334L116.883 91.31H105.279L103.83 94.3318H98.5312L108.565 73.2979H108.568ZM107.296 87.1339H114.872L111.082 79.2226L107.293 87.1339H107.296Z" fill="#1D2F53"/>
<path d="M126.887 73.5938H131.891L139.911 87.5777L147.933 73.5938H152.934V94.3319H147.933V82.0097L140.829 94.3319H138.966L131.891 82.0097V94.3319H126.887V73.5938Z" fill="#1D2F53"/>
<path d="M168.623 95.0162C163.176 95.0162 156.813 91.3708 156.813 83.9641C156.813 76.5575 163.176 72.9121 168.623 72.9121C174.07 72.9121 180.403 76.5575 180.403 83.9641C180.403 91.3708 174.038 95.0162 168.623 95.0162ZM168.623 77.6537C165.514 77.6537 161.904 79.7272 161.904 83.9641C161.904 88.2011 165.514 90.2456 168.623 90.2456C171.732 90.2456 175.313 88.2011 175.313 83.9641C175.313 79.7272 171.703 77.6537 168.623 77.6537Z" fill="#1D2F53"/>
<path d="M205.149 94.3317H203.107L202.13 92.6729C200.354 94.1548 198.045 95.0132 195.354 95.0132C190.025 95.0132 183.782 91.249 183.782 83.9612C183.782 76.6734 190.057 72.9092 195.385 72.9092C199.529 72.9092 203.081 74.597 205.3 77.4709L201.6 80.7016C200.267 79.0138 197.871 77.7087 195.591 77.7087C191.181 77.7087 188.962 80.8205 188.962 83.9612C188.962 87.1019 191.181 90.1818 195.591 90.1818C198.967 90.1818 200.296 88.1982 200.357 86.0347H195.504V83.0129H205.152V94.3288L205.149 94.3317Z" fill="#1D2F53"/>
<path d="M227.14 90.1558V94.3319H208.878V73.5938H213.879V90.1558H227.14Z" fill="#1D2F53"/>
<path d="M230.159 73.5938H235.16V85.858C235.16 88.8508 237.883 90.3617 240.636 90.3617C243.388 90.3617 246.112 88.8508 246.112 85.858V73.5938H251.113V85.858C251.113 91.9916 245.874 95.0714 240.636 95.0714C235.398 95.0714 230.159 91.9916 230.159 85.858V73.5938Z" fill="#1D2F53"/>
<path d="M190.251 68.82V66.8828C191.538 67.9558 192.871 68.7475 194.965 68.7475C197.06 68.7475 198.404 67.9442 199.679 66.8828V68.82C198.384 70.0583 196.626 70.5804 194.965 70.5804C193.305 70.5804 191.555 70.0583 190.251 68.82Z" fill="#1D2F53"/>
<path d="M66.0928 100.987H67.3299V107.565H66.0928V100.987ZM66.539 100.987H70.4938V102.182H66.539V100.987ZM66.539 103.702H69.9955V104.897H66.539V103.702ZM66.539 106.37H70.4938V107.565H66.539V106.37Z" fill="#1D2F53"/>
<path d="M73.9385 100.987H75.4509L77.8962 106.025L77.789 106.141V100.984H78.974V107.556H77.45L75.0134 102.594L75.1235 102.475V107.556H73.9385V100.984V100.987Z" fill="#1D2F53"/>
<path d="M82.7319 100.987H83.9691V107.565H82.7319V100.987ZM83.3549 106.37H84.931C85.3366 106.37 85.6524 106.271 85.8755 106.077C86.0986 105.883 86.2087 105.604 86.2087 105.245V103.307C86.2087 102.948 86.0986 102.672 85.8755 102.475C85.6524 102.278 85.3366 102.179 84.931 102.179H83.3549V100.984H84.9049C85.4525 100.984 85.9219 101.077 86.3072 101.26C86.6955 101.443 86.9881 101.712 87.1909 102.063C87.3937 102.417 87.4951 102.84 87.4951 103.339V105.204C87.4951 105.677 87.3966 106.091 87.2025 106.445C87.0084 106.799 86.7157 107.072 86.3275 107.269C85.9393 107.466 85.4641 107.565 84.8991 107.565H83.3549V106.37Z" fill="#1D2F53"/>
<path d="M91.9453 107.345C91.586 107.153 91.3136 106.875 91.1282 106.506C90.9428 106.141 90.8472 105.7 90.8472 105.184V100.988H92.0843V105.216C92.0843 105.593 92.1857 105.886 92.3856 106.095C92.5885 106.303 92.8724 106.408 93.2404 106.408C93.6083 106.408 93.898 106.303 94.1009 106.095C94.3037 105.886 94.4051 105.596 94.4051 105.216V100.988H95.6422V105.184C95.6422 105.7 95.5495 106.141 95.3612 106.506C95.1729 106.872 94.8976 107.153 94.5384 107.345C94.1791 107.536 93.7445 107.632 93.2404 107.632C92.7362 107.632 92.3016 107.536 91.9424 107.345H91.9453ZM91.6729 99.21H92.9101V100.451H91.6729V99.21ZM93.5706 99.21H94.8078V100.451H93.5706V99.21Z" fill="#1D2F53"/>
<path d="M100.281 107.536C99.9826 107.472 99.6986 107.379 99.435 107.257C99.1713 107.136 98.9366 106.988 98.728 106.817L99.3017 105.793C99.5538 106.002 99.8464 106.161 100.18 106.274C100.51 106.387 100.852 106.443 101.202 106.443C101.605 106.443 101.918 106.373 102.141 106.237C102.364 106.1 102.474 105.906 102.474 105.657V105.651C102.474 105.477 102.425 105.338 102.326 105.236C102.228 105.135 102.098 105.059 101.938 105.01C101.779 104.961 101.573 104.917 101.324 104.879C101.315 104.879 101.307 104.876 101.298 104.876C101.289 104.876 101.283 104.876 101.272 104.874L101.173 104.859C100.733 104.789 100.368 104.702 100.081 104.598C99.7913 104.494 99.5451 104.311 99.3452 104.05C99.1423 103.789 99.0438 103.418 99.0438 102.939C99.0438 102.51 99.1394 102.148 99.3278 101.843C99.519 101.541 99.7942 101.312 100.154 101.153C100.516 100.993 100.95 100.915 101.463 100.915C101.698 100.915 101.938 100.941 102.185 100.996C102.431 101.051 102.671 101.13 102.906 101.231C103.141 101.333 103.364 101.457 103.575 101.602L103.051 102.652C102.799 102.478 102.532 102.342 102.257 102.246C101.982 102.15 101.718 102.101 101.463 102.101C101.084 102.101 100.791 102.165 100.582 102.29C100.374 102.414 100.269 102.591 100.269 102.817V102.823C100.269 103.012 100.324 103.163 100.432 103.273C100.539 103.383 100.675 103.464 100.834 103.513C100.994 103.566 101.22 103.618 101.507 103.676C101.518 103.679 101.53 103.682 101.544 103.682C101.556 103.682 101.567 103.685 101.582 103.687C101.599 103.69 101.617 103.693 101.634 103.699C101.651 103.702 101.669 103.708 101.686 103.711C102.103 103.792 102.448 103.89 102.729 104.006C103.007 104.122 103.242 104.308 103.427 104.566C103.613 104.824 103.709 105.175 103.709 105.622V105.63C103.709 106.051 103.61 106.408 103.416 106.706C103.219 107.005 102.935 107.234 102.558 107.391C102.182 107.547 101.733 107.626 101.205 107.626C100.892 107.626 100.585 107.594 100.287 107.53L100.281 107.536Z" fill="#1D2F53"/>
<path d="M106.241 100.987H111.059V102.182H106.241V100.987ZM108.031 101.527H109.268V107.565H108.031V101.527Z" fill="#1D2F53"/>
<path d="M114.096 100.981H115.333V107.562H114.096V100.981ZM114.588 103.722H116.874C117.002 103.722 117.112 103.69 117.207 103.626C117.303 103.562 117.378 103.473 117.431 103.354C117.483 103.238 117.512 103.101 117.515 102.948C117.515 102.794 117.488 102.658 117.436 102.542C117.384 102.426 117.309 102.333 117.213 102.269C117.118 102.205 117.005 102.173 116.874 102.173H114.588V100.979H116.973C117.335 100.979 117.651 101.06 117.926 101.222C118.201 101.385 118.413 101.617 118.563 101.912C118.714 102.208 118.789 102.553 118.789 102.945C118.789 103.336 118.714 103.681 118.563 103.977C118.413 104.273 118.198 104.505 117.923 104.667C117.648 104.83 117.332 104.911 116.973 104.911H114.588V103.716V103.722ZM115.97 104.711L117.294 104.502L119.065 107.559H117.564L115.967 104.708L115.97 104.711Z" fill="#1D2F53"/>
<path d="M123.637 107.562H122.353V100.984H123.637V107.562ZM122.376 99.1807H123.613V100.442H122.376V99.1807Z" fill="#1D2F53"/>
<path d="M132.102 100.987H133.339V107.565H132.102V100.987ZM132.676 103.705H136.503V104.899H132.676V103.705ZM135.698 100.987H136.935V107.565H135.698V100.987Z" fill="#1D2F53"/>
<path d="M141.704 107.33C141.342 107.13 141.061 106.846 140.861 106.48C140.661 106.112 140.562 105.689 140.562 105.207V103.342C140.562 102.861 140.661 102.435 140.861 102.069C141.061 101.704 141.342 101.42 141.704 101.22C142.066 101.019 142.486 100.918 142.961 100.918C143.437 100.918 143.857 101.019 144.219 101.22C144.581 101.42 144.862 101.704 145.062 102.069C145.262 102.435 145.36 102.861 145.36 103.342V105.207C145.36 105.689 145.262 106.115 145.062 106.48C144.862 106.846 144.581 107.13 144.219 107.33C143.857 107.53 143.437 107.632 142.961 107.632C142.486 107.632 142.066 107.533 141.704 107.33ZM143.55 106.248C143.718 106.153 143.848 106.019 143.941 105.842C144.033 105.668 144.08 105.465 144.08 105.236V103.31C144.08 103.081 144.033 102.878 143.941 102.704C143.848 102.53 143.718 102.394 143.55 102.298C143.382 102.203 143.185 102.156 142.961 102.156C142.738 102.156 142.541 102.206 142.373 102.298C142.205 102.394 142.075 102.527 141.982 102.704C141.889 102.881 141.843 103.081 141.843 103.31V105.236C141.843 105.465 141.889 105.668 141.982 105.842C142.075 106.019 142.205 106.153 142.373 106.248C142.541 106.344 142.738 106.39 142.961 106.39C143.185 106.39 143.379 106.344 143.55 106.248Z" fill="#1D2F53"/>
<path d="M148.895 100.987H150.132V107.565H148.895V100.987ZM149.445 106.37H153.296V107.565H149.445V106.37Z" fill="#1D2F53"/>
<path d="M156.512 100.987H157.749V107.565H156.512V100.987ZM157.135 106.37H158.711C159.117 106.37 159.433 106.271 159.656 106.077C159.879 105.883 159.989 105.604 159.989 105.245V103.307C159.989 102.948 159.879 102.672 159.656 102.475C159.433 102.278 159.117 102.179 158.711 102.179H157.135V100.984H158.685C159.233 100.984 159.702 101.077 160.087 101.26C160.476 101.443 160.768 101.712 160.971 102.063C161.174 102.417 161.275 102.84 161.275 103.339V105.204C161.275 105.677 161.177 106.091 160.983 106.445C160.789 106.799 160.496 107.072 160.108 107.269C159.72 107.466 159.244 107.565 158.679 107.565H157.135V106.37Z" fill="#1D2F53"/>
<path d="M166.004 107.562H164.72V100.984H166.004V107.562ZM164.743 99.1807H165.981V100.442H164.743V99.1807Z" fill="#1D2F53"/>
<path d="M169.672 100.987H171.184L173.63 106.025L173.522 106.141V100.984H174.707V107.556H173.183L170.747 102.594L170.857 102.475V107.556H169.672V100.984V100.987Z" fill="#1D2F53"/>
<path d="M183.139 103.885V105.169C183.139 105.657 183.04 106.089 182.843 106.46C182.646 106.834 182.368 107.121 182.006 107.324C181.644 107.527 181.226 107.629 180.748 107.629C180.27 107.629 179.847 107.533 179.482 107.342C179.117 107.15 178.833 106.88 178.633 106.53C178.433 106.182 178.332 105.776 178.332 105.314V103.374C178.332 102.887 178.431 102.455 178.628 102.087C178.825 101.716 179.103 101.428 179.465 101.225C179.827 101.022 180.244 100.921 180.722 100.921C181.113 100.921 181.476 101.002 181.806 101.162C182.136 101.324 182.414 101.55 182.635 101.846C182.855 102.142 183.005 102.484 183.084 102.873H181.745C181.699 102.733 181.626 102.615 181.522 102.513C181.418 102.412 181.296 102.336 181.157 102.284C181.018 102.232 180.873 102.206 180.719 102.206C180.499 102.206 180.305 102.255 180.14 102.351C179.972 102.446 179.844 102.586 179.752 102.762C179.659 102.939 179.613 103.145 179.613 103.377V105.317C179.613 105.523 179.659 105.703 179.752 105.86C179.844 106.016 179.978 106.135 180.149 106.219C180.32 106.303 180.52 106.347 180.745 106.347C180.971 106.347 181.163 106.3 181.331 106.208C181.499 106.115 181.626 105.981 181.716 105.807C181.806 105.631 181.852 105.425 181.852 105.187V105.077H180.858V103.882H183.136L183.139 103.885Z" fill="#1D2F53"/>
</g>
<defs>
<linearGradient id="paint0_linear_229_2530" x1="123.824" y1="29.5126" x2="147.602" y2="29.5126" gradientUnits="userSpaceOnUse">
<stop stop-color="#E7E2E0"/>
<stop offset="0.07" stop-color="#D8D3D2"/>
<stop offset="0.19" stop-color="#B1ACAF"/>
<stop offset="0.26" stop-color="#989398"/>
<stop offset="0.52" stop-color="#F9F9F9"/>
<stop offset="0.59" stop-color="#EAEAEA"/>
<stop offset="0.71" stop-color="#C5C3C4"/>
<stop offset="0.88" stop-color="#8C878A"/>
<stop offset="1" stop-color="#B3B2B2"/>
</linearGradient>
<linearGradient id="paint1_linear_229_2530" x1="112.546" y1="57.7089" x2="112.546" y2="0.10638" gradientUnits="userSpaceOnUse">
<stop stop-color="#E7E2E0"/>
<stop offset="0.07" stop-color="#D8D3D2"/>
<stop offset="0.19" stop-color="#B1ACAF"/>
<stop offset="0.26" stop-color="#989398"/>
<stop offset="0.52" stop-color="#F9F9F9"/>
<stop offset="0.59" stop-color="#EAEAEA"/>
<stop offset="0.71" stop-color="#C5C3C4"/>
<stop offset="0.88" stop-color="#8C878A"/>
<stop offset="1" stop-color="#B3B2B2"/>
</linearGradient>
<linearGradient id="paint2_linear_229_2530" x1="147.472" y1="57.1112" x2="149.176" y2="57.1112" gradientUnits="userSpaceOnUse">
<stop stop-color="#A8A7A3"/>
<stop offset="0.03" stop-color="#A8A7A3"/>
<stop offset="0.13" stop-color="#B0B0B1"/>
<stop offset="0.22" stop-color="#BABCC3"/>
<stop offset="0.35" stop-color="#ABAEB4"/>
<stop offset="0.61" stop-color="#848A8F"/>
<stop offset="0.72" stop-color="#71797D"/>
<stop offset="1" stop-color="#9AA0A4"/>
</linearGradient>
<linearGradient id="paint3_linear_229_2530" x1="2589.28" y1="50.3945" x2="2590.6" y2="50.3945" gradientUnits="userSpaceOnUse">
<stop stop-color="#A8A7A3"/>
<stop offset="0.03" stop-color="#A8A7A3"/>
<stop offset="0.13" stop-color="#B0B0B1"/>
<stop offset="0.22" stop-color="#BABCC3"/>
<stop offset="0.35" stop-color="#ABAEB4"/>
<stop offset="0.61" stop-color="#848A8F"/>
<stop offset="0.72" stop-color="#71797D"/>
<stop offset="1" stop-color="#9AA0A4"/>
</linearGradient>
<linearGradient id="paint4_linear_229_2530" x1="2589.28" y1="43.6749" x2="2590.6" y2="43.6749" gradientUnits="userSpaceOnUse">
<stop stop-color="#A8A7A3"/>
<stop offset="0.03" stop-color="#A8A7A3"/>
<stop offset="0.13" stop-color="#B0B0B1"/>
<stop offset="0.22" stop-color="#BABCC3"/>
<stop offset="0.35" stop-color="#ABAEB4"/>
<stop offset="0.61" stop-color="#848A8F"/>
<stop offset="0.72" stop-color="#71797D"/>
<stop offset="1" stop-color="#9AA0A4"/>
</linearGradient>
<linearGradient id="paint5_linear_229_2530" x1="2589.28" y1="36.9591" x2="2590.6" y2="36.9591" gradientUnits="userSpaceOnUse">
<stop stop-color="#A8A7A3"/>
<stop offset="0.03" stop-color="#A8A7A3"/>
<stop offset="0.13" stop-color="#B0B0B1"/>
<stop offset="0.22" stop-color="#BABCC3"/>
<stop offset="0.35" stop-color="#ABAEB4"/>
<stop offset="0.61" stop-color="#848A8F"/>
<stop offset="0.72" stop-color="#71797D"/>
<stop offset="1" stop-color="#9AA0A4"/>
</linearGradient>
<linearGradient id="paint6_linear_229_2530" x1="2589.28" y1="30.2395" x2="2590.6" y2="30.2395" gradientUnits="userSpaceOnUse">
<stop stop-color="#A8A7A3"/>
<stop offset="0.03" stop-color="#A8A7A3"/>
<stop offset="0.13" stop-color="#B0B0B1"/>
<stop offset="0.22" stop-color="#BABCC3"/>
<stop offset="0.35" stop-color="#ABAEB4"/>
<stop offset="0.61" stop-color="#848A8F"/>
<stop offset="0.72" stop-color="#71797D"/>
<stop offset="1" stop-color="#9AA0A4"/>
</linearGradient>
<linearGradient id="paint7_linear_229_2530" x1="2589.28" y1="23.5199" x2="2590.6" y2="23.5199" gradientUnits="userSpaceOnUse">
<stop stop-color="#A8A7A3"/>
<stop offset="0.03" stop-color="#A8A7A3"/>
<stop offset="0.13" stop-color="#B0B0B1"/>
<stop offset="0.22" stop-color="#BABCC3"/>
<stop offset="0.35" stop-color="#ABAEB4"/>
<stop offset="0.61" stop-color="#848A8F"/>
<stop offset="0.72" stop-color="#71797D"/>
<stop offset="1" stop-color="#9AA0A4"/>
</linearGradient>
<linearGradient id="paint8_linear_229_2530" x1="2589.28" y1="16.8042" x2="2590.6" y2="16.8042" gradientUnits="userSpaceOnUse">
<stop stop-color="#A8A7A3"/>
<stop offset="0.03" stop-color="#A8A7A3"/>
<stop offset="0.13" stop-color="#B0B0B1"/>
<stop offset="0.22" stop-color="#BABCC3"/>
<stop offset="0.35" stop-color="#ABAEB4"/>
<stop offset="0.61" stop-color="#848A8F"/>
<stop offset="0.72" stop-color="#71797D"/>
<stop offset="1" stop-color="#9AA0A4"/>
</linearGradient>
<linearGradient id="paint9_linear_229_2530" x1="2589.28" y1="10.0846" x2="2590.6" y2="10.0846" gradientUnits="userSpaceOnUse">
<stop stop-color="#A8A7A3"/>
<stop offset="0.03" stop-color="#A8A7A3"/>
<stop offset="0.13" stop-color="#B0B0B1"/>
<stop offset="0.22" stop-color="#BABCC3"/>
<stop offset="0.35" stop-color="#ABAEB4"/>
<stop offset="0.61" stop-color="#848A8F"/>
<stop offset="0.72" stop-color="#71797D"/>
<stop offset="1" stop-color="#9AA0A4"/>
</linearGradient>
<linearGradient id="paint10_linear_229_2530" x1="2589.28" y1="3.36786" x2="2590.6" y2="3.36786" gradientUnits="userSpaceOnUse">
<stop stop-color="#A8A7A3"/>
<stop offset="0.03" stop-color="#A8A7A3"/>
<stop offset="0.13" stop-color="#B0B0B1"/>
<stop offset="0.22" stop-color="#BABCC3"/>
<stop offset="0.35" stop-color="#ABAEB4"/>
<stop offset="0.61" stop-color="#848A8F"/>
<stop offset="0.72" stop-color="#71797D"/>
<stop offset="1" stop-color="#9AA0A4"/>
</linearGradient>
<radialGradient id="paint11_radial_229_2530" cx="0" cy="0" r="1" gradientUnits="userSpaceOnUse" gradientTransform="translate(107.086 30.831) scale(20.9494 20.969)">
<stop stop-color="#CFCECE"/>
<stop offset="0.3" stop-color="#C7C6C6"/>
<stop offset="0.66" stop-color="#B3B2B2"/>
<stop offset="1" stop-color="#A6A5A4"/>
</radialGradient>
<radialGradient id="paint12_radial_229_2530" cx="0" cy="0" r="1" gradientUnits="userSpaceOnUse" gradientTransform="translate(114.036 48089.5) scale(20.9493 20.969)">
<stop stop-color="#CFCECE"/>
<stop offset="0.3" stop-color="#C7C6C6"/>
<stop offset="0.66" stop-color="#B3B2B2"/>
<stop offset="1" stop-color="#A6A5A4"/>
</radialGradient>
<radialGradient id="paint13_radial_229_2530" cx="0" cy="0" r="1" gradientUnits="userSpaceOnUse" gradientTransform="translate(120.988 30.8075) scale(20.9492 20.969)">
<stop stop-color="#CFCECE"/>
<stop offset="0.3" stop-color="#C7C6C6"/>
<stop offset="0.66" stop-color="#B3B2B2"/>
<stop offset="1" stop-color="#A6A5A4"/>
</radialGradient>
<linearGradient id="paint14_linear_229_2530" x1="102.411" y1="58.9063" x2="107.62" y2="58.9063" gradientUnits="userSpaceOnUse">
<stop stop-color="#A8A7A3"/>
<stop offset="0.03" stop-color="#A8A7A3"/>
<stop offset="0.13" stop-color="#B0B0B1"/>
<stop offset="0.22" stop-color="#BABCC3"/>
<stop offset="0.35" stop-color="#ABAEB4"/>
<stop offset="0.61" stop-color="#848A8F"/>
<stop offset="0.72" stop-color="#71797D"/>
<stop offset="1" stop-color="#9AA0A4"/>
</linearGradient>
<linearGradient id="paint15_linear_229_2530" x1="109.353" y1="58.9063" x2="114.522" y2="58.9063" gradientUnits="userSpaceOnUse">
<stop stop-color="#A8A7A3"/>
<stop offset="0.03" stop-color="#A8A7A3"/>
<stop offset="0.13" stop-color="#B0B0B1"/>
<stop offset="0.22" stop-color="#BABCC3"/>
<stop offset="0.35" stop-color="#ABAEB4"/>
<stop offset="0.61" stop-color="#848A8F"/>
<stop offset="0.72" stop-color="#71797D"/>
<stop offset="1" stop-color="#9AA0A4"/>
</linearGradient>
<linearGradient id="paint16_linear_229_2530" x1="116.256" y1="58.9063" x2="121.465" y2="58.9063" gradientUnits="userSpaceOnUse">
<stop stop-color="#A8A7A3"/>
<stop offset="0.03" stop-color="#A8A7A3"/>
<stop offset="0.13" stop-color="#B0B0B1"/>
<stop offset="0.22" stop-color="#BABCC3"/>
<stop offset="0.35" stop-color="#ABAEB4"/>
<stop offset="0.61" stop-color="#848A8F"/>
<stop offset="0.72" stop-color="#71797D"/>
<stop offset="1" stop-color="#9AA0A4"/>
</linearGradient>
<clipPath id="clip0_229_2530">
<rect width="250.823" height="106.672" fill="white" transform="translate(0.291992 0.958984)"/>
</clipPath>
</defs>
</svg>
