<svg width="33" height="33" viewBox="0 0 33 33" fill="none" xmlns="http://www.w3.org/2000/svg">
<path d="M24.48 0H8.3C3.72 0 0 3.72 0 8.3V24.48C0 29.06 3.72 32.78 8.3 32.78H24.48C29.06 32.78 32.78 29.06 32.78 24.48V8.3C32.78 3.72 29.06 0 24.48 0ZM16.57 26.08C14.81 26.08 13.16 25.63 11.72 24.84L6.17001 26.61L7.98 21.27C7.07 19.77 6.54 18.01 6.54 16.13C6.54 15.98 6.54 15.84 6.54 15.69C6.77 10.39 11.17 6.17 16.56 6.17C21.95 6.17 26.45 10.49 26.58 15.87C26.58 15.95 26.58 16.04 26.58 16.12C26.58 21.62 22.09 26.07 16.55 26.07L16.57 26.08Z" fill="#174873"/>
<path d="M16.5696 7.75977C12.1996 7.75977 8.58965 11.0798 8.17965 15.3098C8.14965 15.5798 8.13965 15.8498 8.13965 16.1198C8.13965 17.9498 8.73965 19.6498 9.74965 21.0298L8.69965 24.1398L11.9397 23.1098C13.2697 23.9898 14.8597 24.4998 16.5797 24.4998C21.2297 24.4998 25.0097 20.7498 25.0097 16.1298C25.0097 15.9098 25.0097 15.6898 24.9797 15.4798C24.6397 11.1698 20.9997 7.76977 16.5797 7.76977L16.5696 7.75977ZM21.4897 19.5798C21.2897 20.1498 20.2797 20.6998 19.8297 20.7398C19.3797 20.7798 19.3797 21.1098 16.8797 20.1298C14.3797 19.1498 12.7996 16.5998 12.6796 16.4398C12.5896 16.3198 12.0497 15.6098 11.7997 14.7498C11.7297 14.4798 11.6697 14.1998 11.6697 13.9198C11.6697 12.7198 12.2997 12.1298 12.5297 11.8798C12.7597 11.6398 13.0197 11.5798 13.1897 11.5798C13.3597 11.5798 13.5197 11.5998 13.6597 11.5998C13.7997 11.5998 14.0097 11.5198 14.2097 11.9998C14.4197 12.4898 14.9097 13.6898 14.9697 13.8098C15.0297 13.9298 15.0697 14.0698 14.9897 14.2398C14.9297 14.3598 14.8897 14.4398 14.8397 14.5298C14.8097 14.5698 14.7796 14.6098 14.7496 14.6498C14.6196 14.7898 14.4897 14.9598 14.3797 15.0798C14.2597 15.1998 14.1297 15.3298 14.2697 15.5798C14.4097 15.8198 14.9096 16.6198 15.6396 17.2698C16.5796 18.1098 17.3697 18.3598 17.6197 18.4798C17.8697 18.5998 18.0097 18.5798 18.1597 18.4198C18.2997 18.2598 18.7797 17.7098 18.9397 17.4698C19.0997 17.2298 19.2697 17.2598 19.4897 17.3498C19.7197 17.4298 20.9197 18.0198 21.1697 18.1398C21.4097 18.2598 21.5796 18.3198 21.6396 18.4198C21.6996 18.5198 21.6997 19.0098 21.4897 19.5798Z" fill="#174873"/>
</svg>
