<svg width="14" height="14" viewBox="0 0 14 14" fill="none" xmlns="http://www.w3.org/2000/svg">
<path d="M12.2641 13.4671H2.05702C2.04243 13.4593 2.02887 13.4474 2.01326 13.4439C1.18834 13.2721 0.660889 12.6106 0.660889 11.7447C0.660889 9.00571 0.660889 6.26672 0.660889 3.52737C0.660889 3.47679 0.660889 3.42585 0.660889 3.36719H13.6606V12.0205C13.6524 12.0398 13.6399 12.0584 13.6365 12.0784C13.5429 12.5941 13.2759 12.989 12.8374 13.2436C12.6613 13.3459 12.4561 13.3943 12.2645 13.4671H12.2641ZM5.95981 11.4823C6.25491 12.2418 6.62837 12.5435 7.23723 12.5207C7.77112 12.5007 8.16357 12.1448 8.37489 11.4809C8.60724 11.6288 8.85689 11.7159 9.13028 11.6983C9.40367 11.6808 9.65604 11.5912 9.85684 11.3948C10.3609 10.9016 10.3989 10.3339 10.0766 9.72058C10.6957 9.53018 11.0355 9.11461 11.0606 8.51285C11.0712 8.26274 11.0077 8.02737 10.8768 7.81449C10.6862 7.5036 10.4104 7.31777 10.0644 7.24014C10.3717 6.57023 10.3266 6.0584 9.92943 5.63405C9.53257 5.2104 9.04616 5.1563 8.37048 5.46157C8.16052 4.81801 7.7718 4.46566 7.25656 4.44213C6.99063 4.42983 6.74403 4.48569 6.51983 4.63463C6.22473 4.83065 6.048 5.11379 5.9727 5.46683C5.33264 5.16719 4.8849 5.17878 4.49856 5.53534C3.96636 6.02644 3.9321 6.60887 4.26146 7.23662C3.63971 7.41754 3.29746 7.82152 3.2615 8.42749C3.24285 8.74084 3.33816 9.02292 3.52845 9.26847C3.71671 9.51156 3.96636 9.65384 4.25976 9.72234C3.87681 10.3691 4.0671 11.0031 4.41172 11.3484C4.76347 11.7008 5.36283 11.8712 5.95947 11.4823H5.95981Z" fill="#144973"/>
<path d="M13.6606 1.44683V2.57762H0.660946C0.660946 2.26427 0.660268 1.96708 0.660946 1.66989C0.66366 0.74952 1.38615 0.00127647 2.27722 0.000925183C5.53011 -0.000128681 8.78334 -0.0008313 12.0362 0.001979C12.6431 0.00233029 13.1125 0.283712 13.4229 0.818372C13.5331 1.00842 13.583 1.23605 13.6603 1.44683H13.6606ZM8.84711 1.68395C9.95492 1.68395 11.0627 1.68465 12.1709 1.68359C12.4178 1.68359 12.5915 1.5213 12.5949 1.29402C12.5983 1.06217 12.4219 0.896358 12.1682 0.893899C12.1472 0.893899 12.1258 0.893899 12.1048 0.893899C9.93559 0.893899 7.76609 0.893899 5.59693 0.893899C5.55453 0.893899 5.51213 0.891791 5.47007 0.896007C5.26961 0.917084 5.12375 1.07622 5.11799 1.2768C5.1112 1.51638 5.28623 1.68324 5.54876 1.68359C6.6481 1.6843 7.74777 1.68359 8.84711 1.68359V1.68395ZM2.37117 1.68359C2.46411 1.68359 2.55705 1.68746 2.64965 1.68289C2.86878 1.67165 3.02548 1.50514 3.02514 1.2884C3.02514 1.072 2.86776 0.903033 2.6483 0.896007C2.46276 0.889684 2.27687 0.890035 2.09167 0.896007C1.87425 0.903384 1.71381 1.07551 1.71449 1.2898C1.71483 1.50444 1.87493 1.6727 2.09303 1.68324C2.18563 1.68781 2.27857 1.68395 2.37151 1.68395L2.37117 1.68359ZM4.06783 1.68359C4.16077 1.68359 4.25371 1.68711 4.34631 1.68289C4.56713 1.67306 4.7252 1.50936 4.72689 1.29331C4.72893 1.07025 4.56916 0.901276 4.34258 0.894953C4.16145 0.890035 3.97964 0.890035 3.79851 0.894953C3.57973 0.901276 3.41895 1.06884 3.41624 1.28383C3.41352 1.50374 3.57702 1.67411 3.8019 1.68289C3.89043 1.6864 3.97896 1.68359 4.06749 1.68359H4.06783Z" fill="#144973"/>
<path d="M9.00975 10.9203C8.95243 10.889 8.83981 10.8423 8.74484 10.771C8.65359 10.7021 8.58135 10.6066 8.49926 10.524C8.37037 10.3944 8.22213 10.367 8.05661 10.4387C8.002 10.4622 7.94807 10.4875 7.89312 10.5089C7.71334 10.5788 7.62753 10.7165 7.62278 10.9111C7.61972 11.0383 7.62481 11.1655 7.61905 11.2923C7.60853 11.5245 7.43656 11.7114 7.22218 11.7303C6.97491 11.7525 6.76936 11.6081 6.729 11.3629C6.70559 11.222 6.71305 11.0752 6.71 10.9312C6.70525 10.7039 6.63639 10.5978 6.43287 10.5117C6.38606 10.4921 6.33993 10.4706 6.29313 10.4499C6.10284 10.3663 5.95868 10.3951 5.80774 10.5476C5.72904 10.6273 5.65374 10.7102 5.57267 10.7875C5.38747 10.9642 5.11713 10.9631 4.94245 10.7875C4.7603 10.6048 4.7525 10.3259 4.92752 10.1264C5.00147 10.0421 5.08118 9.96336 5.15987 9.88397C5.30675 9.73573 5.34541 9.56711 5.25485 9.37144C5.23483 9.32824 5.21788 9.28327 5.20193 9.23831C5.13206 9.04088 4.99333 8.94955 4.79354 8.94955C4.67923 8.94955 4.56492 8.95271 4.45095 8.94639C4.21114 8.93339 4.02662 8.74299 4.01407 8.50306C4.00186 8.26313 4.16569 8.04955 4.40448 8.01688C4.53779 7.99861 4.67448 8.00353 4.80948 8.00423C5.00316 8.00564 5.12799 7.90903 5.19854 7.72777C5.21754 7.67929 5.23653 7.63046 5.2562 7.58233C5.34372 7.3684 5.32065 7.23421 5.1653 7.06981C5.09135 6.99147 5.01402 6.91629 4.94211 6.8362C4.7603 6.63386 4.76369 6.35037 4.94822 6.16489C5.13274 5.97941 5.40375 5.98503 5.59574 6.17999C5.67104 6.25657 5.74363 6.33667 5.8169 6.41571C5.94952 6.55903 6.10386 6.58854 6.27922 6.51372C6.3379 6.48878 6.39658 6.46489 6.45492 6.43924C6.61842 6.36688 6.71034 6.24428 6.70932 6.05458C6.70864 5.94077 6.70695 5.8266 6.71 5.71278C6.71814 5.42718 6.91216 5.22133 7.16927 5.22168C7.4291 5.22168 7.61565 5.42543 7.62108 5.71559C7.62311 5.82519 7.62006 5.93479 7.62244 6.0444C7.62685 6.23866 7.70995 6.37812 7.89074 6.44803C7.94196 6.4677 7.99148 6.49264 8.04236 6.51442C8.21196 6.58714 8.36426 6.56184 8.49655 6.42625C8.57762 6.34299 8.65631 6.25693 8.73975 6.17648C8.9297 5.99276 9.20208 5.99241 9.37914 6.17262C9.56434 6.36091 9.56637 6.63913 9.38185 6.84323C9.3096 6.92297 9.23362 6.99955 9.15798 7.07613C9.01586 7.22051 8.97413 7.38456 9.06199 7.57671C9.08709 7.63187 9.10744 7.68948 9.13016 7.74604C9.19732 7.91219 9.31537 8.00002 9.49175 8.00388C9.64371 8.00704 9.79771 8.00037 9.94695 8.0239C10.1623 8.05798 10.315 8.27262 10.3058 8.49744C10.2963 8.72929 10.122 8.92461 9.89946 8.94322C9.78583 8.95271 9.67119 8.94814 9.55722 8.94955C9.24414 8.95271 8.96939 9.28433 9.02637 9.60751C9.04198 9.69639 9.09557 9.78456 9.15119 9.85728C9.22717 9.95599 9.32656 10.035 9.40695 10.1306C9.53211 10.2792 9.55925 10.452 9.48259 10.6326C9.40559 10.8131 9.26313 10.9031 9.00907 10.9203H9.00975ZM7.16045 7.17168C6.46137 7.17168 5.89186 7.75903 5.89186 8.47952C5.89186 9.19896 6.46273 9.78772 7.16045 9.78772C7.85852 9.78772 8.42905 9.19966 8.42939 8.47952C8.42939 7.75938 7.85954 7.17168 7.16079 7.17168H7.16045Z" fill="#144973"/>
<path d="M6.65285 8.47337C6.65454 8.1839 6.88452 7.94643 7.16062 7.94924C7.43707 7.9517 7.66636 8.19128 7.6667 8.47793C7.66738 8.77231 7.43266 9.01154 7.15011 9.00557C6.86755 8.99959 6.65081 8.76774 6.65285 8.47337Z" fill="#144973"/>
</svg>
