<svg width="79" height="79" viewBox="0 0 79 79" fill="none" xmlns="http://www.w3.org/2000/svg">
<rect width="79" height="79" rx="15" fill="#D9D9D9" fill-opacity="0.25"/>
<path d="M27.0176 56.516V26.3096H52.0068V56.516H27.0176ZM48.2964 36.8567C47.9684 37.1745 47.6301 37.482 47.3124 37.7997C46.9229 38.1892 46.8819 38.5992 47.1791 38.8862C47.4866 39.1834 47.8454 39.1424 48.2349 38.753C48.9319 38.056 49.6391 37.359 50.3361 36.6517C50.7564 36.2212 50.7564 35.9137 50.3259 35.473C49.6289 34.776 48.9319 34.0687 48.2246 33.3718C47.8454 32.9925 47.4764 32.9618 47.1791 33.2693C46.9024 33.5563 46.9331 33.9355 47.2919 34.2942C47.6301 34.6325 47.9889 34.9605 48.4091 35.3602C48.2144 35.391 48.1426 35.4115 48.0811 35.4115C47.1996 35.4627 46.2976 35.4422 45.4264 35.5755C42.6077 35.9957 40.117 37.154 38.0055 39.0604C34.8793 41.8894 33.2803 45.4256 33.1778 49.6383C33.1675 50.1406 33.4135 50.4276 33.8133 50.4378C34.2335 50.4481 34.4488 50.1918 34.4898 49.6793C34.541 49.0131 34.5513 48.3264 34.6743 47.6704C35.5352 43.0784 38.0977 39.7882 42.3309 37.8305C44.2067 36.9592 46.1951 36.6415 48.3169 36.8465L48.2964 36.8567ZM46.4821 40.2802C45.1907 40.2802 44.1657 41.3052 44.1554 42.5864C44.1554 43.8574 45.1907 44.9131 46.4616 44.9336C47.7429 44.9439 48.8089 43.8677 48.8089 42.5864C48.8089 41.3052 47.7736 40.2802 46.4821 40.2802ZM36.3245 34.4377C35.9145 34.817 35.5967 35.104 35.2892 35.4115C34.9715 35.7395 34.951 36.129 35.2277 36.3955C35.5147 36.6825 35.8735 36.6722 36.2117 36.334C36.5295 36.0265 36.8165 35.6985 37.1752 35.3192C37.4827 35.6575 37.739 35.9547 38.0055 36.2315C38.436 36.662 38.805 36.7132 39.1125 36.3955C39.3995 36.0982 39.3482 35.7087 38.9485 35.309C38.6615 35.0322 38.3642 34.776 38.0362 34.4685C38.4155 34.1097 38.7332 33.833 39.0202 33.5358C39.3687 33.1873 39.3892 32.7978 39.1022 32.521C38.805 32.234 38.4462 32.2648 38.0875 32.6235C37.7902 32.931 37.5237 33.259 37.2265 33.6075C36.8267 33.1975 36.5295 32.8798 36.222 32.5825C35.8837 32.2545 35.5147 32.2443 35.2277 32.5108C34.951 32.7875 34.951 33.1668 35.279 33.4948C35.5762 33.8022 35.9042 34.079 36.304 34.4275L36.3245 34.4377ZM41.0087 48.1931C41.1009 48.2341 41.1317 48.2444 41.1522 48.2649C41.3367 48.4494 41.5212 48.6236 41.7057 48.8081C41.8389 48.9414 41.9619 49.0746 42.1054 49.1976C42.3822 49.4334 42.7614 49.4231 43.0074 49.1976C43.2739 48.9414 43.2944 48.5724 43.0177 48.2751C42.6897 47.9266 42.3514 47.5986 41.9824 47.2296C42.3104 46.9119 42.6077 46.6351 42.8947 46.3481C43.2432 45.9894 43.2842 45.6101 43.0177 45.3231C42.7307 45.0156 42.3309 45.0361 41.9722 45.4154C41.6749 45.7229 41.4187 46.0611 41.1214 46.4096C40.7217 45.9894 40.4347 45.6819 40.1375 45.3949C39.7787 45.0464 39.4097 45.0259 39.1227 45.3129C38.8357 45.5999 38.8665 45.9689 39.2252 46.3276C39.5225 46.6249 39.8402 46.9119 40.1887 47.2501C39.8094 47.5986 39.4917 47.8856 39.1842 48.1931C38.8562 48.5314 38.8357 48.9004 39.1125 49.1771C39.379 49.4436 39.789 49.4334 40.1067 49.1259C40.4142 48.8286 40.7012 48.5109 41.0087 48.1931ZM29.7338 41.0797C29.3033 41.4794 28.9753 41.7562 28.6781 42.0534C28.3501 42.3712 28.3296 42.7709 28.5858 43.0374C28.8523 43.3142 29.2828 43.2937 29.6108 42.9657C29.908 42.6582 30.1848 42.3302 30.5333 41.9304C30.9023 42.3302 31.179 42.6684 31.4763 42.9657C31.8043 43.2937 32.2348 43.3142 32.5013 43.0272C32.7575 42.7504 32.7268 42.3609 32.3988 42.0432C32.0913 41.7459 31.7633 41.4692 31.3738 41.1207C31.7838 40.7414 32.1118 40.4647 32.409 40.1674C32.737 39.8394 32.7575 39.4499 32.491 39.1732C32.2143 38.8862 31.8145 38.9067 31.4763 39.2449C31.179 39.5524 30.9023 39.8804 30.564 40.2392C30.2053 39.8599 29.908 39.5422 29.6108 39.2449C29.2726 38.9067 28.9138 38.8862 28.6268 39.1527C28.3296 39.4294 28.3398 39.8292 28.6883 40.1674C28.9958 40.4647 29.334 40.7312 29.7338 41.0694V41.0797Z" fill="#24419A"/>
<path d="M47.8872 24.9466C47.8872 24.7724 47.8666 24.6494 47.8666 24.5264C47.8666 23.6961 47.8666 22.8659 47.8666 22.0664C47.9281 22.0356 47.9589 22.0049 47.9794 22.0049C50.0191 22.0049 52.0486 21.9741 54.0883 22.0049C55.3491 22.0254 56.2921 23.0401 56.2921 24.3009C56.2921 35.6373 56.2716 46.9736 56.2511 58.3203C56.2511 59.8578 55.3081 60.7905 53.7808 60.7905C44.2484 60.7905 34.716 60.7905 25.1836 60.7905C23.6564 60.7905 22.7441 59.8373 22.7441 58.2998C22.7441 47.0351 22.7441 35.7705 22.7441 24.4956C22.7441 22.9274 23.6871 21.9946 25.2656 21.9946C27.0696 21.9946 28.8736 21.9946 30.6878 21.9946C30.8313 21.9946 30.9646 21.9946 31.1388 21.9946V24.9466C30.9953 24.9466 30.8416 24.9466 30.6878 24.9466C29.3143 24.9466 27.9408 24.9466 26.5571 24.9466C25.8806 24.9466 25.6654 25.1721 25.6654 25.8588C25.6654 36.2215 25.6654 46.5841 25.6654 56.9468C25.6654 57.6233 25.8909 57.8488 26.5674 57.8488C35.1978 57.8488 43.8282 57.8488 52.4484 57.8488C53.1248 57.8488 53.3401 57.6233 53.3401 56.9468C53.3401 46.5841 53.3401 36.2215 53.3401 25.8588C53.3401 25.1823 53.1249 24.9568 52.4381 24.9568C51.0749 24.9568 49.7116 24.9568 48.3484 24.9568C48.1946 24.9568 48.0409 24.9568 47.8666 24.9568L47.8872 24.9466Z" fill="#24419A"/>
<path d="M41.5019 20.8466C42.2091 20.8466 42.8651 20.8466 43.5211 20.8466C44.2898 20.8466 45.0688 20.8466 45.8376 20.8466C46.2988 20.8466 46.5346 21.0721 46.5448 21.5231C46.5653 22.4251 46.5653 23.3271 46.5448 24.229C46.5448 24.68 46.2886 24.9055 45.8478 24.9363C45.7453 24.9363 45.6428 24.9363 45.5506 24.9363C41.5224 24.9363 37.5044 24.9363 33.4762 24.9363C32.6767 24.9363 32.4922 24.7518 32.4922 23.9523C32.4922 23.1938 32.4922 22.4353 32.4922 21.6768C32.4922 21.0618 32.7074 20.8466 33.3122 20.8466C34.5422 20.8466 35.7722 20.8466 37.0022 20.8466C37.1559 20.8466 37.3096 20.8466 37.5351 20.8466C37.5351 20.5288 37.5351 20.2521 37.5351 19.9651C37.5761 18.8888 38.4371 18.0791 39.5236 18.0791C40.6101 18.0791 41.4609 18.9196 41.4814 19.9958C41.4814 20.2521 41.4814 20.5083 41.4814 20.8363L41.5019 20.8466Z" fill="#24419A"/>
<path d="M46.4933 41.5928C47.0365 41.5928 47.5183 42.0643 47.508 42.6075C47.508 43.161 47.0263 43.612 46.4728 43.6018C45.9295 43.5915 45.4888 43.1405 45.4785 42.6075C45.4785 42.0643 45.9398 41.5928 46.4933 41.5928Z" fill="#24419A"/>
</svg>
