<svg width="53" height="52" viewBox="0 0 53 52" fill="none" xmlns="http://www.w3.org/2000/svg">
<g clip-path="url(#clip0_159_1275)">
<path d="M53 9.38245V40.7721C52.9681 40.8101 52.9298 40.848 52.9171 40.8922C52.2663 43.3579 50.5755 44.6603 48.0171 44.6603C43.4489 44.6603 38.8743 44.6603 34.3061 44.6603C34.102 44.6603 33.9042 44.6603 33.6681 44.6603C33.5405 46.2661 33.6362 47.8024 33.9042 49.3387C33.9871 49.8255 34.1785 49.9266 34.6379 49.9203C36.3286 49.895 38.0194 49.914 39.7101 49.9077C40.1886 49.9077 40.597 50.0404 40.833 50.4893C41.2222 51.229 40.6927 51.975 39.7612 51.9877C37.8663 52.0003 35.965 51.9877 34.0701 51.9877C27.1731 51.9877 20.2698 51.9877 13.3728 51.9877C12.537 51.9877 12.0394 51.5957 12.0457 50.9508C12.0457 50.3123 12.5562 49.9077 13.3792 49.9077C14.3107 49.9077 15.2422 49.9077 16.1737 49.9077C17.0861 49.9077 17.9921 49.9077 18.9108 49.9077C19.2936 48.1501 19.3702 46.4305 19.2234 44.6539C18.9682 44.6539 18.7577 44.6539 18.5535 44.6539C13.9151 44.6539 9.27675 44.6666 4.632 44.6539C2.09269 44.6413 0.0063793 42.5803 0.0063793 40.083C-8.61706e-07 30.3848 -8.61939e-07 20.6739 0.0191396 10.963C0.0191396 10.3497 0.172263 9.69224 0.42747 9.13589C1.30793 7.2582 2.84555 6.37941 4.93186 6.37941C10.1572 6.38574 15.3826 6.37941 20.6079 6.39206C20.9652 6.39206 21.1566 6.28458 21.3353 5.97479C22.069 4.67875 22.8027 3.3827 23.5938 2.12458C24.7678 0.27218 27.0838 -0.473838 29.1191 0.284824C31.1735 1.04981 32.3985 3.07923 32.0986 5.24774C32.0475 5.61443 31.9582 5.97479 31.8753 6.37941C33.2087 6.37941 34.4975 6.37941 35.7927 6.37941C40.2269 6.37941 44.6611 6.37941 49.089 6.37941C51.0477 6.37941 52.362 7.372 52.9043 9.19911C52.9234 9.26233 52.9681 9.31291 53.0064 9.36981L53 9.38245ZM17.6858 27.3438C17.6986 27.3754 17.7177 27.4133 17.7305 27.4449H18.2983C25.1825 27.4449 32.0603 27.4449 38.9445 27.4449C39.1168 27.4449 39.289 27.4323 39.4613 27.4449C39.9398 27.4892 40.2524 27.7421 40.3928 28.2036C40.6097 28.937 40.0738 29.4933 39.1295 29.4933C30.7141 29.4933 22.2923 29.4933 13.8769 29.4933C12.9007 29.4933 12.5434 29.133 12.5434 28.153C12.5434 25.9972 12.5243 23.8476 12.5562 21.6918C12.5562 21.2871 12.6774 20.8383 12.8815 20.4905C15.0827 16.6656 17.3158 12.8597 19.5361 9.04738C19.6381 8.87668 19.7275 8.69333 19.8614 8.44677C19.6254 8.44677 19.4595 8.44677 19.2936 8.44677C14.5149 8.44677 9.73612 8.44677 4.95738 8.44677C3.13266 8.44677 2.06717 9.50257 2.06717 11.3107C2.06717 19.1376 2.06717 26.9645 2.06717 34.7976V35.335H50.9328C50.9328 35.1707 50.9328 35.0569 50.9328 34.9367C50.9328 26.7179 50.9328 18.4927 50.9328 10.2739C50.9328 9.09795 50.2565 8.45309 49.0571 8.45309C43.1044 8.45309 37.1581 8.45309 31.2054 8.44045C30.7907 8.44045 30.5674 8.56689 30.3632 8.92726C27.2433 14.3138 24.1106 19.6939 20.9588 25.0678C20.7547 25.4155 20.4229 25.7316 20.0784 25.9529C19.3064 26.4524 18.4897 26.8823 17.6922 27.3438H17.6858ZM50.9201 37.5099H2.07355C2.07355 38.4139 2.04165 39.2864 2.07993 40.1525C2.11183 40.8796 2.43722 41.4992 3.00505 41.9797C3.60479 42.4918 4.31299 42.6119 5.07861 42.6119C19.3574 42.6119 33.6426 42.6119 47.9214 42.6119C48.0618 42.6119 48.1957 42.6119 48.3361 42.6119C49.7461 42.5297 50.8052 41.5814 50.9073 40.2094C50.9711 39.3307 50.9201 38.4392 50.9201 37.5162V37.5099ZM19.485 23.4809C22.3306 18.6002 25.1315 13.7827 27.9579 8.9399C26.4649 8.0864 25.0038 7.25188 23.5045 6.39206C20.6781 11.2412 17.8645 16.0713 15.0317 20.9331C16.5246 21.7866 17.9857 22.6211 19.485 23.4809ZM31.4287 44.6982H21.4437C21.348 46.4494 21.2523 48.1564 21.1566 49.8887H31.7732C31.6584 48.1564 31.5435 46.4494 31.4287 44.6982ZM24.5445 4.59023C26.063 5.45637 27.5176 6.2909 29.0106 7.1444C29.3232 6.58805 29.655 6.08859 29.8847 5.54489C30.3759 4.3816 29.8783 3.02865 28.7745 2.40908C27.6516 1.77686 26.2225 2.05504 25.4568 3.0982C25.1251 3.54707 24.8699 4.05285 24.5445 4.59023ZM14.6871 26.661C15.7462 26.0541 16.7224 25.4977 17.7751 24.8908C16.7224 24.2902 15.7335 23.7275 14.6871 23.1269V26.661Z" fill="#F83636"/>
<path d="M34.0063 23.3163C32.2836 23.3163 30.561 23.3163 28.832 23.3163C28.1429 23.3163 27.6835 22.9306 27.6389 22.3553C27.6006 21.8242 27.926 21.3817 28.4555 21.2742C28.6724 21.23 28.9021 21.2236 29.1254 21.2236C32.3985 21.2236 35.6779 21.2236 38.9509 21.2236C39.9271 21.2236 40.4375 21.584 40.4438 22.2605C40.4438 22.9369 39.9207 23.3163 38.9637 23.3163C37.3112 23.3163 35.6523 23.3163 33.9999 23.3163H34.0063Z" fill="#F83636"/>
</g>
<defs>
<clipPath id="clip0_159_1275">
<rect width="53" height="52" fill="white"/>
</clipPath>
</defs>
</svg>
