<svg width="79" height="79" viewBox="0 0 79 79" fill="none" xmlns="http://www.w3.org/2000/svg">
<rect width="79" height="79" rx="15" fill="#D9D9D9" fill-opacity="0.25"/>
<path d="M39.4168 19.1758C40.1753 19.309 40.9338 19.4218 41.682 19.5858C44.2547 20.1598 46.4995 21.3693 48.406 23.1732C50.5379 25.1822 51.9422 27.6422 52.6494 30.4814C53.0697 32.1727 53.1619 33.8946 52.9467 35.6474C52.6289 38.2201 51.7064 40.5468 50.1792 42.6173C48.1292 45.3848 45.454 47.3118 42.0818 48.1318C36.3111 49.5257 31.3091 48.0805 27.2707 43.7243C25.1079 41.3771 23.9292 38.5378 23.6217 35.3399C23.3654 32.6339 23.8472 30.0612 25.0157 27.6115C25.0669 27.509 25.1284 27.4065 25.2412 27.3142C25.2104 27.7139 25.1797 28.1239 25.1694 28.5237C25.0977 30.1124 25.3129 31.6499 25.8869 33.1464C25.9587 33.3309 25.9689 33.5461 25.9689 33.7409C25.9279 38.9273 29.0951 43.5296 33.9536 45.3745C38.6173 47.1375 43.8755 45.928 47.258 42.2688C49.0414 40.3418 50.1074 38.0459 50.4149 35.4116C50.8864 31.3322 49.6667 27.8369 46.7045 24.9977C44.7775 23.1425 42.4303 22.0868 39.755 21.769C36.9671 21.4308 34.3738 21.9638 31.9549 23.3885C31.8831 23.4295 31.7601 23.4807 31.6986 23.4602C30.8786 23.081 30.0689 22.6915 29.1976 22.2713C30.7556 21.0925 32.3854 20.2418 34.1996 19.7703C35.1118 19.5345 36.0548 19.4218 36.9876 19.2578C37.0901 19.2373 37.1926 19.2065 37.2951 19.186C38.0023 19.186 38.7095 19.186 39.4065 19.186L39.4168 19.1758Z" fill="#24419A"/>
<path d="M27.7527 23.1426C30.1819 24.2803 32.5804 25.3668 34.6201 27.058C37.2031 29.19 38.6791 31.896 38.9455 35.258C39.0993 37.2669 38.7918 39.2144 38.2998 41.2644C38.1563 40.9979 38.0743 40.7929 37.9513 40.6187C37.0288 39.3272 36.1063 38.0357 35.1736 36.7647C33.9846 35.1657 32.7956 33.5667 31.9859 31.732C31.7706 31.2503 31.5964 30.7378 31.3811 30.2458C31.6374 34.069 33.6156 37.1542 35.6451 40.2599C35.1018 39.9832 34.5483 39.7167 34.0051 39.4194C32.2934 38.4969 30.6944 37.4002 29.4029 35.9242C27.8347 34.151 26.9122 32.0907 26.7277 29.7025C26.5534 27.4475 27.0249 25.2951 27.7629 23.1426H27.7527Z" fill="#24419A"/>
<path d="M43.0845 49.3208C45.2062 48.0909 47.2869 46.8916 49.3984 45.6719C51.0281 48.4906 52.6374 51.2683 54.2774 54.1178C52.1761 55.3273 50.0954 56.5368 47.9634 57.7668C46.3337 54.948 44.7142 52.1498 43.0742 49.3208H43.0845Z" fill="#24419A"/>
<path d="M50.0241 33.8942C49.1939 38.6092 46.1394 41.0281 40.9017 40.3824C42.8185 39.4599 44.6122 38.5067 45.8319 36.7642C43.9357 38.3734 41.486 38.9064 39.3027 40.1364C39.436 39.7366 39.5282 39.3779 39.6615 39.0397C40.3687 37.1127 41.4655 35.5034 43.3822 34.5707C44.6942 33.9352 46.0984 33.7712 47.5334 33.7917C48.3534 33.802 49.1836 33.8635 50.0344 33.9045L50.0241 33.8942Z" fill="#24419A"/>
<path d="M54.936 55.2969C55.9507 57.0086 55.3255 59.3558 53.6035 60.3398C51.8303 61.3546 49.5446 60.7396 48.6016 58.9663C50.7028 57.7466 52.804 56.5269 54.936 55.2969Z" fill="#24419A"/>
</svg>
