<svg width="64" height="65" viewBox="0 0 64 65" fill="none" xmlns="http://www.w3.org/2000/svg">
<path d="M61.0192 17.8131C60.3253 15.2005 58.281 13.1429 55.6853 12.4446C50.9804 11.1758 32.1145 11.1758 32.1145 11.1758C32.1145 11.1758 13.2487 11.1758 8.54375 12.4446C5.94807 13.143 3.90374 15.2005 3.20989 17.8131C1.94922 22.5485 1.94922 32.4286 1.94922 32.4286C1.94922 32.4286 1.94922 42.3087 3.20989 47.0441C3.90374 49.6567 5.94807 51.6286 8.54375 52.3268C13.2487 53.5957 32.1145 53.5957 32.1145 53.5957C32.1145 53.5957 50.9803 53.5957 55.6853 52.3268C58.281 51.6286 60.3253 49.6567 61.0192 47.0441C62.2798 42.3087 62.2798 32.4286 62.2798 32.4286C62.2798 32.4286 62.2798 22.5485 61.0192 17.8131ZM25.9443 41.399V23.4582L41.7125 32.4288L25.9443 41.399Z" fill="#FF0000"/>
</svg>
