<svg width="207" height="34" viewBox="0 0 207 34" fill="none" xmlns="http://www.w3.org/2000/svg">
<path d="M6.42157 0.863281V15.0189L14.6238 0.863281H22.0476L12.5768 17.1236L23.5756 32.8649H15.7482L6.42157 19.4444V32.8649H0.00683594V0.863281H6.42157Z" fill="black"/>
<path d="M50.6472 5.38902C56.9322 11.7317 56.8745 21.952 50.5462 28.237C44.2036 34.522 33.9833 34.4643 27.6983 28.1361C21.4133 21.7934 21.4709 11.5731 27.7992 5.28811C30.8263 2.28976 34.9058 0.617608 39.1727 0.617608C43.4972 0.559947 47.6488 2.28976 50.6472 5.40343V5.38902ZM32.2823 9.95862C28.4767 13.7498 28.4767 19.9195 32.2679 23.7251C32.2679 23.7251 32.2679 23.7251 32.2823 23.7395C36.0879 27.5451 42.2575 27.5451 46.0631 23.7395C49.8687 19.9339 49.8687 13.7642 46.0631 9.95862C42.2575 6.15302 36.0879 6.15302 32.2823 9.95862Z" fill="black"/>
<path d="M62.3233 0.863281L68.1615 11.9629L73.9996 0.863281H81.2792L71.3472 19.1417V32.8649H64.9469V19.1417L55.0437 0.863281H62.3089H62.3233Z" fill="black"/>
<path d="M105.511 20.2228V0.863281H111.984V20.2372C111.984 27.3871 106.189 33.182 99.0388 33.182C91.8889 33.182 86.094 27.3871 86.094 20.2372V0.863281H92.5664V20.2228C92.624 23.7978 95.5647 26.652 99.1397 26.5943C102.643 26.5366 105.468 23.7113 105.511 20.2228Z" fill="black"/>
<path d="M137.268 18.5504V0.790983H143.726V33.5278L124.424 15.1485V32.9223H117.995V0.185547L137.268 18.5504Z" fill="black"/>
<path d="M164.743 33.0806C155.777 33.0806 148.497 25.8154 148.497 16.8347C148.497 7.85409 155.762 0.588867 164.743 0.588867V0.660942C169.039 0.675358 173.161 2.37634 176.232 5.40352L171.648 9.98753C169.846 8.12798 167.352 7.10451 164.757 7.13334C162.163 7.09009 159.683 8.12798 157.896 9.98753C154.09 13.7787 154.09 19.9484 157.881 23.754C157.881 23.754 157.881 23.754 157.896 23.7684C161.716 27.5596 167.871 27.5452 171.677 23.754L176.261 28.338C173.205 31.394 169.067 33.095 164.743 33.0662V33.0806Z" fill="black"/>
<path d="M200.492 20.2228V0.863281H206.965V20.2372C206.965 27.3871 201.17 33.182 194.02 33.182C186.87 33.182 181.075 27.3871 181.075 20.2372V0.863281H187.548V20.2228C187.605 23.7978 190.546 26.652 194.121 26.5943C197.624 26.5366 200.449 23.7113 200.492 20.2228Z" fill="black"/>
</svg>
