<svg width="14" height="16" viewBox="0 0 14 16" fill="none" xmlns="http://www.w3.org/2000/svg">
<path d="M8.22964 15.3177H1.75819C1.71768 15.3041 1.67793 15.2889 1.63703 15.2774C1.04669 15.1103 0.661609 14.5924 0.661223 13.9575C0.660452 9.75484 0.660452 5.55222 0.661223 1.34959C0.661223 0.594742 1.23344 0.0045287 1.96115 0.00133188C2.35124 -0.000266536 2.74095 0.000932272 3.13104 0.00133188C3.17232 0.00133188 3.21323 0.00692636 3.26068 0.0101232C3.26068 0.172762 3.25644 0.322213 3.26145 0.471265C3.28306 1.1378 3.73103 1.68206 4.36382 1.76598C4.68639 1.80874 5.01668 1.79395 5.34349 1.79435C6.17191 1.79595 6.72598 1.21892 6.72753 0.359776C6.72753 0.242292 6.72753 0.124809 6.72753 0.000532804C7.17164 0.000532804 7.59492 -0.000666005 8.01781 0.000532804C8.75593 0.00333002 9.32352 0.590347 9.32622 1.35519C9.32815 1.91343 9.3266 2.47208 9.32622 3.03032C9.32622 3.07348 9.3212 3.11664 9.31811 3.17018C9.25715 3.17018 9.20506 3.17018 9.15297 3.17018C8.63285 3.17018 8.11311 3.16619 7.59299 3.17138C6.78656 3.17897 6.08509 3.73442 5.92303 4.54841C5.84934 4.91845 5.87596 5.31045 5.86014 5.69248C5.8532 5.86151 5.90992 6.0657 5.83699 6.19038C5.76484 6.31386 5.56536 6.35701 5.42143 6.43534C5.40021 6.44693 5.37822 6.45771 5.35738 6.4701C4.91674 6.73064 4.67366 7.11786 4.67019 7.64853C4.66671 8.1856 4.90748 8.58041 5.35391 8.84334C5.48741 8.92207 5.62593 8.9924 5.766 9.05753C5.83854 9.0911 5.86207 9.13426 5.86091 9.21577C5.85667 9.57462 5.8586 9.93346 5.85899 10.2927C5.86092 11.3556 6.62026 12.1437 7.64585 12.1465C8.15131 12.1477 8.65677 12.1465 9.16223 12.1465C9.21316 12.1465 9.26448 12.1465 9.32545 12.1465C9.32545 12.7774 9.32815 13.3896 9.32467 14.0018C9.32159 14.5693 8.94384 15.0879 8.4187 15.2558C8.35504 15.2762 8.29176 15.2965 8.22848 15.3169L8.22964 15.3177ZM4.97925 13.4931C5.12356 13.4931 5.26748 13.4967 5.41179 13.4923C5.6649 13.4847 5.86014 13.2873 5.86014 13.044C5.86014 12.8006 5.6649 12.6008 5.41179 12.596C5.13321 12.5912 4.85424 12.5912 4.57565 12.596C4.32254 12.6004 4.1273 12.8006 4.1273 13.044C4.1273 13.2877 4.32215 13.4847 4.57565 13.4923C4.70993 13.4963 4.84459 13.4931 4.97925 13.4931Z" fill="#144973"/>
<path d="M10.1967 4.06987C11.0533 4.06987 11.9102 4.06907 12.7668 4.06987C13.2877 4.07027 13.6597 4.45269 13.6601 4.98936C13.6608 6.76879 13.6608 8.54782 13.6601 10.3273C13.6601 10.8643 13.2881 11.2483 12.7684 11.2483C11.0502 11.2491 9.33163 11.2491 7.61345 11.2483C7.10335 11.2483 6.72908 10.8619 6.72792 10.336C6.72676 9.78299 6.72561 9.22954 6.72947 8.67649C6.73024 8.58978 6.70516 8.54302 6.62876 8.50546C6.35597 8.36999 6.0878 8.22414 5.81501 8.08788C5.63867 7.99996 5.52871 7.8637 5.52832 7.6595C5.52832 7.4553 5.63713 7.31904 5.81385 7.23113C6.0824 7.09766 6.34555 6.9522 6.61448 6.81994C6.70014 6.77758 6.73101 6.72843 6.72985 6.62813C6.72445 6.07987 6.72638 5.53162 6.72753 4.98336C6.72869 4.45589 7.10142 4.07067 7.61151 4.06987C8.47311 4.06867 9.33471 4.06987 10.1963 4.06987H10.1967ZM8.74784 9.05212C8.74089 9.43733 9.06269 9.65712 9.36867 9.50726C9.61137 9.38818 9.84943 9.25791 10.0844 9.12285C10.167 9.07529 10.2287 9.08089 10.3078 9.12524C10.5312 9.25112 10.7593 9.3682 10.9846 9.49048C11.1474 9.57879 11.3099 9.58319 11.4611 9.4729C11.6189 9.35781 11.6648 9.19038 11.6336 8.99817C11.5915 8.73843 11.541 8.47989 11.5086 8.21895C11.5005 8.15341 11.529 8.0619 11.573 8.01355C11.7571 7.81015 11.9558 7.62114 12.1437 7.42134C12.2625 7.29506 12.3084 7.14321 12.2502 6.96899C12.1935 6.79836 12.0808 6.69526 11.9079 6.66729C11.6567 6.62653 11.4052 6.58537 11.1532 6.54901C11.0483 6.53382 10.9715 6.50185 10.9229 6.38757C10.8249 6.1558 10.7076 5.93282 10.5995 5.70544C10.5173 5.53282 10.3862 5.4433 10.1986 5.44171C10.0049 5.44011 9.87066 5.53082 9.78615 5.70984C9.67889 5.93761 9.56121 6.16059 9.46205 6.39156C9.41574 6.49905 9.34668 6.53542 9.24443 6.5494C8.9971 6.58377 8.75092 6.62573 8.50398 6.66209C8.31993 6.68927 8.19569 6.78957 8.13665 6.97338C8.07646 7.1616 8.13897 7.31424 8.26707 7.44651C8.44803 7.63273 8.6263 7.82174 8.81266 8.00116C8.88674 8.07229 8.8987 8.14142 8.88096 8.23893C8.82964 8.52184 8.7872 8.80676 8.74784 9.05212V9.05212Z" fill="#144973"/>
<path d="M4.12771 0.00488281H5.85129C5.85129 0.189899 5.8702 0.374116 5.84628 0.552339C5.81888 0.757335 5.63676 0.894399 5.43188 0.896796C5.13863 0.899993 4.845 0.900792 4.55176 0.896796C4.31446 0.8936 4.13427 0.705387 4.12848 0.46043C4.12501 0.308581 4.12771 0.156732 4.12771 0.00528235V0.00488281Z" fill="#144973"/>
<path d="M9.48755 7.3963C9.85218 7.41708 10.0771 7.23566 10.1937 6.87402C10.309 7.24006 10.5398 7.42068 10.904 7.3979C10.7979 7.54695 10.6729 7.66084 10.6285 7.8019C10.5837 7.94376 10.6185 8.11239 10.6185 8.29261C10.3387 8.07483 10.0497 8.06084 9.77192 8.29861C9.77192 8.11919 9.80665 7.95095 9.76227 7.80909C9.7179 7.66684 9.59481 7.55135 9.48755 7.3967V7.3963Z" fill="#144973"/>
</svg>
