<svg width="13" height="14" viewBox="0 0 13 14" fill="none" xmlns="http://www.w3.org/2000/svg">
<path d="M0 8.61966V0.388689C0.107873 0.112203 0.309038 0.0201585 0.590932 0.0208611C3.41768 0.0264822 6.24476 0.0268334 9.0715 0.0205098C9.37986 0.0198071 9.62953 0.209518 9.62817 0.592101C9.61935 3.19535 9.61969 5.7986 9.62817 8.40185C9.62919 8.73244 9.42769 8.97344 9.08406 8.96922C7.96292 8.95622 6.84112 8.96571 5.71998 8.9629C5.5826 8.9629 5.46658 9.00084 5.35464 9.08375C4.40956 9.78498 3.46212 10.4834 2.515 11.1822C2.48617 11.2036 2.45462 11.2208 2.41154 11.2486C2.41154 10.6208 2.41188 10.0123 2.41154 9.4038C2.41154 9.09781 2.28229 8.96501 1.98479 8.96466C1.52345 8.96395 1.06177 8.95201 0.601102 8.96922C0.319208 8.97976 0.11805 8.88842 0 8.62002V8.61966ZM4.81867 1.95802C3.84985 1.95802 2.88137 1.95661 1.91254 1.95872C1.51497 1.95977 1.27921 2.20113 1.27853 2.61111C1.27616 3.86847 1.27616 5.12583 1.27853 6.38284C1.27921 6.79423 1.52481 7.04191 1.92441 7.04191C3.84916 7.04261 5.77358 7.04261 7.69833 7.04191C8.09827 7.04191 8.34456 6.79563 8.34524 6.38389C8.34795 5.12653 8.34863 3.86917 8.34252 2.61217C8.34184 2.49061 8.30961 2.35711 8.25432 2.25031C8.13932 2.02863 7.93783 1.95556 7.69935 1.95626C6.73901 1.95977 5.77901 1.95766 4.81867 1.95766V1.95802Z" fill="#144973"/>
<path d="M10.3087 1.9397C10.3626 1.93689 10.4037 1.93302 10.4447 1.93302C11.1218 1.93267 11.7985 1.93232 12.4756 1.93302C12.825 1.93337 13.0001 2.11395 13.0001 2.47194C13.0001 5.0924 13.0001 7.71252 13.0001 10.333C13.0001 10.6836 12.8165 10.8737 12.4729 10.8747C11.9821 10.8761 11.4912 10.8747 11.0004 10.8754C10.7147 10.8754 10.5896 11.004 10.5892 11.298C10.5885 11.8633 10.5892 12.4286 10.5892 12.9938V13.1562C10.5265 13.1126 10.4817 13.0834 10.4383 13.0515C9.51218 12.3678 8.58541 11.6852 7.66103 10.9984C7.5457 10.9127 7.42868 10.8726 7.28587 10.8733C6.28719 10.8775 5.28886 10.8754 4.29018 10.8754H4.12158C4.17552 10.8283 4.20097 10.803 4.22946 10.782C4.70098 10.4335 5.17182 10.0842 5.6464 9.74031C5.70033 9.70131 5.77632 9.67637 5.84213 9.67602C6.92934 9.67216 8.01688 9.67356 9.10409 9.67321C9.81408 9.67321 10.307 9.1638 10.3077 8.42534C10.309 6.31779 10.308 4.2099 10.308 2.10236C10.308 2.05106 10.308 1.99942 10.308 1.9404L10.3087 1.9397Z" fill="#144973"/>
<path d="M7.66167 3.09961V6.32363H1.9668V3.09961C1.99563 3.12034 2.01972 3.13404 2.04007 3.15231C2.86133 3.90377 3.68225 4.65524 4.50249 5.40775C4.743 5.62838 4.87971 5.62873 5.11852 5.41056C5.93062 4.66823 6.74341 3.92696 7.55653 3.18568C7.58434 3.16039 7.61486 3.1379 7.66167 3.09961Z" fill="#144973"/>
<path d="M4.81247 4.75065C4.05736 4.05926 3.30734 3.37279 2.53662 2.66699H7.09646C6.32304 3.37279 5.56962 4.05996 4.81247 4.75065Z" fill="#144973"/>
</svg>
