<svg width="146" height="145" viewBox="0 0 146 145" fill="none" xmlns="http://www.w3.org/2000/svg">
<g clip-path="url(#clip0_486_3043)">
<path d="M128.226 124.797C124.432 128.695 121.037 130.986 118.437 132.715C93.0883 149.583 64.1111 144.722 55.1522 143.06C40.6981 140.379 28.4967 138.487 18.0136 129.049C-5.80779 107.601 -4.64901 62.8588 13.5531 35.1436C15.7112 31.8573 33.8858 5.00901 62.9258 1.22607C63.6362 1.13337 64.1662 1.08107 64.6302 1.03187C69.1224 0.558032 96.9611 -1.94374 119.661 17.0088C122.91 19.7219 128.139 24.6151 132.988 32.079C150.718 59.3685 150.775 101.634 128.226 124.798V124.797Z" fill="url(#paint0_linear_486_3043)"/>
<path d="M46.1148 67.6012C49.641 60.7743 56.2003 55.9618 63.8191 55.1022L64.3403 22.2317C64.345 21.9511 64.1158 21.7196 63.8342 21.7227C42.3454 21.9547 23.3846 35.2833 14.5352 55.0256C14.4064 55.313 14.5488 55.6496 14.8439 55.7614L46.1148 67.6017V67.6012Z" fill="#91B3FA"/>
<path d="M88.5764 83.349C88.1352 83.3371 87.7403 83.6172 87.6088 84.0367C87.2399 85.2122 86.5654 87.467 86.4547 87.7523C85.9174 89.1397 85.2882 90.4923 84.5513 91.7859C83.1847 94.1841 81.4366 96.3824 79.2797 98.1229C73.8137 102.534 65.9563 103.354 59.4022 101.171C59.2152 101.108 59.0302 101.042 58.8457 100.973C58.5043 100.845 58.1213 100.987 57.9457 101.305L41.4199 131.34C49.4445 135.35 56.9963 136.399 66.4703 135.794C93.9966 134.036 115.611 111.762 118.01 84.1403L88.5759 83.3495L88.5764 83.349Z" fill="#7D97F4"/>
<path d="M88.5764 83.3492C86.7847 94.3096 78.6566 102.874 67.6119 103.248C64.5045 103.353 60.7974 102.634 58.0715 101.533C57.7872 101.418 57.4614 101.534 57.3076 101.798L40.3214 130.92C48.3461 134.93 57.4079 136.894 66.8818 136.288C94.4082 134.53 116.023 111.58 118.422 83.9587L88.5764 83.3486V83.3492Z" fill="#91B3FA"/>
<path d="M36.7806 126.323L53.2275 96.9238C53.3438 96.7156 53.2945 96.4557 53.1116 96.3024C48.0483 92.0529 43.9999 86.3554 43.9999 78.9666C43.9999 77.1443 43.1892 74.4918 43.5608 72.7824L12.6303 61.7598C10.9134 67.3257 9.98639 73.2495 9.98639 79.3876C9.98639 99.2304 20.5661 116.683 35.0918 126.715C35.6598 127.107 36.4439 126.924 36.7801 126.323H36.7806Z" fill="#91B3FA"/>
<path d="M35.136 125.487L52.1799 96.4515C52.3966 96.0827 52.3217 95.6125 52.0001 95.3303C47.1109 91.0445 44.0004 84.6029 44.0004 77.3342C44.0004 75.5119 44.1978 73.7357 44.5694 72.0257L13.0938 60.2999C12.8433 60.2066 12.5638 60.3433 12.4874 60.5987C10.8625 66.0273 9.98691 71.7901 9.98691 77.7553C9.98691 98.0806 20.0641 115.583 35.1365 125.486L35.136 125.487Z" fill="#7D97F4"/>
<path d="M69.8489 55.258C79.6049 56.884 87.1702 65.0708 88.4522 75.3016C88.5208 75.849 88.9739 76.2669 89.5273 76.2855L136.713 77.8614C136.86 77.7195 136.937 77.6449 137.084 77.5035C136.939 38.164 108.635 4.46082 70.7203 0L69.8489 55.258Z" fill="url(#paint1_linear_486_3043)"/>
<path d="M105.565 33.0657C110.024 28.6214 110.024 21.4157 105.565 16.9714C101.105 12.527 93.8747 12.527 89.4151 16.9714C84.9555 21.4157 84.9555 28.6214 89.4151 33.0657C93.8747 37.5101 101.105 37.5101 105.565 33.0657Z" fill="#91B3FA"/>
<path d="M104.725 32.3696C108.781 28.3275 108.781 21.774 104.725 17.7319C100.669 13.6899 94.0933 13.6898 90.0374 17.7319C85.9815 21.774 85.9815 28.3275 90.0374 32.3696C94.0933 36.4117 100.669 36.4117 104.725 32.3696Z" fill="white"/>
<path d="M91.7201 35.2136C91.8838 34.4565 92.0132 33.9614 92.0132 33.9614L89.1261 29.0889C89.1261 29.0889 88.1918 30.0314 87.6317 34.1385C87.5543 34.7071 87.998 35.2141 88.5738 35.2141H91.7201V35.2136Z" fill="#7D97F4"/>
<path d="M107.335 34.1218C106.533 30.561 105.106 28.9033 105.106 28.9033L103.299 34.8685C103.299 34.8685 103.354 34.9861 103.437 35.2134H106.458C107.034 35.2134 107.461 34.6816 107.335 34.1218Z" fill="#7D97F4"/>
<path d="M91.6983 35.2131C94.6659 36.3011 98.6988 36.1488 103.405 35.2131C103.515 34.7589 103.665 34.27 103.864 33.7077L105.106 28.9014C103.366 27.3463 100.92 26.8331 99.9786 26.6871C97.7915 26.1464 95.2354 26.6254 95.2354 26.6254C91.7695 26.8662 89.1272 29.0827 89.1272 29.0827L91.2748 33.9531C91.4442 34.3627 91.5861 34.7838 91.6988 35.2125L91.6983 35.2131Z" fill="#7D97F4"/>
<path d="M95.6787 24.2773L95.6049 26.7051C95.5976 26.9453 95.7468 27.1613 95.9744 27.2416C96.5974 27.4606 97.8866 27.7936 99.1083 27.3576C99.3546 27.2695 99.5032 27.0184 99.4652 26.76L99.0989 24.2779H95.6787V24.2773Z" fill="url(#paint2_linear_486_3043)"/>
<path d="M94.7766 20.2016C94.7766 20.2016 94.9195 23.4812 95.4921 24.7644C96.0643 26.0477 97.4953 26.0477 97.6382 26.0477C97.7811 26.0477 99.0688 25.7623 99.7843 24.622C100.5 23.4812 100.786 19.7738 100.786 19.7738C100.786 19.7738 99.498 18.3482 97.7811 18.2052C96.0643 18.0628 94.7766 19.4885 94.7766 20.2016Z" fill="url(#paint3_linear_486_3043)"/>
<path d="M100.162 21.3853C100.162 21.3853 100.818 20.4039 101.146 20.7307C101.475 21.058 100.818 23.1843 100.162 23.1843C99.5052 23.1843 100.162 21.3847 100.162 21.3847V21.3853Z" fill="url(#paint4_linear_486_3043)"/>
<path d="M95.237 21.5494C95.237 21.5494 94.416 20.4044 94.0881 20.7317C93.7602 21.059 94.5807 23.1853 95.237 23.1853V21.5494Z" fill="url(#paint5_linear_486_3043)"/>
<path d="M101.191 19.3985C101.196 19.1768 101.183 18.9474 101.172 18.6859C101.16 18.4249 101.185 18.1634 101.213 17.9034C101.293 17.1536 100.508 16.5601 99.7978 16.7481C99.7432 16.7626 99.684 16.7812 99.6315 16.7605C99.5655 16.7346 99.5364 16.6601 99.5099 16.5943C99.3457 16.1862 98.9087 15.6585 98.4956 15.4861C98.1402 15.3375 97.7473 15.2758 97.3638 15.3193C96.5912 15.4074 95.8813 15.9211 95.5586 16.6264C95.5405 16.6663 95.5212 16.7087 95.4843 16.732C95.4506 16.7533 95.409 16.7543 95.369 16.7548C94.9819 16.76 94.5355 16.6756 94.2081 16.9128C93.9306 17.1142 93.728 17.4275 93.7082 17.774C93.6869 18.1525 93.8501 18.5145 94.0185 18.8547C94.1203 19.0608 94.2274 19.296 94.1458 19.5109C94.1208 19.5766 94.0793 19.6352 94.0476 19.6978C93.6947 20.3954 94.6212 21.0815 94.7922 21.7071C94.9221 22.182 95.0515 22.6568 95.1814 23.1312C95.2391 22.8283 95.2557 22.517 95.2297 22.2094C95.1944 21.7858 95.0795 21.3679 95.0946 20.9433C95.1055 20.6377 95.1762 20.3363 95.3175 20.0639C95.4532 19.8024 95.7005 19.6869 95.8855 19.458C96.0565 19.617 96.243 19.7838 96.4748 19.8174C96.6203 19.8387 96.7683 19.804 96.9086 19.76C97.1212 19.6937 97.4231 19.4544 97.6294 19.4384C97.8351 19.4223 97.9069 19.6377 98.043 19.7517C98.4213 20.0681 99.0656 20.1561 99.5193 19.9671C99.4143 20.0111 100.028 21.1525 100.048 21.256C100.165 21.8635 100.236 22.4797 100.259 23.0981C100.308 23.1338 100.363 23.0608 100.379 23.0028C100.491 22.5911 100.525 22.1628 100.598 21.7423C100.679 21.2674 100.872 20.8195 101.027 20.3653C101.148 20.0111 101.187 19.7123 101.192 19.399L101.191 19.3985Z" fill="url(#paint6_linear_486_3043)"/>
<path d="M127.528 26.6423C131.614 22.5699 131.614 15.9672 127.528 11.8948C123.442 7.82236 116.816 7.82236 112.73 11.8948C108.644 15.9672 108.644 22.5699 112.73 26.6423C116.816 30.7147 123.442 30.7147 127.528 26.6423Z" fill="#91B3FA"/>
<path d="M120.03 28.7845C125.286 28.7845 129.547 24.5382 129.547 19.3C129.547 14.0618 125.286 9.81543 120.03 9.81543C114.773 9.81543 110.513 14.0618 110.513 19.3C110.513 24.5382 114.773 28.7845 120.03 28.7845Z" fill="white"/>
<path d="M117.989 17.24C117.387 17.24 116.762 17.3166 116.526 16.5932C116.081 15.2312 116.828 13.1945 118.051 12.4529C118.46 12.2049 118.937 12.0961 119.407 12.0024C119.959 11.8921 120.436 11.8646 120.934 12.1313C121.393 12.3773 121.839 11.9817 122.315 12.2981C122.72 12.5668 123.031 12.9899 123.247 13.4172C123.529 13.9754 123.676 14.5912 123.799 15.2043C123.827 15.3431 123.854 15.487 123.822 15.6253C123.796 15.7413 123.731 15.8438 123.667 15.9438C123.173 16.7061 122.516 17.2405 121.565 17.2405H117.989V17.24Z" fill="url(#paint7_linear_486_3043)"/>
<path d="M117.868 14.8419C117.868 14.8419 117.977 15.0692 117.267 15.4244C116.872 15.6228 116.102 15.9154 116 16.7709C115.948 17.2126 115.775 18.3027 115.353 18.37C114.303 18.5378 112.886 19.1908 112.754 20.4606C112.602 21.9179 113.023 22.6832 113.767 22.8733C114.314 23.0131 114.452 23.1597 114.342 23.7355C114.236 24.2881 114.656 26.2704 115.573 26.7754C117.629 27.9069 119.42 22.7506 119.42 22.7506L119.84 16.093L117.868 14.8408V14.8419Z" fill="url(#paint8_linear_486_3043)"/>
<path d="M122.572 14.2598C122.572 14.2598 122.462 14.5006 123.184 14.8771C123.587 15.0868 124.37 15.397 124.474 16.3037C124.527 16.7714 124.652 17.4291 125.081 17.5005C126.15 17.6787 127.389 18.7164 127.653 20.7319C127.854 22.27 127.415 23.9199 126.656 24.1218C126.1 24.2699 126.142 23.9763 126.254 24.5864C126.362 25.1715 126.109 24.9457 125.175 25.4807C123.082 26.6795 120.993 22.6402 120.993 22.6402L120.564 15.587L122.573 14.2603L122.572 14.2598Z" fill="url(#paint9_linear_486_3043)"/>
<path d="M119.774 21.652C119.774 21.652 121.363 21.2439 121.7 21.7483C121.869 22.5867 121.956 23.4199 121.956 23.4199L120.125 23.7622L118.914 23.4847L118.627 23.3179L118.507 22.1299C118.507 22.1299 119.126 21.7721 119.774 21.6514L119.774 21.652Z" fill="url(#paint10_linear_486_3043)"/>
<path d="M117.869 17.4214C117.869 17.4214 117.613 16.6576 117.23 16.9124C116.847 17.1672 117.806 18.7917 117.806 18.7917L117.869 17.4214Z" fill="url(#paint11_linear_486_3043)"/>
<path d="M121.701 17.4213C121.701 17.4213 121.701 16.2758 122.339 16.9122C122.978 17.5487 121.701 18.4394 121.701 18.4394V17.4213Z" fill="url(#paint12_linear_486_3043)"/>
<path d="M127.715 27.8235C127.181 25.2513 126.413 23.241 126.171 23.125L124.721 26.6998C124.721 26.6998 124.428 27.765 124.452 29.0876H126.681C127.35 29.0876 127.851 28.476 127.715 27.8235Z" fill="url(#paint13_linear_486_3043)"/>
<path d="M116.554 29.0878C116.621 27.9386 116.592 27.2152 116.592 27.2152L114.548 23.9092C114.548 23.9092 114.292 24.9226 114.037 27.5958C114.025 27.7201 114.014 27.8464 114.003 27.9744C113.953 28.574 114.429 29.0878 115.032 29.0878H116.554H116.554Z" fill="url(#paint14_linear_486_3043)"/>
<path d="M119.383 29.0956H121.608L122.212 22.7751C122.212 22.7751 121.701 22.6441 121.445 21.7529C121.189 20.8621 121.062 19.0781 121.062 19.0781L118.763 19.5861C118.763 19.5861 119.019 22.0118 118.508 23.1573L119.383 29.0956Z" fill="url(#paint15_linear_486_3043)"/>
<path d="M122.809 29.0956L123.129 25.1055C120.799 26.4949 118.402 26.4276 115.971 25.6906L116.661 29.095H122.809V29.0956Z" fill="url(#paint16_linear_486_3043)"/>
<path d="M119.929 29.0876C119.239 25.7676 118.508 22.1338 118.508 22.1338L118.125 22.8956L114.549 23.9168C114.724 24.7308 115.259 26.9721 115.796 29.0876H119.93H119.929Z" fill="url(#paint17_linear_486_3043)"/>
<path d="M125.039 29.0884C125.23 28.0713 125.397 27.2774 125.397 27.2774L126.171 23.1253C125.927 22.8829 122.109 22.3609 122.109 22.3609L121.701 21.7529C121.701 21.7529 121.191 25.4463 120.755 29.0879H125.039L125.039 29.0884Z" fill="url(#paint18_linear_486_3043)"/>
<path d="M117.614 15.6391C117.614 15.6391 117.486 18.6939 117.87 19.203C118.252 19.712 118.763 20.8575 119.658 20.9849C120.551 21.1123 121.956 18.5665 121.956 18.4391C121.956 18.3117 121.829 15.0026 121.829 15.0026C121.829 15.0026 119.147 12.839 117.614 15.6391Z" fill="url(#paint19_linear_486_3043)"/>
<path d="M117.103 15.1298C117.103 15.1298 116.592 16.657 118.124 16.1479L119.657 15.6389C119.657 15.6389 121.189 14.7482 121.445 15.1298C121.7 15.5115 121.955 16.4519 121.955 16.4519C121.955 16.4519 122.466 15.1298 121.955 14.366C121.445 13.6022 118.251 12.9657 117.102 15.1298H117.103Z" fill="url(#paint20_linear_486_3043)"/>
<path d="M102.221 62.1497C108.751 62.1497 114.045 56.8741 114.045 50.3663C114.045 43.8586 108.751 38.583 102.221 38.583C95.6913 38.583 90.3977 43.8586 90.3977 50.3663C90.3977 56.8741 95.6913 62.1497 102.221 62.1497Z" fill="#91B3FA"/>
<path d="M102.109 61.1187C108.048 61.1187 112.863 56.3205 112.863 50.4016C112.863 44.4828 108.048 39.6846 102.109 39.6846C96.17 39.6846 91.3553 44.4828 91.3553 50.4016C91.3553 56.3205 96.17 61.1187 102.109 61.1187Z" fill="white"/>
<path d="M104.886 48.253C106.256 46.8879 106.256 44.6746 104.886 43.3095C103.516 41.9444 101.295 41.9444 99.9257 43.3095C98.5559 44.6746 98.5559 46.8879 99.9257 48.253C101.295 49.6181 103.516 49.6181 104.886 48.253Z" fill="url(#paint21_linear_486_3043)"/>
<path d="M99.0371 44.8047C97.4943 50.121 96.4457 54.9542 96.6156 56.313L101.113 55.8397L101.635 46.0061L99.0371 44.8047Z" fill="url(#paint22_linear_486_3043)"/>
<path d="M104.016 44.2561L103.399 56.2766L108.488 58.9772C108.381 54.869 106.275 44.3135 105.413 44.0303L104.016 44.2555L104.016 44.2561Z" fill="url(#paint23_linear_486_3043)"/>
<path d="M104.017 50.7656L104.165 54.039L100.979 54.5175L100.778 51.0805L104.017 50.7656Z" fill="url(#paint24_linear_486_3043)"/>
<path d="M105.528 48.7945C105.528 48.7945 104.765 52.1932 102.699 52.6018C100.633 53.0104 100.021 49.808 99.9116 49.5775C99.9116 49.5775 99.4496 49.7945 99.3457 49.3367C99.2418 48.8789 98.6972 47.7277 99.725 47.751C99.725 47.751 99.5229 46.6076 99.8783 46.0462C100.234 45.4849 100.95 44.1348 102.427 44.5103C103.904 44.8857 106.265 46.1239 105.528 48.794V48.7945Z" fill="url(#paint25_linear_486_3043)"/>
<path d="M104.115 52.9453L106.136 54.0131L103.49 56.9069L98.598 53.8402C99.3431 53.5631 100.076 53.1903 100.745 53.0794L104.115 52.9453Z" fill="url(#paint26_linear_486_3043)"/>
<path d="M99.8404 44.7102C99.1498 45.6724 99.6928 46.5263 99.5073 47.2176C100.176 46.9753 102.435 46.6133 103.115 46.6796C103.255 46.2192 102.98 45.4533 102.838 44.8495C103.058 45.4228 103.563 46.3005 103.509 46.7537C104.422 46.7956 104.235 46.808 105.261 47.2176L104.463 44.4419C102.684 43.6139 101.147 43.719 99.8409 44.7107L99.8404 44.7102Z" fill="url(#paint27_linear_486_3043)"/>
<path d="M103.241 41.4479C103.241 42.1155 102.611 42.8643 102.156 42.8643C101.782 42.8643 101.072 42.1155 101.072 41.4479C101.072 40.7804 101.557 40.2393 102.156 40.2393C102.756 40.2393 103.241 40.7804 103.241 41.4479Z" fill="url(#paint28_linear_486_3043)"/>
<path d="M107.586 61.2578L108.699 55.0912C107.185 54.0653 105.782 53.577 104.116 52.9473C103.599 54.0177 101.239 53.9115 100.746 53.0804C99.1758 53.4776 97.6819 54.2119 96.2373 55.1632L97.7593 61.2584H107.586V61.2578Z" fill="url(#paint29_linear_486_3043)"/>
<path d="M110.637 60.1669C109.736 56.3275 108.699 55.0908 108.699 55.0908L107.034 60.1384C107.034 60.1384 107.235 60.5413 107.498 61.2575H109.768C110.343 61.2575 110.768 60.7241 110.638 60.1669H110.637Z" fill="url(#paint30_linear_486_3043)"/>
<path d="M97.8695 61.2572C98.0534 60.5979 98.2992 59.9061 98.6182 59.1971L96.2368 55.1641C96.2368 55.1641 95.0619 57.1977 94.6732 60.2603C94.6062 60.7895 95.0224 61.2572 95.5576 61.2572H97.8695Z" fill="url(#paint31_linear_486_3043)"/>
<path d="M104.358 44.5029C105.538 47.4765 106.127 55.8637 105.406 60.2991C106.534 56.4271 107.94 51.5158 105.792 44.9115L104.358 44.5029Z" fill="url(#paint32_linear_486_3043)"/>
<path d="M126.98 52.1864C132.854 52.1864 137.617 47.4404 137.617 41.5859C137.617 35.7314 132.854 30.9854 126.98 30.9854C121.105 30.9854 116.343 35.7314 116.343 41.5859C116.343 47.4404 121.105 52.1864 126.98 52.1864Z" fill="#91B3FA"/>
<path d="M133.719 48.4353C137.497 44.6703 137.497 38.566 133.719 34.801C129.941 31.036 123.816 31.036 120.038 34.801C116.26 38.566 116.26 44.6703 120.038 48.4353C123.816 52.2004 129.941 52.2004 133.719 48.4353Z" fill="white"/>
<path d="M133.375 52.3219C133.914 52.3219 134.35 51.8843 134.346 51.3468C134.336 49.8072 134.305 48.455 134.233 47.7083C134.049 45.8026 133.034 45.1982 133.034 45.1982L132.517 52.3219H133.375Z" fill="url(#paint33_linear_486_3043)"/>
<path d="M130.878 52.3218C130.803 48.3312 130.729 45.0309 130.729 45.0309C128.916 43.919 122.221 44.0583 122.221 44.0583C122.221 44.0583 121.756 47.9081 121.226 52.3218H130.878Z" fill="url(#paint34_linear_486_3043)"/>
<path d="M119.822 52.322H126.052C125.852 50.3925 124.243 43.2549 124.243 43.2549L119.245 44.7789C119.245 44.7789 119.64 49.2289 119.64 50.6193C119.64 50.9378 119.73 51.5556 119.821 52.322H119.822Z" fill="url(#paint35_linear_486_3043)"/>
<path d="M120.009 52.3216C120.032 49.9695 119.989 45.6309 119.246 44.7842C119.246 44.7842 118.283 45.2782 117.307 48.4749C117.025 49.3978 116.769 50.2735 116.53 51.1077C116.357 51.7162 116.816 52.3211 117.45 52.3211H120.009L120.009 52.3216Z" fill="url(#paint36_linear_486_3043)"/>
<path d="M132.847 52.3221C133.027 48.939 133.184 45.3347 133.034 45.1861C132.755 44.908 129.404 43.8174 129.404 43.8174C129.404 43.8174 127.22 50.4718 126.713 52.3221H132.847Z" fill="url(#paint37_linear_486_3043)"/>
<path d="M124.453 44.4348L125.29 41.5156H128.358L128.777 44.8517C128.777 44.8517 126.126 45.5466 124.453 44.4348Z" fill="url(#paint38_linear_486_3043)"/>
<path d="M124.453 37.7247C124.453 37.7247 124.741 40.517 125.227 41.6076C125.714 42.6982 126.929 42.6982 127.051 42.6982C127.172 42.6982 128.267 42.4558 128.874 41.4864C129.482 40.517 129.725 37.3668 129.725 37.3668C129.725 37.3668 128.631 36.1551 127.172 36.0339C125.714 35.9127 124.453 37.1188 124.453 37.7242V37.7247Z" fill="url(#paint39_linear_486_3043)"/>
<path d="M129.195 38.7358C129.195 38.7358 129.753 37.9021 130.032 38.1796C130.311 38.4577 129.753 40.2645 129.195 40.2645C128.637 40.2645 129.195 38.7353 129.195 38.7353V38.7358Z" fill="url(#paint40_linear_486_3043)"/>
<path d="M125.01 38.8748C125.01 38.8748 124.313 37.9018 124.034 38.1799C123.755 38.458 124.452 40.2648 125.01 40.2648V38.8748Z" fill="url(#paint41_linear_486_3043)"/>
<path d="M130.626 37.0817C130.773 36.6995 130.812 36.2733 130.765 35.8642C130.692 35.2469 130.359 34.1024 129.898 33.6431C130.029 33.7736 128.779 34.3008 128.586 34.2821C128.962 33.9771 129.43 33.6281 129.447 33.0957C129.012 33.3878 128.481 33.4934 127.964 33.584C126.676 33.8103 125.291 33.7632 124.299 34.7347C123.885 35.1407 123.605 35.7678 123.711 36.353C123.788 36.7803 124.427 37.2313 124.034 37.6244C123.756 37.9025 124.598 38.4084 124.734 39.1976C124.744 39.2546 124.754 39.3131 124.771 39.367C124.759 38.9635 124.603 38.5301 124.613 38.1376C124.633 37.3328 125.851 37.2758 126.446 37.2225C127.238 37.1516 128.103 37.1583 128.788 36.6969C129.067 36.5094 129.244 38.0257 129.256 38.1003C129.325 38.5317 129.407 38.9946 129.334 39.4307H129.526C129.582 38.919 129.531 38.4296 129.908 38.0573C130.091 37.8776 130.274 37.6963 130.417 37.484C130.502 37.3577 130.572 37.2225 130.626 37.0811L130.626 37.0817Z" fill="url(#paint42_linear_486_3043)"/>
<path d="M125.141 42.0352C125.034 42.6742 125.001 42.9829 124.798 43.5981C124.614 44.1532 124.749 44.9269 124.76 45.5105C124.776 46.3256 125.411 47.2169 125.272 48.018C124.916 47.0216 123.83 46.2459 123.274 45.3158C122.731 44.407 122.343 43.6732 122.964 42.8151C123.349 42.2832 125.15 41.985 125.141 42.0347L125.141 42.0352Z" fill="url(#paint43_linear_486_3043)"/>
<path d="M128.425 44.708C128.502 46.405 128.168 46.7494 127.897 48.464C128.261 47.3056 129.08 46.6966 129.725 45.664C130.36 44.6459 130.566 43.3766 129.526 42.6982C129.455 42.6516 128.448 42.1871 128.453 42.2772C128.465 42.5247 128.392 43.9727 128.425 44.708H128.425Z" fill="url(#paint44_linear_486_3043)"/>
<path d="M30.9311 56.3821C34.9595 56.3821 38.2252 53.1276 38.2252 49.1129C38.2252 45.0983 34.9595 41.8438 30.9311 41.8438C26.9027 41.8438 23.6371 45.0983 23.6371 49.1129C23.6371 53.1276 26.9027 56.3821 30.9311 56.3821Z" fill="url(#paint45_linear_486_3043)"/>
<path d="M35.9173 54.0823C38.671 51.338 38.671 46.8886 35.9173 44.1442C33.1635 41.3999 28.6989 41.3999 25.9451 44.1442C23.1914 46.8886 23.1914 51.338 25.9451 54.0823C28.6989 56.8267 33.1635 56.8267 35.9173 54.0823Z" fill="url(#paint46_linear_486_3043)"/>
<path opacity="0.7" d="M24.4311 48.8349C24.4311 48.8349 24.4285 48.8349 24.4274 48.8349C24.3905 48.8328 24.3625 48.8017 24.364 48.765C24.3786 48.4889 24.4108 48.2124 24.4597 47.9416C24.4664 47.9053 24.5007 47.8815 24.5371 47.8877C24.5735 47.8944 24.5974 47.9286 24.5911 47.9649C24.5433 48.23 24.5116 48.5014 24.4976 48.7712C24.4955 48.8069 24.4664 48.8343 24.4311 48.8343V48.8349Z" fill="white"/>
<path opacity="0.7" d="M25.117 46.2597C25.1071 46.2597 25.0967 46.2576 25.0869 46.2525C25.0541 46.2359 25.0406 46.196 25.0572 46.1629C26.1833 43.9397 28.4343 42.5586 30.9311 42.5586C31.3297 42.5586 31.7288 42.5943 32.1175 42.6648C32.1538 42.6715 32.1777 42.7062 32.171 42.7419C32.1642 42.7782 32.1299 42.8025 32.0936 42.7953C31.7127 42.7259 31.3214 42.6912 30.9311 42.6912C28.4847 42.6912 26.2794 44.0443 25.1762 46.2224C25.1643 46.2457 25.1409 46.2592 25.1165 46.2592L25.117 46.2597Z" fill="white"/>
<path opacity="0.78" d="M35.3049 53.4712C37.6356 51.1485 37.6356 47.3827 35.3049 45.06C32.9743 42.7374 29.1956 42.7374 26.865 45.06C24.5343 47.3827 24.5343 51.1485 26.865 53.4712C29.1956 55.7939 32.9743 55.7939 35.3049 53.4712Z" fill="white"/>
<path d="M32.912 47.0182C32.912 48.0255 32.0925 49.1124 31.0823 49.1124C30.0722 49.1124 29.2527 48.0255 29.2527 47.0182C29.2527 46.011 30.0722 45.2969 31.0823 45.2969C32.0925 45.2969 32.912 46.0115 32.912 47.0182Z" fill="url(#paint47_linear_486_3043)"/>
<path d="M28.8116 52.9905H33.2783C33.7486 52.9905 34.1648 52.6875 34.3082 52.2411L34.5488 51.4923C34.725 50.9439 34.4386 50.3504 33.8961 50.1531C32.0785 49.4908 30.1985 49.5757 28.2732 50.2142C27.7338 50.3929 27.4345 50.9682 27.5832 51.5151L27.7681 52.195C27.896 52.6647 28.3236 52.9905 28.8116 52.9905Z" fill="url(#paint48_linear_486_3043)"/>
<path d="M44.0913 45.0871C48.1197 45.0871 51.3854 41.8326 51.3854 37.818C51.3854 33.8033 48.1197 30.5488 44.0913 30.5488C40.0629 30.5488 36.7972 33.8033 36.7972 37.818C36.7972 41.8326 40.0629 45.0871 44.0913 45.0871Z" fill="url(#paint49_linear_486_3043)"/>
<path d="M49.0774 42.7874C51.8311 40.0431 51.8311 35.5936 49.0774 32.8493C46.3237 30.1049 41.859 30.105 39.1052 32.8493C36.3515 35.5936 36.3515 40.0431 39.1052 42.7874C41.859 45.5318 46.3237 45.5318 49.0774 42.7874Z" fill="url(#paint50_linear_486_3043)"/>
<path opacity="0.7" d="M37.5912 37.5399C37.5912 37.5399 37.5886 37.5399 37.5876 37.5399C37.5507 37.5379 37.5226 37.5068 37.5242 37.47C37.5388 37.194 37.571 36.9175 37.6198 36.6466C37.6266 36.6104 37.6609 36.5866 37.6972 36.5928C37.7336 36.5995 37.7575 36.6337 37.7513 36.6699C37.7035 36.9351 37.6718 37.2064 37.6577 37.4762C37.6557 37.512 37.6266 37.5394 37.5912 37.5394V37.5399Z" fill="white"/>
<path opacity="0.7" d="M38.2766 34.9658C38.2668 34.9658 38.2564 34.9637 38.2465 34.9585C38.2138 34.942 38.2002 34.9021 38.2169 34.8689C39.3429 32.6458 41.594 31.2646 44.0908 31.2646C44.4893 31.2646 44.8884 31.3004 45.2771 31.3708C45.3135 31.3775 45.3374 31.4122 45.3306 31.448C45.3239 31.4842 45.2896 31.5086 45.2532 31.5013C44.8723 31.4319 44.481 31.3972 44.0908 31.3972C41.6444 31.3972 39.439 32.7504 38.3359 34.9285C38.3239 34.9518 38.3005 34.9653 38.2761 34.9653L38.2766 34.9658Z" fill="white"/>
<path opacity="0.78" d="M48.4647 42.1773C50.7953 39.8546 50.7953 36.0888 48.4647 33.7661C46.1341 31.4434 42.3554 31.4434 40.0247 33.7661C37.6941 36.0888 37.6941 39.8546 40.0247 42.1773C42.3553 44.4999 46.1341 44.4999 48.4647 42.1773Z" fill="white"/>
<path d="M46.0721 35.7233C46.0721 36.7305 45.2527 37.8175 44.2425 37.8175C43.2323 37.8175 42.4129 36.7305 42.4129 35.7233C42.4129 34.7161 43.2323 34.002 44.2425 34.002C45.2527 34.002 46.0721 34.7166 46.0721 35.7233Z" fill="url(#paint51_linear_486_3043)"/>
<path d="M41.9717 41.6956H46.4385C46.9087 41.6956 47.325 41.3926 47.4684 40.9462L47.709 40.1974C47.8851 39.649 47.5988 39.0555 47.0563 38.8582C45.2387 38.1959 43.3586 38.2808 41.4334 38.9193C40.894 39.098 40.5947 39.6733 40.7433 40.2202L40.9283 40.9001C41.0561 41.3698 41.4838 41.6956 41.9717 41.6956Z" fill="url(#paint52_linear_486_3043)"/>
<path d="M46.7814 61.8977C50.8098 61.8977 54.0755 58.6432 54.0755 54.6285C54.0755 50.6139 50.8098 47.3594 46.7814 47.3594C42.753 47.3594 39.4874 50.6139 39.4874 54.6285C39.4874 58.6432 42.753 61.8977 46.7814 61.8977Z" fill="url(#paint53_linear_486_3043)"/>
<path d="M46.7814 61.6562C50.6758 61.6562 53.8328 58.51 53.8328 54.6289C53.8328 50.7478 50.6758 47.6016 46.7814 47.6016C42.8871 47.6016 39.73 50.7478 39.73 54.6289C39.73 58.51 42.8871 61.6562 46.7814 61.6562Z" fill="url(#paint54_linear_486_3043)"/>
<path opacity="0.7" d="M40.2814 54.3505C40.2814 54.3505 40.2788 54.3505 40.2777 54.3505C40.2408 54.3484 40.2128 54.3173 40.2143 54.2806C40.2289 54.0046 40.2611 53.728 40.31 53.4572C40.3167 53.4209 40.351 53.3971 40.3874 53.4033C40.4237 53.4101 40.4477 53.4442 40.4414 53.4805C40.3936 53.7456 40.3619 54.017 40.3479 54.2868C40.3458 54.3225 40.3167 54.35 40.2814 54.35V54.3505Z" fill="white"/>
<path opacity="0.7" d="M40.9668 51.7763C40.9569 51.7763 40.9465 51.7742 40.9366 51.7691C40.9039 51.7525 40.8904 51.7126 40.907 51.6795C42.0331 49.4563 44.2841 48.0752 46.7809 48.0752C47.1795 48.0752 47.5786 48.1109 47.9672 48.1814C48.0036 48.1881 48.0275 48.2228 48.0208 48.2585C48.014 48.2948 47.9797 48.3191 47.9433 48.3119C47.5624 48.2425 47.1712 48.2078 46.7809 48.2078C44.3345 48.2078 42.1292 49.5609 41.026 51.739C41.0141 51.7623 40.9907 51.7758 40.9663 51.7758L40.9668 51.7763Z" fill="white"/>
<path opacity="0.78" d="M46.9352 60.7292C50.2313 60.7292 52.9032 58.0663 52.9032 54.7816C52.9032 51.4968 50.2313 48.834 46.9352 48.834C43.6392 48.834 40.9673 51.4968 40.9673 54.7816C40.9673 58.0663 43.6392 60.7292 46.9352 60.7292Z" fill="white"/>
<path d="M48.7623 52.5339C48.7623 53.5411 47.9428 54.6281 46.9326 54.6281C45.9225 54.6281 45.103 53.5411 45.103 52.5339C45.103 51.5266 45.9225 50.8125 46.9326 50.8125C47.9428 50.8125 48.7623 51.5271 48.7623 52.5339Z" fill="url(#paint55_linear_486_3043)"/>
<path d="M44.6619 58.5061H49.1286C49.5989 58.5061 50.0151 58.2032 50.1585 57.7568L50.3991 57.0079C50.5753 56.4595 50.2889 55.8661 49.7464 55.6688C47.9288 55.0064 46.0488 55.0914 44.1235 55.7299C43.5841 55.9085 43.2848 56.4839 43.4335 57.0307L43.6184 57.7107C43.7463 58.1804 44.1739 58.5061 44.6619 58.5061Z" fill="url(#paint56_linear_486_3043)"/>
<path d="M58.8119 54.3398C58.8119 54.3398 56.7968 55.3165 56.4263 56.4387C56.1291 57.3393 53.9009 57.4553 53.6806 59.2258C53.5668 60.1398 52.8881 60.8721 51.9746 61.0119C49.6992 61.3594 46.1922 62.537 45.631 66.4748C45.2028 69.4804 46.7399 70.6197 48.3533 71.0143C49.5386 71.3038 50.3258 72.4529 50.0863 73.645C49.8566 74.7885 50.199 76.1106 52.1872 77.1561C56.6419 79.4989 61.091 71.6062 61.091 71.6062L62.003 57.825L58.8119 54.3404V54.3398Z" fill="url(#paint57_linear_486_3043)"/>
<path d="M83.0532 51.0723C83.0532 51.0723 74.1582 65.0938 63.5811 67.8022C63.5811 67.8022 65.642 73.6524 67.2331 74.322C67.2331 74.322 80.2462 63.5014 83.59 53.065L83.0532 51.0728V51.0723Z" fill="url(#paint58_linear_486_3043)"/>
<path d="M40.5001 140.754L40.2117 143.116C40.1572 143.564 39.8033 143.918 39.3533 143.969C38.5936 144.056 37.3746 144.144 36.1815 144.019C35.6577 143.963 35.3179 143.435 35.4774 142.936C35.7684 142.024 36.3 140.655 37.0669 139.85H39.6958C40.1816 139.85 40.5583 140.273 40.4996 140.754L40.5001 140.754Z" fill="url(#paint59_linear_486_3043)"/>
<path d="M61.0916 113.086L61.5353 115.687C61.5353 115.687 60.0492 130.687 59.7852 136.688C59.7436 137.629 59.9879 138.558 60.4836 139.36L63.0677 143.542L56.5006 139.68L56.3697 138.881L57.4448 137.409L56.0366 120.604C55.954 119.617 56.1582 118.627 56.6253 117.752L57.9836 115.209L61.0916 113.086Z" fill="url(#paint60_linear_486_3043)"/>
<path d="M63.4995 144.148H61.4039C61.0115 144.148 60.6416 143.968 60.4025 143.658C59.7493 142.812 58.3957 141.162 57.7482 141.119C56.8768 141.061 56.9885 144.148 56.9885 144.148H56.5001L55.8812 140.312C55.7253 139.347 56.207 138.391 57.0769 137.938C57.0769 137.938 57.2759 139.407 58.3562 140.055C59.436 140.705 62.7507 143.03 62.7507 143.03C62.7507 143.03 63.1566 142.973 63.6024 143.053C64.2634 143.172 64.1714 144.148 63.4995 144.148Z" fill="url(#paint61_linear_486_3043)"/>
<path d="M52.0973 114.321C52.0973 114.321 43.3919 130.778 42.0081 134.535C40.6243 138.292 40.1395 141.426 40.1208 141.724C40.0917 142.188 39.5129 142.633 37.9176 142.633C37.094 142.633 36.6907 142.304 36.4933 141.985C36.3249 141.713 36.3161 141.374 36.4579 141.087C36.9615 140.072 38.5593 136.826 39.1512 135.354C39.8579 133.596 41.3778 125.631 42.2113 122.862C43.0448 120.092 43.9874 117.088 47.6175 114.321C47.6175 114.321 50.1097 111.889 52.0967 114.321L52.0973 114.321Z" fill="url(#paint62_linear_486_3043)"/>
<path d="M57.5965 87.3554C59.8424 77.8724 54.1534 72.509 54.1534 72.509C57.7431 69.0751 64.2831 67.5127 64.2831 67.5127C64.2831 67.5127 70.5239 72.0595 69.7834 75.6187C69.3495 77.7046 65.3967 88.1131 65.3967 88.1131C65.3967 88.1131 61.7416 89.837 57.5965 87.3559V87.3554Z" fill="url(#paint63_linear_486_3043)"/>
<path d="M52.6174 92.0504C53.5314 89.3068 57.596 87.3555 57.596 87.3555C61.7411 89.8365 65.3962 88.1126 65.3962 88.1126C65.3962 88.1126 66.2156 91.2347 65.6503 94.1368C65.0844 97.0384 61.5353 115.687 61.5353 115.687C55.9425 116.816 47.3411 114.551 47.3411 114.551C50.9031 108.248 51.7034 94.794 52.6174 92.0504Z" fill="url(#paint64_linear_486_3043)"/>
<path d="M60.203 61.2465L58.3775 69.4193C58.2029 70.1391 58.8613 70.0216 59.5914 69.8844C60.7876 69.6596 62.3288 69.1966 62.8443 68.2692C62.8967 68.1749 62.9227 68.0682 62.9378 67.961L63.7219 62.2936C63.7843 61.8441 63.54 61.4076 63.1238 61.2237L61.6101 60.5546C61.0271 60.2973 60.3526 60.6287 60.203 61.246V61.2465Z" fill="url(#paint65_linear_486_3043)"/>
<path d="M63.7001 53.7956C63.7001 53.7956 65.644 55.1068 66.4791 58.446C67.3141 61.7851 65.9569 62.9829 64.5658 62.9094C63.1748 62.8358 61.157 62.407 59.4095 60.0114C57.6615 57.6158 61.1534 52.1928 63.7006 53.7951L63.7001 53.7956Z" fill="url(#paint66_linear_486_3043)"/>
<path d="M61.1716 58.6653C61.1716 58.6653 60.4592 53.8803 64.4458 54.6125L65.2517 55.4488C65.2517 55.4488 67.2029 53.2588 65.0439 51.6038C62.8848 49.9487 59.8886 50.3723 58.2305 53.3857C56.5728 56.3991 55.9711 58.5166 57.3606 60.3892C58.7501 62.2618 59.7951 60.6559 59.7951 60.6559C59.7951 60.6559 59.158 59.035 59.6865 58.3395C60.2155 57.644 60.8972 58.744 60.8972 58.744L61.1716 58.6653Z" fill="url(#paint67_linear_486_3043)"/>
<path d="M60.627 59.0751C60.627 59.0751 60.2752 56.6132 59.0141 57.3169C57.7524 58.0207 59.4687 59.6167 60.1567 60.1595L60.627 59.0751Z" fill="url(#paint68_linear_486_3043)"/>
<path d="M82.9919 53.9587C83.0189 54.2482 81.9397 54.4481 81.5962 53.2151C81.6907 52.6796 81.8581 50.3353 82.2701 49.9712C84.4635 48.0313 88.3753 45.8496 88.3753 45.8496C88.8128 46.5151 88.2391 46.9537 88.2391 46.9537L86.2864 48.267C86.4901 48.9391 86.7873 49.5336 86.8211 50.3011C86.8465 50.8821 86.6309 51.4513 86.2437 51.8925C85.8551 52.3347 85.3318 52.9064 84.8605 53.3399C83.9678 54.1607 82.9919 53.9587 82.9919 53.9587Z" fill="url(#paint69_linear_486_3043)"/>
<path d="M84.0525 53.0036L83.7542 52.8814C83.7937 52.7851 84.7311 50.5158 85.1842 50.0441C85.3562 49.8649 85.4394 49.7116 85.4321 49.5878C85.4284 49.521 85.3952 49.4547 85.3318 49.3874L83.7521 50.2295L83.0543 51.3185L82.7825 51.145L83.5256 49.985L85.376 48.999L85.4596 49.0669C85.6467 49.2196 85.7433 49.3833 85.7548 49.5681C85.7683 49.7882 85.6586 50.0166 85.4186 50.2667C85.0772 50.622 84.3175 52.363 84.0535 53.0041L84.0525 53.0036Z" fill="url(#paint70_linear_486_3043)"/>
<path d="M59.6309 92.3587C59.6433 92.3592 59.6558 92.3597 59.6683 92.3597L75.979 92.3421C76.3822 92.3421 76.7085 92.0189 76.708 91.6217C76.708 91.224 76.3791 90.8957 75.9769 90.9024L59.6662 90.9201C59.263 90.9201 58.9366 91.2432 58.9372 91.6404C58.9372 92.0257 59.2448 92.34 59.6304 92.3587H59.6309Z" fill="url(#paint71_linear_486_3043)"/>
<path d="M90.6414 77.7564H77.0577C76.0559 77.7564 75.1434 78.3265 74.7163 79.2204L68.4365 92.3501H85.3173C85.9632 92.3501 86.5431 91.9612 86.7805 91.3688L91.65 79.2188C91.9311 78.5166 91.4068 77.7559 90.6414 77.7559V77.7564Z" fill="url(#paint72_linear_486_3043)"/>
<path d="M83.1033 85.1414C83.4012 84.2406 83.1881 83.3612 82.6275 83.177C82.0668 82.9929 81.3708 83.5738 81.073 84.4745C80.7751 85.3753 80.9881 86.2547 81.5488 86.4389C82.1095 86.623 82.8054 86.0421 83.1033 85.1414Z" fill="#91B3FA"/>
<path d="M54.1301 72.5293C51.9045 74.7675 49.0808 84.6875 50.4817 86.3447C51.7153 88.2737 55.915 90.8992 59.9146 90.9029H65.815C63.3353 88.2773 61.6283 87.6114 59.595 89.4477C57.9816 88.7605 55.8895 86.0992 54.4933 84.9113C53.9451 84.4447 53.8157 83.6487 54.1825 83.0304C55.2919 81.1589 56.683 79.235 57.1252 77.3713C57.2203 75.1875 55.5985 72.6878 54.1301 72.5303V72.5293Z" fill="url(#paint73_linear_486_3043)"/>
<path d="M83.4757 144.82C83.3172 144.811 83.1706 144.739 83.0667 144.619C81.5536 142.877 70.4756 129.187 82.7737 114.992C94.4482 101.518 99.9745 98.5162 100.18 91.0979C100.204 90.2316 101.355 89.9379 101.797 90.6842C105.101 96.2615 110.588 109.443 96.4732 119.422C80.9025 130.43 83.048 141.057 84.067 144.046C84.2016 144.441 83.8935 144.845 83.4757 144.82V144.82Z" fill="#7D97F4"/>
<path d="M85.5189 144.942C85.1442 144.92 84.8283 144.657 84.7436 144.292C84.1647 141.81 82.5008 132.5 89.2488 129.492C96.6769 126.182 103.376 132.806 108.57 126.839C108.843 126.525 109.358 126.742 109.319 127.156C109.038 130.09 107.319 136.968 97.5218 139.06C87.0351 141.299 85.9346 142.6 86.2619 144.086C86.3627 144.545 85.9891 144.97 85.5189 144.942V144.942Z" fill="#7D97F4"/>
<path d="M100.377 98.6314C100.289 99.1871 100.155 99.7127 99.9885 100.237C99.8253 100.76 99.6305 101.273 99.4138 101.777C98.9861 102.787 98.454 103.753 97.8617 104.679C96.6675 106.528 95.1793 108.184 93.5092 109.62C92.6763 110.334 91.7783 111 90.8867 111.607C90.0189 112.2 89.1901 112.852 88.4013 113.55C86.8231 114.946 85.417 116.535 84.1985 118.252C81.7723 121.689 80.1724 125.737 79.8622 129.942C79.7 132.04 79.857 134.165 80.3013 136.235C80.7424 138.308 81.4964 140.314 82.4354 142.232C82.4858 142.334 82.4442 142.458 82.3413 142.509C82.2426 142.558 82.1236 142.519 82.0696 142.426C80.9986 140.541 80.1516 138.515 79.6075 136.398C79.3316 135.341 79.1336 134.262 79.0183 133.172C78.9097 132.082 78.8728 130.981 78.9289 129.884C79.0302 127.688 79.4854 125.511 80.2207 123.438C80.9586 121.364 81.9926 119.401 83.2361 117.588C84.4791 115.772 85.9559 114.121 87.5953 112.651C88.4168 111.918 89.2825 111.232 90.1924 110.605C91.0841 110.003 91.928 109.395 92.7381 108.714C94.3567 107.369 95.8309 105.845 97.0697 104.139C97.698 103.292 98.2571 102.395 98.7596 101.465C99.2506 100.535 99.7017 99.5578 100.004 98.5599L100.008 98.547C100.038 98.4476 100.144 98.3911 100.244 98.4212C100.335 98.4486 100.39 98.5392 100.376 98.6309L100.377 98.6314Z" fill="#91B3FA"/>
<path d="M84.9504 143.273C84.9759 143.18 84.9592 143.096 84.9504 143.009L84.9229 142.752L84.8776 142.235C84.8522 141.89 84.8335 141.544 84.8226 141.199C84.8013 140.508 84.8085 139.815 84.8491 139.124C84.9343 137.743 85.1427 136.357 85.5994 135.031C86.051 133.715 86.7878 132.435 87.9315 131.549C88.5015 131.113 89.1568 130.784 89.8469 130.59C90.5359 130.391 91.254 130.315 91.9623 130.324C94.7444 130.436 97.4875 130.761 100.231 130.985C101.596 131.085 102.978 131.161 104.291 130.881C104.616 130.808 104.935 130.712 105.243 130.588C105.547 130.456 105.844 130.306 106.118 130.117C106.669 129.746 107.142 129.26 107.557 128.728L107.558 128.727C107.616 128.654 107.722 128.64 107.795 128.697C107.868 128.754 107.881 128.857 107.827 128.93C107.407 129.491 106.92 130.017 106.334 130.43C106.044 130.639 105.727 130.809 105.401 130.958C105.072 131.1 104.731 131.211 104.385 131.296C102.988 131.607 101.576 131.537 100.196 131.453C98.8115 131.361 97.4402 131.21 96.0663 131.093C94.6971 130.974 93.3123 130.865 91.9529 130.808C91.2831 130.794 90.6118 130.86 89.9731 131.039C89.333 131.212 88.7312 131.509 88.2022 131.905C87.136 132.699 86.409 133.891 85.9496 135.157C85.4841 136.429 85.2533 137.785 85.1442 139.145C85.0912 139.826 85.072 140.51 85.0803 141.194C85.085 141.536 85.0969 141.878 85.1156 142.22L85.151 142.732L85.1733 142.987C85.1821 143.072 85.1847 143.159 85.2326 143.236C85.2778 143.309 85.2554 143.405 85.1816 143.451C85.1078 143.496 85.0117 143.473 84.966 143.4C84.9426 143.362 84.9374 143.318 84.9478 143.277L84.9488 143.274L84.9504 143.273Z" fill="#91B3FA"/>
</g>
<defs>
<linearGradient id="paint0_linear_486_3043" x1="159.084" y1="168.541" x2="56.6811" y2="59.1578" gradientUnits="userSpaceOnUse">
<stop stop-color="#DAE3FE"/>
<stop offset="1" stop-color="#E9EFFD"/>
</linearGradient>
<linearGradient id="paint1_linear_486_3043" x1="27.1202" y1="109.471" x2="337.047" y2="-177.91" gradientUnits="userSpaceOnUse">
<stop stop-color="#4F52FF"/>
<stop offset="1" stop-color="#4042E2"/>
</linearGradient>
<linearGradient id="paint2_linear_486_3043" x1="97.1981" y1="21.5451" x2="97.8319" y2="31.3795" gradientUnits="userSpaceOnUse">
<stop stop-color="#C4421B"/>
<stop offset="1" stop-color="#5C0E16"/>
</linearGradient>
<linearGradient id="paint3_linear_486_3043" x1="97.249" y1="26.6831" x2="98.0645" y2="16.3353" gradientUnits="userSpaceOnUse">
<stop stop-color="#C4421B"/>
<stop offset="1" stop-color="#5C0E16"/>
</linearGradient>
<linearGradient id="paint4_linear_486_3043" x1="100.153" y1="26.9118" x2="100.969" y2="16.5641" gradientUnits="userSpaceOnUse">
<stop stop-color="#C4421B"/>
<stop offset="1" stop-color="#5C0E16"/>
</linearGradient>
<linearGradient id="paint5_linear_486_3043" x1="94.2783" y1="26.4493" x2="95.0932" y2="16.1016" gradientUnits="userSpaceOnUse">
<stop stop-color="#C4421B"/>
<stop offset="1" stop-color="#5C0E16"/>
</linearGradient>
<linearGradient id="paint6_linear_486_3043" x1="97.3129" y1="16.7481" x2="98.6368" y2="27.0235" gradientUnits="userSpaceOnUse">
<stop stop-color="#090056"/>
<stop offset="1" stop-color="#020039"/>
</linearGradient>
<linearGradient id="paint7_linear_486_3043" x1="120.388" y1="11.1893" x2="119.355" y2="27.9326" gradientUnits="userSpaceOnUse">
<stop stop-color="#09005D"/>
<stop offset="1" stop-color="#1A0F91"/>
</linearGradient>
<linearGradient id="paint8_linear_486_3043" x1="116.749" y1="10.9641" x2="115.716" y2="27.7074" gradientUnits="userSpaceOnUse">
<stop stop-color="#09005D"/>
<stop offset="1" stop-color="#1A0F91"/>
</linearGradient>
<linearGradient id="paint9_linear_486_3043" x1="124.578" y1="11.4473" x2="123.546" y2="28.1906" gradientUnits="userSpaceOnUse">
<stop stop-color="#09005D"/>
<stop offset="1" stop-color="#1A0F91"/>
</linearGradient>
<linearGradient id="paint10_linear_486_3043" x1="117.35" y1="4.09247" x2="118.396" y2="10.9748" gradientUnits="userSpaceOnUse">
<stop stop-color="#FF928E"/>
<stop offset="1" stop-color="#FE7062"/>
</linearGradient>
<linearGradient id="paint11_linear_486_3043" x1="117.691" y1="17.2371" x2="120.41" y2="8.52607" gradientUnits="userSpaceOnUse">
<stop stop-color="#FEBBBA"/>
<stop offset="1" stop-color="#FF928E"/>
</linearGradient>
<linearGradient id="paint12_linear_486_3043" x1="121.731" y1="18.4979" x2="124.45" y2="9.78691" gradientUnits="userSpaceOnUse">
<stop stop-color="#FEBBBA"/>
<stop offset="1" stop-color="#FF928E"/>
</linearGradient>
<linearGradient id="paint13_linear_486_3043" x1="122.241" y1="3.34855" x2="123.287" y2="10.2309" gradientUnits="userSpaceOnUse">
<stop stop-color="#FF928E"/>
<stop offset="1" stop-color="#FE7062"/>
</linearGradient>
<linearGradient id="paint14_linear_486_3043" x1="111.815" y1="4.93386" x2="112.861" y2="11.8162" gradientUnits="userSpaceOnUse">
<stop stop-color="#FF928E"/>
<stop offset="1" stop-color="#FE7062"/>
</linearGradient>
<linearGradient id="paint15_linear_486_3043" x1="119.897" y1="26.2655" x2="121.15" y2="17.8516" gradientUnits="userSpaceOnUse">
<stop stop-color="#FEBBBA"/>
<stop offset="1" stop-color="#FF928E"/>
</linearGradient>
<linearGradient id="paint16_linear_486_3043" x1="119.286" y1="28.0842" x2="119.89" y2="24.0257" gradientUnits="userSpaceOnUse">
<stop stop-color="#09005D"/>
<stop offset="1" stop-color="#1A0F91"/>
</linearGradient>
<linearGradient id="paint17_linear_486_3043" x1="113.889" y1="4.61831" x2="114.935" y2="11.5007" gradientUnits="userSpaceOnUse">
<stop stop-color="#FF928E"/>
<stop offset="1" stop-color="#FE7062"/>
</linearGradient>
<linearGradient id="paint18_linear_486_3043" x1="120.031" y1="3.68541" x2="121.077" y2="10.5678" gradientUnits="userSpaceOnUse">
<stop stop-color="#FF928E"/>
<stop offset="1" stop-color="#FE7062"/>
</linearGradient>
<linearGradient id="paint19_linear_486_3043" x1="119.542" y1="17.8146" x2="122.261" y2="9.10306" gradientUnits="userSpaceOnUse">
<stop stop-color="#FEBBBA"/>
<stop offset="1" stop-color="#FF928E"/>
</linearGradient>
<linearGradient id="paint20_linear_486_3043" x1="116.747" y1="10.7679" x2="127.766" y2="28.3924" gradientUnits="userSpaceOnUse">
<stop stop-color="#09005D"/>
<stop offset="1" stop-color="#1A0F91"/>
</linearGradient>
<linearGradient id="paint21_linear_486_3043" x1="103.494" y1="41.6438" x2="98.877" y2="59.3229" gradientUnits="userSpaceOnUse">
<stop stop-color="#09005D"/>
<stop offset="1" stop-color="#1A0F91"/>
</linearGradient>
<linearGradient id="paint22_linear_486_3043" x1="102.41" y1="41.3604" x2="97.7936" y2="59.039" gradientUnits="userSpaceOnUse">
<stop stop-color="#09005D"/>
<stop offset="1" stop-color="#1A0F91"/>
</linearGradient>
<linearGradient id="paint23_linear_486_3043" x1="108.528" y1="42.9583" x2="103.912" y2="60.6369" gradientUnits="userSpaceOnUse">
<stop stop-color="#09005D"/>
<stop offset="1" stop-color="#1A0F91"/>
</linearGradient>
<linearGradient id="paint24_linear_486_3043" x1="100.063" y1="46.5335" x2="104.432" y2="57.6026" gradientUnits="userSpaceOnUse">
<stop stop-color="#FEBBBA"/>
<stop offset="1" stop-color="#FF928E"/>
</linearGradient>
<linearGradient id="paint25_linear_486_3043" x1="101.389" y1="53.7038" x2="104.404" y2="36.8771" gradientUnits="userSpaceOnUse">
<stop stop-color="#FEBBBA"/>
<stop offset="1" stop-color="#FF928E"/>
</linearGradient>
<linearGradient id="paint26_linear_486_3043" x1="101.285" y1="46.1702" x2="102.918" y2="57.953" gradientUnits="userSpaceOnUse">
<stop stop-color="#FEBBBA"/>
<stop offset="1" stop-color="#FF928E"/>
</linearGradient>
<linearGradient id="paint27_linear_486_3043" x1="98.3064" y1="39.4768" x2="111.427" y2="62.35" gradientUnits="userSpaceOnUse">
<stop stop-color="#09005D"/>
<stop offset="1" stop-color="#1A0F91"/>
</linearGradient>
<linearGradient id="paint28_linear_486_3043" x1="101.026" y1="39.4723" x2="106.493" y2="49.0082" gradientUnits="userSpaceOnUse">
<stop stop-color="#09005D"/>
<stop offset="1" stop-color="#1A0F91"/>
</linearGradient>
<linearGradient id="paint29_linear_486_3043" x1="102.468" y1="34.2599" x2="102.468" y2="45.573" gradientUnits="userSpaceOnUse">
<stop stop-color="#FF928E"/>
<stop offset="1" stop-color="#FE7062"/>
</linearGradient>
<linearGradient id="paint30_linear_486_3043" x1="108.848" y1="34.2595" x2="108.848" y2="45.5726" gradientUnits="userSpaceOnUse">
<stop stop-color="#FF928E"/>
<stop offset="1" stop-color="#FE7062"/>
</linearGradient>
<linearGradient id="paint31_linear_486_3043" x1="96.6426" y1="34.2592" x2="96.6426" y2="45.5723" gradientUnits="userSpaceOnUse">
<stop stop-color="#FF928E"/>
<stop offset="1" stop-color="#FE7062"/>
</linearGradient>
<linearGradient id="paint32_linear_486_3043" x1="97.1067" y1="40.5828" x2="112.256" y2="62.1769" gradientUnits="userSpaceOnUse">
<stop stop-color="#09005D"/>
<stop offset="1" stop-color="#1A0F91"/>
</linearGradient>
<linearGradient id="paint33_linear_486_3043" x1="132.518" y1="48.7601" x2="134.347" y2="48.7601" gradientUnits="userSpaceOnUse">
<stop stop-color="#4F52FF"/>
<stop offset="1" stop-color="#4042E2"/>
</linearGradient>
<linearGradient id="paint34_linear_486_3043" x1="157.113" y1="-11.9246" x2="147.161" y2="7.78294" gradientUnits="userSpaceOnUse">
<stop stop-color="#FF928E"/>
<stop offset="1" stop-color="#FE7062"/>
</linearGradient>
<linearGradient id="paint35_linear_486_3043" x1="119.246" y1="47.7887" x2="126.053" y2="47.7887" gradientUnits="userSpaceOnUse">
<stop stop-color="#4F52FF"/>
<stop offset="1" stop-color="#4042E2"/>
</linearGradient>
<linearGradient id="paint36_linear_486_3043" x1="116.494" y1="48.5531" x2="120.013" y2="48.5531" gradientUnits="userSpaceOnUse">
<stop stop-color="#4F52FF"/>
<stop offset="1" stop-color="#4042E2"/>
</linearGradient>
<linearGradient id="paint37_linear_486_3043" x1="126.713" y1="48.07" x2="133.094" y2="48.07" gradientUnits="userSpaceOnUse">
<stop stop-color="#4F52FF"/>
<stop offset="1" stop-color="#4042E2"/>
</linearGradient>
<linearGradient id="paint38_linear_486_3043" x1="128.84" y1="34.4039" x2="125.398" y2="50.3479" gradientUnits="userSpaceOnUse">
<stop stop-color="#FEBBBA"/>
<stop offset="1" stop-color="#FF928E"/>
</linearGradient>
<linearGradient id="paint39_linear_486_3043" x1="126.758" y1="39.5475" x2="128.965" y2="28.9647" gradientUnits="userSpaceOnUse">
<stop stop-color="#FEBBBA"/>
<stop offset="1" stop-color="#FF928E"/>
</linearGradient>
<linearGradient id="paint40_linear_486_3043" x1="129.332" y1="40.0838" x2="131.539" y2="29.5004" gradientUnits="userSpaceOnUse">
<stop stop-color="#FEBBBA"/>
<stop offset="1" stop-color="#FF928E"/>
</linearGradient>
<linearGradient id="paint41_linear_486_3043" x1="124.537" y1="39.084" x2="126.743" y2="28.5007" gradientUnits="userSpaceOnUse">
<stop stop-color="#FEBBBA"/>
<stop offset="1" stop-color="#FF928E"/>
</linearGradient>
<linearGradient id="paint42_linear_486_3043" x1="127.03" y1="34.512" x2="128.059" y2="42.4988" gradientUnits="userSpaceOnUse">
<stop stop-color="#090056"/>
<stop offset="1" stop-color="#020039"/>
</linearGradient>
<linearGradient id="paint43_linear_486_3043" x1="124.136" y1="43.0937" x2="123.552" y2="52.4133" gradientUnits="userSpaceOnUse">
<stop stop-color="#4F52FF"/>
<stop offset="1" stop-color="#4042E2"/>
</linearGradient>
<linearGradient id="paint44_linear_486_3043" x1="129.249" y1="43.5522" x2="128.683" y2="52.5771" gradientUnits="userSpaceOnUse">
<stop stop-color="#4F52FF"/>
<stop offset="1" stop-color="#4042E2"/>
</linearGradient>
<linearGradient id="paint45_linear_486_3043" x1="81.3987" y1="-50.1546" x2="71.4476" y2="-30.4465" gradientUnits="userSpaceOnUse">
<stop stop-color="#FF928E"/>
<stop offset="1" stop-color="#FE7062"/>
</linearGradient>
<linearGradient id="paint46_linear_486_3043" x1="81.3988" y1="-50.1542" x2="71.4476" y2="-30.4461" gradientUnits="userSpaceOnUse">
<stop stop-color="#FF928E"/>
<stop offset="1" stop-color="#FE7062"/>
</linearGradient>
<linearGradient id="paint47_linear_486_3043" x1="80.6884" y1="-50.5129" x2="70.7372" y2="-30.8054" gradientUnits="userSpaceOnUse">
<stop stop-color="#FF928E"/>
<stop offset="1" stop-color="#FE7062"/>
</linearGradient>
<linearGradient id="paint48_linear_486_3043" x1="82.4099" y1="-49.6436" x2="72.4588" y2="-29.9355" gradientUnits="userSpaceOnUse">
<stop stop-color="#FF928E"/>
<stop offset="1" stop-color="#FE7062"/>
</linearGradient>
<linearGradient id="paint49_linear_486_3043" x1="87.3017" y1="-47.1748" x2="77.3505" y2="-27.4672" gradientUnits="userSpaceOnUse">
<stop stop-color="#FF928E"/>
<stop offset="1" stop-color="#FE7062"/>
</linearGradient>
<linearGradient id="paint50_linear_486_3043" x1="87.3015" y1="-47.1742" x2="77.3504" y2="-27.4666" gradientUnits="userSpaceOnUse">
<stop stop-color="#FF928E"/>
<stop offset="1" stop-color="#FE7062"/>
</linearGradient>
<linearGradient id="paint51_linear_486_3043" x1="86.5914" y1="-47.5337" x2="76.6402" y2="-27.8256" gradientUnits="userSpaceOnUse">
<stop stop-color="#FF928E"/>
<stop offset="1" stop-color="#FE7062"/>
</linearGradient>
<linearGradient id="paint52_linear_486_3043" x1="88.3129" y1="-46.6638" x2="78.3618" y2="-26.9562" gradientUnits="userSpaceOnUse">
<stop stop-color="#FF928E"/>
<stop offset="1" stop-color="#FE7062"/>
</linearGradient>
<linearGradient id="paint53_linear_486_3043" x1="96.2409" y1="-42.6556" x2="86.2898" y2="-22.948" gradientUnits="userSpaceOnUse">
<stop stop-color="#FF928E"/>
<stop offset="1" stop-color="#FE7062"/>
</linearGradient>
<linearGradient id="paint54_linear_486_3043" x1="96.243" y1="-42.6594" x2="86.2918" y2="-22.9518" gradientUnits="userSpaceOnUse">
<stop stop-color="#FF928E"/>
<stop offset="1" stop-color="#FE7062"/>
</linearGradient>
<linearGradient id="paint55_linear_486_3043" x1="95.5327" y1="-43.0191" x2="85.5815" y2="-23.3111" gradientUnits="userSpaceOnUse">
<stop stop-color="#FF928E"/>
<stop offset="1" stop-color="#FE7062"/>
</linearGradient>
<linearGradient id="paint56_linear_486_3043" x1="97.2542" y1="-42.1493" x2="87.3031" y2="-22.4417" gradientUnits="userSpaceOnUse">
<stop stop-color="#FF928E"/>
<stop offset="1" stop-color="#FE7062"/>
</linearGradient>
<linearGradient id="paint57_linear_486_3043" x1="62.3563" y1="46.3022" x2="56.4142" y2="61.2584" gradientUnits="userSpaceOnUse">
<stop stop-color="#09005D"/>
<stop offset="1" stop-color="#1A0F91"/>
</linearGradient>
<linearGradient id="paint58_linear_486_3043" x1="76.4024" y1="57.6961" x2="60.3879" y2="79.9067" gradientUnits="userSpaceOnUse">
<stop stop-color="#FEBBBA"/>
<stop offset="1" stop-color="#FF928E"/>
</linearGradient>
<linearGradient id="paint59_linear_486_3043" x1="40.5059" y1="141.965" x2="35.4379" y2="141.965" gradientUnits="userSpaceOnUse">
<stop stop-color="#09005D"/>
<stop offset="1" stop-color="#1A0F91"/>
</linearGradient>
<linearGradient id="paint60_linear_486_3043" x1="61.923" y1="161.884" x2="54.6782" y2="76.9244" gradientUnits="userSpaceOnUse">
<stop stop-color="#FEBBBA"/>
<stop offset="1" stop-color="#FF928E"/>
</linearGradient>
<linearGradient id="paint61_linear_486_3043" x1="64.0534" y1="141.043" x2="55.8526" y2="141.043" gradientUnits="userSpaceOnUse">
<stop stop-color="#09005D"/>
<stop offset="1" stop-color="#1A0F91"/>
</linearGradient>
<linearGradient id="paint62_linear_486_3043" x1="47.2507" y1="163.147" x2="40.0044" y2="78.1655" gradientUnits="userSpaceOnUse">
<stop stop-color="#FEBBBA"/>
<stop offset="1" stop-color="#FF928E"/>
</linearGradient>
<linearGradient id="paint63_linear_486_3043" x1="-239.512" y1="-515.742" x2="-229.561" y2="-496.034" gradientUnits="userSpaceOnUse">
<stop stop-color="#FF928E"/>
<stop offset="1" stop-color="#FE7062"/>
</linearGradient>
<linearGradient id="paint64_linear_486_3043" x1="41.6527" y1="77.8663" x2="59.7985" y2="106.999" gradientUnits="userSpaceOnUse">
<stop stop-color="#4F52FF"/>
<stop offset="1" stop-color="#4042E2"/>
</linearGradient>
<linearGradient id="paint65_linear_486_3043" x1="62.7227" y1="78.1431" x2="61.3616" y2="68.1524" gradientUnits="userSpaceOnUse">
<stop stop-color="#FEBBBA"/>
<stop offset="1" stop-color="#FF928E"/>
</linearGradient>
<linearGradient id="paint66_linear_486_3043" x1="65.1751" y1="66.103" x2="57.6274" y2="42.9743" gradientUnits="userSpaceOnUse">
<stop stop-color="#FEBBBA"/>
<stop offset="1" stop-color="#FF928E"/>
</linearGradient>
<linearGradient id="paint67_linear_486_3043" x1="66.2521" y1="47.4931" x2="57.518" y2="61.0214" gradientUnits="userSpaceOnUse">
<stop stop-color="#09005D"/>
<stop offset="1" stop-color="#1A0F91"/>
</linearGradient>
<linearGradient id="paint68_linear_486_3043" x1="62.4011" y1="67.0089" x2="54.8533" y2="43.8807" gradientUnits="userSpaceOnUse">
<stop stop-color="#FEBBBA"/>
<stop offset="1" stop-color="#FF928E"/>
</linearGradient>
<linearGradient id="paint69_linear_486_3043" x1="78.3338" y1="59.0887" x2="62.3188" y2="81.2992" gradientUnits="userSpaceOnUse">
<stop stop-color="#FEBBBA"/>
<stop offset="1" stop-color="#FF928E"/>
</linearGradient>
<linearGradient id="paint70_linear_486_3043" x1="82.782" y1="51.0016" x2="85.7553" y2="51.0016" gradientUnits="userSpaceOnUse">
<stop stop-color="#FEBBBA"/>
<stop offset="1" stop-color="#FF928E"/>
</linearGradient>
<linearGradient id="paint71_linear_486_3043" x1="56.8624" y1="88.04" x2="69.7999" y2="92.2971" gradientUnits="userSpaceOnUse">
<stop stop-color="#09005D"/>
<stop offset="1" stop-color="#1A0F91"/>
</linearGradient>
<linearGradient id="paint72_linear_486_3043" x1="74.6846" y1="79.6916" x2="83.9198" y2="89.4863" gradientUnits="userSpaceOnUse">
<stop stop-color="#09005D"/>
<stop offset="1" stop-color="#1A0F91"/>
</linearGradient>
<linearGradient id="paint73_linear_486_3043" x1="37.5512" y1="91.0634" x2="66.177" y2="79.0473" gradientUnits="userSpaceOnUse">
<stop stop-color="#FEBBBA"/>
<stop offset="1" stop-color="#FF928E"/>
</linearGradient>
<clipPath id="clip0_486_3043">
<rect width="145.763" height="145" fill="white"/>
</clipPath>
</defs>
</svg>
