<svg width="15" height="16" viewBox="0 0 15 16" fill="none" xmlns="http://www.w3.org/2000/svg">
<path d="M9.98996 15.582C9.82717 15.5101 9.73051 15.3805 9.64286 15.2313C8.50843 13.2933 7.37008 11.3576 6.23291 9.42114C6.20396 9.37154 6.17578 9.32194 6.13782 9.2558C6.64614 8.96702 7.14977 8.68132 7.66201 8.39062C7.84945 8.70978 8.02946 9.01624 8.20947 9.32271C9.2085 11.0227 10.2067 12.723 11.2077 14.4222C11.295 14.5707 11.3568 14.7245 11.2703 14.8829C11.2203 14.9744 11.1353 15.0605 11.045 15.1159C10.7769 15.2801 10.4987 15.4278 10.2244 15.582H9.98996Z" fill="#144973"/>
<path d="M14.9996 5.1593H13.2528V3.43164H14.9996V5.1593Z" fill="#144973"/>
<path d="M14.9996 7.75109H13.2528V6.02344H14.9996V7.75109Z" fill="#144973"/>
<path d="M14.9996 2.56815H13.2512V0.841267C13.2935 0.841267 13.3397 0.841267 13.3858 0.841267C13.7372 0.841267 14.089 0.852418 14.44 0.837806C14.7065 0.826655 14.8908 0.919325 14.9996 1.15773V2.56854V2.56815Z" fill="#144973"/>
<path d="M14.9995 10.0251C14.8888 10.2719 14.6947 10.3554 14.4255 10.345C14.0369 10.33 13.6472 10.3411 13.2504 10.3411V8.61426H14.9999V10.0251H14.9995Z" fill="#144973"/>
<path d="M12.3516 10.3419C11.5255 10.3419 10.7108 10.3438 9.89569 10.3369C9.84717 10.3365 9.78221 10.2754 9.75325 10.2262C9.01131 8.9711 8.2733 7.71371 7.53449 6.45632C7.34666 6.13679 7.16116 5.8161 6.97176 5.49771C6.5914 4.85902 5.86356 4.50488 5.18502 4.62523C4.38438 4.7675 3.83301 5.29545 3.70231 6.06988C3.6397 6.44248 3.69527 6.80778 3.88897 7.14077C4.37303 7.9725 4.861 8.80229 5.3478 9.63286C5.48084 9.86011 5.61389 10.0874 5.75633 10.3312H2.64771V0.849609H12.3516V10.3419Z" fill="#144973"/>
<path d="M7.21516 7.65231C6.71075 7.93877 6.20986 8.22294 5.70037 8.5121C5.6405 8.41097 5.58688 8.3206 5.53366 8.23024C5.24604 7.74113 4.95256 7.25509 4.67238 6.76175C4.38476 6.25534 4.64225 5.65625 5.20457 5.49898C5.58063 5.39362 5.98015 5.54359 6.18833 5.88812C6.52643 6.44798 6.85357 7.01477 7.18462 7.57886C7.19636 7.59886 7.20263 7.62154 7.21554 7.65269L7.21516 7.65231Z" fill="#144973"/>
<path d="M0.0114746 3.43945H1.7497V5.14788H0.0114746V3.43945Z" fill="#144973"/>
<path d="M0.0114746 6.03027H1.7497V7.73871H0.0114746V6.03027Z" fill="#144973"/>
<path d="M0.00237288 2.5599C0.00237288 2.10655 -0.00466777 1.66127 0.00550648 1.21638C0.0102023 1.01796 0.200381 0.846852 0.40504 0.844161C0.848794 0.838008 1.29255 0.842238 1.74687 0.842238V2.5599H0.00237288Z" fill="#144973"/>
<path d="M0.000872033 8.62148H1.74967V10.3311C1.71445 10.3345 1.67766 10.3411 1.64049 10.3411C1.24995 10.3418 0.859421 10.3426 0.468886 10.3411C0.182051 10.3403 0.00203681 10.1649 0.00125418 9.88502C8.0226e-05 9.4682 0.00125418 9.05137 0.00125418 8.62109L0.000872033 8.62148Z" fill="#144973"/>
</svg>
