<svg width="18" height="18" viewBox="0 0 18 18" fill="none" xmlns="http://www.w3.org/2000/svg">
<path d="M0 10.4299C0.08 10.2399 0.24 10.1199 0.43 10.0399C0.71 9.92988 0.98 9.76988 1.27 9.70988C1.67 9.62988 2.03 9.79988 2.23 10.1599C2.51 10.6599 2.76 11.1799 3.01 11.6999C3.6 12.8899 4.2 14.0799 4.79 15.2699C5.09 15.8799 4.91 16.4399 4.3 16.7399C4.09 16.8499 3.87 16.9499 3.66 17.0499L3.64 17.0699H3.37C3.18 16.9899 3.07 16.8299 2.98 16.6399C2.55 15.7699 2.11 14.8899 1.67 14.0199C1.11 12.9099 0.56 11.7999 0 10.6899V10.4199V10.4299Z" fill="#144973"/>
<path d="M2.96997 9.36981C3.46997 8.90981 3.95997 8.45981 4.58997 8.19981C5.95997 7.63981 7.22997 7.78981 8.36997 8.75981C8.62997 8.97981 8.88997 9.07981 9.22997 9.07981C9.99997 9.05981 10.77 9.07981 11.55 9.07981C12.04 9.07981 12.43 9.40981 12.54 9.88981C12.63 10.3198 12.4 10.7898 11.98 10.9798C11.84 11.0398 11.67 11.0798 11.51 11.0798C10.87 11.0898 10.23 11.0798 9.58997 11.0798C9.19997 11.0798 8.96997 11.3898 9.06997 11.7298C9.12997 11.9298 9.30997 12.0698 9.54997 12.0798C10.32 12.0798 11.08 12.0898 11.85 12.0798C12.19 12.0798 12.48 11.9298 12.7 11.6498C13.56 10.5898 14.42 9.52981 15.29 8.46981C15.64 8.03981 16.22 7.94981 16.66 8.25981C17.09 8.55981 17.22 9.16981 16.91 9.61981C16.31 10.5098 15.69 11.3798 15.08 12.2598C14.67 12.8498 14.28 13.4498 13.83 14.0098C13.26 14.7198 12.48 15.0698 11.58 15.0798C10.13 15.0898 8.67997 15.0798 7.22997 15.0798C6.79997 15.0798 6.36997 15.0798 5.94997 15.0798C5.85997 15.0798 5.80997 15.0598 5.76997 14.9798C4.83997 13.1198 3.91997 11.2598 2.97997 9.37981L2.96997 9.36981Z" fill="#144973"/>
<path d="M11.2599 4.06004C11.6599 4.51004 11.9199 5.01004 11.9999 5.60004C12.0399 5.90004 12.0399 6.20004 12.0399 6.50004C12.0399 6.87004 11.8499 7.07004 11.4799 7.07004C10.2599 7.07004 9.02994 7.07004 7.80994 7.07004C7.38994 7.07004 6.96994 7.07004 6.53994 7.07004C6.19994 7.07004 6.00994 6.87004 5.99994 6.53004C5.97994 5.93004 5.99994 5.33004 6.29994 4.78004C6.42994 4.53004 6.59994 4.30004 6.75994 4.04004C7.38994 4.71004 8.13994 5.05004 9.01994 5.06004C9.89994 5.06004 10.6499 4.72004 11.2599 4.06004Z" fill="#144973"/>
<path d="M11.04 2.03008C11.04 3.15008 10.14 4.06008 9.05001 4.06008C7.94001 4.06008 7.01001 3.14008 7.01001 2.03008C7.01001 0.92008 7.94001 -0.0099201 9.05001 7.9902e-05C10.15 7.9902e-05 11.04 0.92008 11.04 2.03008Z" fill="#144973"/>
</svg>
