<svg width="17" height="10" viewBox="0 0 17 10" fill="none" xmlns="http://www.w3.org/2000/svg">
<path d="M17 0.918065C16.8811 1.10394 16.7055 1.14765 16.4912 1.14587C15.5951 1.13873 14.6989 1.1429 13.7777 1.1429C13.7777 1.3481 13.7743 1.54706 13.7813 1.74542C13.7825 1.77516 13.8282 1.81323 13.8624 1.82988C14.2159 2.00326 14.3799 2.284 14.3766 2.66972C14.3724 3.13188 14.3775 3.59403 14.3751 4.05618C14.3724 4.56651 14.005 4.90971 13.4868 4.93498C12.8655 4.96532 12.4578 4.5341 12.4869 3.96191C12.4911 3.87626 12.4875 3.79001 12.4875 3.69336H11.884C11.8619 4.00116 11.7756 4.30956 11.46 4.42198C11.1824 4.52071 10.871 4.52815 10.5438 4.58079C10.5181 4.63134 10.5118 4.70421 10.6113 4.77558C11.4554 5.37929 11.9203 6.22925 12.2075 7.18746C12.4278 7.92173 12.5053 8.67741 12.5126 9.44082C12.5153 9.73287 12.3104 9.90387 12.0625 9.82357C11.9127 9.77509 11.8377 9.64454 11.8228 9.43428C11.7917 9.00127 11.7787 8.56529 11.7154 8.13674C11.6052 7.38879 11.3792 6.67177 10.9209 6.05408C10.7248 5.7897 10.4661 5.56963 10.2309 5.33409C10.1982 5.30138 10.1347 5.27967 10.0874 5.28234C9.76421 5.30138 9.44128 5.32993 9.11835 5.35193C9.03179 5.35788 8.94433 5.35283 8.84809 5.35283V5.87119C8.9068 5.87386 8.96491 5.87892 9.02302 5.87892C9.39376 5.87951 9.76451 5.87862 10.1353 5.87951C10.4385 5.8804 10.565 5.99639 10.5671 6.28784C10.5708 6.76099 10.5711 7.23385 10.5671 7.70701C10.5647 7.98448 10.4437 8.10611 10.161 8.107C9.05419 8.11028 7.94739 8.10998 6.8409 8.107C6.5558 8.10611 6.43505 7.98656 6.43263 7.70998C6.42869 7.23147 6.42869 6.75296 6.43263 6.27445C6.43505 5.99936 6.56186 5.87981 6.84181 5.87892C7.27309 5.87743 7.70437 5.87862 8.14836 5.87862V5.35164C7.91108 5.35164 7.67501 5.35996 7.43985 5.34896C7.27066 5.34093 7.1033 5.30197 6.93412 5.2871C6.88206 5.28264 6.81669 5.299 6.77462 5.32903C6.31277 5.66152 5.98713 6.10256 5.74652 6.60635C5.3449 7.44738 5.20356 8.34343 5.17632 9.26298C5.17299 9.37629 5.16936 9.49168 5.14545 9.60171C5.11064 9.76171 4.98354 9.83814 4.82979 9.83874C4.67574 9.83933 4.55528 9.76231 4.51019 9.60439C4.49839 9.56305 4.48597 9.51933 4.48657 9.47711C4.50382 8.32648 4.65789 7.20411 5.20357 6.16382C5.48866 5.61989 5.86577 5.15149 6.36756 4.78212C6.42718 4.73841 6.45169 4.64919 6.49285 4.58079C6.47893 4.56443 6.46502 4.54778 6.45079 4.53142C6.32005 4.53142 6.1896 4.53142 6.05885 4.53142C5.47685 4.53112 5.2187 4.31819 5.12306 3.76027C5.11943 3.73945 5.11367 3.71923 5.10761 3.69247H4.50927C4.50927 3.82243 4.51351 3.94585 4.50867 4.06897C4.49081 4.5219 4.17395 4.87818 3.75024 4.92606C3.17762 4.9906 2.76843 4.75 2.64585 4.27239C2.62709 4.19982 2.62346 4.1222 2.62316 4.04666C2.62134 3.57351 2.62134 3.10065 2.62255 2.62749C2.62346 2.26765 2.78992 2.00237 3.11467 1.84178C3.1985 1.80044 3.22633 1.75821 3.22301 1.67077C3.21635 1.50304 3.2212 1.33501 3.2212 1.1426C3.15401 1.1426 3.09559 1.1426 3.03748 1.1426C2.18522 1.1426 1.33326 1.1426 0.480998 1.1423C0.420468 1.1423 0.358424 1.14379 0.299407 1.13338C0.115093 1.10007 -0.00355072 0.963567 8.10904e-05 0.797025C0.0037129 0.635539 0.117209 0.510038 0.297589 0.476135C0.356606 0.465132 0.41865 0.465727 0.47918 0.465727C1.3257 0.465132 2.17251 0.465429 3.01903 0.465429C3.07925 0.465429 3.13948 0.465429 3.164 0.465429C3.23482 0.326248 3.28021 0.200152 3.3583 0.0984431C3.39673 0.0481832 3.49479 0.023797 3.56712 0.0208231C3.75931 0.0130908 3.86403 0.147216 3.92637 0.465429H4.10343C4.9336 0.465429 5.76346 0.465429 6.59363 0.465429C6.63237 0.465429 6.67112 0.464834 6.70986 0.465429C6.96681 0.46989 7.13477 0.606692 7.13084 0.808326C7.12691 1.01204 6.96287 1.142 6.70138 1.1423C5.83822 1.14349 4.97476 1.1429 4.1116 1.1429C4.05167 1.1429 3.99206 1.1429 3.91034 1.1429C3.91034 1.34899 3.90701 1.5426 3.91366 1.7359C3.91488 1.76772 3.95451 1.81114 3.9872 1.82691C4.36491 2.00772 4.51897 2.31344 4.51079 2.71314C4.50898 2.80444 4.51079 2.89604 4.51079 2.99775H5.11186C5.12124 2.9582 5.13546 2.91299 5.14273 2.8669C5.20023 2.49872 5.4823 2.23434 5.86152 2.22333C6.30945 2.21055 6.75767 2.2162 7.2059 2.2159C8.4731 2.2153 9.74031 2.21471 11.0075 2.2162C11.443 2.21679 11.7448 2.41961 11.8407 2.77233C11.8604 2.84489 11.8685 2.92073 11.8831 3.00073H12.4887C12.4887 2.88534 12.4875 2.77351 12.4887 2.6614C12.4932 2.28668 12.6539 2.00564 12.9989 1.83047C13.0386 1.81025 13.0834 1.75613 13.0852 1.71568C13.0946 1.53219 13.0891 1.3478 13.0891 1.1423H12.9003C12.0813 1.1423 11.2623 1.1423 10.4434 1.1423C10.4046 1.1423 10.3659 1.1423 10.3271 1.1423C10.0384 1.14111 9.86893 1.01621 9.86833 0.803865C9.86772 0.59212 10.0381 0.465132 10.3265 0.464834C11.1788 0.464239 12.0308 0.464834 12.883 0.464834C12.9436 0.464834 13.0038 0.464834 13.0265 0.464834C13.11 0.320003 13.169 0.190338 13.2553 0.0814915C13.2907 0.0371796 13.3854 0.0205256 13.4526 0.0217152C13.6527 0.025284 13.7519 0.157922 13.791 0.464834H13.9671C14.8082 0.464834 15.6493 0.468998 16.4903 0.46186C16.704 0.460076 16.8801 0.503793 16.9997 0.68907V0.91747L17 0.918065ZM8.94856 6.99296C8.94675 6.74464 8.7473 6.5543 8.49216 6.55698C8.2446 6.55966 8.05392 6.74761 8.0515 6.99118C8.04878 7.23712 8.25096 7.44024 8.49883 7.44084C8.74579 7.44143 8.95038 7.23772 8.94856 6.99296Z" fill="#144973"/>
</svg>
