<svg width="86" height="86" viewBox="0 0 86 86" fill="none" xmlns="http://www.w3.org/2000/svg">
<path d="M81.7166 23.2024C80.7871 19.7027 78.0487 16.9465 74.5717 16.0112C68.2694 14.3115 42.9978 14.3115 42.9978 14.3115C42.9978 14.3115 17.7264 14.3115 11.4239 16.0112C7.94693 16.9467 5.20848 19.7027 4.27904 23.2024C2.59033 29.5457 2.59033 42.7804 2.59033 42.7804C2.59033 42.7804 2.59033 56.0151 4.27904 62.3584C5.20848 65.8581 7.94693 68.4995 11.4239 69.4348C17.7264 71.1345 42.9978 71.1345 42.9978 71.1345C42.9978 71.1345 68.2692 71.1345 74.5717 69.4348C78.0487 68.4995 80.7871 65.8581 81.7166 62.3584C83.4053 56.0151 83.4053 42.7804 83.4053 42.7804C83.4053 42.7804 83.4053 29.5457 81.7166 23.2024ZM34.7326 54.7965V30.7643L55.8546 42.7807L34.7326 54.7965Z" fill="#FF0000"/>
</svg>
