<svg width="171" height="113" viewBox="0 0 171 113" fill="none" xmlns="http://www.w3.org/2000/svg">
<g clip-path="url(#clip0_228_2326)">
<path d="M85.3068 85.0349C131.704 85.0349 169.316 66.2479 169.316 43.0731C169.316 19.8983 131.704 1.11133 85.3068 1.11133C38.9101 1.11133 1.2981 19.8983 1.2981 43.0731C1.2981 66.2479 38.9101 85.0349 85.3068 85.0349Z" fill="#A71E22"/>
<path d="M85.3068 86.0582C62.7099 86.0582 41.443 81.6489 25.4343 73.6585C9.20391 65.5463 0.263672 54.6813 0.263672 43.0733C0.263672 31.4653 9.20391 20.5881 25.4343 12.4759C41.4553 4.48551 62.7099 0.0761719 85.3068 0.0761719C107.904 0.0761719 129.171 4.48551 145.179 12.4759C161.41 20.5881 170.35 31.4531 170.35 43.0611C170.35 54.6691 161.41 65.5463 145.179 73.6585C129.171 81.6611 107.904 86.0582 85.3068 86.0582ZM85.3068 2.12249C63.0301 2.12249 42.0956 6.44657 26.3702 14.303C10.8787 22.0498 2.3448 32.2692 2.3448 43.0733C2.3448 53.8774 10.8787 64.0846 26.3825 71.8314C42.1079 79.6878 63.0424 84.0119 85.3191 84.0119C107.596 84.0119 128.53 79.6878 144.256 71.8314C159.76 64.0846 168.293 53.8774 168.293 43.0733C168.293 32.2692 159.76 22.0619 144.256 14.3152C128.518 6.45875 107.596 2.13467 85.3068 2.13467V2.12249Z" fill="#FDD81E"/>
<path d="M55.8138 44.6204L42.7606 44.5351L39.7066 52.9396C39.6081 53.2198 39.3372 53.4147 38.9185 53.5243C38.4875 53.6339 37.9949 53.6705 37.4407 53.6217C36.8743 53.573 36.2832 53.4634 35.6675 53.2807C35.0518 53.098 34.5099 52.8544 34.0297 52.5499C33.5494 52.2454 33.1923 51.8921 32.9337 51.4902C32.6751 51.0882 32.6258 50.6497 32.7859 50.1747C32.8721 49.8945 33.0445 49.3829 33.3031 48.6399C33.5617 47.8969 33.8819 46.9834 34.2636 45.8993C34.6577 44.8153 35.0887 43.585 35.569 42.2208C36.0492 40.8566 36.5664 39.4071 37.0959 37.8967C37.6255 36.3864 38.1796 34.8151 38.7584 33.2194C39.3248 31.6116 39.8913 30.0403 40.4455 28.4812C40.9996 26.9343 41.5414 25.4239 42.0463 23.9744C42.5635 22.525 43.0315 21.1973 43.4625 19.9792C43.8935 18.7612 44.2752 17.6893 44.5954 16.7758C44.9156 15.8622 45.1619 15.1558 45.3219 14.6686C45.4205 14.3762 45.6667 14.1326 46.0362 13.9499C46.4056 13.7672 46.8489 13.621 47.3661 13.5358C47.8833 13.4505 48.4252 13.4018 49.0163 13.414C49.6074 13.414 50.1492 13.4749 50.6664 13.5723C51.1836 13.6698 51.6269 13.8037 52.0087 13.9864C52.3904 14.1692 52.6367 14.3762 52.7352 14.6076C52.9938 15.2045 53.3756 16.1302 53.8558 17.3848C54.3361 18.6394 54.8902 20.1132 55.5306 21.782C56.1586 23.4629 56.8359 25.2899 57.5501 27.251C58.2644 29.2242 58.9909 31.1975 59.7175 33.1951C60.444 35.1927 61.1459 37.1416 61.8355 39.0417C62.5251 40.954 63.1409 42.6837 63.695 44.2306C64.2492 45.7897 64.7048 47.093 65.0742 48.1771C65.4437 49.249 65.6899 49.9676 65.8131 50.3087C65.9609 50.7837 65.9116 51.2222 65.653 51.6241C65.4067 52.0261 65.0373 52.3793 64.5693 52.6838C64.0891 52.9884 63.5472 53.232 62.9315 53.4147C62.3158 53.5974 61.7247 53.7192 61.1582 53.7557C60.5918 53.8045 60.0992 53.7557 59.6805 53.6583C59.2495 53.5487 58.9909 53.3538 58.8924 53.0736L55.8138 44.6204ZM45.5067 36.971L53.0677 36.9954L49.2872 26.5445L45.5067 36.971Z" fill="white"/>
<path d="M71.3054 23.6215C71.3054 22.5496 71.3054 21.5143 71.3054 20.5277C71.3054 19.5289 71.3177 18.6275 71.33 17.8236C71.33 17.0197 71.3423 16.3254 71.3546 15.7651C71.3546 15.2048 71.3546 14.8028 71.3546 14.5836C71.3546 14.3034 71.5393 14.0598 71.9088 13.8649C72.2782 13.67 72.7461 13.4995 73.288 13.3899C73.8421 13.2681 74.4332 13.195 75.0613 13.1828C75.6893 13.1706 76.2927 13.1828 76.8345 13.2559C77.3887 13.329 77.8443 13.463 78.2014 13.6579C78.5708 13.8528 78.7556 14.0964 78.7556 14.3887L78.8048 23.6215L83.3119 23.5971C83.6197 23.5971 83.903 23.792 84.1493 24.1696C84.3956 24.5472 84.5926 25.0223 84.728 25.6069C84.8635 26.1916 84.9497 26.8128 84.9743 27.4949C84.999 28.177 84.9374 28.7982 84.8019 29.3829C84.6665 29.9675 84.4448 30.4426 84.1369 30.8202C83.8291 31.1978 83.4227 31.3926 82.9055 31.3926L78.891 31.3683L79.0265 52.1604C79.0265 52.4771 78.8418 52.7572 78.46 53.013C78.0783 53.2688 77.598 53.4637 77.0069 53.5977C76.4158 53.7438 75.7878 53.8169 75.1228 53.8413C74.4455 53.8656 73.8175 53.8047 73.2387 53.6586C72.6599 53.5124 72.1797 53.2932 71.7856 52.9765C71.3916 52.6598 71.2068 52.2456 71.2315 51.7341C71.2315 51.2834 71.2315 50.6622 71.2315 49.8704C71.2315 49.0787 71.2315 48.153 71.2315 47.1177C71.2315 46.0823 71.2315 44.9373 71.2315 43.6949C71.2315 42.4525 71.2315 41.1492 71.2315 39.7972V31.3196L66.7983 31.2708C66.5151 31.2708 66.2811 31.076 66.0841 30.6984C65.887 30.3208 65.7269 29.8457 65.6284 29.2976C65.5176 28.7373 65.456 28.1283 65.4437 27.4705C65.4314 26.8128 65.4683 26.2038 65.5545 25.6435C65.6407 25.0832 65.7762 24.6203 65.9609 24.2427C66.1456 23.8651 66.3919 23.6702 66.6998 23.6702L71.2684 23.6459L71.3054 23.6215Z" fill="white"/>
<path d="M108.359 43.1469C108.569 42.9154 108.876 42.818 109.307 42.8545C109.726 42.9032 110.194 43.0372 110.674 43.2687C111.167 43.5001 111.66 43.7924 112.152 44.1578C112.645 44.5232 113.051 44.9008 113.396 45.3028C113.728 45.7048 113.962 46.0945 114.073 46.4843C114.184 46.8741 114.122 47.2029 113.876 47.4831C112.903 48.555 111.869 49.4807 110.748 50.2603C109.628 51.0398 108.47 51.6732 107.276 52.1604C106.081 52.6476 104.862 53.0009 103.631 53.2079C102.387 53.415 101.168 53.4881 99.9732 53.4028C98.163 53.3176 96.4266 52.9156 94.7642 52.197C93.1141 51.4783 91.661 50.4795 90.4172 49.2006C89.1735 47.9094 88.1883 46.3503 87.4618 44.4989C86.7352 42.6475 86.3904 40.5402 86.4397 38.1529C86.452 36.8861 86.6121 35.6315 86.8953 34.3769C87.1909 33.1223 87.6219 31.9286 88.176 30.7837C88.7425 29.6509 89.4321 28.579 90.2571 27.5924C91.0822 26.6058 92.0427 25.7409 93.151 25.0223C94.247 24.2915 95.4784 23.719 96.8576 23.2927C98.2245 22.8663 99.7269 22.6471 101.377 22.6106C103.47 22.5862 105.293 22.9394 106.832 23.6824C108.372 24.4254 109.677 25.4242 110.748 26.6667C111.807 27.9091 112.632 29.3464 113.236 30.942C113.827 32.5498 114.209 34.2064 114.393 35.9116C114.455 36.4719 114.443 37.0566 114.393 37.6535C114.332 38.2503 114.196 38.7984 113.999 39.2978C113.802 39.7972 113.544 40.1992 113.211 40.528C112.879 40.8447 112.485 41.0153 112.017 41.0274C111.389 41.0396 110.625 41.0518 109.738 41.064C108.852 41.064 107.891 41.064 106.845 41.064C105.81 41.064 104.714 41.0518 103.557 41.0396C102.411 41.0396 101.254 41.0153 100.109 41.0031C98.9634 40.9909 97.8305 40.9787 96.7099 40.9665C95.6016 40.9665 94.5672 40.9422 93.6067 40.93C93.8406 41.9166 94.1977 42.7693 94.6657 43.5001C95.1336 44.2309 95.6755 44.8521 96.2912 45.3637C96.9069 45.8631 97.5842 46.2529 98.3354 46.4965C99.0865 46.7523 99.8624 46.8863 100.687 46.8984C101.993 46.9106 103.31 46.6061 104.653 45.9849C105.995 45.3637 107.239 44.4014 108.372 43.1103L108.359 43.1469ZM100.404 29.9919C99.1604 30.0528 98.0521 30.3939 97.067 31.0273C96.0818 31.6607 95.2814 32.4646 94.6534 33.4512L106.426 33.4025C106.204 32.9031 105.933 32.428 105.601 31.9895C105.268 31.551 104.862 31.1856 104.382 30.8689C103.901 30.5644 103.335 30.333 102.682 30.1746C102.03 30.0163 101.279 29.9554 100.404 29.9797V29.9919Z" fill="white"/>
<path d="M126.351 60.2479C126.289 59.8581 126.326 59.5049 126.461 59.1882C126.597 58.8715 126.782 58.6279 127.028 58.4573C127.274 58.2868 127.508 58.2625 127.705 58.3964C128.001 58.6035 128.358 58.7984 128.777 58.9811C129.195 59.1638 129.626 59.2734 130.045 59.31C130.464 59.3587 130.858 59.31 131.215 59.1638C131.572 59.0176 131.843 58.7253 132.015 58.2868C132.101 58.0676 132.052 57.8727 131.868 57.7022C131.683 57.5438 131.4 57.3976 131.018 57.2758C130.648 57.154 130.205 57.0688 129.712 57.0079C129.22 56.947 128.703 56.8982 128.173 56.8739C128.05 56.8739 127.939 56.8617 127.828 56.8252C127.718 56.8008 127.619 56.7277 127.545 56.6303C127.459 56.5328 127.397 56.3867 127.36 56.1918C127.311 55.9969 127.299 55.7411 127.311 55.4122L127.36 53.6461C126.375 53.4999 125.415 53.2685 124.467 52.9518C123.518 52.6351 122.619 52.2575 121.77 51.8068C120.92 51.3561 120.132 50.8324 119.418 50.2477C118.703 49.663 118.088 49.0053 117.571 48.2988C117.386 48.043 117.324 47.7142 117.41 47.3C117.497 46.8859 117.657 46.4474 117.891 45.9723C118.125 45.4973 118.433 45.0466 118.777 44.596C119.134 44.1453 119.492 43.7677 119.861 43.4632C120.23 43.1465 120.588 42.9394 120.92 42.8176C121.253 42.6958 121.511 42.7445 121.72 42.9516C122.213 43.4753 122.792 43.9504 123.42 44.3889C124.06 44.8274 124.701 45.205 125.366 45.5217C126.03 45.8384 126.683 46.082 127.336 46.2403C127.988 46.3987 128.58 46.4718 129.121 46.4352C129.663 46.4108 130.119 46.2647 130.501 46.0089C130.882 45.7531 131.141 45.3755 131.289 44.8517C131.4 44.3889 131.239 43.9138 130.784 43.4388C130.328 42.9516 129.7 42.44 128.9 41.9041C128.099 41.3559 127.176 40.7835 126.154 40.1623C125.132 39.5411 124.109 38.8833 123.112 38.189C122.115 37.4947 121.166 36.7395 120.292 35.9356C119.418 35.1317 118.728 34.2669 118.223 33.329C117.743 32.4276 117.484 31.4898 117.447 30.5397C117.41 29.5896 117.558 28.6761 117.891 27.7869C118.223 26.8977 118.703 26.0816 119.344 25.3142C119.984 24.5469 120.735 23.8891 121.61 23.341C122.484 22.7929 123.432 22.3909 124.479 22.123C125.513 21.8672 126.597 21.7819 127.73 21.8915C128.789 22.0012 129.848 22.196 130.932 22.4884C132.015 22.7807 133.05 23.1705 134.023 23.6455C134.995 24.1206 135.894 24.6809 136.707 25.3386C137.52 25.9964 138.185 26.715 138.714 27.5189C138.924 27.8478 138.985 28.2254 138.911 28.6395C138.837 29.0658 138.677 29.4922 138.443 29.9307C138.197 30.3691 137.889 30.7955 137.52 31.1974C137.15 31.6116 136.769 31.9526 136.387 32.2328C136.005 32.5129 135.636 32.7078 135.291 32.8174C134.934 32.927 134.663 32.8905 134.454 32.7322C133.727 32.1475 132.927 31.5994 132.077 31.0634C131.227 30.5275 130.414 30.1134 129.639 29.821C128.863 29.5287 128.161 29.3825 127.545 29.3825C126.917 29.3825 126.474 29.6505 126.215 30.1499C126.067 30.4301 126.043 30.7102 126.141 30.9904C126.24 31.2705 126.4 31.5385 126.646 31.7943C126.892 32.0501 127.176 32.3058 127.521 32.5495C127.865 32.7931 128.222 33.0245 128.592 33.2316C128.961 33.4386 129.318 33.6335 129.663 33.804C130.008 33.9746 130.291 34.1086 130.525 34.2182C131.757 34.7054 132.914 35.3266 134.01 36.0818C135.106 36.837 136.054 37.7018 136.879 38.6762C137.705 39.6629 138.345 40.7469 138.825 41.9284C139.305 43.1221 139.539 44.4011 139.539 45.7653C139.539 47.1295 139.293 48.3597 138.788 49.3707C138.296 50.3695 137.618 51.21 136.793 51.8677C135.956 52.5254 134.983 53.0248 133.887 53.3415C132.779 53.6582 131.609 53.8409 130.377 53.8653C130.353 54.048 130.341 54.2185 130.353 54.3891C130.365 54.5596 130.414 54.7058 130.501 54.8276C132.065 54.9128 133.296 55.2782 134.195 55.9238C135.094 56.5572 135.525 57.3976 135.513 58.4452C135.5 59.0298 135.34 59.5292 135.057 59.9677C134.761 60.4062 134.38 60.7716 133.899 61.0762C133.419 61.3807 132.89 61.6121 132.286 61.7704C131.683 61.9288 131.079 62.014 130.451 62.0384C129.823 62.0628 129.22 62.0019 128.629 61.8679C128.038 61.7339 127.508 61.5268 127.04 61.2467V61.198C126.634 60.93 126.4 60.6011 126.338 60.2113L126.351 60.2479Z" fill="white"/>
<path d="M87.4862 93.7928C110.202 93.7928 128.616 87.1505 128.616 78.9569C128.616 70.7633 110.202 64.1211 87.4862 64.1211C64.7708 64.1211 46.3562 70.7633 46.3562 78.9569C46.3562 87.1505 64.7708 93.7928 87.4862 93.7928Z" fill="#A71E22"/>
<path d="M87.4863 94.8283C76.3788 94.8283 65.9238 93.257 58.0426 90.4189C49.8289 87.4591 45.3096 83.3908 45.3096 78.9571C45.3096 74.5234 49.8289 70.4673 58.0426 67.4953C65.9238 64.6572 76.3788 63.0859 87.4863 63.0859C98.5939 63.0859 109.049 64.6572 116.93 67.4953C125.144 70.4551 129.663 74.5234 129.663 78.9571C129.663 83.3908 125.144 87.4469 116.93 90.4189C109.049 93.257 98.5939 94.8283 87.4863 94.8283ZM87.4863 65.1566C76.6127 65.1566 66.4164 66.6792 58.7569 69.4442C51.5283 72.0508 47.3907 75.5222 47.3907 78.9693C47.3907 82.4164 51.5283 85.8878 58.7569 88.4944C66.4164 91.2594 76.6127 92.782 87.4863 92.782C98.3599 92.782 108.556 91.2594 116.216 88.4944C123.444 85.8878 127.582 82.4164 127.582 78.9693C127.582 75.5222 123.444 72.0508 116.216 69.4442C108.556 66.6792 98.3599 65.1566 87.4863 65.1566Z" fill="#FDD81E"/>
<path d="M66.1949 76.3988L68.1775 73.0979C68.2145 73.037 68.2883 73.0004 68.3992 72.9882C68.51 72.9882 68.6331 72.9882 68.7686 73.0248C68.9041 73.0613 69.0518 73.11 69.1873 73.1709C69.3351 73.2318 69.4582 73.3049 69.569 73.378C69.6799 73.4511 69.7661 73.5242 69.8276 73.6094C69.8892 73.6825 69.9015 73.7556 69.8646 73.8165L67.1924 78.5912V82.6717C67.1924 82.7448 67.1554 82.8179 67.0569 82.8788C66.9584 82.9397 66.8352 82.9884 66.6875 83.0249C66.5397 83.0615 66.3796 83.0859 66.2072 83.0859C66.0348 83.0859 65.8747 83.0859 65.727 83.0371C65.5792 83.0006 65.456 82.9519 65.3575 82.8666C65.259 82.7813 65.2098 82.6839 65.2098 82.5621L65.2713 78.5669L62.5129 73.7678C62.5129 73.7678 62.4883 73.6703 62.5129 73.6216C62.5375 73.5729 62.5868 73.512 62.6484 73.4511C62.7099 73.3902 62.7961 73.3415 62.8823 73.2806C62.9808 73.2197 63.0794 73.1709 63.1779 73.1344C63.2887 73.0857 63.3872 73.0491 63.498 73.0248C63.6089 73.0004 63.7074 72.976 63.7936 72.9639C63.8921 72.9639 63.966 72.9639 64.0399 72.9639C64.1138 72.9639 64.163 73.0126 64.1877 73.0613L66.158 76.3866L66.1949 76.3988Z" fill="#FECF0A"/>
<path d="M74.5933 82.2816C74.5933 82.2816 74.4701 82.3425 74.4209 82.3669C74.3593 82.3913 74.2977 82.4156 74.2362 82.44C73.6204 82.6836 73.0786 82.8176 72.6107 82.8298C72.1427 82.8298 71.7487 82.7323 71.4162 82.4887C71.0837 82.2573 70.8251 81.8919 70.6404 81.3925C70.4557 80.9052 70.3325 80.2719 70.2833 79.5045C70.2463 78.9807 70.2217 78.3961 70.2217 77.7627C70.2217 77.1293 70.2217 76.4715 70.2586 75.7651C70.2586 75.6555 70.3079 75.5702 70.4064 75.4971C70.5049 75.424 70.6157 75.3753 70.7512 75.3388C70.8867 75.3022 71.0344 75.29 71.1945 75.29C71.3546 75.29 71.5024 75.3144 71.6378 75.3509C71.7733 75.3875 71.8841 75.4362 71.9703 75.5093C72.0565 75.5824 72.0935 75.6676 72.0935 75.7651C72.0812 76.1061 72.0688 76.435 72.0565 76.7639C72.0442 77.0927 72.0319 77.3973 72.0319 77.6896C72.0319 77.9819 72.0319 78.2621 72.0319 78.5179C72.0319 78.7737 72.0319 79.0051 72.0565 79.2122C72.0811 79.5654 72.1181 79.8699 72.192 80.1257C72.2659 80.3815 72.3644 80.5642 72.4998 80.6982C72.6353 80.8322 72.82 80.9052 73.0417 80.9174C73.2633 80.9174 73.5342 80.8687 73.879 80.7347C74.1623 80.6251 74.4086 80.4911 74.6179 80.3328L74.5933 75.7164C74.5933 75.6433 74.6425 75.5702 74.7411 75.5093C74.8396 75.4484 74.9627 75.3997 75.1105 75.3631C75.2583 75.3266 75.4183 75.3022 75.5907 75.3022C75.7631 75.3022 75.9232 75.3022 76.071 75.3509C76.2188 75.3875 76.3419 75.4362 76.4404 75.5215C76.539 75.5945 76.5882 75.7042 76.5882 75.826C76.5882 75.9843 76.5882 76.1914 76.5882 76.4594C76.5882 76.7273 76.5882 77.0075 76.5882 77.3242C76.5882 77.6409 76.5882 77.9819 76.5882 78.3352C76.5882 78.6884 76.5882 79.0538 76.5882 79.407C76.5882 79.7603 76.5882 80.1135 76.5882 80.4546C76.5882 80.7956 76.5882 81.1001 76.5882 81.3803C76.5882 81.6604 76.5882 81.904 76.5882 82.1111C76.5882 82.3182 76.5882 82.4643 76.5882 82.5496C76.5882 82.6227 76.539 82.6836 76.4404 82.7323C76.3419 82.781 76.2311 82.8176 76.0956 82.8541C75.9602 82.8907 75.8001 82.9028 75.64 82.9028C75.4799 82.9028 75.3321 82.9028 75.1844 82.8785C75.0489 82.8541 74.9258 82.8298 74.8396 82.781C74.7411 82.7323 74.7041 82.6714 74.7041 82.5983V82.2695L74.5933 82.2816Z" fill="#FECF0A"/>
<path d="M79.2357 76.0697C79.2357 76.0697 79.3589 76.0088 79.4081 75.9844C79.4697 75.9601 79.5313 75.9357 79.5929 75.9113C80.3563 75.6068 81.0336 75.5338 81.6124 75.6799C82.1912 75.8261 82.6715 76.228 83.0655 76.8736C83.2749 76.6422 83.4842 76.4351 83.7182 76.2646C83.9521 76.0941 84.1861 75.9601 84.4201 75.8504C84.6541 75.7408 84.9004 75.6677 85.1466 75.6312C85.3929 75.5947 85.6269 75.5947 85.8609 75.6312C86.2057 75.6799 86.5012 75.8017 86.7598 75.9844C87.0184 76.1671 87.2278 76.4108 87.4125 76.6909C87.5849 76.9832 87.7327 77.3121 87.8312 77.6897C87.9297 78.0673 87.9913 78.4692 88.0282 78.8956C88.0651 79.4193 88.0898 79.9674 88.0898 80.5521C88.0898 81.1368 88.0898 81.7702 88.0528 82.4644C88.0528 82.5741 88.0036 82.6593 87.9051 82.7324C87.8065 82.8055 87.6957 82.8542 87.5603 82.8908C87.4248 82.9273 87.277 82.9395 87.1169 82.9395C86.9569 82.9395 86.8091 82.9151 86.6736 82.8786C86.5382 82.842 86.4273 82.7933 86.3411 82.7202C86.2549 82.6472 86.218 82.5619 86.218 82.4644C86.2426 81.7823 86.2796 81.1733 86.2919 80.6252C86.3165 80.0771 86.3042 79.602 86.2796 79.1879C86.2549 78.993 86.2303 78.7859 86.1934 78.5789C86.1564 78.3718 86.0949 78.1891 86.0333 78.0186C85.9594 77.848 85.8732 77.7141 85.7747 77.6044C85.6762 77.4948 85.553 77.4339 85.4176 77.4339C85.159 77.4217 84.925 77.4583 84.7403 77.5557C84.5556 77.6532 84.3955 77.7871 84.26 77.9577C84.1246 78.1282 84.0137 78.3353 83.9398 78.5667C83.8536 78.7981 83.7921 79.0539 83.7428 79.3341C83.6935 79.602 83.6566 79.8822 83.6443 80.1745C83.6197 80.4669 83.6197 80.747 83.6073 81.0272C83.6073 81.3073 83.6073 81.5753 83.6073 81.8311C83.6073 82.0869 83.6073 82.3183 83.6073 82.5132C83.6073 82.6228 83.5581 82.7081 83.4596 82.7811C83.3611 82.8542 83.2502 82.9029 83.1148 82.9395C82.9793 82.976 82.8315 82.9882 82.6715 82.9882C82.5114 82.9882 82.3636 82.9638 82.2281 82.9273C82.0927 82.8908 81.9818 82.842 81.8956 82.769C81.8094 82.6959 81.7602 82.6106 81.7725 82.5132C81.7971 81.8311 81.8218 81.222 81.8464 80.6739C81.871 80.1258 81.8587 79.6508 81.8464 79.2366C81.8218 78.8834 81.7848 78.5667 81.7109 78.3109C81.637 78.0551 81.5385 77.848 81.4031 77.7019C81.2676 77.5557 81.0829 77.4705 80.8612 77.4461C80.6396 77.4217 80.3563 77.4826 80.0239 77.6044C79.7406 77.7141 79.4943 77.848 79.285 78.0064L79.3096 82.5619C79.3096 82.635 79.2604 82.7081 79.1619 82.769C79.0633 82.8299 78.9402 82.8786 78.7924 82.9151C78.6447 82.9517 78.4846 82.976 78.3122 82.976C78.1398 82.976 77.9797 82.976 77.8319 82.9273C77.6841 82.8908 77.561 82.842 77.4625 82.7568C77.364 82.6837 77.3147 82.5741 77.3147 82.4523C77.3147 82.2939 77.3147 82.0869 77.3147 81.8189C77.3147 81.5509 77.3147 81.2708 77.3147 80.9541C77.3147 80.6374 77.3147 80.2963 77.3147 79.9431C77.3147 79.5899 77.3147 79.2244 77.3147 78.859C77.3147 78.4936 77.3147 78.1526 77.3147 77.7993C77.3147 77.4461 77.3147 77.1416 77.3147 76.8614C77.3147 76.5813 77.3147 76.3377 77.3147 76.1306C77.3147 75.9235 77.3147 75.7774 77.3147 75.6921C77.3147 75.619 77.364 75.5581 77.4625 75.5094C77.561 75.4607 77.6718 75.4241 77.8073 75.3876C77.9427 75.3632 78.1028 75.3389 78.2629 75.3389C78.423 75.3389 78.5708 75.3389 78.7185 75.3632C78.854 75.3876 78.9771 75.4119 79.0633 75.4607C79.1495 75.5094 79.1988 75.5703 79.1988 75.6434V76.0697H79.2357Z" fill="#FECF0A"/>
<path d="M93.4097 82.2816C93.4097 82.2816 93.2866 82.3425 93.2373 82.3669C93.1757 82.3913 93.1141 82.4156 93.0526 82.44C92.4369 82.6836 91.895 82.8176 91.4271 82.8298C90.9591 82.8298 90.5651 82.7323 90.2326 82.4887C89.9001 82.2573 89.6415 81.8919 89.4568 81.3925C89.2721 80.9052 89.1489 80.2719 89.0997 79.5045C89.0627 78.9807 89.0381 78.3961 89.0381 77.7627C89.0381 77.1293 89.0381 76.4715 89.075 75.7651C89.075 75.6555 89.1243 75.5702 89.2228 75.4971C89.3213 75.424 89.4321 75.3753 89.5676 75.3388C89.7031 75.3022 89.8508 75.29 90.0109 75.29C90.171 75.29 90.3188 75.3144 90.4542 75.3509C90.5897 75.3875 90.7005 75.4362 90.7867 75.5093C90.8729 75.5824 90.9099 75.6676 90.9099 75.7651C90.8976 76.1061 90.8853 76.435 90.8729 76.7639C90.8606 77.0927 90.8483 77.3973 90.8483 77.6896C90.8483 77.9819 90.8483 78.2621 90.8483 78.5179C90.8483 78.7737 90.8483 79.0051 90.8729 79.2122C90.8976 79.5654 90.9345 79.8699 91.0084 80.1257C91.0823 80.3815 91.1808 80.5642 91.3163 80.6982C91.4517 80.8322 91.6364 80.9052 91.8581 80.9174C92.0797 80.9174 92.3507 80.8687 92.6955 80.7347C92.9787 80.6251 93.225 80.4911 93.4343 80.3328L93.4097 75.7164C93.4097 75.6433 93.459 75.5702 93.5575 75.5093C93.656 75.4484 93.7791 75.3997 93.9269 75.3631C94.0747 75.3266 94.2348 75.3022 94.4072 75.3022C94.5796 75.3022 94.7396 75.3022 94.8874 75.3509C95.0352 75.3875 95.1583 75.4362 95.2569 75.5215C95.3554 75.5945 95.4046 75.7042 95.4046 75.826C95.4046 75.9843 95.4046 76.1914 95.4046 76.4594C95.4046 76.7273 95.4046 77.0075 95.4046 77.3242C95.4046 77.6409 95.4046 77.9819 95.4046 78.3352C95.4046 78.6884 95.4046 79.0538 95.4046 79.407C95.4046 79.7603 95.4046 80.1135 95.4046 80.4546C95.4046 80.7956 95.4046 81.1001 95.4046 81.3803C95.4046 81.6604 95.4046 81.904 95.4046 82.1111C95.4046 82.3182 95.4046 82.4643 95.4046 82.5496C95.4046 82.6227 95.3554 82.6836 95.2569 82.7323C95.1583 82.781 95.0475 82.8176 94.9121 82.8541C94.7766 82.8907 94.6165 82.9028 94.4564 82.9028C94.2963 82.9028 94.1486 82.9028 94.0008 82.8785C93.8653 82.8541 93.7422 82.8298 93.656 82.781C93.5575 82.7323 93.5205 82.6714 93.5205 82.5983V82.2695L93.4097 82.2816Z" fill="#FECF0A"/>
<path d="M98.0152 75.9964C98.1753 75.8989 98.36 75.8136 98.5694 75.7527C98.7787 75.6918 99.0004 75.6309 99.2343 75.6066C99.4683 75.5822 99.7146 75.57 99.9732 75.5822C100.232 75.5944 100.478 75.6431 100.724 75.7162C100.971 75.7893 101.205 75.8867 101.439 76.0207C101.673 76.1547 101.882 76.313 102.067 76.5201C102.128 76.581 102.153 76.6785 102.153 76.7759C102.153 76.8855 102.128 76.9951 102.079 77.117C102.03 77.2388 101.98 77.3484 101.907 77.4702C101.833 77.592 101.759 77.6894 101.673 77.7747C101.586 77.86 101.512 77.9209 101.439 77.9574C101.365 77.9939 101.303 77.9939 101.242 77.9574C101.045 77.7991 100.848 77.6773 100.626 77.592C100.404 77.5067 100.195 77.4458 99.9732 77.4215C99.7515 77.3971 99.5422 77.3849 99.3328 77.4215C99.1235 77.4458 98.9388 77.4824 98.7664 77.5433C98.594 77.6042 98.4462 77.6773 98.3231 77.7747C98.1999 77.8721 98.1137 77.9696 98.0645 78.0914L98.126 82.6591C98.126 82.7322 98.0768 82.8052 97.9783 82.8661C97.8797 82.927 97.7566 82.9758 97.6088 83.0123C97.4611 83.0488 97.301 83.0732 97.1286 83.0732C96.9562 83.0732 96.7961 83.0732 96.6483 83.0245C96.5005 82.9758 96.3774 82.9392 96.2789 82.854C96.1804 82.7809 96.1311 82.6713 96.1311 82.5494C96.1311 82.4033 96.1311 82.2084 96.1311 81.9526V77.86C96.1311 77.5067 96.1311 77.1657 96.1311 76.8733C96.1311 76.5688 96.1311 76.3009 96.1311 76.0816V75.57C96.1311 75.4969 96.1804 75.436 96.2666 75.3873C96.3651 75.3386 96.4759 75.3021 96.6114 75.2655C96.7468 75.229 96.9069 75.2168 97.067 75.2168C97.2271 75.2168 97.3872 75.2168 97.5226 75.2412C97.6581 75.2655 97.7812 75.2899 97.8674 75.3386C97.966 75.3873 98.0029 75.4482 98.0029 75.5213V76.0451L98.0152 75.9964Z" fill="#FECF0A"/>
<path d="M104.259 75.5095C104.259 75.2415 104.259 74.9857 104.259 74.7421C104.259 74.4985 104.259 74.2671 104.259 74.0722C104.259 73.8773 104.259 73.7068 104.259 73.5606C104.259 73.4266 104.259 73.3292 104.259 73.2683C104.259 73.1952 104.308 73.1343 104.406 73.0856C104.505 73.0368 104.616 73.0003 104.751 72.9638C104.887 72.9394 105.047 72.915 105.207 72.915C105.367 72.915 105.515 72.915 105.663 72.9394C105.81 72.9638 105.921 72.9881 106.007 73.0368C106.106 73.0856 106.143 73.1465 106.143 73.2196V75.4973H107.3C107.374 75.4973 107.448 75.546 107.51 75.6435C107.571 75.7409 107.62 75.8505 107.657 75.9967C107.694 76.1429 107.719 76.3012 107.719 76.4596C107.719 76.6301 107.719 76.7763 107.67 76.9224C107.633 77.0686 107.584 77.1782 107.497 77.2757C107.423 77.3731 107.313 77.4218 107.189 77.4218H106.167L106.204 82.562C106.204 82.6351 106.155 82.7081 106.057 82.7691C105.958 82.83 105.835 82.8787 105.687 82.9152C105.539 82.9518 105.379 82.9761 105.207 82.9761C105.034 82.9761 104.874 82.9761 104.727 82.9274C104.579 82.8909 104.456 82.8421 104.357 82.7569C104.259 82.6838 104.209 82.5742 104.209 82.4524C104.209 82.3427 104.209 82.1844 104.209 81.9895C104.209 81.7946 104.209 81.5632 104.209 81.3074C104.209 81.0516 104.209 80.7715 104.209 80.4669C104.209 80.1624 104.209 79.8336 104.209 79.5047V77.4096H103.089C103.015 77.4096 102.953 77.3487 102.904 77.2635C102.855 77.166 102.818 77.0564 102.781 76.9224C102.756 76.7884 102.732 76.6301 102.732 76.4717C102.732 76.3134 102.732 76.155 102.756 76.0211C102.781 75.8871 102.818 75.7653 102.855 75.68C102.892 75.5947 102.966 75.5338 103.04 75.5338H104.197L104.259 75.5095Z" fill="#FECF0A"/>
<path d="M115.403 82.5254C115.403 82.5985 115.354 82.6716 115.255 82.7447C115.157 82.8056 115.034 82.8665 114.886 82.903C114.738 82.9396 114.578 82.9761 114.406 82.9883C114.233 83.0005 114.073 82.9883 113.925 82.9639C113.778 82.9396 113.654 82.8787 113.556 82.8056C113.457 82.7325 113.408 82.6351 113.408 82.5011V82.3915C112.953 82.696 112.448 82.8421 111.906 82.8543C111.524 82.8543 111.179 82.8178 110.859 82.7203C110.539 82.6229 110.256 82.4889 110.009 82.3184C109.751 82.1478 109.541 81.9408 109.344 81.7093C109.16 81.4779 109 81.2221 108.876 80.9542C108.753 80.6862 108.655 80.3939 108.581 80.1015C108.507 79.8092 108.47 79.5047 108.458 79.2002C108.458 78.8835 108.458 78.5668 108.532 78.2379C108.593 77.9212 108.679 77.6167 108.803 77.3244C108.926 77.032 109.086 76.7641 109.283 76.5083C109.48 76.2525 109.702 76.0454 109.972 75.8627C110.243 75.68 110.539 75.5338 110.859 75.4364C111.179 75.339 111.549 75.2781 111.955 75.2781C112.251 75.2781 112.509 75.3146 112.768 75.3755C113.014 75.4364 113.248 75.5217 113.47 75.6313C113.47 75.6069 113.47 75.5704 113.47 75.546C113.47 75.5217 113.47 75.4973 113.47 75.4729C113.47 75.3999 113.519 75.339 113.617 75.3024C113.716 75.2537 113.827 75.2172 113.962 75.1928C114.098 75.1684 114.258 75.1563 114.418 75.1563C114.578 75.1563 114.726 75.1562 114.874 75.1928C115.009 75.2172 115.132 75.2537 115.218 75.3024C115.305 75.3511 115.354 75.412 115.354 75.4851L115.391 82.5133L115.403 82.5254ZM111.758 77.1538C111.536 77.1538 111.339 77.2148 111.155 77.3122C110.97 77.4096 110.822 77.5558 110.699 77.7263C110.576 77.8969 110.477 78.1161 110.416 78.3475C110.354 78.5912 110.33 78.8469 110.33 79.1271C110.33 79.2611 110.354 79.3951 110.379 79.529C110.403 79.6752 110.453 79.8092 110.502 79.9554C110.551 80.0893 110.625 80.2233 110.699 80.3573C110.773 80.4913 110.871 80.6009 110.97 80.6984C111.081 80.7958 111.192 80.8689 111.327 80.9298C111.462 80.9907 111.61 81.0151 111.77 81.0151C112.041 81.0151 112.275 80.9542 112.485 80.8324C112.694 80.7106 112.866 80.5522 113.014 80.3573C113.162 80.1624 113.26 79.9432 113.334 79.6874C113.408 79.4438 113.445 79.2002 113.445 78.9444C113.445 78.6886 113.408 78.4815 113.334 78.2623C113.26 78.043 113.15 77.8481 113.002 77.6776C112.854 77.5071 112.682 77.3731 112.472 77.2757C112.263 77.1782 112.017 77.1295 111.746 77.1538H111.758Z" fill="#FECF0A"/>
<path d="M166.102 98.4707H3.72412V111.479H166.102V98.4707Z" fill="#A71E22"/>
<path d="M167.136 112.515H2.6897V97.4473H167.136V112.515ZM4.77083 110.456H165.067V99.4936H4.77083V110.456Z" fill="#FDD81E"/>
<path d="M26.5056 104.426L27.8725 102.161C27.8725 102.161 27.9464 102.088 28.0203 102.088C28.0942 102.088 28.1804 102.088 28.2789 102.112C28.3774 102.137 28.4759 102.173 28.5744 102.21C28.6729 102.246 28.7591 102.295 28.8453 102.356C28.9192 102.405 28.9808 102.465 29.0178 102.514C29.0547 102.563 29.067 102.612 29.0424 102.66L27.2075 105.949V108.751C27.2075 108.751 27.1829 108.848 27.109 108.897C27.0351 108.945 26.9612 108.97 26.8504 108.994C26.7519 109.019 26.6411 109.031 26.5179 109.031C26.3948 109.031 26.2963 109.031 26.1854 109.006C26.0869 108.982 26.0007 108.945 25.9268 108.897C25.853 108.848 25.8283 108.775 25.8283 108.69L25.8653 105.949L23.9689 102.648C23.9689 102.648 23.9565 102.587 23.9689 102.539C23.9935 102.502 24.0181 102.465 24.0674 102.417C24.1166 102.38 24.1659 102.344 24.2275 102.307C24.289 102.271 24.3629 102.234 24.4368 102.197C24.5107 102.161 24.5846 102.137 24.6585 102.112C24.7323 102.088 24.8062 102.076 24.8678 102.063C24.9294 102.063 24.9909 102.063 25.0402 102.063C25.0895 102.063 25.1264 102.1 25.1387 102.124L26.4933 104.414L26.5056 104.426Z" fill="white"/>
<path d="M32.2811 108.471C32.2811 108.471 32.1949 108.508 32.1579 108.532C32.121 108.544 32.0717 108.568 32.0348 108.581C31.6161 108.751 31.2344 108.836 30.9142 108.849C30.594 108.849 30.3231 108.775 30.0891 108.617C29.8675 108.459 29.6827 108.203 29.5596 107.862C29.4365 107.521 29.3503 107.095 29.3133 106.571C29.2887 106.205 29.2764 105.803 29.2764 105.377C29.2764 104.939 29.2764 104.488 29.301 104.001C29.301 103.928 29.3379 103.867 29.3995 103.818C29.4611 103.769 29.5473 103.733 29.6335 103.708C29.732 103.684 29.8305 103.672 29.9413 103.672C30.0522 103.672 30.1507 103.684 30.2492 103.708C30.3477 103.733 30.4216 103.769 30.4832 103.818C30.5448 103.867 30.5694 103.928 30.5694 103.989C30.5694 104.22 30.5447 104.451 30.5447 104.671C30.5447 104.89 30.5324 105.109 30.5201 105.316C30.5201 105.523 30.5201 105.706 30.5201 105.889C30.5201 106.071 30.5201 106.218 30.5324 106.364C30.5447 106.607 30.5817 106.814 30.6186 106.985C30.6679 107.155 30.7295 107.289 30.828 107.387C30.9265 107.484 31.0496 107.533 31.1974 107.533C31.3452 107.533 31.5422 107.497 31.7762 107.411C31.9732 107.338 32.1333 107.253 32.2811 107.143L32.2564 103.964C32.2564 103.964 32.2934 103.867 32.355 103.818C32.4165 103.769 32.5027 103.745 32.6136 103.721C32.7244 103.696 32.8229 103.684 32.9461 103.684C33.0692 103.684 33.1677 103.684 33.2785 103.708C33.3771 103.733 33.4633 103.769 33.5248 103.818C33.5864 103.867 33.6233 103.94 33.6233 104.025C33.6233 104.135 33.6233 104.281 33.6233 104.451C33.6233 104.622 33.6233 104.829 33.6233 105.048C33.6233 105.268 33.6233 105.499 33.6233 105.743C33.6233 105.986 33.6233 106.23 33.6233 106.486C33.6233 106.729 33.6233 106.973 33.6233 107.204C33.6233 107.436 33.6233 107.655 33.6233 107.85C33.6233 108.045 33.6233 108.215 33.6233 108.349C33.6233 108.495 33.6233 108.593 33.6233 108.654C33.6233 108.702 33.5864 108.739 33.5248 108.775C33.4633 108.812 33.3771 108.836 33.2909 108.861C33.2047 108.885 33.0938 108.885 32.983 108.897C32.8722 108.897 32.7737 108.897 32.6751 108.885C32.5766 108.873 32.5027 108.849 32.4412 108.824C32.3796 108.788 32.3426 108.751 32.3426 108.702V108.483L32.2811 108.471Z" fill="white"/>
<path d="M35.4829 104.195C35.4829 104.195 35.5691 104.159 35.606 104.134C35.643 104.122 35.6922 104.098 35.7292 104.086C36.2587 103.879 36.7266 103.818 37.1207 103.927C37.5148 104.037 37.8473 104.305 38.1182 104.756C38.2536 104.597 38.4137 104.451 38.5615 104.341C38.7216 104.22 38.8817 104.134 39.0417 104.061C39.2018 103.988 39.3742 103.939 39.5466 103.915C39.719 103.891 39.8791 103.891 40.0392 103.915C40.2732 103.952 40.4825 104.037 40.6549 104.159C40.8273 104.281 40.9751 104.451 41.0983 104.646C41.2214 104.841 41.3199 105.072 41.3815 105.328C41.4431 105.584 41.4923 105.864 41.5169 106.156C41.5416 106.522 41.5539 106.899 41.5539 107.289C41.5539 107.691 41.5539 108.13 41.5293 108.605C41.5293 108.678 41.4923 108.739 41.4307 108.787C41.3692 108.836 41.283 108.873 41.1968 108.897C41.0983 108.921 40.9997 108.933 40.8889 108.933C40.7781 108.933 40.6796 108.921 40.581 108.897C40.4825 108.873 40.4086 108.836 40.3471 108.787C40.2855 108.739 40.2609 108.678 40.2609 108.617C40.2855 108.142 40.2978 107.728 40.3101 107.35C40.3224 106.972 40.3101 106.644 40.3101 106.363C40.2978 106.229 40.2732 106.083 40.2486 105.949C40.2239 105.803 40.187 105.681 40.1377 105.559C40.0885 105.438 40.0269 105.352 39.9653 105.267C39.8914 105.194 39.8176 105.145 39.719 105.145C39.5343 105.145 39.3866 105.158 39.2511 105.231C39.1156 105.304 39.0048 105.389 38.9186 105.511C38.8324 105.633 38.7462 105.767 38.6969 105.937C38.6354 106.095 38.5984 106.278 38.5615 106.461C38.5245 106.644 38.4999 106.838 38.4876 107.046C38.4753 107.24 38.463 107.447 38.463 107.63C38.463 107.825 38.463 108.008 38.463 108.178C38.463 108.349 38.463 108.507 38.463 108.653C38.463 108.726 38.426 108.787 38.3645 108.836C38.3029 108.885 38.2167 108.921 38.1305 108.946C38.032 108.97 37.9335 108.982 37.8226 108.982C37.7118 108.982 37.6133 108.97 37.5148 108.946C37.4163 108.921 37.3424 108.885 37.2808 108.836C37.2192 108.787 37.1946 108.726 37.1946 108.666C37.2192 108.19 37.2315 107.776 37.2439 107.399C37.2562 107.021 37.2439 106.692 37.2439 106.412C37.2315 106.169 37.1946 105.949 37.1576 105.779C37.1084 105.596 37.0468 105.462 36.9483 105.352C36.8498 105.255 36.7266 105.194 36.5789 105.182C36.4311 105.17 36.2341 105.206 36.0001 105.292C35.8031 105.365 35.643 105.45 35.4952 105.559L35.5198 108.69C35.5198 108.69 35.4829 108.787 35.4213 108.836C35.3597 108.885 35.2735 108.909 35.1627 108.933C35.0642 108.958 34.9534 108.97 34.8302 108.97C34.7071 108.97 34.6086 108.97 34.4977 108.946C34.3992 108.921 34.313 108.885 34.2391 108.836C34.1653 108.787 34.1406 108.714 34.1406 108.629C34.1406 108.519 34.1406 108.373 34.1406 108.203C34.1406 108.032 34.1406 107.825 34.1406 107.606C34.1406 107.387 34.1406 107.155 34.1406 106.912C34.1406 106.668 34.1406 106.412 34.1406 106.169C34.1406 105.925 34.1406 105.681 34.1406 105.438C34.1406 105.194 34.1406 104.987 34.1406 104.792C34.1406 104.597 34.1406 104.427 34.1406 104.281C34.1406 104.134 34.1406 104.037 34.1406 103.976C34.1406 103.927 34.1776 103.891 34.2391 103.854C34.3007 103.818 34.3869 103.793 34.4854 103.769C34.5839 103.745 34.6825 103.732 34.7933 103.732C34.9041 103.732 35.0026 103.732 35.1011 103.745C35.1997 103.757 35.2735 103.781 35.3351 103.818C35.3967 103.854 35.4336 103.891 35.4336 103.939V104.232L35.4829 104.195Z" fill="white"/>
<path d="M45.2235 108.471C45.2235 108.471 45.1373 108.508 45.1003 108.532C45.0634 108.544 45.0141 108.568 44.9772 108.581C44.5585 108.751 44.1767 108.836 43.8566 108.849C43.5364 108.849 43.2655 108.775 43.0315 108.617C42.8098 108.459 42.6251 108.203 42.502 107.862C42.3788 107.521 42.2926 107.095 42.2557 106.571C42.2311 106.205 42.2188 105.803 42.2188 105.377C42.2188 104.939 42.2188 104.488 42.2434 104.001C42.2434 103.928 42.2803 103.867 42.3419 103.818C42.4035 103.769 42.4897 103.733 42.5759 103.708C42.6744 103.684 42.7729 103.672 42.8837 103.672C42.9946 103.672 43.0931 103.684 43.1916 103.708C43.2901 103.733 43.364 103.769 43.4256 103.818C43.4871 103.867 43.5118 103.928 43.5118 103.989C43.5118 104.22 43.4871 104.451 43.4871 104.671C43.4871 104.89 43.4748 105.109 43.4625 105.316C43.4625 105.523 43.4625 105.706 43.4625 105.889C43.4625 106.071 43.4625 106.218 43.4748 106.364C43.4871 106.607 43.5241 106.814 43.561 106.985C43.6103 107.155 43.6718 107.289 43.7704 107.387C43.8689 107.484 43.992 107.533 44.1398 107.533C44.2876 107.533 44.4846 107.497 44.7186 107.411C44.9156 107.338 45.0757 107.253 45.2235 107.143L45.1988 103.964C45.1988 103.964 45.2358 103.867 45.2973 103.818C45.3589 103.769 45.4451 103.745 45.5559 103.721C45.6668 103.696 45.7653 103.684 45.8884 103.684C46.0116 103.684 46.1101 103.684 46.2209 103.708C46.3194 103.733 46.4056 103.769 46.4672 103.818C46.5288 103.867 46.5657 103.94 46.5657 104.025C46.5657 104.135 46.5657 104.281 46.5657 104.451C46.5657 104.622 46.5657 104.829 46.5657 105.048C46.5657 105.268 46.5657 105.499 46.5657 105.743C46.5657 105.986 46.5657 106.23 46.5657 106.486C46.5657 106.729 46.5657 106.973 46.5657 107.204C46.5657 107.436 46.5657 107.655 46.5657 107.85C46.5657 108.045 46.5657 108.215 46.5657 108.349C46.5657 108.495 46.5657 108.593 46.5657 108.654C46.5657 108.702 46.5288 108.739 46.4672 108.775C46.4056 108.812 46.3194 108.836 46.2332 108.861C46.147 108.885 46.0362 108.885 45.9254 108.897C45.8146 108.897 45.716 108.897 45.6175 108.885C45.519 108.873 45.4451 108.849 45.3835 108.824C45.322 108.788 45.285 108.751 45.285 108.702V108.483L45.2235 108.471Z" fill="white"/>
<path d="M48.3883 104.147C48.4991 104.086 48.6223 104.025 48.77 103.976C48.9178 103.928 49.0656 103.891 49.2257 103.879C49.3858 103.855 49.5582 103.855 49.7306 103.867C49.903 103.879 50.0754 103.903 50.2478 103.952C50.4202 104.001 50.5803 104.074 50.7404 104.159C50.9004 104.244 51.0359 104.366 51.1714 104.5C51.2083 104.549 51.2329 104.61 51.2329 104.683C51.2329 104.756 51.2206 104.829 51.1837 104.914C51.159 105 51.1098 105.073 51.0605 105.158C51.0113 105.243 50.962 105.304 50.9004 105.365C50.8389 105.426 50.7896 105.462 50.7404 105.487C50.6911 105.511 50.6418 105.511 50.6049 105.487C50.4694 105.377 50.334 105.292 50.1862 105.231C50.0384 105.17 49.8907 105.134 49.7306 105.109C49.5828 105.085 49.435 105.085 49.2873 105.109C49.1395 105.121 49.0163 105.158 48.8932 105.194C48.7701 105.231 48.6715 105.292 48.5853 105.353C48.4991 105.414 48.4376 105.487 48.4006 105.572L48.4376 108.715C48.4376 108.715 48.4006 108.812 48.339 108.861C48.2775 108.909 48.1913 108.934 48.0804 108.958C47.9819 108.983 47.8711 108.995 47.748 108.995C47.6248 108.995 47.5263 108.995 47.4155 108.97C47.317 108.946 47.2308 108.909 47.1569 108.861C47.083 108.812 47.0583 108.739 47.0583 108.654C47.0583 108.556 47.0583 108.41 47.0583 108.24V105.426C47.0583 105.182 47.0583 104.951 47.0583 104.744C47.0583 104.537 47.0583 104.354 47.0583 104.196V103.842C47.0583 103.842 47.0953 103.757 47.1569 103.721C47.2184 103.684 47.3046 103.66 47.3908 103.635C47.477 103.611 47.5879 103.611 47.6987 103.599C47.8095 103.587 47.9204 103.599 48.0066 103.611C48.1051 103.623 48.179 103.648 48.2405 103.684C48.3021 103.721 48.339 103.757 48.339 103.806V104.159L48.3883 104.147Z" fill="white"/>
<path d="M52.686 103.806C52.686 103.623 52.686 103.452 52.686 103.282C52.686 103.111 52.686 102.965 52.686 102.819C52.686 102.685 52.686 102.563 52.686 102.466C52.686 102.368 52.686 102.308 52.686 102.271C52.686 102.222 52.7229 102.186 52.7845 102.149C52.8461 102.113 52.9323 102.088 53.0308 102.064C53.1293 102.04 53.2278 102.027 53.3387 102.027C53.4495 102.027 53.548 102.027 53.6465 102.04C53.745 102.052 53.8189 102.076 53.8805 102.113C53.9421 102.149 53.979 102.186 53.979 102.234V103.806H54.7671C54.8164 103.806 54.8656 103.842 54.9149 103.903C54.9642 103.964 54.9888 104.049 55.0134 104.147C55.038 104.244 55.0504 104.354 55.0504 104.463C55.0504 104.573 55.0504 104.683 55.0257 104.78C55.0011 104.878 54.9642 104.963 54.9149 105.024C54.8656 105.085 54.7917 105.121 54.7055 105.121H54.0036L54.0283 108.654C54.0283 108.702 53.9913 108.751 53.9297 108.8C53.8682 108.848 53.782 108.873 53.6711 108.897C53.5726 108.921 53.4618 108.934 53.3387 108.934C53.2155 108.934 53.117 108.934 53.0062 108.909C52.9077 108.885 52.8214 108.848 52.7476 108.8C52.686 108.751 52.649 108.678 52.649 108.593C52.649 108.52 52.649 108.41 52.649 108.276C52.649 108.142 52.649 107.984 52.649 107.813C52.649 107.643 52.649 107.448 52.649 107.228C52.649 107.021 52.649 106.802 52.649 106.571V105.133H51.8732C51.8732 105.133 51.787 105.097 51.7501 105.024C51.7132 104.951 51.6885 104.878 51.6639 104.78C51.6393 104.683 51.6393 104.585 51.627 104.463C51.627 104.354 51.627 104.244 51.6516 104.147C51.6762 104.049 51.6885 103.976 51.7255 103.903C51.7624 103.83 51.7994 103.806 51.8486 103.806H52.649H52.686Z" fill="white"/>
<path d="M60.3456 108.641C60.3456 108.641 60.3087 108.738 60.2471 108.787C60.1855 108.836 60.0993 108.872 59.9885 108.897C59.89 108.921 59.7791 108.945 59.656 108.957C59.5329 108.957 59.4343 108.957 59.3235 108.945C59.225 108.921 59.1388 108.884 59.0649 108.836C58.991 108.787 58.9664 108.714 58.9664 108.629V108.556C58.6462 108.763 58.3014 108.872 57.932 108.872C57.6734 108.872 57.4271 108.848 57.2178 108.775C57.0084 108.702 56.8114 108.616 56.6267 108.495C56.4543 108.373 56.3065 108.239 56.171 108.08C56.0479 107.922 55.9371 107.752 55.8509 107.557C55.7647 107.374 55.6908 107.179 55.6538 106.972C55.6046 106.765 55.5799 106.558 55.5676 106.351C55.5676 106.132 55.5676 105.912 55.6169 105.693C55.6661 105.474 55.7154 105.267 55.8016 105.06C55.8878 104.865 55.9986 104.67 56.1341 104.499C56.2695 104.329 56.4296 104.183 56.602 104.049C56.7744 103.915 56.9838 103.829 57.2178 103.756C57.4394 103.683 57.698 103.647 57.9689 103.647C58.166 103.647 58.3507 103.671 58.5231 103.708C58.6955 103.744 58.8556 103.805 59.0033 103.89C59.0033 103.866 59.0033 103.854 59.0033 103.829C59.0033 103.805 59.0033 103.793 59.0033 103.781C59.0033 103.732 59.0403 103.696 59.1019 103.659C59.1634 103.622 59.2496 103.598 59.3481 103.586C59.4467 103.574 59.5452 103.562 59.656 103.562C59.7668 103.562 59.8653 103.562 59.9639 103.586C60.0624 103.598 60.1363 103.622 60.1978 103.659C60.2594 103.696 60.2964 103.732 60.2964 103.781L60.321 108.616L60.3456 108.641ZM57.8458 104.95C57.698 104.95 57.5502 104.987 57.4271 105.06C57.304 105.133 57.1931 105.23 57.1069 105.34C57.0207 105.462 56.9592 105.608 56.9099 105.766C56.8606 105.925 56.8483 106.107 56.8483 106.302C56.8483 106.387 56.8606 106.485 56.8853 106.582C56.9099 106.68 56.9345 106.777 56.9715 106.875C57.0084 106.972 57.0577 107.057 57.1069 107.155C57.1562 107.24 57.2178 107.313 57.2916 107.386C57.3655 107.459 57.4517 107.508 57.5379 107.545C57.6241 107.581 57.735 107.605 57.8458 107.605C58.0305 107.605 58.2029 107.569 58.3384 107.484C58.4861 107.398 58.597 107.289 58.6955 107.155C58.794 107.021 58.8679 106.862 58.9171 106.704C58.9664 106.534 58.991 106.363 58.991 106.193C58.991 106.022 58.9664 105.876 58.9171 105.717C58.8679 105.559 58.794 105.425 58.6955 105.316C58.597 105.194 58.4738 105.108 58.3261 105.035C58.1783 104.962 58.0182 104.938 57.8335 104.95H57.8458Z" fill="white"/>
<path d="M61.2691 103.525C61.2444 103.452 61.2444 103.379 61.2691 103.318C61.306 103.257 61.3552 103.196 61.4291 103.148C61.503 103.099 61.5769 103.05 61.6754 103.026C61.7616 102.989 61.8601 102.977 61.9463 102.965C62.0325 102.965 62.1187 102.965 62.1926 102.989C62.2665 103.014 62.3158 103.05 62.3527 103.099C62.4635 103.294 62.5497 103.489 62.599 103.671C62.6483 103.854 62.6729 104.037 62.6606 104.219C62.6483 104.402 62.6113 104.585 62.5497 104.768C62.4882 104.95 62.3897 105.133 62.2665 105.328C62.2049 105.425 62.1311 105.486 62.0325 105.523C61.9463 105.559 61.8478 105.584 61.7493 105.571C61.6508 105.559 61.5523 105.547 61.4661 105.511C61.3799 105.474 61.306 105.425 61.2444 105.364C61.1828 105.303 61.1459 105.243 61.1336 105.17C61.1213 105.096 61.1336 105.023 61.1829 104.938C61.2691 104.804 61.3429 104.67 61.3922 104.56C61.4415 104.451 61.4661 104.353 61.4784 104.268C61.4907 104.183 61.4907 104.098 61.4784 104.037C61.4661 103.964 61.4538 103.903 61.4291 103.854C61.4045 103.793 61.3799 103.744 61.3553 103.696C61.3306 103.647 61.306 103.586 61.2814 103.537L61.2691 103.525Z" fill="white"/>
<path d="M65.69 103.72C65.924 103.72 66.1456 103.745 66.355 103.793C66.5643 103.842 66.7367 103.915 66.9091 104V102.259C66.9091 102.259 66.9338 102.161 66.9953 102.112C67.0569 102.064 67.1431 102.039 67.2539 102.015C67.3525 101.991 67.4633 101.979 67.5864 101.979C67.7096 101.979 67.8081 101.979 67.9189 102.003C68.0174 102.027 68.1036 102.064 68.1652 102.112C68.2268 102.161 68.2637 102.234 68.2637 102.32C68.2637 102.405 68.2637 102.539 68.2637 102.697C68.2637 102.856 68.2637 103.05 68.2637 103.257C68.2637 103.465 68.2637 103.708 68.2637 103.964C68.2637 104.22 68.2637 104.488 68.2637 104.756C68.2637 105.024 68.2637 105.304 68.2637 105.584C68.2637 105.864 68.2637 106.132 68.2637 106.4C68.2637 106.668 68.2637 106.924 68.2637 107.155C68.2637 107.387 68.2637 107.606 68.2637 107.801C68.2637 107.996 68.2637 108.154 68.2637 108.288C68.2637 108.422 68.2637 108.507 68.2637 108.556C68.2637 108.605 68.2268 108.641 68.1652 108.678C68.1036 108.714 68.0174 108.739 67.9312 108.763C67.8327 108.787 67.7342 108.8 67.6234 108.812C67.5125 108.812 67.414 108.812 67.3155 108.812C67.217 108.812 67.1431 108.787 67.0815 108.751C67.02 108.727 66.983 108.678 66.983 108.629V108.495C66.8106 108.593 66.6259 108.666 66.4289 108.726C66.2318 108.787 66.0102 108.812 65.7639 108.812C65.456 108.812 65.1851 108.763 64.9511 108.666C64.7049 108.568 64.4955 108.434 64.3108 108.276C64.1261 108.117 63.9783 107.923 63.8552 107.703C63.732 107.484 63.6458 107.253 63.5842 107.009C63.5227 106.765 63.498 106.51 63.498 106.254C63.498 105.998 63.5227 105.742 63.5842 105.499C63.6458 105.255 63.732 105.024 63.8552 104.804C63.9783 104.585 64.1261 104.402 64.2985 104.232C64.4709 104.074 64.6802 103.94 64.9265 103.842C65.1605 103.745 65.4314 103.696 65.727 103.696L65.69 103.72ZM65.8624 107.545C66.0225 107.545 66.1703 107.496 66.2934 107.423C66.4166 107.35 66.5274 107.265 66.6136 107.155C66.6998 107.046 66.7737 106.924 66.8229 106.79C66.8722 106.656 66.8968 106.51 66.9091 106.363V106.096C66.8968 105.949 66.8599 105.803 66.8106 105.669C66.7614 105.535 66.6875 105.413 66.589 105.316C66.4904 105.219 66.3796 105.133 66.2442 105.06C66.1087 104.999 65.9609 104.963 65.7762 104.963C65.5915 104.963 65.4191 104.999 65.2836 105.072C65.1482 105.145 65.0373 105.243 64.9388 105.365C64.8526 105.486 64.7787 105.633 64.7418 105.791C64.7049 105.949 64.6802 106.108 64.6802 106.266C64.6802 106.424 64.7172 106.583 64.7664 106.741C64.8157 106.899 64.8896 107.033 64.9881 107.155C65.0866 107.277 65.2097 107.362 65.3452 107.435C65.493 107.508 65.6531 107.533 65.8378 107.521L65.8624 107.545Z" fill="white"/>
<path d="M73.5713 108.641C73.5713 108.641 73.5344 108.738 73.4728 108.787C73.4112 108.836 73.325 108.872 73.2142 108.897C73.1157 108.921 73.0048 108.945 72.8817 108.957C72.7586 108.957 72.66 108.957 72.5492 108.945C72.4507 108.921 72.3645 108.884 72.2906 108.836C72.2167 108.787 72.1921 108.714 72.1921 108.629V108.556C71.8719 108.763 71.5271 108.872 71.1577 108.872C70.8991 108.872 70.6528 108.848 70.4311 108.775C70.2095 108.714 70.0248 108.616 69.84 108.495C69.6676 108.373 69.5199 108.239 69.3844 108.08C69.2613 107.922 69.1504 107.752 69.0642 107.557C68.978 107.374 68.9041 107.179 68.8672 106.972C68.8179 106.765 68.7933 106.558 68.781 106.351C68.781 106.132 68.781 105.912 68.8303 105.693C68.8672 105.474 68.9288 105.267 69.015 105.06C69.1012 104.865 69.212 104.67 69.3475 104.499C69.4829 104.329 69.643 104.183 69.8154 104.049C69.9878 103.915 70.1972 103.829 70.4311 103.756C70.6528 103.683 70.9114 103.647 71.1823 103.647C71.3793 103.647 71.5641 103.671 71.7365 103.708C71.9089 103.744 72.0689 103.805 72.2167 103.89C72.2167 103.866 72.2167 103.854 72.2167 103.829C72.2167 103.805 72.2167 103.793 72.2167 103.781C72.2167 103.732 72.2537 103.696 72.3152 103.659C72.3768 103.622 72.463 103.598 72.5615 103.586C72.66 103.574 72.7586 103.562 72.8694 103.562C72.9802 103.562 73.0787 103.562 73.1772 103.586C73.2758 103.598 73.3496 103.622 73.4112 103.659C73.4728 103.696 73.5097 103.732 73.5097 103.781L73.5344 108.616L73.5713 108.641ZM71.0715 104.95C70.9237 104.95 70.7759 104.987 70.6528 105.06C70.5296 105.133 70.4188 105.23 70.3326 105.34C70.2464 105.462 70.1848 105.608 70.1356 105.766C70.0863 105.925 70.074 106.107 70.074 106.302C70.074 106.387 70.0863 106.485 70.111 106.582C70.1356 106.68 70.1602 106.777 70.1972 106.875C70.2341 106.972 70.2834 107.057 70.3326 107.155C70.3819 107.252 70.4434 107.313 70.5173 107.386C70.5912 107.459 70.6774 107.508 70.7636 107.545C70.8498 107.581 70.9607 107.605 71.0715 107.605C71.2562 107.605 71.4286 107.569 71.5641 107.484C71.7118 107.398 71.8227 107.289 71.9212 107.155C72.0197 107.021 72.0936 106.862 72.1428 106.704C72.1921 106.534 72.2167 106.363 72.2167 106.193C72.2167 106.022 72.1921 105.876 72.1428 105.717C72.0936 105.559 72.0197 105.425 71.9212 105.316C71.8227 105.194 71.6995 105.108 71.5517 105.035C71.404 104.962 71.2439 104.938 71.0592 104.95H71.0715Z" fill="white"/>
<path d="M78.9895 110.018C78.9895 109.957 78.9895 109.896 79.0141 109.835C79.0387 109.786 79.0757 109.738 79.1126 109.713C79.1619 109.689 79.1988 109.677 79.2358 109.713C79.285 109.75 79.3466 109.786 79.4205 109.811C79.4944 109.835 79.5682 109.859 79.6421 109.872C79.716 109.884 79.7899 109.872 79.8515 109.847C79.913 109.823 79.9623 109.774 79.9869 109.701C79.9992 109.665 79.9869 109.628 79.9623 109.604C79.9254 109.579 79.8761 109.555 79.8145 109.531C79.753 109.506 79.6791 109.494 79.5806 109.482C79.4944 109.482 79.4082 109.47 79.3096 109.457C79.285 109.457 79.2727 109.457 79.2481 109.457C79.2234 109.457 79.2111 109.445 79.1988 109.421C79.1865 109.409 79.1742 109.384 79.1619 109.348C79.1619 109.311 79.1619 109.275 79.1619 109.214V108.958C78.7678 108.897 78.4353 108.775 78.1521 108.568C77.8689 108.361 77.6349 108.105 77.4502 107.789C77.2655 107.472 77.13 107.119 77.0438 106.717C76.9576 106.315 76.9207 105.901 76.9207 105.462C76.9207 105.121 76.9576 104.792 77.0192 104.488C77.0807 104.183 77.1793 103.903 77.2901 103.647C77.4009 103.392 77.5487 103.16 77.7088 102.965C77.8689 102.77 78.0659 102.6 78.2629 102.454C78.4723 102.32 78.6939 102.21 78.9279 102.137C79.1742 102.064 79.4205 102.027 79.6914 102.027C79.913 102.027 80.1224 102.052 80.3317 102.1C80.5411 102.149 80.7258 102.222 80.8982 102.332C81.0706 102.429 81.2184 102.551 81.3538 102.697C81.477 102.843 81.5755 103.014 81.6494 103.197C81.674 103.258 81.6494 103.318 81.6247 103.392C81.5878 103.452 81.5262 103.513 81.4523 103.574C81.3785 103.635 81.2923 103.684 81.1937 103.72C81.0952 103.769 80.9967 103.794 80.9105 103.818C80.8243 103.842 80.7381 103.842 80.6642 103.83C80.5903 103.83 80.5411 103.794 80.5165 103.745C80.4303 103.599 80.3194 103.477 80.1593 103.404C79.9992 103.331 79.8022 103.294 79.5682 103.306C79.3958 103.318 79.2234 103.379 79.051 103.477C78.8786 103.574 78.7309 103.72 78.5954 103.903C78.46 104.086 78.3491 104.305 78.2752 104.549C78.189 104.804 78.1398 105.085 78.1275 105.414C78.1151 105.803 78.1275 106.144 78.2137 106.437C78.2999 106.729 78.3861 106.973 78.5215 107.155C78.657 107.35 78.8048 107.496 78.9772 107.582C79.1496 107.679 79.3343 107.728 79.519 107.728C79.6175 107.728 79.7283 107.716 79.8392 107.679C79.95 107.643 80.0608 107.606 80.1717 107.545C80.2702 107.496 80.3687 107.435 80.4549 107.362C80.5411 107.289 80.615 107.228 80.6642 107.168C80.7135 107.107 80.7751 107.07 80.8613 107.07C80.9475 107.07 81.0213 107.082 81.1199 107.119C81.2184 107.155 81.2923 107.204 81.3785 107.277C81.4647 107.35 81.5386 107.411 81.6001 107.496C81.6617 107.569 81.6986 107.643 81.7233 107.716C81.7479 107.789 81.7356 107.85 81.6986 107.911C81.6001 108.045 81.477 108.178 81.3292 108.3C81.1814 108.422 81.0213 108.532 80.8489 108.629C80.6765 108.727 80.4795 108.8 80.2825 108.861C80.0855 108.921 79.8761 108.958 79.6791 108.97C79.6791 108.995 79.6791 109.019 79.6791 109.043C79.6791 109.068 79.6791 109.092 79.7037 109.104C79.9746 109.116 80.1963 109.177 80.3441 109.287C80.5041 109.397 80.578 109.543 80.578 109.713C80.578 109.811 80.5534 109.896 80.4918 109.969C80.4426 110.042 80.3687 110.103 80.2948 110.164C80.2086 110.213 80.1224 110.249 80.0116 110.286C79.9007 110.31 79.8022 110.322 79.6914 110.334C79.5806 110.334 79.482 110.334 79.3712 110.31C79.2604 110.286 79.1742 110.249 79.088 110.2C79.0141 110.152 78.9772 110.091 78.9648 110.03L78.9895 110.018Z" fill="white"/>
<path d="M84.691 108.775C84.3585 108.775 84.0753 108.726 83.8044 108.641C83.5458 108.543 83.3118 108.421 83.1148 108.251C82.9178 108.093 82.7577 107.898 82.6222 107.678C82.4991 107.459 82.4006 107.228 82.339 106.984C82.2774 106.741 82.2405 106.485 82.2405 106.229C82.2405 105.973 82.2774 105.717 82.339 105.474C82.4006 105.23 82.4991 104.999 82.6345 104.78C82.7577 104.56 82.9301 104.365 83.1148 104.207C83.3118 104.049 83.5335 103.915 83.7921 103.817C84.0507 103.72 84.3339 103.671 84.6541 103.671C84.9743 103.671 85.2329 103.72 85.4669 103.817C85.7008 103.915 85.9225 104.049 86.0949 104.207C86.2796 104.365 86.4274 104.56 86.5505 104.78C86.6737 104.999 86.7599 105.23 86.8214 105.474C86.883 105.717 86.9076 105.973 86.9076 106.229C86.9076 106.485 86.883 106.741 86.8214 106.984C86.7599 107.228 86.6737 107.459 86.5505 107.678C86.4274 107.898 86.2796 108.08 86.1072 108.251C85.9348 108.421 85.7254 108.543 85.4792 108.641C85.2452 108.738 84.9743 108.787 84.6787 108.787L84.691 108.775ZM84.5186 104.95C84.3339 104.95 84.1862 104.999 84.0507 105.084C83.9152 105.157 83.8044 105.267 83.7182 105.389C83.632 105.51 83.5581 105.644 83.5212 105.803C83.4719 105.949 83.4596 106.107 83.4596 106.266C83.4596 106.424 83.4842 106.582 83.5335 106.728C83.5828 106.875 83.6566 107.009 83.7428 107.13C83.8413 107.252 83.9522 107.337 84.0876 107.411C84.2231 107.484 84.3955 107.52 84.5802 107.52C84.7649 107.52 84.925 107.484 85.0728 107.411C85.2082 107.337 85.3314 107.24 85.4176 107.118C85.5038 106.996 85.5777 106.85 85.6146 106.692C85.6639 106.534 85.6762 106.375 85.6762 106.217C85.6762 106.058 85.6393 105.9 85.59 105.742C85.5407 105.583 85.4668 105.449 85.3683 105.328C85.2698 105.206 85.1467 105.121 85.0112 105.048C84.8758 104.974 84.7034 104.95 84.5186 104.962V104.95ZM84.063 103.111C83.9522 103.111 83.866 103.099 83.7921 103.05C83.7182 103.001 83.6689 102.952 83.632 102.879C83.5951 102.806 83.5828 102.733 83.5828 102.66C83.5828 102.587 83.5951 102.502 83.632 102.441C83.6689 102.368 83.7182 102.319 83.7921 102.27C83.866 102.222 83.9522 102.197 84.0507 102.197C84.1492 102.197 84.2231 102.222 84.297 102.258C84.3586 102.307 84.4201 102.356 84.4448 102.429C84.4817 102.502 84.494 102.563 84.5063 102.648C84.5063 102.721 84.5063 102.794 84.4694 102.867C84.4324 102.94 84.3955 102.989 84.3216 103.038C84.26 103.086 84.1738 103.111 84.0753 103.111H84.063ZM85.1836 103.135C85.0728 103.135 84.9866 103.111 84.9127 103.074C84.8388 103.026 84.7896 102.977 84.7526 102.904C84.7157 102.843 84.691 102.758 84.691 102.684C84.691 102.611 84.7034 102.526 84.7403 102.465C84.7772 102.404 84.8265 102.343 84.9004 102.295C84.9743 102.246 85.0605 102.222 85.159 102.222C85.2575 102.222 85.3437 102.246 85.4053 102.283C85.4668 102.331 85.5284 102.38 85.5531 102.453C85.59 102.526 85.6023 102.587 85.6146 102.672C85.6146 102.745 85.6146 102.818 85.5777 102.892C85.5407 102.965 85.5038 103.013 85.4299 103.062C85.3683 103.111 85.2821 103.135 85.1836 103.135Z" fill="white"/>
<path d="M89.5923 104.939H87.7697C87.7697 104.939 87.6835 104.902 87.6466 104.841C87.6097 104.78 87.585 104.707 87.5604 104.61C87.5358 104.512 87.5358 104.415 87.5235 104.293C87.5235 104.183 87.5235 104.074 87.5481 103.976C87.5727 103.879 87.585 103.794 87.622 103.733C87.6589 103.66 87.6959 103.635 87.7451 103.623L90.8114 103.647C90.9469 103.647 91.0454 103.672 91.1193 103.72C91.1931 103.769 91.2424 103.83 91.2794 103.915C91.304 103.988 91.3163 104.086 91.304 104.183C91.304 104.281 91.2793 104.39 91.2424 104.488C91.2178 104.597 91.1685 104.695 91.1316 104.792C91.0823 104.89 91.0331 104.975 90.9838 105.048C90.9592 105.085 90.9345 105.121 90.9099 105.158C90.8853 105.194 90.836 105.255 90.7868 105.328C90.7375 105.401 90.6636 105.487 90.5897 105.596C90.5035 105.706 90.405 105.852 90.2696 106.023C90.1464 106.193 89.9863 106.412 89.8016 106.656C89.6169 106.9 89.3952 107.204 89.1366 107.545L91.0331 107.57C91.0331 107.57 91.1439 107.606 91.1808 107.667C91.2301 107.728 91.267 107.813 91.2917 107.911C91.3163 108.008 91.3409 108.105 91.3409 108.227C91.3409 108.337 91.3409 108.447 91.3163 108.544C91.2917 108.641 91.2547 108.714 91.2055 108.788C91.1562 108.861 91.0823 108.885 90.9961 108.885H88.3362C88.25 108.873 88.1515 108.848 88.0653 108.824C87.9668 108.788 87.8806 108.751 87.8067 108.69C87.7205 108.629 87.6589 108.556 87.5973 108.471C87.5358 108.386 87.4988 108.288 87.4865 108.191C87.4742 108.081 87.4865 107.971 87.5111 107.85C87.5358 107.728 87.6097 107.594 87.7205 107.46L89.5923 104.963V104.939Z" fill="white"/>
<path d="M94.8382 108.47C94.8382 108.47 94.752 108.507 94.7151 108.531C94.6781 108.543 94.6289 108.568 94.5919 108.58C94.1732 108.75 93.7915 108.836 93.4713 108.848C93.1511 108.848 92.8802 108.775 92.6462 108.616C92.4246 108.458 92.2399 108.202 92.1167 107.861C91.9936 107.52 91.9074 107.094 91.8704 106.57C91.8458 106.205 91.8335 105.803 91.8335 105.376C91.8335 104.938 91.8335 104.487 91.8581 104C91.8581 103.927 91.8951 103.866 91.9566 103.817C92.0182 103.769 92.1044 103.732 92.1906 103.708C92.2768 103.683 92.3876 103.671 92.4985 103.671C92.6093 103.671 92.7078 103.683 92.8063 103.708C92.9048 103.732 92.9787 103.769 93.0403 103.817C93.1019 103.866 93.1265 103.927 93.1265 103.988C93.1265 104.219 93.1019 104.451 93.1019 104.67C93.1019 104.889 93.0896 105.108 93.0773 105.315C93.0773 105.523 93.0773 105.705 93.0773 105.888C93.0773 106.071 93.0772 106.217 93.0896 106.363C93.1019 106.607 93.1388 106.814 93.1758 106.984C93.225 107.155 93.2866 107.289 93.3851 107.386C93.4836 107.484 93.6068 107.532 93.7545 107.532C93.9023 107.532 94.0993 107.496 94.3333 107.411C94.5303 107.337 94.6904 107.252 94.8382 107.143L94.8136 103.963C94.8136 103.963 94.8505 103.866 94.9121 103.817C94.9737 103.769 95.0599 103.744 95.1707 103.72C95.2692 103.695 95.38 103.683 95.5032 103.683C95.6263 103.683 95.7248 103.683 95.8357 103.708C95.9342 103.732 96.0204 103.769 96.082 103.817C96.1435 103.866 96.1805 103.939 96.1805 104.024C96.1805 104.134 96.1805 104.28 96.1805 104.451C96.1805 104.621 96.1805 104.828 96.1805 105.048C96.1805 105.267 96.1805 105.498 96.1805 105.742C96.1805 105.985 96.1805 106.229 96.1805 106.485C96.1805 106.728 96.1805 106.972 96.1805 107.203C96.1805 107.435 96.1805 107.654 96.1805 107.849C96.1805 108.044 96.1805 108.214 96.1805 108.348C96.1805 108.482 96.1805 108.592 96.1805 108.653C96.1805 108.702 96.1435 108.738 96.082 108.775C96.0204 108.811 95.9342 108.836 95.848 108.86C95.7495 108.884 95.651 108.884 95.5401 108.897C95.4293 108.909 95.3308 108.897 95.2323 108.884C95.1338 108.872 95.0599 108.848 94.9983 108.823C94.9367 108.787 94.8998 108.75 94.8998 108.702V108.482L94.8382 108.47ZM93.4344 103.111C93.3235 103.111 93.2373 103.099 93.1635 103.05C93.0896 103.001 93.0403 102.952 93.0034 102.879C92.9664 102.806 92.9541 102.733 92.9541 102.66C92.9541 102.587 92.9664 102.502 93.0034 102.441C93.0403 102.368 93.0896 102.319 93.1635 102.27C93.2373 102.222 93.3235 102.197 93.4221 102.197C93.5206 102.197 93.5945 102.222 93.6683 102.258C93.7299 102.307 93.7915 102.356 93.8161 102.429C93.8531 102.502 93.8654 102.563 93.8777 102.648C93.8777 102.721 93.8777 102.794 93.8407 102.867C93.8038 102.94 93.7669 102.989 93.693 103.038C93.6314 103.086 93.5452 103.111 93.4467 103.111H93.4344ZM94.555 103.135C94.4441 103.135 94.3579 103.111 94.2841 103.074C94.2102 103.026 94.1609 102.977 94.124 102.904C94.087 102.843 94.0624 102.758 94.0624 102.684C94.0624 102.611 94.0747 102.526 94.1117 102.465C94.1486 102.404 94.1979 102.343 94.2717 102.295C94.3456 102.246 94.4318 102.222 94.5303 102.222C94.6289 102.222 94.7151 102.246 94.7766 102.283C94.8382 102.331 94.8998 102.38 94.9244 102.453C94.9614 102.526 94.9737 102.587 94.986 102.672C94.986 102.745 94.986 102.818 94.949 102.892C94.9121 102.965 94.8751 103.013 94.8013 103.062C94.7397 103.111 94.6535 103.135 94.555 103.135Z" fill="white"/>
<path d="M98.0276 104.195C98.0276 104.195 98.1138 104.159 98.1507 104.134C98.1877 104.122 98.2369 104.098 98.2738 104.086C98.8034 103.879 99.2713 103.818 99.6654 103.927C100.059 104.037 100.392 104.305 100.663 104.756C100.798 104.597 100.958 104.451 101.106 104.341C101.266 104.22 101.426 104.134 101.586 104.061C101.747 103.988 101.919 103.939 102.091 103.915C102.264 103.891 102.424 103.891 102.584 103.915C102.818 103.952 103.027 104.037 103.2 104.159C103.372 104.281 103.52 104.451 103.643 104.646C103.766 104.841 103.865 105.072 103.926 105.328C103.988 105.584 104.037 105.864 104.062 106.156C104.086 106.522 104.099 106.899 104.099 107.289C104.099 107.691 104.099 108.13 104.074 108.605C104.074 108.678 104.037 108.739 103.975 108.787C103.914 108.836 103.828 108.873 103.741 108.897C103.655 108.921 103.544 108.933 103.434 108.933C103.323 108.933 103.224 108.921 103.126 108.897C103.027 108.873 102.953 108.836 102.892 108.787C102.83 108.739 102.806 108.678 102.806 108.617C102.83 108.142 102.842 107.728 102.855 107.35C102.867 106.972 102.855 106.644 102.855 106.363C102.842 106.229 102.818 106.083 102.793 105.949C102.769 105.803 102.732 105.681 102.682 105.559C102.633 105.438 102.572 105.352 102.51 105.267C102.448 105.182 102.362 105.145 102.264 105.145C102.079 105.145 101.931 105.158 101.796 105.231C101.66 105.304 101.549 105.389 101.463 105.511C101.377 105.633 101.291 105.767 101.242 105.937C101.18 106.095 101.143 106.278 101.106 106.461C101.069 106.644 101.045 106.838 101.032 107.046C101.02 107.24 101.008 107.447 101.008 107.63C101.008 107.825 101.008 108.008 101.008 108.178C101.008 108.349 101.008 108.507 101.008 108.653C101.008 108.726 100.971 108.787 100.909 108.836C100.848 108.885 100.761 108.921 100.675 108.946C100.589 108.97 100.478 108.982 100.367 108.982C100.256 108.982 100.158 108.97 100.059 108.946C99.9609 108.921 99.887 108.885 99.8255 108.836C99.7639 108.787 99.7393 108.726 99.7393 108.666C99.7639 108.19 99.7762 107.776 99.7885 107.399C99.8008 107.021 99.7885 106.692 99.7885 106.412C99.7762 106.169 99.7393 105.949 99.7023 105.779C99.6654 105.608 99.5915 105.462 99.493 105.352C99.3945 105.243 99.2713 105.194 99.1235 105.182C98.9758 105.17 98.7787 105.206 98.5448 105.292C98.3477 105.365 98.1877 105.45 98.0399 105.559L98.0645 108.69C98.0645 108.69 98.0276 108.787 97.966 108.836C97.9044 108.885 97.8182 108.909 97.7074 108.933C97.6089 108.958 97.498 108.97 97.3749 108.97C97.2518 108.97 97.1532 108.97 97.0424 108.946C96.9439 108.921 96.8577 108.885 96.7838 108.836C96.7099 108.787 96.6853 108.714 96.6853 108.629C96.6853 108.519 96.6853 108.373 96.6853 108.203C96.6853 108.032 96.6853 107.825 96.6853 107.606C96.6853 107.387 96.6853 107.155 96.6853 106.912C96.6853 106.668 96.6853 106.412 96.6853 106.169C96.6853 105.925 96.6853 105.681 96.6853 105.438C96.6853 105.194 96.6853 104.987 96.6853 104.792C96.6853 104.597 96.6853 104.427 96.6853 104.281C96.6853 104.134 96.6853 104.037 96.6853 103.976C96.6853 103.927 96.7222 103.891 96.7838 103.854C96.8454 103.818 96.9316 103.793 97.0301 103.769C97.1286 103.745 97.2271 103.732 97.338 103.732C97.4488 103.732 97.5473 103.732 97.6458 103.745C97.7443 103.757 97.8182 103.781 97.8798 103.818C97.9414 103.854 97.9783 103.891 97.9783 103.939V104.232L98.0276 104.195Z" fill="white"/>
<path d="M110.724 109.018C110.305 109.018 109.923 108.957 109.591 108.836C109.258 108.714 108.963 108.531 108.717 108.312C108.47 108.093 108.261 107.825 108.089 107.532C107.928 107.228 107.793 106.911 107.719 106.57C107.633 106.229 107.596 105.888 107.596 105.523C107.596 105.169 107.645 104.816 107.719 104.475C107.805 104.134 107.928 103.817 108.089 103.513C108.249 103.208 108.458 102.952 108.717 102.721C108.975 102.49 109.258 102.319 109.579 102.185C109.899 102.051 110.28 101.99 110.687 101.99C111.093 101.99 111.426 102.051 111.746 102.185C112.054 102.319 112.325 102.49 112.559 102.721C112.793 102.94 112.99 103.208 113.137 103.501C113.298 103.805 113.408 104.122 113.482 104.451C113.556 104.78 113.593 105.133 113.593 105.486C113.593 105.839 113.556 106.193 113.482 106.521C113.408 106.862 113.285 107.179 113.137 107.471C112.977 107.776 112.793 108.032 112.559 108.263C112.325 108.495 112.066 108.665 111.758 108.799C111.45 108.933 111.106 109.006 110.724 109.006V109.018ZM110.527 103.354C110.244 103.367 109.997 103.452 109.788 103.586C109.579 103.72 109.406 103.89 109.258 104.097C109.111 104.305 109.012 104.536 108.938 104.792C108.864 105.048 108.84 105.316 108.84 105.583C108.84 105.851 108.877 106.107 108.951 106.363C109.024 106.619 109.135 106.838 109.283 107.045C109.431 107.24 109.616 107.411 109.837 107.532C110.059 107.654 110.317 107.715 110.613 107.715C110.822 107.715 111.019 107.679 111.192 107.593C111.364 107.508 111.524 107.398 111.647 107.252C111.783 107.106 111.894 106.948 111.98 106.753C112.066 106.558 112.14 106.363 112.177 106.144C112.226 105.925 112.238 105.717 112.238 105.486C112.238 105.255 112.214 105.048 112.177 104.828C112.128 104.621 112.066 104.414 111.968 104.231C111.881 104.049 111.758 103.89 111.623 103.744C111.487 103.598 111.315 103.501 111.13 103.428C110.945 103.354 110.724 103.318 110.49 103.342L110.527 103.354Z" fill="white"/>
<path d="M115.477 104.147C115.588 104.086 115.711 104.025 115.859 103.976C116.006 103.928 116.154 103.891 116.314 103.879C116.474 103.855 116.647 103.855 116.819 103.867C116.992 103.867 117.164 103.903 117.336 103.952C117.509 104.001 117.669 104.074 117.829 104.159C117.989 104.244 118.125 104.366 118.26 104.5C118.297 104.549 118.322 104.61 118.322 104.683C118.322 104.756 118.309 104.829 118.272 104.914C118.248 105 118.198 105.073 118.149 105.158C118.1 105.243 118.051 105.304 117.989 105.365C117.927 105.426 117.878 105.462 117.829 105.487C117.78 105.511 117.73 105.511 117.694 105.487C117.558 105.377 117.423 105.292 117.275 105.231C117.127 105.17 116.979 105.134 116.819 105.109C116.671 105.085 116.524 105.085 116.376 105.109C116.228 105.134 116.105 105.158 115.982 105.194C115.859 105.231 115.76 105.292 115.674 105.353C115.588 105.414 115.526 105.487 115.489 105.572L115.526 108.715C115.526 108.715 115.489 108.812 115.428 108.861C115.366 108.909 115.28 108.934 115.169 108.958C115.071 108.983 114.96 108.995 114.837 108.995C114.713 108.995 114.615 108.995 114.504 108.97C114.406 108.946 114.319 108.909 114.245 108.861C114.172 108.812 114.147 108.739 114.147 108.654C114.147 108.556 114.147 108.41 114.147 108.24V105.426C114.147 105.182 114.147 104.951 114.147 104.744C114.147 104.537 114.147 104.354 114.147 104.196V103.842C114.147 103.842 114.184 103.757 114.245 103.721C114.307 103.684 114.393 103.66 114.479 103.635C114.566 103.611 114.676 103.611 114.787 103.599C114.898 103.587 115.009 103.599 115.095 103.611C115.194 103.623 115.268 103.648 115.329 103.684C115.391 103.721 115.428 103.757 115.428 103.806V104.159L115.477 104.147Z" fill="white"/>
<path d="M119.775 103.806C119.775 103.623 119.775 103.452 119.775 103.282C119.775 103.111 119.775 102.965 119.775 102.819C119.775 102.685 119.775 102.563 119.775 102.466C119.775 102.368 119.775 102.308 119.775 102.271C119.775 102.222 119.812 102.186 119.873 102.149C119.935 102.113 120.021 102.088 120.12 102.064C120.218 102.04 120.317 102.027 120.428 102.027C120.538 102.027 120.637 102.027 120.735 102.04C120.834 102.052 120.908 102.076 120.969 102.113C121.031 102.149 121.068 102.186 121.068 102.234V103.806H121.856C121.905 103.806 121.955 103.842 122.004 103.903C122.053 103.964 122.078 104.049 122.102 104.147C122.127 104.244 122.139 104.354 122.139 104.463C122.139 104.573 122.139 104.683 122.115 104.78C122.09 104.878 122.053 104.963 122.004 105.024C121.955 105.085 121.881 105.121 121.794 105.121H121.092L121.117 108.654C121.117 108.702 121.08 108.751 121.019 108.8C120.957 108.848 120.871 108.873 120.76 108.897C120.661 108.921 120.551 108.934 120.428 108.934C120.304 108.934 120.206 108.934 120.095 108.909C119.997 108.885 119.91 108.848 119.836 108.8C119.763 108.751 119.738 108.678 119.738 108.593C119.738 108.52 119.738 108.41 119.738 108.276C119.738 108.142 119.738 107.984 119.738 107.813C119.738 107.643 119.738 107.448 119.738 107.228C119.738 107.009 119.738 106.802 119.738 106.571V105.133H118.962C118.962 105.133 118.876 105.097 118.839 105.024C118.802 104.951 118.777 104.878 118.753 104.78C118.728 104.683 118.728 104.585 118.716 104.463C118.716 104.354 118.716 104.244 118.74 104.147C118.765 104.049 118.777 103.976 118.814 103.903C118.851 103.83 118.888 103.806 118.937 103.806H119.738H119.775Z" fill="white"/>
<path d="M127.434 108.641C127.434 108.641 127.397 108.738 127.336 108.787C127.274 108.836 127.188 108.872 127.077 108.897C126.979 108.921 126.868 108.945 126.745 108.957C126.621 108.957 126.523 108.957 126.412 108.945C126.314 108.921 126.227 108.884 126.154 108.836C126.08 108.787 126.055 108.714 126.055 108.629V108.556C125.735 108.763 125.39 108.872 125.021 108.872C124.762 108.872 124.516 108.848 124.306 108.775C124.097 108.702 123.9 108.616 123.715 108.495C123.543 108.373 123.395 108.239 123.26 108.08C123.137 107.922 123.026 107.752 122.939 107.557C122.853 107.374 122.792 107.179 122.742 106.972C122.693 106.765 122.669 106.558 122.656 106.351C122.656 106.132 122.656 105.912 122.706 105.693C122.755 105.474 122.804 105.267 122.89 105.06C122.976 104.865 123.087 104.67 123.223 104.499C123.358 104.329 123.518 104.183 123.691 104.049C123.875 103.927 124.072 103.829 124.306 103.756C124.528 103.683 124.787 103.647 125.058 103.647C125.255 103.647 125.439 103.671 125.612 103.708C125.784 103.744 125.944 103.805 126.092 103.89C126.092 103.866 126.092 103.854 126.092 103.829C126.092 103.805 126.092 103.793 126.092 103.781C126.092 103.732 126.129 103.696 126.19 103.659C126.252 103.622 126.338 103.598 126.437 103.586C126.535 103.574 126.634 103.562 126.745 103.562C126.855 103.562 126.954 103.562 127.052 103.586C127.151 103.598 127.225 103.622 127.286 103.659C127.348 103.696 127.385 103.732 127.385 103.781L127.41 108.616L127.434 108.641ZM124.934 104.95C124.787 104.95 124.639 104.987 124.516 105.06C124.393 105.133 124.282 105.23 124.196 105.34C124.109 105.462 124.048 105.608 123.999 105.766C123.949 105.925 123.937 106.107 123.937 106.302C123.937 106.387 123.949 106.485 123.974 106.582C123.999 106.68 124.023 106.777 124.06 106.875C124.097 106.972 124.146 107.057 124.196 107.155C124.245 107.252 124.306 107.313 124.38 107.386C124.454 107.459 124.54 107.508 124.627 107.545C124.713 107.581 124.824 107.605 124.934 107.605C125.119 107.605 125.279 107.569 125.427 107.484C125.575 107.398 125.686 107.289 125.784 107.155C125.883 107.021 125.957 106.862 126.006 106.704C126.055 106.534 126.08 106.363 126.08 106.193C126.08 106.022 126.055 105.876 126.006 105.717C125.957 105.559 125.883 105.425 125.784 105.316C125.686 105.194 125.562 105.108 125.415 105.035C125.267 104.962 125.107 104.938 124.922 104.95H124.934Z" fill="white"/>
<path d="M132.766 103.915C132.766 104.122 132.779 104.33 132.791 104.549C132.791 104.768 132.791 104.975 132.791 105.182C132.791 105.389 132.791 105.596 132.791 105.803C132.791 106.01 132.791 106.205 132.791 106.388C132.791 106.571 132.791 106.741 132.791 106.9C132.791 107.058 132.791 107.192 132.791 107.314C132.791 107.582 132.766 107.85 132.754 108.118C132.73 108.386 132.705 108.617 132.668 108.824C132.606 109.116 132.52 109.36 132.385 109.579C132.249 109.799 132.089 109.981 131.88 110.127C131.67 110.274 131.449 110.383 131.203 110.456C130.944 110.529 130.673 110.566 130.377 110.554C130.082 110.554 129.823 110.517 129.602 110.481C129.38 110.444 129.183 110.383 129.023 110.322C128.863 110.261 128.715 110.201 128.617 110.127C128.506 110.054 128.419 109.981 128.358 109.92C128.296 109.859 128.247 109.774 128.235 109.677C128.222 109.579 128.235 109.482 128.259 109.384C128.284 109.287 128.321 109.19 128.383 109.104C128.444 109.019 128.506 108.946 128.58 108.885C128.653 108.824 128.727 108.8 128.814 108.788C128.9 108.788 128.974 108.788 129.048 108.861C129.158 108.97 129.294 109.056 129.454 109.116C129.614 109.19 129.774 109.238 129.946 109.263C130.119 109.287 130.291 109.299 130.451 109.287C130.624 109.275 130.772 109.226 130.907 109.165C131.042 109.092 131.153 108.995 131.239 108.873C131.326 108.751 131.375 108.581 131.387 108.386C131.252 108.447 131.116 108.483 130.969 108.52C130.821 108.544 130.673 108.568 130.501 108.568C130.168 108.568 129.885 108.532 129.614 108.434C129.343 108.337 129.121 108.227 128.924 108.069C128.727 107.911 128.567 107.728 128.432 107.521C128.309 107.314 128.21 107.094 128.149 106.851C128.087 106.619 128.05 106.376 128.05 106.12C128.05 105.864 128.087 105.633 128.149 105.389C128.21 105.158 128.309 104.926 128.444 104.719C128.58 104.512 128.74 104.33 128.924 104.171C129.121 104.013 129.343 103.891 129.602 103.794C129.86 103.708 130.144 103.66 130.464 103.66C130.648 103.66 130.821 103.684 130.981 103.72C131.141 103.757 131.289 103.806 131.424 103.879V103.854C131.424 103.854 131.449 103.757 131.523 103.708C131.597 103.66 131.67 103.635 131.769 103.611C131.868 103.587 131.978 103.574 132.089 103.574C132.2 103.574 132.311 103.574 132.422 103.599C132.52 103.623 132.606 103.66 132.68 103.708C132.754 103.757 132.791 103.83 132.791 103.915H132.766ZM130.304 104.939C130.119 104.939 129.971 104.987 129.836 105.06C129.7 105.133 129.589 105.219 129.503 105.34C129.417 105.45 129.343 105.584 129.306 105.718C129.257 105.852 129.245 105.998 129.245 106.144C129.245 106.291 129.269 106.425 129.318 106.571C129.368 106.705 129.442 106.827 129.528 106.936C129.626 107.046 129.737 107.131 129.873 107.192C130.008 107.253 130.18 107.289 130.365 107.289C130.55 107.289 130.71 107.253 130.858 107.192C130.993 107.119 131.116 107.034 131.203 106.924C131.289 106.814 131.363 106.68 131.4 106.534C131.449 106.388 131.461 106.242 131.461 106.096C131.461 105.95 131.424 105.803 131.375 105.657C131.326 105.511 131.252 105.389 131.153 105.28C131.055 105.17 130.932 105.085 130.796 105.024C130.648 104.963 130.488 104.939 130.304 104.951V104.939ZM130.944 102.332C130.944 102.332 131.042 102.295 131.092 102.308C131.141 102.308 131.203 102.332 131.252 102.356C131.301 102.381 131.35 102.429 131.387 102.466C131.424 102.515 131.461 102.563 131.473 102.612C131.486 102.661 131.486 102.722 131.473 102.783C131.461 102.844 131.424 102.892 131.363 102.953C131.289 103.014 131.203 103.075 131.104 103.124C131.006 103.172 130.895 103.209 130.784 103.233C130.673 103.258 130.55 103.27 130.427 103.27C130.304 103.27 130.18 103.27 130.07 103.245C129.959 103.221 129.848 103.197 129.737 103.148C129.626 103.099 129.54 103.051 129.466 102.99C129.405 102.941 129.38 102.892 129.355 102.819C129.343 102.758 129.343 102.697 129.355 102.636C129.368 102.576 129.392 102.515 129.429 102.466C129.466 102.417 129.503 102.368 129.552 102.332C129.602 102.295 129.651 102.283 129.7 102.283C129.749 102.283 129.799 102.295 129.848 102.332C129.971 102.442 130.094 102.515 130.205 102.539C130.316 102.563 130.427 102.563 130.513 102.539C130.611 102.515 130.698 102.478 130.772 102.442C130.845 102.393 130.907 102.356 130.956 102.332H130.944Z" fill="white"/>
<path d="M134.761 108.654C134.761 108.654 134.724 108.751 134.663 108.8C134.601 108.849 134.515 108.873 134.404 108.897C134.306 108.922 134.195 108.934 134.072 108.934C133.949 108.934 133.85 108.934 133.739 108.909C133.641 108.885 133.554 108.849 133.481 108.8C133.407 108.751 133.382 108.678 133.382 108.593L133.431 104.123C133.431 104.123 133.468 104.037 133.53 104.001C133.591 103.964 133.678 103.94 133.776 103.915C133.875 103.891 133.973 103.891 134.084 103.879C134.195 103.879 134.293 103.879 134.392 103.891C134.49 103.903 134.564 103.928 134.626 103.964C134.687 104.001 134.724 104.037 134.724 104.086V108.666L134.761 108.654Z" fill="white"/>
<path d="M136.682 104.269C136.682 104.269 136.769 104.232 136.805 104.208C136.842 104.184 136.892 104.171 136.929 104.159C137.347 103.989 137.729 103.903 138.049 103.891C138.369 103.879 138.64 103.964 138.874 104.123C139.108 104.281 139.281 104.537 139.404 104.878C139.527 105.219 139.613 105.645 139.65 106.169C139.675 106.534 139.687 106.912 139.687 107.302C139.687 107.704 139.687 108.142 139.662 108.617C139.662 108.69 139.625 108.751 139.564 108.8C139.502 108.849 139.416 108.885 139.33 108.91C139.244 108.934 139.133 108.946 139.022 108.946C138.911 108.946 138.813 108.934 138.714 108.91C138.616 108.885 138.542 108.849 138.48 108.8C138.419 108.751 138.394 108.69 138.394 108.629C138.419 108.154 138.431 107.74 138.443 107.363C138.456 106.985 138.443 106.656 138.443 106.376C138.431 106.132 138.394 105.925 138.357 105.755C138.32 105.584 138.246 105.45 138.148 105.353C138.049 105.255 137.926 105.207 137.778 105.207C137.631 105.207 137.434 105.243 137.2 105.328C137.003 105.402 136.842 105.487 136.695 105.596L136.719 108.654C136.719 108.654 136.682 108.751 136.621 108.8C136.559 108.849 136.473 108.873 136.362 108.897C136.264 108.922 136.153 108.934 136.03 108.934C135.907 108.934 135.808 108.934 135.697 108.91C135.599 108.885 135.512 108.849 135.439 108.8C135.365 108.751 135.34 108.678 135.34 108.593C135.34 108.483 135.34 108.337 135.34 108.167C135.34 107.996 135.34 107.789 135.34 107.57C135.34 107.35 135.34 107.119 135.34 106.875C135.34 106.632 135.34 106.376 135.34 106.132C135.34 105.889 135.34 105.645 135.34 105.402C135.34 105.158 135.34 104.951 135.34 104.756C135.34 104.561 135.34 104.391 135.34 104.244C135.34 104.098 135.34 104.001 135.34 103.94C135.34 103.891 135.377 103.855 135.439 103.818C135.5 103.782 135.586 103.757 135.685 103.733C135.783 103.708 135.882 103.696 135.993 103.696C136.104 103.696 136.202 103.696 136.301 103.708C136.399 103.721 136.473 103.745 136.535 103.782C136.596 103.818 136.633 103.855 136.633 103.903V104.269H136.682Z" fill="white"/>
<path d="M141.645 108.654C141.645 108.654 141.608 108.751 141.547 108.8C141.485 108.849 141.399 108.873 141.288 108.897C141.189 108.922 141.079 108.934 140.955 108.934C140.832 108.934 140.734 108.934 140.623 108.909C140.524 108.885 140.438 108.849 140.364 108.8C140.29 108.751 140.266 108.678 140.266 108.593L140.315 104.123C140.315 104.123 140.352 104.037 140.414 104.001C140.475 103.964 140.561 103.94 140.66 103.915C140.758 103.891 140.857 103.891 140.968 103.879C141.079 103.879 141.177 103.879 141.276 103.891C141.374 103.903 141.448 103.928 141.51 103.964C141.571 104.001 141.608 104.037 141.608 104.086V108.666L141.645 108.654Z" fill="white"/>
<path d="M144.305 104.939H142.482C142.482 104.939 142.396 104.902 142.359 104.841C142.322 104.78 142.298 104.707 142.273 104.61C142.248 104.512 142.248 104.415 142.236 104.293C142.236 104.183 142.236 104.074 142.261 103.976C142.285 103.879 142.298 103.794 142.335 103.733C142.372 103.66 142.409 103.635 142.458 103.623L145.524 103.647C145.66 103.647 145.758 103.672 145.832 103.72C145.906 103.769 145.955 103.83 145.992 103.915C146.017 103.988 146.029 104.086 146.017 104.183C146.017 104.281 145.992 104.39 145.955 104.488C145.93 104.597 145.881 104.695 145.844 104.792C145.795 104.89 145.746 104.975 145.696 105.048C145.672 105.085 145.647 105.121 145.623 105.158C145.598 105.194 145.549 105.255 145.499 105.328C145.45 105.401 145.376 105.487 145.302 105.596C145.216 105.706 145.118 105.852 144.982 106.023C144.859 106.193 144.699 106.412 144.514 106.656C144.33 106.9 144.108 107.204 143.849 107.545L145.746 107.57C145.746 107.57 145.857 107.606 145.893 107.667C145.943 107.728 145.98 107.813 146.004 107.911C146.029 108.008 146.054 108.105 146.054 108.227C146.054 108.337 146.054 108.447 146.029 108.544C146.004 108.641 145.967 108.714 145.918 108.788C145.869 108.861 145.795 108.885 145.709 108.885H143.049C142.963 108.873 142.864 108.848 142.778 108.824C142.679 108.788 142.593 108.751 142.519 108.69C142.433 108.629 142.372 108.556 142.31 108.471C142.248 108.386 142.211 108.288 142.199 108.191C142.187 108.081 142.199 107.971 142.224 107.85C142.248 107.728 142.322 107.594 142.433 107.46L144.305 104.963V104.939Z" fill="white"/>
</g>
<defs>
<clipPath id="clip0_228_2326">
<rect width="170.099" height="112.438" fill="white" transform="translate(0.263672 0.0761719)"/>
</clipPath>
</defs>
</svg>
