<svg width="13" height="14" viewBox="0 0 13 14" fill="none" xmlns="http://www.w3.org/2000/svg">
<path d="M11.6035 13.4671H1.39637C1.38179 13.4593 1.36822 13.4474 1.35262 13.4439C0.527694 13.2721 0.000244141 12.6106 0.000244141 11.7447C0.000244141 9.00571 0.000244141 6.26672 0.000244141 3.52737C0.000244141 3.47679 0.000244141 3.42585 0.000244141 3.36719H12.9999V12.0205C12.9918 12.0398 12.9792 12.0584 12.9759 12.0784C12.8822 12.5941 12.6153 12.989 12.1767 13.2436C12.0007 13.3459 11.7955 13.3944 11.6038 13.4671H11.6035ZM5.29917 11.4823C5.59427 12.2418 5.96773 12.5435 6.57658 12.5207C7.11048 12.5007 7.50292 12.1448 7.71424 11.4809C7.94659 11.6288 8.19624 11.7159 8.46964 11.6983C8.74303 11.6808 8.99539 11.5912 9.1962 11.3948C9.70024 10.9016 9.73823 10.3339 9.41599 9.72058C10.035 9.53018 10.3749 9.11461 10.4 8.51285C10.4105 8.26274 10.3471 8.02737 10.2162 7.81449C10.0255 7.5036 9.74976 7.31777 9.40378 7.24014C9.71109 6.57023 9.66598 6.0584 9.26878 5.63405C8.87192 5.2104 8.38551 5.1563 7.70983 5.46157C7.49987 4.81801 7.11115 4.46566 6.59591 4.44213C6.32999 4.42983 6.08339 4.48569 5.85918 4.63463C5.56408 4.83065 5.38736 5.11379 5.31206 5.46684C4.67199 5.16719 4.22426 5.17878 3.83791 5.53534C3.30571 6.02644 3.27145 6.60887 3.60081 7.23662C2.97907 7.41754 2.63681 7.82152 2.60086 8.42749C2.5822 8.74084 2.67752 9.02292 2.86781 9.26847C3.05606 9.51156 3.30571 9.65384 3.59912 9.72234C3.21616 10.3691 3.40645 11.0031 3.75108 11.3484C4.10282 11.7008 4.70218 11.8712 5.29883 11.4823H5.29917Z" fill="#144973"/>
<path d="M13 1.44683V2.57762H0.000301508C0.000301508 2.26427 -0.000376885 1.96708 0.000301508 1.66989C0.00301508 0.74952 0.725504 0.00127647 1.61657 0.000925183C4.86947 -0.000128681 8.1227 -0.0008313 11.3756 0.001979C11.9824 0.00233029 12.4519 0.283712 12.7622 0.818372C12.8725 1.00842 12.9223 1.23605 12.9997 1.44683H13ZM8.18646 1.68395C9.29428 1.68395 10.4021 1.68465 11.5102 1.68359C11.7572 1.68359 11.9309 1.5213 11.9342 1.29402C11.9376 1.06217 11.7613 0.896358 11.5075 0.893899C11.4865 0.893899 11.4651 0.893899 11.4441 0.893899C9.27495 0.893899 7.10545 0.893899 4.93629 0.893899C4.89389 0.893899 4.85149 0.891791 4.80943 0.896007C4.60896 0.917084 4.46311 1.07622 4.45734 1.2768C4.45056 1.51638 4.62558 1.68324 4.88812 1.68359C5.98746 1.6843 7.08713 1.68359 8.18646 1.68359V1.68395ZM1.71053 1.68359C1.80347 1.68359 1.89641 1.68746 1.98901 1.68289C2.20813 1.67165 2.36484 1.50514 2.3645 1.2884C2.3645 1.072 2.20711 0.903033 1.98765 0.896007C1.80211 0.889684 1.61623 0.890035 1.43103 0.896007C1.2136 0.903384 1.05316 1.07551 1.05384 1.2898C1.05418 1.50444 1.21428 1.6727 1.43239 1.68324C1.52499 1.68781 1.61793 1.68395 1.71087 1.68395L1.71053 1.68359ZM3.40719 1.68359C3.50013 1.68359 3.59307 1.68711 3.68567 1.68289C3.90649 1.67306 4.06455 1.50936 4.06625 1.29331C4.06828 1.07025 3.90852 0.901276 3.68194 0.894953C3.5008 0.890035 3.319 0.890035 3.13787 0.894953C2.91909 0.901276 2.75831 1.06884 2.75559 1.28383C2.75288 1.50374 2.91637 1.67411 3.14126 1.68289C3.22979 1.6864 3.31832 1.68359 3.40685 1.68359H3.40719Z" fill="#144973"/>
<path d="M8.34911 10.9203C8.29178 10.889 8.17917 10.8423 8.08419 10.771C7.99295 10.7021 7.9207 10.6066 7.83862 10.524C7.70972 10.3944 7.56149 10.367 7.39596 10.4387C7.34135 10.4622 7.28742 10.4875 7.23247 10.5089C7.0527 10.5788 6.96688 10.7165 6.96213 10.9111C6.95908 11.0383 6.96417 11.1655 6.9584 11.2923C6.94789 11.5245 6.77591 11.7114 6.56154 11.7303C6.31427 11.7525 6.10872 11.6081 6.06835 11.3629C6.04495 11.222 6.05241 11.0752 6.04935 10.9312C6.04461 10.7039 5.97575 10.5978 5.77223 10.5117C5.72542 10.4921 5.67929 10.4706 5.63248 10.4499C5.44219 10.3663 5.29804 10.3951 5.14709 10.5476C5.0684 10.6273 4.9931 10.7102 4.91203 10.7875C4.72683 10.9642 4.45649 10.9631 4.2818 10.7875C4.09965 10.6048 4.09185 10.3259 4.26688 10.1264C4.34082 10.0421 4.42054 9.96336 4.49923 9.88397C4.6461 9.73573 4.68477 9.56711 4.5942 9.37144C4.57419 9.32824 4.55723 9.28327 4.54129 9.23831C4.47141 9.04088 4.33268 8.94955 4.1329 8.94955C4.01859 8.94955 3.90428 8.95271 3.79031 8.94639C3.5505 8.93339 3.36597 8.74299 3.35342 8.50306C3.34121 8.26313 3.50504 8.04955 3.74384 8.01688C3.87714 7.99861 4.01384 8.00353 4.14884 8.00423C4.34252 8.00564 4.46734 7.90903 4.5379 7.72777C4.55689 7.67929 4.57589 7.63046 4.59556 7.58233C4.68307 7.3684 4.66001 7.23421 4.50465 7.06981C4.43071 6.99147 4.35337 6.91629 4.28146 6.8362C4.09965 6.63386 4.10305 6.35037 4.28757 6.16489C4.47209 5.97941 4.74311 5.98503 4.9351 6.17999C5.0104 6.25657 5.08299 6.33667 5.15625 6.41571C5.28888 6.55903 5.44321 6.58854 5.61858 6.51372C5.67726 6.48878 5.73594 6.46489 5.79428 6.43924C5.95777 6.36688 6.04969 6.24428 6.04868 6.05458C6.048 5.94077 6.0463 5.8266 6.04935 5.71278C6.0575 5.42718 6.25152 5.22133 6.50863 5.22168C6.76845 5.22168 6.95501 5.42543 6.96044 5.71559C6.96247 5.82519 6.95942 5.93479 6.96179 6.0444C6.9662 6.23866 7.04931 6.37812 7.2301 6.44803C7.28132 6.4677 7.33084 6.49264 7.38172 6.51442C7.55132 6.58714 7.70362 6.56184 7.8359 6.42625C7.91697 6.34299 7.99566 6.25693 8.0791 6.17648C8.26905 5.99276 8.54143 5.99241 8.71849 6.17262C8.90369 6.36091 8.90573 6.63913 8.7212 6.84323C8.64896 6.92297 8.57298 6.99955 8.49734 7.07613C8.35521 7.22051 8.31349 7.38456 8.40134 7.57671C8.42644 7.63187 8.44679 7.68948 8.46952 7.74604C8.53668 7.91219 8.65472 8.00002 8.8311 8.00388C8.98306 8.00704 9.13706 8.00037 9.28631 8.0239C9.5017 8.05798 9.65433 8.27262 9.64517 8.49744C9.63568 8.72929 9.46133 8.92461 9.23882 8.94322C9.12519 8.95271 9.01054 8.94814 8.89657 8.94955C8.58349 8.95271 8.30874 9.28433 8.36573 9.60751C8.38133 9.69639 8.43492 9.78456 8.49055 9.85728C8.56653 9.95599 8.66592 10.035 8.7463 10.1306C8.87147 10.2792 8.8986 10.452 8.82195 10.6326C8.74495 10.8131 8.60249 10.9031 8.34843 10.9203H8.34911ZM6.49981 7.17168C5.80072 7.17168 5.23121 7.75903 5.23121 8.47952C5.23121 9.19896 5.80208 9.78772 6.49981 9.78772C7.19787 9.78772 7.7684 9.19966 7.76874 8.47952C7.76874 7.75938 7.19889 7.17168 6.50015 7.17168H6.49981Z" fill="#144973"/>
<path d="M5.9922 8.47337C5.9939 8.1839 6.22387 7.94643 6.49998 7.94924C6.77642 7.9517 7.00572 8.19128 7.00606 8.47793C7.00673 8.77231 6.77201 9.01154 6.48946 9.00557C6.20691 8.99959 5.99017 8.76774 5.9922 8.47337Z" fill="#144973"/>
</svg>
