<svg width="16" height="16" viewBox="0 0 16 16" fill="none" xmlns="http://www.w3.org/2000/svg">
<path d="M0.0200195 14.6796V4.63965H15.89V4.76965C15.89 8.00965 15.89 11.2396 15.89 14.4796C15.89 15.2396 15.27 15.8596 14.51 15.8596C10.14 15.8596 5.77002 15.8596 1.41002 15.8596C1.02002 15.8596 0.690021 15.7096 0.420021 15.4296C0.210021 15.2196 0.110024 14.9596 0.0400238 14.6796H0.0200195ZM3.64002 10.0296C3.64002 10.0296 3.67002 9.97965 3.68002 9.94965C4.06002 9.30965 3.71002 8.51965 2.97002 8.40965C2.62002 8.35965 2.25002 8.37965 1.89002 8.38965C1.71002 8.38965 1.61002 8.52965 1.61002 8.71965C1.61002 9.73965 1.61002 10.7496 1.61002 11.7696C1.61002 11.9896 1.73002 12.0996 1.95002 12.0996C2.29002 12.0996 2.63002 12.0996 2.97002 12.0996C3.49002 12.0896 3.94002 11.7496 4.06002 11.2696C4.19002 10.7696 4.04002 10.3596 3.63002 10.0196L3.64002 10.0296ZM6.45002 10.2596C6.45002 11.2796 7.28002 12.1096 8.30002 12.1196C9.32002 12.1196 10.16 11.2796 10.16 10.2596C10.16 9.23965 9.33002 8.40965 8.31002 8.39965C7.29002 8.39965 6.45002 9.23965 6.45002 10.2596ZM13.64 10.5696C13.55 10.9796 13.38 11.3096 12.98 11.4496C12.19 11.7196 11.3 10.9896 11.4 10.1596C11.52 9.20965 12.47 8.73965 13.31 9.21965C13.5 9.32965 13.68 9.28965 13.77 9.13965C13.86 8.97965 13.81 8.80965 13.62 8.69965C13.3 8.49965 12.94 8.39965 12.56 8.41965C11.2 8.47965 10.37 9.92965 10.99 11.1296C11.48 12.0696 12.71 12.4296 13.54 11.8496C14.07 11.4796 14.26 10.9396 14.27 10.3196C14.27 10.0796 14.16 9.95965 13.91 9.95965C13.64 9.95965 13.37 9.95965 13.1 9.95965C12.87 9.95965 12.73 10.0796 12.73 10.2696C12.73 10.4696 12.87 10.5796 13.11 10.5796C13.28 10.5796 13.45 10.5796 13.63 10.5796L13.64 10.5696ZM5.35002 11.4996C5.35002 11.4196 5.35002 11.3596 5.35002 11.2996C5.35002 10.4496 5.35002 9.59965 5.35002 8.73965C5.35002 8.53965 5.22002 8.39965 5.05002 8.39965C4.87002 8.39965 4.75002 8.52965 4.75002 8.73965C4.75002 9.74965 4.75002 10.7596 4.75002 11.7796C4.75002 11.9996 4.86002 12.1196 5.08002 12.1196C5.42002 12.1196 5.76002 12.1196 6.10002 12.1196C6.31002 12.1196 6.43002 11.9896 6.43002 11.8096C6.43002 11.6196 6.30002 11.4996 6.08002 11.4996C5.84002 11.4996 5.61002 11.4996 5.34002 11.4996H5.35002Z" fill="#144973"/>
<path d="M0.0199966 3.71C0.0199966 2.86 0.0199966 2.02 0.0199966 1.17C0.0299966 1.14 0.0399954 1.1 0.0499954 1.07C0.169995 0.62 0.440001 0.3 0.860001 0.11C0.970001 0.06 1.08 0.03 1.19 0C5.69 0 10.2 0 14.7 0C14.72 0 14.74 0.02 14.75 0.03C15.45 0.19 15.87 0.72 15.87 1.44C15.87 2.14 15.87 2.84 15.87 3.55V3.72H0L0.0199966 3.71ZM2.7 1.39C2.59 1.39 2.48 1.39 2.38 1.39C2.12 1.4 1.92 1.61 1.92 1.86C1.92 2.1 2.12 2.31 2.37 2.32C2.59 2.32 2.8 2.33 3.02 2.32C3.27 2.31 3.47 2.09 3.47 1.85C3.47 1.61 3.27 1.41 3.02 1.39C2.92 1.39 2.81 1.39 2.71 1.39H2.7ZM5.16 1.39C5.06 1.39 4.95 1.39 4.85 1.39C4.59 1.4 4.39 1.61 4.39 1.86C4.39 2.11 4.6 2.31 4.86 2.32C5.07 2.32 5.27 2.32 5.48 2.32C5.74 2.32 5.94 2.1 5.94 1.85C5.94 1.6 5.73 1.4 5.47 1.39C5.37 1.39 5.26 1.39 5.16 1.39ZM7.63 2.32C7.74 2.32 7.86 2.32 7.97 2.32C8.22 2.3 8.42 2.09 8.42 1.85C8.42 1.61 8.22 1.4 7.97 1.39C7.75 1.39 7.54 1.38 7.32 1.39C7.07 1.4 6.87 1.62 6.87 1.85C6.87 2.09 7.07 2.29 7.32 2.31C7.42 2.31 7.53 2.31 7.63 2.31V2.32Z" fill="#144973"/>
<path d="M2.22997 11.4796V10.4396C2.51997 10.4396 2.80997 10.4196 3.08997 10.4396C3.33997 10.4696 3.50997 10.7196 3.49997 10.9696C3.48997 11.2196 3.29996 11.4496 3.04996 11.4696C2.77996 11.4896 2.50997 11.4696 2.21997 11.4696L2.22997 11.4796Z" fill="#144973"/>
<path d="M2.22998 9.80963V9.01963C2.46998 9.01963 2.69999 8.99963 2.92999 9.01963C3.10999 9.03963 3.22999 9.23963 3.21999 9.41963C3.20999 9.60963 3.05999 9.77963 2.86999 9.79963C2.71999 9.80963 2.55998 9.79963 2.40998 9.79963C2.34998 9.79963 2.29998 9.79963 2.22998 9.79963V9.80963Z" fill="#144973"/>
<path d="M8.31007 11.48C7.63007 11.48 7.07007 10.93 7.07007 10.24C7.07007 9.56 7.63007 9 8.31007 9C9.00007 9 9.57007 9.56 9.56007 10.24C9.56007 10.92 9.00007 11.47 8.32007 11.47L8.31007 11.48Z" fill="#144973"/>
</svg>
