<svg width="79" height="79" viewBox="0 0 79 79" fill="none" xmlns="http://www.w3.org/2000/svg">
<rect width="79" height="79" rx="15" fill="#D9D9D9" fill-opacity="0.25"/>
<path d="M26.1523 59.9851C27.3516 58.7244 27.7001 57.3201 27.7001 55.7314C27.6796 44.8665 27.6898 34.0016 27.6898 23.1469C27.6898 23.0137 27.6898 22.8907 27.6898 22.7574C27.7001 22.0912 27.9666 21.8247 28.6328 21.8145C31.431 21.8145 34.219 21.8145 37.0172 21.8145C39.3644 21.8145 41.7219 21.8145 44.0692 21.8145H44.5509C44.3869 22.2859 44.2537 22.7267 44.0692 23.1367C44.0282 23.2392 43.7924 23.2904 43.6387 23.2904C42.0089 23.3007 40.369 23.2904 38.7392 23.2904C36.392 23.2904 34.0345 23.2904 31.6873 23.2904C30.4573 23.2904 29.9038 23.8439 29.9038 25.0739C29.9038 26.6114 29.9038 28.1386 29.9038 29.6761C29.9038 30.7729 30.488 31.3571 31.5745 31.3571C36.2177 31.3571 40.8609 31.3571 45.5041 31.3571C45.6784 31.3571 45.8424 31.3571 46.0679 31.3571C46.0679 31.5724 46.0679 31.7569 46.0679 31.9414C46.0884 33.1713 47.2466 33.9093 48.3639 33.3866C49.1531 33.0176 49.9219 32.5871 50.7111 32.2284C50.9776 32.1054 51.2953 32.0644 51.6028 32.0541C52.4331 32.0336 53.2633 32.0541 54.1448 32.0541C54.1448 32.1771 54.1448 32.3309 54.1448 32.4846C54.1448 40.3565 54.1448 48.2182 54.1448 56.0901C54.1448 58.4374 52.5766 60.0056 50.2396 60.0056C42.3882 60.0056 34.5265 60.0056 26.6751 60.0056H26.1523V59.9851ZM38.6982 48.2387C38.6982 45.6147 38.6982 43.001 38.6982 40.377C38.6982 39.2598 38.155 38.7268 37.0377 38.7268C35.2133 38.7268 33.399 38.7268 31.5745 38.7268C30.4675 38.7268 29.9038 39.2905 29.9038 40.3873C29.9038 45.625 29.9038 50.8729 29.9038 56.1106C29.9038 57.1869 30.4778 57.7609 31.5438 57.7609C33.3785 57.7609 35.2132 57.7609 37.048 57.7609C38.155 57.7609 38.6982 57.2176 38.6982 56.0901C38.6982 53.4662 38.6982 50.8524 38.6982 48.2285V48.2387ZM40.9532 37.2201C44.2434 37.2201 47.5439 37.2201 50.8341 37.2201C50.9776 37.2201 51.1211 37.2201 51.2646 37.2201C51.6336 37.1791 51.9001 36.8921 51.9206 36.5436C51.9411 36.1951 51.6848 35.8773 51.3158 35.8158C51.1313 35.7851 50.9468 35.7851 50.7623 35.7851C44.2024 35.7851 37.6425 35.7851 31.0825 35.7851C30.898 35.7851 30.693 35.7543 30.529 35.8158C30.324 35.9081 30.0883 36.0516 29.9961 36.2361C29.7296 36.7383 30.119 37.2201 30.775 37.2201C34.1677 37.2201 37.5605 37.2201 40.9634 37.2201H40.9532ZM37.253 34.2886C39.4362 34.2886 41.6092 34.2886 43.7924 34.2886C44.2537 34.2886 44.5509 34.0118 44.5714 33.6018C44.5919 33.1918 44.3049 32.8946 43.8539 32.8433C43.7104 32.8331 43.5669 32.8433 43.4234 32.8433C39.5079 32.8433 35.6027 32.8433 31.6873 32.8433C31.3593 32.8433 31.0211 32.8024 30.7033 32.8638C30.4573 32.9151 30.1601 33.0381 30.0268 33.2328C29.6783 33.7248 30.0883 34.2988 30.7648 34.2988C32.9275 34.2988 35.0902 34.2988 37.253 34.2988V34.2886ZM46.0782 47.5212C44.3869 47.5212 42.6957 47.511 41.0044 47.5417C40.7584 47.5417 40.4407 47.716 40.3075 47.9107C40.1947 48.0747 40.1947 48.4745 40.3177 48.6077C40.5022 48.8127 40.8404 48.9664 41.1172 48.9664C42.9519 48.9972 44.7867 48.9869 46.6214 48.9869C48.0666 48.9869 49.5119 49.0074 50.9571 48.9767C51.2236 48.9767 51.5618 48.8434 51.7361 48.659C51.8693 48.5257 51.8796 48.1772 51.8181 47.962C51.7258 47.6442 51.4389 47.5315 51.1006 47.5315C49.4299 47.5315 47.7489 47.5315 46.0782 47.5315V47.5212ZM46.0679 44.5897C44.3972 44.5897 42.7162 44.5795 41.0455 44.6C40.8097 44.6 40.4919 44.723 40.3484 44.9075C40.2254 45.0715 40.2152 45.3995 40.2767 45.625C40.3792 45.9632 40.7072 46.0452 41.0455 46.0452C44.3664 46.0452 47.6874 46.0452 51.0084 46.0452C51.5721 46.0452 51.9206 45.7275 51.9103 45.2867C51.8898 44.846 51.5618 44.6 50.9981 44.5897C49.3479 44.5897 47.7079 44.5897 46.0576 44.5897H46.0679ZM46.0372 51.9082C47.7284 51.9082 49.4196 51.9082 51.1108 51.9082C51.5823 51.9082 51.9103 51.6007 51.9206 51.1907C51.9206 50.7909 51.6028 50.4732 51.1416 50.4424C51.0596 50.4424 50.9673 50.4424 50.8853 50.4424C47.6669 50.4424 44.4382 50.4424 41.2197 50.4424C41.0762 50.4424 40.9327 50.4424 40.7892 50.4629C40.3382 50.5654 40.082 50.9959 40.246 51.4162C40.3792 51.7852 40.6867 51.9082 41.0659 51.9082C42.7264 51.9082 44.3869 51.9082 46.0474 51.9082H46.0372ZM46.0166 54.8396C47.6361 54.8396 49.2556 54.8396 50.8751 54.8396C51.5619 54.8396 51.9206 54.5834 51.9206 54.1016C51.9206 53.6302 51.5413 53.3739 50.8546 53.3739C47.6464 53.3739 44.4382 53.3739 41.2299 53.3739C41.0864 53.3739 40.9429 53.3739 40.7994 53.3944C40.3997 53.4764 40.1845 53.7634 40.205 54.1632C40.2357 54.5834 40.5227 54.8294 41.0352 54.8294C42.6957 54.8294 44.3561 54.8294 46.0166 54.8294V54.8396ZM46.0474 41.6583C44.3766 41.6583 42.6957 41.6583 41.0249 41.6583C40.4612 41.6583 40.1537 41.9658 40.205 42.4578C40.246 42.8883 40.5432 43.0933 41.1582 43.0933C43.9462 43.0933 46.7444 43.0933 49.5324 43.0933C50.0449 43.0933 50.5676 43.124 51.0801 43.083C51.3158 43.0625 51.6131 42.96 51.7464 42.7858C51.8694 42.6218 51.8898 42.304 51.8283 42.0785C51.7463 41.7505 51.4491 41.648 51.1211 41.648C49.4299 41.648 47.7386 41.648 46.0576 41.648L46.0474 41.6583ZM44.9507 57.7711C46.2422 57.7711 47.5336 57.7711 48.8149 57.7711C49.3991 57.7711 49.6861 57.5354 49.6964 57.0639C49.6964 56.6026 49.3991 56.3259 48.8354 56.3259C46.2421 56.3259 43.6489 56.3259 41.0557 56.3259C40.4919 56.3259 40.1947 56.6026 40.205 57.0639C40.205 57.5251 40.5022 57.7711 41.0864 57.7711C42.3779 57.7711 43.6694 57.7711 44.9507 57.7711ZM43.1262 38.7268C42.4189 38.7268 41.7219 38.7268 41.0147 38.7268C40.4817 38.7268 40.1947 38.9933 40.205 39.4545C40.205 39.8953 40.492 40.1515 41.0044 40.1515C42.4087 40.1515 43.8129 40.1515 45.2171 40.1515C45.7296 40.1515 46.0576 39.8543 46.0474 39.4238C46.0474 39.0035 45.7297 38.7268 45.2377 38.7268C44.5304 38.7268 43.8334 38.7268 43.1262 38.7268Z" fill="#24419A"/>
<path d="M47.5628 32.1364C47.5423 31.9519 47.532 31.8289 47.5218 31.7059C47.5218 31.3369 47.491 30.9577 47.5218 30.5887C47.614 29.6047 47.3578 28.8565 46.63 28.0775C44.6211 25.925 44.9183 22.809 47.1938 20.841C49.049 19.242 51.2323 18.709 53.6307 18.9448C55.0657 19.0883 56.388 19.5598 57.5667 20.4105C60.7954 22.7373 60.8057 26.7962 57.5667 29.1127C55.691 30.4554 53.5795 30.8347 51.3245 30.5682C51.058 30.5374 50.7505 30.5887 50.5148 30.7014C49.6743 31.0909 48.844 31.5317 48.0138 31.9417C47.8805 32.0134 47.737 32.0647 47.5423 32.1467L47.5628 32.1364ZM53.3847 26.868C53.3847 26.581 53.3847 26.2325 53.3847 25.8942C53.3847 25.5355 53.3847 25.1767 53.3847 24.818C53.3745 24.3772 53.1285 24.0902 52.739 24.039C51.919 23.9262 51.3655 24.0697 51.2732 24.49C51.222 24.7257 51.304 25.023 51.4168 25.2382C51.4988 25.3817 51.7345 25.4535 51.9087 25.556V26.9192C51.9087 26.9192 51.8267 26.9602 51.7857 26.9705C51.3142 27.1652 51.14 27.4317 51.222 27.8417C51.2938 28.2005 51.591 28.4157 52.0625 28.4157C52.5032 28.4157 52.9542 28.4362 53.395 28.4157C54.01 28.3747 54.338 27.729 53.969 27.2677C53.8357 27.1037 53.6102 27.0115 53.3847 26.8577V26.868ZM53.3847 21.7533C53.3847 21.3125 53.0772 20.964 52.6672 20.9538C52.2572 20.9538 51.9087 21.3228 51.919 21.7738C51.919 22.2248 52.247 22.5528 52.657 22.5425C53.0772 22.5425 53.3745 22.2043 53.3745 21.7533H53.3847Z" fill="#24419A"/>
<path d="M26.1214 57.0544C25.9984 58.3459 24.7684 59.6066 23.3744 59.9039C21.1194 60.3856 18.8952 58.6226 18.8952 56.2959C18.8849 47.5117 18.8952 38.7276 18.8952 29.9434C18.8952 29.0926 19.5102 28.4469 20.3302 28.4367C21.1809 28.4264 21.8164 29.0311 21.8267 29.9126C21.8472 31.0299 21.8267 32.1471 21.8267 33.2644C21.8267 40.3675 21.8267 47.481 21.8267 54.5842C21.8267 55.4349 22.0522 56.2036 22.8209 56.6444C23.2207 56.8801 23.7229 56.9826 24.1944 57.0339C24.8299 57.0954 25.4756 57.0544 26.1214 57.0544Z" fill="#24419A"/>
<path d="M23.0664 28.4463H26.2131V55.588C25.4444 55.588 24.7064 55.6085 23.9581 55.588C23.5584 55.5675 23.3226 55.2908 23.2816 54.8808C23.2714 54.7373 23.2816 54.5938 23.2816 54.4503C23.2816 46.4656 23.2816 38.4912 23.2816 30.5065C23.2816 29.83 23.1484 29.1638 23.0767 28.4565L23.0664 28.4463Z" fill="#24419A"/>
<path d="M31.4004 24.7666H43.813C43.895 25.2586 43.936 25.7506 44.0488 26.2221C44.3358 27.4521 44.9405 28.5078 45.8322 29.3996C45.945 29.5123 46.0167 29.6763 46.1602 29.8813H31.4004V24.7769V24.7666Z" fill="#24419A"/>
<path d="M31.3906 40.1729H37.2228V56.2959H31.3906V40.1729Z" fill="#24419A"/>
</svg>
