<svg width="50" height="50" viewBox="0 0 50 50" fill="none" xmlns="http://www.w3.org/2000/svg">
<g clip-path="url(#clip0_159_1276)">
<path d="M2.13918 20.8395C4.6811 23.0185 7.157 25.1448 9.63291 27.2645C14.3668 31.3189 19.0941 35.3733 23.8281 39.4277C24.6864 40.1606 25.307 40.1673 26.1719 39.4277C33.3157 33.3064 40.4529 27.1852 47.5967 21.0574C47.6627 21.0045 47.7222 20.9385 47.841 20.8329C47.2732 20.331 46.7054 19.849 46.1574 19.3471C45.6556 18.8849 45.7414 18.1916 46.3159 17.9274C46.679 17.7557 46.9959 17.8614 47.2798 18.0991C47.7816 18.5283 48.2966 18.9443 48.7653 19.4066C49.5708 20.1923 49.9934 21.163 49.9934 22.2922C49.9934 30.1567 50 38.0212 49.9934 45.8857C49.9934 48.1506 48.1447 49.9929 45.8801 49.9929C31.9556 49.9929 18.0378 49.9929 4.1133 49.9929C1.84867 49.9929 0.0066024 48.144 0.0066024 45.8791C0 38.0344 0 30.1897 0 22.3384C0 21.1894 0.415951 20.1989 1.23465 19.4C1.70342 18.9377 2.2118 18.5151 2.72019 18.0991C3.16915 17.7293 3.63792 17.7623 3.96144 18.1519C4.27836 18.5283 4.22554 18.9972 3.78978 19.3867C3.25498 19.8688 2.70038 20.3376 2.13258 20.8329L2.13918 20.8395ZM46.5667 48.2629C46.5866 48.21 46.613 48.1638 46.6328 48.111C41.9715 44.116 37.3102 40.1144 32.6423 36.1128C32.497 36.2317 32.3848 36.3175 32.2858 36.4034C30.5625 37.8825 28.8393 39.3683 27.1095 40.8408C25.8022 41.9567 24.2044 41.9567 22.8971 40.8408C21.1805 39.3749 19.4705 37.9023 17.7605 36.4364C17.635 36.3241 17.4964 36.2251 17.3577 36.1128C12.6766 40.1276 8.02192 44.116 3.36723 48.111C3.38703 48.1572 3.41344 48.21 3.43325 48.2563H46.5667V48.2629ZM1.66381 22.6488C1.66381 23.3421 1.66381 23.91 1.66381 24.4779C1.66381 31.4905 1.66381 38.5032 1.67041 45.5159C1.67041 46.0112 1.81566 46.5064 1.90809 47.1403C6.71464 43.0199 11.3693 39.0315 16.0636 35.0035C11.2637 30.8896 6.50997 26.8154 1.6572 22.6554L1.66381 22.6488ZM48.0655 47.1205C48.1711 46.5394 48.323 46.0772 48.323 45.615C48.3362 38.1202 48.3362 30.6189 48.3296 23.1242C48.3296 22.9987 48.3032 22.8733 48.2834 22.6884C43.4702 26.8154 38.7099 30.8963 33.9297 34.9969C38.6439 39.0381 43.2854 43.0199 48.0655 47.1205Z" fill="#52FEB6"/>
<path d="M15.8326 23.0652C14.0169 22.2992 12.9275 21.038 12.5644 19.1627C12.0032 16.2837 14.3404 13.3914 17.2719 13.332C18.6584 13.3056 20.0515 13.3452 21.4314 13.2197C23.8281 13.0018 25.9805 12.1698 27.6443 10.3341C27.915 10.0304 28.2385 9.9049 28.6214 10.0436C29.0308 10.1954 29.1694 10.519 29.1694 10.9482C29.1562 12.5462 29.1694 14.1442 29.1694 15.8214C29.4665 15.8214 29.757 15.8214 30.0409 15.8214C31.4208 15.8412 32.5036 16.9374 32.5036 18.3175C32.5036 19.6976 31.4208 20.7937 30.0475 20.8135C29.7768 20.8135 29.4995 20.8135 29.176 20.8135C29.176 22.121 29.176 23.3822 29.176 24.6434C29.176 25.0066 29.1694 25.3698 29.176 25.7396C29.1892 26.1556 29.0176 26.4527 28.6346 26.598C28.2781 26.73 27.948 26.6376 27.6905 26.3471C26.2974 24.7689 24.4817 23.9699 22.468 23.5539C21.9464 23.4482 21.4182 23.4152 20.8372 23.3492C20.8372 24.7689 20.8372 26.1159 20.8372 27.4696C20.8372 28.7639 19.8798 29.8468 18.6518 29.9722C17.3379 30.1043 16.1891 29.3119 15.9052 28.0309C15.826 27.6809 15.8458 27.3045 15.8458 26.9413C15.8458 25.6405 15.8458 24.3397 15.8458 23.0454L15.8326 23.0652ZM20.857 14.9828V21.6785C23.2603 21.7974 25.4523 22.5172 27.4528 23.8774V12.7707C25.4325 14.1574 23.2471 14.8508 20.857 14.9762V14.9828ZM19.1404 15.0026C18.5263 15.0026 17.9387 14.9762 17.3511 15.0026C15.6675 15.0951 14.3866 16.3233 14.1754 18.0203C13.9905 19.5193 15.0205 21.1173 16.5522 21.487C17.3709 21.6851 18.249 21.6521 19.1338 21.7248V14.996L19.1404 15.0026ZM17.4964 23.3558C17.4964 24.7623 17.4832 26.1291 17.503 27.5026C17.5096 27.9913 17.9057 28.3412 18.3415 28.3346C18.7574 28.328 19.1404 27.9913 19.1536 27.5356C19.1734 26.1556 19.1602 24.7689 19.1602 23.3624H17.503L17.4964 23.3558ZM29.1562 17.5185C29.1562 17.8024 29.1562 18.0599 29.1562 18.3175C29.1562 18.5882 29.1562 18.8589 29.1562 19.1231C30.2654 19.2353 30.7804 18.991 30.82 18.3703C30.8596 17.7298 30.3512 17.4524 29.1562 17.5185Z" fill="#52FEB6"/>
<path d="M25.0231 4.99902C29.9551 4.99902 34.8805 4.99902 39.8125 4.99902C42.394 4.99902 44.1701 6.7687 44.1701 9.33738C44.1701 13.2795 44.1701 17.2151 44.1701 21.1572C44.1701 21.2431 44.1701 21.3289 44.1701 21.4148C44.1437 21.9364 43.8003 22.2864 43.325 22.2798C42.8694 22.2732 42.5393 21.9298 42.5129 21.4412C42.5063 21.3025 42.5129 21.1638 42.5129 21.0252C42.5129 17.1887 42.5129 13.3522 42.5129 9.51566C42.5129 7.66014 41.5093 6.66305 39.6474 6.66305C29.8957 6.66305 20.1439 6.66305 10.3856 6.66305C8.49729 6.66305 7.51354 7.66014 7.51354 9.56189C7.51354 13.3786 7.51354 17.2019 7.51354 21.0186C7.51354 21.1572 7.51354 21.2959 7.51354 21.4346C7.48713 21.9298 7.15701 22.2732 6.70804 22.2864C6.23267 22.2996 5.86293 21.9496 5.85633 21.428C5.85633 17.2283 5.82332 13.0286 5.86954 8.82892C5.89595 6.7687 7.81725 5.01223 9.93662 5.00563C14.9676 4.99902 20.0053 5.00563 25.0363 5.00563L25.0231 4.99902Z" fill="#52FEB6"/>
<path d="M28.7337 2.53537C28.5158 2.79289 28.3639 3.11645 28.1262 3.2155C27.8819 3.31455 27.499 3.26833 27.2679 3.12966C26.8322 2.85893 26.4624 2.47594 26.0663 2.13917C25.3334 1.51846 24.66 1.52507 23.9205 2.15238C23.5508 2.46933 23.1876 2.79289 22.8113 3.09665C22.3887 3.43341 21.9134 3.407 21.6031 3.05703C21.2663 2.68064 21.3059 2.2052 21.7351 1.81561C22.1577 1.43262 22.5934 1.05623 23.0424 0.699656C24.211 -0.218199 25.7692 -0.231406 26.9444 0.673243C27.4132 1.02982 27.8555 1.41941 28.2847 1.82882C28.463 1.9939 28.5554 2.25143 28.7403 2.54197L28.7337 2.53537Z" fill="#52FEB6"/>
<path d="M34.9465 15.9934C34.656 15.7029 34.3523 15.518 34.2203 15.2472C34.0486 14.8907 34.1806 14.5011 34.5372 14.303C35.138 13.9662 35.7586 13.6492 36.3925 13.3785C36.7622 13.22 37.1781 13.3323 37.33 13.7021C37.4422 13.9794 37.4686 14.5275 37.3102 14.6331C36.5971 15.1284 35.8114 15.5114 34.9465 15.9934Z" fill="#52FEB6"/>
<path d="M37.4951 22.3125C37.5017 23.0917 36.9206 23.5011 36.3396 23.2502C35.7388 22.9927 35.1512 22.6889 34.5768 22.3719C34.174 22.1474 34.0618 21.6852 34.2533 21.2956C34.4447 20.8994 34.8805 20.7013 35.3031 20.8862C35.9171 21.1569 36.5311 21.4541 37.1055 21.7975C37.3102 21.9229 37.4224 22.2135 37.4951 22.3125Z" fill="#52FEB6"/>
<path d="M35.8577 17.499C36.135 17.499 36.4123 17.4858 36.6896 17.499C37.1781 17.5254 37.5016 17.8688 37.495 18.3376C37.495 18.7801 37.1781 19.1366 36.7226 19.1499C36.135 19.1697 35.5407 19.1697 34.9531 19.1499C34.491 19.13 34.1806 18.7867 34.174 18.3443C34.1674 17.8754 34.4844 17.5254 34.9729 17.499C35.27 17.4858 35.5605 17.499 35.8577 17.499Z" fill="#52FEB6"/>
</g>
<defs>
<clipPath id="clip0_159_1276">
<rect width="50" height="50" fill="white"/>
</clipPath>
</defs>
</svg>
