<svg width="65" height="65" viewBox="0 0 65 65" fill="none" xmlns="http://www.w3.org/2000/svg">
<path d="M61.2252 17.8131C60.5314 15.2005 58.487 13.1429 55.8913 12.4446C51.1865 11.1758 32.3206 11.1758 32.3206 11.1758C32.3206 11.1758 13.4548 11.1758 8.7498 12.4446C6.15412 13.143 4.10979 15.2005 3.41594 17.8131C2.15527 22.5485 2.15527 32.4286 2.15527 32.4286C2.15527 32.4286 2.15527 42.3087 3.41594 47.0441C4.10979 49.6567 6.15412 51.6286 8.7498 52.3268C13.4548 53.5957 32.3206 53.5957 32.3206 53.5957C32.3206 53.5957 51.1864 53.5957 55.8913 52.3268C58.487 51.6286 60.5314 49.6567 61.2252 47.0441C62.4859 42.3087 62.4859 32.4286 62.4859 32.4286C62.4859 32.4286 62.4859 22.5485 61.2252 17.8131ZM26.1504 41.399V23.4582L41.9185 32.4288L26.1504 41.399Z" fill="#FF0000"/>
</svg>
