<svg width="146" height="145" viewBox="0 0 146 145" fill="none" xmlns="http://www.w3.org/2000/svg">
<g clip-path="url(#clip0_53_531)">
<path d="M128.226 124.797C124.432 128.695 121.037 130.986 118.437 132.715C93.0882 149.583 64.111 144.722 55.152 143.06C40.698 140.379 28.4965 138.487 18.0135 129.049C-5.80791 107.601 -4.64913 62.8588 13.553 35.1436C15.711 31.8573 33.8856 5.00901 62.9257 1.22607C63.6361 1.13337 64.1661 1.08107 64.6301 1.03187C69.1223 0.558032 96.961 -1.94374 119.661 17.0088C122.91 19.7219 128.139 24.6151 132.988 32.079C150.718 59.3685 150.774 101.634 128.226 124.798V124.797Z" fill="url(#paint0_linear_53_531)"/>
<path d="M46.1146 67.6012C49.6408 60.7743 56.2001 55.9618 63.819 55.1022L64.3402 22.2317C64.3448 21.9511 64.1157 21.7196 63.834 21.7227C42.3452 21.9547 23.3844 35.2833 14.5351 55.0256C14.4062 55.313 14.5486 55.6496 14.8438 55.7614L46.1146 67.6017V67.6012Z" fill="#91B3FA"/>
<path d="M88.5763 83.349C88.1351 83.3371 87.7402 83.6172 87.6087 84.0367C87.2398 85.2122 86.5653 87.467 86.4546 87.7523C85.9173 89.1397 85.288 90.4923 84.5512 91.7859C83.1846 94.1841 81.4365 96.3824 79.2795 98.1229C73.8135 102.534 65.9562 103.354 59.4021 101.171C59.215 101.108 59.0301 101.042 58.8456 100.973C58.5042 100.845 58.1212 100.987 57.9456 101.305L41.4198 131.34C49.4444 135.35 56.9962 136.399 66.4701 135.794C93.9965 134.036 115.611 111.762 118.01 84.1403L88.5757 83.3495L88.5763 83.349Z" fill="#7D97F4"/>
<path d="M88.5763 83.3492C86.7846 94.3096 78.6565 102.874 67.6118 103.248C64.5044 103.353 60.7973 102.634 58.0713 101.533C57.7871 101.418 57.4613 101.534 57.3075 101.798L40.3213 130.92C48.3459 134.93 57.4078 136.894 66.8817 136.288C94.4081 134.53 116.023 111.58 118.422 83.9587L88.5763 83.3486V83.3492Z" fill="#91B3FA"/>
<path d="M36.7805 126.323L53.2273 96.9238C53.3437 96.7156 53.2944 96.4557 53.1115 96.3024C48.0482 92.0529 43.9997 86.3554 43.9997 78.9666C43.9997 77.1443 43.1891 74.4918 43.5606 72.7824L12.6301 61.7598C10.9133 67.3257 9.98627 73.2495 9.98627 79.3876C9.98627 99.2304 20.5659 116.683 35.0917 126.715C35.6597 127.107 36.4438 126.924 36.78 126.323H36.7805Z" fill="#91B3FA"/>
<path d="M35.1359 125.487L52.1798 96.4515C52.3964 96.0827 52.3216 95.6125 52 95.3303C47.1108 91.0445 44.0003 84.6029 44.0003 77.3342C44.0003 75.5119 44.1977 73.7357 44.5692 72.0257L13.0937 60.2999C12.8432 60.2066 12.5636 60.3433 12.4872 60.5987C10.8624 66.0273 9.98679 71.7901 9.98679 77.7553C9.98679 98.0806 20.064 115.583 35.1364 125.486L35.1359 125.487Z" fill="#7D97F4"/>
<path d="M69.8488 55.258C79.6048 56.884 87.1701 65.0708 88.4521 75.3016C88.5206 75.849 88.9738 76.2669 89.5272 76.2855L136.713 77.8614C136.86 77.7195 136.937 77.6449 137.084 77.5035C136.939 38.164 108.635 4.46082 70.7202 0L69.8488 55.258Z" fill="url(#paint1_linear_53_531)"/>
<path d="M105.564 33.0657C110.024 28.6214 110.024 21.4157 105.564 16.9714C101.105 12.527 93.8745 12.527 89.415 16.9714C84.9554 21.4157 84.9554 28.6214 89.415 33.0657C93.8745 37.5101 101.105 37.5101 105.564 33.0657Z" fill="#91B3FA"/>
<path d="M104.725 32.3696C108.781 28.3275 108.781 21.774 104.725 17.7319C100.669 13.6899 94.0932 13.6898 90.0373 17.7319C85.9814 21.774 85.9814 28.3275 90.0373 32.3696C94.0932 36.4117 100.669 36.4117 104.725 32.3696Z" fill="white"/>
<path d="M91.72 35.2136C91.8837 34.4565 92.0131 33.9614 92.0131 33.9614L89.126 29.0889C89.126 29.0889 88.1917 30.0314 87.6316 34.1385C87.5541 34.7071 87.9979 35.2141 88.5737 35.2141H91.72V35.2136Z" fill="#7D97F4"/>
<path d="M107.334 34.1218C106.533 30.561 105.106 28.9033 105.106 28.9033L103.299 34.8685C103.299 34.8685 103.354 34.9861 103.437 35.2134H106.458C107.034 35.2134 107.461 34.6816 107.334 34.1218Z" fill="#7D97F4"/>
<path d="M91.6982 35.2131C94.6658 36.3011 98.6986 36.1488 103.404 35.2131C103.515 34.7589 103.665 34.27 103.864 33.7077L105.106 28.9014C103.366 27.3463 100.92 26.8331 99.9785 26.6871C97.7914 26.1464 95.2353 26.6254 95.2353 26.6254C91.7694 26.8662 89.127 29.0827 89.127 29.0827L91.2747 33.9531C91.4441 34.3627 91.5859 34.7838 91.6987 35.2125L91.6982 35.2131Z" fill="#7D97F4"/>
<path d="M95.6786 24.2773L95.6048 26.7051C95.5975 26.9453 95.7466 27.1613 95.9742 27.2416C96.5973 27.4606 97.8865 27.7936 99.1081 27.3576C99.3544 27.2695 99.503 27.0184 99.4651 26.76L99.0988 24.2779H95.6786V24.2773Z" fill="url(#paint2_linear_53_531)"/>
<path d="M94.7765 20.2016C94.7765 20.2016 94.9194 23.4812 95.492 24.7644C96.0641 26.0477 97.4952 26.0477 97.6381 26.0477C97.781 26.0477 99.0686 25.7623 99.7842 24.622C100.5 23.4812 100.785 19.7738 100.785 19.7738C100.785 19.7738 99.4979 18.3482 97.781 18.2052C96.0641 18.0628 94.7765 19.4885 94.7765 20.2016Z" fill="url(#paint3_linear_53_531)"/>
<path d="M100.161 21.3853C100.161 21.3853 100.818 20.4039 101.146 20.7307C101.475 21.058 100.818 23.1843 100.161 23.1843C99.5051 23.1843 100.161 21.3847 100.161 21.3847V21.3853Z" fill="url(#paint4_linear_53_531)"/>
<path d="M95.2369 21.5494C95.2369 21.5494 94.4158 20.4044 94.088 20.7317C93.7601 21.059 94.5806 23.1853 95.2369 23.1853V21.5494Z" fill="url(#paint5_linear_53_531)"/>
<path d="M101.191 19.3985C101.195 19.1768 101.182 18.9474 101.172 18.6859C101.16 18.4249 101.185 18.1634 101.213 17.9034C101.293 17.1536 100.508 16.5601 99.7977 16.7481C99.7431 16.7626 99.6839 16.7812 99.6314 16.7605C99.5654 16.7346 99.5363 16.6601 99.5098 16.5943C99.3456 16.1862 98.9086 15.6585 98.4955 15.4861C98.14 15.3375 97.7472 15.2758 97.3637 15.3193C96.591 15.4074 95.8812 15.9211 95.5585 16.6264C95.5403 16.6663 95.5211 16.7087 95.4842 16.732C95.4504 16.7533 95.4089 16.7543 95.3689 16.7548C94.9817 16.76 94.5354 16.6756 94.208 16.9128C93.9305 17.1142 93.7279 17.4275 93.7081 17.774C93.6868 18.1525 93.85 18.5145 94.0183 18.8547C94.1202 19.0608 94.2272 19.296 94.1457 19.5109C94.1207 19.5766 94.0791 19.6352 94.0474 19.6978C93.6946 20.3954 94.6211 21.0815 94.7921 21.7071C94.922 22.182 95.0514 22.6568 95.1813 23.1312C95.239 22.8283 95.2556 22.517 95.2296 22.2094C95.1943 21.7858 95.0794 21.3679 95.0945 20.9433C95.1054 20.6377 95.1761 20.3363 95.3174 20.0639C95.453 19.8024 95.7004 19.6869 95.8854 19.458C96.0563 19.617 96.2429 19.7838 96.4746 19.8174C96.6201 19.8387 96.7682 19.804 96.9085 19.76C97.1211 19.6937 97.423 19.4544 97.6293 19.4384C97.835 19.4223 97.9067 19.6377 98.0429 19.7517C98.4212 20.0681 99.0655 20.1561 99.5191 19.9671C99.4142 20.0111 100.028 21.1525 100.048 21.256C100.165 21.8635 100.236 22.4797 100.259 23.0981C100.308 23.1338 100.363 23.0608 100.379 23.0028C100.491 22.5911 100.525 22.1628 100.597 21.7423C100.679 21.2674 100.872 20.8195 101.027 20.3653C101.148 20.0111 101.187 19.7123 101.192 19.399L101.191 19.3985Z" fill="url(#paint6_linear_53_531)"/>
<path d="M127.528 26.6423C131.614 22.5699 131.614 15.9672 127.528 11.8948C123.441 7.82236 116.816 7.82236 112.73 11.8948C108.643 15.9672 108.643 22.5699 112.73 26.6423C116.816 30.7147 123.441 30.7147 127.528 26.6423Z" fill="#91B3FA"/>
<path d="M120.029 28.7845C125.286 28.7845 129.547 24.5382 129.547 19.3C129.547 14.0618 125.286 9.81543 120.029 9.81543C114.773 9.81543 110.512 14.0618 110.512 19.3C110.512 24.5382 114.773 28.7845 120.029 28.7845Z" fill="white"/>
<path d="M117.989 17.24C117.387 17.24 116.762 17.3166 116.526 16.5932C116.081 15.2312 116.828 13.1945 118.051 12.4529C118.46 12.2049 118.937 12.0961 119.406 12.0024C119.959 11.8921 120.436 11.8646 120.934 12.1313C121.393 12.3773 121.839 11.9817 122.315 12.2981C122.72 12.5668 123.03 12.9899 123.247 13.4172C123.529 13.9754 123.676 14.5912 123.799 15.2043C123.827 15.3431 123.853 15.487 123.822 15.6253C123.796 15.7413 123.731 15.8438 123.667 15.9438C123.173 16.7061 122.515 17.2405 121.565 17.2405H117.989V17.24Z" fill="url(#paint7_linear_53_531)"/>
<path d="M117.868 14.8419C117.868 14.8419 117.977 15.0692 117.267 15.4244C116.872 15.6228 116.102 15.9154 116 16.7709C115.948 17.2126 115.775 18.3027 115.353 18.37C114.303 18.5378 112.886 19.1908 112.754 20.4606C112.602 21.9179 113.023 22.6832 113.767 22.8733C114.314 23.0131 114.452 23.1597 114.342 23.7355C114.236 24.2881 114.656 26.2704 115.573 26.7754C117.629 27.9069 119.419 22.7506 119.419 22.7506L119.84 16.093L117.868 14.8408V14.8419Z" fill="url(#paint8_linear_53_531)"/>
<path d="M122.572 14.2598C122.572 14.2598 122.461 14.5006 123.184 14.8771C123.586 15.0868 124.37 15.397 124.473 16.3037C124.527 16.7714 124.652 17.4291 125.081 17.5005C126.15 17.6787 127.389 18.7164 127.652 20.7319C127.854 22.27 127.414 23.9199 126.656 24.1218C126.1 24.2699 126.141 23.9763 126.254 24.5864C126.362 25.1715 126.109 24.9457 125.175 25.4807C123.082 26.6795 120.992 22.6402 120.992 22.6402L120.564 15.587L122.573 14.2603L122.572 14.2598Z" fill="url(#paint9_linear_53_531)"/>
<path d="M119.774 21.652C119.774 21.652 121.363 21.2439 121.7 21.7483C121.869 22.5867 121.956 23.4199 121.956 23.4199L120.125 23.7622L118.914 23.4847L118.626 23.3179L118.507 22.1299C118.507 22.1299 119.126 21.7721 119.774 21.6514L119.774 21.652Z" fill="url(#paint10_linear_53_531)"/>
<path d="M117.869 17.4214C117.869 17.4214 117.613 16.6576 117.23 16.9124C116.847 17.1672 117.805 18.7917 117.805 18.7917L117.869 17.4214Z" fill="url(#paint11_linear_53_531)"/>
<path d="M121.701 17.4213C121.701 17.4213 121.701 16.2758 122.339 16.9122C122.978 17.5487 121.701 18.4394 121.701 18.4394V17.4213Z" fill="url(#paint12_linear_53_531)"/>
<path d="M127.715 27.8235C127.181 25.2513 126.413 23.241 126.17 23.125L124.721 26.6998C124.721 26.6998 124.428 27.765 124.452 29.0876H126.681C127.35 29.0876 127.851 28.476 127.715 27.8235Z" fill="url(#paint13_linear_53_531)"/>
<path d="M116.554 29.0878C116.621 27.9386 116.592 27.2152 116.592 27.2152L114.548 23.9092C114.548 23.9092 114.292 24.9226 114.037 27.5958C114.025 27.7201 114.014 27.8464 114.003 27.9744C113.953 28.574 114.428 29.0878 115.032 29.0878H116.554H116.554Z" fill="url(#paint14_linear_53_531)"/>
<path d="M119.383 29.0956H121.608L122.211 22.7751C122.211 22.7751 121.701 22.6441 121.445 21.7529C121.189 20.8621 121.062 19.0781 121.062 19.0781L118.763 19.5861C118.763 19.5861 119.019 22.0118 118.508 23.1573L119.383 29.0956Z" fill="url(#paint15_linear_53_531)"/>
<path d="M122.809 29.0956L123.129 25.1055C120.799 26.4949 118.402 26.4276 115.971 25.6906L116.661 29.095H122.809V29.0956Z" fill="url(#paint16_linear_53_531)"/>
<path d="M119.929 29.0876C119.239 25.7676 118.508 22.1338 118.508 22.1338L118.125 22.8956L114.549 23.9168C114.724 24.7308 115.259 26.9721 115.796 29.0876H119.93H119.929Z" fill="url(#paint17_linear_53_531)"/>
<path d="M125.039 29.0884C125.229 28.0713 125.397 27.2774 125.397 27.2774L126.171 23.1253C125.927 22.8829 122.109 22.3609 122.109 22.3609L121.701 21.7529C121.701 21.7529 121.191 25.4463 120.755 29.0879H125.039L125.039 29.0884Z" fill="url(#paint18_linear_53_531)"/>
<path d="M117.614 15.6391C117.614 15.6391 117.486 18.6939 117.869 19.203C118.252 19.712 118.763 20.8575 119.657 20.9849C120.551 21.1123 121.956 18.5665 121.956 18.4391C121.956 18.3117 121.828 15.0026 121.828 15.0026C121.828 15.0026 119.147 12.839 117.614 15.6391Z" fill="url(#paint19_linear_53_531)"/>
<path d="M117.102 15.1298C117.102 15.1298 116.592 16.657 118.124 16.1479L119.656 15.6389C119.656 15.6389 121.189 14.7482 121.444 15.1298C121.7 15.5115 121.955 16.4519 121.955 16.4519C121.955 16.4519 122.466 15.1298 121.955 14.366C121.444 13.6022 118.251 12.9657 117.102 15.1298H117.102Z" fill="url(#paint20_linear_53_531)"/>
<path d="M102.221 62.1497C108.751 62.1497 114.045 56.8741 114.045 50.3663C114.045 43.8586 108.751 38.583 102.221 38.583C95.6912 38.583 90.3976 43.8586 90.3976 50.3663C90.3976 56.8741 95.6912 62.1497 102.221 62.1497Z" fill="#91B3FA"/>
<path d="M102.109 61.1187C108.048 61.1187 112.863 56.3205 112.863 50.4016C112.863 44.4828 108.048 39.6846 102.109 39.6846C96.1698 39.6846 91.3552 44.4828 91.3552 50.4016C91.3552 56.3205 96.1698 61.1187 102.109 61.1187Z" fill="white"/>
<path d="M104.886 48.253C106.256 46.8879 106.256 44.6746 104.886 43.3095C103.516 41.9444 101.295 41.9444 99.9256 43.3095C98.5558 44.6746 98.5558 46.8879 99.9256 48.253C101.295 49.6181 103.516 49.6181 104.886 48.253Z" fill="url(#paint21_linear_53_531)"/>
<path d="M99.0369 44.8047C97.4942 50.121 96.4455 54.9542 96.6155 56.313L101.113 55.8397L101.635 46.0061L99.0369 44.8047Z" fill="url(#paint22_linear_53_531)"/>
<path d="M104.016 44.2561L103.399 56.2766L108.487 58.9772C108.381 54.869 106.275 44.3135 105.413 44.0303L104.016 44.2555L104.016 44.2561Z" fill="url(#paint23_linear_53_531)"/>
<path d="M104.017 50.7656L104.165 54.039L100.979 54.5175L100.778 51.0805L104.017 50.7656Z" fill="url(#paint24_linear_53_531)"/>
<path d="M105.528 48.7945C105.528 48.7945 104.765 52.1932 102.699 52.6018C100.633 53.0104 100.021 49.808 99.9115 49.5775C99.9115 49.5775 99.4495 49.7945 99.3456 49.3367C99.2417 48.8789 98.6971 47.7277 99.7249 47.751C99.7249 47.751 99.5228 46.6076 99.8782 46.0462C100.234 45.4849 100.95 44.1348 102.427 44.5103C103.904 44.8857 106.264 46.1239 105.528 48.794V48.7945Z" fill="url(#paint25_linear_53_531)"/>
<path d="M104.115 52.9453L106.136 54.0131L103.49 56.9069L98.5978 53.8402C99.343 53.5631 100.076 53.1903 100.745 53.0794L104.115 52.9453Z" fill="url(#paint26_linear_53_531)"/>
<path d="M99.8403 44.7102C99.1497 45.6724 99.6927 46.5263 99.5072 47.2176C100.176 46.9753 102.435 46.6133 103.114 46.6796C103.255 46.2192 102.979 45.4533 102.838 44.8495C103.058 45.4228 103.562 46.3005 103.509 46.7537C104.422 46.7956 104.235 46.808 105.261 47.2176L104.462 44.4419C102.684 43.6139 101.147 43.719 99.8408 44.7107L99.8403 44.7102Z" fill="url(#paint27_linear_53_531)"/>
<path d="M103.241 41.4479C103.241 42.1155 102.61 42.8643 102.156 42.8643C101.782 42.8643 101.072 42.1155 101.072 41.4479C101.072 40.7804 101.557 40.2393 102.156 40.2393C102.755 40.2393 103.241 40.7804 103.241 41.4479Z" fill="url(#paint28_linear_53_531)"/>
<path d="M107.586 61.2578L108.698 55.0912C107.185 54.0653 105.782 53.577 104.116 52.9473C103.599 54.0177 101.239 53.9115 100.745 53.0804C99.1757 53.4776 97.6818 54.2119 96.2372 55.1632L97.7592 61.2584H107.586V61.2578Z" fill="url(#paint29_linear_53_531)"/>
<path d="M110.637 60.1669C109.736 56.3275 108.698 55.0908 108.698 55.0908L107.034 60.1384C107.034 60.1384 107.235 60.5413 107.498 61.2575H109.768C110.343 61.2575 110.768 60.7241 110.638 60.1669H110.637Z" fill="url(#paint30_linear_53_531)"/>
<path d="M97.8693 61.2572C98.0533 60.5979 98.2991 59.9061 98.6181 59.1971L96.2367 55.1641C96.2367 55.1641 95.0618 57.1977 94.6731 60.2603C94.6061 60.7895 95.0223 61.2572 95.5575 61.2572H97.8693Z" fill="url(#paint31_linear_53_531)"/>
<path d="M104.357 44.5029C105.538 47.4765 106.127 55.8637 105.406 60.2991C106.534 56.4271 107.94 51.5158 105.792 44.9115L104.357 44.5029Z" fill="url(#paint32_linear_53_531)"/>
<path d="M126.98 52.1864C132.854 52.1864 137.616 47.4404 137.616 41.5859C137.616 35.7314 132.854 30.9854 126.98 30.9854C121.105 30.9854 116.343 35.7314 116.343 41.5859C116.343 47.4404 121.105 52.1864 126.98 52.1864Z" fill="#91B3FA"/>
<path d="M133.719 48.4353C137.497 44.6703 137.497 38.566 133.719 34.801C129.941 31.036 123.816 31.036 120.038 34.801C116.26 38.566 116.26 44.6703 120.038 48.4353C123.816 52.2004 129.941 52.2004 133.719 48.4353Z" fill="white"/>
<path d="M133.375 52.3219C133.914 52.3219 134.35 51.8843 134.346 51.3468C134.336 49.8072 134.305 48.455 134.233 47.7083C134.049 45.8026 133.034 45.1982 133.034 45.1982L132.517 52.3219H133.375Z" fill="url(#paint33_linear_53_531)"/>
<path d="M130.878 52.3218C130.803 48.3312 130.729 45.0309 130.729 45.0309C128.916 43.919 122.221 44.0583 122.221 44.0583C122.221 44.0583 121.756 47.9081 121.226 52.3218H130.878Z" fill="url(#paint34_linear_53_531)"/>
<path d="M119.822 52.322H126.052C125.852 50.3925 124.243 43.2549 124.243 43.2549L119.245 44.7789C119.245 44.7789 119.64 49.2289 119.64 50.6193C119.64 50.9378 119.73 51.5556 119.821 52.322H119.822Z" fill="url(#paint35_linear_53_531)"/>
<path d="M120.009 52.3216C120.032 49.9695 119.989 45.6309 119.246 44.7842C119.246 44.7842 118.283 45.2782 117.307 48.4749C117.025 49.3978 116.769 50.2735 116.53 51.1077C116.357 51.7162 116.816 52.3211 117.45 52.3211H120.009L120.009 52.3216Z" fill="url(#paint36_linear_53_531)"/>
<path d="M132.847 52.3221C133.026 48.939 133.183 45.3347 133.034 45.1861C132.755 44.908 129.404 43.8174 129.404 43.8174C129.404 43.8174 127.22 50.4718 126.713 52.3221H132.847Z" fill="url(#paint37_linear_53_531)"/>
<path d="M124.453 44.4348L125.29 41.5156H128.358L128.776 44.8517C128.776 44.8517 126.126 45.5466 124.453 44.4348Z" fill="url(#paint38_linear_53_531)"/>
<path d="M124.453 37.7247C124.453 37.7247 124.741 40.517 125.227 41.6076C125.714 42.6982 126.929 42.6982 127.051 42.6982C127.172 42.6982 128.267 42.4558 128.874 41.4864C129.482 40.517 129.725 37.3668 129.725 37.3668C129.725 37.3668 128.631 36.1551 127.172 36.0339C125.714 35.9127 124.453 37.1188 124.453 37.7242V37.7247Z" fill="url(#paint39_linear_53_531)"/>
<path d="M129.195 38.7358C129.195 38.7358 129.753 37.9021 130.032 38.1796C130.311 38.4577 129.753 40.2645 129.195 40.2645C128.637 40.2645 129.195 38.7353 129.195 38.7353V38.7358Z" fill="url(#paint40_linear_53_531)"/>
<path d="M125.01 38.8748C125.01 38.8748 124.313 37.9018 124.034 38.1799C123.755 38.458 124.452 40.2648 125.01 40.2648V38.8748Z" fill="url(#paint41_linear_53_531)"/>
<path d="M130.626 37.0817C130.773 36.6995 130.812 36.2733 130.765 35.8642C130.692 35.2469 130.359 34.1024 129.898 33.6431C130.029 33.7736 128.779 34.3008 128.586 34.2821C128.962 33.9771 129.43 33.6281 129.447 33.0957C129.012 33.3878 128.481 33.4934 127.964 33.584C126.676 33.8103 125.291 33.7632 124.299 34.7347C123.885 35.1407 123.605 35.7678 123.711 36.353C123.788 36.7803 124.427 37.2313 124.034 37.6244C123.756 37.9025 124.598 38.4084 124.734 39.1976C124.744 39.2546 124.754 39.3131 124.771 39.367C124.759 38.9635 124.603 38.5301 124.613 38.1376C124.633 37.3328 125.85 37.2758 126.446 37.2225C127.238 37.1516 128.102 37.1583 128.788 36.6969C129.067 36.5094 129.244 38.0257 129.256 38.1003C129.325 38.5317 129.407 38.9946 129.334 39.4307H129.526C129.582 38.919 129.531 38.4296 129.908 38.0573C130.091 37.8776 130.274 37.6963 130.417 37.484C130.502 37.3577 130.572 37.2225 130.626 37.0811L130.626 37.0817Z" fill="url(#paint42_linear_53_531)"/>
<path d="M125.141 42.0352C125.034 42.6742 125.001 42.9829 124.798 43.5981C124.614 44.1532 124.749 44.9269 124.76 45.5105C124.776 46.3256 125.411 47.2169 125.272 48.018C124.916 47.0216 123.83 46.2459 123.274 45.3158C122.731 44.407 122.343 43.6732 122.964 42.8151C123.349 42.2832 125.149 41.985 125.141 42.0347L125.141 42.0352Z" fill="url(#paint43_linear_53_531)"/>
<path d="M128.425 44.708C128.502 46.405 128.168 46.7494 127.897 48.464C128.261 47.3056 129.08 46.6966 129.725 45.664C130.36 44.6459 130.566 43.3766 129.526 42.6982C129.455 42.6516 128.448 42.1871 128.453 42.2772C128.465 42.5247 128.391 43.9727 128.425 44.708H128.425Z" fill="url(#paint44_linear_53_531)"/>
<path d="M30.931 56.3821C34.9594 56.3821 38.2251 53.1276 38.2251 49.1129C38.2251 45.0983 34.9594 41.8438 30.931 41.8438C26.9026 41.8438 23.637 45.0983 23.637 49.1129C23.637 53.1276 26.9026 56.3821 30.931 56.3821Z" fill="url(#paint45_linear_53_531)"/>
<path d="M35.9172 54.0823C38.6709 51.338 38.6709 46.8886 35.9172 44.1442C33.1634 41.3999 28.6987 41.3999 25.945 44.1442C23.1913 46.8886 23.1913 51.338 25.945 54.0823C28.6987 56.8267 33.1634 56.8267 35.9172 54.0823Z" fill="url(#paint46_linear_53_531)"/>
<path opacity="0.7" d="M24.431 48.8349C24.431 48.8349 24.4284 48.8349 24.4273 48.8349C24.3904 48.8328 24.3624 48.8017 24.3639 48.765C24.3785 48.4889 24.4107 48.2124 24.4595 47.9416C24.4663 47.9053 24.5006 47.8815 24.537 47.8877C24.5733 47.8944 24.5972 47.9286 24.591 47.9649C24.5432 48.23 24.5115 48.5014 24.4975 48.7712C24.4954 48.8069 24.4663 48.8343 24.431 48.8343V48.8349Z" fill="white"/>
<path opacity="0.7" d="M25.1169 46.2597C25.107 46.2597 25.0966 46.2576 25.0867 46.2525C25.054 46.2359 25.0405 46.196 25.0571 46.1629C26.1832 43.9397 28.4342 42.5586 30.931 42.5586C31.3296 42.5586 31.7287 42.5943 32.1173 42.6648C32.1537 42.6715 32.1776 42.7062 32.1709 42.7419C32.1641 42.7782 32.1298 42.8025 32.0934 42.7953C31.7125 42.7259 31.3213 42.6912 30.931 42.6912C28.4846 42.6912 26.2793 44.0443 25.1761 46.2224C25.1642 46.2457 25.1408 46.2592 25.1164 46.2592L25.1169 46.2597Z" fill="white"/>
<path opacity="0.78" d="M35.3048 53.4712C37.6355 51.1485 37.6355 47.3827 35.3048 45.06C32.9742 42.7374 29.1955 42.7374 26.8649 45.06C24.5342 47.3827 24.5342 51.1485 26.8649 53.4712C29.1955 55.7939 32.9742 55.7939 35.3048 53.4712Z" fill="white"/>
<path d="M32.9118 47.0182C32.9118 48.0255 32.0924 49.1124 31.0822 49.1124C30.0721 49.1124 29.2526 48.0255 29.2526 47.0182C29.2526 46.011 30.0721 45.2969 31.0822 45.2969C32.0924 45.2969 32.9118 46.0115 32.9118 47.0182Z" fill="url(#paint47_linear_53_531)"/>
<path d="M28.8114 52.9905H33.2782C33.7485 52.9905 34.1647 52.6875 34.3081 52.2411L34.5487 51.4923C34.7248 50.9439 34.4385 50.3504 33.896 50.1531C32.0784 49.4908 30.1983 49.5757 28.2731 50.2142C27.7337 50.3929 27.4344 50.9682 27.583 51.5151L27.768 52.195C27.8959 52.6647 28.3235 52.9905 28.8114 52.9905Z" fill="url(#paint48_linear_53_531)"/>
<path d="M44.0912 45.0871C48.1196 45.0871 51.3852 41.8326 51.3852 37.818C51.3852 33.8033 48.1196 30.5488 44.0912 30.5488C40.0628 30.5488 36.7971 33.8033 36.7971 37.818C36.7971 41.8326 40.0628 45.0871 44.0912 45.0871Z" fill="url(#paint49_linear_53_531)"/>
<path d="M49.0773 42.7874C51.831 40.0431 51.831 35.5936 49.0773 32.8493C46.3235 30.1049 41.8588 30.105 39.1051 32.8493C36.3514 35.5936 36.3514 40.0431 39.1051 42.7874C41.8588 45.5318 46.3235 45.5318 49.0773 42.7874Z" fill="url(#paint50_linear_53_531)"/>
<path opacity="0.7" d="M37.5911 37.5399C37.5911 37.5399 37.5885 37.5399 37.5875 37.5399C37.5506 37.5379 37.5225 37.5068 37.5241 37.47C37.5386 37.194 37.5708 36.9175 37.6197 36.6466C37.6264 36.6104 37.6607 36.5866 37.6971 36.5928C37.7335 36.5995 37.7574 36.6337 37.7512 36.6699C37.7034 36.9351 37.6717 37.2064 37.6576 37.4762C37.6555 37.512 37.6264 37.5394 37.5911 37.5394V37.5399Z" fill="white"/>
<path opacity="0.7" d="M38.2765 34.9658C38.2666 34.9658 38.2562 34.9637 38.2464 34.9585C38.2136 34.942 38.2001 34.9021 38.2168 34.8689C39.3428 32.6458 41.5938 31.2646 44.0907 31.2646C44.4892 31.2646 44.8883 31.3004 45.277 31.3708C45.3134 31.3775 45.3373 31.4122 45.3305 31.448C45.3237 31.4842 45.2894 31.5086 45.2531 31.5013C44.8722 31.4319 44.4809 31.3972 44.0907 31.3972C41.6442 31.3972 39.4389 32.7504 38.3357 34.9285C38.3238 34.9518 38.3004 34.9653 38.276 34.9653L38.2765 34.9658Z" fill="white"/>
<path opacity="0.78" d="M48.4646 42.1773C50.7952 39.8546 50.7952 36.0888 48.4646 33.7661C46.1339 31.4434 42.3552 31.4434 40.0246 33.7661C37.694 36.0888 37.694 39.8546 40.0246 42.1773C42.3552 44.4999 46.1339 44.4999 48.4646 42.1773Z" fill="white"/>
<path d="M46.072 35.7233C46.072 36.7305 45.2525 37.8175 44.2424 37.8175C43.2322 37.8175 42.4128 36.7305 42.4128 35.7233C42.4128 34.7161 43.2322 34.002 44.2424 34.002C45.2525 34.002 46.072 34.7166 46.072 35.7233Z" fill="url(#paint51_linear_53_531)"/>
<path d="M41.9716 41.6956H46.4384C46.9086 41.6956 47.3248 41.3926 47.4683 40.9462L47.7089 40.1974C47.885 39.649 47.5987 39.0555 47.0562 38.8582C45.2385 38.1959 43.3585 38.2808 41.4333 38.9193C40.8939 39.098 40.5946 39.6733 40.7432 40.2202L40.9282 40.9001C41.056 41.3698 41.4837 41.6956 41.9716 41.6956Z" fill="url(#paint52_linear_53_531)"/>
<path d="M46.7813 61.8977C50.8097 61.8977 54.0754 58.6432 54.0754 54.6285C54.0754 50.6139 50.8097 47.3594 46.7813 47.3594C42.7529 47.3594 39.4873 50.6139 39.4873 54.6285C39.4873 58.6432 42.7529 61.8977 46.7813 61.8977Z" fill="url(#paint53_linear_53_531)"/>
<path d="M46.7813 61.6562C50.6757 61.6562 53.8327 58.51 53.8327 54.6289C53.8327 50.7478 50.6757 47.6016 46.7813 47.6016C42.8869 47.6016 39.7299 50.7478 39.7299 54.6289C39.7299 58.51 42.8869 61.6562 46.7813 61.6562Z" fill="url(#paint54_linear_53_531)"/>
<path opacity="0.7" d="M40.2813 54.3505C40.2813 54.3505 40.2787 54.3505 40.2776 54.3505C40.2407 54.3484 40.2127 54.3173 40.2142 54.2806C40.2288 54.0046 40.261 53.728 40.3098 53.4572C40.3166 53.4209 40.3509 53.3971 40.3873 53.4033C40.4236 53.4101 40.4475 53.4442 40.4413 53.4805C40.3935 53.7456 40.3618 54.017 40.3478 54.2868C40.3457 54.3225 40.3166 54.35 40.2813 54.35V54.3505Z" fill="white"/>
<path opacity="0.7" d="M40.9667 51.7763C40.9568 51.7763 40.9464 51.7742 40.9365 51.7691C40.9038 51.7525 40.8903 51.7126 40.9069 51.6795C42.0329 49.4563 44.284 48.0752 46.7808 48.0752C47.1794 48.0752 47.5784 48.1109 47.9671 48.1814C48.0035 48.1881 48.0274 48.2228 48.0206 48.2585C48.0139 48.2948 47.9796 48.3191 47.9432 48.3119C47.5623 48.2425 47.171 48.2078 46.7808 48.2078C44.3344 48.2078 42.1291 49.5609 41.0259 51.739C41.0139 51.7623 40.9906 51.7758 40.9661 51.7758L40.9667 51.7763Z" fill="white"/>
<path opacity="0.78" d="M46.9351 60.7292C50.2311 60.7292 52.9031 58.0663 52.9031 54.7816C52.9031 51.4968 50.2311 48.834 46.9351 48.834C43.6391 48.834 40.9672 51.4968 40.9672 54.7816C40.9672 58.0663 43.6391 60.7292 46.9351 60.7292Z" fill="white"/>
<path d="M48.7621 52.5339C48.7621 53.5411 47.9427 54.6281 46.9325 54.6281C45.9224 54.6281 45.1029 53.5411 45.1029 52.5339C45.1029 51.5266 45.9224 50.8125 46.9325 50.8125C47.9427 50.8125 48.7621 51.5271 48.7621 52.5339Z" fill="url(#paint55_linear_53_531)"/>
<path d="M44.6617 58.5061H49.1285C49.5988 58.5061 50.015 58.2032 50.1584 57.7568L50.399 57.0079C50.5751 56.4595 50.2888 55.8661 49.7463 55.6688C47.9287 55.0064 46.0486 55.0914 44.1234 55.7299C43.584 55.9085 43.2847 56.4839 43.4333 57.0307L43.6183 57.7107C43.7461 58.1804 44.1738 58.5061 44.6617 58.5061Z" fill="url(#paint56_linear_53_531)"/>
<path d="M58.8118 54.3398C58.8118 54.3398 56.7967 55.3165 56.4262 56.4387C56.1289 57.3393 53.9008 57.4553 53.6805 59.2258C53.5667 60.1398 52.888 60.8721 51.9745 61.0119C49.699 61.3594 46.1921 62.537 45.6309 66.4748C45.2027 69.4804 46.7397 70.6197 48.3532 71.0143C49.5385 71.3038 50.3257 72.4529 50.0862 73.645C49.8565 74.7885 50.1989 76.1106 52.187 77.1561C56.6418 79.4989 61.0909 71.6062 61.0909 71.6062L62.0029 57.825L58.8118 54.3404V54.3398Z" fill="url(#paint57_linear_53_531)"/>
<path d="M83.0531 51.0723C83.0531 51.0723 74.1581 65.0938 63.581 67.8022C63.581 67.8022 65.6418 73.6524 67.2329 74.322C67.2329 74.322 80.2461 63.5014 83.5899 53.065L83.0531 51.0728V51.0723Z" fill="url(#paint58_linear_53_531)"/>
<path d="M40.5 140.754L40.2116 143.116C40.1571 143.564 39.8032 143.918 39.3532 143.969C38.5935 144.056 37.3744 144.144 36.1814 144.019C35.6576 143.963 35.3177 143.435 35.4773 142.936C35.7683 142.024 36.2998 140.655 37.0668 139.85H39.6956C40.1815 139.85 40.5582 140.273 40.4995 140.754L40.5 140.754Z" fill="url(#paint59_linear_53_531)"/>
<path d="M61.0914 113.086L61.5352 115.687C61.5352 115.687 60.049 130.687 59.7851 136.688C59.7435 137.629 59.9877 138.558 60.4835 139.36L63.0676 143.542L56.5005 139.68L56.3695 138.881L57.4447 137.409L56.0365 120.604C55.9538 119.617 56.1581 118.627 56.6252 117.752L57.9835 115.209L61.0914 113.086Z" fill="url(#paint60_linear_53_531)"/>
<path d="M63.4994 144.148H61.4037C61.0114 144.148 60.6414 143.968 60.4024 143.658C59.7492 142.812 58.3956 141.162 57.7481 141.119C56.8767 141.061 56.9884 144.148 56.9884 144.148H56.5L55.8811 140.312C55.7252 139.347 56.2069 138.391 57.0768 137.938C57.0768 137.938 57.2758 139.407 58.3561 140.055C59.4359 140.705 62.7506 143.03 62.7506 143.03C62.7506 143.03 63.1564 142.973 63.6023 143.053C64.2633 143.172 64.1713 144.148 63.4994 144.148Z" fill="url(#paint61_linear_53_531)"/>
<path d="M52.0971 114.321C52.0971 114.321 43.3918 130.778 42.008 134.535C40.6242 138.292 40.1394 141.426 40.1207 141.724C40.0916 142.188 39.5127 142.633 37.9175 142.633C37.0939 142.633 36.6906 142.304 36.4932 141.985C36.3248 141.713 36.316 141.374 36.4578 141.087C36.9613 140.072 38.5592 136.826 39.1511 135.354C39.8578 133.596 41.3777 125.631 42.2112 122.862C43.0447 120.092 43.9873 117.088 47.6174 114.321C47.6174 114.321 50.1096 111.889 52.0966 114.321L52.0971 114.321Z" fill="url(#paint62_linear_53_531)"/>
<path d="M57.5964 87.3554C59.8422 77.8724 54.1533 72.509 54.1533 72.509C57.7429 69.0751 64.283 67.5127 64.283 67.5127C64.283 67.5127 70.5238 72.0595 69.7833 75.6187C69.3494 77.7046 65.3966 88.1131 65.3966 88.1131C65.3966 88.1131 61.7415 89.837 57.5964 87.3559V87.3554Z" fill="url(#paint63_linear_53_531)"/>
<path d="M52.6173 92.0504C53.5313 89.3068 57.5959 87.3555 57.5959 87.3555C61.741 89.8365 65.396 88.1126 65.396 88.1126C65.396 88.1126 66.2155 91.2347 65.6501 94.1368C65.0843 97.0384 61.5352 115.687 61.5352 115.687C55.9424 116.816 47.341 114.551 47.341 114.551C50.903 108.248 51.7033 94.794 52.6173 92.0504Z" fill="url(#paint64_linear_53_531)"/>
<path d="M60.2029 61.2465L58.3774 69.4193C58.2028 70.1391 58.8612 70.0216 59.5913 69.8844C60.7874 69.6596 62.3287 69.1966 62.8441 68.2692C62.8966 68.1749 62.9226 68.0682 62.9377 67.961L63.7218 62.2936C63.7842 61.8441 63.5399 61.4076 63.1237 61.2237L61.61 60.5546C61.027 60.2973 60.3525 60.6287 60.2029 61.246V61.2465Z" fill="url(#paint65_linear_53_531)"/>
<path d="M63.7 53.7956C63.7 53.7956 65.6439 55.1068 66.479 58.446C67.314 61.7851 65.9567 62.9829 64.5657 62.9094C63.1746 62.8358 61.1569 62.407 59.4094 60.0114C57.6614 57.6158 61.1533 52.1928 63.7005 53.7951L63.7 53.7956Z" fill="url(#paint66_linear_53_531)"/>
<path d="M61.1715 58.6653C61.1715 58.6653 60.459 53.8803 64.4456 54.6125L65.2516 55.4488C65.2516 55.4488 67.2028 53.2588 65.0437 51.6038C62.8847 49.9487 59.8885 50.3723 58.2303 53.3857C56.5727 56.3991 55.971 58.5166 57.3605 60.3892C58.75 62.2618 59.795 60.6559 59.795 60.6559C59.795 60.6559 59.1579 59.035 59.6863 58.3395C60.2153 57.644 60.8971 58.744 60.8971 58.744L61.1715 58.6653Z" fill="url(#paint67_linear_53_531)"/>
<path d="M60.6269 59.0751C60.6269 59.0751 60.2751 56.6132 59.0139 57.3169C57.7523 58.0207 59.4686 59.6167 60.1566 60.1595L60.6269 59.0751Z" fill="url(#paint68_linear_53_531)"/>
<path d="M82.9918 53.9587C83.0188 54.2482 81.9395 54.4481 81.5961 53.2151C81.6906 52.6796 81.8579 50.3353 82.27 49.9712C84.4634 48.0313 88.3752 45.8496 88.3752 45.8496C88.8127 46.5151 88.239 46.9537 88.239 46.9537L86.2862 48.267C86.4899 48.9391 86.7872 49.5336 86.8209 50.3011C86.8464 50.8821 86.6308 51.4513 86.2436 51.8925C85.8549 52.3347 85.3317 52.9064 84.8604 53.3399C83.9676 54.1607 82.9918 53.9587 82.9918 53.9587Z" fill="url(#paint69_linear_53_531)"/>
<path d="M84.0523 53.0036L83.7541 52.8814C83.7936 52.7851 84.731 50.5158 85.1841 50.0441C85.3561 49.8649 85.4392 49.7116 85.432 49.5878C85.4283 49.521 85.3951 49.4547 85.3317 49.3874L83.752 50.2295L83.0541 51.3185L82.7824 51.145L83.5254 49.985L85.3758 48.999L85.4595 49.0669C85.6466 49.2196 85.7432 49.3833 85.7547 49.5681C85.7682 49.7882 85.6585 50.0166 85.4184 50.2667C85.0771 50.622 84.3174 52.363 84.0534 53.0041L84.0523 53.0036Z" fill="url(#paint70_linear_53_531)"/>
<path d="M59.6308 92.3587C59.6432 92.3592 59.6557 92.3597 59.6682 92.3597L75.9789 92.3421C76.3821 92.3421 76.7084 92.0189 76.7079 91.6217C76.7079 91.224 76.379 90.8957 75.9768 90.9024L59.6661 90.9201C59.2629 90.9201 58.9365 91.2432 58.937 91.6404C58.937 92.0257 59.2447 92.34 59.6302 92.3587H59.6308Z" fill="url(#paint71_linear_53_531)"/>
<path d="M90.6413 77.7564H77.0576C76.0558 77.7564 75.1433 78.3265 74.7162 79.2204L68.4364 92.3501H85.3171C85.963 92.3501 86.5429 91.9612 86.7804 91.3688L91.6499 79.2188C91.931 78.5166 91.4067 77.7559 90.6413 77.7559V77.7564Z" fill="url(#paint72_linear_53_531)"/>
<path d="M83.1032 85.1414C83.401 84.2406 83.188 83.3612 82.6273 83.177C82.0667 82.9929 81.3707 83.5738 81.0728 84.4745C80.775 85.3753 80.988 86.2547 81.5487 86.4389C82.1093 86.623 82.8053 86.0421 83.1032 85.1414Z" fill="#91B3FA"/>
<path d="M54.1299 72.5293C51.9044 74.7675 49.0807 84.6875 50.4816 86.3447C51.7152 88.2737 55.9149 90.8992 59.9145 90.9029H65.8149C63.3352 88.2773 61.6282 87.6114 59.5949 89.4477C57.9814 88.7605 55.8894 86.0992 54.4932 84.9113C53.9449 84.4447 53.8156 83.6487 54.1824 83.0304C55.2918 81.1589 56.6829 79.235 57.1251 77.3713C57.2202 75.1875 55.5984 72.6878 54.1299 72.5303V72.5293Z" fill="url(#paint73_linear_53_531)"/>
<path d="M83.4756 144.82C83.3171 144.811 83.1705 144.739 83.0666 144.619C81.5534 142.877 70.4754 129.187 82.7735 114.992C94.4481 101.518 99.9743 98.5162 100.18 91.0979C100.204 90.2316 101.354 89.9379 101.797 90.6842C105.101 96.2615 110.588 109.443 96.4731 119.422C80.9023 130.43 83.0479 141.057 84.0669 144.046C84.2015 144.441 83.8933 144.845 83.4756 144.82V144.82Z" fill="#7D97F4"/>
<path d="M85.5187 144.942C85.1441 144.92 84.8281 144.657 84.7434 144.292C84.1646 141.81 82.5007 132.5 89.2486 129.492C96.6768 126.182 103.376 132.806 108.57 126.839C108.843 126.525 109.358 126.742 109.319 127.156C109.038 130.09 107.319 136.968 97.5217 139.06C87.035 141.299 85.9344 142.6 86.2618 144.086C86.3626 144.545 85.989 144.97 85.5187 144.942V144.942Z" fill="#7D97F4"/>
<path d="M100.377 98.6314C100.289 99.1871 100.155 99.7127 99.9884 100.237C99.8252 100.76 99.6304 101.273 99.4137 101.777C98.986 102.787 98.4539 103.753 97.8615 104.679C96.6674 106.528 95.1792 108.184 93.5091 109.62C92.6761 110.334 91.7782 111 90.8865 111.607C90.0187 112.2 89.1899 112.852 88.4011 113.55C86.823 114.946 85.4169 116.535 84.1984 118.252C81.7722 121.689 80.1723 125.737 79.862 129.942C79.6999 132.04 79.8568 134.165 80.3011 136.235C80.7423 138.308 81.4963 140.314 82.4353 142.232C82.4857 142.334 82.4441 142.458 82.3412 142.509C82.2425 142.558 82.1235 142.519 82.0694 142.426C80.9985 140.541 80.1515 138.515 79.6074 136.398C79.3315 135.341 79.1335 134.262 79.0182 133.172C78.9096 132.082 78.8727 130.981 78.9288 129.884C79.0301 127.688 79.4853 125.511 80.2206 123.438C80.9585 121.364 81.9925 119.401 83.236 117.588C84.479 115.772 85.9557 114.121 87.5952 112.651C88.4167 111.918 89.2824 111.232 90.1923 110.605C91.084 110.003 91.9279 109.395 92.738 108.714C94.3566 107.369 95.8308 105.845 97.0696 104.139C97.6978 103.292 98.257 102.395 98.7594 101.465C99.2505 100.535 99.7015 99.5578 100.004 98.5599L100.008 98.547C100.038 98.4476 100.144 98.3911 100.244 98.4212C100.335 98.4486 100.39 98.5392 100.376 98.6309L100.377 98.6314Z" fill="#91B3FA"/>
<path d="M84.9503 143.273C84.9757 143.18 84.9591 143.096 84.9503 143.009L84.9227 142.752L84.8775 142.235C84.8521 141.89 84.8334 141.544 84.8224 141.199C84.8011 140.508 84.8084 139.815 84.8489 139.124C84.9342 137.743 85.1425 136.357 85.5993 135.031C86.0509 133.715 86.7877 132.435 87.9314 131.549C88.5014 131.113 89.1567 130.784 89.8468 130.59C90.5358 130.391 91.2539 130.315 91.9622 130.324C94.7443 130.436 97.4874 130.761 100.231 130.985C101.596 131.085 102.978 131.161 104.29 130.881C104.616 130.808 104.935 130.712 105.243 130.588C105.547 130.456 105.844 130.306 106.117 130.117C106.669 129.746 107.142 129.26 107.557 128.728L107.558 128.727C107.616 128.654 107.722 128.64 107.795 128.697C107.868 128.754 107.881 128.857 107.826 128.93C107.407 129.491 106.92 130.017 106.334 130.43C106.044 130.639 105.727 130.809 105.401 130.958C105.072 131.1 104.731 131.211 104.384 131.296C102.988 131.607 101.576 131.537 100.196 131.453C98.8114 131.361 97.4401 131.21 96.0662 131.093C94.697 130.974 93.3122 130.865 91.9528 130.808C91.283 130.794 90.6116 130.86 89.973 131.039C89.3328 131.212 88.7311 131.509 88.2021 131.905C87.1358 132.699 86.4089 133.891 85.9495 135.157C85.4839 136.429 85.2532 137.785 85.1441 139.145C85.0911 139.826 85.0719 140.51 85.0802 141.194C85.0849 141.536 85.0968 141.878 85.1155 142.22L85.1509 142.732L85.1732 142.987C85.182 143.072 85.1846 143.159 85.2324 143.236C85.2776 143.309 85.2553 143.405 85.1815 143.451C85.1077 143.496 85.0116 143.473 84.9659 143.4C84.9425 143.362 84.9373 143.318 84.9477 143.277L84.9487 143.274L84.9503 143.273Z" fill="#91B3FA"/>
</g>
<defs>
<linearGradient id="paint0_linear_53_531" x1="159.084" y1="168.541" x2="56.6809" y2="59.1578" gradientUnits="userSpaceOnUse">
<stop stop-color="#DAE3FE"/>
<stop offset="1" stop-color="#E9EFFD"/>
</linearGradient>
<linearGradient id="paint1_linear_53_531" x1="27.12" y1="109.471" x2="337.047" y2="-177.91" gradientUnits="userSpaceOnUse">
<stop stop-color="#4F52FF"/>
<stop offset="1" stop-color="#4042E2"/>
</linearGradient>
<linearGradient id="paint2_linear_53_531" x1="97.198" y1="21.5451" x2="97.8317" y2="31.3795" gradientUnits="userSpaceOnUse">
<stop stop-color="#C4421B"/>
<stop offset="1" stop-color="#5C0E16"/>
</linearGradient>
<linearGradient id="paint3_linear_53_531" x1="97.2489" y1="26.6831" x2="98.0643" y2="16.3353" gradientUnits="userSpaceOnUse">
<stop stop-color="#C4421B"/>
<stop offset="1" stop-color="#5C0E16"/>
</linearGradient>
<linearGradient id="paint4_linear_53_531" x1="100.153" y1="26.9118" x2="100.969" y2="16.5641" gradientUnits="userSpaceOnUse">
<stop stop-color="#C4421B"/>
<stop offset="1" stop-color="#5C0E16"/>
</linearGradient>
<linearGradient id="paint5_linear_53_531" x1="94.2781" y1="26.4493" x2="95.0931" y2="16.1016" gradientUnits="userSpaceOnUse">
<stop stop-color="#C4421B"/>
<stop offset="1" stop-color="#5C0E16"/>
</linearGradient>
<linearGradient id="paint6_linear_53_531" x1="97.3128" y1="16.7481" x2="98.6367" y2="27.0235" gradientUnits="userSpaceOnUse">
<stop stop-color="#090056"/>
<stop offset="1" stop-color="#020039"/>
</linearGradient>
<linearGradient id="paint7_linear_53_531" x1="120.388" y1="11.1893" x2="119.355" y2="27.9326" gradientUnits="userSpaceOnUse">
<stop stop-color="#09005D"/>
<stop offset="1" stop-color="#1A0F91"/>
</linearGradient>
<linearGradient id="paint8_linear_53_531" x1="116.749" y1="10.9641" x2="115.716" y2="27.7074" gradientUnits="userSpaceOnUse">
<stop stop-color="#09005D"/>
<stop offset="1" stop-color="#1A0F91"/>
</linearGradient>
<linearGradient id="paint9_linear_53_531" x1="124.578" y1="11.4473" x2="123.546" y2="28.1906" gradientUnits="userSpaceOnUse">
<stop stop-color="#09005D"/>
<stop offset="1" stop-color="#1A0F91"/>
</linearGradient>
<linearGradient id="paint10_linear_53_531" x1="117.35" y1="4.09247" x2="118.396" y2="10.9748" gradientUnits="userSpaceOnUse">
<stop stop-color="#FF928E"/>
<stop offset="1" stop-color="#FE7062"/>
</linearGradient>
<linearGradient id="paint11_linear_53_531" x1="117.691" y1="17.2371" x2="120.41" y2="8.52607" gradientUnits="userSpaceOnUse">
<stop stop-color="#FEBBBA"/>
<stop offset="1" stop-color="#FF928E"/>
</linearGradient>
<linearGradient id="paint12_linear_53_531" x1="121.731" y1="18.4979" x2="124.45" y2="9.78691" gradientUnits="userSpaceOnUse">
<stop stop-color="#FEBBBA"/>
<stop offset="1" stop-color="#FF928E"/>
</linearGradient>
<linearGradient id="paint13_linear_53_531" x1="122.241" y1="3.34855" x2="123.287" y2="10.2309" gradientUnits="userSpaceOnUse">
<stop stop-color="#FF928E"/>
<stop offset="1" stop-color="#FE7062"/>
</linearGradient>
<linearGradient id="paint14_linear_53_531" x1="111.815" y1="4.93386" x2="112.861" y2="11.8162" gradientUnits="userSpaceOnUse">
<stop stop-color="#FF928E"/>
<stop offset="1" stop-color="#FE7062"/>
</linearGradient>
<linearGradient id="paint15_linear_53_531" x1="119.897" y1="26.2655" x2="121.15" y2="17.8516" gradientUnits="userSpaceOnUse">
<stop stop-color="#FEBBBA"/>
<stop offset="1" stop-color="#FF928E"/>
</linearGradient>
<linearGradient id="paint16_linear_53_531" x1="119.286" y1="28.0842" x2="119.89" y2="24.0257" gradientUnits="userSpaceOnUse">
<stop stop-color="#09005D"/>
<stop offset="1" stop-color="#1A0F91"/>
</linearGradient>
<linearGradient id="paint17_linear_53_531" x1="113.889" y1="4.61831" x2="114.935" y2="11.5007" gradientUnits="userSpaceOnUse">
<stop stop-color="#FF928E"/>
<stop offset="1" stop-color="#FE7062"/>
</linearGradient>
<linearGradient id="paint18_linear_53_531" x1="120.031" y1="3.68541" x2="121.077" y2="10.5678" gradientUnits="userSpaceOnUse">
<stop stop-color="#FF928E"/>
<stop offset="1" stop-color="#FE7062"/>
</linearGradient>
<linearGradient id="paint19_linear_53_531" x1="119.542" y1="17.8146" x2="122.261" y2="9.10306" gradientUnits="userSpaceOnUse">
<stop stop-color="#FEBBBA"/>
<stop offset="1" stop-color="#FF928E"/>
</linearGradient>
<linearGradient id="paint20_linear_53_531" x1="116.747" y1="10.7679" x2="127.766" y2="28.3924" gradientUnits="userSpaceOnUse">
<stop stop-color="#09005D"/>
<stop offset="1" stop-color="#1A0F91"/>
</linearGradient>
<linearGradient id="paint21_linear_53_531" x1="103.494" y1="41.6438" x2="98.8769" y2="59.3229" gradientUnits="userSpaceOnUse">
<stop stop-color="#09005D"/>
<stop offset="1" stop-color="#1A0F91"/>
</linearGradient>
<linearGradient id="paint22_linear_53_531" x1="102.41" y1="41.3604" x2="97.7935" y2="59.039" gradientUnits="userSpaceOnUse">
<stop stop-color="#09005D"/>
<stop offset="1" stop-color="#1A0F91"/>
</linearGradient>
<linearGradient id="paint23_linear_53_531" x1="108.528" y1="42.9583" x2="103.912" y2="60.6369" gradientUnits="userSpaceOnUse">
<stop stop-color="#09005D"/>
<stop offset="1" stop-color="#1A0F91"/>
</linearGradient>
<linearGradient id="paint24_linear_53_531" x1="100.063" y1="46.5335" x2="104.432" y2="57.6026" gradientUnits="userSpaceOnUse">
<stop stop-color="#FEBBBA"/>
<stop offset="1" stop-color="#FF928E"/>
</linearGradient>
<linearGradient id="paint25_linear_53_531" x1="101.389" y1="53.7038" x2="104.404" y2="36.8771" gradientUnits="userSpaceOnUse">
<stop stop-color="#FEBBBA"/>
<stop offset="1" stop-color="#FF928E"/>
</linearGradient>
<linearGradient id="paint26_linear_53_531" x1="101.285" y1="46.1702" x2="102.917" y2="57.953" gradientUnits="userSpaceOnUse">
<stop stop-color="#FEBBBA"/>
<stop offset="1" stop-color="#FF928E"/>
</linearGradient>
<linearGradient id="paint27_linear_53_531" x1="98.3062" y1="39.4768" x2="111.427" y2="62.35" gradientUnits="userSpaceOnUse">
<stop stop-color="#09005D"/>
<stop offset="1" stop-color="#1A0F91"/>
</linearGradient>
<linearGradient id="paint28_linear_53_531" x1="101.026" y1="39.4723" x2="106.492" y2="49.0082" gradientUnits="userSpaceOnUse">
<stop stop-color="#09005D"/>
<stop offset="1" stop-color="#1A0F91"/>
</linearGradient>
<linearGradient id="paint29_linear_53_531" x1="102.468" y1="34.2599" x2="102.468" y2="45.573" gradientUnits="userSpaceOnUse">
<stop stop-color="#FF928E"/>
<stop offset="1" stop-color="#FE7062"/>
</linearGradient>
<linearGradient id="paint30_linear_53_531" x1="108.848" y1="34.2595" x2="108.848" y2="45.5726" gradientUnits="userSpaceOnUse">
<stop stop-color="#FF928E"/>
<stop offset="1" stop-color="#FE7062"/>
</linearGradient>
<linearGradient id="paint31_linear_53_531" x1="96.6425" y1="34.2592" x2="96.6425" y2="45.5723" gradientUnits="userSpaceOnUse">
<stop stop-color="#FF928E"/>
<stop offset="1" stop-color="#FE7062"/>
</linearGradient>
<linearGradient id="paint32_linear_53_531" x1="97.1065" y1="40.5828" x2="112.256" y2="62.1769" gradientUnits="userSpaceOnUse">
<stop stop-color="#09005D"/>
<stop offset="1" stop-color="#1A0F91"/>
</linearGradient>
<linearGradient id="paint33_linear_53_531" x1="132.518" y1="48.7601" x2="134.347" y2="48.7601" gradientUnits="userSpaceOnUse">
<stop stop-color="#4F52FF"/>
<stop offset="1" stop-color="#4042E2"/>
</linearGradient>
<linearGradient id="paint34_linear_53_531" x1="157.112" y1="-11.9246" x2="147.161" y2="7.78294" gradientUnits="userSpaceOnUse">
<stop stop-color="#FF928E"/>
<stop offset="1" stop-color="#FE7062"/>
</linearGradient>
<linearGradient id="paint35_linear_53_531" x1="119.246" y1="47.7887" x2="126.053" y2="47.7887" gradientUnits="userSpaceOnUse">
<stop stop-color="#4F52FF"/>
<stop offset="1" stop-color="#4042E2"/>
</linearGradient>
<linearGradient id="paint36_linear_53_531" x1="116.493" y1="48.5531" x2="120.013" y2="48.5531" gradientUnits="userSpaceOnUse">
<stop stop-color="#4F52FF"/>
<stop offset="1" stop-color="#4042E2"/>
</linearGradient>
<linearGradient id="paint37_linear_53_531" x1="126.713" y1="48.07" x2="133.094" y2="48.07" gradientUnits="userSpaceOnUse">
<stop stop-color="#4F52FF"/>
<stop offset="1" stop-color="#4042E2"/>
</linearGradient>
<linearGradient id="paint38_linear_53_531" x1="128.84" y1="34.4039" x2="125.398" y2="50.3479" gradientUnits="userSpaceOnUse">
<stop stop-color="#FEBBBA"/>
<stop offset="1" stop-color="#FF928E"/>
</linearGradient>
<linearGradient id="paint39_linear_53_531" x1="126.758" y1="39.5475" x2="128.965" y2="28.9647" gradientUnits="userSpaceOnUse">
<stop stop-color="#FEBBBA"/>
<stop offset="1" stop-color="#FF928E"/>
</linearGradient>
<linearGradient id="paint40_linear_53_531" x1="129.332" y1="40.0838" x2="131.539" y2="29.5004" gradientUnits="userSpaceOnUse">
<stop stop-color="#FEBBBA"/>
<stop offset="1" stop-color="#FF928E"/>
</linearGradient>
<linearGradient id="paint41_linear_53_531" x1="124.537" y1="39.084" x2="126.743" y2="28.5007" gradientUnits="userSpaceOnUse">
<stop stop-color="#FEBBBA"/>
<stop offset="1" stop-color="#FF928E"/>
</linearGradient>
<linearGradient id="paint42_linear_53_531" x1="127.029" y1="34.512" x2="128.059" y2="42.4988" gradientUnits="userSpaceOnUse">
<stop stop-color="#090056"/>
<stop offset="1" stop-color="#020039"/>
</linearGradient>
<linearGradient id="paint43_linear_53_531" x1="124.136" y1="43.0937" x2="123.552" y2="52.4133" gradientUnits="userSpaceOnUse">
<stop stop-color="#4F52FF"/>
<stop offset="1" stop-color="#4042E2"/>
</linearGradient>
<linearGradient id="paint44_linear_53_531" x1="129.249" y1="43.5522" x2="128.683" y2="52.5771" gradientUnits="userSpaceOnUse">
<stop stop-color="#4F52FF"/>
<stop offset="1" stop-color="#4042E2"/>
</linearGradient>
<linearGradient id="paint45_linear_53_531" x1="81.3986" y1="-50.1546" x2="71.4474" y2="-30.4465" gradientUnits="userSpaceOnUse">
<stop stop-color="#FF928E"/>
<stop offset="1" stop-color="#FE7062"/>
</linearGradient>
<linearGradient id="paint46_linear_53_531" x1="81.3987" y1="-50.1542" x2="71.4475" y2="-30.4461" gradientUnits="userSpaceOnUse">
<stop stop-color="#FF928E"/>
<stop offset="1" stop-color="#FE7062"/>
</linearGradient>
<linearGradient id="paint47_linear_53_531" x1="80.6882" y1="-50.5129" x2="70.7371" y2="-30.8054" gradientUnits="userSpaceOnUse">
<stop stop-color="#FF928E"/>
<stop offset="1" stop-color="#FE7062"/>
</linearGradient>
<linearGradient id="paint48_linear_53_531" x1="82.4098" y1="-49.6436" x2="72.4586" y2="-29.9355" gradientUnits="userSpaceOnUse">
<stop stop-color="#FF928E"/>
<stop offset="1" stop-color="#FE7062"/>
</linearGradient>
<linearGradient id="paint49_linear_53_531" x1="87.3016" y1="-47.1748" x2="77.3504" y2="-27.4672" gradientUnits="userSpaceOnUse">
<stop stop-color="#FF928E"/>
<stop offset="1" stop-color="#FE7062"/>
</linearGradient>
<linearGradient id="paint50_linear_53_531" x1="87.3014" y1="-47.1742" x2="77.3502" y2="-27.4666" gradientUnits="userSpaceOnUse">
<stop stop-color="#FF928E"/>
<stop offset="1" stop-color="#FE7062"/>
</linearGradient>
<linearGradient id="paint51_linear_53_531" x1="86.5912" y1="-47.5337" x2="76.6401" y2="-27.8256" gradientUnits="userSpaceOnUse">
<stop stop-color="#FF928E"/>
<stop offset="1" stop-color="#FE7062"/>
</linearGradient>
<linearGradient id="paint52_linear_53_531" x1="88.3128" y1="-46.6638" x2="78.3616" y2="-26.9562" gradientUnits="userSpaceOnUse">
<stop stop-color="#FF928E"/>
<stop offset="1" stop-color="#FE7062"/>
</linearGradient>
<linearGradient id="paint53_linear_53_531" x1="96.2408" y1="-42.6556" x2="86.2897" y2="-22.948" gradientUnits="userSpaceOnUse">
<stop stop-color="#FF928E"/>
<stop offset="1" stop-color="#FE7062"/>
</linearGradient>
<linearGradient id="paint54_linear_53_531" x1="96.2429" y1="-42.6594" x2="86.2917" y2="-22.9518" gradientUnits="userSpaceOnUse">
<stop stop-color="#FF928E"/>
<stop offset="1" stop-color="#FE7062"/>
</linearGradient>
<linearGradient id="paint55_linear_53_531" x1="95.5326" y1="-43.0191" x2="85.5814" y2="-23.3111" gradientUnits="userSpaceOnUse">
<stop stop-color="#FF928E"/>
<stop offset="1" stop-color="#FE7062"/>
</linearGradient>
<linearGradient id="paint56_linear_53_531" x1="97.2541" y1="-42.1493" x2="87.3029" y2="-22.4417" gradientUnits="userSpaceOnUse">
<stop stop-color="#FF928E"/>
<stop offset="1" stop-color="#FE7062"/>
</linearGradient>
<linearGradient id="paint57_linear_53_531" x1="62.3562" y1="46.3022" x2="56.4141" y2="61.2584" gradientUnits="userSpaceOnUse">
<stop stop-color="#09005D"/>
<stop offset="1" stop-color="#1A0F91"/>
</linearGradient>
<linearGradient id="paint58_linear_53_531" x1="76.4023" y1="57.6961" x2="60.3878" y2="79.9067" gradientUnits="userSpaceOnUse">
<stop stop-color="#FEBBBA"/>
<stop offset="1" stop-color="#FF928E"/>
</linearGradient>
<linearGradient id="paint59_linear_53_531" x1="40.5057" y1="141.965" x2="35.4378" y2="141.965" gradientUnits="userSpaceOnUse">
<stop stop-color="#09005D"/>
<stop offset="1" stop-color="#1A0F91"/>
</linearGradient>
<linearGradient id="paint60_linear_53_531" x1="61.9228" y1="161.884" x2="54.6781" y2="76.9244" gradientUnits="userSpaceOnUse">
<stop stop-color="#FEBBBA"/>
<stop offset="1" stop-color="#FF928E"/>
</linearGradient>
<linearGradient id="paint61_linear_53_531" x1="64.0533" y1="141.043" x2="55.8525" y2="141.043" gradientUnits="userSpaceOnUse">
<stop stop-color="#09005D"/>
<stop offset="1" stop-color="#1A0F91"/>
</linearGradient>
<linearGradient id="paint62_linear_53_531" x1="47.2505" y1="163.147" x2="40.0043" y2="78.1655" gradientUnits="userSpaceOnUse">
<stop stop-color="#FEBBBA"/>
<stop offset="1" stop-color="#FF928E"/>
</linearGradient>
<linearGradient id="paint63_linear_53_531" x1="-239.512" y1="-515.742" x2="-229.561" y2="-496.034" gradientUnits="userSpaceOnUse">
<stop stop-color="#FF928E"/>
<stop offset="1" stop-color="#FE7062"/>
</linearGradient>
<linearGradient id="paint64_linear_53_531" x1="41.6526" y1="77.8663" x2="59.7984" y2="106.999" gradientUnits="userSpaceOnUse">
<stop stop-color="#4F52FF"/>
<stop offset="1" stop-color="#4042E2"/>
</linearGradient>
<linearGradient id="paint65_linear_53_531" x1="62.7225" y1="78.1431" x2="61.3615" y2="68.1524" gradientUnits="userSpaceOnUse">
<stop stop-color="#FEBBBA"/>
<stop offset="1" stop-color="#FF928E"/>
</linearGradient>
<linearGradient id="paint66_linear_53_531" x1="65.1749" y1="66.103" x2="57.6272" y2="42.9743" gradientUnits="userSpaceOnUse">
<stop stop-color="#FEBBBA"/>
<stop offset="1" stop-color="#FF928E"/>
</linearGradient>
<linearGradient id="paint67_linear_53_531" x1="66.2519" y1="47.4931" x2="57.5178" y2="61.0214" gradientUnits="userSpaceOnUse">
<stop stop-color="#09005D"/>
<stop offset="1" stop-color="#1A0F91"/>
</linearGradient>
<linearGradient id="paint68_linear_53_531" x1="62.401" y1="67.0089" x2="54.8532" y2="43.8807" gradientUnits="userSpaceOnUse">
<stop stop-color="#FEBBBA"/>
<stop offset="1" stop-color="#FF928E"/>
</linearGradient>
<linearGradient id="paint69_linear_53_531" x1="78.3337" y1="59.0887" x2="62.3187" y2="81.2992" gradientUnits="userSpaceOnUse">
<stop stop-color="#FEBBBA"/>
<stop offset="1" stop-color="#FF928E"/>
</linearGradient>
<linearGradient id="paint70_linear_53_531" x1="82.7818" y1="51.0016" x2="85.7552" y2="51.0016" gradientUnits="userSpaceOnUse">
<stop stop-color="#FEBBBA"/>
<stop offset="1" stop-color="#FF928E"/>
</linearGradient>
<linearGradient id="paint71_linear_53_531" x1="56.8623" y1="88.04" x2="69.7998" y2="92.2971" gradientUnits="userSpaceOnUse">
<stop stop-color="#09005D"/>
<stop offset="1" stop-color="#1A0F91"/>
</linearGradient>
<linearGradient id="paint72_linear_53_531" x1="74.6845" y1="79.6916" x2="83.9197" y2="89.4863" gradientUnits="userSpaceOnUse">
<stop stop-color="#09005D"/>
<stop offset="1" stop-color="#1A0F91"/>
</linearGradient>
<linearGradient id="paint73_linear_53_531" x1="37.5511" y1="91.0634" x2="66.1769" y2="79.0473" gradientUnits="userSpaceOnUse">
<stop stop-color="#FEBBBA"/>
<stop offset="1" stop-color="#FF928E"/>
</linearGradient>
<clipPath id="clip0_53_531">
<rect width="145.763" height="145" fill="white"/>
</clipPath>
</defs>
</svg>
