<svg width="14" height="14" viewBox="0 0 14 14" fill="none" xmlns="http://www.w3.org/2000/svg">
<path d="M4.43232 13.5918C4.14782 13.5162 3.89444 13.3917 3.70774 13.1561C3.40991 12.7783 3.37435 12.2537 3.62328 11.8403C3.87222 11.4269 4.35675 11.2091 4.82795 11.298C5.29025 11.3869 5.6681 11.7648 5.75256 12.2271C5.85925 12.8094 5.50807 13.3784 4.93463 13.5473C4.89463 13.5606 4.85017 13.5784 4.81016 13.5918H4.43232Z" fill="#144973"/>
<path d="M11.3623 13.5918C11.0778 13.5162 10.8244 13.3917 10.6377 13.1561C10.3398 12.7783 10.3043 12.2537 10.5532 11.8403C10.8021 11.4269 11.2867 11.2091 11.7579 11.298C12.2202 11.3869 12.598 11.7648 12.6825 12.2271C12.7892 12.8094 12.438 13.3784 11.8646 13.5473C11.8246 13.5606 11.7801 13.5784 11.7401 13.5918H11.3623Z" fill="#144973"/>
<path d="M8.57959 10.7069C7.46827 10.7069 6.36141 10.7069 5.25009 10.7069C4.49884 10.7069 3.91651 10.249 3.74759 9.53331C3.68981 9.28438 3.71203 9.04433 3.76982 8.79984C3.8365 8.50645 3.91207 8.21307 3.94319 7.91524C3.96097 7.74187 3.91207 7.55517 3.85873 7.38625C3.24528 5.52813 2.62295 3.67446 2.00505 1.81634C1.91615 1.54963 1.80057 1.46517 1.51608 1.46517C1.20491 1.46517 0.89374 1.46517 0.582572 1.46517C0.258069 1.46517 0.00468861 1.22068 0.000243357 0.913957C-0.00864716 0.585008 0.226952 0.313848 0.560347 0.309402C1.14712 0.300512 1.73389 0.300512 2.32067 0.309402C2.58738 0.309402 2.77853 0.469431 2.86743 0.736147C3.03635 1.23846 3.20527 1.74077 3.37419 2.24309C3.47643 2.54537 3.57423 2.61649 3.89873 2.61649C6.92151 2.61649 9.93984 2.61649 12.9626 2.61649C13.0604 2.61649 13.1626 2.61649 13.256 2.64316C13.5805 2.73651 13.7361 3.06546 13.625 3.41219C13.3582 4.22567 13.0871 5.03471 12.8159 5.84375C12.5848 6.53276 12.3536 7.22622 12.1225 7.91524C12.0069 8.25308 11.8291 8.38643 11.4734 8.38643C9.47308 8.38643 7.46827 8.38643 5.46791 8.38643C5.15674 8.38643 5.0545 8.46645 4.97893 8.77317C4.94781 8.89764 4.91225 9.02655 4.88558 9.15102C4.84113 9.34216 4.9567 9.50219 5.1523 9.52886C5.21453 9.53775 5.27676 9.53776 5.34344 9.53776C7.57051 9.53776 9.79759 9.53776 12.0291 9.53776C12.1847 9.53776 12.3358 9.55109 12.4692 9.64444C12.6648 9.78224 12.7581 10.0312 12.6959 10.2668C12.6381 10.4935 12.4425 10.6668 12.2069 10.6891C12.1402 10.698 12.0736 10.698 12.0024 10.698C10.8644 10.698 9.73091 10.698 8.59292 10.698L8.57959 10.7069Z" fill="#144973"/>
</svg>
