<svg width="13" height="12" viewBox="0 0 13 12" fill="none" xmlns="http://www.w3.org/2000/svg">
<path d="M0 4.65675C0.0674094 4.37617 0.184104 4.12496 0.420355 3.93874C0.621948 3.78002 0.850567 3.69566 1.10749 3.68566C1.20033 3.68191 1.2935 3.68441 1.38666 3.68441C4.85539 3.68441 8.32411 3.68472 11.7928 3.6841C12.2863 3.6841 12.6628 3.88344 12.8781 4.32274C12.9506 4.47084 12.9909 4.64862 12.9925 4.81328C13.0027 5.80655 13.0008 6.80014 12.9967 7.79372C12.9938 8.43205 12.4952 8.92103 11.8434 8.92134C8.2815 8.92353 4.71961 8.92321 1.15804 8.92134C0.59651 8.92134 0.154851 8.56921 0.0248016 8.03212C0.0181242 8.00431 0.00826719 7.97713 0 7.94963C0 6.852 0 5.75437 0 4.65675H0ZM3.42771 6.21836C3.28526 5.93934 3.15457 5.6847 3.02516 5.42943C2.96792 5.31664 2.88843 5.23071 2.75711 5.20259C2.56188 5.16104 2.40925 5.23352 2.31005 5.42318C2.17618 5.6797 2.04677 5.93841 1.90654 6.21273C1.87602 6.15837 1.85503 6.124 1.83691 6.08838C1.72371 5.86592 1.61846 5.63877 1.49414 5.42256C1.44517 5.33757 1.36504 5.25352 1.27792 5.21009C1.1237 5.13354 0.979663 5.20228 0.863604 5.31101C0.751361 5.41631 0.728467 5.54972 0.791743 5.68845C0.859152 5.83592 0.936419 5.97902 1.00987 6.12369C1.18857 6.47613 1.366 6.82951 1.54756 7.1807C1.66234 7.40285 1.8757 7.48783 2.0703 7.37566C2.1517 7.3288 2.22133 7.24319 2.26744 7.15976C2.40416 6.91418 2.52626 6.66078 2.66299 6.39364C2.69288 6.44645 2.71387 6.48081 2.73231 6.51643C2.84964 6.74608 2.96125 6.97886 3.08462 7.20569C3.23724 7.4869 3.55776 7.49939 3.73677 7.23319C3.80164 7.13664 3.85665 7.03291 3.91007 6.92949C4.13487 6.49581 4.35713 6.0612 4.57557 5.63689C4.83122 6.14337 5.0891 6.65172 5.34442 7.16132C5.41756 7.30755 5.52535 7.39785 5.69673 7.40347C5.87289 7.4091 5.99149 7.32661 6.07384 7.17851C6.20167 6.94917 6.33331 6.72202 6.46431 6.49425C6.48148 6.46425 6.50279 6.43676 6.52918 6.39739C6.6659 6.66485 6.78673 6.92074 6.92791 7.1657C6.98037 7.25693 7.06718 7.34942 7.16162 7.39316C7.34922 7.48033 7.53746 7.38566 7.64588 7.17382C7.90662 6.66578 8.16449 6.15681 8.4265 5.64189C8.4513 5.68814 8.47324 5.72719 8.49359 5.7675C8.72475 6.22398 8.96355 6.67734 9.18263 7.13945C9.25513 7.29224 9.34861 7.3866 9.51522 7.40222C9.69583 7.41878 9.83923 7.35348 9.92381 7.19007C10.0386 6.96823 10.1496 6.74483 10.2631 6.52237C10.2828 6.48394 10.3066 6.44769 10.3356 6.39864C10.3648 6.45332 10.3868 6.49269 10.4074 6.53299C10.521 6.75546 10.6284 6.98104 10.7483 7.20007C10.9073 7.49096 11.2726 7.50564 11.4272 7.21788C11.6968 6.71546 11.9515 6.20555 12.204 5.69438C12.2955 5.50879 12.21 5.31788 12.0189 5.22696C11.825 5.13479 11.6326 5.18572 11.5305 5.37194C11.4024 5.60534 11.2869 5.84561 11.1655 6.08276C11.1458 6.1215 11.1219 6.15806 11.0914 6.21086C10.9524 5.93903 10.8218 5.6847 10.6927 5.42912C10.6125 5.27071 10.4853 5.19384 10.3051 5.20353C10.1454 5.21228 10.0408 5.29633 9.97151 5.43412C9.84369 5.68876 9.71205 5.94184 9.57373 6.21211C9.54352 6.15868 9.52254 6.124 9.50441 6.08838C9.3909 5.86592 9.28183 5.64158 9.1645 5.42099C9.03191 5.17135 8.74638 5.10323 8.55273 5.27695C8.49295 5.33038 8.45734 5.40974 8.41251 5.47442C8.36831 5.30632 8.25416 5.20165 8.07006 5.18697C7.89295 5.17291 7.77562 5.26821 7.69644 5.41474C7.64493 5.51004 7.59787 5.60721 7.54859 5.70376C7.46496 5.86842 7.38102 6.03308 7.2869 6.21836C7.14254 5.93497 7.01185 5.67564 6.87894 5.41756C6.80231 5.26883 6.67322 5.20447 6.50724 5.20259C6.33681 5.20072 6.20199 5.26258 6.12186 5.41599C6.02011 5.61159 5.92122 5.80874 5.82106 6.00527C5.78831 6.06963 5.75524 6.13368 5.71931 6.20336C5.70087 6.18399 5.69355 6.1793 5.69006 6.17243C5.56891 5.93528 5.45031 5.69657 5.32566 5.4613C5.2891 5.39256 5.24395 5.32351 5.18671 5.27133C5.09482 5.18728 4.97971 5.16604 4.85602 5.19947C4.70181 5.24102 4.61627 5.34569 4.58352 5.49067C4.53869 5.42068 4.50753 5.34476 4.45284 5.29226C4.25983 5.10698 3.96666 5.17135 3.83248 5.42599C3.69893 5.6797 3.57111 5.93653 3.42771 6.21805V6.21836Z" fill="#144973"/>
<path d="M1.93164 2.9228C3.00161 1.60208 4.3711 0.868142 6.06905 0.735352C6.01309 0.750349 5.95745 0.765347 5.90148 0.780657C5.28431 0.947191 4.8029 1.31432 4.42961 1.80673C4.18413 2.13074 3.99526 2.49599 3.7765 2.84C3.75042 2.88093 3.69478 2.93029 3.65249 2.93092C3.09827 2.93686 2.54437 2.93467 1.99015 2.93436C1.9787 2.93436 1.96694 2.92998 1.93164 2.92248V2.9228Z" fill="#144973"/>
<path d="M11.0771 2.93486C10.5948 2.93486 10.1474 2.9358 9.69999 2.93424C9.55691 2.93392 9.38616 2.97392 9.27932 2.91111C9.17789 2.85175 9.14673 2.68022 9.07963 2.56086C8.69553 1.87691 8.22462 1.27202 7.48597 0.923637C7.3095 0.840526 7.11777 0.78866 6.93652 0.716797C8.62748 0.867084 9.99634 1.60196 11.0771 2.93517V2.93486Z" fill="#144973"/>
<path d="M6.07023 11.8723C4.37005 11.7374 3.00087 11.004 1.93091 9.6827C1.97638 9.67739 2.00309 9.67177 2.02948 9.67145C2.56239 9.67083 3.09563 9.67302 3.62855 9.66896C3.70963 9.66833 3.74842 9.69708 3.78022 9.7655C4.00438 10.2439 4.2877 10.6835 4.66036 11.0656C5.03715 11.4521 5.47467 11.7355 6.01331 11.8514C6.03271 11.8555 6.05115 11.8648 6.06991 11.8717L6.07023 11.8723Z" fill="#144973"/>
<path d="M6.92896 11.8736C7.0447 11.8392 7.16203 11.8095 7.27586 11.7695C7.81037 11.5815 8.2374 11.2424 8.56809 10.8016C8.80974 10.4795 9.00434 10.1229 9.21197 9.77707C9.25522 9.70489 9.29051 9.66803 9.38209 9.66896C9.93535 9.67396 10.4889 9.67146 11.0769 9.67146C10.0009 11.0028 8.63136 11.7364 6.92896 11.8739V11.8736Z" fill="#144973"/>
<path d="M6.08947 1.50195V2.92578H4.59692C4.81441 2.39711 5.46434 1.63943 6.08947 1.50195Z" fill="#144973"/>
<path d="M6.91357 1.49023C7.64808 1.743 8.06335 2.29416 8.42456 2.92687H6.91357V1.49023Z" fill="#144973"/>
<path d="M4.573 9.67773H6.08653V11.1147C5.35043 10.8678 4.9358 10.3126 4.573 9.67773Z" fill="#144973"/>
<path d="M6.90991 11.0998V9.68164H8.39833C8.19451 10.2097 7.5007 10.9955 6.90991 11.0998Z" fill="#144973"/>
</svg>
