<svg width="53" height="52" viewBox="0 0 53 52" fill="none" xmlns="http://www.w3.org/2000/svg">
<g clip-path="url(#clip0_486_3509)">
<path d="M53.0001 9.38245V40.7721C52.9682 40.8101 52.9299 40.848 52.9172 40.8922C52.2664 43.3579 50.5757 44.6603 48.0172 44.6603C43.449 44.6603 38.8744 44.6603 34.3062 44.6603C34.1021 44.6603 33.9043 44.6603 33.6682 44.6603C33.5406 46.2661 33.6363 47.8024 33.9043 49.3387C33.9872 49.8255 34.1786 49.9266 34.638 49.9203C36.3288 49.895 38.0195 49.914 39.7102 49.9077C40.1888 49.9077 40.5971 50.0404 40.8332 50.4893C41.2223 51.229 40.6928 51.975 39.7613 51.9877C37.8664 52.0003 35.9651 51.9877 34.0702 51.9877C27.1732 51.9877 20.2699 51.9877 13.3729 51.9877C12.5371 51.9877 12.0395 51.5957 12.0459 50.9508C12.0459 50.3123 12.5563 49.9077 13.3793 49.9077C14.3108 49.9077 15.2423 49.9077 16.1738 49.9077C17.0862 49.9077 17.9922 49.9077 18.9109 49.9077C19.2937 48.1501 19.3703 46.4305 19.2235 44.6539C18.9683 44.6539 18.7578 44.6539 18.5536 44.6539C13.9153 44.6539 9.27688 44.6666 4.63212 44.6539C2.09281 44.6413 0.00650137 42.5803 0.00650137 40.083C0.000121209 30.3848 0.000121208 20.6739 0.0192617 10.963C0.0192617 10.3497 0.172386 9.69224 0.427592 9.13589C1.30805 7.2582 2.84567 6.37941 4.93199 6.37941C10.1573 6.38574 15.3827 6.37941 20.608 6.39206C20.9653 6.39206 21.1567 6.28458 21.3354 5.97479C22.0691 4.67875 22.8028 3.3827 23.594 2.12458C24.7679 0.27218 27.0839 -0.473838 29.1192 0.284824C31.1736 1.04981 32.3986 3.07923 32.0987 5.24774C32.0477 5.61443 31.9583 5.97479 31.8754 6.37941C33.2089 6.37941 34.4977 6.37941 35.7928 6.37941C40.227 6.37941 44.6612 6.37941 49.0891 6.37941C51.0478 6.37941 52.3621 7.372 52.9044 9.19911C52.9236 9.26233 52.9682 9.31291 53.0065 9.36981L53.0001 9.38245ZM17.6859 27.3438C17.6987 27.3754 17.7178 27.4133 17.7306 27.4449H18.2984C25.1826 27.4449 32.0604 27.4449 38.9446 27.4449C39.1169 27.4449 39.2892 27.4323 39.4614 27.4449C39.9399 27.4892 40.2526 27.7421 40.3929 28.2036C40.6098 28.937 40.0739 29.4933 39.1297 29.4933C30.7142 29.4933 22.2924 29.4933 13.877 29.4933C12.9008 29.4933 12.5435 29.133 12.5435 28.153C12.5435 25.9972 12.5244 23.8476 12.5563 21.6918C12.5563 21.2871 12.6775 20.8383 12.8817 20.4905C15.0828 16.6656 17.3159 12.8597 19.5362 9.04738C19.6383 8.87668 19.7276 8.69333 19.8616 8.44677C19.6255 8.44677 19.4596 8.44677 19.2937 8.44677C14.515 8.44677 9.73625 8.44677 4.95751 8.44677C3.13278 8.44677 2.06729 9.50257 2.06729 11.3107C2.06729 19.1376 2.06729 26.9645 2.06729 34.7976V35.335H50.9329C50.9329 35.1707 50.9329 35.0569 50.9329 34.9367C50.9329 26.7179 50.9329 18.4927 50.9329 10.2739C50.9329 9.09795 50.2566 8.45309 49.0572 8.45309C43.1045 8.45309 37.1582 8.45309 31.2055 8.44045C30.7908 8.44045 30.5675 8.56689 30.3633 8.92726C27.2434 14.3138 24.1107 19.6939 20.9589 25.0678C20.7548 25.4155 20.423 25.7316 20.0785 25.9529C19.3065 26.4524 18.4898 26.8823 17.6923 27.3438H17.6859ZM50.9202 37.5099H2.07367C2.07367 38.4139 2.04177 39.2864 2.08005 40.1525C2.11195 40.8796 2.43734 41.4992 3.00518 41.9797C3.60491 42.4918 4.31311 42.6119 5.07873 42.6119C19.3575 42.6119 33.6427 42.6119 47.9215 42.6119C48.0619 42.6119 48.1959 42.6119 48.3362 42.6119C49.7462 42.5297 50.8053 41.5814 50.9074 40.2094C50.9712 39.3307 50.9202 38.4392 50.9202 37.5162V37.5099ZM19.4851 23.4809C22.3307 18.6002 25.1316 13.7827 27.958 8.9399C26.465 8.0864 25.004 7.25188 23.5046 6.39206C20.6782 11.2412 17.8646 16.0713 15.0318 20.9331C16.5247 21.7866 17.9858 22.6211 19.4851 23.4809ZM31.4288 44.6982H21.4438C21.3481 46.4494 21.2524 48.1564 21.1567 49.8887H31.7733C31.6585 48.1564 31.5436 46.4494 31.4288 44.6982ZM24.5446 4.59023C26.0631 5.45637 27.5178 6.2909 29.0107 7.1444C29.3233 6.58805 29.6551 6.08859 29.8848 5.54489C30.3761 4.3816 29.8784 3.02865 28.7746 2.40908C27.6517 1.77686 26.2226 2.05504 25.457 3.0982C25.1252 3.54707 24.87 4.05285 24.5446 4.59023ZM14.6873 26.661C15.7464 26.0541 16.7225 25.4977 17.7753 24.8908C16.7225 24.2902 15.7336 23.7275 14.6873 23.1269V26.661Z" fill="#F83636"/>
<path d="M34.0064 23.3163C32.2837 23.3163 30.5611 23.3163 28.8321 23.3163C28.143 23.3163 27.6836 22.9306 27.639 22.3553C27.6007 21.8242 27.9261 21.3817 28.4556 21.2742C28.6726 21.23 28.9023 21.2236 29.1256 21.2236C32.3986 21.2236 35.678 21.2236 38.951 21.2236C39.9272 21.2236 40.4376 21.584 40.444 22.2605C40.444 22.9369 39.9208 23.3163 38.9638 23.3163C37.3113 23.3163 35.6525 23.3163 34 23.3163H34.0064Z" fill="#F83636"/>
</g>
<defs>
<clipPath id="clip0_486_3509">
<rect width="53" height="52" fill="white"/>
</clipPath>
</defs>
</svg>
