<svg width="13" height="14" viewBox="0 0 13 14" fill="none" xmlns="http://www.w3.org/2000/svg">
<path d="M6.82694 0.411133C6.94583 0.433996 7.06566 0.453726 7.18359 0.480347C8.6529 0.811074 9.5176 1.72652 9.84652 3.15184C10.0613 4.08264 9.89687 4.97303 9.5313 5.84119C9.07202 6.93139 8.43553 7.91919 7.72606 8.86408C7.43729 9.24867 7.12941 9.61917 6.82375 9.99124C6.62678 10.2308 6.37053 10.2274 6.16973 9.99218C5.25659 8.92264 4.43333 7.79235 3.78887 6.54429C3.45708 5.90195 3.17438 5.23799 3.08577 4.5164C2.92641 3.21855 3.35605 1.64948 4.75684 0.857739C5.1613 0.629112 5.59508 0.488177 6.05882 0.435562C6.08686 0.43243 6.11364 0.419589 6.14137 0.411446C6.36989 0.411446 6.59874 0.411446 6.82726 0.411446L6.82694 0.411133ZM6.49898 4.90757C7.13387 4.90663 7.64224 4.40585 7.64096 3.78292C7.63969 3.17032 7.12909 2.67016 6.50057 2.66546C5.87269 2.66076 5.35221 3.16907 5.35189 3.7873C5.35189 4.40804 5.86376 4.90851 6.49866 4.90757H6.49898Z" fill="#144973"/>
<path d="M12.9997 12.9141C12.9057 13.1215 12.7444 13.1926 12.5143 13.1916C10.9522 13.185 9.39015 13.1882 7.82809 13.1882H7.69295C7.6904 13.18 7.68785 13.1719 7.6853 13.1637C9.17916 12.4027 10.673 11.642 12.1812 10.874C12.2013 10.9151 12.222 10.9533 12.2392 10.9924C12.4856 11.5568 12.7313 12.1211 12.9777 12.6855C12.9825 12.6965 12.9927 12.7049 13 12.7146V12.9141H12.9997Z" fill="#144973"/>
<path d="M4.31873 10.1377C4.5498 10.0215 4.77067 9.9106 5.0027 9.79378C5.11617 9.93252 5.22644 10.0731 5.34278 10.2081C5.47664 10.3632 5.60062 10.5313 5.75616 10.6629C6.24604 11.0779 6.95679 11.0177 7.37687 10.5313C8.24921 9.52193 9.02945 8.44832 9.67932 7.2864C9.72012 7.21342 9.76347 7.17459 9.85494 7.18023C9.99836 7.189 10.1424 7.18117 10.2865 7.18336C10.4666 7.18586 10.6068 7.25727 10.6804 7.42577C11.0807 8.33996 11.4795 9.25447 11.8823 10.1768C11.8492 10.1972 11.8192 10.2185 11.787 10.2351C10.2014 11.0431 8.61574 11.8505 7.03009 12.6585C6.97209 12.688 6.92874 12.7133 6.865 12.6504C6.02899 11.8257 5.18916 11.0043 4.3506 10.1821C4.34199 10.1737 4.33626 10.1624 4.31873 10.138V10.1377Z" fill="#144973"/>
<path d="M6.20518 13.1097C6.07355 13.136 5.94223 13.1846 5.8106 13.1849C4.02033 13.1899 2.23039 13.1821 0.44044 13.1943C0.144665 13.1962 -0.100115 12.9494 0.0410795 12.6017C0.160919 12.3064 0.337493 12.12 0.631993 11.9794C1.59677 11.5187 2.54656 11.0273 3.50114 10.5463C3.56233 10.5156 3.60377 10.5009 3.66433 10.5607C4.4946 11.3797 5.32805 12.1952 6.16088 13.0117C6.17554 13.0261 6.18797 13.0424 6.20167 13.0577C6.20295 13.0749 6.20423 13.0925 6.20582 13.1097H6.20518Z" fill="#144973"/>
<path d="M4.50953 9.20389C3.26587 9.82776 2.00278 10.4617 0.709717 11.1106C0.735533 11.0426 0.749232 11.0022 0.766443 10.9631C1.27257 9.80427 1.78158 8.64673 2.28389 7.48637C2.37568 7.27434 2.52261 7.17537 2.75336 7.18195C2.89296 7.18571 3.03289 7.1785 3.17217 7.18539C3.21105 7.18727 3.26523 7.21045 3.28435 7.24083C3.69296 7.89038 4.09774 8.54212 4.50985 9.20389H4.50953Z" fill="#144973"/>
<path d="M6.11555 3.79444C6.11332 3.58366 6.28575 3.40984 6.49674 3.41016C6.70264 3.41016 6.8757 3.57928 6.87762 3.78254C6.87985 3.9955 6.71093 4.16431 6.49643 4.16431C6.28766 4.16431 6.11747 3.99926 6.11523 3.79475L6.11555 3.79444Z" fill="#144973"/>
</svg>
