<svg width="15" height="16" viewBox="0 0 15 16" fill="none" xmlns="http://www.w3.org/2000/svg">
<path d="M14.6739 0.450195C14.9156 0.557617 15.0066 0.738937 14.9996 1.00028C14.9861 1.52297 14.9963 2.04602 14.9952 2.56908C14.9945 2.86899 14.8199 3.03986 14.5136 3.04022C13.9471 3.04094 13.3811 3.04094 12.8147 3.04022C12.5076 3.03986 12.333 2.86935 12.3312 2.57052C12.3304 2.44615 12.3312 2.32179 12.3312 2.18733H10.5755C10.7945 2.35531 11.0164 2.50924 11.2196 2.68443C12.2802 3.59896 12.9101 4.74671 13.1228 6.11688C13.1243 6.12626 13.1276 6.13599 13.1272 6.14536C13.1162 6.446 13.2439 6.62516 13.5275 6.78196C13.9849 7.03502 14.1772 7.61286 14.055 8.11284C13.9244 8.64671 13.4746 9.03927 12.9156 9.10668C12.3972 9.16904 11.8719 8.90012 11.6195 8.4434C11.2541 7.78192 11.5058 6.99897 12.1962 6.66156C12.2743 6.62335 12.2938 6.58586 12.2842 6.49791C12.1386 5.14756 11.5289 4.04631 10.4518 3.19811C9.94741 2.80086 9.3766 2.52618 8.75039 2.36757C8.71187 2.35784 8.63962 2.38956 8.61614 2.4238C8.05083 3.25074 6.9389 3.25326 6.3857 2.4238C6.33801 2.35243 6.29692 2.34738 6.21915 2.37045C4.46085 2.89242 3.34344 4.03189 2.84562 5.76109C2.77299 6.01271 2.74841 6.27802 2.71246 6.53864C2.70769 6.57433 2.75868 6.63561 2.79903 6.65616C3.34417 6.93156 3.62113 7.46326 3.51989 8.05156C3.41753 8.64527 2.87902 9.0991 2.25905 9.11425C1.63394 9.12938 1.07376 8.70006 0.939132 8.10239C0.805599 7.51049 1.11484 6.89299 1.67575 6.65363C1.77956 6.60929 1.82176 6.55883 1.83203 6.44852C1.91677 5.52138 2.21061 4.66308 2.72199 3.87796C3.13763 3.23956 3.6626 2.70497 4.30201 2.27997C4.33833 2.25582 4.37391 2.23095 4.43371 2.18985H2.66476C2.66476 2.3171 2.66586 2.44976 2.66476 2.58205C2.66219 2.86395 2.48574 3.04022 2.19997 3.04094C1.65337 3.04238 1.1064 3.03193 0.5598 3.04526C0.293836 3.05175 0.10932 2.96272 0 2.72516V0.766694C0.067133 0.621422 0.174611 0.516162 0.322084 0.450195H2.34306C2.76713 0.616375 2.64166 0.995236 2.67064 1.31426C3.85152 1.31426 5.01589 1.31534 6.18026 1.31029C6.22061 1.31029 6.27748 1.2591 6.29766 1.21801C6.42385 0.959909 6.60324 0.74903 6.8626 0.617096C6.9987 0.547524 7.14911 0.504988 7.29328 0.450195C7.43012 0.450195 7.56657 0.450195 7.70341 0.450195C7.7533 0.467138 7.80246 0.485882 7.85308 0.500662C8.23534 0.609886 8.5123 0.843115 8.68105 1.19458C8.72434 1.2847 8.77166 1.31714 8.87438 1.31678C9.98079 1.31282 11.0868 1.31426 12.1933 1.3139C12.2354 1.3139 12.278 1.30957 12.3286 1.30669C12.3481 0.9837 12.2354 0.616014 12.6529 0.450195H14.6739Z" fill="#144973"/>
<path d="M7.95101 4.25171C8.41617 4.93734 8.86519 5.59845 9.31422 6.26029C9.97711 7.23718 10.6396 8.21407 11.3022 9.19096C11.5179 9.50926 11.5069 9.66426 11.2431 9.93967C10.5134 10.7024 10.0479 11.5986 9.8366 12.6234C9.82816 12.6652 9.81422 12.7056 9.80211 12.7496C9.62749 12.7056 9.46096 12.6519 9.29037 12.6234C9.10842 12.5931 8.92242 12.5729 8.73826 12.5715C7.91359 12.5661 7.08819 12.5553 6.26389 12.5755C5.90805 12.5841 5.55367 12.6631 5.18719 12.7117C5.14647 12.5567 5.09951 12.3621 5.04412 12.1699C4.80017 11.3246 4.36911 10.5835 3.75684 9.94399C3.48941 9.66426 3.47658 9.51142 3.69082 9.19564C4.77815 7.59261 5.86512 5.98993 6.95282 4.38725C6.9785 4.34904 7.00747 4.31299 7.05846 4.24414C7.05846 4.322 7.05846 4.36274 7.05846 4.40347C7.05846 5.66982 7.05701 6.93618 7.06104 8.20253C7.06104 8.30563 7.02583 8.35105 6.93338 8.39286C6.45648 8.60771 6.14025 9.14662 6.18391 9.60983C6.24774 10.2882 6.7063 10.6988 7.22686 10.8095C7.86224 10.945 8.53429 10.5727 8.72909 9.99338C8.95396 9.32469 8.67846 8.67584 8.04272 8.38169C7.97595 8.35069 7.93561 8.32293 7.93598 8.23714C7.93965 6.93257 7.93853 5.62765 7.9389 4.32309C7.9389 4.30975 7.9433 4.29677 7.95174 4.25207L7.95101 4.25171Z" fill="#144973"/>
<path d="M7.49215 15.1886C6.65244 15.1886 5.81308 15.1933 4.97337 15.1832C4.85708 15.1817 4.72465 15.1302 4.63001 15.0613C4.48951 14.9597 4.45685 14.8036 4.51334 14.6342C4.74592 13.9384 5.4257 13.4399 6.17076 13.4349C7.05413 13.4291 7.93787 13.4294 8.82123 13.4349C9.5674 13.4395 10.2446 13.933 10.4805 14.6309C10.5755 14.9121 10.3704 15.1853 10.0549 15.1871C9.41075 15.1907 8.7662 15.1882 8.12202 15.1882C7.91218 15.1882 7.70234 15.1882 7.49251 15.1882L7.49215 15.1886Z" fill="#144973"/>
<path d="M7.93598 9.54641C7.93598 9.78973 7.73897 9.98042 7.49025 9.97717C7.2496 9.97429 7.0592 9.78396 7.0592 9.54604C7.0592 9.30272 7.25622 9.11203 7.50494 9.11528C7.74559 9.11816 7.93598 9.30849 7.93598 9.54641Z" fill="#144973"/>
</svg>
