<svg width="13" height="14" viewBox="0 0 13 14" fill="none" xmlns="http://www.w3.org/2000/svg">
<path d="M8.02344 6.71726H8.44474V4.94238H8.02344V6.71726Z" fill="#144973"/>
<path d="M12.6408 11.5565C11.8911 10.7801 11.1425 10.0026 10.3939 9.2251C10.3596 9.18915 10.3263 9.15207 10.2937 9.11687C12.1171 6.28508 11.2 2.84732 9.00127 1.15671C6.75697 -0.568729 3.65922 -0.345137 1.65794 1.70239C-0.318388 3.72408 -0.559233 6.93413 1.10464 9.29065C1.9176 10.4419 3.00973 11.1887 4.35175 11.509C5.948 11.8895 7.43468 11.5839 8.80708 10.6528C9.17956 11.0378 9.54951 11.4202 9.91946 11.8026C10.3599 12.258 10.7892 12.7262 11.2438 13.1662C11.8122 13.7164 12.7406 13.4625 12.9521 12.7074C13.0765 12.264 12.9536 11.8805 12.6408 11.5565ZM4.08523 6.94237C4.00784 7.35061 3.65814 7.62289 3.25564 7.62476C2.96706 7.62626 2.67883 7.62663 2.39025 7.62476C2.13747 7.62289 1.95195 7.4315 1.95195 7.17758C1.95195 6.92252 2.13602 6.73189 2.38989 6.73002C2.67268 6.72777 2.95512 6.72964 3.24443 6.72964V6.27984C3.11135 6.27984 2.97791 6.27984 2.84482 6.27984C2.3219 6.27834 1.95159 5.89782 1.95303 5.35514C1.95376 5.14128 1.94291 4.92218 1.98305 4.71507C2.0608 4.31508 2.41086 4.04168 2.80432 4.03868C3.09291 4.03643 3.38112 4.03681 3.66971 4.03868C3.92936 4.04018 4.11886 4.23456 4.11632 4.49298C4.11416 4.74391 3.92538 4.9323 3.67079 4.93379C3.39197 4.93529 3.11316 4.93379 2.82277 4.93379V5.3836C2.97103 5.3836 3.11388 5.38248 3.25673 5.3836C3.73481 5.38809 4.11416 5.77835 4.11488 6.27385C4.11488 6.49706 4.12645 6.72552 4.08523 6.942V6.94237ZM5.84023 5.38397C6.09265 5.38697 6.28106 5.5776 6.28179 5.82966C6.28251 6.08359 6.09627 6.27609 5.84493 6.27946C5.70643 6.28134 5.56756 6.27946 5.42255 6.27946V6.72103C5.45943 6.72365 5.49813 6.72889 5.53683 6.72889C5.78925 6.72964 6.04167 6.72627 6.29409 6.73039C6.53349 6.73414 6.71683 6.93488 6.71502 7.18282C6.71322 7.42401 6.53131 7.62101 6.2977 7.62401C5.98669 7.62775 5.67533 7.62963 5.36433 7.62363C4.94158 7.6154 4.55752 7.22402 4.55282 6.78695C4.54595 6.15213 4.54631 5.51693 4.55282 4.88211C4.55716 4.44354 4.93651 4.05104 5.35998 4.04055C5.67099 4.03306 5.982 4.03568 6.293 4.03943C6.53312 4.04243 6.71647 4.2428 6.71502 4.49073C6.71358 4.73792 6.52843 4.93117 6.28541 4.93379C6.00189 4.93642 5.71836 4.93454 5.4211 4.93454V5.38435C5.56394 5.38435 5.70209 5.38285 5.84023 5.38435V5.38397ZM9.313 6.745C9.31047 7.23151 8.92931 7.62401 8.45846 7.62401C8.23859 7.62401 8.01329 7.63599 7.79992 7.59217C7.4137 7.51277 7.1526 7.14911 7.14971 6.73976C7.14754 6.43639 7.14935 6.13302 7.14935 5.82928C7.14935 5.52592 7.14718 5.22218 7.14971 4.91881C7.15405 4.43268 7.53268 4.04018 8.00353 4.03943C8.21906 4.03943 8.43965 4.02744 8.64904 4.06902C9.04467 4.14804 9.31156 4.50908 9.313 4.92406C9.31517 5.53079 9.3159 6.13789 9.313 6.74462V6.745Z" fill="#144973"/>
</svg>
