<svg width="56" height="54" viewBox="0 0 56 54" fill="none" xmlns="http://www.w3.org/2000/svg">
<g clip-path="url(#clip0_486_3494)">
<path d="M6.59358 43.3479C6.59358 43.5638 6.59358 43.7744 6.59358 43.9904C6.59358 46.5117 6.59358 49.0276 6.59358 51.5489C6.59358 52.9418 5.60348 53.9784 4.27608 54C2.94325 54.0162 1.9205 52.9526 1.9205 51.5326C1.9205 48.8548 1.9205 46.1769 1.91506 43.4991C1.91506 43.4613 1.89874 43.4235 1.87698 43.3317C1.7845 43.3209 1.67569 43.3101 1.56145 43.2993C0.620305 43.1967 0.0218897 42.5812 0.0164496 41.6472C0.00556932 39.2447 0.000129182 36.8476 0.0164496 34.4451C0.0218897 33.4733 0.658386 32.8362 1.63217 32.8254C3.38934 32.8092 5.15194 32.8254 6.90911 32.8254C7.55105 32.8254 8.0461 33.1007 8.30723 33.673C8.45411 33.9862 8.63363 34.0509 8.94372 34.0402C11.2395 33.9754 13.3448 33.2573 15.2706 32.0803C16.5218 31.3137 17.6479 30.3527 18.8339 29.4835C19.2038 29.2135 19.3507 28.8842 19.3235 28.4199C19.2909 27.7828 19.4922 27.6046 20.1232 27.5992C21.2221 27.5938 22.321 27.61 23.4199 27.5938C23.9694 27.5884 24.2251 27.826 24.2251 28.3767C24.2251 34.823 24.2251 41.2747 24.2251 47.721C24.2251 48.3149 24.002 48.5363 23.3819 48.5417C22.321 48.5525 21.2656 48.5471 20.2048 48.5417C19.5139 48.5417 19.2909 48.3365 19.3235 47.6616C19.3453 47.2189 19.1875 46.9328 18.8611 46.6412C16.5545 44.5842 13.9976 42.9808 10.9294 42.3113C10.5214 42.2249 10.1079 42.1601 9.68902 42.1169C9.05252 42.0468 8.45955 41.928 8.05154 42.7324C7.86113 43.1049 7.17568 43.2291 6.7187 43.4667L6.59902 43.3425L6.59358 43.3479ZM19.2854 30.8332C16.1138 33.4679 12.6865 35.2765 8.53571 35.3575V40.7834C10.5703 40.7726 12.507 41.1721 14.2751 42.0791C16.0105 42.97 17.6425 44.0551 19.2854 45.0378V30.8332ZM7.19744 38.0731C7.19744 36.9232 7.18656 35.7732 7.20288 34.6232C7.20832 34.2345 7.06143 34.0887 6.68062 34.0941C5.05946 34.0995 3.44374 34.0995 1.82258 34.0941C1.44177 34.0941 1.29488 34.2345 1.29488 34.6232C1.30576 36.907 1.30576 39.1853 1.29488 41.4691C1.29488 41.8794 1.43633 42.0306 1.84978 42.0252C3.44918 42.009 5.04858 42.009 6.64798 42.0252C7.06687 42.0252 7.20832 41.8848 7.20288 41.4691C7.18112 40.3407 7.19744 39.2069 7.19744 38.0785V38.0731ZM20.6237 47.2135H22.8814V28.9112H20.6237V47.2135ZM3.22069 43.3371C3.22069 46.1931 3.20981 49.0168 3.24245 51.8404C3.24245 52.0887 3.5199 52.4235 3.75927 52.5692C4.48281 53.0228 5.29339 52.4613 5.29883 51.5165C5.30971 48.9412 5.29883 46.3713 5.29883 43.796C5.29883 43.6448 5.27163 43.4937 5.25531 43.3371H3.21525H3.22069Z" fill="#52C1FF"/>
<path d="M44.3318 32.8197C44.2992 32.2151 44.5114 31.605 43.7389 31.5024C43.5376 31.4754 43.2764 31.5024 43.1296 31.6212C42.7868 31.8911 42.5039 32.2313 42.183 32.5336C41.8348 32.8629 41.4758 32.8629 41.133 32.5174C40.5074 31.9019 39.8872 31.2864 39.2671 30.6656C38.9243 30.3254 38.9135 29.9745 39.2671 29.629C39.5064 29.3914 39.724 29.1215 39.9906 28.9217C40.4204 28.6032 40.5129 28.2415 40.1864 27.8257C40.0668 27.6692 39.8492 27.5234 39.6642 27.5018C39.2507 27.4532 38.8264 27.4802 38.4075 27.4856C37.9179 27.491 37.6513 27.275 37.6513 26.7783C37.6513 25.8875 37.6513 24.9913 37.6513 24.1005C37.6513 23.6362 37.8907 23.4094 38.3531 23.404C38.7122 23.404 39.0767 23.3662 39.4303 23.404C39.9036 23.458 40.1484 23.2906 40.3116 22.8371C40.4258 22.5186 40.3932 22.335 40.1484 22.1245C39.8492 21.8653 39.5826 21.563 39.2943 21.2876C38.9243 20.9313 38.9026 20.5804 39.2779 20.2079C39.9036 19.5924 40.5237 18.9769 41.1439 18.356C41.4921 18.0105 41.8402 18.0105 42.1884 18.3506C42.5039 18.653 42.7923 18.9931 43.135 19.263C43.2819 19.3764 43.5485 19.425 43.7334 19.3764C44.0217 19.3062 44.3699 19.2469 44.3373 18.7825C44.3046 18.3506 44.3264 17.9079 44.3373 17.476C44.3482 17.0009 44.5821 16.7418 45.0826 16.7472C45.9639 16.7526 46.8397 16.7472 47.721 16.7472C48.2487 16.7472 48.4827 17.0171 48.4663 17.53C48.4555 17.8485 48.5044 18.1725 48.4555 18.4802C48.3739 19.0147 48.5915 19.317 49.1028 19.3872C49.2824 19.4142 49.5272 19.3872 49.6577 19.2846C49.995 19.0093 50.2942 18.6854 50.5989 18.3722C50.9416 18.0213 51.2898 17.9943 51.6434 18.3398C52.2853 18.9661 52.9218 19.5924 53.5529 20.2349C53.8684 20.5588 53.863 20.9097 53.5583 21.2391C53.3135 21.5036 53.0633 21.7628 52.7967 21.9949C52.4866 22.2649 52.3397 22.5024 52.5356 22.9559C52.726 23.3986 53.0034 23.404 53.3788 23.3986C55.2393 23.377 55.2012 23.2906 55.1795 25.1695C55.174 25.6878 55.1795 26.2007 55.1795 26.719C55.1795 27.2265 54.9292 27.491 54.407 27.4856C54.0697 27.4856 53.727 27.491 53.3897 27.4856C53.0252 27.4748 52.726 27.4586 52.5464 27.9175C52.3724 28.3548 52.4812 28.587 52.7913 28.8839C54.135 30.1581 54.1458 30.1095 52.813 31.4052C52.4431 31.7669 52.0786 32.1341 51.7087 32.5012C51.3224 32.8845 50.947 32.8737 50.5717 32.485C50.3486 32.2529 50.1038 32.0531 49.8971 31.8047C49.6088 31.4592 49.3422 31.3728 48.8798 31.551C48.3902 31.74 48.4827 32.0639 48.4772 32.404C48.4772 32.7604 48.4827 33.1167 48.4772 33.473C48.4663 33.9049 48.2215 34.1371 47.7972 34.1425C46.8778 34.1533 45.9584 34.1533 45.0391 34.1425C44.6038 34.1425 44.3808 33.8887 44.3536 33.473C44.3373 33.2139 44.3536 32.9601 44.3536 32.8251L44.3318 32.8197ZM40.5183 20.7801C40.8937 21.1311 41.2418 21.455 41.5954 21.7789C41.9273 22.0813 41.9382 22.4052 41.7478 22.7939C41.5519 23.1827 41.3778 23.5822 41.2473 23.9979C41.1004 24.4676 40.8229 24.6836 40.3279 24.662C39.8764 24.6404 39.4248 24.662 38.9515 24.662V26.2169C39.4629 26.2169 39.9362 26.2169 40.4149 26.2169C40.8284 26.2169 41.0732 26.4166 41.2146 26.7999C41.3724 27.2427 41.5519 27.6854 41.7586 28.1119C41.949 28.506 41.9164 28.8353 41.5846 29.1269C41.2255 29.44 40.8665 29.7586 40.5781 30.0123C40.9861 30.4712 41.3126 30.8437 41.726 31.308C42.0796 30.9139 42.3897 30.5576 42.7161 30.2067C43.0153 29.8827 43.3417 29.8503 43.7389 30.0609C44.1251 30.2661 44.5277 30.4496 44.9466 30.5684C45.4416 30.7034 45.6266 30.9841 45.6103 31.4754C45.5885 31.9235 45.6103 32.3716 45.6103 32.8143H47.0845C47.1825 32.1179 47.0682 31.335 47.411 30.8815C47.7537 30.428 48.5316 30.2714 49.1409 30.0393C50.2561 29.6182 50.3976 30.9355 51.1701 31.1569C51.4965 30.8329 51.8447 30.4928 52.269 30.0771C51.8882 29.7262 51.5237 29.3914 51.1647 29.0513C50.8818 28.7867 50.8546 28.4898 51.0286 28.1389C51.2408 27.7124 51.4421 27.2804 51.5835 26.8323C51.7195 26.4058 51.9807 26.2115 52.4104 26.2115C52.8837 26.2115 53.357 26.2115 53.8521 26.2115V24.6566C53.3298 24.6566 52.8239 24.7214 52.3506 24.6296C52.0786 24.581 51.7685 24.3326 51.6162 24.0843C51.3714 23.6848 51.268 23.2043 51.045 22.7831C50.8328 22.3836 50.8818 22.0651 51.2082 21.7735C51.5618 21.455 51.9263 21.1473 52.269 20.8449C51.8283 20.3968 51.4856 20.0513 51.1102 19.668C50.3704 20.3374 49.7665 21.5198 48.4827 20.5264C46.8289 20.3698 47.2151 19.0795 47.1607 18.0483H45.6048C45.6048 18.5504 45.5939 19.0201 45.6048 19.4898C45.6211 19.9109 45.4253 20.1485 45.0391 20.2888C44.593 20.4508 44.1414 20.6182 43.7171 20.8233C43.3145 21.0177 42.9936 20.9691 42.6944 20.6506C42.3734 20.305 42.0415 19.9703 41.7097 19.6194C41.2854 20.0297 40.9317 20.3752 40.5237 20.7693L40.5183 20.7801Z" fill="#52C1FF"/>
<path d="M0.930387 15.5596C0.952147 9.65313 5.78843 4.88049 11.7019 4.92908C17.6479 4.97767 22.4407 9.77191 22.4135 15.6459C22.3863 21.4714 17.5174 26.2764 11.6475 26.2656C5.72315 26.2548 0.908626 21.4444 0.930387 15.565V15.5596ZM2.19794 15.5812C2.19794 20.7371 6.44669 24.9753 11.6366 24.9807C16.8374 24.9807 21.1079 20.7695 21.1133 15.6189C21.1188 10.4198 16.87 6.18163 11.6475 6.18703C6.45213 6.18703 2.19794 10.4198 2.19794 15.5812Z" fill="#52C1FF"/>
<path d="M23.6103 9.1675C23.6267 4.09251 27.7992 -0.0268627 32.8967 0.00013192C38.0213 0.0271265 42.1177 4.1789 42.1014 9.31867C42.0796 14.2857 37.8798 18.4104 32.8368 18.3997C27.7394 18.3889 23.594 14.2425 23.6103 9.1675ZM24.8833 9.21069C24.8942 13.5676 28.4738 17.1201 32.8531 17.1201C37.2651 17.1201 40.8229 13.5568 40.8121 9.1567C40.8012 4.79437 37.227 1.27428 32.8259 1.27968C28.4521 1.29047 24.8725 4.86456 24.8833 9.21069Z" fill="#52C1FF"/>
<path d="M50.1201 45.2966C50.1093 50.0639 46.1271 54.0051 41.3234 54.0051C36.5143 54.0051 32.5485 50.0639 32.5376 45.2912C32.5267 40.5024 36.5361 36.5342 41.3615 36.5558C46.1706 36.5773 50.1256 40.524 50.1201 45.302V45.2966ZM48.8254 45.2966C48.8254 41.1934 45.4634 37.8353 41.3398 37.8299C37.2216 37.8299 33.816 41.1988 33.8215 45.2804C33.8269 49.335 37.2161 52.7093 41.2908 52.7201C45.4144 52.7309 48.8199 49.3782 48.8254 45.2966Z" fill="#52C1FF"/>
<path d="M31.0742 33.5378C32.1677 33.5378 33.2666 33.5486 34.3601 33.5378C34.817 33.5378 35.1815 33.6566 35.1815 34.1641C35.1815 34.677 34.7953 34.8066 34.3546 34.8066C32.1622 34.8066 29.9699 34.8066 27.7775 34.8066C27.3096 34.8066 26.9016 34.6662 26.9179 34.1263C26.9397 33.6296 27.3314 33.527 27.7775 33.5324C28.871 33.5486 29.9699 33.5324 31.0633 33.5324L31.0742 33.5378Z" fill="#52C1FF"/>
<path d="M31.0416 21.7248C32.1187 21.7248 33.2013 21.7248 34.2784 21.7248C34.7354 21.7248 35.1706 21.7788 35.1815 22.3403C35.1924 22.8964 34.7735 22.9881 34.3111 22.9881C32.135 22.9881 29.9535 22.9881 27.7775 22.9881C27.3259 22.9881 26.9343 22.8694 26.9234 22.3727C26.9179 21.8328 27.3314 21.7194 27.7992 21.7248C28.8764 21.7356 29.959 21.7248 31.0361 21.7248H31.0416Z" fill="#52C1FF"/>
<path d="M31.0035 26.9137C29.9263 26.9137 28.8438 26.9083 27.7666 26.9137C27.3151 26.9137 26.9288 26.7949 26.9234 26.2928C26.9234 25.7961 27.2879 25.6611 27.7503 25.6611C29.9481 25.6719 32.1459 25.6665 34.3437 25.6611C34.7953 25.6611 35.1761 25.7637 35.1815 26.2766C35.187 26.7895 34.817 26.9191 34.3601 26.9137C33.2394 26.9083 32.1242 26.9137 31.0035 26.9137Z" fill="#52C1FF"/>
<path d="M31.0035 30.8605C29.9263 30.8605 28.8438 30.8605 27.7666 30.8605C27.3151 30.8605 26.9288 30.731 26.9234 30.2289C26.9234 29.7322 27.2933 29.5918 27.7503 29.5918C29.9481 29.5972 32.1459 29.5972 34.3492 29.5918C34.8007 29.5918 35.1815 29.6944 35.187 30.2127C35.1924 30.7256 34.817 30.8605 34.3655 30.8605C33.2448 30.8605 32.1242 30.8605 31.0089 30.8605H31.0035Z" fill="#52C1FF"/>
<path d="M46.3773 28.7869C44.5277 28.7869 43.0371 27.3076 43.0208 25.4666C43.0044 23.5986 44.5059 22.0977 46.3936 22.0977C48.2759 22.0977 49.7829 23.5824 49.7774 25.4504C49.7774 27.313 48.2705 28.7923 46.3773 28.7869ZM48.4827 25.4342C48.4827 24.2788 47.5578 23.3556 46.4045 23.3502C45.2621 23.3502 44.3101 24.2788 44.2883 25.4126C44.2666 26.5626 45.2349 27.5128 46.4154 27.5074C47.5905 27.502 48.4827 26.6058 48.4827 25.4342Z" fill="#52C1FF"/>
<path d="M7.71425 15.5759C7.71425 14.048 7.71425 12.5201 7.71425 10.9976C7.71425 10.0204 8.13858 9.77206 8.98724 10.258C11.6692 11.7859 14.3458 13.3192 17.0169 14.8578C17.8764 15.3491 17.871 15.8189 17.0006 16.3156C14.324 17.8542 11.6475 19.3875 8.97092 20.9208C8.14402 21.3905 7.71969 21.153 7.71425 20.219C7.70337 18.6749 7.71425 17.1254 7.71425 15.5813V15.5759ZM9.02532 19.4253C11.2775 18.135 13.4482 16.8878 15.7167 15.5867C13.4482 14.2856 11.2667 13.033 9.02532 11.7481V19.4253Z" fill="#52C1FF"/>
<path d="M36.6993 9.17842C36.6993 11.284 34.9911 13.0171 32.8803 13.0386C30.7532 13.0656 28.9961 11.3164 29.0015 9.18382C29.007 7.07284 30.7315 5.35598 32.8423 5.35059C34.9422 5.35059 36.6884 7.08364 36.6939 9.17302L36.6993 9.17842ZM35.4046 9.18382C35.4046 7.7801 34.2676 6.64633 32.864 6.63553C31.4441 6.62473 30.2636 7.7963 30.2691 9.21081C30.28 10.6037 31.4278 11.7537 32.8259 11.7645C34.2513 11.7753 35.4046 10.6199 35.4046 9.18922V9.18382Z" fill="#52C1FF"/>
<path d="M41.3234 41.755C42.406 40.8426 43.5213 40.7184 44.5386 41.3825C45.5232 42.0196 45.9421 43.1588 45.5069 44.4221C45.2512 45.1564 44.8813 45.896 44.408 46.5061C43.6409 47.4887 42.7433 48.3741 41.8947 49.2919C41.5791 49.6375 41.1874 49.7346 40.8556 49.3621C39.8002 48.1797 38.7285 47.0028 37.7493 45.7556C37.2052 45.0646 36.9387 44.1953 37.004 43.2991C37.0801 42.2949 37.5969 41.5445 38.5598 41.1611C39.5935 40.7508 40.5129 40.9776 41.3234 41.755ZM41.2527 48.1366C42.3843 46.9596 43.4505 45.95 44.0979 44.6003C44.2502 44.2871 44.3373 43.9254 44.3754 43.5745C44.4406 42.9752 44.0816 42.4785 43.5158 42.3057C42.9446 42.133 42.4985 42.3219 42.1775 42.8132C42.0796 42.9644 42.0035 43.1264 41.9001 43.2721C41.5791 43.731 41.1004 43.7364 40.7794 43.2883C40.6761 43.1426 40.5999 42.9806 40.502 42.8294C40.1375 42.2949 39.6696 42.1276 39.1147 42.3219C38.5381 42.5271 38.1736 43.0724 38.2987 43.677C38.3912 44.1144 38.5054 44.5949 38.7611 44.9458C39.5391 46.0148 40.3877 47.0352 41.2582 48.1366H41.2527Z" fill="#52C1FF"/>
</g>
<defs>
<clipPath id="clip0_486_3494">
<rect width="55.1739" height="54" fill="white"/>
</clipPath>
</defs>
</svg>
