<svg width="52" height="52" viewBox="0 0 52 52" fill="none" xmlns="http://www.w3.org/2000/svg">
<g clip-path="url(#clip0_159_1267)">
<path d="M0 48.1236C0 33.3762 0 18.6238 0 3.87138C0.0350101 3.77598 0.0800231 3.68559 0.10503 3.59019C0.610176 1.43608 2.40569 0 4.62133 0C18.8854 0 33.1546 0 47.4187 0C49.9794 0 51.995 2.01352 51.995 4.58942C51.995 18.8598 51.995 33.1352 51.995 47.4056C51.995 49.9764 49.9794 51.995 47.4187 51.995C33.1346 51.995 18.8504 51.995 4.56632 51.995C3.22593 51.995 2.11061 51.4728 1.19034 50.5037C0.550159 49.8258 0.255074 48.9873 0 48.1236ZM3.04588 15.3098V15.9123C3.04588 26.2912 3.04588 36.6701 3.04588 47.0541C3.04588 48.3696 3.62104 48.9471 4.93142 48.9471C18.9755 48.9471 33.0195 48.9471 47.0636 48.9471C48.379 48.9471 48.9541 48.3696 48.9541 47.0591C48.9541 36.6601 48.9541 26.2661 48.9541 15.8671V15.3098H3.04588ZM3.04588 12.2016H48.9541C48.9541 9.70606 48.9541 7.24565 48.9541 4.78022C48.9541 3.68057 48.3189 3.05794 47.2086 3.05794C33.0645 3.05794 18.9205 3.05794 4.77638 3.05794C3.67106 3.05794 3.05088 3.68559 3.04588 4.79529C3.04588 7.12012 3.04588 9.44998 3.04588 11.7748C3.04588 11.9054 3.04588 12.0409 3.04588 12.1966V12.2016Z" fill="#174873"/>
<path d="M21.6012 44.3472C20.3058 44.3522 19.5956 43.2425 20.0558 42.1529C20.906 40.1243 21.7813 38.1058 22.6465 36.0772C24.7871 31.0609 26.9228 26.0497 29.0634 21.0335C29.4435 20.1397 30.1337 19.723 30.9189 19.9037C31.8542 20.1197 32.3493 21.1289 31.9492 22.0729C31.199 23.8705 30.4238 25.6581 29.6585 27.4457C27.4229 32.6778 25.1873 37.9099 22.9616 43.1471C22.6615 43.8501 22.2314 44.317 21.6012 44.3421V44.3472Z" fill="#174873"/>
<path d="M11.7134 32.1254C12.6936 32.9138 13.6389 33.677 14.5892 34.4352C15.6345 35.2738 16.6798 36.1023 17.7201 36.9458C18.4703 37.5534 18.6054 38.5024 18.0502 39.1953C17.5 39.8833 16.5548 39.9535 15.7895 39.341C13.3188 37.3626 10.8481 35.3792 8.3824 33.3908C7.47214 32.6577 7.47214 31.5681 8.3824 30.835C10.8481 28.8466 13.3188 26.8682 15.7895 24.8848C16.5548 24.2722 17.5 24.3375 18.0452 25.0304C18.6104 25.7384 18.4603 26.6824 17.6751 27.3151C15.8296 28.8014 13.979 30.2826 12.1285 31.7689C11.9984 31.8744 11.8784 31.9848 11.7084 32.1305L11.7134 32.1254Z" fill="#174873"/>
<path d="M40.2816 32.1011C39.3214 31.3278 38.3861 30.5746 37.4558 29.8214C36.4105 28.9829 35.3702 28.1494 34.3249 27.3108C33.5347 26.6781 33.3846 25.7442 33.9498 25.0312C34.505 24.3282 35.4502 24.278 36.2455 24.9157C38.6912 26.874 41.1369 28.8373 43.5776 30.8006C44.5379 31.5738 44.5379 32.6584 43.5776 33.4267C41.1369 35.39 38.6912 37.3483 36.2455 39.3066C35.4452 39.9493 34.505 39.8991 33.9448 39.1961C33.3696 38.473 33.5347 37.5491 34.3599 36.8863C36.2205 35.39 38.086 33.8937 39.9465 32.3973C40.0466 32.317 40.1416 32.2216 40.2766 32.0961L40.2816 32.1011Z" fill="#174873"/>
<path d="M39.7065 6.12109C41.1919 6.12109 42.6823 6.12109 44.1678 6.12109C45.143 6.12109 45.8082 6.75879 45.7982 7.66764C45.7882 8.55138 45.128 9.16899 44.1728 9.17401C41.1969 9.17401 38.226 9.17401 35.2502 9.17401C34.2749 9.17401 33.6097 8.53631 33.6197 7.62245C33.6297 6.74373 34.2949 6.12109 35.2452 6.12109C36.7306 6.12109 38.221 6.12109 39.7065 6.12109Z" fill="#174873"/>
<path d="M9.23765 7.63252C9.24265 8.50119 8.56746 9.17906 7.70721 9.17404C6.86697 9.17404 6.20178 8.50119 6.19677 7.66264C6.19177 6.79397 6.86697 6.1161 7.72722 6.12112C8.56746 6.12112 9.23265 6.79397 9.23765 7.63252Z" fill="#174873"/>
<path d="M15.3344 7.62258C15.3444 8.49126 14.6742 9.17415 13.809 9.17415C12.9687 9.17415 12.2985 8.51134 12.2885 7.66778C12.2785 6.7991 12.9487 6.11621 13.809 6.11621C14.6492 6.11621 15.3194 6.77902 15.3294 7.61756L15.3344 7.62258Z" fill="#174873"/>
<path d="M18.3853 7.66287C18.3803 6.81428 19.0305 6.13641 19.8657 6.12135C20.731 6.10628 21.4212 6.76909 21.4312 7.63274C21.4362 8.50142 20.761 9.17928 19.9008 9.17928C19.0605 9.17928 18.3953 8.51146 18.3903 7.66789L18.3853 7.66287Z" fill="#174873"/>
</g>
<defs>
<clipPath id="clip0_159_1267">
<rect width="52" height="52" fill="white"/>
</clipPath>
</defs>
</svg>
