<svg width="65" height="65" viewBox="0 0 65 65" fill="none" xmlns="http://www.w3.org/2000/svg">
<path d="M61.5831 17.8131C60.8893 15.2005 58.8449 13.1429 56.2493 12.4446C51.5444 11.1758 32.6785 11.1758 32.6785 11.1758C32.6785 11.1758 13.8127 11.1758 9.10771 12.4446C6.51203 13.143 4.4677 15.2005 3.77385 17.8131C2.51318 22.5485 2.51318 32.4286 2.51318 32.4286C2.51318 32.4286 2.51318 42.3087 3.77385 47.0441C4.4677 49.6567 6.51203 51.6286 9.10771 52.3268C13.8127 53.5957 32.6785 53.5957 32.6785 53.5957C32.6785 53.5957 51.5443 53.5957 56.2493 52.3268C58.8449 51.6286 60.8893 49.6567 61.5831 47.0441C62.8438 42.3087 62.8438 32.4286 62.8438 32.4286C62.8438 32.4286 62.8438 22.5485 61.5831 17.8131ZM26.5083 41.399V23.4582L42.2764 32.4288L26.5083 41.399Z" fill="#FF0000"/>
</svg>
