<svg width="13" height="16" viewBox="0 0 13 16" fill="none" xmlns="http://www.w3.org/2000/svg">
<path d="M7.56899 15.3177H1.09755C1.05703 15.3041 1.01729 15.2889 0.97639 15.2774C0.386043 15.1103 0.00096462 14.5924 0.000578772 13.9575C-0.000192924 9.75484 -0.000192924 5.55222 0.000578772 1.34959C0.000578772 0.594742 0.572792 0.0045287 1.3005 0.00133188C1.69059 -0.000266536 2.0803 0.000932272 2.47039 0.00133188C2.51168 0.00133188 2.55258 0.00692636 2.60004 0.0101232C2.60004 0.172762 2.59579 0.322213 2.60081 0.471265C2.62242 1.1378 3.07039 1.68206 3.70318 1.76598C4.02575 1.80874 4.35603 1.79395 4.68285 1.79435C5.51126 1.79595 6.06534 1.21892 6.06688 0.359776C6.06688 0.242292 6.06688 0.124809 6.06688 0.000532804C6.51099 0.000532804 6.93427 -0.000666005 7.35716 0.000532804C8.09529 0.00333002 8.66287 0.590347 8.66557 1.35519C8.6675 1.91343 8.66596 2.47208 8.66557 3.03032C8.66557 3.07348 8.66055 3.11664 8.65747 3.17018C8.5965 3.17018 8.54442 3.17018 8.49233 3.17018C7.9722 3.17018 7.45246 3.16619 6.93234 3.17138C6.12592 3.17897 5.42445 3.73442 5.26239 4.54841C5.18869 4.91845 5.21532 5.31045 5.1995 5.69248C5.19255 5.86151 5.24927 6.0657 5.17635 6.19038C5.10419 6.31386 4.90471 6.35701 4.76079 6.43534C4.73957 6.44693 4.71757 6.45772 4.69674 6.4701C4.2561 6.73064 4.01301 7.11786 4.00954 7.64853C4.00607 8.1856 4.24684 8.58041 4.69327 8.84334C4.82677 8.92207 4.96529 8.9924 5.10535 9.05753C5.17789 9.0911 5.20143 9.13426 5.20027 9.21577C5.19602 9.57462 5.19796 9.93346 5.19834 10.2927C5.20027 11.3556 5.95962 12.1437 6.9852 12.1465C7.49066 12.1477 7.99613 12.1465 8.50159 12.1465C8.55252 12.1465 8.60384 12.1465 8.6648 12.1465C8.6648 12.7774 8.6675 13.3896 8.66403 14.0018C8.66094 14.5693 8.2832 15.0879 7.75806 15.2558C7.69439 15.2762 7.63111 15.2965 7.56783 15.3169L7.56899 15.3177ZM4.31861 13.4931C4.46291 13.4931 4.60684 13.4967 4.75114 13.4923C5.00426 13.4847 5.1995 13.2873 5.1995 13.044C5.1995 12.8006 5.00426 12.6008 4.75114 12.596C4.47256 12.5912 4.19359 12.5912 3.91501 12.596C3.66189 12.6004 3.46665 12.8006 3.46665 13.044C3.46665 13.2877 3.66151 13.4847 3.91501 13.4923C4.04928 13.4963 4.18395 13.4931 4.31861 13.4931Z" fill="#144973"/>
<path d="M9.53605 4.06987C10.3926 4.06987 11.2496 4.06907 12.1062 4.06987C12.6271 4.07027 12.999 4.45269 12.9994 4.98936C13.0002 6.76879 13.0002 8.54782 12.9994 10.3273C12.9994 10.8643 12.6275 11.2483 12.1077 11.2483C10.3896 11.2491 8.67098 11.2491 6.9528 11.2483C6.44271 11.2483 6.06843 10.8619 6.06728 10.336C6.06612 9.78299 6.06496 9.22954 6.06882 8.67649C6.06959 8.58978 6.04451 8.54302 5.96812 8.50546C5.69532 8.37 5.42716 8.22414 5.15436 8.08788C4.97803 7.99996 4.86806 7.8637 4.86768 7.6595C4.86768 7.4553 4.97649 7.31904 5.1532 7.23113C5.42175 7.09766 5.6849 6.9522 5.95384 6.81994C6.0395 6.77758 6.07037 6.72843 6.06921 6.62813C6.06381 6.07987 6.06573 5.53162 6.06689 4.98336C6.06805 4.45589 6.44078 4.07067 6.95087 4.06987C7.81247 4.06867 8.67407 4.06987 9.53567 4.06987H9.53605ZM8.0872 9.05212C8.08025 9.43733 8.40205 9.65712 8.70802 9.50726C8.95072 9.38818 9.18879 9.25791 9.42377 9.12285C9.50634 9.07529 9.56808 9.08089 9.64718 9.12524C9.87058 9.25112 10.0986 9.3682 10.324 9.49048C10.4868 9.57879 10.6492 9.58319 10.8005 9.4729C10.9583 9.35781 11.0042 9.19038 10.973 8.99817C10.9309 8.73843 10.8803 8.47989 10.8479 8.21895C10.8398 8.15341 10.8684 8.0619 10.9124 8.01355C11.0964 7.81015 11.2951 7.62114 11.483 7.42134C11.6019 7.29506 11.6478 7.14321 11.5895 6.96899C11.5328 6.79836 11.4201 6.69526 11.2473 6.66729C10.9961 6.62653 10.7445 6.58537 10.4926 6.54901C10.3876 6.53382 10.3108 6.50185 10.2622 6.38757C10.1642 6.1558 10.0469 5.93282 9.93888 5.70544C9.8567 5.53281 9.72551 5.4433 9.53798 5.44171C9.34429 5.44011 9.21001 5.53082 9.12551 5.70984C9.01824 5.93761 8.90056 6.16059 8.8014 6.39156C8.7551 6.49905 8.68603 6.53542 8.58378 6.5494C8.33645 6.58377 8.09028 6.62573 7.84334 6.66209C7.65929 6.68927 7.53504 6.78957 7.47601 6.97338C7.41582 7.1616 7.47832 7.31424 7.60643 7.44651C7.78739 7.63273 7.96565 7.82174 8.15202 8.00116C8.2261 8.07229 8.23806 8.14142 8.22031 8.23893C8.16899 8.52184 8.12655 8.80676 8.0872 9.05212Z" fill="#144973"/>
<path d="M3.46706 0.00488281H5.19065C5.19065 0.189899 5.20955 0.374116 5.18563 0.552339C5.15824 0.757335 4.97612 0.894399 4.77123 0.896796C4.47799 0.899993 4.18436 0.900792 3.89111 0.896796C3.65381 0.8936 3.47362 0.705387 3.46784 0.46043C3.46436 0.308581 3.46706 0.156732 3.46706 0.00528235V0.00488281Z" fill="#144973"/>
<path d="M8.8269 7.3963C9.19153 7.41708 9.41648 7.23566 9.53301 6.87402C9.64838 7.24006 9.87912 7.42068 10.2434 7.3979C10.1372 7.54695 10.0122 7.66084 9.96786 7.8019C9.9231 7.94376 9.95783 8.11239 9.95783 8.29261C9.67809 8.07483 9.38908 8.06084 9.11127 8.29861C9.11127 8.11919 9.146 7.95095 9.10163 7.80909C9.05726 7.66684 8.93417 7.55135 8.8269 7.3967V7.3963Z" fill="#144973"/>
</svg>
