<svg width="48" height="48" viewBox="0 0 48 48" fill="none" xmlns="http://www.w3.org/2000/svg">
<g clip-path="url(#clip0_486_3517)">
<path d="M43.3114 47.9998C41.9819 47.7719 41.0159 46.9797 40.0988 46.0518C37.1791 43.0945 34.2215 40.1753 31.3019 37.2234C30.9709 36.887 30.7538 36.8219 30.336 37.0878C28.4312 38.2869 26.3581 39.0846 24.1657 39.5567C21.919 40.0396 19.6506 40.1264 17.3768 39.8171C14.2998 39.3993 11.4561 38.3575 8.88926 36.6048C4.50441 33.615 1.64992 29.5508 0.494009 24.3688C-1.87207 13.7932 4.49356 3.25009 15.0324 0.678079C23.1563 -1.30248 30.0483 1.07962 35.5348 7.42825C35.6379 7.54762 35.7356 7.66157 35.893 7.84607C36.3054 7.41197 36.7124 6.99958 37.0869 6.56549C37.1574 6.48409 37.1574 6.28332 37.1086 6.16937C36.2295 4.0803 37.4288 1.93695 39.6592 1.63309C41.0159 1.4486 42.4269 2.2788 42.937 3.60822C43.0618 3.92836 43.2246 4.02061 43.5502 4.01518C45.0317 4.00433 46.5187 4.02603 48.0002 4.03146V5.62676C46.5187 5.62676 45.0317 5.62676 43.5502 5.6159C43.2355 5.6159 43.0672 5.68102 42.937 6.01744C42.5734 6.97788 41.857 7.59646 40.8639 7.88405C39.9957 8.13365 39.1762 7.99257 38.3622 7.56933C37.9443 8.00342 37.559 8.43752 37.1357 8.82278C36.8644 9.06696 36.7938 9.27315 37.0435 9.56074C37.1249 9.65298 37.1737 9.77236 37.2334 9.88088C39.5832 13.8854 40.4352 18.2046 39.8166 22.7952C39.4475 25.5463 38.5087 28.1129 37.0272 30.4678C36.8427 30.7554 36.859 30.9236 37.1086 31.1678C40.0771 34.1196 43.0238 37.0932 46.0031 40.0342C46.9257 40.9458 47.7505 41.8954 48.0056 43.2139V44.4348C47.7071 45.52 47.273 46.5402 46.2799 47.1479C45.6884 47.5169 44.9937 47.7176 44.3479 47.9944H43.3169L43.3114 47.9998ZM38.3839 19.9627C38.3785 9.81034 30.1189 1.39434 19.5963 1.58425C9.69785 1.76874 1.41656 9.87003 1.59565 20.3643C1.76388 30.2616 9.88779 38.5528 20.3724 38.3629C30.336 38.1838 38.373 30.0663 38.3839 19.9627ZM39.2685 35.6118C38.042 36.8327 36.8427 38.0265 35.6217 39.2474C35.7139 39.3451 35.8224 39.4698 35.9418 39.5838C37.4885 41.1303 39.0351 42.6767 40.5817 44.2232C41.1027 44.7441 41.602 45.2813 42.1555 45.7642C43.2029 46.6812 44.7007 46.6053 45.6721 45.6231C46.6218 44.6627 46.7195 43.138 45.7643 42.1504C43.6262 39.9365 41.4283 37.7877 39.2522 35.6118C39.2413 35.601 39.225 35.6064 39.2685 35.6118ZM34.3681 37.9397C35.5782 36.7459 36.783 35.5576 37.9443 34.4126C37.2443 33.7127 36.5279 33.0018 36.0124 32.4918C34.8511 33.6584 33.6517 34.8576 32.4687 36.0405C32.9788 36.556 33.6843 37.2614 34.3681 37.9451V37.9397ZM39.9848 6.38642C40.8802 6.39185 41.602 5.68102 41.5911 4.79655C41.5803 3.92836 40.8694 3.21753 40.0011 3.21753C39.1382 3.21753 38.4327 3.92836 38.4273 4.79655C38.4273 5.68102 39.1057 6.37557 39.9794 6.381L39.9848 6.38642Z" fill="#FF7BEA"/>
<path d="M19.9436 3.20117C29.2071 3.25543 36.7829 10.5102 36.7992 20.0006C36.8155 29.3391 29.3971 36.7892 20.0141 36.7892C10.718 36.7892 3.26162 29.4259 3.22906 20.0386C3.20193 10.7924 10.5281 3.33683 19.9436 3.20117ZM33.2718 12.6427C32.7508 13.1853 32.295 13.6737 31.812 14.1404C31.6275 14.3194 31.5949 14.4551 31.7089 14.6992C32.2733 15.9364 32.0019 17.3635 31.0631 18.2805C30.1188 19.2084 28.7296 19.4634 27.514 18.91C27.2752 18.8014 27.1395 18.8069 26.955 18.9968C25.3812 20.5867 23.802 22.1657 22.2174 23.7338C22.0275 23.9183 22.0166 24.0648 22.1197 24.3036C22.25 24.5966 22.3585 24.9222 22.3911 25.2423C22.5485 26.6151 21.8267 27.8849 20.5731 28.4926C19.4118 29.0569 17.9248 28.8073 16.9751 27.8849C16.0309 26.9678 15.7595 25.5516 16.3076 24.3036C16.4107 24.0703 16.4107 23.9292 16.2208 23.7393C15.1626 22.7029 14.1152 21.6502 13.0733 20.5921C12.9105 20.4239 12.7857 20.3913 12.5523 20.4944C10.7994 21.2704 8.95433 20.5053 8.25428 18.7255C8.15659 18.4813 8.0372 18.3945 7.77672 18.3999C6.9627 18.4162 6.15411 18.4216 5.34009 18.3999C4.98735 18.3891 4.89509 18.5139 4.87338 18.8503C4.74314 21.189 5.03076 23.4625 5.92075 25.633C7.33715 29.1058 9.70866 31.7375 13.0353 33.4684C16.0092 35.0149 19.173 35.5087 22.4779 34.966C26.4123 34.3203 29.6087 32.3886 32.0399 29.2523C34.1292 26.5555 35.1658 23.4625 35.182 20.0386C35.1929 17.4449 34.558 15.0194 33.2718 12.6373V12.6427ZM13.9795 19.2301C15.13 20.3805 16.2642 21.52 17.4147 22.6432C17.5015 22.73 17.7349 22.7571 17.8489 22.7083C18.7606 22.3068 19.656 22.3122 20.5677 22.7029C20.6925 22.7571 20.9367 22.7137 21.0344 22.6215C22.6461 21.0316 24.247 19.4309 25.8425 17.8193C25.9293 17.7325 25.9782 17.4992 25.9239 17.3961C25.2564 16.0232 25.7123 14.5744 26.5751 13.728C27.5248 12.7947 28.8652 12.583 30.1731 13.1311C30.2816 13.1745 30.4716 13.1908 30.5367 13.1311C31.1662 12.5288 31.7794 11.9102 32.3872 11.3025C29.332 6.74447 23.0803 3.61899 16.3348 5.29568C9.99085 6.8747 6.04557 12.1706 5.25326 16.7992C6.06728 16.7992 6.8813 16.7829 7.68989 16.8046C8.0155 16.8155 8.16202 16.7232 8.28684 16.3976C8.85122 14.9271 10.539 14.1295 12.0368 14.5148C13.8222 14.976 15.1246 17.1193 13.9904 19.2355L13.9795 19.2301ZM19.2055 27.1903C20.063 27.1903 20.7956 26.4795 20.8119 25.6222C20.8282 24.7594 20.0684 23.9943 19.2001 24.0051C18.3427 24.016 17.6209 24.7485 17.6264 25.6004C17.6264 26.4632 18.3427 27.1795 19.2055 27.1849V27.1903ZM11.2227 16.0232C10.3436 16.0232 9.65439 16.7069 9.64896 17.5914C9.64896 18.4867 10.3653 19.2138 11.2444 19.1976C12.1127 19.1813 12.8074 18.465 12.8019 17.5914C12.7965 16.7178 12.0964 16.0232 11.2227 16.0232ZM30.3902 16.0015C30.3902 15.1225 29.701 14.4279 28.8218 14.4279C27.9481 14.4279 27.2372 15.1171 27.2209 15.9853C27.2046 16.8589 27.9481 17.6077 28.8273 17.5968C29.6955 17.586 30.3902 16.8751 30.3902 16.0015Z" fill="#FF7BEA"/>
</g>
<defs>
<clipPath id="clip0_486_3517">
<rect width="48" height="48" fill="white"/>
</clipPath>
</defs>
</svg>
