<svg width="54" height="54" viewBox="0 0 54 54" fill="none" xmlns="http://www.w3.org/2000/svg">
<g clip-path="url(#clip0_159_1270)">
<path d="M30.6954 0C31.5939 0.295905 32.4665 0.63334 33.1157 1.39127C33.8221 2.21669 34.1752 3.15632 34.1752 4.23611C34.1752 5.76235 34.1752 7.29379 34.1752 8.82003C34.1752 9.71294 33.8273 10.1905 33.1676 10.2217C32.508 10.2528 32.1289 9.81677 32.0354 8.89271H2.13985V44.0275H24.6602C23.9642 42.8231 23.289 41.6499 22.6554 40.5493C21.7413 40.8764 20.9103 41.2709 20.0377 41.4682C16.802 42.195 13.3844 39.7395 12.9793 36.443C12.6469 33.7176 13.6961 31.6462 16.0229 30.229C17.4772 29.3465 18.973 28.5314 20.4376 27.6593C20.7908 27.4516 21.1284 27.1713 21.3777 26.8495C25.2263 21.9644 29.0541 17.0638 32.8872 12.1684C33.6091 11.2444 34.3986 11.3015 34.9907 12.3294C36.1333 14.3021 37.2707 16.2799 38.4082 18.2578C38.5017 18.424 38.6056 18.5849 38.699 18.7406C41.3687 18.1073 43.3008 19.3376 44.1785 20.9054C45.3731 23.0338 44.9784 25.0169 43.3579 26.8287C44.4226 28.6768 45.4925 30.5249 46.5573 32.3782C46.7754 32.7572 47.0143 33.1309 47.2117 33.5203C47.5753 34.2367 47.2013 34.9894 46.4067 35.1036C43.4358 35.5345 40.4701 35.955 37.4993 36.3755C36.4086 36.5312 35.3179 36.687 34.17 36.8479C34.17 37.0763 34.17 37.284 34.17 37.4864C34.17 41.4941 34.17 45.5018 34.17 49.5043C34.17 52.2505 32.4405 53.9844 29.7034 53.9844C21.2998 53.9844 12.9014 53.9585 4.49784 54C2.33202 54.0104 0.488218 52.6918 0.0779071 50.636C0.0675195 50.5893 0.025969 50.5478 0 50.5062C0 34.8285 0 19.1559 0 3.47818C0.280466 2.87079 0.498605 2.22188 0.856978 1.66122C1.45946 0.716401 2.45148 0.306287 3.47985 0H30.6954ZM2.10869 46.1975C2.10869 47.2824 2.10869 48.3207 2.10869 49.3538C2.10869 51.124 2.86698 51.8768 4.64326 51.8768C12.9326 51.8768 21.2271 51.8768 29.5164 51.8768C29.7086 51.8768 29.9059 51.882 30.0981 51.8664C31.0745 51.7729 31.8848 51.2019 31.9523 50.2986C32.0562 48.9437 31.9783 47.5784 31.9783 46.2027H2.10869V46.1975ZM30.6642 18.5122C30.5655 18.6057 30.524 18.6368 30.4928 18.6783C28.0569 21.7879 25.621 24.9027 23.1696 28.0019C22.9514 28.2771 23.0917 28.438 23.2111 28.6456C24.4836 30.8468 25.7613 33.0479 27.0182 35.2594C27.2052 35.5864 27.4025 35.6695 27.7713 35.6176C30.6486 35.1919 33.5364 34.7922 36.4138 34.3769C37.4421 34.2315 38.4705 34.0758 39.5612 33.92C36.5748 28.7547 33.6299 23.6516 30.6642 18.5174V18.5122ZM32.0614 6.72794C32.0614 6.00635 32.0614 5.32109 32.0614 4.64103C32.0614 2.8656 31.3083 2.10767 29.532 2.10767C21.2219 2.10767 12.917 2.10767 4.60691 2.10767C4.43032 2.10767 4.25373 2.10248 4.08233 2.11805C3.03318 2.2115 2.24892 2.8656 2.16062 3.8831C2.07752 4.81753 2.14504 5.76235 2.14504 6.72794H32.0614ZM21.305 29.5957C19.7001 30.5509 18.09 31.4178 16.5838 32.4301C14.9789 33.5099 14.5738 35.8304 15.571 37.5124C16.5682 39.1944 18.7133 39.9679 20.448 39.1217C22.0789 38.3274 23.637 37.367 25.2679 36.4586C23.9383 34.1536 22.6346 31.9006 21.305 29.5957ZM44.5888 33.2088C40.9635 26.9325 37.3902 20.7445 33.7753 14.4838C33.2715 15.1327 32.8249 15.7349 32.3366 16.3059C32.1081 16.5759 32.0925 16.7679 32.2743 17.0794C33.7286 19.5609 35.1621 22.0579 36.6007 24.5497C38.268 27.4361 39.9404 30.3224 41.5972 33.214C41.7582 33.4995 41.9296 33.6085 42.2568 33.5514C42.9995 33.4268 43.7474 33.3334 44.5888 33.2088ZM32.0302 37.1542C30.8252 37.3255 29.6566 37.4916 28.4153 37.6681C29.2619 39.1269 30.0669 40.5234 30.872 41.9146C31.4952 42.9892 31.4797 43.1294 30.7006 44.0223H32.0302V37.149V37.1542ZM28.7945 42.5791C27.9479 41.1152 27.1324 39.7135 26.3066 38.2859C25.6522 38.6649 25.0497 39.0127 24.4265 39.3761C25.2679 40.8296 26.0833 42.2417 26.9091 43.6693C27.5531 43.2955 28.1556 42.9477 28.7945 42.5791ZM39.8105 20.6874C40.6311 22.1046 41.4102 23.4595 42.2256 24.8664C42.8385 23.9008 42.906 22.9819 42.397 22.0579C41.8673 21.0871 40.9999 20.6874 39.8105 20.6874Z" fill="#2AD9FF"/>
<path d="M12.6573 14.0429C10.4084 14.0429 8.15947 14.0429 5.91055 14.0429C5.71838 14.0429 5.52102 14.0429 5.33404 14.0221C4.83543 13.965 4.49264 13.6224 4.43032 13.1448C4.3628 12.6257 4.60691 12.1844 5.08993 12.0235C5.30288 11.9508 5.5366 11.93 5.75993 11.93C10.398 11.93 15.0413 11.9249 19.6793 11.93C19.9234 11.93 20.1779 11.9508 20.4013 12.0339C20.8635 12.2104 21.0713 12.5945 21.0505 13.0721C21.0297 13.5653 20.635 13.9598 20.1468 14.0169C19.939 14.0429 19.7261 14.0429 19.5131 14.0429C17.2279 14.0429 14.9426 14.0429 12.6573 14.0429Z" fill="#2AD9FF"/>
<path d="M10.559 19.1038C8.99567 19.1038 7.43233 19.1038 5.869 19.1038C5.65605 19.1038 5.44311 19.109 5.24055 19.0727C4.80427 18.9844 4.5238 18.7145 4.43551 18.2732C4.34721 17.8216 4.46667 17.427 4.88737 17.1882C5.07954 17.0792 5.31326 16.9962 5.5314 16.9962C8.87102 16.9858 12.2054 16.9806 15.5451 16.9962C15.8047 16.9962 16.1008 17.1156 16.3189 17.2661C16.6929 17.5205 16.7656 17.9358 16.6461 18.3511C16.5215 18.7923 16.2047 19.0779 15.7268 19.0883C14.7972 19.109 13.8675 19.1038 12.9326 19.109C12.1431 19.109 11.3537 19.109 10.559 19.109V19.1038Z" fill="#2AD9FF"/>
<path d="M13.4468 24.1654C12.1639 24.1654 10.8862 24.1758 9.60335 24.1654C8.98009 24.1602 8.60094 23.8591 8.47629 23.34C8.31528 22.6651 8.83466 22.0681 9.62932 22.0577C10.5746 22.0421 11.5251 22.0577 12.4703 22.0577C14.0856 22.0577 15.7009 22.0525 17.3161 22.0577C18.1524 22.0577 18.6925 22.6495 18.5211 23.34C18.3965 23.8591 18.0121 24.1602 17.3941 24.1706C16.08 24.1809 14.7608 24.1706 13.4468 24.1706V24.1654Z" fill="#2AD9FF"/>
<path d="M47.8765 19.9865C47.3259 19.9346 46.9935 19.7529 46.8221 19.3324C46.6508 18.9171 46.7079 18.5381 47.0143 18.2163C47.1442 18.0813 47.3104 17.9671 47.4714 17.8685C49.0451 16.9548 50.624 16.0463 52.2029 15.1378C52.5769 14.9198 52.956 14.7692 53.3923 14.9873C54.0675 15.3247 54.2129 16.1813 53.6572 16.6952C53.465 16.8717 53.2313 17.0015 53.0028 17.1313C51.5174 17.993 50.0319 18.8548 48.5413 19.701C48.3024 19.836 48.0323 19.919 47.8765 19.9865Z" fill="#2AD9FF"/>
<path d="M53.1482 25.4996C53.1534 26.2263 52.5457 26.7766 51.9173 26.6261C50.9097 26.3873 49.9125 26.1225 48.9256 25.8214C48.292 25.6293 48.0167 25.0739 48.1933 24.508C48.3647 23.9577 48.8685 23.6566 49.4814 23.8072C50.4318 24.0408 51.3771 24.3004 52.3224 24.5599C52.8366 24.7001 53.1119 25.0531 53.1482 25.4996Z" fill="#2AD9FF"/>
<path d="M42.262 14.3174C42.4957 13.4816 42.771 12.4122 43.1138 11.3687C43.28 10.8703 43.8409 10.6523 44.3291 10.7873C44.8121 10.9223 45.1809 11.405 45.0718 11.9086C44.8381 12.9521 44.568 13.9851 44.2564 15.0078C44.1006 15.5166 43.5501 15.7606 43.0722 15.636C42.5528 15.501 42.2308 15.0805 42.2672 14.3174H42.262Z" fill="#2AD9FF"/>
<path d="M5.48985 24.1552C4.87179 24.1656 4.40435 23.7191 4.39915 23.1221C4.39915 22.5303 4.87698 22.0527 5.46908 22.0527C6.0404 22.0527 6.51823 22.5148 6.53381 23.0754C6.55458 23.6724 6.09753 24.1448 5.48466 24.1552H5.48985Z" fill="#2AD9FF"/>
<path d="M20.0065 19.0933C19.43 19.0933 18.9678 18.6417 18.9626 18.0654C18.9574 17.4996 19.4196 17.0116 19.9806 16.9908C20.5415 16.9701 21.0765 17.4996 21.0713 18.0602C21.0661 18.6157 20.5779 19.0881 20.0117 19.0881L20.0065 19.0933Z" fill="#2AD9FF"/>
<path d="M18.1368 48.9126C18.1264 49.4629 17.6278 49.9613 17.0824 49.9561C16.5111 49.9561 16.0177 49.4318 16.0385 48.8555C16.0593 48.2845 16.5319 47.8432 17.1136 47.8588C17.6849 47.8692 18.1472 48.3468 18.1368 48.9126Z" fill="#2AD9FF"/>
<path d="M17.0772 5.48236C15.8671 5.48236 14.6569 5.48236 13.4468 5.48236C12.7092 5.48236 12.2522 5.07744 12.2418 4.45448C12.2314 3.81076 12.7041 3.38507 13.4624 3.37988C15.8827 3.37988 18.303 3.37988 20.7233 3.37988C21.4504 3.37988 21.9231 3.79519 21.9334 4.41295C21.9438 5.05148 21.466 5.47717 20.7077 5.48236C19.4976 5.48755 18.2874 5.48236 17.0772 5.48236Z" fill="#2AD9FF"/>
</g>
<defs>
<clipPath id="clip0_159_1270">
<rect width="54" height="54" fill="white"/>
</clipPath>
</defs>
</svg>
