<svg width="13" height="15" viewBox="0 0 13 15" fill="none" xmlns="http://www.w3.org/2000/svg">
<path d="M8.20658 10.2563C9.65071 11.5522 11.0918 12.8455 12.5598 14.1626H0.569824C2.01131 12.8525 3.4354 11.5581 4.86668 10.257C5.11688 10.4825 5.35839 10.6989 5.59952 10.9166C5.83044 11.1252 6.06098 11.3342 6.29153 11.5428C6.46312 11.6982 6.57953 11.7025 6.75149 11.5499C7.20616 11.1467 7.65894 10.7412 8.11285 10.3365C8.14082 10.3114 8.16955 10.288 8.20696 10.2559L8.20658 10.2563Z" fill="#144973"/>
<path d="M0.559082 5.5916C1.11428 5.5916 1.62338 5.59004 2.13247 5.59434C2.17102 5.59434 2.2228 5.62448 2.2451 5.65736C2.66689 6.27854 3.24098 6.57445 3.97458 6.53531C3.9931 6.53414 4.01161 6.53805 4.03693 6.54001C4.22742 7.01049 4.41791 7.48215 4.60915 7.95303C4.82798 8.49162 5.31061 8.67754 5.8129 8.41764C5.91381 8.36558 6.01547 8.31352 6.11487 8.25794C6.53742 8.02231 6.69011 7.58979 6.51058 7.12909C6.3628 6.7502 6.20898 6.37366 6.04949 5.97441C6.12886 5.96658 6.19613 5.9564 6.26378 5.95406C7.07901 5.92548 7.88328 5.99163 8.65996 6.27032C8.74311 6.30007 8.82399 6.36074 8.88559 6.42728C9.22612 6.79443 9.63355 6.9373 10.1056 6.79169C10.5761 6.64608 10.8505 6.30164 10.931 5.7971C10.9409 5.73447 10.9477 5.67145 10.9575 5.59982H12.5596C10.5327 7.40896 8.53259 9.19421 6.52684 10.9846C4.54452 9.19265 2.56786 7.40622 0.55946 5.59082L0.559082 5.5916Z" fill="#144973"/>
<path d="M5.18286 2.88298C5.37713 2.77808 5.57101 2.68023 5.75923 2.57102C6.53364 2.1205 7.23699 1.57878 7.79257 0.851133C7.83264 0.798292 7.86438 0.723531 7.86703 0.657773C7.88063 0.309802 8.0953 0.0502923 8.42034 0.00488779C8.70909 -0.0354282 8.99557 0.177503 9.08023 0.501597C9.21553 1.01827 9.34706 1.53572 9.48085 2.05279C9.49673 2.11346 9.51486 2.17373 9.53527 2.24654C9.78509 2.16199 10.019 2.18156 10.2337 2.34048C10.3822 2.45047 10.4737 2.60038 10.5157 2.782C10.609 3.18594 10.3917 3.51825 9.90907 3.70105C10.0247 4.14922 10.1404 4.59857 10.256 5.04831C10.2934 5.19391 10.3331 5.33913 10.3671 5.48591C10.4374 5.78965 10.2855 6.09535 10.0081 6.21512C9.72916 6.33568 9.42303 6.22921 9.25333 5.96618C9.21024 5.89925 9.13957 5.83545 9.06814 5.80688C8.17165 5.44599 7.23661 5.33913 6.28192 5.37397C6.13641 5.37906 5.95236 5.44051 5.85636 5.37123C5.76301 5.3039 5.75544 5.1035 5.71765 4.95985C5.54191 4.28817 5.36843 3.61611 5.1942 2.94404C5.18967 2.92604 5.1874 2.90725 5.18286 2.88337V2.88298Z" fill="#144973"/>
<path d="M0.0474306 13.8638C0.0277775 13.753 0.00170075 13.6743 0.00170075 13.5957C-0.000566918 11.1203 -0.000566918 8.64502 0.00170075 6.1693C0.00170075 6.08984 0.026651 6.01038 0.0455483 5.89844C1.52105 7.232 2.97159 8.54286 4.44066 9.87055C2.97991 11.1982 1.52709 12.5189 0.0470523 13.8638H0.0474306Z" fill="#144973"/>
<path d="M12.9999 5.97461V13.7889C11.5335 12.4729 10.0931 11.1809 8.63428 9.87196C10.0852 8.57676 11.5282 7.2886 12.9999 5.975V5.97461Z" fill="#144973"/>
<path d="M4.62254 2.97852C4.85044 3.8596 5.07381 4.72228 5.30549 5.61902C4.80283 5.73645 4.31906 5.90045 3.82471 5.95173C3.20714 6.01592 2.64778 5.49533 2.52722 4.84166C2.41157 4.21461 2.77591 3.5449 3.37004 3.34097C3.77482 3.20202 4.19169 3.10181 4.62254 2.97891V2.97852Z" fill="#144973"/>
<path d="M4.58729 6.39993C4.90325 6.31186 5.20069 6.22928 5.5091 6.14355C5.68106 6.5749 5.85379 6.99411 6.01441 7.4184C6.06052 7.54013 6.00458 7.65169 5.89535 7.71705C5.76534 7.79456 5.63193 7.86736 5.49512 7.93116C5.37228 7.98831 5.22942 7.95112 5.17688 7.829C4.97506 7.35969 4.78571 6.88451 4.58691 6.40032L4.58729 6.39993Z" fill="#144973"/>
<path d="M10.2909 1.32962C10.3393 1.2349 10.3597 1.16092 10.405 1.11199C10.6133 0.88732 10.8261 0.666951 11.0415 0.449714C11.1659 0.324461 11.3189 0.326026 11.43 0.442669C11.5393 0.557746 11.5385 0.716661 11.4176 0.845438C11.2112 1.06502 10.9996 1.27952 10.7898 1.49637C10.7002 1.58913 10.5849 1.62162 10.4818 1.55782C10.4035 1.50928 10.3552 1.40986 10.2905 1.32923L10.2909 1.32962Z" fill="#144973"/>
<path d="M12.1244 4.47995C11.9207 4.42476 11.6807 4.35979 11.4407 4.29403C11.3545 4.27015 11.2676 4.24862 11.1845 4.21614C11.0477 4.1629 10.9815 4.02982 11.014 3.88852C11.0435 3.76013 11.1675 3.65641 11.3013 3.6885C11.6297 3.76718 11.9559 3.85799 12.2786 3.95897C12.4015 3.99733 12.4513 4.14059 12.4219 4.27367C12.3962 4.3911 12.2866 4.47799 12.124 4.47956L12.1244 4.47995Z" fill="#144973"/>
<path d="M11.5595 2.75298C11.3615 2.75533 11.2632 2.67822 11.2304 2.54358C11.1994 2.41636 11.2523 2.26997 11.3751 2.23083C11.6843 2.13259 11.9972 2.04687 12.3113 1.9678C12.4239 1.93962 12.5501 2.03708 12.5868 2.14981C12.6299 2.28172 12.5853 2.4422 12.4598 2.48486C12.1442 2.59133 11.8215 2.67627 11.5592 2.75338L11.5595 2.75298Z" fill="#144973"/>
</svg>
