<svg width="50" height="50" viewBox="0 0 50 50" fill="none" xmlns="http://www.w3.org/2000/svg">
<g clip-path="url(#clip0_159_1268)">
<path d="M0 19.9359C0.279302 19.2258 0.862407 18.9026 1.53861 18.6382C6.44355 16.694 11.3387 14.7351 16.2289 12.7616C16.8904 12.4922 17.4882 12.4922 18.1497 12.7616C21.0947 13.9663 24.0543 15.1318 27.0041 16.3169C27.9351 16.694 28.3418 17.4922 28.0429 18.3296C27.7195 19.2503 26.8081 19.6176 25.8036 19.216C23.6623 18.3639 21.5259 17.502 19.3846 16.645C19.1935 16.5667 18.9975 16.4981 18.7426 16.4051V16.9682C18.7426 24.838 18.7426 32.7126 18.7328 40.5823C18.7328 40.9888 18.8554 41.1651 19.2327 41.3169C23.0351 42.8203 26.8277 44.3434 30.6252 45.8615C30.8163 45.9398 31.0123 46.0035 31.2426 46.0868V45.455C31.2426 40.2346 31.2426 35.0143 31.2426 29.7939C31.2426 28.5549 32.3599 27.7665 33.433 28.2562C34.0896 28.5598 34.3689 29.0985 34.3689 29.8233C34.3591 34.0006 34.3689 38.1827 34.3689 42.36C34.3689 43.5794 34.3689 44.7988 34.3689 46.0721C34.5306 46.0182 34.6629 45.9839 34.7903 45.9349C38.6809 44.3825 42.5666 42.8252 46.4573 41.2875C46.7856 41.1553 46.8787 40.9888 46.8787 40.646C46.8689 34.9359 46.8689 29.2307 46.8738 23.5206C46.8738 22.311 47.9812 21.5324 49.0396 21.9976C49.657 22.2719 49.9902 22.7665 49.9951 23.457C49.9951 24.9065 49.9951 26.3512 49.9951 27.8008C49.9951 32.4824 49.9951 37.169 49.9951 41.8507C49.9951 42.9134 49.7011 43.359 48.7309 43.7459C43.5907 45.7978 38.4506 47.8497 33.3154 49.9016C33.2713 49.9163 33.237 49.9555 33.2027 49.9849H32.4236C32.4236 49.9849 32.3795 49.931 32.355 49.9212C27.4304 47.9526 22.5108 45.9839 17.5764 44.0397C17.3265 43.9418 16.9688 43.9712 16.7091 44.0691C13.7789 45.22 10.8634 46.3904 7.94296 47.5608C5.94375 48.3639 3.94943 49.1769 1.95512 49.9849H1.17601C0.627205 49.7547 0.240102 49.3581 0.00490004 48.8145V19.9359H0ZM15.6066 16.4198C15.4547 16.4687 15.3371 16.503 15.2195 16.552C11.3142 18.1142 7.41376 19.6764 3.50843 21.2239C3.19483 21.3512 3.12132 21.5177 3.12132 21.836C3.13112 29.7547 3.12622 37.6783 3.13112 45.597C3.13112 45.7488 3.14583 45.9007 3.15563 46.077C3.29283 46.0329 3.38593 46.0084 3.47413 45.9741C7.40886 44.4021 11.3387 42.8252 15.2734 41.2631C15.5723 41.1455 15.6409 40.9839 15.6409 40.6852C15.6311 32.7322 15.636 24.7792 15.636 16.8262C15.636 16.6989 15.6262 16.5765 15.6164 16.4149L15.6066 16.4198Z" fill="#D094FF"/>
<path d="M39.0631 0C44.5659 0.029383 49.2062 4.1381 49.9118 9.57884C50.147 11.4055 49.7697 13.095 49.069 14.7502C47.8979 17.5073 46.276 19.9951 44.463 22.3604C43.1301 24.1038 41.7336 25.7982 40.3273 27.4829C39.5825 28.379 38.5633 28.379 37.8087 27.5122C35.0206 24.3242 32.4089 21.0039 30.3165 17.3115C29.5129 15.8962 28.822 14.4368 28.4055 12.8501C27.8273 10.6562 28.1556 8.55044 29.0719 6.53771C30.586 3.19785 33.1831 1.12635 36.7454 0.269344C37.0296 0.200784 37.3187 0.161606 37.6127 0.132223C38.0978 0.0783546 38.5829 0.0440744 39.068 0L39.0631 0ZM39.0435 24.1871C39.3669 23.7953 39.6266 23.4868 39.8814 23.1685C42.1991 20.2693 44.4042 17.2968 46.0114 13.9275C46.4818 12.9383 46.8885 11.9197 46.8591 10.808C46.7562 6.84623 43.8504 3.65328 39.8961 3.22723C36.8777 2.90402 34.4228 4.04505 32.6833 6.50833C31.0074 8.87855 30.8212 11.4006 32.1492 14.0451C33.3889 16.5132 34.8981 18.7953 36.5445 20.9941C37.3432 22.0568 38.1811 23.0852 39.0435 24.1822V24.1871Z" fill="#D094FF"/>
<path d="M34.3787 10.9356C34.3934 8.36948 36.52 6.26371 39.0827 6.2784C41.6503 6.29309 43.7573 8.41846 43.7476 10.9797C43.7328 13.5458 41.6062 15.6516 39.0386 15.6418C36.471 15.6271 34.364 13.5017 34.3787 10.9356ZM39.0484 9.39789C38.2154 9.40768 37.4951 10.1423 37.5049 10.9699C37.5147 11.8024 38.2497 12.5223 39.0778 12.5125C39.9108 12.5027 40.636 11.7632 40.6213 10.9405C40.6115 10.108 39.8765 9.38809 39.0484 9.39789Z" fill="#D094FF"/>
</g>
<defs>
<clipPath id="clip0_159_1268">
<rect width="50" height="50" fill="white"/>
</clipPath>
</defs>
</svg>
