<svg width="149" height="149" viewBox="0 0 149 149" fill="none" xmlns="http://www.w3.org/2000/svg">
<g clip-path="url(#clip0_436_3602)">
<path d="M18.3873 127.246C21.4211 130.432 24.2916 132.487 26.5593 134.11C53.2177 153.192 84.7618 147.63 91.4656 146.271C101.365 144.265 120.501 140.388 134.336 124.157C155.267 99.6018 152.008 60.9148 135.772 35.3775C132.803 30.706 117.116 4.77948 85.2317 0.621812C65.9363 -1.89453 43.4435 3.18058 27.1552 16.7943C-7.03564 45.3713 -4.60153 103.101 18.3873 127.246Z" fill="url(#paint0_linear_436_3602)"/>
<path d="M146.375 50.2519C146.52 50.1851 146.622 50.0398 146.622 49.8722C146.624 49.3207 146.615 48.7596 146.594 48.2049C146.586 47.9769 146.39 47.8024 146.159 47.8151C145.596 47.8422 145.788 48.3905 145.782 49.8833C145.781 50.1114 145.969 50.2938 146.201 50.2906C146.263 50.2896 146.322 50.2758 146.375 50.2514L146.375 50.2519Z" fill="#91B3FA"/>
<path d="M146.06 43.0426C145.882 41.9973 145.66 40.9468 145.4 39.9201C145.344 39.6995 145.116 39.5685 144.89 39.6274C144.277 39.7912 144.707 40.1121 145.231 43.1921C145.269 43.4165 145.485 43.5649 145.714 43.5236C145.947 43.4817 146.098 43.2643 146.06 43.0426ZM143.806 34.9914C143.415 34.0013 142.976 33.0085 142.517 32.0746C142.272 31.5724 141.523 31.9633 141.759 32.4437C142.216 33.375 142.639 34.3327 143.022 35.3021C143.106 35.5137 143.349 35.615 143.566 35.5291C143.785 35.4421 143.889 35.2003 143.806 34.9908V34.9914ZM139.94 27.5813C139.354 26.6988 138.726 25.8286 138.07 24.9949C137.732 24.5654 137.065 25.0793 137.401 25.5072C138.043 26.3244 138.66 27.1772 139.234 28.0416C139.536 28.4966 140.241 28.0352 139.94 27.5818V27.5813ZM134.595 21.7128C134.76 21.55 134.762 21.288 134.599 21.1289C133.839 20.386 133.039 19.6637 132.221 18.9822C131.8 18.6317 131.25 19.266 131.67 19.6165C132.473 20.2847 133.257 20.9921 134.001 21.7197C134.164 21.8793 134.43 21.8762 134.595 21.7134V21.7128ZM128.126 16.4802C128.254 16.2882 128.202 16.0326 128.008 15.9096C127.107 15.3369 126.172 14.7922 125.228 14.2911C124.742 14.0344 124.333 14.7615 124.819 15.0197C125.744 15.5108 126.66 16.0443 127.543 16.6054C127.736 16.7284 127.997 16.6722 128.126 16.4797V16.4802ZM120.472 12.8926C120.568 12.8486 120.647 12.7701 120.689 12.6667C120.776 12.4535 120.672 12.2149 120.457 12.1332C119.453 11.7535 118.422 11.4083 117.392 11.1076C117.17 11.0429 116.934 11.1675 116.864 11.3865C116.795 11.6056 116.917 11.8352 117.139 11.8999C118.148 12.1947 119.159 12.5331 120.142 12.9048C120.253 12.9467 120.371 12.9388 120.472 12.8926ZM112.356 10.7337C112.479 10.6775 112.572 10.5656 112.598 10.4261C112.639 10.2008 112.487 9.98863 112.259 9.95204C111.195 9.78181 110.111 9.65135 109.036 9.56332C108.805 9.54423 108.599 9.7134 108.576 9.9409C108.552 10.1679 108.721 10.3678 108.952 10.3864C110.006 10.4723 111.068 10.6006 112.11 10.7671C112.196 10.7809 112.282 10.7671 112.356 10.7332V10.7337ZM104.182 9.85977C104.176 9.63173 103.982 9.45567 103.751 9.46574C102.672 9.51347 101.579 9.60416 100.503 9.73567C99.9482 9.80461 100.041 10.6224 100.592 10.5555C101.646 10.4272 102.717 10.3381 103.774 10.2914C104.005 10.2814 104.189 10.0883 104.182 9.8603V9.85977ZM77.9295 20.6989C80.3073 18.6062 80.875 18.5972 80.4933 18.1024C80.3546 17.9221 80.0915 17.8898 79.9054 18.0287C79.0395 18.6794 78.1884 19.372 77.3756 20.0874C76.9583 20.4544 77.5112 21.0664 77.93 20.6989H77.9295ZM95.7965 11.0015C95.7429 10.7804 95.5164 10.6473 95.2905 10.704C94.2401 10.9676 93.1854 11.2752 92.1557 11.6183C91.6263 11.7949 91.8846 12.5766 92.413 12.4C93.4225 12.0638 94.4559 11.762 95.485 11.5037C95.7136 11.4459 95.8497 11.22 95.7965 11.001V11.0015ZM84.7486 15.8247C87.4964 14.2518 88.0599 14.3542 87.7898 13.7894C87.6187 13.4314 87.1806 13.6006 87.2311 13.599C86.2488 14.0657 85.2744 14.5753 84.3351 15.1125C84.1331 15.2281 84.0619 15.4816 84.1761 15.6778C84.2851 15.8656 84.5334 15.9441 84.7486 15.8247Z" fill="#91B3FA"/>
<path d="M73.1713 25.6441C74.0622 24.549 74.6358 24.1587 74.2068 23.7954C74.033 23.648 73.7672 23.6676 73.6136 23.8426C72.6466 24.9382 72.1538 25.3826 72.5796 25.7146C72.7072 25.8143 73.0246 25.8228 73.1708 25.6441H73.1713Z" fill="#91B3FA"/>
<path d="M64.0738 56.433C64.237 56.3577 64.3412 56.1854 64.3183 56.0019C64.2508 55.4631 64.1939 54.9174 64.1493 54.3786C64.1301 54.1516 63.9276 53.9856 63.6958 54.0084C63.4651 54.0318 63.2924 54.2333 63.311 54.4603C63.3567 55.0097 63.4152 55.567 63.4837 56.117C63.5119 56.3429 63.7219 56.5004 63.9521 56.4686C63.9951 56.4627 64.0361 56.4505 64.0738 56.433Z" fill="#91B3FA"/>
<path d="M123.126 86.9984C124.175 86.4814 125.214 85.915 126.215 85.3147C126.415 85.1948 126.481 84.9403 126.362 84.7462C126.028 84.1994 125.828 84.7483 122.761 86.2608C122.552 86.3637 122.464 86.6124 122.565 86.816C122.742 87.1719 123.177 86.9963 123.127 86.9979L123.126 86.9984ZM118.115 88.6573C117.912 88.0511 117.579 88.5486 114.28 89.3737C114.054 89.4294 113.914 89.6553 113.968 89.8759C114.022 90.0971 114.248 90.2302 114.474 90.174C115.602 89.8918 116.737 89.5583 117.846 89.1823C118.068 89.107 118.186 88.871 118.115 88.6567V88.6573ZM130.902 82.0575C131.811 81.3294 132.702 80.5541 133.549 79.7533C133.718 79.5937 133.725 79.3322 133.565 79.1689C133.116 78.7091 133.045 79.2866 130.378 81.4201C130.196 81.5654 130.166 81.8258 130.311 82.0018C130.455 82.1774 130.719 82.2023 130.901 82.0575H130.902ZM108.99 91.1492C109.15 91.076 109.254 90.9095 109.236 90.7287C109.214 90.5022 109.008 90.3389 108.778 90.3649C107.641 90.4916 106.487 90.5717 105.349 90.6035C105.116 90.6099 104.931 90.7997 104.933 91.0278C104.936 91.2558 105.126 91.4356 105.358 91.4292C106.52 91.3969 107.698 91.3152 108.858 91.1858C108.905 91.1805 108.95 91.1678 108.99 91.1492ZM99.9046 91.1672C100.033 91.1078 100.13 90.9864 100.149 90.8385C100.178 90.612 100.015 90.4078 99.785 90.3829C98.6549 90.2615 97.5162 90.0907 96.3999 89.8754C96.1729 89.8314 95.9496 89.9778 95.9013 90.2015C95.8529 90.4253 95.9975 90.6422 96.2245 90.6863C97.3636 90.9058 98.5257 91.0803 99.6792 91.2044C99.759 91.2129 99.836 91.1991 99.9041 91.1678L99.9046 91.1672ZM91.0681 89.2252C91.168 89.1791 91.2504 89.0953 91.2908 88.985C91.3695 88.7692 91.2563 88.5342 91.0383 88.4605C89.9661 88.0983 88.8966 87.6868 87.8595 87.2371C87.6484 87.1459 87.3991 87.2408 87.3024 87.4497C87.2056 87.6587 87.2981 87.9026 87.5092 87.9938C88.5675 88.4526 89.6589 88.8726 90.7529 89.2422C90.8597 89.2783 90.9719 89.2692 91.0681 89.2247V89.2252ZM82.9057 85.4287C82.9779 85.3953 83.0417 85.3417 83.0874 85.2707C83.2118 85.0761 83.1539 84.8215 82.9577 84.7027C81.995 84.1188 81.0462 83.4862 80.1377 82.8238C79.9527 82.6891 79.6896 82.7284 79.5487 82.9129C79.4084 83.0969 79.444 83.3552 79.629 83.4899C80.5561 84.166 81.5241 84.8114 82.507 85.4075C82.6308 85.4828 82.7807 85.4855 82.9051 85.4282L82.9057 85.4287ZM75.935 79.8721C76.397 79.4112 75.8117 79.3667 73.6146 76.8387C73.2569 76.4266 72.6131 76.9697 72.9714 77.3817C73.721 78.244 74.5178 79.0851 75.3407 79.8816C75.5039 80.0397 75.7697 80.037 75.935 79.8721ZM70.1913 73.0374C70.7441 72.6863 70.1881 72.5198 68.6178 69.566C68.3631 69.0871 67.6152 69.4769 67.8714 69.9584C68.4073 70.9665 68.9925 71.9619 69.6118 72.9181C69.7373 73.1116 70.0004 73.161 70.1913 73.0374ZM66.1725 65.0938C66.3702 65.0031 66.4696 64.7778 66.3952 64.5752C66.0104 63.5209 65.668 62.4417 65.3767 61.3684C65.3172 61.1488 65.087 61.0215 64.8627 61.0836C64.6378 61.1472 64.5049 61.3742 64.5645 61.5937C64.8616 62.6894 65.2114 63.7903 65.6037 64.8658C65.6813 65.0795 65.9221 65.1871 66.1406 65.1071C66.1518 65.1034 66.1624 65.0986 66.1725 65.0938Z" fill="#91B3FA"/>
<path d="M137.426 75.551C138.343 74.4119 138.813 73.9473 138.372 73.6355C137.912 73.3104 137.709 73.8789 136.77 75.0461C136.625 75.2264 136.655 75.4863 136.835 75.6258C137.017 75.7652 137.281 75.7318 137.426 75.5515L137.426 75.551Z" fill="#91B3FA"/>
<path d="M132.099 65.4712L126.082 65.1557C124.416 67.4164 122.376 69.439 120.005 71.118C120.179 76.8719 120.6 77.2633 120 77.511L113.288 80.2808C113.092 80.3614 112.867 80.3121 112.729 80.1578L108.778 75.7508C105.913 76.2329 103.04 76.2377 100.265 75.8097L96.2207 80.2776C96.0788 80.4341 95.8534 80.4865 95.6589 80.4086L89.0024 77.7358C88.8078 77.6579 88.6871 77.4659 88.702 77.2585L89.1278 71.3381C86.8564 69.7397 84.8342 67.7691 83.1667 65.4675L77.1465 65.87C76.9355 65.8843 76.7409 65.765 76.6617 65.5741L73.9596 59.0242C73.8804 58.8328 73.9347 58.6111 74.0947 58.4721L78.6477 54.5118C78.207 51.7032 78.2516 48.8798 78.7359 46.1445C74.446 42.2461 73.8847 42.2822 74.1367 41.6967C77.0317 35.2815 76.8041 34.7687 77.4633 34.8032L83.4803 35.1187C85.1463 32.858 87.1865 30.8354 89.5579 29.1564C89.3835 23.4057 88.962 23.0111 89.5627 22.7634C96.2787 20.1257 96.4095 19.6425 96.8342 20.1166L100.785 24.5236C103.651 24.0415 106.523 24.0362 109.298 24.4647C113.29 20.2323 113.304 19.625 113.904 19.8658C120.444 22.6266 120.906 22.3763 120.861 23.0159L120.435 28.9363C122.706 30.5347 124.728 32.5053 126.396 34.8074C132.151 34.5407 132.655 34.1026 132.902 34.7008C135.457 41.2285 135.961 41.3743 135.469 41.8028L130.916 45.7637C131.356 48.5717 131.311 51.3951 130.827 54.131C135.102 58.0161 135.68 57.9906 135.427 58.5787C132.532 64.994 132.759 65.5068 132.1 65.4723L132.099 65.4712Z" fill="#91B3FA"/>
<path d="M111.772 49.0813C111.246 45.3023 107.683 42.7011 103.829 43.2834C99.9748 43.8667 97.2658 47.4135 97.7905 51.1925C98.3157 54.9715 101.879 57.5727 105.733 56.991C109.589 56.4087 112.296 52.8598 111.772 49.0818V49.0813ZM105.648 56.3779L105.645 56.3795L105.648 56.3779ZM103.999 44.5079C107.127 44.0354 110.084 46.1195 110.522 49.2696C110.954 52.3735 108.729 55.2881 105.563 55.7654C102.398 56.2432 99.4714 54.1071 99.0397 51.0037C98.6075 47.8955 100.839 44.9846 103.999 44.5084V44.5079Z" fill="#BDD0FB"/>
<path d="M112.081 66.1473C113.031 65.7103 113.944 65.1954 114.801 64.6105C115.058 64.4349 115.146 64.1077 115.023 63.8399C115.008 63.8081 114.99 63.7768 114.97 63.7471C114.775 63.4671 114.382 63.4003 114.094 63.596C113.109 64.2684 112.043 64.8422 110.929 65.3025C102.535 68.7665 92.9877 65.1026 89.3043 57.1299C89.2102 56.9262 89.1204 56.7199 89.0337 56.5104C85.5476 48.0588 89.7679 38.3827 98.3609 34.8339C106.943 31.2924 116.775 35.1982 120.256 43.6259C122.325 48.6432 121.08 52.1963 121.317 52.7113C121.574 53.2676 122.417 53.1408 122.515 52.5342C123.049 49.2192 122.629 45.7143 121.134 42.4778C114.684 28.5141 94.1555 29.0852 88.0025 43.3857C86.109 47.7868 86.0595 52.619 87.8637 56.9936C87.9568 57.22 88.0546 57.4438 88.1566 57.6649C90.0267 61.7144 93.3396 64.8518 97.5545 66.5445C102 68.3296 106.916 68.2935 111.398 66.4438C111.627 66.3494 111.855 66.2502 112.079 66.1468L112.081 66.1473Z" fill="#BDD0FB"/>
<path d="M59.6877 39.9046C58.6708 41.1004 57.4551 42.1436 56.0692 42.9762L56.0017 46.3315C55.9943 46.7037 55.6753 46.56 51.967 47.8248C51.6236 47.9351 51.6619 47.6154 49.6408 45.0444C48.0285 45.1764 46.4316 45.0386 44.9055 44.6604L42.4777 46.9869C42.2077 47.2452 42.0849 46.918 38.5663 45.1971C38.4611 45.1436 38.4021 45.029 38.4185 44.9129L38.8927 41.5883C37.694 40.5738 36.6484 39.361 35.8138 37.9785C32.6009 37.847 32.3053 38.0686 32.1926 37.7197C31.0322 33.902 30.76 33.798 31.0503 33.5806L33.7406 31.5654C33.6083 29.9569 33.7465 28.3634 34.1255 26.8414L31.7934 24.4194C31.5345 24.1511 31.8625 24.0275 33.5875 20.5174C33.7507 20.1986 33.9373 20.4484 37.2055 20.843C38.2224 19.6471 39.4376 18.604 40.8234 17.7714L40.8909 14.4161C40.8984 14.0433 41.2173 14.1875 44.9257 12.9227C45.2669 12.813 45.2207 13.1189 47.2513 15.7037C48.8636 15.5716 50.461 15.7095 51.9867 16.0876L54.4144 13.7612C54.4995 13.6795 54.627 13.6609 54.7323 13.7145L58.3258 15.551C58.4305 15.6045 58.4901 15.7191 58.4736 15.8352L57.9994 19.1598C59.1981 20.1742 60.2437 21.3865 61.0783 22.7696C64.2912 22.9011 64.5868 22.6794 64.6995 23.0284C65.8594 26.8445 66.1326 26.9495 65.8418 27.1675L63.1515 29.1827C63.2839 30.7911 63.1457 32.3847 62.7666 33.9067C64.9456 36.2661 65.3134 36.3181 65.1455 36.6453L63.3046 40.2302C63.1398 40.5505 62.9378 40.297 59.6866 39.9046H59.6877Z" fill="#91B3FA"/>
<path d="M52.6517 30.1023C52.5007 27.7843 50.4988 26.0295 48.1747 26.1796C45.8517 26.3297 44.0921 28.3274 44.2426 30.6454C44.393 32.9581 46.4013 34.7177 48.7196 34.5681C51.0378 34.418 52.8016 32.415 52.6517 30.1018V30.1023ZM48.6792 33.9434L48.6754 33.945L48.6792 33.9434ZM51.3987 30.1829C51.504 31.8068 50.2654 33.2132 48.6388 33.3182C46.0255 33.4868 44.4908 30.3967 46.2254 28.4271C47.952 26.466 51.2286 27.5595 51.3987 30.1829Z" fill="#BDD0FB"/>
<path d="M69.5943 36.6618C69.7564 36.1209 69.8989 35.5662 70.018 35.013C70.0663 34.7877 69.9228 34.5655 69.6969 34.5172C69.1281 34.3952 69.2089 35.029 68.7921 36.4232C68.7257 36.6443 68.8522 36.8766 69.0733 36.9429C69.2939 37.0086 69.5278 36.884 69.5943 36.6623V36.6618Z" fill="#91B3FA"/>
<path d="M70.4895 29.4506C70.4427 28.3427 70.3098 27.1893 70.0791 26.0353C69.9706 25.4923 69.1499 25.6588 69.2583 26.1992C69.8574 29.1891 69.3896 29.9156 70.0897 29.8859C70.3226 29.8759 70.4996 29.6802 70.49 29.4511L70.4895 29.4506ZM68.1 21.3028C68.3079 21.2021 68.3945 20.9517 68.2935 20.7444C67.7917 19.7161 67.2038 18.7181 66.5457 17.7783C66.2283 17.326 65.542 17.8038 65.8594 18.2567C66.4925 19.1603 67.0581 20.1202 67.5408 21.1098C67.7183 21.4741 68.151 21.3012 68.1005 21.3028H68.1ZM62.6912 14.3414C62.7443 14.317 62.7932 14.2809 62.8336 14.2337C62.9841 14.0582 62.9633 13.7952 62.7879 13.6445C61.9156 12.9 60.9784 12.218 60.0019 11.6182C59.8052 11.4973 59.5468 11.5588 59.4262 11.7545C59.305 11.9507 59.3661 12.2085 59.5628 12.3288C60.5021 12.9063 61.4042 13.5623 62.2436 14.2788C62.3722 14.388 62.5471 14.4066 62.6912 14.3408V14.3414ZM54.9588 10.0973C55.0635 10.049 55.1475 9.95833 55.1841 9.84007C55.2522 9.61946 55.1278 9.38612 54.9067 9.31877C53.8095 8.98361 52.6772 8.73224 51.5401 8.57315C51.311 8.54133 51.0995 8.70043 51.067 8.92899C51.0351 9.15703 51.1946 9.36862 51.4237 9.40044C52.5172 9.5537 53.6064 9.79499 54.6616 10.1174C54.7637 10.1487 54.8689 10.1392 54.9593 10.0978L54.9588 10.0973ZM46.4098 8.86853C46.3838 8.63944 46.1765 8.47451 45.9468 8.5005C44.8029 8.62989 43.6637 8.84891 42.5606 9.15225C42.028 9.29597 42.2475 10.1042 42.7834 9.95727C43.8444 9.6656 44.9405 9.45453 46.0415 9.33044C46.2769 9.30286 46.4359 9.09286 46.4104 8.86853H46.4098Z" fill="#91B3FA"/>
<path d="M36.415 12.9191C37.6797 12.0499 38.2367 11.9603 37.9529 11.4724C37.837 11.273 37.585 11.2014 37.3809 11.3207C36.8929 11.6028 36.4081 11.9094 35.9398 12.2313C35.7495 12.3623 35.7016 12.6221 35.8329 12.812C35.9621 12.9986 36.2205 13.0511 36.415 12.9186V12.9191Z" fill="#91B3FA"/>
<path d="M27.3861 27.6698C27.5817 26.1446 27.8858 25.6753 27.3324 25.5607C27.1059 25.5141 26.8843 25.6589 26.8375 25.8848C26.7227 26.4358 26.628 27.0011 26.5558 27.5637C26.5265 27.7923 26.6886 28.0018 26.9177 28.0309C27.1463 28.0601 27.3568 27.8989 27.3861 27.6698Z" fill="#91B3FA"/>
<path d="M55.6631 50.739C55.4446 50.0803 54.9497 50.7586 51.967 51.2555C51.4221 51.3451 51.5571 52.1703 52.1047 52.0796C53.2199 51.894 54.3278 51.6203 55.3973 51.2671C55.6131 51.1966 55.737 50.9612 55.6631 50.7395V50.739ZM47.06 51.9269C47.0786 51.6972 46.9074 51.4952 46.6767 51.4766C43.6371 51.2274 43.1156 50.5915 42.9514 51.2682C42.8971 51.4925 43.0353 51.7179 43.2602 51.772C44.3563 52.0361 45.4827 52.2169 46.6086 52.3087C46.8393 52.3272 47.0408 52.1565 47.06 51.9263V51.9269ZM38.6827 49.6523C39.0091 49.0377 38.183 49.1554 35.7532 47.346C35.3093 47.0162 34.808 47.6849 35.2524 48.0153C36.1577 48.6893 37.1215 49.2986 38.1166 49.8252C38.3207 49.9334 38.5743 49.856 38.6827 49.6523ZM31.8748 44.2739C32.4175 43.8353 31.6079 43.6211 30.0839 41.0072C29.8058 40.5299 29.0813 40.9488 29.3598 41.4272C29.927 42.3998 30.5745 43.3363 31.2858 44.2124C31.4314 44.3922 31.6951 44.4187 31.8748 44.2739ZM28.0171 36.1458C27.1889 33.22 27.603 32.5057 26.9087 32.5905C26.6791 32.6181 26.5159 32.8265 26.5435 33.0556C26.6807 34.1767 26.905 35.293 27.2112 36.3733C27.2739 36.5949 27.5051 36.7243 27.7279 36.6618C27.9501 36.5992 28.0798 36.3685 28.0171 36.1463V36.1458Z" fill="#91B3FA"/>
<path d="M60.3798 48.8886C60.8561 48.5821 61.3266 48.2538 61.7768 47.9123C61.9608 47.7728 61.9969 47.5108 61.8571 47.3268C61.5047 46.8644 61.1549 47.3963 59.9264 48.1859C59.7324 48.3111 59.676 48.5693 59.8015 48.7634C59.9285 48.9602 60.1895 49.0111 60.3804 48.888L60.3798 48.8886Z" fill="#91B3FA"/>
<path d="M53.5538 39.2948C53.8988 39.0981 53.9684 38.7094 53.8047 38.4267C53.6308 38.1271 53.2439 38.0258 52.9467 38.1981C52.3896 38.5195 51.7926 38.7841 51.1723 38.9841C51.0367 39.0005 47.8462 40.2706 44.2186 38.423C37.0247 34.7458 37.8747 24.1517 45.5768 21.6751C50.0076 20.2496 54.7504 22.4011 56.6513 26.519C58.5666 30.6661 56.4015 32.8234 57.7267 33.1294C58.0642 33.2079 58.4018 32.9979 58.4805 32.6611C58.9036 30.8432 58.8223 28.9394 58.245 27.1543C56.494 21.734 50.6423 18.7298 45.1914 20.483C39.326 22.3693 36.3331 28.9845 38.9634 34.679C41.0844 39.272 46.4194 41.8297 51.5582 40.1762C52.2535 39.9524 52.9254 39.656 53.5543 39.2953L53.5538 39.2948Z" fill="#BDD0FB"/>
<path d="M55.2708 54.2718C55.2867 54.0761 55.4871 53.9069 55.8263 53.7706C55.4574 53.5675 55.2538 53.3506 55.2708 53.1369C55.3229 52.4915 57.3711 52.1298 59.8456 52.3292C62.3201 52.5281 64.2838 53.2127 64.2317 53.8576C64.2157 54.0533 64.0153 54.2225 63.6762 54.3587C64.0451 54.5619 64.2487 54.7787 64.2317 54.9919C64.2157 55.1876 64.0153 55.3568 63.6762 55.4931C64.0451 55.6957 64.2487 55.9131 64.2317 56.1263C64.2157 56.322 64.0153 56.4911 63.6762 56.6274C64.0451 56.8305 64.2487 57.0474 64.2317 57.2612C64.2088 57.5465 63.7947 57.7761 63.1265 57.9267C63.135 58.1378 63.1302 58.3684 63.1095 58.6241C63.0128 59.813 61.6721 60.7453 59.8993 60.7453C58.1264 60.7453 56.5918 59.4742 56.5742 58.2815C56.57 57.9893 56.5822 57.7321 56.6088 57.5035C55.7604 57.2208 55.2437 56.8756 55.2708 56.541C55.2867 56.3453 55.4871 56.1761 55.8263 56.0404C55.4574 55.8378 55.2538 55.6204 55.2708 55.4066C55.2867 55.211 55.4871 55.0418 55.8263 54.906C55.4574 54.7034 55.2538 54.486 55.2708 54.2723V54.2718Z" fill="url(#paint1_linear_436_3602)"/>
<path d="M60.9906 58.1834C61.7253 58.1834 62.3977 58.1293 62.9532 58.0232C62.9857 58.0169 63.0064 57.9861 63.0005 57.9538C62.9942 57.9214 62.9633 57.9007 62.9309 57.9066C62.0618 58.0726 60.9003 58.1092 59.6617 58.0095C58.6479 57.9278 57.6996 57.765 56.9198 57.5375C56.8884 57.5285 56.8554 57.5465 56.8459 57.5778C56.8368 57.6091 56.8549 57.642 56.8863 57.6515C57.6741 57.8806 58.6304 58.0455 59.6521 58.1277C60.1124 58.1648 60.5622 58.1829 60.9906 58.1829V58.1834Z" fill="url(#paint2_linear_436_3602)"/>
<path d="M60.9779 57.0482C61.9326 57.0482 62.7858 56.9586 63.3875 56.7878C63.4189 56.7788 63.4375 56.7459 63.4285 56.7146C63.4194 56.6833 63.3865 56.6648 63.3551 56.6738C62.4977 56.9172 61.1166 56.993 59.6611 56.8758C58.2216 56.7602 56.8788 56.4686 56.0692 56.0963C56.0395 56.0825 56.0038 56.0957 55.9905 56.1254C55.9767 56.1551 55.99 56.1901 56.0198 56.2039C56.8411 56.582 58.1987 56.8774 59.6516 56.9941C60.105 57.0307 60.5515 57.0482 60.9779 57.0482Z" fill="url(#paint3_linear_436_3602)"/>
<path d="M60.9901 55.9149C62.0208 55.9149 62.9229 55.8099 63.5305 55.61C63.5619 55.5999 63.5784 55.566 63.5683 55.5352C63.5582 55.5039 63.5247 55.487 63.4933 55.4976C62.6481 55.7755 61.216 55.8667 59.6617 55.7421C58.2221 55.6264 56.8794 55.3348 56.0698 54.9625C56.04 54.9487 56.0044 54.962 55.9911 54.9917C55.9773 55.0214 55.9906 55.0564 56.0203 55.0701C56.8416 55.4483 58.1998 55.7436 59.6521 55.8603C60.1124 55.8974 60.5627 55.9155 60.9906 55.9155L60.9901 55.9149Z" fill="url(#paint4_linear_436_3602)"/>
<path d="M60.9821 54.7799C61.7997 54.7799 62.5434 54.7141 63.1217 54.5858C63.1536 54.5789 63.1738 54.5471 63.1669 54.5153C63.16 54.4835 63.1281 54.4633 63.0962 54.4702C62.2266 54.6627 60.9747 54.7131 59.6611 54.607C58.2344 54.4925 56.8985 54.204 56.0878 53.8359C56.0581 53.8222 56.023 53.8359 56.0092 53.8651C55.9953 53.8948 56.0092 53.9298 56.0384 53.9436C56.8608 54.3169 58.2115 54.6091 59.6516 54.7253C60.1066 54.7619 60.5542 54.7799 60.9821 54.7799Z" fill="url(#paint5_linear_436_3602)"/>
<path d="M65.8918 48.5456C66.1922 47.4839 66.703 46.4911 67.3903 45.6267C68.8634 43.7749 71.2666 40.008 71.5622 34.8677C71.9923 27.3903 65.3453 23.6468 59.2794 24.1554C53.2136 24.6634 47.2285 29.1695 47.8834 36.1256C48.2863 40.4058 50.688 43.6524 52.4757 45.5169C53.6112 46.7006 54.4208 48.151 54.8593 49.7298C55.3957 51.6622 56.6726 54.0709 59.7079 54.2178C63.6352 54.4077 65.2661 50.7559 65.8918 48.5461V48.5456Z" fill="url(#paint6_linear_436_3602)"/>
<path d="M58.7048 52.7264L56.5822 38.9552C56.5386 38.671 56.3977 38.4796 56.2686 38.5283C56.1394 38.5771 56.0703 38.8476 56.1139 39.1318C56.1149 39.1393 56.1165 39.1488 56.1181 39.1562L58.5358 52.7996C58.5538 52.902 58.6059 52.9672 58.6522 52.9444C58.6968 52.9227 58.7197 52.8256 58.7043 52.7264H58.7048Z" fill="url(#paint7_linear_436_3602)"/>
<path d="M60.9082 52.8358L63.0308 39.0646C63.075 38.7804 63.2153 38.5889 63.3445 38.6377C63.4736 38.6865 63.5433 38.957 63.4992 39.2412C63.4981 39.2486 63.4965 39.2582 63.4949 39.2656L61.0773 52.909C61.0592 53.0114 61.0071 53.0766 60.9609 53.0538C60.9162 53.032 60.8933 52.935 60.9088 52.8358H60.9082Z" fill="url(#paint8_linear_436_3602)"/>
<path d="M56.5976 37.7729C56.6513 37.6864 56.7762 37.6541 56.8762 37.7008L58.0579 38.2518L58.4683 37.0856C58.4901 37.0246 58.54 36.971 58.6118 36.9413C58.7479 36.8857 58.9105 36.9355 58.9749 37.0532L58.977 37.057L59.9487 38.825L60.8508 36.3087L60.8524 36.3044C60.8747 36.2429 60.921 36.1878 60.989 36.1506C61.14 36.0684 61.3399 36.1077 61.435 36.2381L62.7938 38.1043C62.849 38.1807 62.8299 38.283 62.7459 38.3398C62.6561 38.4002 62.5269 38.3859 62.4567 38.3085L61.2601 36.9774L60.1831 39.3712L60.1821 39.3728C60.1645 39.411 60.1321 39.4444 60.0869 39.4656C59.9859 39.5128 59.8599 39.4805 59.8052 39.393L58.7659 37.7289L58.3747 38.5705L58.3715 38.5779C58.3689 38.5837 58.3657 38.5901 58.3619 38.5959C58.3082 38.6824 58.1833 38.7147 58.0834 38.668L56.6805 38.0142C56.5806 37.9675 56.5434 37.8599 56.5971 37.7734L56.5976 37.7729Z" fill="white"/>
<path d="M52.43 43.7415C52.4858 43.7415 52.5422 43.7245 52.5905 43.6885C52.7101 43.5999 52.7351 43.4318 52.6464 43.3125C52.2849 42.8267 51.9537 42.325 51.6619 41.8207C51.5874 41.6924 51.4227 41.6484 51.294 41.7226C51.1654 41.7969 51.1207 41.9613 51.1957 42.0896C51.4976 42.6114 51.8405 43.1311 52.2142 43.6333C52.2668 43.7044 52.3481 43.742 52.4305 43.742L52.43 43.7415Z" fill="white"/>
<path d="M50.6838 40.7521C50.7194 40.7521 50.7561 40.7447 50.7911 40.7298C50.9278 40.6704 50.9905 40.5124 50.9309 40.3761C48.6882 35.2236 50.6226 30.8988 50.6423 30.8554C50.7045 30.7207 50.645 30.561 50.5099 30.499C50.3744 30.4375 50.2144 30.4963 50.1527 30.631C50.0677 30.8156 48.0992 35.2193 50.4371 40.5898C50.4812 40.6911 50.5801 40.7516 50.6843 40.7516L50.6838 40.7521Z" fill="white"/>
<path d="M95.5525 138.719C95.5525 138.719 95.9029 140.592 96.0831 142.447C96.1538 143.172 95.5988 143.808 94.8695 143.845C92.3912 143.972 87.0908 144.223 85.1872 144.156C84.9012 144.146 84.7114 143.856 84.8146 143.589C84.9012 143.366 85.0703 143.185 85.2877 143.082L94.0083 138.983L95.5525 138.719Z" fill="url(#paint9_linear_436_3602)"/>
<path d="M95.8141 137.614L95.5685 139.861C95.5685 139.861 94.0407 140.588 92.9855 139.795L93.5968 137.289L95.8141 137.614Z" fill="url(#paint10_linear_436_3602)"/>
<path d="M95.2097 95.4282C95.3303 96.0131 96.108 124.665 93.1604 137.537C93.1126 137.747 93.221 137.962 93.4214 138.042C93.894 138.229 94.82 138.498 95.9268 138.525C96.2696 138.533 96.5748 138.308 96.6683 137.979C97.5178 134.991 101.581 120.023 101.993 105.756C102.454 89.8148 101.987 105.214 101.987 105.214L101.533 95.3667L95.2091 95.4282H95.2097Z" fill="url(#paint11_linear_436_3602)"/>
<path d="M105.638 139.602C105.638 139.602 106.176 140.543 106.712 143.056C106.808 143.509 106.494 143.947 106.032 143.997C105.215 144.085 103.955 144.2 102.946 144.203C102.481 144.204 102.113 143.804 102.165 143.342C102.268 142.423 102.602 140.913 103.667 139.727L105.638 139.602V139.602Z" fill="url(#paint12_linear_436_3602)"/>
<path d="M106.074 136.711L105.483 140.11C105.483 140.11 104.871 140.574 103.648 140.253L103.911 136.6L106.074 136.711Z" fill="url(#paint13_linear_436_3602)"/>
<path d="M107.372 96.1921C110.028 111.288 107.185 133.567 106.195 137.932C106.135 138.199 105.921 138.405 105.65 138.452C105.191 138.533 104.434 138.602 103.685 138.393C103.427 138.321 103.244 138.091 103.231 137.824C103.06 134.304 103.102 112.688 100.68 104.168C100.557 103.736 100.288 103.361 99.919 103.105L95.3463 99.9271L94.9481 94.7236L107.371 96.1915L107.372 96.1921Z" fill="url(#paint14_linear_436_3602)"/>
<path d="M91.0958 67.6951C98.6203 67.4994 106.944 69.5156 106.944 69.5156C109.313 82.5529 107.606 97.6324 107.606 97.6324C101.794 99.2122 95.198 96.8183 95.198 96.8183C94.1773 91.3694 89.5122 76.0512 89.5122 76.0512C85.831 75.6312 82.7914 74.6013 80.2834 73.2257C82.1652 71.0074 83.0354 68.1989 83.4091 66.54C86.0776 67.3398 88.7749 67.7545 91.0958 67.6945V67.6951Z" fill="url(#paint15_linear_436_3602)"/>
<path d="M68.7597 56.8479C69.4906 55.9501 70.4305 56.3627 70.4305 56.3627C71.5824 61.0194 77.4261 64.748 83.4096 66.541C83.0359 68.1998 82.1657 71.0084 80.2839 73.2267C70.3295 67.7671 68.7602 56.8479 68.7602 56.8479H68.7597Z" fill="url(#paint16_linear_436_3602)"/>
<path d="M68.941 57.0727C68.866 57.3188 69.7655 57.6836 70.2832 56.6755C70.297 56.1945 70.5703 54.1316 70.2784 53.7423C68.7246 51.6704 65.7249 49.083 65.7249 49.083C65.2268 49.5826 65.6457 50.0646 65.6457 50.0646L67.1028 51.5506C66.8061 52.0973 66.4425 52.5603 66.2761 53.22C66.1502 53.7195 66.2352 54.2515 66.492 54.7027C66.7498 55.1556 67.1006 55.7438 67.4318 56.2041C68.0585 57.0748 68.9404 57.0727 68.9404 57.0727H68.941Z" fill="url(#paint17_linear_436_3602)"/>
<path d="M67.7439 52.5171L69.0696 53.6165L69.4933 54.7195L68.3334 56.0283C68.3334 56.0283 67.9182 53.8355 67.6205 53.3625C67.3228 52.8899 67.4727 52.6587 67.7444 52.5166L67.7439 52.5171Z" fill="url(#paint18_linear_436_3602)"/>
<path d="M104.128 76.8132L106.944 69.5161C106.944 69.5161 114.02 74.2142 115.233 80.2444C113.906 80.3547 111.493 80.7222 109.138 81.9366C108.591 79.0888 104.127 76.8132 104.127 76.8132H104.128Z" fill="url(#paint19_linear_436_3602)"/>
<path d="M98.0494 83.7124C98.0494 83.7124 105.984 88.087 108.611 84.2623C109.157 83.4679 109.281 82.6825 109.138 81.9364C111.493 80.722 113.906 80.3544 115.234 80.2441C115.6 82.0621 115.434 84.0009 114.38 85.9689C109.797 94.526 97.024 85.6634 97.024 85.6634L98.0499 83.7124H98.0494Z" fill="url(#paint20_linear_436_3602)"/>
<path d="M98.6602 61.5274L101.121 68.413C101.162 68.527 101.116 68.6543 101.01 68.7137C100.361 69.0801 98.0186 70.1429 95.1677 68.3775C94.8705 68.1934 94.6669 67.8906 94.6185 67.5454L93.7861 61.5735L98.6602 61.5269V61.5274Z" fill="url(#paint21_linear_436_3602)"/>
<path d="M93.389 55.1787C93.389 55.1787 90.8066 60.1419 91.1627 62.1333C91.5189 64.1246 94.7764 63.9506 97.6066 62.3035L99.5442 56.9526L93.389 55.1787Z" fill="url(#paint22_linear_436_3602)"/>
<path d="M97.4556 59.6864C97.3397 59.6366 97.2956 59.4955 97.3636 59.3894C97.5715 59.0665 97.9601 58.4078 98.0802 57.833C98.0802 57.833 98.5501 57.5265 96.8703 57.142C95.1905 56.7575 92.6857 56.1604 92.1467 54.7423C91.6215 53.3598 92.9334 49.8576 95.1071 52.6173C95.19 52.7223 95.35 52.7234 95.4303 52.6163C95.7779 52.156 96.6938 51.1987 97.984 51.7614C99.1912 52.288 99.3353 53.1657 99.3231 53.6085C99.3193 53.739 99.4373 53.8392 99.5655 53.8132C100.172 53.6918 101.63 53.5788 102.325 55.0647C102.897 56.2887 102.54 56.9882 102.211 57.3318C102.105 57.4432 102.154 57.6246 102.302 57.668C102.702 57.7863 103.221 58.1193 103.179 59.0532C103.12 60.3445 101.672 60.2448 101.26 60.1897C101.192 60.1807 101.124 60.2045 101.079 60.2554C100.73 60.6484 99.154 62.3189 97.4343 62.5353C97.2855 62.5538 97.1686 62.408 97.2159 62.2659L97.9404 60.0979C97.9739 59.9972 97.925 59.8874 97.8272 59.8455L97.4561 59.6859L97.4556 59.6864Z" fill="url(#paint23_linear_436_3602)"/>
<path d="M97.159 59.9964C97.159 59.9964 99.019 58.6971 99.1662 59.7747C99.3135 60.8523 97.4955 61.354 96.5886 60.9599L97.159 59.9958V59.9964Z" fill="url(#paint24_linear_436_3602)"/>
<path d="M99.6712 90.6261L95.3489 75.5668C95.3 75.396 95.1539 75.2714 94.9768 75.2507C94.1938 75.1595 91.9245 74.9034 89.3043 74.6828C86.1483 74.4165 82.483 74.2007 80.2929 74.3842C79.9814 74.4102 79.7932 74.739 79.932 75.0184C81.1775 77.5321 86.3003 87.7577 88.8658 91.1071C88.9508 91.218 89.0821 91.2832 89.2225 91.2816L99.2513 91.1883C99.5431 91.1856 99.752 90.9061 99.6718 90.6261H99.6712Z" fill="url(#paint25_linear_436_3602)"/>
<path d="M98.6267 86.9875C98.6267 86.9875 99.229 84.5173 98.986 83.6412C98.7431 82.7646 98.2726 81.6382 96.7039 81.8885C95.1352 82.1388 93.2848 82.798 93.2848 82.798C93.2848 82.798 93.3784 83.9392 94.5707 83.5712L93.8313 84.1418C93.8313 84.1418 93.9371 85.0555 94.9439 84.5676L94.2565 85.3244C94.2565 85.3244 94.6893 86.0748 95.4297 85.5938C96.1708 85.1123 96.5259 87.285 98.6267 86.9875Z" fill="url(#paint26_linear_436_3602)"/>
<path d="M89.5919 79.1775C89.5919 79.8764 89.0236 80.4433 88.323 80.4433C87.6224 80.4433 87.0541 79.8764 87.0541 79.1775C87.0541 78.4785 87.6224 77.9116 88.323 77.9116C89.0236 77.9116 89.5919 78.4785 89.5919 79.1775Z" fill="#91B3FA"/>
<path d="M94.8594 80.0125L95.1831 79.917L94.3033 76.9388C94.1598 76.4536 93.7675 76.0892 93.2795 75.988C90.4897 75.4067 83.1427 75.2885 82.8318 75.2837L82.8265 75.6204C82.9025 75.6215 90.4525 75.7435 93.2104 76.3173C93.5766 76.3936 93.8717 76.6678 93.9801 77.0337L94.8599 80.012L94.8594 80.0125Z" fill="#91B3FA"/>
<path d="M146.016 122.156C146.477 122.837 148.308 138.237 148.595 143.925C148.614 144.31 148.306 144.63 147.92 144.63C147.587 144.63 147.304 144.389 147.252 144.06L143.903 122.646L146.016 122.156Z" fill="#7D97F4"/>
<path d="M131.292 122.156C130.832 122.837 129 138.237 128.714 143.925C128.694 144.31 129.003 144.63 129.389 144.63C129.722 144.63 130.005 144.389 130.057 144.06L133.406 122.646L131.292 122.156Z" fill="#7D97F4"/>
<path d="M148.787 120.955L148.788 121.123C148.8 122.331 147.756 123.322 146.449 123.344L130.967 123.607C129.68 123.629 128.606 122.701 128.544 121.511L128.536 121.357C128.47 120.117 129.527 119.072 130.869 119.048L146.359 118.771C147.684 118.747 148.776 119.729 148.787 120.955V120.955Z" fill="#7D97F4"/>
<path d="M116.172 143.366C118.924 143.366 120.142 143.13 120.687 142.916C120.581 143.366 120.179 143.722 119.67 143.722H109.933C109.605 143.722 109.399 143.409 109.477 143.126C110.587 143.215 112.944 143.366 116.173 143.366H116.172Z" fill="#91B3FA"/>
<path d="M109.476 143.126C109.492 143.068 109.515 143.012 109.556 142.96C110.298 142.016 111.788 140.532 113.815 140.56C116.783 140.602 117.819 140.923 120.126 140.579L120.67 142.378C120.726 142.562 120.727 142.745 120.687 142.915C120.142 143.13 118.925 143.365 116.172 143.365C112.944 143.365 110.586 143.214 109.476 143.125V143.126Z" fill="url(#paint27_linear_436_3602)"/>
<path d="M119.457 138.639L120.125 140.906C120.125 140.906 118.646 141.579 117.344 141.039L117.088 139.075L119.457 138.64V138.639Z" fill="url(#paint28_linear_436_3602)"/>
<path d="M99.2773 141.938C101.423 143.658 102.519 144.236 103.078 144.409C102.714 144.693 102.178 144.718 101.781 144.4L94.1912 138.316C93.9355 138.111 93.97 137.739 94.2082 137.568C95.0178 138.33 96.7608 139.921 99.2779 141.938H99.2773Z" fill="#91B3FA"/>
<path d="M94.2076 137.568C94.2555 137.534 94.3092 137.505 94.373 137.49C95.5414 137.221 97.63 137 99.1918 138.289C101.48 140.176 102.086 141.073 104.1 142.247L103.4 143.984C103.329 144.161 103.215 144.303 103.078 144.411C102.519 144.237 101.422 143.659 99.2768 141.939C96.7598 139.922 95.0167 138.332 94.2071 137.569L94.2076 137.568Z" fill="url(#paint29_linear_436_3602)"/>
<path d="M133.75 112.812C133.75 112.812 117.272 114.154 113.892 115.742C110.511 117.329 116.65 139.578 116.65 139.578C116.65 139.578 117.57 140.02 119.618 139.385C119.618 139.385 117.518 122.966 119.08 119.405L136.921 116.494L133.749 112.812L133.75 112.812Z" fill="url(#paint30_linear_436_3602)"/>
<path d="M105.738 139.121C105.585 139.26 104.101 142.246 104.101 142.246C104.101 142.246 102.449 141.89 102.112 140.846L103.599 138.151L105.738 139.121Z" fill="url(#paint31_linear_436_3602)"/>
<path d="M143.675 112.675C143.675 112.675 144.212 113.964 144.19 115.677C144.159 118.046 142.25 119.968 139.879 120.086L120.399 120.973C119.988 120.991 119.64 121.275 119.536 121.673C119.079 123.44 116.841 128.864 105.904 139.687C105.613 139.975 105.16 140.024 104.813 139.806L103.256 138.825C103.093 138.722 103.04 138.509 103.138 138.342L114.48 119.02C115.076 118.039 116.033 117.331 117.147 117.047L133.749 112.813L143.674 112.675L143.675 112.675Z" fill="url(#paint32_linear_436_3602)"/>
<path d="M124.478 82.4922C124.478 82.4922 126.564 86.1731 128.692 87.956L124.294 90.4039C124.294 90.4039 123.303 86.5072 121.039 85.3665L124.478 82.4927V82.4922Z" fill="url(#paint33_linear_436_3602)"/>
<path d="M144.028 112.812C144.028 112.812 138.769 114.09 133.75 112.812C133.75 112.812 126.726 103.392 124.009 100.829C124.009 100.829 119.675 107.652 110.028 108.619L109.49 107.42C109.49 107.42 117.17 103.888 119.534 98.4604C121.899 93.0332 122.848 90.7189 125 89.3024C126.339 88.4205 127.141 87.8181 127.556 87.4893C127.783 87.309 128.096 87.2888 128.344 87.4394C130.626 88.8273 141.368 96.1668 144.029 112.812H144.028Z" fill="url(#paint34_linear_436_3602)"/>
<path d="M124.294 100.696C124.396 100.696 124.496 100.651 124.562 100.565C126.237 98.3862 127.169 95.9849 127.208 95.8841C127.275 95.7107 127.188 95.5161 127.014 95.4493C126.84 95.3825 126.645 95.4694 126.578 95.6428C126.569 95.6667 125.64 98.0563 124.027 100.155C123.914 100.303 123.941 100.514 124.089 100.627C124.15 100.674 124.222 100.697 124.294 100.697V100.696Z" fill="url(#paint35_linear_436_3602)"/>
<path d="M110.607 106.794L109.521 106.505L106.224 105.743C105.827 105.652 105.41 105.722 105.065 105.939L102.23 107.718L110.059 107.705L110.607 106.794V106.794Z" fill="url(#paint36_linear_436_3602)"/>
<path d="M121.164 76.9731C121.164 76.9731 119.136 80.3364 118.784 82.1951C118.432 84.0539 117.867 85.2158 119.988 85.8782C122.109 86.5405 124.08 85.7021 125.316 83.9669C125.316 83.9669 127.248 81.2968 127.055 80.0739C126.862 78.851 121.164 76.9731 121.164 76.9731Z" fill="url(#paint37_linear_436_3602)"/>
<path d="M124.752 82.5283L124.478 82.4923C124.478 82.4923 125.913 80.3275 124.974 79.7908C124.034 79.2536 120.205 77.9363 119.54 76.4318C118.899 74.9814 119.858 73.3433 121.014 73.0012C121.088 72.9795 121.165 73.023 121.191 73.094L121.259 73.2765C121.306 73.4016 121.482 73.4064 121.535 73.2844C121.586 73.1683 121.752 73.1635 121.804 73.2786C122.009 73.7294 122.623 74.4988 124.465 75.0944C127.078 75.9392 128.705 77.2533 128.505 79.1052C128.492 79.2224 128.609 79.3035 128.717 79.2558C128.931 79.1614 129.254 79.1465 129.63 79.557C130.284 80.2702 129.772 81.831 127.986 82.9351C127.901 82.9876 127.886 83.1069 127.962 83.1716C128.229 83.3996 128.605 83.9087 127.397 84.3622C126.161 84.8262 125.486 84.6692 125.237 84.5695C125.17 84.5425 125.132 84.4735 125.146 84.4025L125.463 82.7797C125.48 82.6959 125.422 82.6153 125.337 82.6042L124.752 82.5273V82.5283Z" fill="url(#paint38_linear_436_3602)"/>
<path d="M124.639 82.862C124.639 82.862 125.534 80.6612 126.474 81.4349C127.413 82.2086 125.605 83.9183 124.77 83.8955L124.639 82.862Z" fill="url(#paint39_linear_436_3602)"/>
<path d="M113.632 109.249C113.619 109.25 113.606 109.25 113.593 109.25L96.8682 109.234C96.4546 109.234 96.1197 108.899 96.1203 108.488C96.1203 108.076 96.4573 107.736 96.8698 107.743L113.595 107.76C114.009 107.76 114.343 108.094 114.343 108.506C114.343 108.905 114.027 109.23 113.632 109.25V109.249Z" fill="url(#paint40_linear_436_3602)"/>
<path d="M90.3914 92.9092C90.3972 92.9204 90.4031 92.932 90.4084 92.9437L97.4455 108.08C97.6193 108.454 97.4572 108.898 97.0824 109.071C96.7077 109.244 96.2569 109.083 96.0894 108.707L89.0523 93.5711C88.8785 93.1967 89.0406 92.7533 89.4154 92.5799C89.778 92.4123 90.2069 92.5597 90.3914 92.9092Z" fill="url(#paint41_linear_436_3602)"/>
<path d="M46.5954 124.461H48.3607V143.505H46.5954V124.461Z" fill="#7D97F4"/>
<path d="M39.7475 143.873H55.2081C55.2081 143.239 54.6935 142.726 54.0588 142.726H40.8963C40.2615 142.726 39.747 143.239 39.747 143.873H39.7475Z" fill="#7D97F4"/>
<path d="M39.3515 120.194H54.9938C56.0422 120.194 56.8921 121.042 56.8921 122.088V123.8C56.8921 124.846 56.0422 125.694 54.9938 125.694H39.3515C38.3031 125.694 37.4532 124.846 37.4532 123.8V122.088C37.4532 121.042 38.3031 120.194 39.3515 120.194Z" fill="#7D97F4"/>
<path d="M60.5095 111.763C60.5095 111.763 63.1324 112.169 66.0816 114.136C66.5457 114.446 66.8003 114.985 66.7306 115.537C66.3777 118.328 64.9254 127.36 60.1374 136.182C59.8849 136.647 59.8126 137.189 59.9237 137.706L60.7557 141.567L62.2983 143.01H58.3247L55.679 135.868L56.8103 135.511C57.6874 135.234 58.2891 134.43 58.3051 133.512L58.438 125.85C58.3247 122.437 60.5361 120.082 60.5361 120.082L54.1906 119.774L60.5095 111.763V111.763Z" fill="url(#paint42_linear_436_3602)"/>
<path d="M63.85 143.707C64.212 144.179 59.9551 144.802 57.8048 143.769C57.8048 143.769 54.8237 138.595 54.8237 135.931C54.8237 135.931 55.0603 135.388 56.8108 135.511C56.8108 135.511 57.8117 141.638 58.8685 142.324C59.9253 143.01 61.8257 142.393 61.8257 142.393C61.8257 142.393 63.3163 143.009 63.85 143.707Z" fill="url(#paint43_linear_436_3602)"/>
<path d="M54.9938 120.194C55.0279 120.135 61.8257 119.378 61.8257 119.378C61.8257 119.378 61.603 121.44 62.2983 124.279C62.9936 127.118 72.9752 139.416 72.9752 139.416L71.9285 142.726C75.1642 143.85 78.3473 144.03 81.4794 143.299L74.9936 139.416C74.9936 139.416 68.9234 118.779 65.2055 115.098L58.3912 112.746L54.9938 120.194Z" fill="url(#paint44_linear_436_3602)"/>
<path d="M39.7475 108.186C39.7475 108.186 35.8308 113.998 35.5092 116.649C35.1876 119.3 36.5819 120.377 40.6916 120.555C44.8013 120.732 55.7726 120.73 55.7726 120.73L65.1364 112.746C65.1364 112.746 58.3125 110.317 56.5381 109.63C54.7637 108.943 39.747 108.186 39.747 108.186H39.7475Z" fill="url(#paint45_linear_436_3602)"/>
<path d="M72.324 141.612C72.324 141.612 71.197 142.701 71.9582 143.912C71.9582 143.912 80.884 145.49 83.3075 144.774C83.3075 144.774 82.8041 143.628 80.0755 142.324L80.277 142.478C80.5316 142.673 80.3822 143.08 80.0617 143.062C78.2633 142.959 74.5423 142.631 72.324 141.612Z" fill="url(#paint46_linear_436_3602)"/>
<path d="M56.714 71.3287C48.7073 69.9705 44.9379 76.4854 45.2138 77.8542C45.2505 78.0355 45.0787 78.1893 44.8996 78.1411C43.9805 77.8945 41.9499 77.5832 40.6911 79.1566C39.5795 80.5461 40.4104 81.857 41.0876 82.5766C41.2514 82.7506 41.1137 83.0327 40.8766 83.003C39.1867 82.7904 35.5145 82.7394 34.9138 86.1711C34.3535 89.3715 36.5862 90.2736 37.9104 90.5282C38.1347 90.5711 38.1868 90.8649 37.9944 90.9869C37.3336 91.4048 36.5681 92.2692 36.8775 93.9741C37.3623 96.6464 42.6143 96.4279 43.2278 96.3929C43.2666 96.3908 43.3033 96.3797 43.3373 96.36L51.7496 91.5739C51.815 91.5368 51.8607 91.4721 51.8734 91.3979L53.5718 81.613C53.5857 81.534 53.5607 81.4529 53.5049 81.3951L58.9892 73.6742C60.98 73.382 56.8092 71.3451 56.7151 71.3292L56.714 71.3287Z" fill="url(#paint47_linear_436_3602)"/>
<path d="M50.3404 107.417C50.3404 107.417 54.9013 103.084 57.1467 100.214C58.3603 98.6631 58.7415 96.6209 58.1801 94.7346C57.1553 91.2897 55.3335 87.7212 55.1671 87.1659C54.9125 86.3148 49.7981 86.3503 49.7981 86.3503C49.7981 86.3503 39.7342 92.8663 35.7803 103.904L40.2211 105.283C40.2211 105.283 42.8488 100.885 45.445 98.0893C45.445 98.0893 40.9526 104.01 40.7942 106.434L50.3398 107.418L50.3404 107.417Z" fill="url(#paint48_linear_436_3602)"/>
<path d="M55.7854 82.4084C55.7322 82.5855 54.3974 86.9999 54.2927 87.0916C54.1885 87.1834 51.3652 87.3345 50.0368 86.4287L53.3326 79.9971L55.7854 82.4084Z" fill="url(#paint49_linear_436_3602)"/>
<path d="M61.1368 76.7361C61.1368 76.7361 61.7821 79.2652 59.9971 82.6666C58.2126 86.068 56.192 86.0643 55.0874 84.9756C53.9828 83.8869 52.6208 82.0392 52.9446 78.7508C53.2683 75.4623 60.2055 73.5187 61.1368 76.7361Z" fill="url(#paint50_linear_436_3602)"/>
<path d="M55.4133 78.9294C55.4133 78.9294 58.3742 74.4132 61.1512 77.9674L61.2011 79.2603C61.2011 79.2603 64.4533 78.8753 63.884 75.9002C63.3147 72.9251 60.5042 71.0659 56.8847 72.3545C53.2651 73.6432 51.1909 74.9647 50.9575 77.5527C50.7242 80.1406 52.7878 79.5732 52.7878 79.5732C52.7878 79.5732 53.4607 77.751 54.4181 77.5617C55.375 77.3724 55.1262 78.7931 55.1262 78.7931L55.4133 78.9299V78.9294Z" fill="url(#paint51_linear_436_3602)"/>
<path d="M54.6552 78.8689C54.6552 78.8689 56.191 76.5562 54.6175 76.2114C53.044 75.8667 53.288 78.4648 53.4581 79.4257L54.6557 78.8689H54.6552Z" fill="url(#paint52_linear_436_3602)"/>
<path d="M59.6324 107.739L56.2813 104.516L51.6454 106.47C51.6454 106.47 47.0307 107.183 44.3898 106.47L41.7489 105.757L35.7808 103.903L34.8437 106.546C34.6055 107.217 34.8447 107.962 35.4263 108.374C35.9424 108.74 36.5479 109.142 36.9338 109.31C37.7201 109.654 56.3084 109.073 56.3084 109.073L59.633 107.739H59.6324Z" fill="url(#paint53_linear_436_3602)"/>
<path d="M46.9505 109.258C46.9653 109.258 46.9802 109.259 46.9951 109.259L66.4346 109.238C66.9151 109.238 67.3042 108.849 67.3037 108.369C67.3037 107.89 66.9119 107.494 66.4324 107.502L46.993 107.523C46.5124 107.523 46.1233 107.913 46.1238 108.392C46.1244 108.857 46.4906 109.235 46.9505 109.258Z" fill="url(#paint54_linear_436_3602)"/>
<path d="M83.9098 91.6504H67.7205C66.526 91.6504 65.4389 92.3382 64.9296 93.4158L57.4455 109.248H77.5643C78.334 109.248 79.0256 108.778 79.3084 108.065L85.1123 93.4142C85.4477 92.5678 84.8225 91.6504 83.9098 91.6504Z" fill="url(#paint55_linear_436_3602)"/>
<path d="M72.5042 99.7677C72.1533 100.855 72.4127 101.911 73.0831 102.127C73.7534 102.342 74.5816 101.635 74.9324 100.548C75.2833 99.4607 75.0239 98.4043 74.3535 98.189C73.6832 97.9737 72.855 98.6806 72.5042 99.7677Z" fill="#7D97F4"/>
<path d="M24.7882 141.472C24.7882 141.472 24.5841 142.603 24.5038 143.944C24.4693 144.516 24.894 145.013 25.4655 145.068C27.4552 145.26 31.9843 145.616 34.8761 145.2C35.2811 145.141 35.4422 144.645 35.1424 144.366C33.9501 143.258 31.07 141.102 26.3304 140.631L24.7882 141.472V141.472Z" fill="url(#paint56_linear_436_3602)"/>
<path d="M23.799 138.925L24.8047 141.385C24.9424 141.723 25.2853 141.932 25.6483 141.894C25.8945 141.868 26.1863 141.821 26.4702 141.735C27.0379 141.563 27.3579 140.963 27.1883 140.396L26.4292 137.862L23.799 138.925Z" fill="url(#paint57_linear_436_3602)"/>
<path d="M6.5996 143.432C6.5996 143.432 8.6143 145.113 9.39892 147.27C9.61474 147.863 9.15864 148.488 8.52605 148.488H4.38077C3.77423 148.488 3.3091 147.944 3.41436 147.347C3.67855 145.858 4.43977 143.438 6.5996 143.432Z" fill="url(#paint58_linear_436_3602)"/>
<path d="M4.10435 141.244C4.10435 141.244 4.51101 143.04 4.82411 144.228C4.88099 144.443 5.11116 144.561 5.32167 144.486C5.94894 144.263 6.45926 144.163 6.83084 144.213C7.00254 144.236 7.15191 144.094 7.15456 143.921L7.19338 140.937L4.10435 141.244Z" fill="url(#paint59_linear_436_3602)"/>
<path d="M14.8179 100.813L27.0709 138.105C27.0709 138.105 24.7207 139.64 23.6012 139.577L9.04753 109.607C9.04753 109.607 6.50072 128.073 7.73506 141.33L3.56638 141.648C3.56638 141.648 -3.21183 107.768 1.9222 96.1636L14.8184 100.813L14.8179 100.813Z" fill="url(#paint60_linear_436_3602)"/>
<path d="M9.12621 109.285C9.12143 109.285 9.11611 109.285 9.11133 109.284C9.04648 109.276 9.00023 109.216 9.0082 109.152L9.48344 105.386C9.49141 105.322 9.55042 105.277 9.6158 105.283C9.68065 105.291 9.7269 105.351 9.71892 105.415L9.24369 109.181C9.23625 109.241 9.18522 109.284 9.12621 109.284V109.285Z" fill="url(#paint61_linear_436_3602)"/>
<path d="M17.1154 67.9986C17.1154 67.9986 7.18806 68.8778 8.5925 75.9347C8.5925 75.9347 3.10497 86.2371 0.539549 98.3734C0.456091 98.7685 0.721359 99.1535 1.12005 99.2214L17.6523 102.045C18.1084 102.123 18.548 101.84 18.6639 101.392L22.6141 86.1624L24.1535 93.2431L29.0446 91.972L24.9275 71.1646C24.9275 71.1646 24.3529 68.1285 17.1159 67.998L17.1154 67.9986Z" fill="url(#paint62_linear_436_3602)"/>
<path d="M22.6981 85.4808C22.6896 85.4808 22.6805 85.4797 22.672 85.4781C22.6056 85.4638 22.5636 85.398 22.5779 85.3317L23.9558 79.0189C23.9701 78.9526 24.035 78.9112 24.1025 78.925C24.1689 78.9393 24.2109 79.0051 24.1966 79.0714L22.8187 85.3842C22.806 85.4415 22.7549 85.4808 22.6986 85.4808H22.6981Z" fill="#91B3FA"/>
<path d="M21.6997 104.266C21.1788 103.98 20.5691 103.901 19.9928 104.044L18.8425 104.33C18.5979 104.391 18.3556 104.223 18.3274 103.973L17.1372 93.4033C15.6487 94.1086 13.5017 94.0243 12.7936 93.9723L15.5334 106.433H25.1205L21.7003 104.265L21.6997 104.266Z" fill="url(#paint63_linear_436_3602)"/>
<path d="M47.1727 81.3392L46.8829 80.3782C46.716 79.8251 46.3067 79.3781 45.7693 79.1628L40.5284 77.0601C40.5284 77.0601 40.4492 76.3897 41.6357 75.9337C42.8222 75.4781 42.5447 74.1523 42.5447 74.1523C42.5447 74.1523 40.9239 74.89 38.5509 76.0599C37.1938 76.7291 36.4326 77.9102 36.0286 78.7995L24.153 93.2426L25.5473 94.1982C27.3808 95.4551 29.9026 94.8378 30.9445 92.8767L37.3777 80.5697C40.6076 81.5375 43.8763 81.7226 47.1727 81.3386V81.3392Z" fill="url(#paint64_linear_436_3602)"/>
<path d="M20.3314 61.2607L17.278 69.7861C17.278 69.7861 19.9817 71.8946 21.9549 71.1818L23.4933 66.295C23.4933 66.295 22.318 60.3221 20.3314 61.2607Z" fill="url(#paint65_linear_436_3602)"/>
<path d="M29.4444 58.1989C29.4444 58.3304 26.5031 66.5052 26.5031 66.5052L21.8597 64.7308L23.4933 56.5692C23.4933 56.5692 29.4438 55.9997 29.4438 58.1989H29.4444Z" fill="url(#paint66_linear_436_3602)"/>
<path d="M24.3077 58.5578L23.1106 62.7871C23.0951 62.8412 23.0872 62.8958 23.0872 62.9525C23.0872 63.2972 23.1722 64.4846 24.3842 64.3229C25.4841 64.1765 26.4898 64.0588 27.1293 64.3595C27.4164 64.4942 27.5541 64.824 27.4467 65.122C27.1793 65.8645 26.5456 67.527 25.7743 68.8878C25.618 69.1641 25.2746 69.2712 24.9849 69.1397C24.1126 68.7441 22.2972 67.8579 21.0034 66.8037C20.8279 66.661 20.744 66.4362 20.7854 66.2145C20.989 65.1327 21.595 61.8421 21.6216 60.8992C21.6466 60.0141 20.6509 59.3384 20.2129 59.0844C20.0694 59.0012 19.9668 58.8638 19.928 58.7026C19.7903 58.133 19.6733 56.8438 21.3223 56.5596C21.6673 56.5002 21.8922 56.1709 21.822 55.8283C21.6827 55.1468 21.7274 54.1445 23.0239 53.7749C24.3422 53.3995 25.1715 54.1912 25.5936 54.7979C25.7642 55.0434 26.0832 55.123 26.3569 55.001C26.5127 54.9315 26.7003 54.9283 26.9023 55.0986C27.1745 55.3277 27.5891 55.2577 27.789 54.9639C28.1734 54.3996 28.8718 53.8359 30.0541 54.2177C32.1517 54.8949 32.0518 57.3079 31.2826 58.6193C30.5134 59.9308 28.2813 59.068 27.2239 58.1988C26.4202 57.538 25.197 57.9331 24.6564 58.1606C24.4852 58.2327 24.3577 58.3791 24.3072 58.5573L24.3077 58.5578Z" fill="url(#paint67_linear_436_3602)"/>
<path d="M21.2016 62.4431C21.2016 62.4431 22.4434 60.1001 21.6221 59.3646C20.8014 58.629 19.4102 58.7494 19.4474 60.5817C19.4942 62.8604 21.2016 62.4436 21.2016 62.4436V62.4431Z" fill="url(#paint68_linear_436_3602)"/>
<path d="M13.7568 94.1308C13.0791 94.1308 12.5959 94.0794 12.5432 94.0735L12.455 94.0635L8.84022 77.2498C8.82587 77.1836 8.86839 77.1183 8.93483 77.104C9.00181 77.0892 9.06667 77.1321 9.08102 77.1984L12.6586 93.8375C13.1965 93.8847 16.0692 94.0751 17.5858 93.0034L14.4543 78.3959L15.1081 77.1671C15.14 77.1072 15.2144 77.0844 15.2745 77.1162C15.3346 77.148 15.3574 77.2223 15.3255 77.2822L14.7137 78.4319L17.8596 93.1068L17.7969 93.154C16.7013 93.9754 14.9359 94.1308 13.7568 94.1308Z" fill="#91B3FA"/>
<path d="M122.126 145.393C122.209 145.393 122.294 145.375 122.375 145.337C122.695 145.187 122.842 144.784 122.705 144.436L109.495 110.999C109.358 110.652 108.988 110.491 108.668 110.64C108.348 110.79 108.2 111.194 108.338 111.541L121.547 144.977C121.65 145.237 121.882 145.392 122.126 145.392V145.393Z" fill="url(#paint69_linear_436_3602)"/>
<path d="M107.245 145.393C107.489 145.393 107.722 145.238 107.824 144.978L121.033 111.542C121.171 111.194 121.023 110.79 120.704 110.641C120.384 110.491 120.014 110.652 119.876 111L106.667 144.436C106.529 144.784 106.677 145.188 106.996 145.337C107.077 145.375 107.162 145.393 107.245 145.393V145.393Z" fill="url(#paint70_linear_436_3602)"/>
<path d="M32.4786 145.393C32.5616 145.393 32.6461 145.375 32.7274 145.337C33.0469 145.187 33.1947 144.784 33.057 144.436L19.8477 110.999C19.71 110.652 19.34 110.491 19.02 110.64C18.7006 110.79 18.5528 111.194 18.6904 111.541L31.8997 144.977C32.0023 145.237 32.2346 145.392 32.4786 145.392V145.393Z" fill="url(#paint71_linear_436_3602)"/>
<path d="M17.5981 145.393C17.842 145.393 18.0743 145.238 18.1769 144.978L31.3862 111.542C31.5239 111.194 31.3761 110.79 31.0567 110.641C30.7372 110.491 30.3667 110.652 30.229 111L17.0197 144.436C16.882 144.784 17.0298 145.188 17.3493 145.337C17.4306 145.375 17.5146 145.393 17.5981 145.393V145.393Z" fill="url(#paint72_linear_436_3602)"/>
<path d="M34.3955 108.638H15.2639V106.668H34.3955C33.9862 106.668 33.9862 108.638 34.3955 108.638Z" fill="#91B3FA"/>
<path d="M15.4435 108.638C15.3447 108.638 15.2639 108.558 15.2639 108.459V106.848C15.2639 106.749 15.3447 106.669 15.4435 106.669H34.7995C34.8984 106.669 34.9792 106.588 34.9792 106.489V106.402C34.9792 106.304 34.8984 106.223 34.7995 106.223H14.1688C13.7127 106.223 13.3427 106.592 13.3427 107.047V108.306C13.3427 108.735 13.6914 109.083 14.122 109.083H34.8001C34.8989 109.083 34.9797 109.003 34.9797 108.904V108.817C34.9797 108.718 34.8989 108.638 34.8001 108.638H15.4441L15.4435 108.638Z" fill="url(#paint73_linear_436_3602)"/>
<path d="M12.4906 109.966C12.4263 109.746 12.514 109.519 12.7293 109.346C12.9446 109.173 13.2651 109.074 13.6037 109.074H128.239C128.683 109.074 129.098 109.224 129.338 109.472C129.578 109.72 129.61 110.032 129.423 110.299L128.181 112.078C127.896 112.486 127.28 112.747 126.601 112.747H14.3905C13.7595 112.747 13.2173 112.451 13.0977 112.041L12.4911 109.967L12.4906 109.966Z" fill="url(#paint74_linear_436_3602)"/>
</g>
<defs>
<linearGradient id="paint0_linear_436_3602" x1="-17.9469" y1="191.778" x2="113.744" y2="27.8351" gradientUnits="userSpaceOnUse">
<stop stop-color="#DAE3FE"/>
<stop offset="1" stop-color="#E9EFFD"/>
</linearGradient>
<linearGradient id="paint1_linear_436_3602" x1="59.4708" y1="53.3538" x2="61.2825" y2="65.3402" gradientUnits="userSpaceOnUse">
<stop stop-color="#09005D"/>
<stop offset="1" stop-color="#1A0F91"/>
</linearGradient>
<linearGradient id="paint2_linear_436_3602" x1="59.0684" y1="48.3847" x2="62.1968" y2="82.9707" gradientUnits="userSpaceOnUse">
<stop stop-color="#53D8FF"/>
<stop offset="1" stop-color="#3840F7"/>
</linearGradient>
<linearGradient id="paint3_linear_436_3602" x1="58.977" y1="48.393" x2="62.1054" y2="82.9792" gradientUnits="userSpaceOnUse">
<stop stop-color="#53D8FF"/>
<stop offset="1" stop-color="#3840F7"/>
</linearGradient>
<linearGradient id="paint4_linear_436_3602" x1="59.1503" y1="48.3776" x2="62.2792" y2="82.9633" gradientUnits="userSpaceOnUse">
<stop stop-color="#53D8FF"/>
<stop offset="1" stop-color="#3840F7"/>
</linearGradient>
<linearGradient id="paint5_linear_436_3602" x1="59.0573" y1="48.3859" x2="62.1856" y2="82.9717" gradientUnits="userSpaceOnUse">
<stop stop-color="#53D8FF"/>
<stop offset="1" stop-color="#3840F7"/>
</linearGradient>
<linearGradient id="paint6_linear_436_3602" x1="58.1025" y1="23.791" x2="62.9295" y2="56.5858" gradientUnits="userSpaceOnUse">
<stop stop-color="#FF928E"/>
<stop offset="1" stop-color="#FE7062"/>
</linearGradient>
<linearGradient id="paint7_linear_436_3602" x1="13.4039" y1="-15.6311" x2="35.1581" y2="14.7903" gradientUnits="userSpaceOnUse">
<stop stop-color="#E1473D"/>
<stop offset="1" stop-color="#E9605A"/>
</linearGradient>
<linearGradient id="paint8_linear_436_3602" x1="16.4339" y1="-17.7978" x2="38.1881" y2="12.6236" gradientUnits="userSpaceOnUse">
<stop stop-color="#E1473D"/>
<stop offset="1" stop-color="#E9605A"/>
</linearGradient>
<linearGradient id="paint9_linear_436_3602" x1="85.3933" y1="136.192" x2="117.712" y2="170.77" gradientUnits="userSpaceOnUse">
<stop stop-color="#09005D"/>
<stop offset="1" stop-color="#1A0F91"/>
</linearGradient>
<linearGradient id="paint10_linear_436_3602" x1="95.8278" y1="138.678" x2="92.9792" y2="138.705" gradientUnits="userSpaceOnUse">
<stop stop-color="#FEBBBA"/>
<stop offset="1" stop-color="#FF928E"/>
</linearGradient>
<linearGradient id="paint11_linear_436_3602" x1="82.4939" y1="96.8544" x2="110.051" y2="133.564" gradientUnits="userSpaceOnUse">
<stop stop-color="#09005D"/>
<stop offset="1" stop-color="#1A0F91"/>
</linearGradient>
<linearGradient id="paint12_linear_436_3602" x1="92.5256" y1="129.524" x2="124.846" y2="164.104" gradientUnits="userSpaceOnUse">
<stop stop-color="#09005D"/>
<stop offset="1" stop-color="#1A0F91"/>
</linearGradient>
<linearGradient id="paint13_linear_436_3602" x1="106.094" y1="138.436" x2="103.634" y2="138.459" gradientUnits="userSpaceOnUse">
<stop stop-color="#FEBBBA"/>
<stop offset="1" stop-color="#FF928E"/>
</linearGradient>
<linearGradient id="paint14_linear_436_3602" x1="87.3244" y1="93.2283" x2="114.882" y2="129.938" gradientUnits="userSpaceOnUse">
<stop stop-color="#09005D"/>
<stop offset="1" stop-color="#1A0F91"/>
</linearGradient>
<linearGradient id="paint15_linear_436_3602" x1="206.738" y1="-110.254" x2="181.681" y2="-66.7175" gradientUnits="userSpaceOnUse">
<stop stop-color="#FF928E"/>
<stop offset="1" stop-color="#FE7062"/>
</linearGradient>
<linearGradient id="paint16_linear_436_3602" x1="83.4011" y1="64.6407" x2="68.8454" y2="64.7782" gradientUnits="userSpaceOnUse">
<stop stop-color="#FEBBBA"/>
<stop offset="1" stop-color="#FF928E"/>
</linearGradient>
<linearGradient id="paint17_linear_436_3602" x1="72.0424" y1="62.3512" x2="81.9792" y2="84.446" gradientUnits="userSpaceOnUse">
<stop stop-color="#FEBBBA"/>
<stop offset="1" stop-color="#FF928E"/>
</linearGradient>
<linearGradient id="paint18_linear_436_3602" x1="68.8228" y1="54.9599" x2="64.702" y2="48.7386" gradientUnits="userSpaceOnUse">
<stop stop-color="#FEBBBA"/>
<stop offset="1" stop-color="#FF928E"/>
</linearGradient>
<linearGradient id="paint19_linear_436_3602" x1="215.302" y1="-105.326" x2="190.245" y2="-61.7893" gradientUnits="userSpaceOnUse">
<stop stop-color="#FF928E"/>
<stop offset="1" stop-color="#FE7062"/>
</linearGradient>
<linearGradient id="paint20_linear_436_3602" x1="115.445" y1="84.9067" x2="97.0257" y2="85.0807" gradientUnits="userSpaceOnUse">
<stop stop-color="#FEBBBA"/>
<stop offset="1" stop-color="#FF928E"/>
</linearGradient>
<linearGradient id="paint21_linear_436_3602" x1="101.115" y1="65.3963" x2="93.8326" y2="65.4651" gradientUnits="userSpaceOnUse">
<stop stop-color="#FEBBBA"/>
<stop offset="1" stop-color="#FF928E"/>
</linearGradient>
<linearGradient id="paint22_linear_436_3602" x1="92.0448" y1="60.8873" x2="99.9955" y2="55.9223" gradientUnits="userSpaceOnUse">
<stop stop-color="#FEBBBA"/>
<stop offset="1" stop-color="#FF928E"/>
</linearGradient>
<linearGradient id="paint23_linear_436_3602" x1="104.196" y1="50.7634" x2="93.9478" y2="59.0358" gradientUnits="userSpaceOnUse">
<stop stop-color="#09005D"/>
<stop offset="1" stop-color="#1A0F91"/>
</linearGradient>
<linearGradient id="paint24_linear_436_3602" x1="94.1652" y1="62.6843" x2="101.319" y2="58.2177" gradientUnits="userSpaceOnUse">
<stop stop-color="#FEBBBA"/>
<stop offset="1" stop-color="#FF928E"/>
</linearGradient>
<linearGradient id="paint25_linear_436_3602" x1="92.0792" y1="73.2573" x2="81.9606" y2="115.518" gradientUnits="userSpaceOnUse">
<stop stop-color="#09005D"/>
<stop offset="1" stop-color="#1A0F91"/>
</linearGradient>
<linearGradient id="paint26_linear_436_3602" x1="99.044" y1="84.4345" x2="93.2848" y2="84.4345" gradientUnits="userSpaceOnUse">
<stop stop-color="#FEBBBA"/>
<stop offset="1" stop-color="#FF928E"/>
</linearGradient>
<linearGradient id="paint27_linear_436_3602" x1="116.343" y1="112.407" x2="115.151" y2="141.676" gradientUnits="userSpaceOnUse">
<stop stop-color="#4F52FF"/>
<stop offset="1" stop-color="#4042E2"/>
</linearGradient>
<linearGradient id="paint28_linear_436_3602" x1="120.125" y1="139.944" x2="117.088" y2="139.944" gradientUnits="userSpaceOnUse">
<stop stop-color="#FEBBBA"/>
<stop offset="1" stop-color="#FF928E"/>
</linearGradient>
<linearGradient id="paint29_linear_436_3602" x1="100.306" y1="111.754" x2="99.1145" y2="141.023" gradientUnits="userSpaceOnUse">
<stop stop-color="#4F52FF"/>
<stop offset="1" stop-color="#4042E2"/>
</linearGradient>
<linearGradient id="paint30_linear_436_3602" x1="136.922" y1="126.27" x2="112.876" y2="126.27" gradientUnits="userSpaceOnUse">
<stop stop-color="#09005D"/>
<stop offset="1" stop-color="#1A0F91"/>
</linearGradient>
<linearGradient id="paint31_linear_436_3602" x1="105.738" y1="140.199" x2="102.112" y2="140.199" gradientUnits="userSpaceOnUse">
<stop stop-color="#FEBBBA"/>
<stop offset="1" stop-color="#FF928E"/>
</linearGradient>
<linearGradient id="paint32_linear_436_3602" x1="115.08" y1="116.276" x2="141.408" y2="146.197" gradientUnits="userSpaceOnUse">
<stop stop-color="#09005D"/>
<stop offset="1" stop-color="#1A0F91"/>
</linearGradient>
<linearGradient id="paint33_linear_436_3602" x1="125.882" y1="89.2176" x2="124.102" y2="84.7171" gradientUnits="userSpaceOnUse">
<stop stop-color="#FEBBBA"/>
<stop offset="1" stop-color="#FF928E"/>
</linearGradient>
<linearGradient id="paint34_linear_436_3602" x1="77.5882" y1="32.2677" x2="132.259" y2="115.775" gradientUnits="userSpaceOnUse">
<stop stop-color="#4F52FF"/>
<stop offset="1" stop-color="#4042E2"/>
</linearGradient>
<linearGradient id="paint35_linear_436_3602" x1="124.722" y1="96.6123" x2="90.0887" y2="38.752" gradientUnits="userSpaceOnUse">
<stop stop-color="#09005D"/>
<stop offset="1" stop-color="#1A0F91"/>
</linearGradient>
<linearGradient id="paint36_linear_436_3602" x1="110.607" y1="106.711" x2="102.23" y2="106.711" gradientUnits="userSpaceOnUse">
<stop stop-color="#FEBBBA"/>
<stop offset="1" stop-color="#FF928E"/>
</linearGradient>
<linearGradient id="paint37_linear_436_3602" x1="120.425" y1="80.0846" x2="128.41" y2="88.0662" gradientUnits="userSpaceOnUse">
<stop stop-color="#FEBBBA"/>
<stop offset="1" stop-color="#FF928E"/>
</linearGradient>
<linearGradient id="paint38_linear_436_3602" x1="127.386" y1="75.543" x2="117.983" y2="84.8585" gradientUnits="userSpaceOnUse">
<stop stop-color="#09005D"/>
<stop offset="1" stop-color="#1A0F91"/>
</linearGradient>
<linearGradient id="paint39_linear_436_3602" x1="121.719" y1="78.7902" x2="129.704" y2="86.7723" gradientUnits="userSpaceOnUse">
<stop stop-color="#FEBBBA"/>
<stop offset="1" stop-color="#FF928E"/>
</linearGradient>
<linearGradient id="paint40_linear_436_3602" x1="1905.9" y1="-1808.52" x2="1876.36" y2="-1776.91" gradientUnits="userSpaceOnUse">
<stop stop-color="#09005D"/>
<stop offset="1" stop-color="#1A0F91"/>
</linearGradient>
<linearGradient id="paint41_linear_436_3602" x1="-2407.72" y1="-719.449" x2="-2366.59" y2="-705.897" gradientUnits="userSpaceOnUse">
<stop stop-color="#09005D"/>
<stop offset="1" stop-color="#1A0F91"/>
</linearGradient>
<linearGradient id="paint42_linear_436_3602" x1="79.9166" y1="200.167" x2="57.6278" y2="110.798" gradientUnits="userSpaceOnUse">
<stop stop-color="#FEBBBA"/>
<stop offset="1" stop-color="#FF928E"/>
</linearGradient>
<linearGradient id="paint43_linear_436_3602" x1="29.2551" y1="90.7109" x2="50.4646" y2="126.503" gradientUnits="userSpaceOnUse">
<stop stop-color="#09005D"/>
<stop offset="1" stop-color="#1A0F91"/>
</linearGradient>
<linearGradient id="paint44_linear_436_3602" x1="69.0372" y1="143.659" x2="64.5804" y2="77.0216" gradientUnits="userSpaceOnUse">
<stop stop-color="#FEBBBA"/>
<stop offset="1" stop-color="#FF928E"/>
</linearGradient>
<linearGradient id="paint45_linear_436_3602" x1="65.137" y1="114.458" x2="35.4651" y2="114.458" gradientUnits="userSpaceOnUse">
<stop stop-color="#09005D"/>
<stop offset="1" stop-color="#1A0F91"/>
</linearGradient>
<linearGradient id="paint46_linear_436_3602" x1="41.413" y1="83.507" x2="62.6192" y2="119.295" gradientUnits="userSpaceOnUse">
<stop stop-color="#09005D"/>
<stop offset="1" stop-color="#1A0F91"/>
</linearGradient>
<linearGradient id="paint47_linear_436_3602" x1="44.2362" y1="65.0174" x2="48.5852" y2="87.9202" gradientUnits="userSpaceOnUse">
<stop stop-color="#09005D"/>
<stop offset="1" stop-color="#1A0F91"/>
</linearGradient>
<linearGradient id="paint48_linear_436_3602" x1="64.9775" y1="139.154" x2="48.34" y2="101.764" gradientUnits="userSpaceOnUse">
<stop stop-color="#4F52FF"/>
<stop offset="1" stop-color="#4042E2"/>
</linearGradient>
<linearGradient id="paint49_linear_436_3602" x1="51.4668" y1="93.6665" x2="53.2462" y2="82.2204" gradientUnits="userSpaceOnUse">
<stop stop-color="#FEBBBA"/>
<stop offset="1" stop-color="#FF928E"/>
</linearGradient>
<linearGradient id="paint50_linear_436_3602" x1="61.173" y1="81.5313" x2="47.7753" y2="77.0003" gradientUnits="userSpaceOnUse">
<stop stop-color="#FEBBBA"/>
<stop offset="1" stop-color="#FF928E"/>
</linearGradient>
<linearGradient id="paint51_linear_436_3602" x1="64.0325" y1="69.5951" x2="48.4232" y2="86.9402" gradientUnits="userSpaceOnUse">
<stop stop-color="#09005D"/>
<stop offset="1" stop-color="#1A0F91"/>
</linearGradient>
<linearGradient id="paint52_linear_436_3602" x1="61.5724" y1="80.3512" x2="48.1744" y2="75.8198" gradientUnits="userSpaceOnUse">
<stop stop-color="#FEBBBA"/>
<stop offset="1" stop-color="#FF928E"/>
</linearGradient>
<linearGradient id="paint53_linear_436_3602" x1="44.1251" y1="106.661" x2="19.2444" y2="106.661" gradientUnits="userSpaceOnUse">
<stop stop-color="#FEBBBA"/>
<stop offset="1" stop-color="#FF928E"/>
</linearGradient>
<linearGradient id="paint54_linear_436_3602" x1="43.6576" y1="104.106" x2="59.0819" y2="109.177" gradientUnits="userSpaceOnUse">
<stop stop-color="#09005D"/>
<stop offset="1" stop-color="#1A0F91"/>
</linearGradient>
<linearGradient id="paint55_linear_436_3602" x1="64.8504" y1="94.0113" x2="75.9357" y2="105.756" gradientUnits="userSpaceOnUse">
<stop stop-color="#09005D"/>
<stop offset="1" stop-color="#1A0F91"/>
</linearGradient>
<linearGradient id="paint56_linear_436_3602" x1="30.0652" y1="161.938" x2="30.2287" y2="179.291" gradientUnits="userSpaceOnUse">
<stop stop-color="#09005D"/>
<stop offset="1" stop-color="#1A0F91"/>
</linearGradient>
<linearGradient id="paint57_linear_436_3602" x1="25.8727" y1="142.559" x2="24.9743" y2="135.519" gradientUnits="userSpaceOnUse">
<stop stop-color="#FEBBBA"/>
<stop offset="1" stop-color="#FF928E"/>
</linearGradient>
<linearGradient id="paint58_linear_436_3602" x1="6.56452" y1="162.159" x2="6.72799" y2="179.512" gradientUnits="userSpaceOnUse">
<stop stop-color="#09005D"/>
<stop offset="1" stop-color="#1A0F91"/>
</linearGradient>
<linearGradient id="paint59_linear_436_3602" x1="6.14616" y1="144.972" x2="5.27105" y2="138.112" gradientUnits="userSpaceOnUse">
<stop stop-color="#FEBBBA"/>
<stop offset="1" stop-color="#FF928E"/>
</linearGradient>
<linearGradient id="paint60_linear_436_3602" x1="19.9875" y1="89.5903" x2="11.882" y2="129.141" gradientUnits="userSpaceOnUse">
<stop stop-color="#09005D"/>
<stop offset="1" stop-color="#1A0F91"/>
</linearGradient>
<linearGradient id="paint61_linear_436_3602" x1="5.61514" y1="114.763" x2="6.59588" y2="112.796" gradientUnits="userSpaceOnUse">
<stop stop-color="#4F52FF"/>
<stop offset="1" stop-color="#4042E2"/>
</linearGradient>
<linearGradient id="paint62_linear_436_3602" x1="21.8172" y1="73.4985" x2="4.98794" y2="123.617" gradientUnits="userSpaceOnUse">
<stop stop-color="#4F52FF"/>
<stop offset="1" stop-color="#4042E2"/>
</linearGradient>
<linearGradient id="paint63_linear_436_3602" x1="12.7936" y1="99.9182" x2="25.1205" y2="99.9182" gradientUnits="userSpaceOnUse">
<stop stop-color="#FEBBBA"/>
<stop offset="1" stop-color="#FF928E"/>
</linearGradient>
<linearGradient id="paint64_linear_436_3602" x1="24.153" y1="84.503" x2="47.1727" y2="84.503" gradientUnits="userSpaceOnUse">
<stop stop-color="#FEBBBA"/>
<stop offset="1" stop-color="#FF928E"/>
</linearGradient>
<linearGradient id="paint65_linear_436_3602" x1="15.8656" y1="71.6225" x2="23.8575" y2="63.4037" gradientUnits="userSpaceOnUse">
<stop stop-color="#FEBBBA"/>
<stop offset="1" stop-color="#FF928E"/>
</linearGradient>
<linearGradient id="paint66_linear_436_3602" x1="27.4839" y1="58.2567" x2="17.5263" y2="71.4616" gradientUnits="userSpaceOnUse">
<stop stop-color="#FEBBBA"/>
<stop offset="1" stop-color="#FF928E"/>
</linearGradient>
<linearGradient id="paint67_linear_436_3602" x1="12.2583" y1="20.7671" x2="22.7515" y2="51.2459" gradientUnits="userSpaceOnUse">
<stop stop-color="#E1473D"/>
<stop offset="1" stop-color="#E9605A"/>
</linearGradient>
<linearGradient id="paint68_linear_436_3602" x1="12.8552" y1="68.6955" x2="20.8471" y2="60.4766" gradientUnits="userSpaceOnUse">
<stop stop-color="#FEBBBA"/>
<stop offset="1" stop-color="#FF928E"/>
</linearGradient>
<linearGradient id="paint69_linear_436_3602" x1="141.398" y1="220.048" x2="111.861" y2="114.464" gradientUnits="userSpaceOnUse">
<stop stop-color="#4F52FF"/>
<stop offset="1" stop-color="#4042E2"/>
</linearGradient>
<linearGradient id="paint70_linear_436_3602" x1="139.849" y1="220.482" x2="110.312" y2="114.897" gradientUnits="userSpaceOnUse">
<stop stop-color="#4F52FF"/>
<stop offset="1" stop-color="#4042E2"/>
</linearGradient>
<linearGradient id="paint71_linear_436_3602" x1="58.287" y1="243.3" x2="28.7489" y2="137.715" gradientUnits="userSpaceOnUse">
<stop stop-color="#4F52FF"/>
<stop offset="1" stop-color="#4042E2"/>
</linearGradient>
<linearGradient id="paint72_linear_436_3602" x1="56.738" y1="243.733" x2="27.1999" y2="138.148" gradientUnits="userSpaceOnUse">
<stop stop-color="#4F52FF"/>
<stop offset="1" stop-color="#4042E2"/>
</linearGradient>
<linearGradient id="paint73_linear_436_3602" x1="16.4312" y1="75.0036" x2="21.1764" y2="94.9824" gradientUnits="userSpaceOnUse">
<stop stop-color="#09005D"/>
<stop offset="1" stop-color="#1A0F91"/>
</linearGradient>
<linearGradient id="paint74_linear_436_3602" x1="104.849" y1="230.273" x2="75.3119" y2="124.688" gradientUnits="userSpaceOnUse">
<stop stop-color="#4F52FF"/>
<stop offset="1" stop-color="#4042E2"/>
</linearGradient>
<clipPath id="clip0_436_3602">
<rect width="149" height="148.488" fill="white" transform="matrix(-1 0 0 1 149 0)"/>
</clipPath>
</defs>
</svg>
