<svg width="20" height="16" viewBox="0 0 20 16" fill="none" xmlns="http://www.w3.org/2000/svg">
<path d="M16.15 15.71H15.9C11.07 15.71 6.25 15.71 1.42 15.71C0.679998 15.71 0 15.18 0 14.29C0 10.15 0 6 0 1.85C0 0.68 0.929998 0 1.85 0C5.85 0.02 9.84 0.02 13.84 0C14.77 0 15.71 0.67 15.71 1.89C15.69 5.95 15.71 10.02 15.71 14.08C15.71 14.65 15.78 15.19 16.16 15.69L16.15 15.71ZM4.59 3.08C3.96 3.08 3.31999 3.08 2.68999 3.08C2.11999 3.08 1.76 3.44 1.75 4C1.75 5.12 1.75 6.25 1.75 7.37C1.75 7.91 2.09 8.28 2.63 8.29C3.93 8.3 5.23 8.3 6.53 8.29C7.06 8.29 7.4 7.94 7.41 7.42C7.42 6.26 7.42 5.11 7.41 3.95C7.41 3.42 7.03999 3.08 6.50999 3.08C5.86999 3.08 5.23 3.08 4.59 3.08ZM7.84 9.62C6.02 9.62 4.19 9.62 2.37 9.62C2.3 9.62 2.21999 9.62 2.14999 9.62C1.95999 9.64 1.8 9.79 1.77 9.99C1.74 10.16 1.85 10.37 2.02 10.43C2.12 10.47 2.23 10.48 2.34 10.48C6.02 10.48 9.7 10.48 13.39 10.48C13.45 10.48 13.51 10.48 13.57 10.48C13.79 10.45 13.94 10.28 13.95 10.07C13.95 9.8 13.77 9.63 13.46 9.63C11.59 9.63 9.72 9.63 7.84 9.63V9.62ZM7.84 12.65C9.68 12.65 11.52 12.65 13.35 12.65C13.42 12.65 13.5 12.65 13.57 12.65C13.77 12.63 13.92 12.47 13.94 12.27C13.97 11.98 13.77 11.79 13.44 11.79C9.70999 11.79 5.98 11.79 2.25 11.79C2.18 11.79 2.11 11.8 2.05 11.82C1.85 11.89 1.72 12.09 1.75 12.28C1.78 12.48 1.93999 12.64 2.14999 12.65C2.21999 12.65 2.29 12.65 2.35 12.65C4.17 12.65 6 12.65 7.82 12.65H7.84ZM11.34 8.3C11.88 8.3 12.43 8.3 12.97 8.3C13.18 8.3 13.39 8.3 13.6 8.28C13.81 8.26 13.95 8.08 13.95 7.87C13.95 7.66 13.81 7.49 13.61 7.45C13.54 7.44 13.47 7.43 13.41 7.43C12.04 7.43 10.67 7.43 9.31 7.43C9.24 7.43 9.17 7.43 9.11 7.44C8.89 7.48 8.74999 7.65 8.75999 7.87C8.75999 8.13 8.93999 8.29 9.25999 8.29C9.95999 8.29 10.66 8.29 11.36 8.29L11.34 8.3ZM11.34 3.95C11.73 3.95 12.13 3.95 12.52 3.95C12.85 3.95 13.17 3.95 13.5 3.95C13.77 3.95 13.95 3.76 13.95 3.52C13.95 3.28 13.78 3.09 13.52 3.09C12.06 3.09 10.61 3.09 9.14999 3.09C8.85999 3.09 8.66 3.37 8.75 3.65C8.81 3.84 8.98 3.95 9.23 3.95C9.93 3.95 10.63 3.95 11.33 3.95H11.34ZM11.34 6.12C12.05 6.12 12.77 6.12 13.48 6.12C13.76 6.12 13.94 5.96 13.95 5.71C13.96 5.43 13.77 5.25 13.45 5.25C12.05 5.25 10.66 5.25 9.25999 5.25C8.92999 5.25 8.74 5.42 8.74 5.69C8.74 5.96 8.93 6.11 9.25 6.11C9.94 6.11 10.64 6.11 11.33 6.11L11.34 6.12Z" fill="#144973"/>
<path d="M16.5601 2.21973C17.0901 2.21973 17.59 2.16973 18.08 2.22973C18.74 2.30973 19.1701 2.84973 19.1801 3.51973C19.1801 3.63973 19.1801 3.74973 19.1801 3.86973C19.1801 7.34973 19.1801 10.8297 19.1801 14.3097C19.1801 15.0297 18.78 15.5397 18.12 15.6897C17.4 15.8497 16.6401 15.3097 16.5701 14.5797C16.5601 14.4597 16.55 14.3397 16.55 14.2097C16.55 10.2997 16.55 6.38973 16.55 2.48973V2.21973H16.5601Z" fill="#144973"/>
</svg>
