<svg width="15" height="16" viewBox="0 0 15 16" fill="none" xmlns="http://www.w3.org/2000/svg">
<path d="M10.4778 15.1635C10.3124 15.1245 10.1421 15.0953 9.97664 15.0516C8.48771 14.638 7.50968 13.2707 7.607 11.7282C7.70432 10.1955 8.94996 8.90606 10.4729 8.76495C12.2052 8.59952 13.6892 9.73811 13.9909 11.4606C14.2829 13.1101 13.0907 14.8034 11.4412 15.1002C11.3439 15.1197 11.2515 15.1391 11.1542 15.1586H10.4729L10.4778 15.1635ZM10.3659 12.2197C10.0934 11.9131 9.8258 11.6114 9.55818 11.3098C9.32949 11.5141 9.11539 11.699 8.9013 11.8937C9.38301 12.4386 9.85499 12.9739 10.3416 13.5188C11.125 12.7111 11.8938 11.9083 12.6382 11.1395C12.4339 10.9156 12.2441 10.7064 12.0446 10.4826C11.4802 11.0616 10.9303 11.6309 10.3708 12.2148L10.3659 12.2197Z" fill="#144973"/>
<path d="M2.5611 3.47101C2.5611 3.16933 2.56596 2.86765 2.57083 2.56597C2.57569 1.296 3.53912 0.2012 4.79936 0.0260314C6.22504 -0.173466 7.53393 0.794826 7.74316 2.2059C7.76749 2.36648 7.77236 2.53191 7.77236 2.69248C7.77722 2.94064 7.77236 3.18393 7.77236 3.45155H9.86951C9.89384 3.79702 9.9133 4.11816 9.93277 4.44417C9.99602 5.55357 10.0544 6.66297 10.1225 7.7675C10.1274 7.86968 10.1225 7.91834 9.99602 7.94267C8.26867 8.293 6.95004 9.72355 6.74568 11.4606C6.65323 12.2343 6.77487 12.9739 7.10088 13.6794C7.12034 13.7184 7.13494 13.7573 7.15927 13.8157C7.10574 13.8157 7.06682 13.8254 7.02303 13.8254C5.43678 13.8254 3.8554 13.8254 2.26915 13.8254C1.15488 13.8254 0.244982 13.1004 0.040619 12.0153C-0.0323678 11.6309 0.0114243 11.2222 0.0308874 10.8232C0.0649479 10.0593 0.118472 9.29536 0.162264 8.53143C0.220653 7.57773 0.274177 6.61917 0.332566 5.66548C0.376358 4.95508 0.415285 4.24467 0.459077 3.53913C0.459077 3.51967 0.459077 3.5002 0.463943 3.48074C0.47854 3.47588 0.488271 3.46128 0.502869 3.46128C1.18894 3.46128 1.87502 3.46128 2.5611 3.46128C2.5611 4.11816 2.5611 4.77991 2.5611 5.43679H3.45154V3.46614C3.50993 3.46614 3.56832 3.45641 3.6267 3.45641C4.64365 3.45641 5.6606 3.45641 6.67755 3.45641C6.73594 3.45641 6.79433 3.45641 6.86245 3.45641C6.86245 3.12067 6.87705 2.79953 6.86245 2.48325C6.8138 1.63174 6.14718 0.969994 5.27621 0.892142C4.47822 0.824021 3.67536 1.38845 3.51966 2.19131C3.4418 2.6049 3.47587 3.04282 3.4564 3.47101C3.15472 3.47101 2.85304 3.47101 2.55623 3.47101H2.5611ZM6.89651 3.47101V5.44652H7.75289V3.46614H6.89651V3.47101Z" fill="#144973"/>
</svg>
