<svg width="17" height="17" viewBox="0 0 17 17" fill="none" xmlns="http://www.w3.org/2000/svg">
<path d="M16.14 8.01C16.14 9.95 16.14 11.89 16.14 13.83C16.14 14.79 15.69 15.5 14.83 15.93C14.5 16.1 14.13 16.15 13.76 16.15C11.27 16.15 8.77 16.15 6.28 16.15C4.95 16.15 3.61 16.15 2.28 16.15C1.24 16.15 0.37 15.47 0.1 14.47C0.05 14.27 0.01 14.06 0.01 13.85C0 9.99 0 6.14 0 2.29C0 1 1.02 0 2.31 0C6.18 0 10.04 0 13.91 0C15.2 0 16.15 0.97 16.15 2.26C16.15 4.18 16.15 6.09 16.15 8.01H16.14ZM5.6 10.26C6.49 10.26 7.38 10.26 8.27 10.26C8.77 10.26 9.11 9.85 8.99 9.37C8.71 8.21 7.98 7.45 6.89 7.01C6.82 6.98 6.72 6.99 6.64 7.01C5.95 7.22 5.27 7.22 4.58 7.01C4.5 6.99 4.39 6.98 4.32 7.01C3.25 7.43 2.56 8.21 2.24 9.31C2.11 9.75 2.42 10.27 2.98 10.26C3.85 10.24 4.73 10.26 5.6 10.26ZM7.49 3.94C7.49 2.88 6.66 2.04 5.61 2.04C4.6 2.04 3.72 2.91 3.72 3.92C3.72 4.97 4.56 5.81 5.61 5.81C6.65 5.81 7.49 4.98 7.49 3.94ZM12.29 3.79C11.86 3.79 11.42 3.79 10.99 3.79C10.6 3.79 10.28 4.1 10.27 4.46C10.27 4.84 10.56 5.13 10.97 5.14C11.85 5.14 12.73 5.14 13.61 5.14C14.02 5.14 14.31 4.85 14.31 4.47C14.31 4.08 14.02 3.8 13.6 3.8C13.17 3.8 12.73 3.8 12.3 3.8L12.29 3.79ZM12.3 6.49C11.86 6.49 11.41 6.49 10.97 6.49C10.58 6.49 10.29 6.76 10.27 7.11C10.26 7.48 10.55 7.82 10.93 7.83C11.83 7.84 12.73 7.84 13.63 7.83C14.01 7.83 14.31 7.49 14.29 7.11C14.28 6.73 14.01 6.49 13.59 6.49C13.16 6.49 12.72 6.49 12.29 6.49H12.3ZM12.71 13.57C12.81 13.57 12.9 13.57 12.99 13.57C13.36 13.54 13.65 13.24 13.64 12.89C13.63 12.55 13.3 12.23 12.94 12.22C12.79 12.22 12.63 12.22 12.48 12.22C12.2 12.23 11.93 12.45 11.84 12.74C11.77 12.98 11.88 13.24 12.1 13.42C12.29 13.57 12.5 13.58 12.71 13.57ZM6.54 13.57C6.65 13.57 6.73 13.57 6.81 13.57C7.18 13.55 7.5 13.24 7.49 12.88C7.49 12.5 7.19 12.23 6.79 12.22C6.64 12.22 6.49 12.22 6.35 12.22C6.08 12.22 5.81 12.43 5.72 12.7C5.63 12.96 5.72 13.18 5.91 13.37C6.1 13.56 6.33 13.59 6.55 13.57H6.54ZM9.59 13.57C9.69 13.57 9.75 13.57 9.81 13.57C10.23 13.57 10.53 13.27 10.53 12.89C10.53 12.53 10.19 12.22 9.81 12.22C9.67 12.22 9.54 12.22 9.4 12.22C9.11 12.22 8.82 12.45 8.74 12.73C8.67 12.98 8.79 13.26 9.02 13.43C9.21 13.57 9.42 13.57 9.59 13.56V13.57ZM3.44 13.57C3.55 13.57 3.64 13.57 3.72 13.57C4.08 13.55 4.39 13.23 4.38 12.88C4.38 12.54 4.05 12.23 3.69 12.22C3.54 12.22 3.38 12.21 3.23 12.22C2.93 12.24 2.72 12.42 2.61 12.69C2.5 12.95 2.61 13.17 2.79 13.36C2.98 13.55 3.22 13.58 3.44 13.57Z" fill="#144973"/>
</svg>
