<svg width="13" height="18" viewBox="0 0 13 18" fill="none" xmlns="http://www.w3.org/2000/svg">
<path d="M6.35881 18C6.2192 17.8895 6.05764 17.798 5.94349 17.6651C4.21286 15.6453 2.63587 13.516 1.40265 11.1481C0.854307 10.0949 0.386744 9.00692 0.144841 7.83531C-0.192331 6.20201 0.0587917 4.65981 0.90216 3.22588C1.76616 1.75718 3.02529 0.769981 4.65364 0.280562C6.1191 -0.160003 7.57271 -0.0794605 8.98506 0.506346C10.2437 1.02877 11.2408 1.87778 11.9792 3.02958C12.5381 3.90103 12.863 4.85654 12.9692 5.88247C13.0746 6.8996 12.9007 7.88504 12.5807 8.84936C12.1026 10.2894 11.394 11.6169 10.5972 12.8985C9.53911 14.6 8.33135 16.1924 7.01954 17.7042C6.91637 17.8231 6.76711 17.9019 6.63935 17.9996H6.35881V18ZM6.50149 9.79827C8.30984 9.79211 9.76828 8.32077 9.76214 6.50789C9.75599 4.70954 8.26462 3.22368 6.48744 3.24525C4.67822 3.26769 3.23207 4.72803 3.23558 6.53034C3.23909 8.33221 4.70983 9.80399 6.50149 9.79783V9.79827Z" fill="#144973"/>
</svg>
