<svg width="29" height="23" viewBox="0 0 29 23" fill="none" xmlns="http://www.w3.org/2000/svg">
<path d="M14.5 17.25C12.18 17.25 9.86 15.2375 8.7 14.375C2.9 10.35 1.16 8.9125 0 8.05V20.125C0 21.7125 1.29866 23 2.9 23H26.1C27.7013 23 29 21.7125 29 20.125V8.05C27.84 8.9125 26.1 10.35 20.3 14.375C19.14 15.2375 16.82 17.25 14.5 17.25ZM26.1 0H14.5H2.9C1.29866 0 0 1.28746 0 2.875V4.3125C2.32 6.0375 2.03 6.0375 10.44 12.075C11.31 12.65 13.05 14.375 14.5 14.375C15.95 14.375 17.69 12.65 18.56 12.3625C26.97 6.325 26.68 6.325 29 4.6V2.875C29 1.28746 27.7013 0 26.1 0Z" fill="#174873"/>
</svg>
