<svg width="17" height="17" viewBox="0 0 17 17" fill="none" xmlns="http://www.w3.org/2000/svg">
<path d="M16.3929 14.5714H0.607143C0.446119 14.5714 0.291689 14.6354 0.177828 14.7493C0.0639667 14.8631 0 15.0175 0 15.1786L0 16.3929C0 16.5539 0.0639667 16.7083 0.177828 16.8222C0.291689 16.936 0.446119 17 0.607143 17H16.3929C16.5539 17 16.7083 16.936 16.8222 16.8222C16.936 16.7083 17 16.5539 17 16.3929V15.1786C17 15.0175 16.936 14.8631 16.8222 14.7493C16.7083 14.6354 16.5539 14.5714 16.3929 14.5714ZM16.3929 9.71429H0.607143C0.446119 9.71429 0.291689 9.77825 0.177828 9.89211C0.0639667 10.006 0 10.1604 0 10.3214L0 11.5357C0 11.6967 0.0639667 11.8512 0.177828 11.965C0.291689 12.0789 0.446119 12.1429 0.607143 12.1429H16.3929C16.5539 12.1429 16.7083 12.0789 16.8222 11.965C16.936 11.8512 17 11.6967 17 11.5357V10.3214C17 10.1604 16.936 10.006 16.8222 9.89211C16.7083 9.77825 16.5539 9.71429 16.3929 9.71429ZM16.3929 4.85714H0.607143C0.446119 4.85714 0.291689 4.92111 0.177828 5.03497C0.0639667 5.14883 0 5.30326 0 5.46429L0 6.67857C0 6.8396 0.0639667 6.99402 0.177828 7.10789C0.291689 7.22175 0.446119 7.28571 0.607143 7.28571H16.3929C16.5539 7.28571 16.7083 7.22175 16.8222 7.10789C16.936 6.99402 17 6.8396 17 6.67857V5.46429C17 5.30326 16.936 5.14883 16.8222 5.03497C16.7083 4.92111 16.5539 4.85714 16.3929 4.85714ZM16.3929 0H0.607143C0.446119 0 0.291689 0.0639666 0.177828 0.177828C0.0639667 0.291689 0 0.446119 0 0.607143L0 1.82143C0 1.98245 0.0639667 2.13688 0.177828 2.25074C0.291689 2.3646 0.446119 2.42857 0.607143 2.42857H16.3929C16.5539 2.42857 16.7083 2.3646 16.8222 2.25074C16.936 2.13688 17 1.98245 17 1.82143V0.607143C17 0.446119 16.936 0.291689 16.8222 0.177828C16.7083 0.0639666 16.5539 0 16.3929 0V0Z" fill="#174873"/>
</svg>
