<svg width="33" height="33" viewBox="0 0 33 33" fill="none" xmlns="http://www.w3.org/2000/svg">
<path d="M24.48 0H8.3C3.72 0 0 3.72 0 8.3V24.48C0 29.06 3.72 32.78 8.3 32.78H24.48C29.06 32.78 32.78 29.06 32.78 24.48V8.3C32.78 3.72 29.06 0 24.48 0ZM25.73 11.04C24.87 15.14 23.99 19.24 23.12 23.34C22.86 24.58 22.24 24.82 21.21 24.06C19.92 23.11 18.62 22.15 17.33 21.2C17.24 21.13 17.14 21.07 17.04 20.99C16.31 21.7 15.59 22.41 14.85 23.09C14.64 23.29 14.35 23.4 14.09 23.56C14.06 23.53 14.04 23.5 14.01 23.47C14.06 22.68 14.11 21.88 14.17 21.09C14.21 20.51 14.26 19.94 14.29 19.36C14.3 19.1 14.39 18.91 14.59 18.74C17.18 16.41 19.77 14.07 22.35 11.73C22.49 11.61 22.56 11.41 22.66 11.25C22.44 11.28 22.19 11.25 22.02 11.36C20.78 12.12 19.55 12.9 18.31 13.68C16.24 14.98 14.18 16.28 12.12 17.58C11.92 17.71 11.74 17.74 11.51 17.66C10.17 17.23 8.82 16.82 7.48 16.39C7.16 16.29 6.78 16.18 6.76 15.78C6.74 15.39 7.09 15.21 7.4 15.09C8.65 14.59 9.91 14.1 11.17 13.62C15.64 11.9 20.11 10.17 24.58 8.45C24.71 8.4 24.84 8.35 24.98 8.32C25.57 8.19 26.07 8.52 26.04 9.13C26.01 9.77 25.88 10.41 25.75 11.04H25.73Z" fill="#174873"/>
</svg>
