<svg width="13" height="13" viewBox="0 0 13 13" fill="none" xmlns="http://www.w3.org/2000/svg">
<path d="M5.32176 0.000325978C5.54219 0.0339074 5.76428 0.059012 5.98238 0.102374C6.85843 0.27615 7.63441 0.652066 8.30101 1.23599C8.89281 1.75406 9.33931 2.37483 9.62689 3.10123C9.89054 3.76764 10.0056 4.45687 9.96269 5.17349C9.90883 6.07302 9.62125 6.89201 9.11024 7.63635C9.05106 7.72275 9.10126 7.7547 9.14981 7.80197C10.3198 8.94048 11.49 10.0783 12.6587 11.2185C12.9765 11.5285 13.0802 11.8956 12.9366 12.3198C12.7178 12.967 11.8644 13.2148 11.3228 12.7873C11.2557 12.7345 11.1925 12.6765 11.1313 12.6168C9.9587 11.4751 8.78575 10.3333 7.61613 9.18859C7.54464 9.11882 7.49577 9.11328 7.409 9.16055C6.47244 9.67242 5.46672 9.86804 4.40515 9.74448C3.33028 9.61928 2.38873 9.19316 1.5938 8.46643C0.777925 7.72079 0.273901 6.80431 0.0787421 5.73231C-0.0725309 4.90289 -0.00603564 4.08161 0.279887 3.28348C0.600719 2.38754 1.14065 1.64158 1.90067 1.05243C2.51574 0.575774 3.2086 0.25887 3.97726 0.105309C4.1824 0.0642285 4.39019 0.0348855 4.59666 0C4.83836 0 5.08006 0 5.32176 0V0.000325978ZM4.99029 1.74884C3.22023 1.74395 1.77898 3.14948 1.77267 4.88691C1.76635 6.62271 3.21392 8.04748 4.98464 8.04878C6.74706 8.04976 8.19229 6.63249 8.19661 4.89865C8.20094 3.16643 6.76268 1.75373 4.98996 1.74917L4.99029 1.74884Z" fill="#144973"/>
</svg>
