<svg width="34" height="33" viewBox="0 0 34 33" fill="none" xmlns="http://www.w3.org/2000/svg">
<path d="M25.0601 0H8.88008C4.30008 0 0.580078 3.72 0.580078 8.3V24.48C0.580078 29.06 4.30008 32.78 8.88008 32.78H25.0601C29.6401 32.78 33.3601 29.06 33.3601 24.48V8.3C33.3601 3.72 29.6401 0 25.0601 0ZM22.2801 8.92H19.7701C18.8801 8.92 18.7001 9.28 18.7001 10.2V12.41H22.2801L21.9401 16.29H18.7101V27.89H14.0801V16.34H11.6701V12.41H14.0801V9.31C14.0801 6.4 15.6301 4.89 19.0801 4.89H22.2901V8.92H22.2801Z" fill="#174873"/>
</svg>
