<svg width="33" height="33" viewBox="0 0 33 33" fill="none" xmlns="http://www.w3.org/2000/svg">
<path d="M24.48 0H8.3C3.72 0 0 3.72 0 8.3V24.48C0 29.06 3.72 32.78 8.3 32.78H24.48C29.06 32.78 32.78 29.06 32.78 24.48V8.3C32.78 3.72 29.06 0 24.48 0ZM26.69 22.51C26.69 22.51 26.66 22.55 26.65 22.58C26.42 23.54 25.7 24.12 24.71 24.12C19.16 24.12 13.61 24.12 8.05 24.12C6.9 24.12 6.08 23.3 6.08 22.14C6.08 19.18 6.08 16.21 6.08 13.25V13.01C6.16 13.06 6.21 13.09 6.25 13.12C9.01 14.96 11.78 16.81 14.54 18.65C15.74 19.45 17 19.45 18.19 18.66C20.95 16.82 23.71 14.98 26.47 13.14C26.54 13.1 26.61 13.06 26.68 13.02V22.52L26.69 22.51ZM26.69 10.88C26.69 10.88 26.66 10.91 26.66 10.93C26.55 11.48 26.23 11.86 25.77 12.17C23.19 13.88 20.62 15.6 18.05 17.32C17.81 17.48 17.58 17.65 17.33 17.79C16.63 18.17 15.94 18.12 15.28 17.68C13.6 16.56 11.92 15.44 10.25 14.32C9.16 13.6 8.08 12.87 6.99 12.15C6.23 11.65 5.93 10.87 6.18 10.05C6.42 9.23 7.15 8.69 8.03 8.69C13.61 8.69 19.19 8.69 24.77 8.69C25.71 8.69 26.46 9.29 26.67 10.21C26.67 10.24 26.7 10.27 26.71 10.3V10.9L26.69 10.88Z" fill="#174873"/>
</svg>
