<svg width="33" height="33" viewBox="0 0 33 33" fill="none" xmlns="http://www.w3.org/2000/svg">
<path d="M24.48 0H8.3C3.72 0 0 3.72 0 8.3V24.48C0 29.06 3.72 32.78 8.3 32.78H24.48C29.06 32.78 32.78 29.06 32.78 24.48V8.3C32.78 3.72 29.06 0 24.48 0ZM23.48 12.25C23.74 18.1 19.38 24.63 11.65 24.63C9.3 24.63 7.11 23.94 5.27 22.76C7.48 23.02 9.68 22.41 11.43 21.04C9.61 21.01 8.07 19.8 7.54 18.15C8.19 18.27 8.83 18.24 9.42 18.08C7.42 17.68 6.04 15.88 6.08 13.95C6.64 14.26 7.28 14.45 7.97 14.47C6.12 13.23 5.59 10.79 6.68 8.91C8.73 11.43 11.8 13.08 15.26 13.26C14.65 10.66 16.63 8.15 19.31 8.15C20.51 8.15 21.59 8.65 22.35 9.46C23.3 9.27 24.19 8.93 24.99 8.45C24.68 9.42 24.02 10.24 23.16 10.75C24 10.65 24.8 10.43 25.55 10.1C24.99 10.94 24.29 11.67 23.47 12.25H23.48Z" fill="#174873"/>
</svg>
